<?xml version="1.0" standalone="no"?>
<!DOCTYPE svg PUBLIC "-//W3C//DTD SVG 1.1//EN" "http://www.w3.org/Graphics/SVG/1.1/DTD/svg11.dtd" >
<svg xmlns="http://www.w3.org/2000/svg" xmlns:xlink="http://www.w3.org/1999/xlink" version="1.1">
<metadata>
Created by FontForge 20170910 at Wed Jun 27 12:51:33 2018
 By Jimmy Wärting
Copyright (c) 2018 Mazda Motor Corp.
</metadata>
<defs>
<font id="MazdaType-Medium" horiz-adv-x="600" >
  <font-face 
    font-family="Mazda Type"
    font-weight="500"
    font-stretch="normal"
    units-per-em="1000"
    panose-1="1 0 0 0 0 0 0 0 0 0"
    ascent="800"
    descent="-200"
    x-height="477"
    cap-height="680"
    bbox="-267 -237 1076 939"
    underline-thickness="50"
    underline-position="-100"
    stemh="55"
    stemv="97"
    unicode-range="U+000D-FEFF"
  />
<missing-glyph horiz-adv-x="572" 
d="M50 0h472v680h-472v-680zM148 618h276l-138 -228zM116 109v462l140 -231zM316 340l140 231v-462zM148 62l138 228l138 -228h-276z" />
    <glyph glyph-name="f_f" unicode="ff" horiz-adv-x="586" 
d="M570 673c-77 0 -91 -63 -91 -187v-9h96l-5 -51h-91v-426h-97v426h-193v-426h-97v426h-74v51h74v32c0 123 55 220 183 220c23 0 45 -2 66 -11l5 -61h-10c-18 12 -33 16 -56 16c-77 0 -91 -63 -91 -187v-9h193v32c0 123 55 220 183 220c23 0 45 -2 66 -11l5 -61h-10
c-18 12 -33 16 -56 16z" />
    <glyph glyph-name="f_f_i" unicode="ffi" horiz-adv-x="843" 
d="M18 426v51h74v32c0 123 55 220 183 220c23 0 45 -2 66 -11l5 -61h-10c-18 12 -33 16 -56 16c-77 0 -91 -63 -91 -187v-9h193v32c0 123 55 220 176 220c18 0 38 -2 53 -8l2 -56h-10c-15 8 -26 10 -42 10c-68 0 -82 -65 -82 -189v-9h96l-5 -51h-91v-426h-97v426h-193v-426
h-97v426h-74zM661 592v102h103v-102h-103zM664 0v477h97v-477h-97z" />
    <glyph glyph-name="f_f_l" unicode="ffl" horiz-adv-x="842" 
d="M18 426v51h74v32c0 123 55 220 183 220c23 0 45 -2 66 -11l5 -61h-10c-18 12 -33 16 -56 16c-77 0 -91 -63 -91 -187v-9h193v32c0 123 55 220 176 220c18 0 38 -2 53 -8l2 -56h-10c-15 8 -26 10 -42 10c-68 0 -82 -65 -82 -189v-9h96l-5 -51h-91v-426h-97v426h-193v-426
h-97v426h-74zM664 0v708l97 11v-719h-97z" />
    <glyph glyph-name="fi" unicode="fi" horiz-adv-x="553" 
d="M268 729c18 0 38 -2 53 -8l2 -56h-10c-15 8 -26 10 -42 10c-68 0 -82 -65 -82 -189v-9h96l-5 -51h-91v-426h-97v426h-74v51h74v32c0 123 55 220 176 220zM474 694v-102h-103v102h103zM471 477v-477h-97v477h97z" />
    <glyph glyph-name="fl" unicode="fl" horiz-adv-x="552" 
d="M268 729c18 0 38 -2 53 -8l2 -56h-10c-15 8 -26 10 -42 10c-68 0 -82 -65 -82 -189v-9h96l-5 -51h-91v-426h-97v426h-74v51h74v32c0 123 55 220 176 220zM374 0v708l97 11v-719h-97z" />
    <glyph glyph-name=".notdef" horiz-adv-x="572" 
d="M50 0h472v680h-472v-680zM148 618h276l-138 -228zM116 109v462l140 -231zM316 340l140 231v-462zM148 62l138 228l138 -228h-276z" />
    <glyph glyph-name=".null" horiz-adv-x="0" 
 />
    <glyph glyph-name=".null" horiz-adv-x="0" 
 />
    <glyph glyph-name="CR" unicode="&#xd;" horiz-adv-x="258" 
 />
    <glyph glyph-name="space" unicode=" " horiz-adv-x="258" 
 />
    <glyph glyph-name="A" unicode="A" horiz-adv-x="663" 
d="M442 254h-256l-110 -254h-75l300 670l75 11l286 -681h-116zM209 313h212l-101 249h-5z" />
    <glyph glyph-name="Aacute" unicode="&#xc1;" horiz-adv-x="663" 
d="M485 885l-156 -129h-55l106 129h105zM442 254h-256l-110 -254h-75l300 670l75 11l286 -681h-116zM209 313h212l-101 249h-5z" />
    <glyph glyph-name="Abreve" unicode="&#x102;" horiz-adv-x="663" 
d="M235 883c6 -46 46 -73 97 -73c54 0 91 27 101 73h45c-10 -78 -61 -129 -147 -129c-87 0 -137 52 -143 129h47zM442 254h-256l-110 -254h-75l300 670l75 11l286 -681h-116zM209 313h212l-101 249h-5z" />
    <glyph glyph-name="Acircumflex" unicode="&#xc2;" horiz-adv-x="663" 
d="M374 885l110 -129h-56l-96 76l-96 -76h-54l110 129h82zM442 254h-256l-110 -254h-75l300 670l75 11l286 -681h-116zM209 313h212l-101 249h-5z" />
    <glyph glyph-name="Adieresis" unicode="&#xc4;" horiz-adv-x="663" 
d="M292 872v-96h-92v96h92zM466 872v-96h-93v96h93zM442 254h-256l-110 -254h-75l300 670l75 11l286 -681h-116zM209 313h212l-101 249h-5z" />
    <glyph glyph-name="Agrave" unicode="&#xc0;" horiz-adv-x="663" 
d="M181 885h105l106 -129h-55zM442 254h-256l-110 -254h-75l300 670l75 11l286 -681h-116zM209 313h212l-101 249h-5z" />
    <glyph glyph-name="Amacron" unicode="&#x100;" horiz-adv-x="663" 
d="M491 850v-53h-317v53h317zM442 254h-256l-110 -254h-75l300 670l75 11l286 -681h-116zM209 313h212l-101 249h-5z" />
    <glyph glyph-name="Aogonek" unicode="&#x104;" horiz-adv-x="663" 
d="M1 0l300 670l75 11l286 -681c-79 -41 -108 -73 -108 -105c0 -24 15 -37 43 -37c20 0 41 6 57 13h7l-15 -37c-20 -11 -45 -18 -74 -18c-47 0 -89 19 -89 69c0 39 33 79 115 115h-52l-104 254h-256l-110 -254h-75zM209 313h212l-101 249h-5z" />
    <glyph glyph-name="Aring" unicode="&#xc5;" horiz-adv-x="663" 
d="M334 726c-64 0 -111 49 -111 107c0 59 48 106 111 106c62 0 110 -46 110 -106s-48 -107 -110 -107zM334 762c42 0 67 32 67 71c0 35 -23 70 -68 70c-40 0 -66 -30 -66 -70c0 -38 24 -71 67 -71zM442 254h-256l-110 -254h-75l300 670l75 11l286 -681h-116zM209 313h212
l-101 249h-5z" />
    <glyph glyph-name="Aringacute" unicode="&#x1fa;" horiz-adv-x="663" 
d="M392 643l270 -643h-116l-104 254h-256l-110 -254h-75l287 641c-37 18 -61 54 -61 93c0 45 31 84 75 99l75 83h105l-112 -82c46 -13 78 -52 78 -100c0 -39 -22 -73 -56 -91zM337 802c-40 0 -66 -30 -66 -68c0 -35 24 -68 67 -68c42 0 67 32 67 68c0 34 -23 68 -68 68z
M209 313h212l-101 249h-5z" />
    <glyph glyph-name="Atilde" unicode="&#xc3;" horiz-adv-x="663" 
d="M342 856c21 -11 45 -24 63 -24c25 0 39 10 48 43h40c-11 -65 -42 -104 -89 -104c-26 0 -49 8 -74 22c-23 12 -45 24 -66 24c-23 0 -41 -11 -48 -46h-42c6 55 38 107 91 107c23 0 46 -5 77 -22zM442 254h-256l-110 -254h-75l300 670l75 11l286 -681h-116zM209 313h212
l-101 249h-5z" />
    <glyph glyph-name="AE" unicode="&#xc6;" horiz-adv-x="884" 
d="M854 69h6l-34 -69h-349v252h-236l-158 -252h-83l434 680h378v-60h-231v-244h207v-59h-207v-256h130c65 0 105 0 143 8zM279 313h198v307h-6z" />
    <glyph glyph-name="AEacute" unicode="&#x1fc;" horiz-adv-x="884" 
d="M741 885l-156 -129h-55l106 129h105zM854 69h6l-34 -69h-349v252h-236l-158 -252h-83l434 680h378v-60h-231v-244h207v-59h-207v-256h130c65 0 105 0 143 8zM279 313h198v307h-6z" />
    <glyph glyph-name="B" unicode="B" horiz-adv-x="584" 
d="M271 680c127 0 218 -44 218 -158c0 -77 -49 -124 -142 -148v-5c97 -10 188 -60 188 -167c0 -151 -126 -202 -254 -202h-188v680h178zM251 393c83 0 137 43 137 118c0 80 -44 110 -137 110h-54v-228h54zM265 60c110 0 164 43 164 139c0 92 -77 137 -179 137h-53v-276h68z
" />
    <glyph glyph-name="C" unicode="C" horiz-adv-x="715" 
d="M647 549c-50 48 -120 80 -205 80c-150 0 -273 -99 -273 -292c0 -192 129 -281 272 -281c103 0 182 33 231 76h10l-25 -89c-48 -31 -134 -55 -224 -55c-216 0 -379 116 -379 350s185 354 383 354c84 0 165 -23 215 -55l7 -88h-12z" />
    <glyph glyph-name="Cacute" unicode="&#x106;" horiz-adv-x="715" 
d="M573 885l-156 -129h-55l106 129h105zM647 549c-50 48 -120 80 -205 80c-150 0 -273 -99 -273 -292c0 -192 129 -281 272 -281c103 0 182 33 231 76h10l-25 -89c-48 -31 -134 -55 -224 -55c-216 0 -379 116 -379 350s185 354 383 354c84 0 165 -23 215 -55l7 -88h-12z" />
    <glyph glyph-name="Ccaron" unicode="&#x10c;" horiz-adv-x="715" 
d="M380 756l-111 129h57l97 -76l96 76h53l-111 -129h-81zM647 549c-50 48 -120 80 -205 80c-150 0 -273 -99 -273 -292c0 -192 129 -281 272 -281c103 0 182 33 231 76h10l-25 -89c-48 -31 -134 -55 -224 -55c-216 0 -379 116 -379 350s185 354 383 354
c84 0 165 -23 215 -55l7 -88h-12z" />
    <glyph glyph-name="Ccedilla" unicode="&#xc7;" horiz-adv-x="715" 
d="M54 338c0 234 185 354 383 354c84 0 165 -23 215 -55l7 -88h-12c-50 48 -120 80 -205 80c-150 0 -273 -99 -273 -292c0 -192 129 -281 272 -281c103 0 182 33 231 76h10l-25 -89c-46 -30 -127 -54 -213 -55l-16 -34l11 -3c34 -9 72 -29 72 -74c0 -71 -82 -95 -157 -95
l-15 33l3 3c59 0 101 16 101 50c0 31 -31 43 -70 50l-1 6l34 64c-202 9 -352 126 -352 350z" />
    <glyph glyph-name="Ccircumflex" unicode="&#x108;" horiz-adv-x="715" 
d="M462 885l110 -129h-56l-96 76l-96 -76h-54l110 129h82zM647 549c-50 48 -120 80 -205 80c-150 0 -273 -99 -273 -292c0 -192 129 -281 272 -281c103 0 182 33 231 76h10l-25 -89c-48 -31 -134 -55 -224 -55c-216 0 -379 116 -379 350s185 354 383 354
c84 0 165 -23 215 -55l7 -88h-12z" />
    <glyph glyph-name="Cdotaccent" unicode="&#x10a;" horiz-adv-x="715" 
d="M472 873v-101h-102v101h102zM647 549c-50 48 -120 80 -205 80c-150 0 -273 -99 -273 -292c0 -192 129 -281 272 -281c103 0 182 33 231 76h10l-25 -89c-48 -31 -134 -55 -224 -55c-216 0 -379 116 -379 350s185 354 383 354c84 0 165 -23 215 -55l7 -88h-12z" />
    <glyph glyph-name="D" unicode="D" horiz-adv-x="775" 
d="M352 680c233 0 369 -111 369 -341c0 -219 -159 -339 -390 -339h-238v680h259zM316 60c193 0 292 97 292 279c0 191 -91 281 -285 281h-125v-560h118z" />
    <glyph glyph-name="Eth" unicode="&#xd0;" horiz-adv-x="779" 
d="M356 680c233 0 369 -111 369 -341c0 -219 -159 -339 -390 -339h-238v318h-72v58h72v304h259zM320 60c193 0 292 97 292 279c0 191 -91 281 -285 281h-125v-244h182v-58h-182v-258h118z" />
    <glyph glyph-name="Dcaron" unicode="&#x10e;" horiz-adv-x="775" 
d="M327 756l-111 129h57l97 -76l96 76h53l-111 -129h-81zM352 680c233 0 369 -111 369 -341c0 -219 -159 -339 -390 -339h-238v680h259zM316 60c193 0 292 97 292 279c0 191 -91 281 -285 281h-125v-560h118z" />
    <glyph glyph-name="Dcroat" unicode="&#x110;" horiz-adv-x="779" 
d="M356 680c233 0 369 -111 369 -341c0 -219 -159 -339 -390 -339h-238v318h-72v58h72v304h259zM320 60c193 0 292 97 292 279c0 191 -91 281 -285 281h-125v-244h182v-58h-182v-258h118z" />
    <glyph glyph-name="E" unicode="E" horiz-adv-x="500" 
d="M327 61c65 0 105 0 143 8h6l-34 -69h-349v680h335v-60h-231v-244h207v-59h-207v-256h130z" />
    <glyph glyph-name="Eacute" unicode="&#xc9;" horiz-adv-x="500" 
d="M411 885l-156 -129h-55l106 129h105zM327 61c65 0 105 0 143 8h6l-34 -69h-349v680h335v-60h-231v-244h207v-59h-207v-256h130z" />
    <glyph glyph-name="Ebreve" unicode="&#x114;" horiz-adv-x="500" 
d="M161 883c6 -46 46 -73 97 -73c54 0 91 27 101 73h45c-10 -78 -61 -129 -147 -129c-87 0 -137 52 -143 129h47zM327 61c65 0 105 0 143 8h6l-34 -69h-349v680h335v-60h-231v-244h207v-59h-207v-256h130z" />
    <glyph glyph-name="Ecaron" unicode="&#x11a;" horiz-adv-x="500" 
d="M218 756l-111 129h57l97 -76l96 76h53l-111 -129h-81zM327 61c65 0 105 0 143 8h6l-34 -69h-349v680h335v-60h-231v-244h207v-59h-207v-256h130z" />
    <glyph glyph-name="Ecircumflex" unicode="&#xca;" horiz-adv-x="500" 
d="M300 885l110 -129h-56l-96 76l-96 -76h-54l110 129h82zM327 61c65 0 105 0 143 8h6l-34 -69h-349v680h335v-60h-231v-244h207v-59h-207v-256h130z" />
    <glyph glyph-name="Edieresis" unicode="&#xcb;" horiz-adv-x="500" 
d="M218 872v-96h-92v96h92zM392 872v-96h-93v96h93zM327 61c65 0 105 0 143 8h6l-34 -69h-349v680h335v-60h-231v-244h207v-59h-207v-256h130z" />
    <glyph glyph-name="Edotaccent" unicode="&#x116;" horiz-adv-x="500" 
d="M310 873v-101h-102v101h102zM327 61c65 0 105 0 143 8h6l-34 -69h-349v680h335v-60h-231v-244h207v-59h-207v-256h130z" />
    <glyph glyph-name="Egrave" unicode="&#xc8;" horiz-adv-x="500" 
d="M107 885h105l106 -129h-55zM327 61c65 0 105 0 143 8h6l-34 -69h-349v680h335v-60h-231v-244h207v-59h-207v-256h130z" />
    <glyph glyph-name="Emacron" unicode="&#x112;" horiz-adv-x="500" 
d="M417 850v-53h-317v53h317zM327 61c65 0 105 0 143 8h6l-34 -69h-349v680h335v-60h-231v-244h207v-59h-207v-256h130z" />
    <glyph glyph-name="Eogonek" unicode="&#x118;" horiz-adv-x="500" 
d="M93 0v680h335v-60h-231v-244h207v-59h-207v-256h130c65 0 105 0 143 8h6l-34 -69c-74 -44 -101 -76 -101 -105c0 -24 15 -37 44 -37c19 0 40 6 56 13h7l-15 -37c-20 -11 -45 -18 -74 -18c-47 0 -89 19 -89 69c0 39 34 79 114 115h-291z" />
    <glyph glyph-name="F" unicode="F" horiz-adv-x="463" 
d="M445 680v-61h-247v-251h222v-59h-222v-309h-105v680h352z" />
    <glyph glyph-name="G" unicode="G" horiz-adv-x="755" 
d="M432 -12c-214 0 -377 116 -378 350s187 354 383 354c91 0 178 -24 220 -54l8 -87h-12c-52 50 -122 79 -211 79c-152 0 -273 -103 -273 -293c0 -189 126 -285 271 -285c58 0 103 12 133 25v258h103v-280c-51 -39 -150 -67 -244 -67z" />
    <glyph glyph-name="Gbreve" unicode="&#x11e;" horiz-adv-x="755" 
d="M313 883c6 -46 46 -73 97 -73c54 0 91 27 101 73h45c-10 -78 -61 -129 -147 -129c-87 0 -137 52 -143 129h47zM432 -12c-214 0 -377 116 -378 350s187 354 383 354c91 0 178 -24 220 -54l8 -87h-12c-52 50 -122 79 -211 79c-152 0 -273 -103 -273 -293
c0 -189 126 -285 271 -285c58 0 103 12 133 25v258h103v-280c-51 -39 -150 -67 -244 -67z" />
    <glyph glyph-name="Gcircumflex" unicode="&#x11c;" horiz-adv-x="755" 
d="M452 885l110 -129h-56l-96 76l-96 -76h-54l110 129h82zM432 -12c-214 0 -377 116 -378 350s187 354 383 354c91 0 178 -24 220 -54l8 -87h-12c-52 50 -122 79 -211 79c-152 0 -273 -103 -273 -293c0 -189 126 -285 271 -285c58 0 103 12 133 25v258h103v-280
c-51 -39 -150 -67 -244 -67z" />
    <glyph glyph-name="uni0122" unicode="&#x122;" horiz-adv-x="755" 
d="M432 -12c-214 0 -377 116 -378 350s187 354 383 354c91 0 178 -24 220 -54l8 -87h-12c-52 50 -122 79 -211 79c-152 0 -273 -103 -273 -293c0 -189 126 -285 271 -285c58 0 103 12 133 25v258h103v-280c-51 -39 -150 -67 -244 -67zM464 -70c-6 -41 -34 -107 -58 -146h-47
c15 53 20 104 21 146h84z" />
    <glyph glyph-name="Gdotaccent" unicode="&#x120;" horiz-adv-x="755" 
d="M462 873v-101h-102v101h102zM432 -12c-214 0 -377 116 -378 350s187 354 383 354c91 0 178 -24 220 -54l8 -87h-12c-52 50 -122 79 -211 79c-152 0 -273 -103 -273 -293c0 -189 126 -285 271 -285c58 0 103 12 133 25v258h103v-280c-51 -39 -150 -67 -244 -67z" />
    <glyph glyph-name="H" unicode="H" horiz-adv-x="752" 
d="M198 680v-290h357v290h105v-680h-105v326h-357v-326h-105v680h105z" />
    <glyph glyph-name="Hbar" unicode="&#x126;" horiz-adv-x="760" 
d="M734 570v-60h-70v-510h-105v326h-357v-326h-105v510h-70v60h70v110h105v-110h357v110h105v-110h70zM559 390v120h-357v-120h357z" />
    <glyph glyph-name="Hcircumflex" unicode="&#x124;" horiz-adv-x="752" 
d="M417 885l110 -129h-56l-96 76l-96 -76h-54l110 129h82zM198 680v-290h357v290h105v-680h-105v326h-357v-326h-105v680h105z" />
    <glyph glyph-name="I" unicode="I" horiz-adv-x="291" 
d="M198 680v-680h-105v680h105z" />
    <glyph glyph-name="IJ" unicode="&#x132;" horiz-adv-x="581" 
d="M198 680v-680h-105v680h105zM497 680v-538c0 -193 -83 -256 -200 -294l-57 19v6c123 49 152 115 152 289v518h105z" />
    <glyph glyph-name="Iacute" unicode="&#xcd;" horiz-adv-x="291" 
d="M297 885l-156 -129h-55l106 129h105zM198 680v-680h-105v680h105z" />
    <glyph glyph-name="Ibreve" unicode="&#x12c;" horiz-adv-x="291" 
d="M47 883c6 -46 46 -73 97 -73c54 0 91 27 101 73h45c-10 -78 -61 -129 -147 -129c-87 0 -137 52 -143 129h47zM198 680v-680h-105v680h105z" />
    <glyph glyph-name="Icircumflex" unicode="&#xce;" horiz-adv-x="291" 
d="M186 885l110 -129h-56l-96 76l-96 -76h-54l110 129h82zM198 680v-680h-105v680h105z" />
    <glyph glyph-name="Idieresis" unicode="&#xcf;" horiz-adv-x="291" 
d="M104 872v-96h-92v96h92zM278 872v-96h-93v96h93zM198 680v-680h-105v680h105z" />
    <glyph glyph-name="Idotaccent" unicode="&#x130;" horiz-adv-x="291" 
d="M196 873v-101h-102v101h102zM198 680v-680h-105v680h105z" />
    <glyph glyph-name="Igrave" unicode="&#xcc;" horiz-adv-x="291" 
d="M-7 885h105l106 -129h-55zM198 680v-680h-105v680h105z" />
    <glyph glyph-name="Imacron" unicode="&#x12a;" horiz-adv-x="291" 
d="M303 850v-53h-317v53h317zM198 680v-680h-105v680h105z" />
    <glyph glyph-name="Iogonek" unicode="&#x12e;" horiz-adv-x="291" 
d="M43 -115c0 39 30 73 102 115h-52v680h105v-680c-64 -50 -84 -76 -84 -105c0 -24 15 -37 43 -37c20 0 41 6 57 13h7l-15 -37c-20 -11 -45 -18 -74 -18c-47 0 -89 19 -89 69z" />
    <glyph glyph-name="Itilde" unicode="&#x128;" horiz-adv-x="291" 
d="M154 856c21 -11 45 -24 63 -24c25 0 39 10 48 43h40c-11 -65 -42 -104 -89 -104c-26 0 -49 8 -74 22c-23 12 -45 24 -66 24c-23 0 -41 -11 -48 -46h-42c6 55 38 107 91 107c23 0 46 -5 77 -22zM198 680v-680h-105v680h105z" />
    <glyph glyph-name="J" unicode="J" horiz-adv-x="290" 
d="M206 680v-538c0 -193 -83 -256 -200 -294l-57 19v6c123 49 152 115 152 289v518h105z" />
    <glyph glyph-name="Jcircumflex" unicode="&#x134;" horiz-adv-x="290" 
d="M186 885l110 -129h-56l-96 76l-96 -76h-54l110 129h82zM206 680v-538c0 -193 -83 -256 -200 -294l-57 19v6c123 49 152 115 152 289v518h105z" />
    <glyph glyph-name="K" unicode="K" horiz-adv-x="630" 
d="M198 680v-680h-105v680h105zM206 374c101 97 202 204 295 306h97l-289 -284c140 -183 278 -337 341 -390v-6h-148c-72 81 -165 200 -296 366v8z" />
    <glyph glyph-name="uni0136" unicode="&#x136;" horiz-adv-x="630" 
d="M198 680v-680h-105v680h105zM206 374c101 97 202 204 295 306h97l-289 -284c140 -183 278 -337 341 -390v-6h-148c-72 81 -165 200 -296 366v8zM371 -70c-6 -41 -34 -107 -58 -146h-47c15 53 20 104 21 146h84z" />
    <glyph glyph-name="L" unicode="L" horiz-adv-x="439" 
d="M286 61c65 0 105 1 141 8h6l-34 -69h-306v680h105v-619h88z" />
    <glyph glyph-name="Lacute" unicode="&#x139;" horiz-adv-x="439" 
d="M322 885l-156 -129h-55l106 129h105zM286 61c65 0 105 1 141 8h6l-34 -69h-306v680h105v-619h88z" />
    <glyph glyph-name="Lcaron" unicode="&#x13d;" horiz-adv-x="439" 
d="M367 719c-12 -77 -40 -153 -62 -192h-46c12 52 22 125 22 192h86zM286 61c65 0 105 1 141 8h6l-34 -69h-306v680h105v-619h88z" />
    <glyph glyph-name="uni013B" unicode="&#x13b;" horiz-adv-x="439" 
d="M286 61c65 0 105 1 141 8h6l-34 -69h-306v680h105v-619h88zM285 -70c-6 -41 -34 -107 -58 -146h-47c15 53 20 104 21 146h84z" />
    <glyph glyph-name="Ldot" unicode="&#x13f;" horiz-adv-x="439" 
d="M286 61c65 0 105 1 141 8h6l-34 -69h-306v680h105v-619h88zM416 389v-101h-103v101h103z" />
    <glyph glyph-name="Lslash" unicode="&#x141;" horiz-adv-x="443" 
d="M431 69h6l-34 -69h-306v287l-75 -42v63l75 42v330h105v-275l126 71v-62l-126 -72v-281h88c65 0 105 1 141 8z" />
    <glyph glyph-name="M" unicode="M" horiz-adv-x="943" 
d="M467 187h3l245 493h95l76 -680h-107l-56 540h-4l-255 -499h-35l-250 498h-4l-51 -539h-70l76 680h95z" />
    <glyph glyph-name="N" unicode="N" horiz-adv-x="752" 
d="M592 184l-1 496h68v-684h-45l-449 536h-5l1 -532h-68v680h84l412 -496h3z" />
    <glyph glyph-name="Nacute" unicode="&#x143;" horiz-adv-x="752" 
d="M531 885l-156 -129h-55l106 129h105zM592 184l-1 496h68v-684h-45l-449 536h-5l1 -532h-68v680h84l412 -496h3z" />
    <glyph glyph-name="Ncaron" unicode="&#x147;" horiz-adv-x="752" 
d="M339 756l-111 129h57l97 -76l96 76h53l-111 -129h-81zM592 184l-1 496h68v-684h-45l-449 536h-5l1 -532h-68v680h84l412 -496h3z" />
    <glyph glyph-name="uni0145" unicode="&#x145;" horiz-adv-x="752" 
d="M592 184l-1 496h68v-684h-45l-449 536h-5l1 -532h-68v680h84l412 -496h3zM425 -70c-6 -41 -34 -107 -58 -146h-47c15 53 20 104 21 146h84z" />
    <glyph glyph-name="Eng" unicode="&#x14a;" horiz-adv-x="752" 
d="M93 0v680h84l412 -496h3l-1 496h68v-637c0 -170 -70 -237 -195 -272l-46 18v6c110 44 158 109 166 236l-419 501h-5l1 -532h-68z" />
    <glyph glyph-name="Ntilde" unicode="&#xd1;" horiz-adv-x="752" 
d="M388 856c21 -11 45 -24 63 -24c25 0 39 10 48 43h40c-11 -65 -42 -104 -89 -104c-26 0 -49 8 -74 22c-23 12 -45 24 -66 24c-23 0 -41 -11 -48 -46h-42c6 55 38 107 91 107c23 0 46 -5 77 -22zM592 184l-1 496h68v-684h-45l-449 536h-5l1 -532h-68v680h84l412 -496h3z
" />
    <glyph glyph-name="O" unicode="O" horiz-adv-x="830" 
d="M412 692c180 0 364 -107 364 -352c0 -236 -183 -352 -356 -352c-181 0 -366 107 -366 352c0 236 183 352 358 352zM420 49c142 0 243 115 243 291c0 168 -103 292 -252 292c-142 0 -243 -115 -243 -292c0 -168 102 -291 252 -291z" />
    <glyph glyph-name="Oacute" unicode="&#xd3;" horiz-adv-x="830" 
d="M567 885l-156 -129h-55l106 129h105zM412 692c180 0 364 -107 364 -352c0 -236 -183 -352 -356 -352c-181 0 -366 107 -366 352c0 236 183 352 358 352zM420 49c142 0 243 115 243 291c0 168 -103 292 -252 292c-142 0 -243 -115 -243 -292c0 -168 102 -291 252 -291z
" />
    <glyph glyph-name="Obreve" unicode="&#x14e;" horiz-adv-x="830" 
d="M317 883c6 -46 46 -73 97 -73c54 0 91 27 101 73h45c-10 -78 -61 -129 -147 -129c-87 0 -137 52 -143 129h47zM412 692c180 0 364 -107 364 -352c0 -236 -183 -352 -356 -352c-181 0 -366 107 -366 352c0 236 183 352 358 352zM420 49c142 0 243 115 243 291
c0 168 -103 292 -252 292c-142 0 -243 -115 -243 -292c0 -168 102 -291 252 -291z" />
    <glyph glyph-name="Ocircumflex" unicode="&#xd4;" horiz-adv-x="830" 
d="M456 885l110 -129h-56l-96 76l-96 -76h-54l110 129h82zM412 692c180 0 364 -107 364 -352c0 -236 -183 -352 -356 -352c-181 0 -366 107 -366 352c0 236 183 352 358 352zM420 49c142 0 243 115 243 291c0 168 -103 292 -252 292c-142 0 -243 -115 -243 -292
c0 -168 102 -291 252 -291z" />
    <glyph glyph-name="Odieresis" unicode="&#xd6;" horiz-adv-x="830" 
d="M374 872v-96h-92v96h92zM548 872v-96h-93v96h93zM412 692c180 0 364 -107 364 -352c0 -236 -183 -352 -356 -352c-181 0 -366 107 -366 352c0 236 183 352 358 352zM420 49c142 0 243 115 243 291c0 168 -103 292 -252 292c-142 0 -243 -115 -243 -292
c0 -168 102 -291 252 -291z" />
    <glyph glyph-name="Ograve" unicode="&#xd2;" horiz-adv-x="830" 
d="M263 885h105l106 -129h-55zM412 692c180 0 364 -107 364 -352c0 -236 -183 -352 -356 -352c-181 0 -366 107 -366 352c0 236 183 352 358 352zM420 49c142 0 243 115 243 291c0 168 -103 292 -252 292c-142 0 -243 -115 -243 -292c0 -168 102 -291 252 -291z" />
    <glyph glyph-name="Ohungarumlaut" unicode="&#x150;" horiz-adv-x="830" 
d="M486 885l-143 -129h-53l98 129h98zM650 885l-143 -129h-53l98 129h98zM412 692c180 0 364 -107 364 -352c0 -236 -183 -352 -356 -352c-181 0 -366 107 -366 352c0 236 183 352 358 352zM420 49c142 0 243 115 243 291c0 168 -103 292 -252 292
c-142 0 -243 -115 -243 -292c0 -168 102 -291 252 -291z" />
    <glyph glyph-name="Omacron" unicode="&#x14c;" horiz-adv-x="830" 
d="M573 850v-53h-317v53h317zM412 692c180 0 364 -107 364 -352c0 -236 -183 -352 -356 -352c-181 0 -366 107 -366 352c0 236 183 352 358 352zM420 49c142 0 243 115 243 291c0 168 -103 292 -252 292c-142 0 -243 -115 -243 -292c0 -168 102 -291 252 -291z" />
    <glyph glyph-name="Oslash" unicode="&#xd8;" horiz-adv-x="830" 
d="M673 597c62 -57 103 -142 103 -257c0 -236 -183 -352 -356 -352c-79 0 -160 21 -225 64l-63 -72l-40 36l61 70c-60 57 -99 141 -99 254c0 236 183 352 358 352c77 0 155 -20 218 -61l60 68l41 -36zM168 340c0 -70 18 -132 49 -181l358 409c-43 40 -99 64 -164 64
c-142 0 -243 -115 -243 -292zM420 49c142 0 243 115 243 291c0 72 -19 136 -52 186l-359 -410c43 -42 101 -67 168 -67z" />
    <glyph glyph-name="Oslashacute" unicode="&#x1fe;" horiz-adv-x="830" 
d="M567 885l-156 -129h-55l106 129h105zM673 597c62 -57 103 -142 103 -257c0 -236 -183 -352 -356 -352c-79 0 -160 21 -225 64l-63 -72l-40 36l61 70c-60 57 -99 141 -99 254c0 236 183 352 358 352c77 0 155 -20 218 -61l60 68l41 -36zM168 340c0 -70 18 -132 49 -181
l358 409c-43 40 -99 64 -164 64c-142 0 -243 -115 -243 -292zM420 49c142 0 243 115 243 291c0 72 -19 136 -52 186l-359 -410c43 -42 101 -67 168 -67z" />
    <glyph glyph-name="Otilde" unicode="&#xd5;" horiz-adv-x="830" 
d="M424 856c21 -11 45 -24 63 -24c25 0 39 10 48 43h40c-11 -65 -42 -104 -89 -104c-26 0 -49 8 -74 22c-23 12 -45 24 -66 24c-23 0 -41 -11 -48 -46h-42c6 55 38 107 91 107c23 0 46 -5 77 -22zM412 692c180 0 364 -107 364 -352c0 -236 -183 -352 -356 -352
c-181 0 -366 107 -366 352c0 236 183 352 358 352zM420 49c142 0 243 115 243 291c0 168 -103 292 -252 292c-142 0 -243 -115 -243 -292c0 -168 102 -291 252 -291z" />
    <glyph glyph-name="OE" unicode="&#x152;" horiz-adv-x="953" 
d="M54 340c0 236 178 345 372 345c45 0 112 -4 154 -5h301v-60h-231v-244h207v-59h-207v-256h130c66 0 106 0 144 8h6l-35 -69h-320c-42 -1 -103 -5 -141 -5c-197 0 -380 100 -380 345zM168 340c0 -168 100 -284 265 -284c33 0 74 2 113 4v561c-43 1 -78 4 -121 4
c-162 0 -257 -108 -257 -285z" />
    <glyph glyph-name="P" unicode="P" horiz-adv-x="566" 
d="M270 680c136 0 247 -46 247 -194c0 -139 -117 -196 -252 -196h-67v-290h-105v680h177zM252 345c95 0 156 36 156 142c0 104 -60 137 -156 137h-54v-279h54z" />
    <glyph glyph-name="Thorn" unicode="&#xde;" horiz-adv-x="577" 
d="M270 551c136 0 247 -47 247 -194c0 -140 -117 -196 -252 -196h-67v-161h-105v680h105v-129h72zM252 216c95 0 156 36 156 142c0 104 -60 137 -156 137h-54v-279h54z" />
    <glyph glyph-name="Q" unicode="Q" horiz-adv-x="830" 
d="M578 22c71 -49 196 -117 288 -153v-9l-153 -30c-67 31 -178 107 -245 161c-16 -2 -32 -3 -48 -3c-181 0 -366 107 -366 352c0 236 183 352 358 352c180 0 364 -107 364 -352c0 -163 -87 -268 -198 -318zM168 340c0 -168 102 -291 252 -291c142 0 243 115 243 291
c0 168 -103 292 -252 292c-142 0 -243 -115 -243 -292z" />
    <glyph glyph-name="R" unicode="R" horiz-adv-x="607" 
d="M272 680c138 0 241 -42 241 -182c0 -91 -66 -150 -160 -178v-4c74 -94 195 -231 285 -311v-5h-144c-65 69 -169 198 -245 300h-51v-300h-105v680h179zM276 352c84 5 130 66 130 145c0 102 -59 125 -148 125h-60v-270h78z" />
    <glyph glyph-name="Racute" unicode="&#x154;" horiz-adv-x="607" 
d="M455 885l-156 -129h-55l106 129h105zM272 680c138 0 241 -42 241 -182c0 -91 -66 -150 -160 -178v-4c74 -94 195 -231 285 -311v-5h-144c-65 69 -169 198 -245 300h-51v-300h-105v680h179zM276 352c84 5 130 66 130 145c0 102 -59 125 -148 125h-60v-270h78z" />
    <glyph glyph-name="Rcaron" unicode="&#x158;" horiz-adv-x="607" 
d="M263 756l-111 129h57l97 -76l96 76h53l-111 -129h-81zM272 680c138 0 241 -42 241 -182c0 -91 -66 -150 -160 -178v-4c74 -94 195 -231 285 -311v-5h-144c-65 69 -169 198 -245 300h-51v-300h-105v680h179zM276 352c84 5 130 66 130 145c0 102 -59 125 -148 125h-60v-270
h78z" />
    <glyph glyph-name="uni0156" unicode="&#x156;" horiz-adv-x="607" 
d="M272 680c138 0 241 -42 241 -182c0 -91 -66 -150 -160 -178v-4c74 -94 195 -231 285 -311v-5h-144c-65 69 -169 198 -245 300h-51v-300h-105v680h179zM276 352c84 5 130 66 130 145c0 102 -59 125 -148 125h-60v-270h78zM352 -70c-6 -41 -34 -107 -58 -146h-47
c15 53 20 104 21 146h84z" />
    <glyph glyph-name="S" unicode="S" horiz-adv-x="513" 
d="M418 580c-36 38 -79 56 -129 56c-52 0 -109 -28 -109 -94c0 -53 33 -84 113 -136c116 -76 177 -122 177 -232c0 -125 -106 -186 -219 -186c-81 0 -154 38 -195 80l-14 100h12c57 -70 128 -115 201 -115c65 0 114 38 114 106c0 72 -49 104 -140 166
c-96 65 -145 105 -145 196c0 120 111 171 201 171c64 0 109 -14 136 -33l9 -79h-12z" />
    <glyph glyph-name="Sacute" unicode="&#x15a;" horiz-adv-x="513" 
d="M419 885l-156 -129h-55l106 129h105zM418 580c-36 38 -79 56 -129 56c-52 0 -109 -28 -109 -94c0 -53 33 -84 113 -136c116 -76 177 -122 177 -232c0 -125 -106 -186 -219 -186c-81 0 -154 38 -195 80l-14 100h12c57 -70 128 -115 201 -115c65 0 114 38 114 106
c0 72 -49 104 -140 166c-96 65 -145 105 -145 196c0 120 111 171 201 171c64 0 109 -14 136 -33l9 -79h-12z" />
    <glyph glyph-name="Scaron" unicode="&#x160;" horiz-adv-x="513" 
d="M226 756l-111 129h57l97 -76l96 76h53l-111 -129h-81zM418 580c-36 38 -79 56 -129 56c-52 0 -109 -28 -109 -94c0 -53 33 -84 113 -136c116 -76 177 -122 177 -232c0 -125 -106 -186 -219 -186c-81 0 -154 38 -195 80l-14 100h12c57 -70 128 -115 201 -115
c65 0 114 38 114 106c0 72 -49 104 -140 166c-96 65 -145 105 -145 196c0 120 111 171 201 171c64 0 109 -14 136 -33l9 -79h-12z" />
    <glyph glyph-name="Scedilla" unicode="&#x15e;" horiz-adv-x="513" 
d="M42 168h12c57 -70 128 -115 201 -115c65 0 114 38 114 106c0 72 -49 104 -140 166c-96 65 -145 105 -145 196c0 120 111 171 201 171c64 0 109 -14 136 -33l9 -79h-12c-36 38 -79 56 -129 56c-52 0 -109 -28 -109 -94c0 -53 33 -84 113 -136c116 -76 177 -122 177 -232
c0 -115 -90 -177 -193 -185l-16 -35l11 -3c33 -9 72 -29 72 -74c0 -71 -82 -95 -158 -95l-15 33l4 3c58 0 100 16 100 50c0 31 -31 43 -70 50l-1 6l35 64c-76 4 -144 40 -183 80z" />
    <glyph glyph-name="Scircumflex" unicode="&#x15c;" horiz-adv-x="513" 
d="M308 885l110 -129h-56l-96 76l-96 -76h-54l110 129h82zM418 580c-36 38 -79 56 -129 56c-52 0 -109 -28 -109 -94c0 -53 33 -84 113 -136c116 -76 177 -122 177 -232c0 -125 -106 -186 -219 -186c-81 0 -154 38 -195 80l-14 100h12c57 -70 128 -115 201 -115
c65 0 114 38 114 106c0 72 -49 104 -140 166c-96 65 -145 105 -145 196c0 120 111 171 201 171c64 0 109 -14 136 -33l9 -79h-12z" />
    <glyph glyph-name="uni0218" unicode="&#x218;" horiz-adv-x="513" 
d="M418 580c-36 38 -79 56 -129 56c-52 0 -109 -28 -109 -94c0 -53 33 -84 113 -136c116 -76 177 -122 177 -232c0 -125 -106 -186 -219 -186c-81 0 -154 38 -195 80l-14 100h12c57 -70 128 -115 201 -115c65 0 114 38 114 106c0 72 -49 104 -140 166
c-96 65 -145 105 -145 196c0 120 111 171 201 171c64 0 109 -14 136 -33l9 -79h-12zM305 -70c-6 -41 -34 -107 -58 -146h-47c15 53 20 104 21 146h84z" />
    <glyph glyph-name="uni1E9E" unicode="&#x1e9e;" horiz-adv-x="692" 
d="M447 -12c-65 0 -115 21 -156 54l-14 98h12c54 -64 101 -88 156 -88s97 34 97 98c0 48 -34 79 -105 140c-81 69 -103 125 -103 179c0 63 38 123 126 155c-18 2 -55 3 -80 3c-131 0 -185 -49 -185 -174l-1 -453l-105 1v457c0 153 82 232 273 232c78 0 155 -7 208 -14l7 -57
c-107 -24 -144 -68 -144 -126c0 -39 9 -71 77 -129c91 -80 132 -122 132 -201c0 -114 -90 -175 -195 -175z" />
    <glyph glyph-name="uni018F" unicode="&#x18f;" horiz-adv-x="750" 
d="M336 692c200 0 359 -123 360 -354c0 -209 -134 -351 -333 -351c-190 0 -305 141 -305 335c0 15 1 30 2 46h520c-12 173 -109 261 -253 261c-99 0 -170 -41 -219 -90h-12l9 83c54 39 133 70 231 70zM373 46c114 0 200 91 207 263h-405c-1 -9 -1 -15 -1 -23
c0 -138 80 -240 199 -240z" />
    <glyph glyph-name="T" unicode="T" horiz-adv-x="500" 
d="M13 620v60h474v-60h-184v-620h-106v620h-184z" />
    <glyph glyph-name="Tbar" unicode="&#x166;" horiz-adv-x="500" 
d="M487 620h-184v-244h109v-58h-109v-318h-106v318h-108v58h108v244h-184v60h474v-60z" />
    <glyph glyph-name="Tcaron" unicode="&#x164;" horiz-adv-x="500" 
d="M209 756l-111 129h57l97 -76l96 76h53l-111 -129h-81zM13 620v60h474v-60h-184v-620h-106v620h-184z" />
    <glyph glyph-name="uni0162" unicode="&#x162;" horiz-adv-x="500" 
d="M13 620v60h474v-60h-184v-620h-27l-22 -46l11 -3c34 -9 72 -29 72 -74c0 -71 -82 -95 -158 -95l-15 33l4 3c59 0 101 16 101 50c0 31 -32 43 -71 50l-1 6l41 76h-41v620h-184z" />
    <glyph glyph-name="uni021A" unicode="&#x21a;" horiz-adv-x="500" 
d="M13 620v60h474v-60h-184v-620h-106v620h-184zM298 -70c-6 -41 -34 -107 -58 -146h-47c15 53 20 104 21 146h84z" />
    <glyph glyph-name="U" unicode="U" horiz-adv-x="728" 
d="M372 -12c-182 0 -286 97 -286 251v441h106v-425c0 -135 69 -203 184 -203c121 0 195 67 195 203v425h71v-441c0 -154 -105 -251 -270 -251z" />
    <glyph glyph-name="Uacute" unicode="&#xda;" horiz-adv-x="728" 
d="M520 885l-156 -129h-55l106 129h105zM372 -12c-182 0 -286 97 -286 251v441h106v-425c0 -135 69 -203 184 -203c121 0 195 67 195 203v425h71v-441c0 -154 -105 -251 -270 -251z" />
    <glyph glyph-name="Ubreve" unicode="&#x16c;" horiz-adv-x="728" 
d="M270 883c6 -46 46 -73 97 -73c54 0 91 27 101 73h45c-10 -78 -61 -129 -147 -129c-87 0 -137 52 -143 129h47zM372 -12c-182 0 -286 97 -286 251v441h106v-425c0 -135 69 -203 184 -203c121 0 195 67 195 203v425h71v-441c0 -154 -105 -251 -270 -251z" />
    <glyph glyph-name="Ucircumflex" unicode="&#xdb;" horiz-adv-x="728" 
d="M409 885l110 -129h-56l-96 76l-96 -76h-54l110 129h82zM372 -12c-182 0 -286 97 -286 251v441h106v-425c0 -135 69 -203 184 -203c121 0 195 67 195 203v425h71v-441c0 -154 -105 -251 -270 -251z" />
    <glyph glyph-name="Udieresis" unicode="&#xdc;" horiz-adv-x="728" 
d="M327 872v-96h-92v96h92zM501 872v-96h-93v96h93zM372 -12c-182 0 -286 97 -286 251v441h106v-425c0 -135 69 -203 184 -203c121 0 195 67 195 203v425h71v-441c0 -154 -105 -251 -270 -251z" />
    <glyph glyph-name="Ugrave" unicode="&#xd9;" horiz-adv-x="728" 
d="M216 885h105l106 -129h-55zM372 -12c-182 0 -286 97 -286 251v441h106v-425c0 -135 69 -203 184 -203c121 0 195 67 195 203v425h71v-441c0 -154 -105 -251 -270 -251z" />
    <glyph glyph-name="Uhungarumlaut" unicode="&#x170;" horiz-adv-x="728" 
d="M439 885l-143 -129h-53l98 129h98zM603 885l-143 -129h-53l98 129h98zM372 -12c-182 0 -286 97 -286 251v441h106v-425c0 -135 69 -203 184 -203c121 0 195 67 195 203v425h71v-441c0 -154 -105 -251 -270 -251z" />
    <glyph glyph-name="Umacron" unicode="&#x16a;" horiz-adv-x="728" 
d="M526 850v-53h-317v53h317zM372 -12c-182 0 -286 97 -286 251v441h106v-425c0 -135 69 -203 184 -203c121 0 195 67 195 203v425h71v-441c0 -154 -105 -251 -270 -251z" />
    <glyph glyph-name="Uogonek" unicode="&#x172;" horiz-adv-x="728" 
d="M86 239v441h106v-425c0 -135 69 -203 184 -203c121 0 195 67 195 203v425h71v-441c0 -125 -65 -197 -163 -235c-79 -31 -113 -80 -113 -110c0 -23 15 -36 44 -36c19 0 40 6 56 13h7l-14 -36c-20 -11 -46 -19 -75 -19c-46 0 -89 19 -89 69c0 34 26 70 88 103h-11
c-182 0 -286 97 -286 251z" />
    <glyph glyph-name="Uring" unicode="&#x16e;" horiz-adv-x="728" 
d="M369 726c-64 0 -111 49 -111 107c0 59 48 106 111 106c62 0 110 -46 110 -106s-48 -107 -110 -107zM369 762c42 0 67 32 67 71c0 35 -23 70 -68 70c-40 0 -66 -30 -66 -70c0 -38 24 -71 67 -71zM372 -12c-182 0 -286 97 -286 251v441h106v-425c0 -135 69 -203 184 -203
c121 0 195 67 195 203v425h71v-441c0 -154 -105 -251 -270 -251z" />
    <glyph glyph-name="Utilde" unicode="&#x168;" horiz-adv-x="728" 
d="M377 856c21 -11 45 -24 63 -24c25 0 39 10 48 43h40c-11 -65 -42 -104 -89 -104c-26 0 -49 8 -74 22c-23 12 -45 24 -66 24c-23 0 -41 -11 -48 -46h-42c6 55 38 107 91 107c23 0 46 -5 77 -22zM372 -12c-182 0 -286 97 -286 251v441h106v-425c0 -135 69 -203 184 -203
c121 0 195 67 195 203v425h71v-441c0 -154 -105 -251 -270 -251z" />
    <glyph glyph-name="V" unicode="V" horiz-adv-x="648" 
d="M365 0h-83l-279 680h117l223 -562h4l218 562h80z" />
    <glyph glyph-name="W" unicode="W" horiz-adv-x="977" 
d="M490 532h-6l-193 -532h-78l-194 680h109l150 -536h3l188 536h72l195 -539h3l139 539h80l-197 -680h-75z" />
    <glyph glyph-name="Wacute" unicode="&#x1e82;" horiz-adv-x="977" 
d="M656 885l-156 -129h-55l106 129h105zM490 532h-6l-193 -532h-78l-194 680h109l150 -536h3l188 536h72l195 -539h3l139 539h80l-197 -680h-75z" />
    <glyph glyph-name="Wcircumflex" unicode="&#x174;" horiz-adv-x="977" 
d="M545 885l110 -129h-56l-96 76l-96 -76h-54l110 129h82zM490 532h-6l-193 -532h-78l-194 680h109l150 -536h3l188 536h72l195 -539h3l139 539h80l-197 -680h-75z" />
    <glyph glyph-name="Wdieresis" unicode="&#x1e84;" horiz-adv-x="977" 
d="M463 872v-96h-92v96h92zM637 872v-96h-93v96h93zM490 532h-6l-193 -532h-78l-194 680h109l150 -536h3l188 536h72l195 -539h3l139 539h80l-197 -680h-75z" />
    <glyph glyph-name="Wgrave" unicode="&#x1e80;" horiz-adv-x="977" 
d="M352 885h105l106 -129h-55zM490 532h-6l-193 -532h-78l-194 680h109l150 -536h3l188 536h72l195 -539h3l139 539h80l-197 -680h-75z" />
    <glyph glyph-name="X" unicode="X" horiz-adv-x="613" 
d="M246 345l-213 335h125l162 -267h4l166 267h83l-212 -323l144 -226c42 -66 67 -102 90 -125v-6h-132l-176 287h-4l-180 -287h-85z" />
    <glyph glyph-name="Y" unicode="Y" horiz-adv-x="571" 
d="M-1 680h129l186 -294h6l174 294h78l-225 -360v-320h-106v312z" />
    <glyph glyph-name="Yacute" unicode="&#xdd;" horiz-adv-x="571" 
d="M444 885l-156 -129h-55l106 129h105zM-1 680h129l186 -294h6l174 294h78l-225 -360v-320h-106v312z" />
    <glyph glyph-name="Ycircumflex" unicode="&#x176;" horiz-adv-x="571" 
d="M333 885l110 -129h-56l-96 76l-96 -76h-54l110 129h82zM-1 680h129l186 -294h6l174 294h78l-225 -360v-320h-106v312z" />
    <glyph glyph-name="Ydieresis" unicode="&#x178;" horiz-adv-x="571" 
d="M251 872v-96h-92v96h92zM425 872v-96h-93v96h93zM-1 680h129l186 -294h6l174 294h78l-225 -360v-320h-106v312z" />
    <glyph glyph-name="Ygrave" unicode="&#x1ef2;" horiz-adv-x="571" 
d="M140 885h105l106 -129h-55zM-1 680h129l186 -294h6l174 294h78l-225 -360v-320h-106v312z" />
    <glyph glyph-name="Z" unicode="Z" horiz-adv-x="686" 
d="M97 680h520v-23l-425 -590v-6c322 0 391 0 471 15h6l-41 -76h-588v28l423 586v6h-386z" />
    <glyph glyph-name="Zacute" unicode="&#x179;" horiz-adv-x="686" 
d="M495 885l-156 -129h-55l106 129h105zM97 680h520v-23l-425 -590v-6c322 0 391 0 471 15h6l-41 -76h-588v28l423 586v6h-386z" />
    <glyph glyph-name="Zcaron" unicode="&#x17d;" horiz-adv-x="686" 
d="M302 756l-111 129h57l97 -76l96 76h53l-111 -129h-81zM97 680h520v-23l-425 -590v-6c322 0 391 0 471 15h6l-41 -76h-588v28l423 586v6h-386z" />
    <glyph glyph-name="Zdotaccent" unicode="&#x17b;" horiz-adv-x="686" 
d="M394 873v-101h-102v101h102zM97 680h520v-23l-425 -590v-6c322 0 391 0 471 15h6l-41 -76h-588v28l423 586v6h-386z" />
    <glyph glyph-name="a" unicode="a" horiz-adv-x="522" 
d="M369 0l-16 71c-38 -55 -87 -81 -151 -81c-103 0 -148 58 -148 132c0 75 52 113 136 134c124 29 159 39 159 56v10c0 79 -33 110 -101 110c-48 0 -106 -21 -145 -60h-10l8 66c38 30 99 49 156 49c136 0 186 -64 186 -166v-234c0 -29 2 -58 7 -87h-81zM231 46
c59 0 108 46 118 100v106c-159 -35 -199 -58 -199 -122c0 -46 28 -84 81 -84z" />
    <glyph glyph-name="aacute" unicode="&#xe1;" horiz-adv-x="522" 
d="M402 712l-147 -141h-54l100 141h101zM369 0l-16 71c-38 -55 -87 -81 -151 -81c-103 0 -148 58 -148 132c0 75 52 113 136 134c124 29 159 39 159 56v10c0 79 -33 110 -101 110c-48 0 -106 -21 -145 -60h-10l8 66c38 30 99 49 156 49c136 0 186 -64 186 -166v-234
c0 -29 2 -58 7 -87h-81zM231 46c59 0 108 46 118 100v106c-159 -35 -199 -58 -199 -122c0 -46 28 -84 81 -84z" />
    <glyph glyph-name="abreve" unicode="&#x103;" horiz-adv-x="522" 
d="M163 706c6 -49 46 -76 97 -76c54 0 92 27 101 76h45c-9 -81 -61 -132 -147 -132c-87 0 -138 52 -143 132h47zM369 0l-16 71c-38 -55 -87 -81 -151 -81c-103 0 -148 58 -148 132c0 75 52 113 136 134c124 29 159 39 159 56v10c0 79 -33 110 -101 110
c-48 0 -106 -21 -145 -60h-10l8 66c38 30 99 49 156 49c136 0 186 -64 186 -166v-234c0 -29 2 -58 7 -87h-81zM231 46c59 0 108 46 118 100v106c-159 -35 -199 -58 -199 -122c0 -46 28 -84 81 -84z" />
    <glyph glyph-name="acircumflex" unicode="&#xe2;" horiz-adv-x="522" 
d="M301 712l110 -141h-55l-98 88l-96 -88h-52l110 141h81zM369 0l-16 71c-38 -55 -87 -81 -151 -81c-103 0 -148 58 -148 132c0 75 52 113 136 134c124 29 159 39 159 56v10c0 79 -33 110 -101 110c-48 0 -106 -21 -145 -60h-10l8 66c38 30 99 49 156 49
c136 0 186 -64 186 -166v-234c0 -29 2 -58 7 -87h-81zM231 46c59 0 108 46 118 100v106c-159 -35 -199 -58 -199 -122c0 -46 28 -84 81 -84z" />
    <glyph glyph-name="adieresis" unicode="&#xe4;" horiz-adv-x="522" 
d="M220 692v-96h-92v96h92zM394 692v-96h-93v96h93zM369 0l-16 71c-38 -55 -87 -81 -151 -81c-103 0 -148 58 -148 132c0 75 52 113 136 134c124 29 159 39 159 56v10c0 79 -33 110 -101 110c-48 0 -106 -21 -145 -60h-10l8 66c38 30 99 49 156 49c136 0 186 -64 186 -166
v-234c0 -29 2 -58 7 -87h-81zM231 46c59 0 108 46 118 100v106c-159 -35 -199 -58 -199 -122c0 -46 28 -84 81 -84z" />
    <glyph glyph-name="agrave" unicode="&#xe0;" horiz-adv-x="522" 
d="M221 712l100 -141h-54l-147 141h101zM369 0l-16 71c-38 -55 -87 -81 -151 -81c-103 0 -148 58 -148 132c0 75 52 113 136 134c124 29 159 39 159 56v10c0 79 -33 110 -101 110c-48 0 -106 -21 -145 -60h-10l8 66c38 30 99 49 156 49c136 0 186 -64 186 -166v-234
c0 -29 2 -58 7 -87h-81zM231 46c59 0 108 46 118 100v106c-159 -35 -199 -58 -199 -122c0 -46 28 -84 81 -84z" />
    <glyph glyph-name="amacron" unicode="&#x101;" horiz-adv-x="522" 
d="M419 670v-53h-317v53h317zM369 0l-16 71c-38 -55 -87 -81 -151 -81c-103 0 -148 58 -148 132c0 75 52 113 136 134c124 29 159 39 159 56v10c0 79 -33 110 -101 110c-48 0 -106 -21 -145 -60h-10l8 66c38 30 99 49 156 49c136 0 186 -64 186 -166v-234c0 -29 2 -58 7 -87
h-81zM231 46c59 0 108 46 118 100v106c-159 -35 -199 -58 -199 -122c0 -46 28 -84 81 -84z" />
    <glyph glyph-name="aogonek" unicode="&#x105;" horiz-adv-x="522" 
d="M54 122c0 75 52 113 136 134c124 29 159 39 159 56v10c0 79 -33 110 -101 110c-48 0 -106 -21 -145 -60h-10l8 66c38 30 99 49 156 49c136 0 186 -64 186 -166v-234c0 -29 3 -58 7 -87c-80 -38 -103 -74 -103 -103c0 -26 15 -39 44 -39c19 0 40 6 56 13h7l-15 -37
c-20 -11 -45 -18 -74 -18c-47 0 -89 19 -89 69c0 42 36 77 104 115h-11l-16 71c-38 -55 -87 -81 -151 -81c-103 0 -148 58 -148 132zM150 130c0 -46 28 -84 81 -84c59 0 108 46 118 100v106c-159 -35 -199 -58 -199 -122z" />
    <glyph glyph-name="aring" unicode="&#xe5;" horiz-adv-x="522" 
d="M262 545c-65 0 -111 50 -111 108c0 60 48 108 111 108c62 0 110 -47 110 -108c0 -60 -47 -108 -110 -108zM262 581c42 0 67 33 67 72c0 36 -23 72 -68 72c-40 0 -66 -31 -66 -72c0 -38 24 -72 67 -72zM369 0l-16 71c-38 -55 -87 -81 -151 -81c-103 0 -148 58 -148 132
c0 75 52 113 136 134c124 29 159 39 159 56v10c0 79 -33 110 -101 110c-48 0 -106 -21 -145 -60h-10l8 66c38 30 99 49 156 49c136 0 186 -64 186 -166v-234c0 -29 2 -58 7 -87h-81zM231 46c59 0 108 46 118 100v106c-159 -35 -199 -58 -199 -122c0 -46 28 -84 81 -84z" />
    <glyph glyph-name="aringacute" unicode="&#x1fb;" horiz-adv-x="522" 
d="M261 545c-64 0 -110 50 -110 108c0 44 26 82 65 99l83 118h102l-115 -111c50 -11 86 -53 86 -106c0 -60 -48 -108 -111 -108zM260 725c-39 0 -66 -31 -66 -72c0 -38 25 -72 67 -72c43 0 67 33 67 72c0 36 -22 72 -68 72zM443 87c0 -29 2 -58 7 -87h-81l-16 71
c-38 -55 -87 -81 -151 -81c-103 0 -148 58 -148 132c0 75 52 113 136 134c124 29 159 39 159 56v10c0 79 -33 110 -101 110c-48 0 -106 -21 -145 -60h-10l8 66c38 30 99 49 156 49c136 0 186 -64 186 -166v-234zM349 146v106c-159 -35 -199 -58 -199 -122
c0 -46 28 -84 81 -84c59 0 108 46 118 100z" />
    <glyph glyph-name="atilde" unicode="&#xe3;" horiz-adv-x="522" 
d="M271 676c20 -11 44 -24 63 -24c24 0 39 11 47 44h40c-10 -65 -42 -104 -89 -104c-25 0 -48 7 -74 21c-22 13 -44 24 -66 24c-23 0 -41 -11 -48 -45h-41c5 54 38 106 91 106c22 0 45 -5 77 -22zM369 0l-16 71c-38 -55 -87 -81 -151 -81c-103 0 -148 58 -148 132
c0 75 52 113 136 134c124 29 159 39 159 56v10c0 79 -33 110 -101 110c-48 0 -106 -21 -145 -60h-10l8 66c38 30 99 49 156 49c136 0 186 -64 186 -166v-234c0 -29 2 -58 7 -87h-81zM231 46c59 0 108 46 118 100v106c-159 -35 -199 -58 -199 -122c0 -46 28 -84 81 -84z" />
    <glyph glyph-name="ae" unicode="&#xe6;" horiz-adv-x="820" 
d="M768 287v-36h-326c6 -136 74 -200 170 -200c52 0 104 17 139 59h12l-15 -73c-31 -27 -89 -47 -155 -47c-95 0 -167 36 -207 103h-2c-35 -67 -95 -103 -175 -103c-104 0 -155 53 -155 132c0 74 54 114 142 135c139 34 153 37 153 56v9c0 79 -33 110 -101 110
c-48 0 -106 -21 -145 -60h-10l8 66c38 30 99 49 156 49c87 0 134 -24 159 -69h2c31 39 86 69 153 69c133 0 197 -81 197 -200zM673 299v12c0 84 -41 128 -102 128c-55 0 -117 -41 -127 -140h229zM349 146v103c-160 -35 -199 -59 -199 -120c0 -47 28 -83 81 -83
c59 0 108 46 118 100z" />
    <glyph glyph-name="aeacute" unicode="&#x1fd;" horiz-adv-x="820" 
d="M562 712l-147 -141h-54l100 141h101zM768 287v-36h-326c6 -136 74 -200 170 -200c52 0 104 17 139 59h12l-15 -73c-31 -27 -89 -47 -155 -47c-95 0 -167 36 -207 103h-2c-35 -67 -95 -103 -175 -103c-104 0 -155 53 -155 132c0 74 54 114 142 135c139 34 153 37 153 56v9
c0 79 -33 110 -101 110c-48 0 -106 -21 -145 -60h-10l8 66c38 30 99 49 156 49c87 0 134 -24 159 -69h2c31 39 86 69 153 69c133 0 197 -81 197 -200zM673 299v12c0 84 -41 128 -102 128c-55 0 -117 -41 -127 -140h229zM349 146v103c-160 -35 -199 -59 -199 -120
c0 -47 28 -83 81 -83c59 0 108 46 118 100z" />
    <glyph glyph-name="b" unicode="b" horiz-adv-x="593" 
d="M81 0v708l97 11v-335h2c27 56 80 103 162 103c126 0 194 -95 194 -241c0 -151 -81 -256 -216 -256c-58 0 -106 27 -140 69h-2l-4 -59h-93zM318 429c-80 0 -149 -93 -149 -214v-8c0 -106 65 -159 134 -159c81 0 131 75 131 197c0 115 -42 184 -116 184z" />
    <glyph glyph-name="c" unicode="c" horiz-adv-x="476" 
d="M303 487c59 0 101 -15 127 -32l11 -63h-12c-29 29 -73 43 -113 43c-96 0 -156 -76 -156 -193c0 -119 66 -197 159 -197c52 0 96 20 122 51h12l-16 -65c-27 -24 -76 -41 -136 -41c-141 0 -245 84 -245 246c0 152 103 251 247 251z" />
    <glyph glyph-name="cacute" unicode="&#x107;" horiz-adv-x="476" 
d="M427 712l-147 -141h-54l100 141h101zM303 487c59 0 101 -15 127 -32l11 -63h-12c-29 29 -73 43 -113 43c-96 0 -156 -76 -156 -193c0 -119 66 -197 159 -197c52 0 96 20 122 51h12l-16 -65c-27 -24 -76 -41 -136 -41c-141 0 -245 84 -245 246c0 152 103 251 247 251z" />
    <glyph glyph-name="ccaron" unicode="&#x10d;" horiz-adv-x="476" 
d="M246 571l-110 141h55l98 -87l96 87h52l-110 -141h-81zM303 487c59 0 101 -15 127 -32l11 -63h-12c-29 29 -73 43 -113 43c-96 0 -156 -76 -156 -193c0 -119 66 -197 159 -197c52 0 96 20 122 51h12l-16 -65c-27 -24 -76 -41 -136 -41c-141 0 -245 84 -245 246
c0 152 103 251 247 251z" />
    <glyph glyph-name="ccedilla" unicode="&#xe7;" horiz-adv-x="475" 
d="M57 236c0 152 104 251 247 251c59 0 102 -15 127 -32l11 -63h-12c-29 29 -72 43 -112 43c-96 0 -157 -76 -157 -193c0 -119 67 -197 159 -197c53 0 96 20 123 51h11l-15 -65c-27 -24 -74 -41 -133 -41l-17 -36l11 -3c34 -9 72 -29 72 -74c0 -71 -82 -95 -157 -95l-15 33
l3 3c59 0 101 16 101 50c0 31 -31 43 -70 50l-1 6l36 67c-123 13 -212 96 -212 245z" />
    <glyph glyph-name="ccircumflex" unicode="&#x109;" horiz-adv-x="476" 
d="M327 712l110 -141h-55l-98 88l-96 -88h-52l110 141h81zM303 487c59 0 101 -15 127 -32l11 -63h-12c-29 29 -73 43 -113 43c-96 0 -156 -76 -156 -193c0 -119 66 -197 159 -197c52 0 96 20 122 51h12l-16 -65c-27 -24 -76 -41 -136 -41c-141 0 -245 84 -245 246
c0 152 103 251 247 251z" />
    <glyph glyph-name="cdotaccent" unicode="&#x10b;" horiz-adv-x="476" 
d="M338 694v-102h-102v102h102zM303 487c59 0 101 -15 127 -32l11 -63h-12c-29 29 -73 43 -113 43c-96 0 -156 -76 -156 -193c0 -119 66 -197 159 -197c52 0 96 20 122 51h12l-16 -65c-27 -24 -76 -41 -136 -41c-141 0 -245 84 -245 246c0 152 103 251 247 251z" />
    <glyph glyph-name="d" unicode="d" horiz-adv-x="594" 
d="M513 719v-719h-93l-4 93h-2c-26 -56 -82 -103 -163 -103c-125 0 -194 95 -194 241c0 151 86 255 220 255c61 0 108 -25 137 -65h2v287zM274 48c82 0 150 93 150 213v9c0 102 -62 159 -130 159c-84 0 -135 -75 -135 -197c0 -115 42 -184 115 -184z" />
    <glyph glyph-name="eth" unicode="&#xf0;" horiz-adv-x="589" 
d="M365 602c97 -79 166 -203 166 -353c0 -174 -117 -259 -238 -259c-119 0 -236 81 -236 252c0 167 109 245 219 245c51 0 93 -18 116 -39l1 1c-19 43 -53 85 -97 119l-109 -53l-23 47l82 40c-35 21 -74 38 -114 48l45 43c48 -9 96 -29 141 -56l94 46l22 -47zM295 44
c79 0 135 71 135 198c0 125 -56 191 -135 191c-80 0 -136 -66 -136 -191c0 -127 56 -198 136 -198z" />
    <glyph glyph-name="dcaron" unicode="&#x10f;" horiz-adv-x="594" 
d="M513 719v-719h-93l-4 93h-2c-26 -56 -82 -103 -163 -103c-125 0 -194 95 -194 241c0 151 86 255 220 255c61 0 108 -25 137 -65h2v287zM678 719c-12 -77 -41 -153 -63 -192h-45c11 52 21 125 21 192h87zM274 48c82 0 150 93 150 213v9c0 102 -62 159 -130 159
c-84 0 -135 -75 -135 -197c0 -115 42 -184 115 -184z" />
    <glyph glyph-name="dcroat" unicode="&#x111;" horiz-adv-x="596" 
d="M572 611v-52h-59v-559h-93l-4 93h-2c-26 -56 -82 -103 -163 -103c-125 0 -194 95 -194 241c0 151 86 255 220 255c61 0 108 -25 137 -65h2v138h-151v52h151v97l97 11v-108h59zM424 261v9c0 102 -62 159 -130 159c-84 0 -135 -75 -135 -197c0 -115 42 -184 115 -184
c82 0 150 93 150 213z" />
    <glyph glyph-name="e" unicode="e" horiz-adv-x="534" 
d="M481 251h-324c2 -119 61 -200 169 -200c52 0 103 17 139 59h11l-14 -73c-32 -27 -90 -47 -155 -47c-155 0 -250 93 -250 247c0 153 109 250 227 250c133 0 197 -81 197 -200v-36zM387 311c0 84 -41 128 -103 128s-119 -51 -126 -138h229v10z" />
    <glyph glyph-name="eacute" unicode="&#xe9;" horiz-adv-x="534" 
d="M424 712l-147 -141h-54l100 141h101zM481 251h-324c2 -119 61 -200 169 -200c52 0 103 17 139 59h11l-14 -73c-32 -27 -90 -47 -155 -47c-155 0 -250 93 -250 247c0 153 109 250 227 250c133 0 197 -81 197 -200v-36zM387 311c0 84 -41 128 -103 128s-119 -51 -126 -138
h229v10z" />
    <glyph glyph-name="ebreve" unicode="&#x115;" horiz-adv-x="534" 
d="M185 706c6 -49 46 -76 97 -76c54 0 92 27 101 76h45c-9 -81 -61 -132 -147 -132c-87 0 -138 52 -143 132h47zM481 251h-324c2 -119 61 -200 169 -200c52 0 103 17 139 59h11l-14 -73c-32 -27 -90 -47 -155 -47c-155 0 -250 93 -250 247c0 153 109 250 227 250
c133 0 197 -81 197 -200v-36zM387 311c0 84 -41 128 -103 128s-119 -51 -126 -138h229v10z" />
    <glyph glyph-name="ecaron" unicode="&#x11b;" horiz-adv-x="534" 
d="M243 571l-110 141h55l98 -87l96 87h52l-110 -141h-81zM481 251h-324c2 -119 61 -200 169 -200c52 0 103 17 139 59h11l-14 -73c-32 -27 -90 -47 -155 -47c-155 0 -250 93 -250 247c0 153 109 250 227 250c133 0 197 -81 197 -200v-36zM387 311c0 84 -41 128 -103 128
s-119 -51 -126 -138h229v10z" />
    <glyph glyph-name="ecircumflex" unicode="&#xea;" horiz-adv-x="534" 
d="M324 712l110 -141h-55l-98 88l-96 -88h-52l110 141h81zM481 251h-324c2 -119 61 -200 169 -200c52 0 103 17 139 59h11l-14 -73c-32 -27 -90 -47 -155 -47c-155 0 -250 93 -250 247c0 153 109 250 227 250c133 0 197 -81 197 -200v-36zM387 311c0 84 -41 128 -103 128
s-119 -51 -126 -138h229v10z" />
    <glyph glyph-name="edieresis" unicode="&#xeb;" horiz-adv-x="534" 
d="M242 692v-96h-92v96h92zM416 692v-96h-93v96h93zM481 251h-324c2 -119 61 -200 169 -200c52 0 103 17 139 59h11l-14 -73c-32 -27 -90 -47 -155 -47c-155 0 -250 93 -250 247c0 153 109 250 227 250c133 0 197 -81 197 -200v-36zM387 311c0 84 -41 128 -103 128
s-119 -51 -126 -138h229v10z" />
    <glyph glyph-name="edotaccent" unicode="&#x117;" horiz-adv-x="534" 
d="M334 694v-102h-102v102h102zM481 251h-324c2 -119 61 -200 169 -200c52 0 103 17 139 59h11l-14 -73c-32 -27 -90 -47 -155 -47c-155 0 -250 93 -250 247c0 153 109 250 227 250c133 0 197 -81 197 -200v-36zM387 311c0 84 -41 128 -103 128s-119 -51 -126 -138h229v10z
" />
    <glyph glyph-name="egrave" unicode="&#xe8;" horiz-adv-x="534" 
d="M244 712l100 -141h-54l-147 141h101zM481 251h-324c2 -119 61 -200 169 -200c52 0 103 17 139 59h11l-14 -73c-32 -27 -90 -47 -155 -47c-155 0 -250 93 -250 247c0 153 109 250 227 250c133 0 197 -81 197 -200v-36zM387 311c0 84 -41 128 -103 128s-119 -51 -126 -138
h229v10z" />
    <glyph glyph-name="emacron" unicode="&#x113;" horiz-adv-x="534" 
d="M441 670v-53h-317v53h317zM481 251h-324c2 -119 61 -200 169 -200c52 0 103 17 139 59h11l-14 -73c-32 -27 -90 -47 -155 -47c-155 0 -250 93 -250 247c0 153 109 250 227 250c133 0 197 -81 197 -200v-36zM387 311c0 84 -41 128 -103 128s-119 -51 -126 -138h229v10z
" />
    <glyph glyph-name="eogonek" unicode="&#x119;" horiz-adv-x="534" 
d="M57 237c0 153 109 250 227 250c133 0 197 -81 197 -200v-36h-324c2 -119 61 -200 169 -200c52 0 103 17 139 59h11l-14 -73c-116 -83 -128 -115 -128 -142c0 -23 14 -37 44 -37c19 0 40 6 56 13h7l-15 -37c-20 -11 -45 -18 -74 -18c-47 0 -89 19 -89 69
c0 34 24 68 87 108c-14 -2 -27 -3 -43 -3c-155 0 -250 93 -250 247zM158 301h229v10c0 84 -41 128 -103 128s-119 -51 -126 -138z" />
    <glyph glyph-name="uni0259" unicode="&#x259;" horiz-adv-x="540" 
d="M242 487c152 0 240 -94 240 -248c0 -153 -94 -249 -226 -249c-126 0 -199 90 -199 228c0 10 0 22 1 34h326c-7 114 -68 177 -160 177c-51 0 -105 -22 -141 -63h-11l14 73c33 25 88 48 156 48zM261 39c62 0 114 51 122 163h-229c-1 -7 -1 -13 -1 -19
c0 -86 39 -144 108 -144z" />
    <glyph glyph-name="f" unicode="f" horiz-adv-x="296" 
d="M275 729c23 0 45 -2 66 -11l5 -61h-10c-18 12 -33 16 -56 16c-77 0 -91 -63 -91 -187v-9h96l-5 -51h-91v-426h-97v426h-74v51h74v32c0 123 55 220 183 220z" />
    <glyph glyph-name="g" unicode="g" horiz-adv-x="515" 
d="M320 71c137 0 193 -20 193 -113c0 -107 -131 -195 -279 -195c-114 0 -189 41 -189 132c0 36 26 58 70 107c-36 8 -72 41 -72 78c0 22 19 50 72 124c-32 25 -60 61 -60 121c0 94 79 162 185 162c31 0 57 -5 89 -16h166l-4 -48h-105v-4c23 -20 39 -49 39 -91
c0 -98 -79 -160 -190 -160c-35 0 -66 7 -86 17c-12 -28 -20 -56 -20 -71c0 -31 24 -43 84 -43h107zM151 325c0 -73 30 -111 84 -111c60 0 95 37 95 115c0 72 -29 112 -90 112c-58 0 -89 -43 -89 -116zM235 -186c98 0 185 44 185 117c0 38 -18 50 -63 56c-32 5 -106 7 -205 7
c-20 -32 -27 -53 -27 -89c0 -53 38 -91 110 -91z" />
    <glyph glyph-name="gbreve" unicode="&#x11f;" horiz-adv-x="515" 
d="M154 706c6 -49 46 -76 97 -76c54 0 92 27 101 76h45c-9 -81 -61 -132 -147 -132c-87 0 -138 52 -143 132h47zM320 71c137 0 193 -20 193 -113c0 -107 -131 -195 -279 -195c-114 0 -189 41 -189 132c0 36 26 58 70 107c-36 8 -72 41 -72 78c0 22 19 50 72 124
c-32 25 -60 61 -60 121c0 94 79 162 185 162c31 0 57 -5 89 -16h166l-4 -48h-105v-4c23 -20 39 -49 39 -91c0 -98 -79 -160 -190 -160c-35 0 -66 7 -86 17c-12 -28 -20 -56 -20 -71c0 -31 24 -43 84 -43h107zM151 325c0 -73 30 -111 84 -111c60 0 95 37 95 115
c0 72 -29 112 -90 112c-58 0 -89 -43 -89 -116zM235 -186c98 0 185 44 185 117c0 38 -18 50 -63 56c-32 5 -106 7 -205 7c-20 -32 -27 -53 -27 -89c0 -53 38 -91 110 -91z" />
    <glyph glyph-name="gcircumflex" unicode="&#x11d;" horiz-adv-x="515" 
d="M292 712l110 -141h-55l-98 88l-96 -88h-52l110 141h81zM320 71c137 0 193 -20 193 -113c0 -107 -131 -195 -279 -195c-114 0 -189 41 -189 132c0 36 26 58 70 107c-36 8 -72 41 -72 78c0 22 19 50 72 124c-32 25 -60 61 -60 121c0 94 79 162 185 162c31 0 57 -5 89 -16
h166l-4 -48h-105v-4c23 -20 39 -49 39 -91c0 -98 -79 -160 -190 -160c-35 0 -66 7 -86 17c-12 -28 -20 -56 -20 -71c0 -31 24 -43 84 -43h107zM151 325c0 -73 30 -111 84 -111c60 0 95 37 95 115c0 72 -29 112 -90 112c-58 0 -89 -43 -89 -116zM235 -186
c98 0 185 44 185 117c0 38 -18 50 -63 56c-32 5 -106 7 -205 7c-20 -32 -27 -53 -27 -89c0 -53 38 -91 110 -91z" />
    <glyph glyph-name="uni0123" unicode="&#x123;" horiz-adv-x="515" 
d="M200 589c6 42 34 103 58 141h46c-14 -53 -19 -98 -21 -141h-83zM320 71c137 0 193 -20 193 -113c0 -107 -131 -195 -279 -195c-114 0 -189 41 -189 132c0 36 26 58 70 107c-36 8 -72 41 -72 78c0 22 19 50 72 124c-32 25 -60 61 -60 121c0 94 79 162 185 162
c31 0 57 -5 89 -16h166l-4 -48h-105v-4c23 -20 39 -49 39 -91c0 -98 -79 -160 -190 -160c-35 0 -66 7 -86 17c-12 -28 -20 -56 -20 -71c0 -31 24 -43 84 -43h107zM151 325c0 -73 30 -111 84 -111c60 0 95 37 95 115c0 72 -29 112 -90 112c-58 0 -89 -43 -89 -116zM235 -186
c98 0 185 44 185 117c0 38 -18 50 -63 56c-32 5 -106 7 -205 7c-20 -32 -27 -53 -27 -89c0 -53 38 -91 110 -91z" />
    <glyph glyph-name="gdotaccent" unicode="&#x121;" horiz-adv-x="515" 
d="M303 694v-102h-102v102h102zM320 71c137 0 193 -20 193 -113c0 -107 -131 -195 -279 -195c-114 0 -189 41 -189 132c0 36 26 58 70 107c-36 8 -72 41 -72 78c0 22 19 50 72 124c-32 25 -60 61 -60 121c0 94 79 162 185 162c31 0 57 -5 89 -16h166l-4 -48h-105v-4
c23 -20 39 -49 39 -91c0 -98 -79 -160 -190 -160c-35 0 -66 7 -86 17c-12 -28 -20 -56 -20 -71c0 -31 24 -43 84 -43h107zM151 325c0 -73 30 -111 84 -111c60 0 95 37 95 115c0 72 -29 112 -90 112c-58 0 -89 -43 -89 -116zM235 -186c98 0 185 44 185 117
c0 38 -18 50 -63 56c-32 5 -106 7 -205 7c-20 -32 -27 -53 -27 -89c0 -53 38 -91 110 -91z" />
    <glyph glyph-name="h" unicode="h" horiz-adv-x="570" 
d="M394 0v300c0 63 -16 120 -82 120c-86 0 -134 -81 -134 -178v-242h-97v708l97 11v-343h3c27 57 82 111 164 111c80 0 146 -31 146 -175v-312h-97z" />
    <glyph glyph-name="hbar" unicode="&#x127;" horiz-adv-x="572" 
d="M347 487c80 0 146 -31 146 -175v-312h-97v300c0 63 -16 120 -82 120c-86 0 -134 -81 -134 -178v-242h-97v559h-59v52h59v97l97 11v-108h150v-52h-150v-183h3c27 57 82 111 164 111z" />
    <glyph glyph-name="hcircumflex" unicode="&#x125;" horiz-adv-x="570" 
d="M175 885l110 -129h-56l-96 76l-96 -76h-54l110 129h82zM394 0v300c0 63 -16 120 -82 120c-86 0 -134 -81 -134 -178v-242h-97v708l97 11v-343h3c27 57 82 111 164 111c80 0 146 -31 146 -175v-312h-97z" />
    <glyph glyph-name="i" unicode="i" horiz-adv-x="262" 
d="M182 694v-102h-102v102h102zM180 477v-477h-98v477h98z" />
    <glyph glyph-name="dotlessi" unicode="&#x131;" horiz-adv-x="262" 
d="M180 477v-477h-98v477h98z" />
    <glyph glyph-name="iacute" unicode="&#xed;" horiz-adv-x="262" 
d="M272 712l-147 -141h-54l100 141h101zM180 477v-477h-98v477h98z" />
    <glyph glyph-name="ibreve" unicode="&#x12d;" horiz-adv-x="262" 
d="M34 706c6 -49 46 -76 97 -76c54 0 92 27 101 76h45c-9 -81 -61 -132 -147 -132c-87 0 -138 52 -143 132h47zM180 477v-477h-98v477h98z" />
    <glyph glyph-name="icircumflex" unicode="&#xee;" horiz-adv-x="262" 
d="M172 712l110 -141h-55l-98 88l-96 -88h-52l110 141h81zM180 477v-477h-98v477h98z" />
    <glyph glyph-name="idieresis" unicode="&#xef;" horiz-adv-x="262" 
d="M91 692v-96h-92v96h92zM265 692v-96h-93v96h93zM180 477v-477h-98v477h98z" />
    <glyph glyph-name="i.loclTRK" horiz-adv-x="262" 
d="M183 694v-102h-102v102h102zM180 477v-477h-98v477h98z" />
    <glyph glyph-name="igrave" unicode="&#xec;" horiz-adv-x="262" 
d="M92 712l100 -141h-54l-147 141h101zM180 477v-477h-98v477h98z" />
    <glyph glyph-name="ij" unicode="&#x133;" horiz-adv-x="524" 
d="M182 694v-102h-102v102h102zM445 694v-102h-102v102h102zM180 477v-477h-98v477h98zM443 477v-438c0 -170 -73 -234 -196 -268l-46 18v6c113 46 145 102 145 256v426h97z" />
    <glyph glyph-name="imacron" unicode="&#x12b;" horiz-adv-x="262" 
d="M290 670v-53h-317v53h317zM180 477v-477h-98v477h98z" />
    <glyph glyph-name="iogonek" unicode="&#x12f;" horiz-adv-x="262" 
d="M80 592v102h103v-102h-103zM27 -115c0 39 26 71 99 115h-44v477h98v-477c-67 -52 -82 -77 -82 -105c0 -24 15 -37 44 -37c19 0 40 6 56 13h7l-14 -37c-20 -11 -46 -18 -75 -18c-46 0 -89 19 -89 69z" />
    <glyph glyph-name="itilde" unicode="&#x129;" horiz-adv-x="262" 
d="M141 676c20 -11 44 -24 63 -24c24 0 39 11 47 44h40c-10 -65 -42 -104 -89 -104c-25 0 -48 7 -74 21c-22 13 -44 24 -66 24c-23 0 -41 -11 -48 -45h-41c5 54 38 106 91 106c22 0 45 -5 77 -22zM180 477v-477h-98v477h98z" />
    <glyph glyph-name="j" unicode="j" horiz-adv-x="262" 
d="M183 694v-102h-102v102h102zM181 477v-438c0 -170 -73 -234 -196 -268l-46 18v6c113 46 145 102 145 256v426h97z" />
    <glyph glyph-name="uni0237" unicode="&#x237;" horiz-adv-x="262" 
d="M180 475v-436c0 -170 -72 -234 -195 -268l-46 18v6c113 46 145 102 145 256v424h96z" />
    <glyph glyph-name="jcircumflex" unicode="&#x135;" horiz-adv-x="262" 
d="M172 712l110 -141h-55l-98 88l-96 -88h-52l110 141h81zM180 475v-436c0 -170 -72 -234 -195 -268l-46 18v6c113 46 145 102 145 256v424h96z" />
    <glyph glyph-name="k" unicode="k" horiz-adv-x="508" 
d="M178 719v-719h-97v708zM188 254c69 73 133 149 192 223h92l-192 -201c64 -89 189 -240 227 -271v-5h-133c-50 62 -124 162 -186 246v8z" />
    <glyph glyph-name="uni0137" unicode="&#x137;" horiz-adv-x="508" 
d="M178 719v-719h-97v708zM188 254c69 73 133 149 192 223h92l-192 -201c64 -89 189 -240 227 -271v-5h-133c-50 62 -124 162 -186 246v8zM303 -70c-6 -41 -34 -107 -58 -146h-47c15 53 20 104 21 146h84z" />
    <glyph glyph-name="kgreenlandic" unicode="&#x138;" horiz-adv-x="508" 
d="M178 477v-477h-97v477h97zM188 254c69 73 133 149 192 223h92l-192 -201c64 -89 189 -240 227 -271v-5h-133c-50 62 -124 162 -186 246v8z" />
    <glyph glyph-name="l" unicode="l" horiz-adv-x="259" 
d="M81 0v708l97 11v-719h-97z" />
    <glyph glyph-name="lacute" unicode="&#x13a;" horiz-adv-x="259" 
d="M291 885l-156 -129h-55l106 129h105zM81 0v708l97 11v-719h-97z" />
    <glyph glyph-name="lcaron" unicode="&#x13e;" horiz-adv-x="259" 
d="M81 0v708l97 11v-719h-97zM343 719c-12 -77 -41 -153 -63 -192h-45c11 52 21 125 21 192h87z" />
    <glyph glyph-name="uni013C" unicode="&#x13c;" horiz-adv-x="259" 
d="M81 0v708l97 11v-719h-97zM178 -70c-6 -41 -34 -107 -58 -146h-47c15 53 20 104 21 146h84z" />
    <glyph glyph-name="ldot" unicode="&#x140;" horiz-adv-x="359" 
d="M81 0v708l97 11v-719h-97zM360 389v-101h-103v101h103z" />
    <glyph glyph-name="lslash" unicode="&#x142;" horiz-adv-x="275" 
d="M266 486v-61l-80 -47v-378h-97v325l-79 -46v61l79 46v322l97 11v-280z" />
    <glyph glyph-name="m" unicode="m" horiz-adv-x="876" 
d="M646 487c83 0 152 -40 152 -175v-312h-97v299c0 63 -14 121 -82 121c-90 0 -132 -82 -132 -179v-241h-96v299c0 63 -12 121 -82 121c-89 0 -131 -82 -131 -179v-241h-97v477h91l4 -99h3c27 58 84 109 158 109c70 0 126 -26 142 -111h3c26 60 90 111 164 111z" />
    <glyph glyph-name="n" unicode="n" horiz-adv-x="570" 
d="M394 0v300c0 63 -16 120 -82 120c-86 0 -134 -81 -134 -178v-242h-97v477h90l5 -101h3c28 58 84 111 166 111c80 0 146 -38 146 -175v-312h-97z" />
    <glyph glyph-name="nacute" unicode="&#x144;" horiz-adv-x="570" 
d="M426 712l-147 -141h-54l100 141h101zM394 0v300c0 63 -16 120 -82 120c-86 0 -134 -81 -134 -178v-242h-97v477h90l5 -101h3c28 58 84 111 166 111c80 0 146 -38 146 -175v-312h-97z" />
    <glyph glyph-name="napostrophe" unicode="&#x149;" horiz-adv-x="570" 
d="M103 719c-12 -77 -41 -153 -63 -192h-45c11 52 21 125 21 192h87zM394 0v300c0 63 -16 120 -82 120c-86 0 -134 -81 -134 -178v-242h-97v477h90l5 -101h3c28 58 84 111 166 111c80 0 146 -38 146 -175v-312h-97z" />
    <glyph glyph-name="ncaron" unicode="&#x148;" horiz-adv-x="570" 
d="M244 571l-110 141h55l98 -87l96 87h52l-110 -141h-81zM394 0v300c0 63 -16 120 -82 120c-86 0 -134 -81 -134 -178v-242h-97v477h90l5 -101h3c28 58 84 111 166 111c80 0 146 -38 146 -175v-312h-97z" />
    <glyph glyph-name="uni0146" unicode="&#x146;" horiz-adv-x="570" 
d="M394 0v300c0 63 -16 120 -82 120c-86 0 -134 -81 -134 -178v-242h-97v477h90l5 -101h3c28 58 84 111 166 111c80 0 146 -38 146 -175v-312h-97zM334 -70c-6 -41 -34 -107 -58 -146h-47c15 53 20 104 21 146h84z" />
    <glyph glyph-name="eng" unicode="&#x14b;" horiz-adv-x="570" 
d="M81 0v477h90l5 -101h3c28 58 84 111 166 111c80 0 146 -38 146 -175v-269c0 -170 -72 -238 -195 -272l-46 18v6c113 46 144 106 144 259v246c0 63 -16 120 -82 120c-86 0 -134 -81 -134 -178v-242h-97z" />
    <glyph glyph-name="ntilde" unicode="&#xf1;" horiz-adv-x="570" 
d="M295 676c20 -11 44 -24 63 -24c24 0 39 11 47 44h40c-10 -65 -42 -104 -89 -104c-25 0 -48 7 -74 21c-22 13 -44 24 -66 24c-23 0 -41 -11 -48 -45h-41c5 54 38 106 91 106c22 0 45 -5 77 -22zM394 0v300c0 63 -16 120 -82 120c-86 0 -134 -81 -134 -178v-242h-97v477h90
l5 -101h3c28 58 84 111 166 111c80 0 146 -38 146 -175v-312h-97z" />
    <glyph glyph-name="o" unicode="o" horiz-adv-x="593" 
d="M298 487c111 0 238 -76 238 -245c0 -171 -127 -252 -238 -252c-115 0 -241 81 -241 252c0 169 126 245 241 245zM297 44c79 0 137 71 137 198c0 125 -58 191 -137 191c-80 0 -138 -66 -138 -191c0 -127 58 -198 138 -198z" />
    <glyph glyph-name="oacute" unicode="&#xf3;" horiz-adv-x="593" 
d="M437 712l-147 -141h-54l100 141h101zM298 487c111 0 238 -76 238 -245c0 -171 -127 -252 -238 -252c-115 0 -241 81 -241 252c0 169 126 245 241 245zM297 44c79 0 137 71 137 198c0 125 -58 191 -137 191c-80 0 -138 -66 -138 -191c0 -127 58 -198 138 -198z" />
    <glyph glyph-name="obreve" unicode="&#x14f;" horiz-adv-x="593" 
d="M198 706c6 -49 46 -76 97 -76c54 0 92 27 101 76h45c-9 -81 -61 -132 -147 -132c-87 0 -138 52 -143 132h47zM298 487c111 0 238 -76 238 -245c0 -171 -127 -252 -238 -252c-115 0 -241 81 -241 252c0 169 126 245 241 245zM297 44c79 0 137 71 137 198
c0 125 -58 191 -137 191c-80 0 -138 -66 -138 -191c0 -127 58 -198 138 -198z" />
    <glyph glyph-name="ocircumflex" unicode="&#xf4;" horiz-adv-x="593" 
d="M337 712l110 -141h-55l-98 88l-96 -88h-52l110 141h81zM298 487c111 0 238 -76 238 -245c0 -171 -127 -252 -238 -252c-115 0 -241 81 -241 252c0 169 126 245 241 245zM297 44c79 0 137 71 137 198c0 125 -58 191 -137 191c-80 0 -138 -66 -138 -191
c0 -127 58 -198 138 -198z" />
    <glyph glyph-name="odieresis" unicode="&#xf6;" horiz-adv-x="593" 
d="M255 692v-96h-92v96h92zM429 692v-96h-93v96h93zM298 487c111 0 238 -76 238 -245c0 -171 -127 -252 -238 -252c-115 0 -241 81 -241 252c0 169 126 245 241 245zM297 44c79 0 137 71 137 198c0 125 -58 191 -137 191c-80 0 -138 -66 -138 -191c0 -127 58 -198 138 -198z
" />
    <glyph glyph-name="ograve" unicode="&#xf2;" horiz-adv-x="593" 
d="M257 712l100 -141h-54l-147 141h101zM298 487c111 0 238 -76 238 -245c0 -171 -127 -252 -238 -252c-115 0 -241 81 -241 252c0 169 126 245 241 245zM297 44c79 0 137 71 137 198c0 125 -58 191 -137 191c-80 0 -138 -66 -138 -191c0 -127 58 -198 138 -198z" />
    <glyph glyph-name="ohungarumlaut" unicode="&#x151;" horiz-adv-x="593" 
d="M365 712l-139 -141h-53l96 141h96zM529 712l-139 -141h-54l96 141h97zM298 487c111 0 238 -76 238 -245c0 -171 -127 -252 -238 -252c-115 0 -241 81 -241 252c0 169 126 245 241 245zM297 44c79 0 137 71 137 198c0 125 -58 191 -137 191c-80 0 -138 -66 -138 -191
c0 -127 58 -198 138 -198z" />
    <glyph glyph-name="omacron" unicode="&#x14d;" horiz-adv-x="593" 
d="M454 670v-53h-317v53h317zM298 487c111 0 238 -76 238 -245c0 -171 -127 -252 -238 -252c-115 0 -241 81 -241 252c0 169 126 245 241 245zM297 44c79 0 137 71 137 198c0 125 -58 191 -137 191c-80 0 -138 -66 -138 -191c0 -127 58 -198 138 -198z" />
    <glyph glyph-name="oslash" unicode="&#xf8;" horiz-adv-x="593" 
d="M479 408c34 -40 57 -95 57 -166c0 -171 -127 -252 -238 -252c-50 0 -102 15 -145 47l-52 -59l-37 33l52 59c-36 41 -59 98 -59 172c0 169 126 245 241 245c49 0 101 -15 144 -46l50 56l36 -33zM159 242c0 -41 6 -76 17 -104l218 248c-24 31 -58 47 -97 47
c-80 0 -138 -66 -138 -191zM297 44c79 0 137 71 137 198c0 38 -5 71 -15 98l-218 -248c24 -32 58 -48 96 -48z" />
    <glyph glyph-name="oslashacute" unicode="&#x1ff;" horiz-adv-x="593" 
d="M437 712l-147 -141h-54l100 141h101zM479 408c34 -40 57 -95 57 -166c0 -171 -127 -252 -238 -252c-50 0 -102 15 -145 47l-52 -59l-37 33l52 59c-36 41 -59 98 -59 172c0 169 126 245 241 245c49 0 101 -15 144 -46l50 56l36 -33zM159 242c0 -41 6 -76 17 -104l218 248
c-24 31 -58 47 -97 47c-80 0 -138 -66 -138 -191zM297 44c79 0 137 71 137 198c0 38 -5 71 -15 98l-218 -248c24 -32 58 -48 96 -48z" />
    <glyph glyph-name="otilde" unicode="&#xf5;" horiz-adv-x="593" 
d="M306 676c20 -11 44 -24 63 -24c24 0 39 11 47 44h40c-10 -65 -42 -104 -89 -104c-25 0 -48 7 -74 21c-22 13 -44 24 -66 24c-23 0 -41 -11 -48 -45h-41c5 54 38 106 91 106c22 0 45 -5 77 -22zM298 487c111 0 238 -76 238 -245c0 -171 -127 -252 -238 -252
c-115 0 -241 81 -241 252c0 169 126 245 241 245zM297 44c79 0 137 71 137 198c0 125 -58 191 -137 191c-80 0 -138 -66 -138 -191c0 -127 58 -198 138 -198z" />
    <glyph glyph-name="oe" unicode="&#x153;" horiz-adv-x="911" 
d="M57 242c0 168 126 245 240 245c78 0 150 -35 188 -101h2c31 61 97 101 174 101c133 0 197 -81 197 -200v-36h-324c2 -119 61 -200 169 -200c52 0 103 17 139 59h11l-14 -73c-32 -27 -90 -47 -155 -47c-93 0 -166 35 -201 102h-1c-39 -71 -115 -102 -185 -102
c-115 0 -240 80 -240 252zM535 301h229v10c0 84 -41 128 -103 128s-119 -51 -126 -138zM159 242c0 -127 58 -198 138 -198c79 0 137 71 137 198c0 125 -58 191 -137 191c-80 0 -138 -66 -138 -191z" />
    <glyph glyph-name="p" unicode="p" horiz-adv-x="593" 
d="M81 -223v700h93l4 -93h2c27 56 80 102 162 102c126 0 194 -96 194 -242c0 -150 -81 -254 -216 -254c-58 0 -106 27 -140 68h-2v-281h-97zM318 429c-80 0 -149 -93 -149 -214v-7c0 -106 65 -160 134 -160c81 0 131 71 131 195c0 116 -42 186 -116 186z" />
    <glyph glyph-name="thorn" unicode="&#xfe;" horiz-adv-x="593" 
d="M81 -223v931l97 11v-335h2c27 56 80 103 162 103c126 0 194 -96 194 -242c0 -151 -81 -255 -216 -255c-58 0 -106 25 -140 69h-2v-282h-97zM318 429c-80 0 -149 -93 -149 -214v-7c0 -107 65 -160 134 -160c81 0 131 74 131 196c0 115 -42 185 -116 185z" />
    <glyph glyph-name="q" unicode="q" horiz-adv-x="594" 
d="M513 477v-700h-97v317h-2c-28 -56 -82 -104 -163 -104c-126 0 -194 95 -194 241c0 151 86 256 220 256c61 0 103 -24 138 -66h2l3 56h93zM274 47c82 0 150 95 150 216v7c0 103 -62 159 -131 159c-83 0 -134 -75 -134 -197c0 -115 40 -185 115 -185z" />
    <glyph glyph-name="r" unicode="r" horiz-adv-x="349" 
d="M171 477l4 -125h3c22 93 86 137 155 138l-8 -81c-94 -4 -147 -72 -147 -174v-235h-97v477h90z" />
    <glyph glyph-name="racute" unicode="&#x155;" horiz-adv-x="349" 
d="M334 712l-147 -141h-54l100 141h101zM171 477l4 -125h3c22 93 86 137 155 138l-8 -81c-94 -4 -147 -72 -147 -174v-235h-97v477h90z" />
    <glyph glyph-name="rcaron" unicode="&#x159;" horiz-adv-x="349" 
d="M153 571l-110 141h55l98 -87l96 87h52l-110 -141h-81zM171 477l4 -125h3c22 93 86 137 155 138l-8 -81c-94 -4 -147 -72 -147 -174v-235h-97v477h90z" />
    <glyph glyph-name="uni0157" unicode="&#x157;" horiz-adv-x="349" 
d="M171 477l4 -125h3c22 93 86 137 155 138l-8 -81c-94 -4 -147 -72 -147 -174v-235h-97v477h90zM173 -70c-6 -41 -34 -107 -58 -146h-47c15 53 20 104 21 146h84z" />
    <glyph glyph-name="s" unicode="s" horiz-adv-x="403" 
d="M328 398c-30 30 -66 40 -103 40c-34 0 -74 -18 -74 -62c0 -36 15 -51 83 -90c75 -42 125 -80 125 -156c0 -91 -76 -140 -169 -140c-60 0 -110 22 -143 50l-13 80h12c40 -50 93 -75 143 -75c48 0 80 26 80 71c0 48 -37 72 -112 112c-70 38 -94 72 -94 133
c0 84 82 126 155 126c51 0 80 -9 109 -26l10 -63h-9z" />
    <glyph glyph-name="sacute" unicode="&#x15b;" horiz-adv-x="403" 
d="M342 712l-147 -141h-54l100 141h101zM328 398c-30 30 -66 40 -103 40c-34 0 -74 -18 -74 -62c0 -36 15 -51 83 -90c75 -42 125 -80 125 -156c0 -91 -76 -140 -169 -140c-60 0 -110 22 -143 50l-13 80h12c40 -50 93 -75 143 -75c48 0 80 26 80 71c0 48 -37 72 -112 112
c-70 38 -94 72 -94 133c0 84 82 126 155 126c51 0 80 -9 109 -26l10 -63h-9z" />
    <glyph glyph-name="scaron" unicode="&#x161;" horiz-adv-x="403" 
d="M161 571l-110 141h55l98 -87l96 87h52l-110 -141h-81zM328 398c-30 30 -66 40 -103 40c-34 0 -74 -18 -74 -62c0 -36 15 -51 83 -90c75 -42 125 -80 125 -156c0 -91 -76 -140 -169 -140c-60 0 -110 22 -143 50l-13 80h12c40 -50 93 -75 143 -75c48 0 80 26 80 71
c0 48 -37 72 -112 112c-70 38 -94 72 -94 133c0 84 82 126 155 126c51 0 80 -9 109 -26l10 -63h-9z" />
    <glyph glyph-name="scedilla" unicode="&#x15f;" horiz-adv-x="403" 
d="M34 120h12c40 -50 93 -75 143 -75c48 0 80 26 80 71c0 48 -37 72 -112 112c-70 38 -94 72 -94 133c0 84 82 126 155 126c51 0 80 -9 109 -26l10 -63h-9c-30 30 -66 40 -103 40c-34 0 -74 -18 -74 -62c0 -36 15 -51 83 -90c75 -42 125 -80 125 -156
c0 -79 -58 -127 -136 -138l-17 -38l11 -3c33 -9 72 -29 72 -74c0 -71 -82 -95 -158 -95l-15 33l4 3c58 0 100 16 100 50c0 31 -31 43 -70 50l-1 6l36 66c-58 2 -106 23 -138 50z" />
    <glyph glyph-name="scircumflex" unicode="&#x15d;" horiz-adv-x="403" 
d="M242 712l110 -141h-55l-98 88l-96 -88h-52l110 141h81zM328 398c-30 30 -66 40 -103 40c-34 0 -74 -18 -74 -62c0 -36 15 -51 83 -90c75 -42 125 -80 125 -156c0 -91 -76 -140 -169 -140c-60 0 -110 22 -143 50l-13 80h12c40 -50 93 -75 143 -75c48 0 80 26 80 71
c0 48 -37 72 -112 112c-70 38 -94 72 -94 133c0 84 82 126 155 126c51 0 80 -9 109 -26l10 -63h-9z" />
    <glyph glyph-name="uni0219" unicode="&#x219;" horiz-adv-x="403" 
d="M328 398c-30 30 -66 40 -103 40c-34 0 -74 -18 -74 -62c0 -36 15 -51 83 -90c75 -42 125 -80 125 -156c0 -91 -76 -140 -169 -140c-60 0 -110 22 -143 50l-13 80h12c40 -50 93 -75 143 -75c48 0 80 26 80 71c0 48 -37 72 -112 112c-70 38 -94 72 -94 133
c0 84 82 126 155 126c51 0 80 -9 109 -26l10 -63h-9zM250 -70c-6 -41 -34 -107 -58 -146h-47c15 53 20 104 21 146h84z" />
    <glyph glyph-name="germandbls" unicode="&#xdf;" horiz-adv-x="599" 
d="M176 0h-97v497c0 130 71 232 217 232c102 0 176 -34 176 -117c0 -80 -115 -123 -115 -175c0 -31 25 -54 81 -94c85 -60 119 -104 119 -182c0 -92 -62 -171 -173 -171c-54 0 -99 22 -127 48l-12 82h12c39 -50 80 -73 124 -73c54 0 83 41 83 95c0 48 -30 90 -103 141
c-61 42 -97 75 -97 123c1 82 116 123 116 200c0 47 -34 69 -86 69c-83 0 -118 -73 -118 -186v-489z" />
    <glyph glyph-name="longs" unicode="&#x17f;" horiz-adv-x="296" 
d="M275 729c23 0 45 -2 66 -11l5 -61h-10c-18 12 -33 16 -56 16c-77 0 -91 -63 -91 -187v-486h-97v426h-74v51h74v32c0 123 55 220 183 220z" />
    <glyph glyph-name="t" unicode="t" horiz-adv-x="328" 
d="M188 128c0 -53 14 -81 49 -81c27 0 48 8 73 23l-3 -46c-24 -18 -58 -32 -97 -32c-79 0 -119 32 -119 124v310h-69v51h69v124l97 11v-135h124l-6 -51h-118v-298z" />
    <glyph glyph-name="tbar" unicode="&#x167;" horiz-adv-x="328" 
d="M188 128c0 -53 14 -81 49 -81c27 0 48 8 73 23l-3 -46c-24 -18 -58 -32 -97 -32c-79 0 -119 32 -119 124v154h-69v49h69v107h-69v51h69v124l97 11v-135h124l-6 -51h-118v-107h98v-49h-98v-142z" />
    <glyph glyph-name="tcaron" unicode="&#x165;" horiz-adv-x="328" 
d="M353 719c-12 -77 -41 -153 -63 -192h-45c11 52 21 125 21 192h87zM188 128c0 -53 14 -81 49 -81c27 0 48 8 73 23l-3 -46c-24 -18 -58 -32 -97 -32c-79 0 -119 32 -119 124v310h-69v51h69v124l97 11v-135h124l-6 -51h-118v-298z" />
    <glyph glyph-name="uni0163" unicode="&#x163;" horiz-adv-x="328" 
d="M22 426v51h69v124l97 11v-135h124l-6 -51h-118v-298c0 -53 14 -81 49 -81c27 0 48 8 73 23l-3 -46c-24 -18 -58 -32 -97 -32h-8l-17 -38l11 -3c33 -9 72 -29 72 -74c0 -71 -82 -95 -158 -95l-15 33l4 3c58 0 100 16 100 50c0 31 -31 43 -70 50l-1 6l39 72
c-51 11 -76 46 -76 120v310h-69z" />
    <glyph glyph-name="uni021B" unicode="&#x21b;" horiz-adv-x="328" 
d="M188 128c0 -53 14 -81 49 -81c27 0 48 8 73 23l-3 -46c-24 -18 -58 -32 -97 -32c-79 0 -119 32 -119 124v310h-69v51h69v124l97 11v-135h124l-6 -51h-118v-298zM218 -70c-6 -41 -34 -107 -58 -146h-47c15 53 20 104 21 146h84z" />
    <glyph glyph-name="u" unicode="u" horiz-adv-x="568" 
d="M175 477v-298c0 -64 16 -120 82 -120c85 0 133 81 133 178v240h97v-477h-91l-5 102h-3c-28 -57 -81 -112 -163 -112c-80 0 -147 37 -147 175v312h97z" />
    <glyph glyph-name="uacute" unicode="&#xfa;" horiz-adv-x="568" 
d="M424 712l-147 -141h-54l100 141h101zM175 477v-298c0 -64 16 -120 82 -120c85 0 133 81 133 178v240h97v-477h-91l-5 102h-3c-28 -57 -81 -112 -163 -112c-80 0 -147 37 -147 175v312h97z" />
    <glyph glyph-name="ubreve" unicode="&#x16d;" horiz-adv-x="568" 
d="M186 706c6 -49 46 -76 97 -76c54 0 92 27 101 76h45c-9 -81 -61 -132 -147 -132c-87 0 -138 52 -143 132h47zM175 477v-298c0 -64 16 -120 82 -120c85 0 133 81 133 178v240h97v-477h-91l-5 102h-3c-28 -57 -81 -112 -163 -112c-80 0 -147 37 -147 175v312h97z" />
    <glyph glyph-name="ucircumflex" unicode="&#xfb;" horiz-adv-x="568" 
d="M324 712l110 -141h-55l-98 88l-96 -88h-52l110 141h81zM175 477v-298c0 -64 16 -120 82 -120c85 0 133 81 133 178v240h97v-477h-91l-5 102h-3c-28 -57 -81 -112 -163 -112c-80 0 -147 37 -147 175v312h97z" />
    <glyph glyph-name="udieresis" unicode="&#xfc;" horiz-adv-x="568" 
d="M243 692v-96h-92v96h92zM417 692v-96h-93v96h93zM175 477v-298c0 -64 16 -120 82 -120c85 0 133 81 133 178v240h97v-477h-91l-5 102h-3c-28 -57 -81 -112 -163 -112c-80 0 -147 37 -147 175v312h97z" />
    <glyph glyph-name="ugrave" unicode="&#xf9;" horiz-adv-x="568" 
d="M244 712l100 -141h-54l-147 141h101zM175 477v-298c0 -64 16 -120 82 -120c85 0 133 81 133 178v240h97v-477h-91l-5 102h-3c-28 -57 -81 -112 -163 -112c-80 0 -147 37 -147 175v312h97z" />
    <glyph glyph-name="uhungarumlaut" unicode="&#x171;" horiz-adv-x="568" 
d="M353 712l-139 -141h-53l96 141h96zM517 712l-139 -141h-54l96 141h97zM175 477v-298c0 -64 16 -120 82 -120c85 0 133 81 133 178v240h97v-477h-91l-5 102h-3c-28 -57 -81 -112 -163 -112c-80 0 -147 37 -147 175v312h97z" />
    <glyph glyph-name="umacron" unicode="&#x16b;" horiz-adv-x="568" 
d="M442 670v-53h-317v53h317zM175 477v-298c0 -64 16 -120 82 -120c85 0 133 81 133 178v240h97v-477h-91l-5 102h-3c-28 -57 -81 -112 -163 -112c-80 0 -147 37 -147 175v312h97z" />
    <glyph glyph-name="uogonek" unicode="&#x173;" horiz-adv-x="568" 
d="M78 165v312h97v-298c0 -64 16 -120 82 -120c85 0 133 81 133 178v240h97v-477c-73 -43 -102 -75 -102 -105c0 -24 15 -37 44 -37c19 0 40 6 56 13h7l-14 -37c-20 -11 -46 -18 -75 -18c-46 0 -89 19 -89 69c0 39 34 78 112 115h-30l-5 102h-3c-28 -57 -81 -112 -163 -112
c-80 0 -147 37 -147 175z" />
    <glyph glyph-name="uring" unicode="&#x16f;" horiz-adv-x="568" 
d="M284 545c-65 0 -111 50 -111 108c0 60 48 108 111 108c62 0 110 -47 110 -108c0 -60 -47 -108 -110 -108zM284 581c42 0 67 33 67 72c0 36 -23 72 -68 72c-40 0 -66 -31 -66 -72c0 -38 24 -72 67 -72zM175 477v-298c0 -64 16 -120 82 -120c85 0 133 81 133 178v240h97
v-477h-91l-5 102h-3c-28 -57 -81 -112 -163 -112c-80 0 -147 37 -147 175v312h97z" />
    <glyph glyph-name="utilde" unicode="&#x169;" horiz-adv-x="568" 
d="M293 676c20 -11 44 -24 63 -24c24 0 39 11 47 44h40c-10 -65 -42 -104 -89 -104c-25 0 -48 7 -74 21c-22 13 -44 24 -66 24c-23 0 -41 -11 -48 -45h-41c5 54 38 106 91 106c22 0 45 -5 77 -22zM175 477v-298c0 -64 16 -120 82 -120c85 0 133 81 133 178v240h97v-477h-91
l-5 102h-3c-28 -57 -81 -112 -163 -112c-80 0 -147 37 -147 175v312h97z" />
    <glyph glyph-name="v" unicode="v" horiz-adv-x="462" 
d="M270 0h-80l-181 477h108l132 -375h3l126 375h75z" />
    <glyph glyph-name="w" unicode="w" horiz-adv-x="789" 
d="M767 477l-167 -477h-73l-136 352h-5l-130 -352h-73l-161 477h104l113 -364h3l131 364h64l139 -364h3l112 364h76z" />
    <glyph glyph-name="wacute" unicode="&#x1e83;" horiz-adv-x="789" 
d="M540 712l-147 -141h-54l100 141h101zM767 477l-167 -477h-73l-136 352h-5l-130 -352h-73l-161 477h104l113 -364h3l131 364h64l139 -364h3l112 364h76z" />
    <glyph glyph-name="wcircumflex" unicode="&#x175;" horiz-adv-x="789" 
d="M440 712l110 -141h-55l-98 88l-96 -88h-52l110 141h81zM767 477l-167 -477h-73l-136 352h-5l-130 -352h-73l-161 477h104l113 -364h3l131 364h64l139 -364h3l112 364h76z" />
    <glyph glyph-name="wdieresis" unicode="&#x1e85;" horiz-adv-x="789" 
d="M358 692v-96h-92v96h92zM532 692v-96h-93v96h93zM767 477l-167 -477h-73l-136 352h-5l-130 -352h-73l-161 477h104l113 -364h3l131 364h64l139 -364h3l112 364h76z" />
    <glyph glyph-name="wgrave" unicode="&#x1e81;" horiz-adv-x="789" 
d="M360 712l100 -141h-54l-147 141h101zM767 477l-167 -477h-73l-136 352h-5l-130 -352h-73l-161 477h104l113 -364h3l131 364h64l139 -364h3l112 364h76z" />
    <glyph glyph-name="x" unicode="x" horiz-adv-x="483" 
d="M189 242l-154 235h110l107 -177h4l111 177h75l-150 -222l99 -154c33 -49 54 -80 68 -96v-5h-113l-117 191h-5l-123 -191h-76z" />
    <glyph glyph-name="y" unicode="y" horiz-adv-x="459" 
d="M165 -223h-88c47 82 87 166 121 249l-191 451h109l132 -344h3l124 344h76z" />
    <glyph glyph-name="yacute" unicode="&#xfd;" horiz-adv-x="459" 
d="M376 712l-147 -141h-54l100 141h101zM165 -223h-88c47 82 87 166 121 249l-191 451h109l132 -344h3l124 344h76z" />
    <glyph glyph-name="ycircumflex" unicode="&#x177;" horiz-adv-x="459" 
d="M275 712l110 -141h-55l-98 88l-96 -88h-52l110 141h81zM165 -223h-88c47 82 87 166 121 249l-191 451h109l132 -344h3l124 344h76z" />
    <glyph glyph-name="ydieresis" unicode="&#xff;" horiz-adv-x="459" 
d="M194 692v-96h-92v96h92zM368 692v-96h-93v96h93zM165 -223h-88c47 82 87 166 121 249l-191 451h109l132 -344h3l124 344h76z" />
    <glyph glyph-name="ygrave" unicode="&#x1ef3;" horiz-adv-x="459" 
d="M195 712l100 -141h-54l-147 141h101zM165 -223h-88c47 82 87 166 121 249l-191 451h109l132 -344h3l124 344h76z" />
    <glyph glyph-name="z" unicode="z" horiz-adv-x="473" 
d="M71 477h362v-19l-277 -400v-5c200 0 257 0 308 13h6l-38 -66h-412v19l280 399v6h-251z" />
    <glyph glyph-name="zacute" unicode="&#x17a;" horiz-adv-x="473" 
d="M379 712l-147 -141h-54l100 141h101zM71 477h362v-19l-277 -400v-5c200 0 257 0 308 13h6l-38 -66h-412v19l280 399v6h-251z" />
    <glyph glyph-name="zcaron" unicode="&#x17e;" horiz-adv-x="473" 
d="M197 571l-110 141h55l98 -87l96 87h52l-110 -141h-81zM71 477h362v-19l-277 -400v-5c200 0 257 0 308 13h6l-38 -66h-412v19l280 399v6h-251z" />
    <glyph glyph-name="zdotaccent" unicode="&#x17c;" horiz-adv-x="473" 
d="M289 694v-102h-102v102h102zM71 477h362v-19l-277 -400v-5c200 0 257 0 308 13h6l-38 -66h-412v19l280 399v6h-251z" />
    <glyph glyph-name="ordfeminine" unicode="&#xaa;" horiz-adv-x="406" 
d="M276 349l-12 48c-23 -36 -60 -55 -106 -55c-67 0 -105 38 -105 92c0 58 42 83 92 95c89 21 116 28 116 43v3c0 52 -30 73 -79 73c-27 0 -66 -13 -92 -43h-11l6 51c33 26 78 36 114 36c97 0 138 -50 138 -122v-157c0 -21 1 -43 6 -64h-67zM184 385c34 0 72 30 77 68v72
c-94 -22 -133 -38 -133 -85c0 -32 23 -55 56 -55z" />
    <glyph glyph-name="ordmasculine" unicode="&#xba;" horiz-adv-x="462" 
d="M232 692c83 0 173 -56 173 -173c0 -119 -90 -177 -173 -177c-85 0 -175 58 -175 177c0 117 90 173 175 173zM231 384c54 0 91 52 91 136c0 82 -37 131 -91 131s-91 -49 -91 -131c0 -84 37 -136 91 -136z" />
    <glyph glyph-name="uni207F" unicode="&#x207f;" horiz-adv-x="430" 
d="M289 349v210c0 56 -20 81 -56 81c-52 0 -88 -48 -88 -120v-171h-80v336h73l5 -70h2c20 49 62 77 113 77c71 0 111 -43 111 -125v-218h-80z" />
    <glyph glyph-name="uni0394" unicode="&#x394;" horiz-adv-x="684" 
d="M28 0v42l281 628l75 11l271 -644v-37h-627zM108 59h428l-208 503h-5z" />
    <glyph glyph-name="uni03A9" unicode="&#x3a9;" horiz-adv-x="806" 
d="M745 363c0 -124 -57 -216 -169 -289v-4h179v-70h-264v69c113 80 140 160 140 292c0 146 -84 272 -227 272c-144 0 -229 -117 -229 -272c0 -125 23 -210 142 -292v-69h-266v70h175v4c-107 68 -165 160 -165 289c0 188 149 328 343 328c197 0 341 -153 341 -328z" />
    <glyph glyph-name="uni03BC" unicode="&#x3bc;" 
d="M193 477v-298c0 -64 16 -120 81 -120c86 0 134 81 134 178v240h96v-477h-90l-6 102h-3c-24 -57 -55 -112 -130 -112c-34 0 -66 17 -79 37h-4v-177h-96v627h97z" />
    <glyph glyph-name="pi" unicode="&#x3c0;" 
d="M531 47c27 0 41 8 65 23l-3 -46c-24 -18 -50 -32 -88 -32c-77 0 -117 30 -117 122v302h-174v-416h-97v416h-89v61h553l-5 -61h-92v-289c0 -53 13 -80 47 -80z" />
    <glyph glyph-name="uni2099" unicode="&#x2099;" horiz-adv-x="430" 
d="M289 0v210c0 56 -20 81 -56 81c-52 0 -88 -48 -88 -120v-171h-80v336h73l5 -70h2c20 49 62 77 113 77c71 0 111 -43 111 -125v-218h-80z" />
    <glyph glyph-name="zero" unicode="0" 
d="M301 692c154 0 258 -142 258 -357c0 -214 -106 -347 -258 -347c-153 0 -260 133 -260 347c0 215 106 357 260 357zM301 633c-97 0 -147 -118 -147 -298c0 -183 50 -287 147 -287c93 0 145 104 145 287c0 180 -52 298 -145 298z" />
    <glyph glyph-name="one" unicode="1" 
d="M274 0v591l-153 -68l9 67l196 90h55v-680h-107z" />
    <glyph glyph-name="two" unicode="2" 
d="M59 0v36l112 112c147 147 225 255 225 352c0 65 -34 126 -114 126c-55 0 -108 -23 -153 -68h-10l7 79c47 35 101 55 172 55c138 0 208 -78 208 -184c0 -114 -74 -199 -238 -357l-62 -60v-4h171c85 0 132 0 172 5h10l-37 -92h-463z" />
    <glyph glyph-name="three" unicode="3" 
d="M407 197c0 97 -66 141 -174 141h-31l6 63h20c108 0 153 48 153 117c0 68 -41 112 -118 112c-39 0 -85 -9 -126 -40h-10l9 67c43 24 92 35 143 35c114 0 202 -53 202 -168c0 -72 -28 -117 -96 -146v-6c71 -23 126 -75 126 -177c0 -140 -120 -207 -252 -207
c-70 0 -138 19 -184 55l-11 84h11c53 -47 114 -68 176 -68c84 0 156 43 156 138z" />
    <glyph glyph-name="four" unicode="4" 
d="M458 265h114l-11 -74h-103v-191h-100v191h-329v33l349 456h80v-415zM358 265v295h-7l-211 -289v-6h218z" />
    <glyph glyph-name="five" unicode="5" 
d="M417 211c0 88 -50 151 -147 151c-41 0 -84 -14 -115 -35l-46 8l43 345h329l-14 -88h-249l-24 -182c29 11 64 16 96 16c142 0 227 -86 227 -213c0 -155 -121 -225 -255 -225c-65 0 -132 20 -178 55l-11 84h10c48 -42 108 -69 174 -69c79 0 160 43 160 153z" />
    <glyph glyph-name="six" unicode="6" 
d="M187 361c30 33 81 60 142 60c106 0 211 -70 211 -214c0 -126 -103 -219 -231 -219c-133 0 -243 78 -243 250c0 247 185 419 356 455l43 -38c-136 -34 -257 -170 -282 -294h4zM174 208c0 -95 54 -161 133 -161c80 0 125 70 125 157c0 96 -45 159 -120 159
c-76 0 -138 -59 -138 -155z" />
    <glyph glyph-name="seven" unicode="7" 
d="M112 0c102 182 221 399 319 593h-354l14 87h450v-28c-101 -198 -230 -462 -320 -652h-109z" />
    <glyph glyph-name="eight" unicode="8" 
d="M497 543c0 -64 -44 -121 -116 -157v-3c99 -48 162 -104 162 -206c0 -127 -134 -189 -249 -189c-116 0 -235 57 -235 183c0 95 80 161 155 193v3c-87 47 -117 88 -117 162c-1 110 113 163 207 163c97 0 193 -46 193 -149zM419 542c0 63 -51 98 -114 98
c-44 0 -102 -30 -102 -103c0 -55 33 -85 118 -124c64 32 98 72 98 129zM430 170c0 78 -58 122 -160 164c-70 -34 -117 -85 -117 -159c0 -81 59 -130 139 -130c79 0 138 49 138 125z" />
    <glyph glyph-name="nine" unicode="9" 
d="M409 333c-30 -32 -81 -54 -139 -54c-100 0 -206 58 -206 201c0 126 103 212 229 212c133 0 239 -83 239 -256c0 -230 -156 -402 -356 -449l-46 43c159 47 261 176 283 303h-4zM424 480c0 93 -57 154 -129 154c-81 0 -123 -68 -123 -153c0 -89 48 -142 118 -142
c75 0 134 52 134 141z" />
    <glyph glyph-name="zero.lf" horiz-adv-x="621" 
d="M311 692c154 0 258 -142 258 -357c0 -214 -106 -347 -258 -347c-153 0 -260 133 -260 347c0 215 106 357 260 357zM311 633c-97 0 -147 -118 -147 -298c0 -183 50 -287 147 -287c94 0 146 104 146 287c0 180 -52 298 -146 298z" />
    <glyph glyph-name="one.lf" horiz-adv-x="415" 
d="M194 0v591l-154 -68l10 67l196 90h54v-680h-106z" />
    <glyph glyph-name="two.lf" horiz-adv-x="564" 
d="M38 0v36l112 112c147 147 225 255 225 352c0 65 -34 126 -114 126c-54 0 -108 -23 -153 -68h-10l7 79c48 35 102 55 173 55c137 0 207 -78 207 -184c0 -114 -73 -199 -237 -357l-63 -60v-4h172c84 0 132 0 171 5h10l-36 -92h-464z" />
    <glyph glyph-name="three.lf" horiz-adv-x="540" 
d="M374 197c0 97 -66 141 -174 141h-31l6 63h20c108 0 153 48 153 117c0 68 -41 112 -118 112c-39 0 -85 -9 -126 -40h-10l9 67c43 24 92 35 143 35c114 0 202 -53 202 -168c0 -72 -28 -117 -96 -146v-6c71 -23 126 -75 126 -177c0 -140 -120 -207 -252 -207
c-70 0 -138 19 -184 55l-11 84h11c53 -47 114 -68 176 -68c84 0 156 43 156 138z" />
    <glyph glyph-name="four.lf" horiz-adv-x="610" 
d="M457 265h114l-12 -74h-102v-191h-100v191h-329v33l348 456h81v-415zM357 265v295h-8l-210 -289v-6h218z" />
    <glyph glyph-name="five.lf" horiz-adv-x="538" 
d="M382 211c0 88 -50 151 -147 151c-40 0 -83 -14 -115 -35l-46 8l44 345h328l-13 -88h-249l-24 -182c29 11 64 16 96 16c142 0 227 -86 227 -213c0 -155 -121 -225 -255 -225c-65 0 -132 20 -179 55l-10 84h10c47 -42 108 -69 174 -69c78 0 159 43 159 153z" />
    <glyph glyph-name="six.lf" horiz-adv-x="602" 
d="M186 361c30 33 81 60 142 60c107 0 211 -70 211 -214c0 -126 -103 -219 -230 -219c-134 0 -244 78 -244 250c0 247 185 419 356 455l43 -38c-136 -34 -257 -170 -282 -294h4zM173 208c0 -95 54 -161 134 -161c79 0 125 70 125 157c0 96 -45 159 -121 159
s-138 -59 -138 -155z" />
    <glyph glyph-name="seven.lf" horiz-adv-x="567" 
d="M99 0c103 182 221 399 319 593h-354l15 87h449v-28c-100 -198 -229 -462 -320 -652h-109z" />
    <glyph glyph-name="eight.lf" 
d="M496 543c0 -64 -43 -121 -115 -157v-3c98 -48 161 -104 161 -206c0 -127 -134 -189 -248 -189c-117 0 -236 57 -236 183c0 95 80 161 155 193v3c-86 47 -116 88 -117 162c0 110 114 163 207 163c98 0 193 -46 193 -149zM418 542c0 63 -50 98 -114 98
c-44 0 -101 -30 -101 -103c0 -55 33 -85 117 -124c65 32 98 72 98 129zM429 170c0 78 -58 122 -160 164c-70 -34 -116 -85 -116 -159c0 -81 59 -130 139 -130c78 0 137 49 137 125z" />
    <glyph glyph-name="nine.lf" horiz-adv-x="599" 
d="M409 333c-30 -32 -81 -54 -139 -54c-100 0 -206 58 -206 201c0 126 103 212 229 212c133 0 239 -83 239 -256c0 -230 -156 -402 -356 -449l-46 43c159 47 261 176 283 303h-4zM424 480c0 93 -57 154 -129 154c-81 0 -123 -68 -123 -153c0 -89 48 -142 118 -142
c75 0 134 52 134 141z" />
    <glyph glyph-name="zero.ss01" unicode="&#x1e00;" horiz-adv-x="722" 
d="M363 706c172 0 281 -147 281 -364s-110 -354 -281 -354c-175 0 -285 137 -285 354s110 364 285 364zM363 645c-116 0 -169 -125 -169 -303c0 -181 53 -292 169 -292c110 0 165 114 165 292s-55 303 -165 303z" />
    <glyph glyph-name="one.ss01" unicode="&#x1e01;" horiz-adv-x="516" 
d="M68 529l9 66l220 99h63v-694h-107v604z" />
    <glyph glyph-name="two.ss01" unicode="&#x1e02;" horiz-adv-x="684" 
d="M198 153c178 143 264 241 264 350c0 87 -52 134 -141 134c-64 0 -131 -29 -185 -83h-11l8 80c57 46 124 72 207 72c161 0 238 -80 238 -194c0 -127 -79 -216 -279 -359l-85 -61v-4h201c100 0 159 4 197 13h13l-33 -101h-537v38z" />
    <glyph glyph-name="three.ss01" unicode="&#x1e03;" horiz-adv-x="603" 
d="M441 201c0 99 -87 141 -212 141h-50l6 68h38c126 0 196 44 196 118c0 73 -68 111 -151 111c-53 0 -122 -16 -167 -49h-11l10 74c48 27 123 42 185 42c124 0 239 -54 239 -170c0 -75 -40 -123 -121 -150v-7c84 -22 147 -75 147 -180c0 -145 -132 -211 -281 -211
c-82 0 -172 24 -223 62l-16 94h12c60 -54 146 -80 220 -80c95 0 179 38 179 137z" />
    <glyph glyph-name="four.ss01" unicode="&#x1e04;" horiz-adv-x="701" 
d="M631 194h-106v-194h-103v194h-368v39l383 461h88v-424h119zM415 572l-239 -292v-10h246v302h-7z" />
    <glyph glyph-name="five.ss01" unicode="&#x1e05;" horiz-adv-x="638" 
d="M459 216c0 98 -62 153 -167 153c-49 0 -97 -17 -133 -42l-63 9l51 358h377l-13 -89h-299l-29 -194c35 15 89 24 129 24c163 0 259 -85 259 -216c0 -156 -122 -231 -282 -231c-83 0 -162 24 -219 65l-12 84h12c56 -47 130 -77 214 -77c98 0 175 45 175 156z" />
    <glyph glyph-name="six.ss01" unicode="&#x1e06;" horiz-adv-x="685" 
d="M202 363c36 39 95 70 168 70c116 0 236 -65 236 -221c0 -139 -112 -224 -260 -224c-152 0 -266 84 -266 263c0 254 196 440 417 456l24 -43c-183 -36 -295 -174 -323 -301h4zM191 217c0 -101 60 -169 155 -169c93 0 149 65 149 162c0 103 -55 162 -142 162
s-163 -52 -162 -155z" />
    <glyph glyph-name="seven.ss01" unicode="&#x1e07;" horiz-adv-x="661" 
d="M132 0c112 183 246 409 358 606h-416l17 88h517v-28c-116 -202 -261 -472 -362 -666h-114z" />
    <glyph glyph-name="eight.ss01" unicode="&#x1e08;" horiz-adv-x="675" 
d="M548 548c0 -66 -42 -122 -125 -151v-3c120 -46 174 -96 174 -205c0 -135 -134 -201 -268 -201c-137 0 -251 64 -251 189c0 107 80 163 163 192v3c-84 38 -118 90 -118 162c0 112 113 172 216 172c105 0 209 -48 209 -158zM470 548c0 67 -55 105 -125 105
c-58 0 -123 -30 -123 -109c0 -56 40 -90 140 -124c74 28 108 67 108 128zM487 177c0 77 -64 124 -184 166c-82 -32 -133 -80 -133 -162c0 -91 73 -135 158 -135c91 0 159 42 159 131z" />
    <glyph glyph-name="nine.ss01" unicode="&#x1e09;" horiz-adv-x="653" 
d="M454 353c-31 -40 -82 -72 -153 -72c-110 0 -224 60 -224 208c0 137 109 218 249 218c146 0 254 -83 254 -264c0 -253 -199 -424 -390 -455l-41 45c170 44 288 184 310 320h-5zM466 486c0 103 -51 162 -140 162c-84 0 -140 -62 -140 -156c0 -98 48 -149 129 -149
c76 0 151 53 151 143z" />
    <glyph glyph-name="zero.subs" unicode="&#x2080;" horiz-adv-x="440" 
d="M220 290c100 0 175 -93 175 -231s-76 -227 -175 -227s-175 89 -175 227s76 231 175 231zM220 247c-59 0 -90 -74 -90 -188c0 -118 31 -183 90 -183s90 65 90 183c0 114 -31 188 -90 188z" />
    <glyph glyph-name="one.subs" unicode="&#x2081;" horiz-adv-x="315" 
d="M132 -160v380l-103 -43l4 45l138 60h43v-442h-82z" />
    <glyph glyph-name="two.subs" unicode="&#x2082;" horiz-adv-x="396" 
d="M29 -160v23l78 73c101 94 146 163 146 225c0 43 -24 82 -78 82c-31 0 -64 -9 -94 -38h-10l5 50c34 25 71 35 116 35c94 0 144 -52 144 -121c0 -73 -48 -132 -162 -232l-33 -29v-3h106c59 0 86 1 113 5h9l-26 -70h-314z" />
    <glyph glyph-name="three.subs" unicode="&#x2083;" horiz-adv-x="378" 
d="M248 -31c0 62 -41 89 -108 89h-15l3 41h15c61 0 88 31 88 76c0 43 -24 72 -76 72c-26 0 -57 -10 -83 -30h-10l6 46c34 21 69 27 102 27c80 0 141 -37 141 -111c0 -50 -25 -80 -67 -94v-4c42 -13 86 -45 86 -114c0 -88 -77 -135 -173 -135c-44 0 -87 10 -118 34l-9 57h10
c37 -32 76 -42 113 -42c61 0 95 33 95 88z" />
    <glyph glyph-name="four.subs" unicode="&#x2084;" horiz-adv-x="397" 
d="M299 11h78l-8 -52h-70v-119h-74v119h-212v23l227 300h59v-271zM225 12v184h-6l-130 -180v-4h136z" />
    <glyph glyph-name="five.subs" unicode="&#x2085;" horiz-adv-x="379" 
d="M258 -21c0 57 -32 94 -89 94c-26 0 -51 -6 -72 -20l-38 6l30 223h226l-10 -62h-165l-16 -113c12 6 39 11 62 11c93 0 152 -55 152 -138c0 -95 -77 -148 -173 -148c-50 0 -95 17 -122 36l-7 56h11c33 -29 72 -43 111 -43c64 0 100 37 100 98z" />
    <glyph glyph-name="six.subs" unicode="&#x2086;" horiz-adv-x="405" 
d="M208 -168c-102 0 -163 61 -163 162c0 155 114 268 238 296l33 -30c-81 -21 -165 -100 -185 -185h2c17 22 48 39 91 39c79 0 143 -52 143 -139c0 -81 -70 -143 -159 -143zM207 -127c48 0 76 41 76 99c0 64 -28 100 -72 100c-48 0 -82 -38 -82 -97c0 -63 31 -102 78 -102z
" />
    <glyph glyph-name="seven.subs" unicode="&#x2087;" horiz-adv-x="385" 
d="M64 -160c66 118 141 253 205 382h-230l10 60h306v-20c-61 -118 -143 -283 -209 -422h-82z" />
    <glyph glyph-name="eight.subs" unicode="&#x2088;" horiz-adv-x="417" 
d="M343 192c0 -41 -27 -76 -77 -101v-2c69 -35 106 -70 106 -133c0 -78 -75 -124 -168 -124c-95 0 -159 44 -159 120c0 51 36 96 101 125v2c-56 31 -76 61 -76 107c0 61 59 104 140 104c75 0 133 -34 133 -98zM279 193c0 37 -26 61 -65 61c-38 0 -63 -26 -63 -64
c0 -34 22 -54 70 -78c40 21 58 45 58 81zM286 -49c0 52 -37 77 -98 102c-45 -23 -69 -56 -69 -99c0 -51 34 -82 84 -82c49 0 83 31 83 79z" />
    <glyph glyph-name="nine.subs" unicode="&#x2089;" horiz-adv-x="400" 
d="M118 -168l-35 32c98 31 168 102 188 191h-2c-17 -20 -49 -37 -94 -37c-74 0 -137 45 -137 133c0 81 66 139 156 139c100 0 162 -63 162 -167c0 -141 -97 -259 -238 -291zM192 62c48 0 80 35 80 90c0 59 -32 97 -77 97c-48 0 -73 -39 -73 -97c0 -55 27 -90 70 -90z" />
    <glyph glyph-name="zero.dnom" horiz-adv-x="440" 
d="M220 450c100 0 175 -93 175 -231s-76 -227 -175 -227s-175 89 -175 227s76 231 175 231zM220 407c-59 0 -90 -74 -90 -188c0 -118 31 -183 90 -183s90 65 90 183c0 114 -31 188 -90 188z" />
    <glyph glyph-name="one.dnom" horiz-adv-x="315" 
d="M132 0v380l-103 -43l4 45l138 60h43v-442h-82z" />
    <glyph glyph-name="two.dnom" horiz-adv-x="396" 
d="M29 0v23l78 73c101 94 146 163 146 225c0 43 -24 82 -78 82c-31 0 -64 -9 -94 -38h-10l5 50c34 25 71 35 116 35c94 0 144 -52 144 -121c0 -73 -48 -132 -162 -232l-33 -29v-3h106c59 0 86 1 113 5h9l-26 -70h-314z" />
    <glyph glyph-name="three.dnom" horiz-adv-x="378" 
d="M248 129c0 62 -41 89 -108 89h-15l3 41h15c61 0 88 31 88 76c0 43 -24 72 -76 72c-26 0 -57 -10 -83 -30h-10l6 46c34 21 69 27 102 27c80 0 141 -37 141 -111c0 -50 -25 -80 -67 -94v-4c42 -13 86 -45 86 -114c0 -88 -77 -135 -173 -135c-44 0 -87 10 -118 34l-9 57h10
c37 -32 76 -42 113 -42c61 0 95 33 95 88z" />
    <glyph glyph-name="four.dnom" horiz-adv-x="397" 
d="M299 171h78l-8 -52h-70v-119h-74v119h-212v23l227 300h59v-271zM225 172v184h-6l-130 -180v-4h136z" />
    <glyph glyph-name="five.dnom" horiz-adv-x="379" 
d="M258 139c0 57 -32 94 -89 94c-26 0 -51 -6 -72 -20l-38 6l30 223h226l-10 -62h-165l-16 -113c12 6 39 11 62 11c93 0 152 -55 152 -138c0 -95 -77 -148 -173 -148c-50 0 -95 17 -122 36l-7 56h11c33 -29 72 -43 111 -43c64 0 100 37 100 98z" />
    <glyph glyph-name="six.dnom" horiz-adv-x="405" 
d="M208 -8c-102 0 -163 61 -163 162c0 155 114 268 238 296l33 -30c-81 -21 -165 -100 -185 -185h2c17 22 48 39 91 39c79 0 143 -52 143 -139c0 -81 -70 -143 -159 -143zM207 33c48 0 76 41 76 99c0 64 -28 100 -72 100c-48 0 -82 -38 -82 -97c0 -63 31 -102 78 -102z" />
    <glyph glyph-name="seven.dnom" horiz-adv-x="385" 
d="M64 0c66 118 141 253 205 382h-230l10 60h306v-20c-61 -118 -143 -283 -209 -422h-82z" />
    <glyph glyph-name="eight.dnom" horiz-adv-x="417" 
d="M343 352c0 -41 -27 -76 -77 -101v-2c69 -35 106 -70 106 -133c0 -78 -75 -124 -168 -124c-95 0 -159 44 -159 120c0 51 36 96 101 125v2c-56 31 -76 61 -76 107c0 61 59 104 140 104c75 0 133 -34 133 -98zM279 353c0 37 -26 61 -65 61c-38 0 -63 -26 -63 -64
c0 -34 22 -54 70 -78c40 21 58 45 58 81zM286 111c0 52 -37 77 -98 102c-45 -23 -69 -56 -69 -99c0 -51 34 -82 84 -82c49 0 83 31 83 79z" />
    <glyph glyph-name="nine.dnom" horiz-adv-x="400" 
d="M118 -8l-35 32c98 31 168 102 188 191h-2c-17 -20 -49 -37 -94 -37c-74 0 -137 45 -137 133c0 81 66 139 156 139c100 0 162 -63 162 -167c0 -141 -97 -259 -238 -291zM192 222c48 0 80 35 80 90c0 59 -32 97 -77 97c-48 0 -73 -39 -73 -97c0 -55 27 -90 70 -90z" />
    <glyph glyph-name="zero.numr" horiz-adv-x="440" 
d="M220 688c100 0 175 -93 175 -231s-76 -227 -175 -227s-175 89 -175 227s76 231 175 231zM220 645c-59 0 -90 -74 -90 -188c0 -118 31 -183 90 -183s90 65 90 183c0 114 -31 188 -90 188z" />
    <glyph glyph-name="one.numr" horiz-adv-x="315" 
d="M132 238v380l-103 -43l4 45l138 60h43v-442h-82z" />
    <glyph glyph-name="two.numr" horiz-adv-x="396" 
d="M29 238v23l78 73c101 94 146 163 146 225c0 43 -24 82 -78 82c-31 0 -64 -9 -94 -38h-10l5 50c34 25 71 35 116 35c94 0 144 -52 144 -121c0 -73 -48 -132 -162 -232l-33 -29v-3h106c59 0 86 1 113 5h9l-26 -70h-314z" />
    <glyph glyph-name="three.numr" horiz-adv-x="378" 
d="M248 367c0 62 -41 89 -108 89h-15l3 41h15c61 0 88 31 88 76c0 43 -24 72 -76 72c-26 0 -57 -10 -83 -30h-10l6 46c34 21 69 27 102 27c80 0 141 -37 141 -111c0 -50 -25 -80 -67 -94v-4c42 -13 86 -45 86 -114c0 -88 -77 -135 -173 -135c-44 0 -87 10 -118 34l-9 57h10
c37 -32 76 -42 113 -42c61 0 95 33 95 88z" />
    <glyph glyph-name="four.numr" horiz-adv-x="397" 
d="M299 409h78l-8 -52h-70v-119h-74v119h-212v23l227 300h59v-271zM225 410v184h-6l-130 -180v-4h136z" />
    <glyph glyph-name="five.numr" horiz-adv-x="379" 
d="M258 377c0 57 -32 94 -89 94c-26 0 -51 -6 -72 -20l-38 6l30 223h226l-10 -62h-165l-16 -113c12 6 39 11 62 11c93 0 152 -55 152 -138c0 -95 -77 -148 -173 -148c-50 0 -95 17 -122 36l-7 56h11c33 -29 72 -43 111 -43c64 0 100 37 100 98z" />
    <glyph glyph-name="six.numr" horiz-adv-x="405" 
d="M208 230c-102 0 -163 61 -163 162c0 155 114 268 238 296l33 -30c-81 -21 -165 -100 -185 -185h2c17 22 48 39 91 39c79 0 143 -52 143 -139c0 -81 -70 -143 -159 -143zM207 271c48 0 76 41 76 99c0 64 -28 100 -72 100c-48 0 -82 -38 -82 -97c0 -63 31 -102 78 -102z
" />
    <glyph glyph-name="seven.numr" horiz-adv-x="385" 
d="M64 238c66 118 141 253 205 382h-230l10 60h306v-20c-61 -118 -143 -283 -209 -422h-82z" />
    <glyph glyph-name="eight.numr" horiz-adv-x="417" 
d="M343 590c0 -41 -27 -76 -77 -101v-2c69 -35 106 -70 106 -133c0 -78 -75 -124 -168 -124c-95 0 -159 44 -159 120c0 51 36 96 101 125v2c-56 31 -76 61 -76 107c0 61 59 104 140 104c75 0 133 -34 133 -98zM279 591c0 37 -26 61 -65 61c-38 0 -63 -26 -63 -64
c0 -34 22 -54 70 -78c40 21 58 45 58 81zM286 349c0 52 -37 77 -98 102c-45 -23 -69 -56 -69 -99c0 -51 34 -82 84 -82c49 0 83 31 83 79z" />
    <glyph glyph-name="nine.numr" horiz-adv-x="400" 
d="M118 230l-35 32c98 31 168 102 188 191h-2c-17 -20 -49 -37 -94 -37c-74 0 -137 45 -137 133c0 81 66 139 156 139c100 0 162 -63 162 -167c0 -141 -97 -259 -238 -291zM192 460c48 0 80 35 80 90c0 59 -32 97 -77 97c-48 0 -73 -39 -73 -97c0 -55 27 -90 70 -90z" />
    <glyph glyph-name="zero.sups" unicode="&#x2070;" horiz-adv-x="440" 
d="M220 880c100 0 175 -93 175 -231s-76 -227 -175 -227s-175 89 -175 227s76 231 175 231zM220 837c-59 0 -90 -74 -90 -188c0 -118 31 -183 90 -183s90 65 90 183c0 114 -31 188 -90 188z" />
    <glyph glyph-name="one.sups" unicode="&#xb9;" horiz-adv-x="315" 
d="M132 430v380l-103 -43l4 45l138 60h43v-442h-82z" />
    <glyph glyph-name="two.sups" unicode="&#xb2;" horiz-adv-x="396" 
d="M29 430v23l78 73c101 94 146 163 146 225c0 43 -24 82 -78 82c-31 0 -64 -9 -94 -38h-10l5 50c34 25 71 35 116 35c94 0 144 -52 144 -121c0 -73 -48 -132 -162 -232l-33 -29v-3h106c59 0 86 1 113 5h9l-26 -70h-314z" />
    <glyph glyph-name="three.sups" unicode="&#xb3;" horiz-adv-x="378" 
d="M248 559c0 62 -41 89 -108 89h-15l3 41h15c61 0 88 31 88 76c0 43 -24 72 -76 72c-26 0 -57 -10 -83 -30h-10l6 46c34 21 69 27 102 27c80 0 141 -37 141 -111c0 -50 -25 -80 -67 -94v-4c42 -13 86 -45 86 -114c0 -88 -77 -135 -173 -135c-44 0 -87 10 -118 34l-9 57h10
c37 -32 76 -42 113 -42c61 0 95 33 95 88z" />
    <glyph glyph-name="four.sups" unicode="&#x2074;" horiz-adv-x="397" 
d="M299 601h78l-8 -52h-70v-119h-74v119h-212v23l227 300h59v-271zM225 602v184h-6l-130 -180v-4h136z" />
    <glyph glyph-name="five.sups" unicode="&#x2075;" horiz-adv-x="379" 
d="M258 569c0 57 -32 94 -89 94c-26 0 -51 -6 -72 -20l-38 6l30 223h226l-10 -62h-165l-16 -113c12 6 39 11 62 11c93 0 152 -55 152 -138c0 -95 -77 -148 -173 -148c-50 0 -95 17 -122 36l-7 56h11c33 -29 72 -43 111 -43c64 0 100 37 100 98z" />
    <glyph glyph-name="six.sups" unicode="&#x2076;" horiz-adv-x="405" 
d="M208 422c-102 0 -163 61 -163 162c0 155 114 268 238 296l33 -30c-81 -21 -165 -100 -185 -185h2c17 22 48 39 91 39c79 0 143 -52 143 -139c0 -81 -70 -143 -159 -143zM207 463c48 0 76 41 76 99c0 64 -28 100 -72 100c-48 0 -82 -38 -82 -97c0 -63 31 -102 78 -102z
" />
    <glyph glyph-name="seven.sups" unicode="&#x2077;" horiz-adv-x="385" 
d="M64 430c66 118 141 253 205 382h-230l10 60h306v-20c-61 -118 -143 -283 -209 -422h-82z" />
    <glyph glyph-name="eight.sups" unicode="&#x2078;" horiz-adv-x="417" 
d="M343 782c0 -41 -27 -76 -77 -101v-2c69 -35 106 -70 106 -133c0 -78 -75 -124 -168 -124c-95 0 -159 44 -159 120c0 51 36 96 101 125v2c-56 31 -76 61 -76 107c0 61 59 104 140 104c75 0 133 -34 133 -98zM279 783c0 37 -26 61 -65 61c-38 0 -63 -26 -63 -64
c0 -34 22 -54 70 -78c40 21 58 45 58 81zM286 541c0 52 -37 77 -98 102c-45 -23 -69 -56 -69 -99c0 -51 34 -82 84 -82c49 0 83 31 83 79z" />
    <glyph glyph-name="nine.sups" unicode="&#x2079;" horiz-adv-x="400" 
d="M118 422l-35 32c98 31 168 102 188 191h-2c-17 -20 -49 -37 -94 -37c-74 0 -137 45 -137 133c0 81 66 139 156 139c100 0 162 -63 162 -167c0 -141 -97 -259 -238 -291zM192 652c48 0 80 35 80 90c0 59 -32 97 -77 97c-48 0 -73 -39 -73 -97c0 -55 27 -90 70 -90z" />
    <glyph glyph-name="fraction" unicode="&#x2044;" horiz-adv-x="152" 
d="M249 699l43 -22l-390 -699l-42 22z" />
    <glyph glyph-name="onehalf" unicode="&#xbd;" horiz-adv-x="863" 
d="M564 699l43 -22l-390 -699l-42 22zM132 238v380l-103 -43l4 45l138 60h43v-442h-82zM496 0v23l78 73c101 94 146 163 146 225c0 43 -24 82 -78 82c-31 0 -64 -9 -94 -38h-10l5 50c34 25 71 35 116 35c94 0 144 -52 144 -121c0 -73 -48 -132 -162 -232l-33 -29v-3h106
c59 0 86 1 113 5h9l-26 -70h-314z" />
    <glyph glyph-name="onequarter" unicode="&#xbc;" horiz-adv-x="830" 
d="M564 699l43 -22l-390 -699l-42 22zM132 238v380l-103 -43l4 45l138 60h43v-442h-82zM732 171h78l-8 -52h-70v-119h-74v119h-212v23l227 300h59v-271zM658 172v184h-6l-130 -180v-4h136z" />
    <glyph glyph-name="threequarters" unicode="&#xbe;" horiz-adv-x="893" 
d="M627 699l43 -22l-390 -699l-42 22zM248 367c0 62 -41 89 -108 89h-15l3 41h15c61 0 88 31 88 76c0 43 -24 72 -76 72c-26 0 -57 -10 -83 -30h-10l6 46c34 21 69 27 102 27c80 0 141 -37 141 -111c0 -50 -25 -80 -67 -94v-4c42 -13 86 -45 86 -114
c0 -88 -77 -135 -173 -135c-44 0 -87 10 -118 34l-9 57h10c37 -32 76 -42 113 -42c61 0 95 33 95 88zM795 171h78l-8 -52h-70v-119h-74v119h-212v23l227 300h59v-271zM721 172v184h-6l-130 -180v-4h136z" />
    <glyph glyph-name="oneeighth" unicode="&#x215b;" horiz-adv-x="884" 
d="M564 699l43 -22l-390 -699l-42 22zM132 238v380l-103 -43l4 45l138 60h43v-442h-82zM810 352c0 -41 -27 -76 -77 -101v-2c69 -35 106 -70 106 -133c0 -78 -75 -124 -168 -124c-95 0 -159 44 -159 120c0 51 36 96 101 125v2c-56 31 -76 61 -76 107c0 61 59 104 140 104
c75 0 133 -34 133 -98zM746 353c0 37 -26 61 -65 61c-38 0 -63 -26 -63 -64c0 -34 22 -54 70 -78c40 21 58 45 58 81zM753 111c0 52 -37 77 -98 102c-45 -23 -69 -56 -69 -99c0 -51 34 -82 84 -82c49 0 83 31 83 79z" />
    <glyph glyph-name="threeeighths" unicode="&#x215c;" horiz-adv-x="947" 
d="M627 699l43 -22l-390 -699l-42 22zM248 367c0 62 -41 89 -108 89h-15l3 41h15c61 0 88 31 88 76c0 43 -24 72 -76 72c-26 0 -57 -10 -83 -30h-10l6 46c34 21 69 27 102 27c80 0 141 -37 141 -111c0 -50 -25 -80 -67 -94v-4c42 -13 86 -45 86 -114
c0 -88 -77 -135 -173 -135c-44 0 -87 10 -118 34l-9 57h10c37 -32 76 -42 113 -42c61 0 95 33 95 88zM873 352c0 -41 -27 -76 -77 -101v-2c69 -35 106 -70 106 -133c0 -78 -75 -124 -168 -124c-95 0 -159 44 -159 120c0 51 36 96 101 125v2c-56 31 -76 61 -76 107
c0 61 59 104 140 104c75 0 133 -34 133 -98zM809 353c0 37 -26 61 -65 61c-38 0 -63 -26 -63 -64c0 -34 22 -54 70 -78c40 21 58 45 58 81zM816 111c0 52 -37 77 -98 102c-45 -23 -69 -56 -69 -99c0 -51 34 -82 84 -82c49 0 83 31 83 79z" />
    <glyph glyph-name="fiveeighths" unicode="&#x215d;" horiz-adv-x="958" 
d="M638 699l43 -22l-390 -699l-42 22zM258 377c0 57 -32 94 -89 94c-26 0 -51 -6 -72 -20l-38 6l30 223h226l-10 -62h-165l-16 -113c12 6 39 11 62 11c93 0 152 -55 152 -138c0 -95 -77 -148 -173 -148c-50 0 -95 17 -122 36l-7 56h11c33 -29 72 -43 111 -43
c64 0 100 37 100 98zM884 352c0 -41 -27 -76 -77 -101v-2c69 -35 106 -70 106 -133c0 -78 -75 -124 -168 -124c-95 0 -159 44 -159 120c0 51 36 96 101 125v2c-56 31 -76 61 -76 107c0 61 59 104 140 104c75 0 133 -34 133 -98zM820 353c0 37 -26 61 -65 61
c-38 0 -63 -26 -63 -64c0 -34 22 -54 70 -78c40 21 58 45 58 81zM827 111c0 52 -37 77 -98 102c-45 -23 -69 -56 -69 -99c0 -51 34 -82 84 -82c49 0 83 31 83 79z" />
    <glyph glyph-name="seveneighths" unicode="&#x215e;" horiz-adv-x="874" 
d="M554 699l43 -22l-390 -699l-42 22zM64 238c66 118 141 253 205 382h-230l10 60h306v-20c-61 -118 -143 -283 -209 -422h-82zM800 352c0 -41 -27 -76 -77 -101v-2c69 -35 106 -70 106 -133c0 -78 -75 -124 -168 -124c-95 0 -159 44 -159 120c0 51 36 96 101 125v2
c-56 31 -76 61 -76 107c0 61 59 104 140 104c75 0 133 -34 133 -98zM736 353c0 37 -26 61 -65 61c-38 0 -63 -26 -63 -64c0 -34 22 -54 70 -78c40 21 58 45 58 81zM743 111c0 52 -37 77 -98 102c-45 -23 -69 -56 -69 -99c0 -51 34 -82 84 -82c49 0 83 31 83 79z" />
    <glyph glyph-name="period" unicode="." horiz-adv-x="307" 
d="M215 120v-120h-123v120h123z" />
    <glyph glyph-name="comma" unicode="," horiz-adv-x="307" 
d="M222 122c-8 -51 -58 -196 -94 -264h-57c26 86 45 215 48 264h103z" />
    <glyph glyph-name="colon" unicode=":" horiz-adv-x="351" 
d="M236 477v-118h-121v118h121zM236 117v-117h-121v117h121z" />
    <glyph glyph-name="semicolon" unicode=";" horiz-adv-x="351" 
d="M236 477v-119h-121v119h121zM231 122c-8 -51 -57 -196 -92 -264h-61c26 86 46 215 50 264h103z" />
    <glyph glyph-name="ellipsis" unicode="&#x2026;" horiz-adv-x="920" 
d="M215 120v-120h-123v120h123zM521 120v-120h-123v120h123zM828 120v-120h-123v120h123z" />
    <glyph glyph-name="exclam" unicode="!" horiz-adv-x="357" 
d="M236 680l-29 -456h-57l-29 456h115zM234 117v-117h-111v117h111z" />
    <glyph glyph-name="exclamdown" unicode="&#xa1;" horiz-adv-x="357" 
d="M123 359v118h111v-118h-111zM121 -203l29 456h57l29 -456h-115z" />
    <glyph glyph-name="question" unicode="?" horiz-adv-x="485" 
d="M185 224v22c0 64 39 99 77 135c37 35 77 72 77 136c0 70 -41 110 -109 110c-45 0 -94 -16 -139 -55h-11l9 74c47 31 102 45 157 45c121 0 203 -65 203 -168c0 -97 -68 -141 -130 -181c-38 -25 -68 -48 -68 -107v-11h-66zM280 116v-117h-112v117h112z" />
    <glyph glyph-name="questiondown" unicode="&#xbf;" horiz-adv-x="485" 
d="M205 359v118h112v-118h-112zM300 252v-22c0 -64 -39 -99 -77 -135c-37 -35 -77 -72 -77 -137c0 -70 41 -110 109 -110c45 0 94 16 139 56h11l-9 -74c-47 -32 -102 -45 -157 -45c-121 0 -203 64 -203 167c0 97 68 142 130 182c38 24 68 48 68 107v11h66z" />
    <glyph glyph-name="periodcentered" unicode="&#xb7;" horiz-adv-x="306" 
d="M215 340v-120h-123v120h123z" />
    <glyph glyph-name="bullet" unicode="&#x2022;" 
d="M136 328c0 91 73 165 164 165s165 -74 165 -165s-74 -164 -165 -164s-164 73 -164 164z" />
    <glyph glyph-name="asterisk" unicode="*" horiz-adv-x="364" 
d="M283 721l26 -47l-87 -41l87 -43l-26 -47l-81 56l8 -100h-56l9 101l-83 -57l-25 47l87 43l-87 41l26 46l81 -56l-8 101h56l-9 -101z" />
    <glyph glyph-name="numbersign" unicode="#" horiz-adv-x="500" 
d="M80 0l34 184h-82l22 68h71l38 199h-83l22 67h71l30 162h49l-30 -162h110l29 162h50l-29 -162h81l-22 -67h-71l-37 -199h82l-22 -68h-72l-32 -184h-50l34 184h-110l-34 -184h-49zM175 252h109l36 199h-109z" />
    <glyph glyph-name="slash" unicode="/" horiz-adv-x="603" 
d="M77 -192l-3 5l400 908l6 3h47l3 -5l-402 -908l-5 -3h-46z" />
    <glyph glyph-name="backslash" unicode="\" 
d="M77 722h46l5 -3l402 -908l-3 -5h-47l-6 3l-400 908z" />
    <glyph glyph-name="colon.ss01" unicode="&#x1e0a;" horiz-adv-x="351" 
d="M236 583v-117h-121v117h121zM236 223v-117h-121v117h121z" />
    <glyph glyph-name="parenleft" unicode="(" horiz-adv-x="347" 
d="M145 281c0 -187 45 -354 132 -443h-60c-81 78 -162 231 -162 443c0 208 81 362 162 439h60c-87 -89 -132 -254 -132 -439z" />
    <glyph glyph-name="parenright" unicode=")" horiz-adv-x="347" 
d="M193 278c0 187 -45 353 -132 442h60c81 -78 163 -230 163 -442c0 -208 -82 -363 -163 -440h-60c87 89 132 255 132 440z" />
    <glyph glyph-name="braceleft" unicode="{" horiz-adv-x="360" 
d="M296 680h-18c-46 0 -65 -24 -65 -98v-158c0 -69 -27 -116 -89 -144v-2c60 -25 89 -72 89 -143v-156c0 -64 13 -101 64 -101h19v-40h-50c-53 0 -119 36 -119 119v156c0 98 -23 141 -81 141v50c59 0 81 44 81 140v160c0 60 52 116 120 116h49v-40z" />
    <glyph glyph-name="braceright" unicode="}" horiz-adv-x="360" 
d="M64 -122h18c46 0 65 24 65 98v158c0 69 27 116 89 144v2c-60 25 -89 72 -89 143v156c0 64 -13 101 -64 101h-19v40h50c53 0 119 -36 119 -119v-156c0 -98 23 -141 81 -141v-50c-59 0 -81 -44 -81 -140v-160c0 -60 -52 -116 -120 -116h-49v40z" />
    <glyph glyph-name="bracketleft" unicode="[" horiz-adv-x="360" 
d="M291 720v-45h-115v-792h115v-45h-200v882h200z" />
    <glyph glyph-name="bracketright" unicode="]" horiz-adv-x="360" 
d="M69 -162v45h115v792h-115v45h200v-882h-200z" />
    <glyph glyph-name="hyphen" unicode="-" horiz-adv-x="397" 
d="M345 301l-5 -64h-288l5 64h288z" />
    <glyph glyph-name="uni00AD" unicode="&#xad;" horiz-adv-x="397" 
d="M345 301l-5 -64h-288l5 64h288z" />
    <glyph glyph-name="endash" unicode="&#x2013;" horiz-adv-x="500" 
d="M494 300v-61h-488v61h488z" />
    <glyph glyph-name="emdash" unicode="&#x2014;" horiz-adv-x="918" 
d="M818 300v-61h-718v61h718z" />
    <glyph glyph-name="uni2011" unicode="&#x2011;" horiz-adv-x="397" 
d="M345 301l-5 -64h-288l5 64h288z" />
    <glyph glyph-name="underscore" unicode="_" horiz-adv-x="500" 
d="M0 -145v54h500v-54h-500z" />
    <glyph glyph-name="hyphen.ss01" unicode="&#x1e0b;" horiz-adv-x="397" 
d="M345 390l-5 -64h-288l5 64h288z" />
    <glyph glyph-name="uni00AD.ss01" horiz-adv-x="397" 
d="M345 390l-5 -64h-288l5 64h288z" />
    <glyph glyph-name="endash.ss01" horiz-adv-x="500" 
d="M494 388v-61h-488v61h488z" />
    <glyph glyph-name="emdash.ss01" horiz-adv-x="918" 
d="M818 388v-61h-718v61h718z" />
    <glyph glyph-name="uni2011.ss01" horiz-adv-x="397" 
d="M345 390l-5 -64h-288l5 64h288z" />
    <glyph glyph-name="quotesinglbase" unicode="&#x201a;" horiz-adv-x="251" 
d="M199 125c-7 -48 -67 -195 -90 -241h-57c23 65 45 194 49 241h98z" />
    <glyph glyph-name="quotedblbase" unicode="&#x201e;" horiz-adv-x="415" 
d="M199 125c-7 -49 -67 -195 -90 -241h-57c23 64 45 193 49 241h98zM363 125c-7 -49 -66 -195 -89 -241h-57c23 64 45 193 48 241h98z" />
    <glyph glyph-name="quotedblleft" unicode="&#x201c;" horiz-adv-x="415" 
d="M52 439c7 49 67 195 90 241h57c-23 -64 -45 -193 -49 -241h-98zM217 439c7 49 66 195 89 241h57c-23 -64 -45 -193 -49 -241h-97z" />
    <glyph glyph-name="quotedblright" unicode="&#x201d;" horiz-adv-x="415" 
d="M199 680c-7 -49 -67 -195 -90 -241h-57c23 64 45 193 49 241h98zM363 680c-7 -49 -66 -195 -89 -241h-57c23 64 45 193 48 241h98z" />
    <glyph glyph-name="quoteleft" unicode="&#x2018;" horiz-adv-x="251" 
d="M52 439c7 49 67 195 90 241h57c-23 -64 -45 -193 -49 -241h-98z" />
    <glyph glyph-name="quoteright" unicode="&#x2019;" horiz-adv-x="251" 
d="M199 680c-7 -48 -67 -195 -90 -241h-57c23 65 45 194 49 241h98z" />
    <glyph glyph-name="guillemotleft" unicode="&#xab;" horiz-adv-x="420" 
d="M207 434v-60l-88 -99l88 -99v-60l-161 126v66zM364 434v-60l-88 -99l88 -99v-60l-159 126v66z" />
    <glyph glyph-name="guillemotright" unicode="&#xbb;" horiz-adv-x="420" 
d="M56 116v60l88 99l-88 99v60l159 -126v-66zM213 116v60l88 99l-88 99v60l161 -126v-66z" />
    <glyph glyph-name="guilsinglleft" unicode="&#x2039;" horiz-adv-x="263" 
d="M207 434v-60l-88 -99l88 -99v-60l-161 126v66z" />
    <glyph glyph-name="guilsinglright" unicode="&#x203a;" horiz-adv-x="263" 
d="M56 116v60l88 99l-88 99v60l161 -126v-66z" />
    <glyph glyph-name="quotedbl" unicode="&#x22;" horiz-adv-x="545" 
d="M236 710l-29 -256h-57l-29 256h115zM424 710l-29 -256h-57l-29 256h115z" />
    <glyph glyph-name="quotesingle" unicode="'" horiz-adv-x="357" 
d="M236 710l-29 -256h-57l-29 256h115z" />
    <glyph glyph-name="guillemotleft.ss01" unicode="&#x1e0c;" horiz-adv-x="420" 
d="M207 514v-60l-88 -99l88 -99v-60l-161 126v66zM364 514v-60l-88 -99l88 -99v-60l-159 126v66z" />
    <glyph glyph-name="guillemotright.ss01" unicode="&#x1e0d;" horiz-adv-x="420" 
d="M56 196v60l88 99l-88 99v60l159 -126v-66zM213 196v60l88 99l-88 99v60l161 -126v-66z" />
    <glyph glyph-name="guilsinglleft.ss01" unicode="&#x1e0e;" horiz-adv-x="263" 
d="M207 514v-60l-88 -99l88 -99v-60l-161 126v66z" />
    <glyph glyph-name="guilsinglright.ss01" unicode="&#x1e0f;" horiz-adv-x="263" 
d="M56 196v60l88 99l-88 99v60l161 -126v-66z" />
    <glyph glyph-name="uni00A0" unicode="&#xa0;" horiz-adv-x="258" 
 />
    <glyph glyph-name="uniFEFF" unicode="&#xfeff;" horiz-adv-x="0" 
 />
    <glyph glyph-name="cent" unicode="&#xa2;" 
d="M509 96l-16 -65c-22 -20 -60 -35 -107 -39v-112h-52v111c-130 8 -225 91 -225 245c0 144 93 240 225 250v104h52v-104c45 -4 78 -17 100 -31l11 -63h-12c-25 25 -63 39 -99 42v-389c47 3 87 23 111 51h12zM213 242c0 -102 49 -173 121 -192v381
c-75 -17 -121 -87 -121 -189z" />
    <glyph glyph-name="currency" unicode="&#xa4;" 
d="M97 597l55 -56c36 33 92 54 148 54c53 0 104 -17 146 -53l54 55l42 -42l-53 -55c35 -43 52 -97 52 -153c0 -58 -18 -112 -52 -154l52 -54l-41 -42l-53 56c-39 -35 -90 -54 -147 -54c-53 0 -105 17 -148 54l-55 -56l-41 42l55 57c-35 43 -51 95 -51 151
c0 58 17 111 50 152l-54 56zM300 167c96 0 166 81 166 180c0 98 -69 179 -166 179c-89 0 -165 -74 -165 -179c0 -101 72 -180 165 -180z" />
    <glyph glyph-name="dollar" unicode="$" horiz-adv-x="530" 
d="M472 182c0 -101 -75 -157 -166 -171v-111h-52v107c-81 1 -150 37 -189 76l-14 94h12c50 -63 120 -106 191 -109v246l-17 11c-94 61 -142 101 -142 188c0 99 80 147 159 158v98h52v-95c54 -3 94 -17 119 -33l9 -76h-12c-31 36 -72 52 -116 55v-224
c109 -67 166 -113 166 -214zM185 533c0 -41 20 -69 69 -104v187c-39 -10 -69 -36 -69 -83zM306 73c46 12 72 44 72 95c0 49 -24 76 -72 111v-206z" />
    <glyph glyph-name="Euro" unicode="&#x20ac;" horiz-adv-x="704" 
d="M631 115h10l-21 -83c-38 -24 -97 -44 -169 -44c-162 0 -312 91 -345 274h-85l9 47h71c-1 9 -1 19 -1 29c0 18 1 35 3 51h-71l9 47h70c43 173 197 256 337 256c72 0 131 -14 167 -37l8 -78h-11c-42 38 -98 54 -160 54c-107 0 -194 -72 -225 -195h285l-9 -47h-284
c-2 -17 -3 -34 -3 -52c0 -10 0 -19 1 -28h284l-9 -47h-269c25 -135 120 -209 235 -209c64 0 125 20 173 62z" />
    <glyph glyph-name="florin" unicode="&#x192;" horiz-adv-x="595" 
d="M543 681l6 -61h-10c-15 10 -32 16 -51 16c-53 0 -81 -28 -101 -123l-27 -130h93l-5 -51h-99l-73 -345c-33 -157 -91 -220 -201 -220c-25 0 -48 3 -67 11l-5 61h10c14 -10 32 -16 50 -16c54 0 82 28 102 123l81 386h-81v51h91l19 89c33 157 92 220 201 220
c26 0 49 -3 67 -11z" />
    <glyph glyph-name="uni20BA" unicode="&#x20ba;" horiz-adv-x="630" 
d="M476 322h105c-7 -200 -114 -322 -330 -322h-118v274l-90 -37v52l90 37v78l-90 -37v52l90 37v224h105v-180l211 87v-51l-211 -88v-79l211 87v-50l-211 -88v-258h9c159 0 222 102 229 262z" />
    <glyph glyph-name="uni20BC" unicode="&#x20bc;" horiz-adv-x="797" 
d="M451 554c165 -26 270 -177 270 -443c0 -41 -1 -77 -3 -111h-111c3 34 4 70 4 111c0 206 -39 350 -160 381v-412h-106v412c-120 -31 -159 -175 -159 -381c0 -41 1 -77 4 -111h-111c-2 34 -4 70 -4 111c0 265 106 417 270 443v126h106v-126z" />
    <glyph glyph-name="uni20B9" unicode="&#x20b9;" horiz-adv-x="572" 
d="M317 633c33 -26 53 -63 57 -117h141l-9 -48h-133c-12 -76 -73 -132 -158 -152v-4c74 -94 187 -227 275 -307v-5h-144c-62 68 -161 201 -236 303h-47v47h71c74 7 124 50 136 118h-207v48h208c-6 89 -65 117 -152 117h-56v47h459l-9 -47h-196z" />
    <glyph glyph-name="sterling" unicode="&#xa3;" horiz-adv-x="579" 
d="M43 26c72 50 132 135 132 232c0 28 -3 57 -12 84h-99v52h88c-11 35 -17 65 -17 101c0 101 81 197 223 197c49 0 85 -7 118 -21l12 -65h-11c-31 20 -66 28 -106 28c-92 0 -129 -60 -129 -142c0 -32 7 -65 14 -98h174v-52h-165c4 -22 7 -44 7 -67c0 -63 -34 -129 -108 -184
v-4c197 0 311 1 366 9h6l-36 -96h-457v26z" />
    <glyph glyph-name="yen" unicode="&#xa5;" 
d="M583 680l-198 -305h150v-47h-177v-74h177v-47h-177v-207h-101v207h-179v47h179v74h-179v47h150l-210 305h124l185 -286h6l174 286h76z" />
    <glyph glyph-name="uni2219" unicode="&#x2219;" horiz-adv-x="306" 
d="M215 340v-120h-123v120h123z" />
    <glyph glyph-name="uni2215" unicode="&#x2215;" horiz-adv-x="152" 
d="M249 699l43 -22l-390 -699l-42 22z" />
    <glyph glyph-name="plus" unicode="+" 
d="M334 503v-219h211v-65h-211v-219h-65v219h-211v65h211v219h65z" />
    <glyph glyph-name="minus" unicode="&#x2212;" 
d="M545 284v-65h-487v65h487z" />
    <glyph glyph-name="multiply" unicode="&#xd7;" 
d="M124 480l177 -183l177 183l44 -46l-176 -183l176 -182l-44 -46l-177 182l-177 -182l-45 46l176 182l-175 183z" />
    <glyph glyph-name="divide" unicode="&#xf7;" 
d="M362 454c0 -31 -29 -61 -60 -61c-33 0 -62 27 -62 61c0 35 28 63 61 63s61 -28 61 -63zM545 284v-65h-487v65h487zM362 49c0 -32 -30 -62 -60 -62c-34 0 -62 29 -62 62c0 35 29 62 61 62c33 0 61 -28 61 -62z" />
    <glyph glyph-name="equal" unicode="=" 
d="M545 386v-65h-487v65h487zM545 185v-65h-487v65h487z" />
    <glyph glyph-name="notequal" unicode="&#x2260;" 
d="M476 503l-64 -118h133v-64h-171l-74 -137h245v-64h-281l-83 -151l-55 29l67 122h-135v64h173l73 137h-246v64h282l81 147z" />
    <glyph glyph-name="greater" unicode="&#x3e;" 
d="M55 514l492 -227v-68l-492 -227v68l412 193l-412 193v68z" />
    <glyph glyph-name="less" unicode="&#x3c;" 
d="M547 446l-413 -193l413 -193v-68l-492 227v68l492 227v-68z" />
    <glyph glyph-name="greaterequal" unicode="&#x2265;" 
d="M58 525l487 -182v-66l-487 -183v67l408 148l-408 149v67zM545 65v-65h-487v65h487z" />
    <glyph glyph-name="lessequal" unicode="&#x2264;" 
d="M545 458l-409 -148l409 -149v-67l-488 183v66l488 182v-67zM545 65v-65h-488v65h488z" />
    <glyph glyph-name="plusminus" unicode="&#xb1;" 
d="M334 504v-170h211v-64h-211v-170h-65v170h-211v64h211v170h65zM545 65v-65h-487v65h487z" />
    <glyph glyph-name="approxequal" unicode="&#x2248;" 
d="M307 383c57 -23 90 -34 121 -34c36 0 63 26 71 72h57c-9 -82 -54 -136 -131 -136c-36 0 -72 12 -131 35c-55 22 -89 34 -120 34c-37 0 -63 -26 -71 -72h-58c11 85 57 136 131 136c33 0 68 -10 131 -35zM310 181c65 -26 94 -33 118 -33c35 0 62 24 71 72h57
c-11 -90 -60 -136 -131 -136c-31 0 -66 9 -135 37c-67 28 -95 33 -117 33c-34 0 -62 -25 -70 -72h-58c10 80 54 135 131 135c33 0 69 -10 134 -36z" />
    <glyph glyph-name="asciitilde" unicode="~" 
d="M525 273c-39 -60 -73 -86 -121 -86c-27 0 -54 7 -103 32c-48 23 -77 34 -108 34c-34 0 -60 -22 -81 -70l-36 48c28 58 70 86 121 86c37 0 78 -16 121 -36c45 -21 67 -29 86 -29c31 0 54 19 85 69z" />
    <glyph glyph-name="logicalnot" unicode="&#xac;" 
d="M543 384v-276h-63v211h-425v65h488z" />
    <glyph glyph-name="asciicircum" unicode="^" 
d="M266 693h69l210 -439h-69l-176 366l-173 -366h-71z" />
    <glyph glyph-name="infinity" unicode="&#x221e;" horiz-adv-x="776" 
d="M725 258c0 -94 -57 -166 -151 -166c-55 0 -113 28 -185 110c-66 -66 -116 -109 -184 -109c-100 0 -154 76 -154 162c0 95 59 165 150 165c60 0 111 -29 188 -116c57 65 111 117 184 117c94 0 152 -72 152 -163zM576 170c48 0 76 37 76 85c0 49 -27 88 -79 88
c-41 0 -82 -31 -137 -89c61 -65 101 -84 140 -84zM203 170c40 0 87 29 138 84c-55 56 -101 88 -140 88c-48 0 -76 -41 -76 -87c0 -50 29 -85 78 -85z" />
    <glyph glyph-name="integral" unicode="&#x222b;" 
d="M440 724c0 -27 -20 -44 -45 -44c-20 0 -31 15 -40 31c-9 17 -13 22 -19 22c-18 0 -28 -26 -28 -79c0 -30 3 -83 3 -113v-528c0 -144 -36 -226 -132 -226c-40 0 -79 22 -79 60c0 24 21 40 42 40c14 0 27 -6 38 -32c8 -15 12 -19 18 -19c19 0 26 44 26 93c0 11 -3 52 -3 74
v580c0 71 13 127 37 159c22 27 52 44 95 44c44 0 87 -21 87 -62z" />
    <glyph glyph-name="uni2126" unicode="&#x2126;" horiz-adv-x="806" 
d="M745 363c0 -124 -57 -216 -169 -289v-4h179v-70h-264v69c113 80 140 160 140 292c0 146 -84 272 -227 272c-144 0 -229 -117 -229 -272c0 -125 23 -210 142 -292v-69h-266v70h175v4c-107 68 -165 160 -165 289c0 188 149 328 343 328c197 0 341 -153 341 -328z" />
    <glyph glyph-name="uni2206" unicode="&#x2206;" horiz-adv-x="684" 
d="M28 0v42l281 628l75 11l271 -644v-37h-627zM108 59h428l-208 503h-5z" />
    <glyph glyph-name="product" unicode="&#x220f;" horiz-adv-x="724" 
d="M650 786v-1000h-88v916h-400v-916h-89v1000h577z" />
    <glyph glyph-name="summation" unicode="&#x2211;" 
d="M569 786v-84h-413l283 -411l-301 -421h443v-84h-554v74l306 430l-293 422v74h529z" />
    <glyph glyph-name="radical" unicode="&#x221a;" 
d="M524 786l-207 -1000h-83l-154 327l-47 -22l-32 69l122 58l139 -304l174 872h88z" />
    <glyph glyph-name="partialdiff" unicode="&#x2202;" 
d="M229 721c184 0 249 -179 249 -361c0 -222 -69 -372 -230 -372c-125 0 -204 102 -204 226c0 123 79 216 198 216c57 0 107 -24 151 -70v26c0 122 -40 264 -160 264c-38 0 -72 -15 -112 -48l-48 56c50 45 101 63 156 63zM248 56c97 0 131 102 141 226
c-42 54 -87 79 -136 79c-78 0 -125 -68 -125 -151c0 -75 40 -154 120 -154z" />
    <glyph glyph-name="uni00B5" unicode="&#xb5;" 
d="M193 477v-298c0 -64 16 -120 81 -120c86 0 134 81 134 178v240h96v-477h-90l-6 102h-3c-24 -57 -55 -112 -130 -112c-34 0 -66 17 -79 37h-4v-177h-96v627h97z" />
    <glyph glyph-name="percent" unicode="%" horiz-adv-x="777" 
d="M559 699l44 -20l-390 -699l-43 20zM198 691c77 0 140 -66 140 -178c0 -109 -65 -173 -140 -173c-77 0 -143 64 -143 173c0 112 65 178 143 178zM198 652c-49 0 -71 -58 -71 -139c0 -80 22 -133 71 -133c47 0 68 53 68 133c0 81 -21 139 -68 139zM583 346
c77 0 140 -66 140 -178c0 -109 -65 -173 -140 -173c-77 0 -143 64 -143 173c0 112 65 178 143 178zM583 307c-49 0 -71 -58 -71 -139c0 -80 22 -133 71 -133c47 0 68 53 68 133c0 81 -21 139 -68 139z" />
    <glyph glyph-name="perthousand" unicode="&#x2030;" horiz-adv-x="1127" 
d="M559 699l44 -20l-390 -699l-43 20zM198 691c77 0 140 -66 140 -178c0 -109 -65 -173 -140 -173c-77 0 -143 64 -143 173c0 112 65 178 143 178zM198 652c-49 0 -71 -58 -71 -139c0 -80 22 -133 71 -133c47 0 68 53 68 133c0 81 -21 139 -68 139zM583 346
c77 0 140 -66 140 -178c0 -109 -65 -173 -140 -173c-77 0 -143 64 -143 173c0 112 65 178 143 178zM937 346c76 0 139 -66 139 -178c0 -109 -65 -173 -139 -173c-78 0 -144 64 -144 173c0 112 65 178 144 178zM583 307c-49 0 -71 -58 -71 -139c0 -80 22 -133 71 -133
c47 0 68 53 68 133c0 81 -21 139 -68 139zM937 307c-49 0 -71 -58 -71 -139c0 -80 22 -133 71 -133c46 0 68 53 68 133c0 81 -22 139 -68 139z" />
    <glyph glyph-name="lozenge" unicode="&#x25ca;" 
d="M337 747l170 -391l-170 -391h-80l-170 391l170 391h80zM174 356l123 -304l124 304l-124 303z" />
    <glyph glyph-name="at" unicode="@" horiz-adv-x="939" 
d="M852 355c0 -137 -74 -294 -242 -294c-58 0 -82 36 -82 79c-20 -34 -61 -79 -117 -79c-88 0 -119 72 -119 144c0 123 58 301 215 301c34 0 67 -11 90 -28h66l-59 -292c-4 -16 -5 -33 -5 -44c0 -20 9 -33 28 -33c99 0 167 108 167 246c0 170 -117 280 -288 280
c-229 0 -345 -182 -345 -387c0 -193 134 -318 335 -318c87 0 161 21 198 40v-51c-45 -21 -128 -39 -205 -39c-239 0 -406 154 -406 369c0 210 134 431 424 431c182 0 345 -118 345 -325zM572 443c-14 16 -36 20 -57 20c-92 0 -131 -148 -131 -247c0 -47 11 -101 53 -101
c43 0 85 66 89 87z" />
    <glyph glyph-name="ampersand" unicode="&#x26;" horiz-adv-x="755" 
d="M585 0c-37 33 -59 52 -93 85c-51 -65 -126 -97 -215 -97c-109 0 -224 57 -224 188c0 94 59 158 164 202c-52 54 -70 104 -70 155c0 104 86 155 173 155c96 0 162 -53 162 -136c0 -72 -55 -126 -154 -172c53 -60 116 -125 172 -178c12 26 27 107 28 164h71
c-5 -58 -28 -147 -55 -201c53 -51 129 -115 190 -160v-5h-149zM399 549c0 59 -33 95 -79 95c-50 0 -83 -38 -83 -99c0 -43 23 -88 63 -131c78 37 99 78 99 135zM243 342c-63 -35 -92 -85 -92 -155c0 -81 60 -141 138 -141s132 30 165 75c-75 73 -148 149 -211 221z" />
    <glyph glyph-name="paragraph" unicode="&#xb6;" 
d="M516 -168h-70v802h-113v-802h-71v493c-117 0 -203 76 -203 181c0 120 78 186 218 186h239v-860z" />
    <glyph glyph-name="section" unicode="&#xa7;" 
d="M515 266c0 -68 -44 -115 -114 -142c43 -33 66 -70 66 -124c0 -104 -88 -156 -185 -156c-73 0 -138 30 -179 67l-15 90h13c49 -64 116 -98 180 -98c50 0 89 30 89 88c0 57 -44 83 -131 128c-89 46 -138 84 -138 163c0 75 54 120 117 142c-41 29 -68 64 -68 123
c0 98 85 152 182 152c52 0 98 -11 123 -29l7 -70h-11c-28 32 -72 48 -116 48c-46 0 -94 -24 -94 -82c0 -57 44 -81 116 -118c116 -61 158 -101 158 -182zM360 152c42 21 62 51 62 96c0 59 -47 86 -133 133c-9 5 -19 10 -27 15c-37 -12 -72 -41 -72 -91
c0 -46 22 -74 102 -116c25 -13 48 -25 68 -37z" />
    <glyph glyph-name="copyright" unicode="&#xa9;" horiz-adv-x="797" 
d="M759 346c0 -200 -153 -361 -360 -361c-205 0 -361 159 -361 361c0 204 158 360 361 360c201 0 360 -156 360 -360zM399 36c174 0 304 138 304 310c0 174 -134 309 -305 309c-175 0 -304 -137 -304 -309c0 -168 124 -310 305 -310zM539 467c-25 22 -66 32 -103 32
c-76 0 -140 -54 -140 -153c0 -98 66 -148 143 -148c46 0 82 13 108 35h9l-13 -59c-25 -17 -70 -29 -113 -29c-124 0 -226 67 -226 201c0 136 110 204 222 204c39 0 86 -10 115 -25l7 -58h-9z" />
    <glyph glyph-name="registered" unicode="&#xae;" horiz-adv-x="527" 
d="M477 464c0 -119 -91 -214 -213 -214s-214 93 -214 214s93 213 214 213c119 0 213 -92 213 -213zM264 280c103 0 180 82 180 184c0 103 -78 183 -181 183c-104 0 -180 -81 -180 -183s75 -184 181 -184zM261 587c52 0 94 -14 94 -61c0 -37 -15 -58 -57 -69l86 -117h-55
l-76 110h-20v-110h-44v247h72zM247 476c22 0 61 0 61 43c0 28 -20 43 -47 43h-28v-86h14z" />
    <glyph glyph-name="uni2117" unicode="&#x2117;" horiz-adv-x="797" 
d="M759 346c0 -200 -153 -361 -360 -361c-205 0 -361 159 -361 361c0 204 158 360 361 360c201 0 360 -156 360 -360zM399 36c174 0 304 138 304 310c0 174 -134 309 -305 309c-175 0 -304 -137 -304 -309c0 -168 124 -310 305 -310zM420 542c95 0 147 -39 147 -118
c0 -76 -59 -119 -150 -119h-54v-152h-81v389h138zM403 348c58 0 83 24 83 76s-25 74 -83 74h-40v-150h40z" />
    <glyph glyph-name="trademark" unicode="&#x2122;" horiz-adv-x="651" 
d="M31 643v37h194v-37h-69v-235h-59v235h-66zM430 505h3l77 175h67l30 -272h-60l-21 206h-4l-85 -189h-30l-86 189h-4l-17 -206h-47l29 272h68z" />
    <glyph glyph-name="degree" unicode="&#xb0;" horiz-adv-x="414" 
d="M352 561c0 -79 -63 -145 -145 -145c-79 0 -145 62 -145 145c0 82 66 145 145 145c81 0 145 -66 145 -145zM207 460c57 0 100 46 100 101s-43 102 -101 102c-54 0 -99 -45 -99 -102s44 -101 100 -101z" />
    <glyph glyph-name="bar" unicode="|" horiz-adv-x="235" 
d="M150 -214h-64v1000h64v-1000z" />
    <glyph glyph-name="brokenbar" unicode="&#xa6;" horiz-adv-x="235" 
d="M86 661h64v-250h-64v250zM86 161h64v-250h-64v250z" />
    <glyph glyph-name="uni2113" unicode="&#x2113;" horiz-adv-x="500" 
d="M412 589c0 -96 -56 -193 -172 -309v-153c0 -58 23 -85 66 -85c27 0 68 15 96 41l13 -40c-41 -38 -89 -57 -138 -57c-93 0 -135 49 -135 131v86l-57 -58l-32 46l89 84v268c0 111 62 178 148 178c70 0 122 -49 122 -132zM240 351c72 81 104 158 104 240c0 50 -16 81 -48 81
c-40 0 -56 -40 -56 -104v-217z" />
    <glyph glyph-name="dagger" unicode="&#x2020;" horiz-adv-x="560" 
d="M319 691v-208h190v-67h-190v-566h-79v566h-189v67h189v208h79z" />
    <glyph glyph-name="daggerdbl" unicode="&#x2021;" horiz-adv-x="560" 
d="M319 691v-191h190v-67h-190v-326h190v-66h-190v-191h-79v191h-189v66h189v326h-189v67h189v191h79z" />
    <glyph glyph-name="estimated" unicode="&#x212e;" horiz-adv-x="904" 
d="M452 -9c-255 0 -402 165 -402 353c0 191 150 370 402 370c308 0 402 -200 402 -372h-652c-4 0 -5 0 -5 -6v-184c0 -11 1 -23 7 -30c54 -66 140 -105 247 -105c114 0 191 50 261 113h70c-78 -94 -164 -139 -330 -139zM202 363h498c4 0 7 2 7 7v189c0 8 -7 19 -12 26
c-68 84 -177 105 -247 105c-80 0 -170 -31 -242 -103c-6 -7 -9 -19 -9 -28v-189c0 -5 1 -7 5 -7z" />
    <glyph glyph-name="uni02C9" unicode="&#x2c9;" horiz-adv-x="215" 
d="M266 670v-53h-317v53h317z" />
    <glyph glyph-name="uni0308" unicode="&#x308;" horiz-adv-x="0" 
d="M-148 692v-96h-92v96h92zM26 692v-96h-93v96h93z" />
    <glyph glyph-name="uni0307" unicode="&#x307;" horiz-adv-x="0" 
d="M-56 694v-102h-102v102h102z" />
    <glyph glyph-name="gravecomb" unicode="&#x300;" horiz-adv-x="0" 
d="M-145 712l100 -141h-54l-147 141h101z" />
    <glyph glyph-name="acutecomb" unicode="&#x301;" horiz-adv-x="0" 
d="M32 712l-147 -141h-54l100 141h101z" />
    <glyph glyph-name="uni030B" unicode="&#x30b;" horiz-adv-x="0" 
d="M-50 712l-139 -141h-53l96 141h96zM114 712l-139 -141h-54l96 141h97z" />
    <glyph glyph-name="caroncomb.alt" horiz-adv-x="0" 
d="M-48 719c-12 -77 -41 -153 -63 -192h-45c11 52 21 125 21 192h87z" />
    <glyph glyph-name="uni0302" unicode="&#x302;" horiz-adv-x="0" 
d="M-65 712l110 -141h-55l-98 88l-96 -88h-52l110 141h81z" />
    <glyph glyph-name="uni030C" unicode="&#x30c;" horiz-adv-x="0" 
d="M-148 571l-110 141h55l98 -87l96 87h52l-110 -141h-81z" />
    <glyph glyph-name="uni0306" unicode="&#x306;" horiz-adv-x="0" 
d="M-205 706c6 -49 46 -76 97 -76c54 0 92 27 101 76h45c-9 -81 -61 -132 -147 -132c-87 0 -138 52 -143 132h47z" />
    <glyph glyph-name="uni030A" unicode="&#x30a;" horiz-adv-x="0" 
d="M-107 545c-65 0 -111 50 -111 108c0 60 48 108 111 108c62 0 110 -47 110 -108c0 -60 -47 -108 -110 -108zM-107 581c42 0 67 33 67 72c0 36 -23 72 -68 72c-40 0 -66 -31 -66 -72c0 -38 24 -72 67 -72z" />
    <glyph glyph-name="tildecomb" unicode="&#x303;" horiz-adv-x="0" 
d="M-98 676c20 -11 44 -24 63 -24c24 0 39 11 47 44h40c-10 -65 -42 -104 -89 -104c-25 0 -48 7 -74 21c-22 13 -44 24 -66 24c-23 0 -41 -11 -48 -45h-41c5 54 38 106 91 106c22 0 45 -5 77 -22z" />
    <glyph glyph-name="uni0304" unicode="&#x304;" horiz-adv-x="0" 
d="M51 670v-53h-317v53h317z" />
    <glyph glyph-name="uni0312" unicode="&#x312;" horiz-adv-x="0" 
d="M-162 589c6 42 34 103 58 141h46c-14 -53 -19 -98 -21 -141h-83z" />
    <glyph glyph-name="uni0313" unicode="&#x313;" horiz-adv-x="0" 
d="M-48 719c-12 -77 -41 -153 -63 -192h-45c11 52 21 125 21 192h87z" />
    <glyph glyph-name="uni0326" unicode="&#x326;" horiz-adv-x="0" 
d="M-47 -70c-6 -41 -34 -107 -58 -146h-47c15 53 20 104 21 146h84z" />
    <glyph glyph-name="uni0327" unicode="&#x327;" horiz-adv-x="0" 
d="M-172 -218l-15 33l4 3c58 0 100 16 100 50c0 31 -31 43 -70 50l-1 6l41 76h37l-21 -46l11 -3c33 -9 72 -29 72 -74c0 -71 -83 -95 -158 -95z" />
    <glyph glyph-name="uni0328" unicode="&#x328;" horiz-adv-x="0" 
d="M-7 0c-73 -44 -101 -76 -101 -105c0 -24 15 -37 44 -37c19 0 40 6 56 13h7l-14 -37c-20 -11 -46 -18 -75 -18c-46 0 -89 19 -89 69c0 39 35 79 114 115h58z" />
    <glyph glyph-name="acute" unicode="&#xb4;" horiz-adv-x="215" 
d="M247 712l-147 -141h-54l100 141h101z" />
    <glyph glyph-name="breve" unicode="&#x2d8;" horiz-adv-x="215" 
d="M10 706c6 -49 46 -76 97 -76c54 0 92 27 101 76h45c-9 -81 -61 -132 -147 -132c-87 0 -138 52 -143 132h47z" />
    <glyph glyph-name="caron" unicode="&#x2c7;" horiz-adv-x="215" 
d="M67 571l-110 141h55l98 -87l96 87h52l-110 -141h-81z" />
    <glyph glyph-name="cedilla" unicode="&#xb8;" horiz-adv-x="215" 
d="M43 -218l-15 33l4 3c58 0 100 16 100 50c0 31 -31 43 -70 50l-1 6l41 76h37l-21 -46l11 -3c33 -9 72 -29 72 -74c0 -71 -82 -95 -158 -95z" />
    <glyph glyph-name="circumflex" unicode="&#x2c6;" horiz-adv-x="215" 
d="M150 712l110 -141h-55l-98 88l-96 -88h-52l110 141h81z" />
    <glyph glyph-name="dieresis" unicode="&#xa8;" horiz-adv-x="215" 
d="M67 692v-96h-92v96h92zM241 692v-96h-93v96h93z" />
    <glyph glyph-name="dotaccent" unicode="&#x2d9;" horiz-adv-x="215" 
d="M159 694v-102h-102v102h102z" />
    <glyph glyph-name="grave" unicode="`" horiz-adv-x="215" 
d="M70 712l100 -141h-54l-147 141h101z" />
    <glyph glyph-name="hungarumlaut" unicode="&#x2dd;" horiz-adv-x="215" 
d="M165 712l-139 -141h-53l96 141h96zM329 712l-139 -141h-54l96 141h97z" />
    <glyph glyph-name="macron" unicode="&#xaf;" horiz-adv-x="215" 
d="M266 670v-53h-317v53h317z" />
    <glyph glyph-name="ogonek" unicode="&#x2db;" horiz-adv-x="215" 
d="M208 0c-73 -44 -101 -76 -101 -105c0 -24 15 -37 44 -37c19 0 40 6 56 13h7l-14 -37c-20 -11 -46 -18 -75 -18c-46 0 -89 19 -89 69c0 39 35 79 114 115h58z" />
    <glyph glyph-name="ring" unicode="&#x2da;" horiz-adv-x="215" 
d="M108 545c-65 0 -111 50 -111 108c0 60 48 108 111 108c62 0 110 -47 110 -108c0 -60 -47 -108 -110 -108zM108 581c42 0 67 33 67 72c0 36 -23 72 -68 72c-40 0 -66 -31 -66 -72c0 -38 24 -72 67 -72z" />
    <glyph glyph-name="tilde" unicode="&#x2dc;" horiz-adv-x="215" 
d="M117 676c20 -11 44 -24 63 -24c24 0 39 11 47 44h40c-10 -65 -42 -104 -89 -104c-25 0 -48 7 -74 21c-22 13 -44 24 -66 24c-23 0 -41 -11 -48 -45h-41c5 54 38 106 91 106c22 0 45 -5 77 -22z" />
    <glyph glyph-name="uni0308.case" horiz-adv-x="0" 
d="M-148 872v-96h-92v96h92zM26 872v-96h-93v96h93z" />
    <glyph glyph-name="uni0307.case" horiz-adv-x="0" 
d="M-56 873v-101h-102v101h102z" />
    <glyph glyph-name="gravecomb.case" horiz-adv-x="0" 
d="M-254 885h105l106 -129h-55z" />
    <glyph glyph-name="acutecomb.case" horiz-adv-x="0" 
d="M40 885l-156 -129h-55l106 129h105z" />
    <glyph glyph-name="uni030B.case" horiz-adv-x="0" 
d="M-47 885l-143 -129h-53l98 129h98zM117 885l-143 -129h-53l98 129h98z" />
    <glyph glyph-name="uni0302.case" horiz-adv-x="0" 
d="M-67 885l110 -129h-56l-96 76l-96 -76h-54l110 129h82z" />
    <glyph glyph-name="uni030C.case" horiz-adv-x="0" 
d="M-148 756l-111 129h57l97 -76l96 76h53l-111 -129h-81z" />
    <glyph glyph-name="uni0306.case" horiz-adv-x="0" 
d="M-205 883c6 -46 46 -73 97 -73c54 0 91 27 101 73h45c-10 -78 -61 -129 -147 -129c-87 0 -137 52 -143 129h47z" />
    <glyph glyph-name="uni030A.case" horiz-adv-x="0" 
d="M-107 726c-64 0 -111 49 -111 107c0 59 48 106 111 106c62 0 110 -46 110 -106s-48 -107 -110 -107zM-107 762c42 0 67 32 67 71c0 35 -23 70 -68 70c-40 0 -66 -30 -66 -70c0 -38 24 -71 67 -71z" />
    <glyph glyph-name="tildecomb.case" horiz-adv-x="0" 
d="M-99 856c21 -11 45 -24 63 -24c25 0 39 10 48 43h40c-11 -65 -42 -104 -89 -104c-26 0 -49 8 -74 22c-23 12 -45 24 -66 24c-23 0 -41 -11 -48 -46h-42c6 55 38 107 91 107c23 0 46 -5 77 -22z" />
    <glyph glyph-name="uni0304.case" horiz-adv-x="0" 
d="M51 850v-53h-317v53h317z" />
    </font>
</defs>
</svg>
