<?xml version="1.0" standalone="no"?>
<!DOCTYPE svg PUBLIC "-//W3C//DTD SVG 1.1//EN" "http://www.w3.org/Graphics/SVG/1.1/DTD/svg11.dtd" >
<svg xmlns="http://www.w3.org/2000/svg" xmlns:xlink="http://www.w3.org/1999/xlink" version="1.1">
<metadata>
Created by FontForge 20170910 at Wed Jun 27 12:51:35 2018
 By Jimmy Wärting
Copyright (c) 2018 Mazda Motor Corp.
</metadata>
<defs>
<font id="MazdaType-MediumItalic" horiz-adv-x="600" >
  <font-face 
    font-family="Mazda Type"
    font-weight="500"
    font-style="italic"
    font-stretch="normal"
    units-per-em="1000"
    panose-1="1 0 0 0 0 0 0 0 0 0"
    ascent="800"
    descent="-200"
    x-height="477"
    cap-height="680"
    bbox="-262 -239 1077 939"
    underline-thickness="50"
    underline-position="-100"
    slope="-10"
    stemh="61"
    stemv="95"
    unicode-range="U+000D-FEFF"
  />
<missing-glyph horiz-adv-x="572" 
d="M50 0h472v680h-472v-680zM148 618h276l-138 -228zM116 109v462l140 -231zM316 340l140 231v-462zM148 62l138 228l138 -228h-276z" />
    <glyph glyph-name="f_f" unicode="ff" horiz-adv-x="579" 
d="M649 730c24 0 45 -3 64 -12l-5 -61h-10c-17 12 -31 15 -54 15c-76 0 -103 -60 -122 -182l-2 -13h96l-15 -52h-90l-77 -425h-96l77 425h-192l-76 -425h-96l76 425h-71l9 52h72l5 32c24 124 91 221 220 221c23 0 45 -3 63 -12l-5 -61h-9c-17 12 -31 15 -55 15
c-75 0 -102 -60 -121 -182l-2 -13h191l6 32c21 124 91 221 219 221z" />
    <glyph glyph-name="f_f_i" unicode="ffi" horiz-adv-x="826" 
d="M523 494l-3 -17h96l-15 -52h-90l-77 -425h-96l77 425h-192l-76 -425h-96l76 425h-71l9 52h72l5 32c24 124 91 221 220 221c23 0 45 -3 63 -12l-5 -61h-9c-17 12 -31 15 -55 15c-75 0 -102 -60 -121 -182l-2 -13h191l6 31c23 128 89 222 204 222c20 0 42 -3 60 -11l-8 -62
h-10c-14 12 -27 15 -43 15c-55 0 -88 -41 -110 -178zM739 701h102l-17 -98h-102zM620 0l84 477h95l-84 -477h-95z" />
    <glyph glyph-name="f_f_l" unicode="ffl" horiz-adv-x="826" 
d="M523 494l-3 -17h96l-15 -52h-90l-77 -425h-96l77 425h-192l-76 -425h-96l76 425h-71l9 52h72l5 32c24 124 91 221 220 221c23 0 45 -3 63 -12l-5 -61h-9c-17 12 -31 15 -55 15c-75 0 -102 -60 -121 -182l-2 -13h191l6 31c23 128 89 222 204 222c20 0 42 -3 60 -11l-8 -62
h-10c-14 12 -27 15 -43 15c-55 0 -88 -41 -110 -178zM744 708l99 12l-129 -720h-94z" />
    <glyph glyph-name="fi" unicode="fi" horiz-adv-x="539" 
d="M51 0l76 425h-71l9 52h72l5 31c24 128 90 222 205 222c20 0 42 -3 59 -11l-7 -62h-10c-14 12 -27 15 -44 15c-55 0 -88 -41 -110 -178l-2 -17h95l-14 -52h-91l-76 -425h-96zM434 603l18 98h102l-18 -98h-102zM332 0l85 477h94l-83 -477h-96z" />
    <glyph glyph-name="fl" unicode="fl" horiz-adv-x="539" 
d="M51 0l76 425h-71l9 52h72l5 31c24 127 90 222 205 222c20 0 42 -3 59 -11l-7 -62h-10c-14 12 -27 15 -44 15c-55 0 -88 -41 -110 -178l-2 -17h95l-14 -52h-91l-76 -425h-96zM332 0l125 708l98 12l-128 -720h-95z" />
    <glyph glyph-name=".notdef" horiz-adv-x="572" 
d="M50 0h472v680h-472v-680zM148 618h276l-138 -228zM116 109v462l140 -231zM316 340l140 231v-462zM148 62l138 228l138 -228h-276z" />
    <glyph glyph-name=".null" horiz-adv-x="0" 
 />
    <glyph glyph-name=".null" horiz-adv-x="0" 
 />
    <glyph glyph-name="CR" unicode="&#xd;" horiz-adv-x="250" 
 />
    <glyph glyph-name="space" unicode=" " horiz-adv-x="250" 
 />
    <glyph glyph-name="A" unicode="A" horiz-adv-x="639" 
d="M486 0l-49 253h-247l-148 -253h-80l412 676l76 6l145 -682h-109zM376 564h-5l-148 -253h203z" />
    <glyph glyph-name="Aacute" unicode="&#xc1;" horiz-adv-x="639" 
d="M597 885l-181 -129h-59l127 129h113zM374 676l76 6l145 -682h-109l-49 253h-247l-148 -253h-80zM376 564h-5l-148 -253h203z" />
    <glyph glyph-name="Abreve" unicode="&#x102;" horiz-adv-x="639" 
d="M417 754c-88 0 -129 53 -121 129h48c-3 -45 30 -73 81 -73c53 0 93 26 111 73h48c-25 -85 -81 -129 -167 -129zM486 0l-49 253h-247l-148 -253h-80l412 676l76 6l145 -682h-109zM376 564h-5l-148 -253h203z" />
    <glyph glyph-name="Acircumflex" unicode="&#xc2;" horiz-adv-x="639" 
d="M436 831l-112 -75h-57l132 129h83l86 -129h-52zM486 0l-49 253h-247l-148 -253h-80l412 676l76 6l145 -682h-109zM376 564h-5l-148 -253h203z" />
    <glyph glyph-name="Adieresis" unicode="&#xc4;" horiz-adv-x="639" 
d="M398 871l-16 -95h-94l16 95h94zM571 871l-16 -95h-94l17 95h93zM486 0l-49 253h-247l-148 -253h-80l412 676l76 6l145 -682h-109zM376 564h-5l-148 -253h203z" />
    <glyph glyph-name="Agrave" unicode="&#xc0;" horiz-adv-x="639" 
d="M478 756h-54l-134 129h103zM486 0l-49 253h-247l-148 -253h-80l412 676l76 6l145 -682h-109zM376 564h-5l-148 -253h203z" />
    <glyph glyph-name="Amacron" unicode="&#x100;" horiz-adv-x="639" 
d="M592 850l-10 -53h-314l10 53h314zM486 0l-49 253h-247l-148 -253h-80l412 676l76 6l145 -682h-109zM376 564h-5l-148 -253h203z" />
    <glyph glyph-name="Aogonek" unicode="&#x104;" horiz-adv-x="639" 
d="M513 -142c20 0 38 7 55 14h7l-18 -40c-21 -10 -48 -16 -74 -16c-46 0 -80 20 -80 60c0 53 53 92 128 124h-45l-49 253h-247l-148 -253h-80l412 676l76 6l145 -682c-85 -47 -121 -82 -121 -110c0 -19 13 -32 39 -32zM376 564h-5l-148 -253h203z" />
    <glyph glyph-name="Aring" unicode="&#xc5;" horiz-adv-x="639" 
d="M419 728c-60 0 -98 39 -98 90c0 67 51 121 124 121c59 0 98 -38 98 -90c0 -67 -51 -121 -124 -121zM442 903c-43 0 -77 -36 -77 -83c0 -31 21 -57 57 -57c46 0 77 40 77 84c0 29 -19 56 -57 56zM486 0l-49 253h-247l-148 -253h-80l412 676l76 6l145 -682h-109zM376 564
h-5l-148 -253h203z" />
    <glyph glyph-name="Aringacute" unicode="&#x1fa;" horiz-adv-x="639" 
d="M527 748c0 -47 -27 -88 -69 -107l137 -641h-109l-49 253h-247l-148 -253h-80l391 641c-30 16 -48 45 -48 79c0 54 36 99 90 113l90 84h113l-134 -85c39 -12 63 -44 63 -84zM426 801c-43 0 -77 -34 -77 -78c0 -31 21 -57 57 -57c46 0 77 38 77 80c0 28 -19 55 -57 55z
M376 564h-5l-148 -253h203z" />
    <glyph glyph-name="Atilde" unicode="&#xc3;" horiz-adv-x="639" 
d="M366 819c-23 0 -39 -14 -54 -49h-42c20 64 55 107 104 107c24 0 43 -10 67 -25c22 -14 39 -24 53 -24c23 0 40 13 55 47h40c-19 -63 -53 -105 -102 -105c-24 0 -44 10 -67 24c-24 15 -39 25 -54 25zM486 0l-49 253h-247l-148 -253h-80l412 676l76 6l145 -682h-109z
M376 564h-5l-148 -253h203z" />
    <glyph glyph-name="AE" unicode="&#xc6;" horiz-adv-x="863" 
d="M862 620h-220l-43 -244h197l-9 -58h-197l-47 -258h121c69 0 109 0 148 8h6l-44 -68h-341l45 253h-234l-202 -253h-88l552 680h367zM488 311l54 308h-6l-246 -308h198z" />
    <glyph glyph-name="AEacute" unicode="&#x1fc;" horiz-adv-x="863" 
d="M851 885l-181 -129h-59l127 129h113zM862 620h-220l-43 -244h197l-9 -58h-197l-47 -258h121c69 0 109 0 148 8h6l-44 -68h-341l45 253h-234l-202 -253h-88l552 680h367zM488 311l54 308h-6l-246 -308h198z" />
    <glyph glyph-name="B" unicode="B" horiz-adv-x="563" 
d="M177 680h167c110 0 191 -49 189 -147c0 -88 -64 -146 -157 -165l-1 -5c81 -13 141 -63 141 -150c-2 -150 -133 -213 -284 -213h-175zM224 389h50c115 0 160 63 161 133c1 72 -43 102 -121 102h-47zM226 57c116 0 189 46 189 151c0 88 -67 130 -151 130h-48l-50 -281h60z
" />
    <glyph glyph-name="C" unicode="C" horiz-adv-x="681" 
d="M665 558c-38 49 -112 73 -183 73c-168 -1 -296 -148 -296 -343c0 -141 87 -233 231 -233c84 0 160 28 208 67h13l-32 -80c-51 -32 -118 -54 -203 -54c-204 0 -329 109 -329 295c0 245 190 409 408 409c69 0 143 -17 186 -50l12 -84h-15z" />
    <glyph glyph-name="Cacute" unicode="&#x106;" horiz-adv-x="681" 
d="M653 885l-181 -129h-59l127 129h113zM665 558c-38 49 -112 73 -183 73c-168 -1 -296 -148 -296 -343c0 -141 87 -233 231 -233c84 0 160 28 208 67h13l-32 -80c-51 -32 -118 -54 -203 -54c-204 0 -329 109 -329 295c0 245 190 409 408 409c69 0 143 -17 186 -50l12 -84
h-15z" />
    <glyph glyph-name="Ccaron" unicode="&#x10c;" horiz-adv-x="681" 
d="M433 756l-86 129h53l80 -75l112 75h56l-132 -129h-83zM665 558c-38 49 -112 73 -183 73c-168 -1 -296 -148 -296 -343c0 -141 87 -233 231 -233c84 0 160 28 208 67h13l-32 -80c-51 -32 -118 -54 -203 -54c-204 0 -329 109 -329 295c0 245 190 409 408 409
c69 0 143 -17 186 -50l12 -84h-15z" />
    <glyph glyph-name="Ccedilla" unicode="&#xc7;" horiz-adv-x="681" 
d="M668 642l12 -84h-15c-38 49 -112 73 -183 73c-168 -1 -296 -148 -296 -343c0 -141 87 -233 231 -233c84 0 160 28 208 67h13l-32 -80c-51 -32 -118 -54 -203 -54h-16l-22 -34l11 -3c33 -9 58 -30 58 -66c0 -71 -78 -104 -166 -104l-13 34l4 4c61 1 106 19 106 57
c0 26 -28 36 -63 42v6l46 67c-171 18 -274 123 -274 292c0 245 190 409 408 409c69 0 143 -17 186 -50z" />
    <glyph glyph-name="Ccircumflex" unicode="&#x108;" horiz-adv-x="681" 
d="M537 885l86 -129h-52l-80 75l-112 -75h-57l132 129h83zM665 558c-38 49 -112 73 -183 73c-168 -1 -296 -148 -296 -343c0 -141 87 -233 231 -233c84 0 160 28 208 67h13l-32 -80c-51 -32 -118 -54 -203 -54c-204 0 -329 109 -329 295c0 245 190 409 408 409
c69 0 143 -17 186 -50l12 -84h-15z" />
    <glyph glyph-name="Cdotaccent" unicode="&#x10a;" horiz-adv-x="681" 
d="M545 872l-17 -98h-102l17 98h102zM665 558c-38 49 -112 73 -183 73c-168 -1 -296 -148 -296 -343c0 -141 87 -233 231 -233c84 0 160 28 208 67h13l-32 -80c-51 -32 -118 -54 -203 -54c-204 0 -329 109 -329 295c0 245 190 409 408 409c69 0 143 -17 186 -50l12 -84h-15z
" />
    <glyph glyph-name="D" unicode="D" horiz-adv-x="757" 
d="M177 680h207c203 0 342 -97 341 -287c-3 -237 -180 -393 -447 -393h-221zM170 59h100c210 0 341 130 343 329c2 158 -98 233 -267 233h-77z" />
    <glyph glyph-name="Eth" unicode="&#xd0;" horiz-adv-x="757" 
d="M384 680c203 0 342 -97 341 -287c-3 -237 -180 -393 -447 -393h-221l56 319h-72l11 57h71l54 304h207zM613 388c2 158 -98 233 -267 233h-77l-43 -245h182l-11 -57h-181l-46 -260h100c210 0 341 130 343 329z" />
    <glyph glyph-name="Dcaron" unicode="&#x10e;" horiz-adv-x="757" 
d="M397 756l-86 129h53l80 -75l112 75h56l-132 -129h-83zM177 680h207c203 0 342 -97 341 -287c-3 -237 -180 -393 -447 -393h-221zM170 59h100c210 0 341 130 343 329c2 158 -98 233 -267 233h-77z" />
    <glyph glyph-name="Dcroat" unicode="&#x110;" horiz-adv-x="757" 
d="M384 680c203 0 342 -97 341 -287c-3 -237 -180 -393 -447 -393h-221l56 319h-72l11 57h71l54 304h207zM613 388c2 158 -98 233 -267 233h-77l-43 -245h182l-11 -57h-181l-46 -260h100c210 0 341 130 343 329z" />
    <glyph glyph-name="E" unicode="E" horiz-adv-x="488" 
d="M442 68l-43 -68h-342l120 680h321l-11 -60h-220l-43 -244h197l-9 -58h-197l-47 -258h121c69 0 109 0 147 8h6z" />
    <glyph glyph-name="Eacute" unicode="&#xc9;" horiz-adv-x="488" 
d="M530 885l-181 -129h-59l127 129h113zM442 68l-43 -68h-342l120 680h321l-11 -60h-220l-43 -244h197l-9 -58h-197l-47 -258h121c69 0 109 0 147 8h6z" />
    <glyph glyph-name="Ebreve" unicode="&#x114;" horiz-adv-x="488" 
d="M277 883c-3 -45 30 -73 81 -73c53 0 93 26 111 73h48c-25 -85 -81 -129 -167 -129c-88 0 -129 53 -121 129h48zM442 68l-43 -68h-342l120 680h321l-11 -60h-220l-43 -244h197l-9 -58h-197l-47 -258h121c69 0 109 0 147 8h6z" />
    <glyph glyph-name="Ecaron" unicode="&#x11a;" horiz-adv-x="488" 
d="M310 756l-86 129h53l80 -75l112 75h56l-132 -129h-83zM442 68l-43 -68h-342l120 680h321l-11 -60h-220l-43 -244h197l-9 -58h-197l-47 -258h121c69 0 109 0 147 8h6z" />
    <glyph glyph-name="Ecircumflex" unicode="&#xca;" horiz-adv-x="488" 
d="M414 885l86 -129h-52l-80 75l-112 -75h-57l132 129h83zM442 68l-43 -68h-342l120 680h321l-11 -60h-220l-43 -244h197l-9 -58h-197l-47 -258h121c69 0 109 0 147 8h6z" />
    <glyph glyph-name="Edieresis" unicode="&#xcb;" horiz-adv-x="488" 
d="M331 871l-16 -95h-94l16 95h94zM504 871l-16 -95h-94l17 95h93zM442 68l-43 -68h-342l120 680h321l-11 -60h-220l-43 -244h197l-9 -58h-197l-47 -258h121c69 0 109 0 147 8h6z" />
    <glyph glyph-name="Edotaccent" unicode="&#x116;" horiz-adv-x="488" 
d="M422 872l-17 -98h-102l17 98h102zM442 68l-43 -68h-342l120 680h321l-11 -60h-220l-43 -244h197l-9 -58h-197l-47 -258h121c69 0 109 0 147 8h6z" />
    <glyph glyph-name="Egrave" unicode="&#xc8;" horiz-adv-x="488" 
d="M222 885h103l85 -129h-54zM442 68l-43 -68h-342l120 680h321l-11 -60h-220l-43 -244h197l-9 -58h-197l-47 -258h121c69 0 109 0 147 8h6z" />
    <glyph glyph-name="Emacron" unicode="&#x112;" horiz-adv-x="488" 
d="M524 850l-10 -53h-314l10 53h314zM442 68l-43 -68h-342l120 680h321l-11 -60h-220l-43 -244h197l-9 -58h-197l-47 -258h121c69 0 109 0 147 8h6z" />
    <glyph glyph-name="Eogonek" unicode="&#x118;" horiz-adv-x="488" 
d="M286 -184c-45 0 -80 20 -80 60c0 54 55 92 131 124h-280l120 680h321l-11 -60h-220l-43 -244h197l-9 -58h-197l-47 -258h121c69 0 109 0 147 8h6l-43 -68c-86 -47 -122 -82 -122 -110c0 -19 14 -32 40 -32c19 0 38 7 55 14h7l-18 -40c-21 -10 -48 -16 -75 -16z" />
    <glyph glyph-name="F" unicode="F" horiz-adv-x="463" 
d="M177 680h341l-11 -62h-240l-44 -249h215l-10 -60h-215l-55 -309h-101z" />
    <glyph glyph-name="G" unicode="G" horiz-adv-x="723" 
d="M398 -12c-198 0 -328 110 -327 291c3 249 183 413 411 413c75 0 147 -18 185 -43l13 -83h-17c-37 40 -108 64 -181 64c-183 0 -296 -146 -299 -346c-1 -147 89 -234 231 -234c47 0 88 9 114 23l46 262h101l-52 -296c-58 -32 -134 -51 -225 -51z" />
    <glyph glyph-name="Gbreve" unicode="&#x11e;" horiz-adv-x="723" 
d="M395 883c-3 -45 30 -73 81 -73c53 0 93 26 111 73h48c-25 -85 -81 -129 -167 -129c-88 0 -129 53 -121 129h48zM398 -12c-198 0 -328 110 -327 291c3 249 183 413 411 413c75 0 147 -18 185 -43l13 -83h-17c-37 40 -108 64 -181 64c-183 0 -296 -146 -299 -346
c-1 -147 89 -234 231 -234c47 0 88 9 114 23l46 262h101l-52 -296c-58 -32 -134 -51 -225 -51z" />
    <glyph glyph-name="Gcircumflex" unicode="&#x11c;" horiz-adv-x="723" 
d="M533 885l86 -129h-52l-80 75l-112 -75h-57l132 129h83zM398 -12c-198 0 -328 110 -327 291c3 249 183 413 411 413c75 0 147 -18 185 -43l13 -83h-17c-37 40 -108 64 -181 64c-183 0 -296 -146 -299 -346c-1 -147 89 -234 231 -234c47 0 88 9 114 23l46 262h101l-52 -296
c-58 -32 -134 -51 -225 -51z" />
    <glyph glyph-name="uni0122" unicode="&#x122;" horiz-adv-x="723" 
d="M398 -12c-198 0 -328 110 -327 291c3 249 183 413 411 413c75 0 147 -18 185 -43l13 -83h-17c-37 40 -108 64 -181 64c-183 0 -296 -146 -299 -346c-1 -147 89 -234 231 -234c47 0 88 9 114 23l46 262h101l-52 -296c-58 -32 -134 -51 -225 -51zM411 -70
c-12 -42 -53 -107 -85 -146h-46c24 53 38 103 47 146h84z" />
    <glyph glyph-name="Gdotaccent" unicode="&#x120;" horiz-adv-x="723" 
d="M541 872l-17 -98h-102l17 98h102zM398 -12c-198 0 -328 110 -327 291c3 249 183 413 411 413c75 0 147 -18 185 -43l13 -83h-17c-37 40 -108 64 -181 64c-183 0 -296 -146 -299 -346c-1 -147 89 -234 231 -234c47 0 88 9 114 23l46 262h101l-52 -296
c-58 -32 -134 -51 -225 -51z" />
    <glyph glyph-name="H" unicode="H" horiz-adv-x="732" 
d="M177 680h101l-51 -290h342l50 290h101l-120 -680h-100l57 325h-342l-57 -325h-101z" />
    <glyph glyph-name="Hbar" unicode="&#x126;" horiz-adv-x="732" 
d="M770 570l-10 -59h-70l-90 -511h-100l57 325h-342l-57 -325h-101l90 511h-70l10 59h71l19 110h101l-19 -110h341l19 110h101l-19 -110h69zM569 390l21 121h-342l-21 -121h342z" />
    <glyph glyph-name="Hcircumflex" unicode="&#x124;" horiz-adv-x="732" 
d="M526 885l86 -129h-52l-80 75l-112 -75h-57l132 129h83zM177 680h101l-51 -290h342l50 290h101l-120 -680h-100l57 325h-342l-57 -325h-101z" />
    <glyph glyph-name="I" unicode="I" horiz-adv-x="291" 
d="M177 680h102l-120 -680h-102z" />
    <glyph glyph-name="IJ" unicode="&#x132;" horiz-adv-x="580" 
d="M177 680h102l-120 -680h-102zM472 680h102l-99 -559c-27 -171 -107 -236 -239 -273l-57 22v9c120 35 169 97 197 251z" />
    <glyph glyph-name="Iacute" unicode="&#xcd;" horiz-adv-x="291" 
d="M421 885l-181 -129h-59l127 129h113zM177 680h102l-120 -680h-102z" />
    <glyph glyph-name="Ibreve" unicode="&#x12c;" horiz-adv-x="291" 
d="M168 883c-3 -45 30 -73 81 -73c53 0 93 26 111 73h48c-25 -85 -81 -129 -167 -129c-88 0 -129 53 -121 129h48zM177 680h102l-120 -680h-102z" />
    <glyph glyph-name="Icircumflex" unicode="&#xce;" horiz-adv-x="291" 
d="M306 885l86 -129h-52l-80 75l-112 -75h-57l132 129h83zM177 680h102l-120 -680h-102z" />
    <glyph glyph-name="Idieresis" unicode="&#xcf;" horiz-adv-x="291" 
d="M222 871l-16 -95h-94l16 95h94zM395 871l-16 -95h-94l17 95h93zM177 680h102l-120 -680h-102z" />
    <glyph glyph-name="Idotaccent" unicode="&#x130;" horiz-adv-x="291" 
d="M313 872l-17 -98h-102l17 98h102zM177 680h102l-120 -680h-102z" />
    <glyph glyph-name="Igrave" unicode="&#xcc;" horiz-adv-x="291" 
d="M114 885h103l85 -129h-54zM177 680h102l-120 -680h-102z" />
    <glyph glyph-name="Imacron" unicode="&#x12a;" horiz-adv-x="291" 
d="M416 850l-10 -53h-314l10 53h314zM177 680h102l-120 -680h-102z" />
    <glyph glyph-name="Iogonek" unicode="&#x12e;" horiz-adv-x="291" 
d="M-15 -124c0 48 34 80 115 124h-43l120 680h102l-120 -680c-88 -59 -103 -88 -103 -110c0 -19 13 -32 39 -32c20 0 38 7 55 14h7l-18 -40c-21 -10 -48 -16 -74 -16c-46 0 -80 20 -80 60z" />
    <glyph glyph-name="Itilde" unicode="&#x128;" horiz-adv-x="291" 
d="M372 875c-15 -34 -32 -47 -55 -47c-14 0 -31 10 -53 24c-24 15 -43 25 -67 25c-49 0 -84 -43 -104 -107h42c15 35 31 49 54 49c15 0 30 -10 54 -25c23 -14 43 -24 67 -24c49 0 83 42 102 105h-40zM177 680h102l-120 -680h-102z" />
    <glyph glyph-name="J" unicode="J" horiz-adv-x="289" 
d="M181 680h102l-99 -559c-27 -171 -107 -236 -239 -273l-57 22v9c120 35 169 97 197 251z" />
    <glyph glyph-name="Jcircumflex" unicode="&#x134;" horiz-adv-x="289" 
d="M309 885l86 -129h-52l-80 75l-112 -75h-57l132 129h83zM181 680h102l-99 -559c-27 -171 -107 -236 -239 -273l-57 22v9c120 35 169 97 197 251z" />
    <glyph glyph-name="K" unicode="K" horiz-adv-x="612" 
d="M278 680l-120 -680h-101l120 680h101zM566 680h100l-338 -311c89 -150 179 -277 253 -364l-1 -5h-128c-58 78 -147 218 -222 350l1 7z" />
    <glyph glyph-name="uni0136" unicode="&#x136;" horiz-adv-x="612" 
d="M278 680l-120 -680h-101l120 680h101zM566 680h100l-338 -311c89 -150 179 -277 253 -364l-1 -5h-128c-58 78 -147 218 -222 350l1 7zM327 -70c-12 -42 -53 -107 -85 -146h-46c24 53 38 103 47 146h84z" />
    <glyph glyph-name="L" unicode="L" horiz-adv-x="438" 
d="M363 0h-306l120 680h102l-111 -620h88c65 0 104 1 141 8h6z" />
    <glyph glyph-name="Lacute" unicode="&#x139;" horiz-adv-x="438" 
d="M433 885l-181 -129h-59l127 129h113zM363 0h-306l120 680h102l-111 -620h88c65 0 104 1 141 8h6z" />
    <glyph glyph-name="Lcaron" unicode="&#x13d;" horiz-adv-x="438" 
d="M450 720c-24 -82 -65 -156 -95 -194h-47c21 53 45 126 57 194h85zM363 0h-306l120 680h102l-111 -620h88c65 0 104 1 141 8h6z" />
    <glyph glyph-name="uni013B" unicode="&#x13b;" horiz-adv-x="438" 
d="M363 0h-306l120 680h102l-111 -620h88c65 0 104 1 141 8h6zM244 -70c-12 -42 -53 -107 -85 -146h-46c24 53 38 103 47 146h84z" />
    <glyph glyph-name="Ldot" unicode="&#x13f;" horiz-adv-x="438" 
d="M363 0h-306l120 680h102l-111 -620h88c65 0 104 1 141 8h6zM447 396l-17 -98h-102l17 98h102z" />
    <glyph glyph-name="Lslash" unicode="&#x141;" horiz-adv-x="438" 
d="M397 68h6l-40 -68h-306l50 286l-81 -42l11 69l83 43l57 324h102l-50 -277l139 71l-10 -69l-141 -72l-49 -273h88c65 0 104 1 141 8z" />
    <glyph glyph-name="M" unicode="M" horiz-adv-x="921" 
d="M307 680l145 -499h3l316 499h102l-54 -680h-105l50 546h-4l-324 -502h-47l-145 494h-4l-138 -538h-75l184 680h96z" />
    <glyph glyph-name="N" unicode="N" horiz-adv-x="736" 
d="M557 168h4l87 512h74l-120 -681h-61l-314 539h-5l-91 -538h-74l120 680h84z" />
    <glyph glyph-name="Nacute" unicode="&#x143;" horiz-adv-x="736" 
d="M642 885l-181 -129h-59l127 129h113zM557 168h4l87 512h74l-120 -681h-61l-314 539h-5l-91 -538h-74l120 680h84z" />
    <glyph glyph-name="Ncaron" unicode="&#x147;" horiz-adv-x="736" 
d="M422 756l-86 129h53l80 -75l112 75h56l-132 -129h-83zM557 168h4l87 512h74l-120 -681h-61l-314 539h-5l-91 -538h-74l120 680h84z" />
    <glyph glyph-name="uni0145" unicode="&#x145;" horiz-adv-x="736" 
d="M557 168h4l87 512h74l-120 -681h-61l-314 539h-5l-91 -538h-74l120 680h84zM367 -70c-12 -42 -53 -107 -85 -146h-46c24 53 38 103 47 146h84z" />
    <glyph glyph-name="Eng" unicode="&#x14a;" horiz-adv-x="736" 
d="M365 -228l-43 17l1 6c117 44 175 108 205 226l-301 517h-5l-91 -538h-74l120 680h84l296 -512h4l87 512h74l-111 -632c-30 -171 -105 -239 -246 -276z" />
    <glyph glyph-name="Ntilde" unicode="&#xd1;" horiz-adv-x="736" 
d="M593 875c-15 -34 -32 -47 -55 -47c-14 0 -31 10 -53 24c-24 15 -43 25 -67 25c-49 0 -84 -43 -104 -107h42c15 35 31 49 54 49c15 0 30 -10 54 -25c23 -14 43 -24 67 -24c49 0 83 42 102 105h-40zM557 168h4l87 512h74l-120 -681h-61l-314 539h-5l-91 -538h-74l120 680
h84z" />
    <glyph glyph-name="O" unicode="O" horiz-adv-x="796" 
d="M480 692c157 0 287 -93 285 -282c-2 -239 -167 -422 -398 -422c-162 0 -291 94 -288 283c2 234 170 421 401 421zM376 48c177 0 276 179 278 356c1 136 -54 229 -183 229c-178 0 -278 -177 -280 -356c-2 -136 56 -229 185 -229z" />
    <glyph glyph-name="Oacute" unicode="&#xd3;" horiz-adv-x="796" 
d="M675 885l-181 -129h-59l127 129h113zM480 692c157 0 287 -93 285 -282c-2 -239 -167 -422 -398 -422c-162 0 -291 94 -288 283c2 234 170 421 401 421zM376 48c177 0 276 179 278 356c1 136 -54 229 -183 229c-178 0 -278 -177 -280 -356c-2 -136 56 -229 185 -229z" />
    <glyph glyph-name="Obreve" unicode="&#x14e;" horiz-adv-x="796" 
d="M422 883c-3 -45 30 -73 81 -73c53 0 93 26 111 73h48c-25 -85 -81 -129 -167 -129c-88 0 -129 53 -121 129h48zM480 692c157 0 287 -93 285 -282c-2 -239 -167 -422 -398 -422c-162 0 -291 94 -288 283c2 234 170 421 401 421zM376 48c177 0 276 179 278 356
c1 136 -54 229 -183 229c-178 0 -278 -177 -280 -356c-2 -136 56 -229 185 -229z" />
    <glyph glyph-name="Ocircumflex" unicode="&#xd4;" horiz-adv-x="796" 
d="M560 885l86 -129h-52l-80 75l-112 -75h-57l132 129h83zM480 692c157 0 287 -93 285 -282c-2 -239 -167 -422 -398 -422c-162 0 -291 94 -288 283c2 234 170 421 401 421zM376 48c177 0 276 179 278 356c1 136 -54 229 -183 229c-178 0 -278 -177 -280 -356
c-2 -136 56 -229 185 -229z" />
    <glyph glyph-name="Odieresis" unicode="&#xd6;" horiz-adv-x="796" 
d="M476 871l-16 -95h-94l16 95h94zM649 871l-16 -95h-94l17 95h93zM480 692c157 0 287 -93 285 -282c-2 -239 -167 -422 -398 -422c-162 0 -291 94 -288 283c2 234 170 421 401 421zM376 48c177 0 276 179 278 356c1 136 -54 229 -183 229c-178 0 -278 -177 -280 -356
c-2 -136 56 -229 185 -229z" />
    <glyph glyph-name="Ograve" unicode="&#xd2;" horiz-adv-x="796" 
d="M368 885h103l85 -129h-54zM480 692c157 0 287 -93 285 -282c-2 -239 -167 -422 -398 -422c-162 0 -291 94 -288 283c2 234 170 421 401 421zM376 48c177 0 276 179 278 356c1 136 -54 229 -183 229c-178 0 -278 -177 -280 -356c-2 -136 56 -229 185 -229z" />
    <glyph glyph-name="Ohungarumlaut" unicode="&#x150;" horiz-adv-x="796" 
d="M592 885l-166 -129h-57l120 129h103zM757 885l-166 -129h-57l120 129h103zM480 692c157 0 287 -93 285 -282c-2 -239 -167 -422 -398 -422c-162 0 -291 94 -288 283c2 234 170 421 401 421zM376 48c177 0 276 179 278 356c1 136 -54 229 -183 229
c-178 0 -278 -177 -280 -356c-2 -136 56 -229 185 -229z" />
    <glyph glyph-name="Omacron" unicode="&#x14c;" horiz-adv-x="796" 
d="M670 850l-10 -53h-314l10 53h314zM480 692c157 0 287 -93 285 -282c-2 -239 -167 -422 -398 -422c-162 0 -291 94 -288 283c2 234 170 421 401 421zM376 48c177 0 276 179 278 356c1 136 -54 229 -183 229c-178 0 -278 -177 -280 -356c-2 -136 56 -229 185 -229z" />
    <glyph glyph-name="Oslash" unicode="&#xd8;" horiz-adv-x="796" 
d="M785 650l-69 -66c31 -44 50 -102 49 -174c-2 -239 -167 -422 -398 -422c-81 0 -153 23 -205 70l-71 -67l-38 39l73 69c-31 44 -48 101 -47 172c2 234 170 421 401 421c77 0 148 -23 200 -68l68 64zM191 277c-1 -39 4 -74 13 -104l412 390c-30 44 -77 70 -145 70
c-178 0 -278 -177 -280 -356zM654 404c0 40 -4 77 -14 108l-412 -391c30 -46 79 -73 148 -73c177 0 276 179 278 356z" />
    <glyph glyph-name="Oslashacute" unicode="&#x1fe;" horiz-adv-x="796" 
d="M675 885l-181 -129h-59l127 129h113zM785 650l-69 -66c31 -44 50 -102 49 -174c-2 -239 -167 -422 -398 -422c-81 0 -153 23 -205 70l-71 -67l-38 39l73 69c-31 44 -48 101 -47 172c2 234 170 421 401 421c77 0 148 -23 200 -68l68 64zM191 277c-1 -39 4 -74 13 -104
l412 390c-30 44 -77 70 -145 70c-178 0 -278 -177 -280 -356zM654 404c0 40 -4 77 -14 108l-412 -391c30 -46 79 -73 148 -73c177 0 276 179 278 356z" />
    <glyph glyph-name="Otilde" unicode="&#xd5;" horiz-adv-x="796" 
d="M626 875c-15 -34 -32 -47 -55 -47c-14 0 -31 10 -53 24c-24 15 -43 25 -67 25c-49 0 -84 -43 -104 -107h42c15 35 31 49 54 49c15 0 30 -10 54 -25c23 -14 43 -24 67 -24c49 0 83 42 102 105h-40zM480 692c157 0 287 -93 285 -282c-2 -239 -167 -422 -398 -422
c-162 0 -291 94 -288 283c2 234 170 421 401 421zM376 48c177 0 276 179 278 356c1 136 -54 229 -183 229c-178 0 -278 -177 -280 -356c-2 -136 56 -229 185 -229z" />
    <glyph glyph-name="OE" unicode="&#x152;" horiz-adv-x="940" 
d="M396 -5c-188 0 -317 81 -317 268c0 248 176 422 430 422c44 0 120 -4 163 -5h278l-11 -60h-220l-43 -244h197l-9 -58h-197l-47 -258h121c69 0 109 0 147 8h6l-43 -68h-305c-43 -1 -113 -5 -150 -5zM406 57c32 0 76 1 114 4l99 559c-43 2 -80 4 -122 4
c-193 0 -308 -162 -308 -352c0 -143 73 -215 217 -215z" />
    <glyph glyph-name="P" unicode="P" horiz-adv-x="551" 
d="M177 680h171c127 0 212 -49 211 -167c-2 -147 -123 -222 -277 -222h-74l-51 -291h-100zM218 344h61c107 0 175 56 176 163c0 82 -44 119 -135 119h-53z" />
    <glyph glyph-name="Thorn" unicode="&#xde;" horiz-adv-x="551" 
d="M325 551c127 0 212 -50 211 -167c-2 -148 -122 -223 -277 -223h-74l-28 -161h-100l120 680h99l-23 -129h72zM432 378c1 81 -45 118 -135 118h-53l-50 -282h62c108 0 175 56 176 164z" />
    <glyph glyph-name="Q" unicode="Q" horiz-adv-x="796" 
d="M528 21c65 -53 170 -116 250 -151l-2 -9l-134 -31c-60 32 -155 109 -209 163c-21 -3 -43 -5 -66 -5c-162 0 -291 94 -288 283c2 234 170 421 401 421c157 0 287 -93 285 -282c-1 -179 -94 -326 -237 -389zM191 277c-2 -136 56 -229 185 -229c177 0 276 179 278 356
c1 136 -54 229 -183 229c-178 0 -278 -177 -280 -356z" />
    <glyph glyph-name="R" unicode="R" horiz-adv-x="593" 
d="M177 680h169c120 0 205 -51 204 -161c-2 -110 -77 -180 -191 -203l-2 -4c55 -93 147 -226 219 -306l-1 -6h-129c-53 69 -133 201 -188 302h-46l-54 -302h-101zM220 351h74c99 11 153 67 154 163c1 74 -50 110 -125 110h-55z" />
    <glyph glyph-name="Racute" unicode="&#x154;" horiz-adv-x="593" 
d="M559 885l-181 -129h-59l127 129h113zM177 680h169c120 0 205 -51 204 -161c-2 -110 -77 -180 -191 -203l-2 -4c55 -93 147 -226 219 -306l-1 -6h-129c-53 69 -133 201 -188 302h-46l-54 -302h-101zM220 351h74c99 11 153 67 154 163c1 74 -50 110 -125 110h-55z" />
    <glyph glyph-name="Rcaron" unicode="&#x158;" horiz-adv-x="593" 
d="M339 756l-86 129h53l80 -75l112 75h56l-132 -129h-83zM177 680h169c120 0 205 -51 204 -161c-2 -110 -77 -180 -191 -203l-2 -4c55 -93 147 -226 219 -306l-1 -6h-129c-53 69 -133 201 -188 302h-46l-54 -302h-101zM220 351h74c99 11 153 67 154 163
c1 74 -50 110 -125 110h-55z" />
    <glyph glyph-name="uni0156" unicode="&#x156;" horiz-adv-x="593" 
d="M177 680h169c120 0 205 -51 204 -161c-2 -110 -77 -180 -191 -203l-2 -4c55 -93 147 -226 219 -306l-1 -6h-129c-53 69 -133 201 -188 302h-46l-54 -302h-101zM220 351h74c99 11 153 67 154 163c1 74 -50 110 -125 110h-55zM316 -70c-12 -42 -53 -107 -85 -146h-46
c24 53 38 103 47 146h84z" />
    <glyph glyph-name="S" unicode="S" horiz-adv-x="494" 
d="M461 588c-28 29 -75 44 -117 44c-54 0 -120 -27 -121 -107c0 -48 26 -78 88 -124c82 -59 139 -121 138 -207c-1 -136 -108 -206 -237 -206c-70 0 -144 30 -185 63l-11 98h12c48 -62 122 -98 186 -98c77 0 132 39 133 125c1 64 -45 107 -113 157c-71 53 -111 92 -110 167
c1 124 111 192 220 192c50 0 105 -12 138 -31l-5 -74z" />
    <glyph glyph-name="Sacute" unicode="&#x15a;" horiz-adv-x="494" 
d="M517 885l-181 -129h-59l127 129h113zM461 588c-28 29 -75 44 -117 44c-54 0 -120 -27 -121 -107c0 -48 26 -78 88 -124c82 -59 139 -121 138 -207c-1 -136 -108 -206 -237 -206c-70 0 -144 30 -185 63l-11 98h12c48 -62 122 -98 186 -98c77 0 132 39 133 125
c1 64 -45 107 -113 157c-71 53 -111 92 -110 167c1 124 111 192 220 192c50 0 105 -12 138 -31l-5 -74z" />
    <glyph glyph-name="Scaron" unicode="&#x160;" horiz-adv-x="494" 
d="M297 756l-86 129h53l80 -75l112 75h56l-132 -129h-83zM461 588c-28 29 -75 44 -117 44c-54 0 -120 -27 -121 -107c0 -48 26 -78 88 -124c82 -59 139 -121 138 -207c-1 -136 -108 -206 -237 -206c-70 0 -144 30 -185 63l-11 98h12c48 -62 122 -98 186 -98
c77 0 132 39 133 125c1 64 -45 107 -113 157c-71 53 -111 92 -110 167c1 124 111 192 220 192c50 0 105 -12 138 -31l-5 -74z" />
    <glyph glyph-name="Scedilla" unicode="&#x15e;" horiz-adv-x="494" 
d="M344 692c50 0 105 -12 138 -31l-5 -74l-16 1c-28 29 -75 44 -117 44c-54 0 -120 -27 -121 -107c0 -48 26 -78 88 -124c82 -59 139 -121 138 -207c-1 -131 -100 -201 -223 -206l-22 -34l11 -3c33 -9 58 -30 58 -66c0 -71 -78 -104 -166 -104l-13 34l4 4
c61 1 106 19 106 57c0 26 -28 36 -63 42v6l45 65c-62 7 -123 33 -159 62l-11 98h12c48 -62 122 -98 186 -98c77 0 132 39 133 125c1 64 -45 107 -113 157c-71 53 -111 92 -110 167c1 124 111 192 220 192z" />
    <glyph glyph-name="Scircumflex" unicode="&#x15c;" horiz-adv-x="494" 
d="M401 885l86 -129h-52l-80 75l-112 -75h-57l132 129h83zM461 588c-28 29 -75 44 -117 44c-54 0 -120 -27 -121 -107c0 -48 26 -78 88 -124c82 -59 139 -121 138 -207c-1 -136 -108 -206 -237 -206c-70 0 -144 30 -185 63l-11 98h12c48 -62 122 -98 186 -98
c77 0 132 39 133 125c1 64 -45 107 -113 157c-71 53 -111 92 -110 167c1 124 111 192 220 192c50 0 105 -12 138 -31l-5 -74z" />
    <glyph glyph-name="uni0218" unicode="&#x218;" horiz-adv-x="494" 
d="M461 588c-28 29 -75 44 -117 44c-54 0 -120 -27 -121 -107c0 -48 26 -78 88 -124c82 -59 139 -121 138 -207c-1 -136 -108 -206 -237 -206c-70 0 -144 30 -185 63l-11 98h12c48 -62 122 -98 186 -98c77 0 132 39 133 125c1 64 -45 107 -113 157c-71 53 -111 92 -110 167
c1 124 111 192 220 192c50 0 105 -12 138 -31l-5 -74zM244 -70c-12 -42 -53 -107 -85 -146h-46c24 53 38 103 47 146h84z" />
    <glyph glyph-name="uni1E9E" unicode="&#x1e9e;" horiz-adv-x="682" 
d="M423 -12c-62 0 -111 20 -149 52l-12 98h12c44 -56 92 -88 153 -88c63 0 105 44 105 106c0 41 -21 73 -73 134c-55 63 -74 109 -74 157c0 87 53 145 154 176c-17 1 -68 4 -93 4c-132 0 -183 -52 -206 -175l-80 -452l-108 1l81 457c28 157 109 232 309 232
c83 0 159 -10 211 -20l1 -57c-122 -26 -165 -72 -167 -142c0 -34 12 -63 53 -112c63 -76 95 -125 95 -183c0 -114 -89 -188 -212 -188z" />
    <glyph glyph-name="uni018F" unicode="&#x18f;" horiz-adv-x="722" 
d="M400 692c179 0 291 -90 291 -273c0 -247 -162 -432 -366 -432c-164 0 -247 95 -247 248c0 39 8 95 18 133h484c1 17 2 35 2 53c0 142 -66 209 -194 209c-87 0 -164 -40 -222 -89h-13l24 83c61 41 134 68 223 68zM328 46c112 0 212 101 244 263h-379c-6 -28 -9 -70 -9 -94
c0 -111 47 -169 144 -169z" />
    <glyph glyph-name="T" unicode="T" horiz-adv-x="481" 
d="M259 619h-174l11 61h458l-11 -61h-180l-109 -619h-104z" />
    <glyph glyph-name="Tbar" unicode="&#x166;" horiz-adv-x="481" 
d="M543 619h-180l-43 -243h110l-11 -57h-109l-56 -319h-104l56 319h-109l11 57h108l43 243h-174l11 61h458z" />
    <glyph glyph-name="Tcaron" unicode="&#x164;" horiz-adv-x="481" 
d="M297 756l-86 129h53l80 -75l112 75h56l-132 -129h-83zM259 619h-174l11 61h458l-11 -61h-180l-109 -619h-104z" />
    <glyph glyph-name="uni0162" unicode="&#x162;" horiz-adv-x="481" 
d="M96 680h458l-11 -61h-180l-109 -619h-31l-30 -46l11 -3c33 -9 58 -30 58 -66c0 -71 -78 -104 -166 -104l-13 34l4 4c61 1 106 19 106 57c0 26 -28 36 -63 42v6l52 76h-32l109 619h-174z" />
    <glyph glyph-name="uni021A" unicode="&#x21a;" horiz-adv-x="481" 
d="M259 619h-174l11 61h458l-11 -61h-180l-109 -619h-104zM233 -70c-12 -42 -53 -107 -85 -146h-46c24 53 38 103 47 146h84z" />
    <glyph glyph-name="U" unicode="U" horiz-adv-x="696" 
d="M328 -12c-159 0 -244 73 -243 196c1 17 2 36 6 55l78 441h101l-75 -425c-4 -21 -6 -43 -7 -61c0 -96 49 -142 147 -142c120 0 183 64 207 202l75 426h72l-79 -441c-27 -156 -120 -251 -282 -251z" />
    <glyph glyph-name="Uacute" unicode="&#xda;" horiz-adv-x="696" 
d="M622 885l-181 -129h-59l127 129h113zM328 -12c-159 0 -244 73 -243 196c1 17 2 36 6 55l78 441h101l-75 -425c-4 -21 -6 -43 -7 -61c0 -96 49 -142 147 -142c120 0 183 64 207 202l75 426h72l-79 -441c-27 -156 -120 -251 -282 -251z" />
    <glyph glyph-name="Ubreve" unicode="&#x16c;" horiz-adv-x="696" 
d="M369 883c-3 -45 30 -73 81 -73c53 0 93 26 111 73h48c-25 -85 -81 -129 -167 -129c-88 0 -129 53 -121 129h48zM328 -12c-159 0 -244 73 -243 196c1 17 2 36 6 55l78 441h101l-75 -425c-4 -21 -6 -43 -7 -61c0 -96 49 -142 147 -142c120 0 183 64 207 202l75 426h72
l-79 -441c-27 -156 -120 -251 -282 -251z" />
    <glyph glyph-name="Ucircumflex" unicode="&#xdb;" horiz-adv-x="696" 
d="M507 885l86 -129h-52l-80 75l-112 -75h-57l132 129h83zM328 -12c-159 0 -244 73 -243 196c1 17 2 36 6 55l78 441h101l-75 -425c-4 -21 -6 -43 -7 -61c0 -96 49 -142 147 -142c120 0 183 64 207 202l75 426h72l-79 -441c-27 -156 -120 -251 -282 -251z" />
    <glyph glyph-name="Udieresis" unicode="&#xdc;" horiz-adv-x="696" 
d="M423 871l-16 -95h-94l16 95h94zM596 871l-16 -95h-94l17 95h93zM328 -12c-159 0 -244 73 -243 196c1 17 2 36 6 55l78 441h101l-75 -425c-4 -21 -6 -43 -7 -61c0 -96 49 -142 147 -142c120 0 183 64 207 202l75 426h72l-79 -441c-27 -156 -120 -251 -282 -251z" />
    <glyph glyph-name="Ugrave" unicode="&#xd9;" horiz-adv-x="696" 
d="M315 885h103l85 -129h-54zM328 -12c-159 0 -244 73 -243 196c1 17 2 36 6 55l78 441h101l-75 -425c-4 -21 -6 -43 -7 -61c0 -96 49 -142 147 -142c120 0 183 64 207 202l75 426h72l-79 -441c-27 -156 -120 -251 -282 -251z" />
    <glyph glyph-name="Uhungarumlaut" unicode="&#x170;" horiz-adv-x="696" 
d="M540 885l-166 -129h-57l120 129h103zM705 885l-166 -129h-57l120 129h103zM328 -12c-159 0 -244 73 -243 196c1 17 2 36 6 55l78 441h101l-75 -425c-4 -21 -6 -43 -7 -61c0 -96 49 -142 147 -142c120 0 183 64 207 202l75 426h72l-79 -441c-27 -156 -120 -251 -282 -251z
" />
    <glyph glyph-name="Umacron" unicode="&#x16a;" horiz-adv-x="696" 
d="M617 850l-10 -53h-314l10 53h314zM328 -12c-159 0 -244 73 -243 196c1 17 2 36 6 55l78 441h101l-75 -425c-4 -21 -6 -43 -7 -61c0 -96 49 -142 147 -142c120 0 183 64 207 202l75 426h72l-79 -441c-27 -156 -120 -251 -282 -251z" />
    <glyph glyph-name="Uogonek" unicode="&#x172;" horiz-adv-x="696" 
d="M85 184c1 17 2 36 6 55l78 441h101l-75 -425c-4 -21 -6 -43 -7 -61c0 -96 49 -142 147 -142c120 0 183 64 207 202l75 426h72l-79 -441c-23 -131 -86 -205 -196 -241c-76 -24 -132 -75 -132 -108c0 -19 14 -32 40 -32c19 0 38 7 55 14h7l-18 -40c-21 -10 -48 -16 -75 -16
c-45 0 -80 20 -80 60c0 46 39 83 103 112c-148 5 -230 75 -229 196z" />
    <glyph glyph-name="Uring" unicode="&#x16e;" horiz-adv-x="696" 
d="M444 728c-60 0 -98 39 -98 90c0 67 51 121 124 121c59 0 98 -38 98 -90c0 -67 -51 -121 -124 -121zM447 763c46 0 77 40 77 84c0 29 -19 56 -57 56c-43 0 -77 -36 -77 -83c0 -31 21 -57 57 -57zM328 -12c-159 0 -244 73 -243 196c1 17 2 36 6 55l78 441h101l-75 -425
c-4 -21 -6 -43 -7 -61c0 -96 49 -142 147 -142c120 0 183 64 207 202l75 426h72l-79 -441c-27 -156 -120 -251 -282 -251z" />
    <glyph glyph-name="Utilde" unicode="&#x168;" horiz-adv-x="696" 
d="M574 875c-15 -34 -32 -47 -55 -47c-14 0 -31 10 -53 24c-24 15 -43 25 -67 25c-49 0 -84 -43 -104 -107h42c15 35 31 49 54 49c15 0 30 -10 54 -25c23 -14 43 -24 67 -24c49 0 83 42 102 105h-40zM328 -12c-159 0 -244 73 -243 196c1 17 2 36 6 55l78 441h101l-75 -425
c-4 -21 -6 -43 -7 -61c0 -96 49 -142 147 -142c120 0 183 64 207 202l75 426h72l-79 -441c-27 -156 -120 -251 -282 -251z" />
    <glyph glyph-name="V" unicode="V" horiz-adv-x="618" 
d="M700 680l-395 -680h-82l-125 680h106l97 -559h5l312 559h82z" />
    <glyph glyph-name="W" unicode="W" horiz-adv-x="946" 
d="M618 0l-85 531h-6l-287 -531h-78l-50 679l104 1l32 -536h3l285 536h72l82 -539h3l234 539h85l-316 -680h-78z" />
    <glyph glyph-name="Wacute" unicode="&#x1e82;" horiz-adv-x="946" 
d="M764 885l-181 -129h-59l127 129h113zM618 0l-85 531h-6l-287 -531h-78l-50 679l104 1l32 -536h3l285 536h72l82 -539h3l234 539h85l-316 -680h-78z" />
    <glyph glyph-name="Wcircumflex" unicode="&#x174;" horiz-adv-x="946" 
d="M648 885l86 -129h-52l-80 75l-112 -75h-57l132 129h83zM618 0l-85 531h-6l-287 -531h-78l-50 679l104 1l32 -536h3l285 536h72l82 -539h3l234 539h85l-316 -680h-78z" />
    <glyph glyph-name="Wdieresis" unicode="&#x1e84;" horiz-adv-x="946" 
d="M565 871l-16 -95h-94l16 95h94zM738 871l-16 -95h-94l17 95h93zM618 0l-85 531h-6l-287 -531h-78l-50 679l104 1l32 -536h3l285 536h72l82 -539h3l234 539h85l-316 -680h-78z" />
    <glyph glyph-name="Wgrave" unicode="&#x1e80;" horiz-adv-x="946" 
d="M456 885h103l85 -129h-54zM618 0l-85 531h-6l-287 -531h-78l-50 679l104 1l32 -536h3l285 536h72l82 -539h3l234 539h85l-316 -680h-78z" />
    <glyph glyph-name="X" unicode="X" horiz-adv-x="590" 
d="M-19 0l286 346l-152 334h113l114 -268h4l210 268h87l-268 -324l161 -356h-113l-124 286h-4l-226 -286h-88z" />
    <glyph glyph-name="Y" unicode="Y" horiz-adv-x="530" 
d="M236 311l-155 369h110l122 -297h5l216 297h82l-278 -360l-56 -320h-100z" />
    <glyph glyph-name="Yacute" unicode="&#xdd;" horiz-adv-x="530" 
d="M542 885l-181 -129h-59l127 129h113zM236 311l-155 369h110l122 -297h5l216 297h82l-278 -360l-56 -320h-100z" />
    <glyph glyph-name="Ycircumflex" unicode="&#x176;" horiz-adv-x="530" 
d="M427 885l86 -129h-52l-80 75l-112 -75h-57l132 129h83zM236 311l-155 369h110l122 -297h5l216 297h82l-278 -360l-56 -320h-100z" />
    <glyph glyph-name="Ydieresis" unicode="&#x178;" horiz-adv-x="530" 
d="M343 871l-16 -95h-94l16 95h94zM516 871l-16 -95h-94l17 95h93zM236 311l-155 369h110l122 -297h5l216 297h82l-278 -360l-56 -320h-100z" />
    <glyph glyph-name="Ygrave" unicode="&#x1ef2;" horiz-adv-x="530" 
d="M235 885h103l85 -129h-54zM236 311l-155 369h110l122 -297h5l216 297h82l-278 -360l-56 -320h-100z" />
    <glyph glyph-name="Z" unicode="Z" horiz-adv-x="674" 
d="M585 -1l-581 1l6 29l525 584l1 6h-387l29 61h523l-4 -24l-531 -590l-1 -6c321 0 382 1 462 15h6z" />
    <glyph glyph-name="Zacute" unicode="&#x179;" horiz-adv-x="674" 
d="M617 885l-181 -129h-59l127 129h113zM585 -1l-581 1l6 29l525 584l1 6h-387l29 61h523l-4 -24l-531 -590l-1 -6c321 0 382 1 462 15h6z" />
    <glyph glyph-name="Zcaron" unicode="&#x17d;" horiz-adv-x="674" 
d="M397 756l-86 129h53l80 -75l112 75h56l-132 -129h-83zM585 -1l-581 1l6 29l525 584l1 6h-387l29 61h523l-4 -24l-531 -590l-1 -6c321 0 382 1 462 15h6z" />
    <glyph glyph-name="Zdotaccent" unicode="&#x17b;" horiz-adv-x="674" 
d="M510 872l-17 -98h-102l17 98h102zM585 -1l-581 1l6 29l525 584l1 6h-387l29 61h523l-4 -24l-531 -590l-1 -6c321 0 382 1 462 15h6z" />
    <glyph glyph-name="a" unicode="a" horiz-adv-x="519" 
d="M337 0l-4 71c-38 -52 -90 -81 -158 -81c-87 0 -133 52 -133 111c0 97 68 133 162 155c133 29 163 36 168 51c5 14 6 27 6 41c0 56 -34 85 -93 85c-46 0 -100 -18 -146 -56h-10l16 67c42 26 96 43 150 43c116 0 175 -52 175 -133c0 -16 -2 -27 -5 -44l-40 -220
c-6 -29 -8 -61 -7 -90h-81zM213 44c59 0 111 44 131 102l19 106c-145 -28 -223 -48 -223 -137c0 -42 29 -71 73 -71z" />
    <glyph glyph-name="aacute" unicode="&#xe1;" horiz-adv-x="519" 
d="M495 716l-172 -141h-58l122 141h108zM337 0l-4 71c-38 -52 -90 -81 -158 -81c-87 0 -133 52 -133 111c0 97 68 133 162 155c133 29 163 36 168 51c5 14 6 27 6 41c0 56 -34 85 -93 85c-46 0 -100 -18 -146 -56h-10l16 67c42 26 96 43 150 43c116 0 175 -52 175 -133
c0 -16 -2 -27 -5 -44l-40 -220c-6 -29 -8 -61 -7 -90h-81zM213 44c59 0 111 44 131 102l19 106c-145 -28 -223 -48 -223 -137c0 -42 29 -71 73 -71z" />
    <glyph glyph-name="abreve" unicode="&#x103;" horiz-adv-x="519" 
d="M253 707c-3 -49 30 -76 81 -76c54 0 95 27 112 76h48c-24 -86 -81 -132 -168 -132s-129 53 -121 132h48zM337 0l-4 71c-38 -52 -90 -81 -158 -81c-87 0 -133 52 -133 111c0 97 68 133 162 155c133 29 163 36 168 51c5 14 6 27 6 41c0 56 -34 85 -93 85
c-46 0 -100 -18 -146 -56h-10l16 67c42 26 96 43 150 43c116 0 175 -52 175 -133c0 -16 -2 -27 -5 -44l-40 -220c-6 -29 -8 -61 -7 -90h-81zM213 44c59 0 111 44 131 102l19 106c-145 -28 -223 -48 -223 -137c0 -42 29 -71 73 -71z" />
    <glyph glyph-name="acircumflex" unicode="&#xe2;" horiz-adv-x="519" 
d="M393 716l83 -141h-51l-80 87l-111 -87h-57l133 141h83zM337 0l-4 71c-38 -52 -90 -81 -158 -81c-87 0 -133 52 -133 111c0 97 68 133 162 155c133 29 163 36 168 51c5 14 6 27 6 41c0 56 -34 85 -93 85c-46 0 -100 -18 -146 -56h-10l16 67c42 26 96 43 150 43
c116 0 175 -52 175 -133c0 -16 -2 -27 -5 -44l-40 -220c-6 -29 -8 -61 -7 -90h-81zM213 44c59 0 111 44 131 102l19 106c-145 -28 -223 -48 -223 -137c0 -42 29 -71 73 -71z" />
    <glyph glyph-name="adieresis" unicode="&#xe4;" horiz-adv-x="519" 
d="M310 699l-16 -95h-94l17 95h93zM483 699l-16 -95h-93l16 95h93zM337 0l-4 71c-38 -52 -90 -81 -158 -81c-87 0 -133 52 -133 111c0 97 68 133 162 155c133 29 163 36 168 51c5 14 6 27 6 41c0 56 -34 85 -93 85c-46 0 -100 -18 -146 -56h-10l16 67c42 26 96 43 150 43
c116 0 175 -52 175 -133c0 -16 -2 -27 -5 -44l-40 -220c-6 -29 -8 -61 -7 -90h-81zM213 44c59 0 111 44 131 102l19 106c-145 -28 -223 -48 -223 -137c0 -42 29 -71 73 -71z" />
    <glyph glyph-name="agrave" unicode="&#xe0;" horiz-adv-x="519" 
d="M311 716l78 -141h-52l-124 141h98zM337 0l-4 71c-38 -52 -90 -81 -158 -81c-87 0 -133 52 -133 111c0 97 68 133 162 155c133 29 163 36 168 51c5 14 6 27 6 41c0 56 -34 85 -93 85c-46 0 -100 -18 -146 -56h-10l16 67c42 26 96 43 150 43c116 0 175 -52 175 -133
c0 -16 -2 -27 -5 -44l-40 -220c-6 -29 -8 -61 -7 -90h-81zM213 44c59 0 111 44 131 102l19 106c-145 -28 -223 -48 -223 -137c0 -42 29 -71 73 -71z" />
    <glyph glyph-name="amacron" unicode="&#x101;" horiz-adv-x="519" 
d="M502 681l-9 -53h-314l9 53h314zM337 0l-4 71c-38 -52 -90 -81 -158 -81c-87 0 -133 52 -133 111c0 97 68 133 162 155c133 29 163 36 168 51c5 14 6 27 6 41c0 56 -34 85 -93 85c-46 0 -100 -18 -146 -56h-10l16 67c42 26 96 43 150 43c116 0 175 -52 175 -133
c0 -16 -2 -27 -5 -44l-40 -220c-6 -29 -8 -61 -7 -90h-81zM213 44c59 0 111 44 131 102l19 106c-145 -28 -223 -48 -223 -137c0 -42 29 -71 73 -71z" />
    <glyph glyph-name="aogonek" unicode="&#x105;" horiz-adv-x="519" 
d="M42 101c0 97 68 133 162 155c133 29 163 36 168 51c5 14 6 27 6 41c0 56 -34 85 -93 85c-46 0 -100 -18 -146 -56h-10l16 67c42 26 96 43 150 43c116 0 175 -52 175 -133c0 -16 -2 -27 -5 -44l-40 -220c-6 -29 -8 -61 -7 -90c-90 -47 -122 -82 -122 -110
c0 -19 13 -32 39 -32c20 0 38 7 55 14h7l-18 -40c-20 -10 -47 -16 -74 -16c-45 0 -80 20 -80 60c0 45 36 81 125 124h-13l-4 71c-38 -52 -90 -81 -158 -81c-87 0 -133 52 -133 111zM140 115c0 -42 29 -71 73 -71c59 0 111 44 131 102l19 106c-145 -28 -223 -48 -223 -137z
" />
    <glyph glyph-name="aring" unicode="&#xe5;" horiz-adv-x="519" 
d="M328 550c-61 0 -99 39 -99 90c0 68 51 122 124 122c60 0 99 -37 99 -90c0 -68 -52 -122 -124 -122zM330 585c46 0 77 40 77 85c0 30 -19 57 -57 57c-43 0 -76 -37 -76 -84c0 -32 20 -58 56 -58zM337 0l-4 71c-38 -52 -90 -81 -158 -81c-87 0 -133 52 -133 111
c0 97 68 133 162 155c133 29 163 36 168 51c5 14 6 27 6 41c0 56 -34 85 -93 85c-46 0 -100 -18 -146 -56h-10l16 67c42 26 96 43 150 43c116 0 175 -52 175 -133c0 -16 -2 -27 -5 -44l-40 -220c-6 -29 -8 -61 -7 -90h-81zM213 44c59 0 111 44 131 102l19 106
c-145 -28 -223 -48 -223 -137c0 -42 29 -71 73 -71z" />
    <glyph glyph-name="aringacute" unicode="&#x1fb;" horiz-adv-x="519" 
d="M328 550c-60 0 -98 39 -98 90c0 53 31 98 80 115l103 119h108l-140 -115c44 -9 71 -43 71 -87c0 -68 -51 -122 -124 -122zM351 727c-43 0 -77 -37 -77 -84c0 -32 21 -58 57 -58c46 0 77 40 77 85c0 30 -19 57 -57 57zM295 487c116 0 175 -52 175 -133
c0 -16 -2 -27 -5 -44l-40 -220c-6 -29 -8 -61 -7 -90h-81l-4 71c-38 -52 -90 -81 -158 -81c-87 0 -133 52 -133 111c0 97 68 133 162 155c133 29 163 36 168 51c5 14 6 27 6 41c0 56 -34 85 -93 85c-46 0 -100 -18 -146 -56h-10l16 67c42 26 96 43 150 43zM344 146l19 106
c-145 -28 -223 -48 -223 -137c0 -42 29 -71 73 -71c59 0 111 44 131 102z" />
    <glyph glyph-name="atilde" unicode="&#xe3;" horiz-adv-x="519" 
d="M460 706c-15 -34 -32 -47 -55 -47c-15 0 -31 10 -54 24c-23 15 -43 25 -67 25c-49 0 -84 -44 -103 -107h41c15 34 32 49 55 49c15 0 30 -11 53 -25s43 -24 67 -24c50 0 84 42 103 105h-40zM337 0l-4 71c-38 -52 -90 -81 -158 -81c-87 0 -133 52 -133 111
c0 97 68 133 162 155c133 29 163 36 168 51c5 14 6 27 6 41c0 56 -34 85 -93 85c-46 0 -100 -18 -146 -56h-10l16 67c42 26 96 43 150 43c116 0 175 -52 175 -133c0 -16 -2 -27 -5 -44l-40 -220c-6 -29 -8 -61 -7 -90h-81zM213 44c59 0 111 44 131 102l19 106
c-145 -28 -223 -48 -223 -137c0 -42 29 -71 73 -71z" />
    <glyph glyph-name="ae" unicode="&#xe6;" horiz-adv-x="819" 
d="M783 251h-330c-1 -14 -2 -28 -2 -43c0 -100 50 -159 144 -159c52 0 107 16 151 57h11l-28 -69c-37 -27 -91 -47 -155 -47c-101 0 -164 40 -192 109h-2c-37 -71 -101 -109 -189 -109c-97 0 -149 48 -149 115c0 93 69 131 173 154c135 29 153 35 159 50c3 10 4 29 4 39
c0 56 -34 85 -93 85c-46 0 -100 -18 -146 -56h-10l16 67c42 26 96 43 150 43c81 0 128 -26 151 -71h2c32 38 92 71 167 71c119 0 176 -64 176 -177c0 -19 -4 -41 -8 -59zM613 441c-68 0 -126 -54 -150 -141h238c1 8 2 17 2 28c0 70 -27 113 -90 113zM344 146l19 102
c-145 -27 -223 -48 -223 -133c0 -42 29 -71 73 -71c58 0 111 44 131 102z" />
    <glyph glyph-name="aeacute" unicode="&#x1fd;" horiz-adv-x="819" 
d="M654 716l-172 -141h-58l122 141h108zM783 251h-330c-1 -14 -2 -28 -2 -43c0 -100 50 -159 144 -159c52 0 107 16 151 57h11l-28 -69c-37 -27 -91 -47 -155 -47c-101 0 -164 40 -192 109h-2c-37 -71 -101 -109 -189 -109c-97 0 -149 48 -149 115c0 93 69 131 173 154
c135 29 153 35 159 50c3 10 4 29 4 39c0 56 -34 85 -93 85c-46 0 -100 -18 -146 -56h-10l16 67c42 26 96 43 150 43c81 0 128 -26 151 -71h2c32 38 92 71 167 71c119 0 176 -64 176 -177c0 -19 -4 -41 -8 -59zM613 441c-68 0 -126 -54 -150 -141h238c1 8 2 17 2 28
c0 70 -27 113 -90 113zM344 146l19 102c-145 -27 -223 -48 -223 -133c0 -42 29 -71 73 -71c58 0 111 44 131 102z" />
    <glyph glyph-name="b" unicode="b" horiz-adv-x="571" 
d="M129 0h-84l125 708l97 12l-62 -335h2c32 54 86 102 166 102c115 0 163 -83 163 -187c0 -156 -92 -310 -258 -310c-64 0 -106 33 -126 79h-2zM342 430c-103 0 -177 -141 -179 -248c-2 -88 41 -136 107 -136c111 0 166 136 166 249c0 90 -35 135 -94 135z" />
    <glyph glyph-name="c" unicode="c" horiz-adv-x="467" 
d="M344 487c54 0 97 -11 119 -29l-1 -62h-12c-23 28 -61 39 -98 39c-124 0 -195 -114 -197 -238c-1 -89 52 -151 130 -151c52 0 99 20 132 50h11l-27 -65c-33 -24 -81 -41 -141 -41c-128 0 -209 78 -208 203c2 167 123 294 292 294z" />
    <glyph glyph-name="cacute" unicode="&#x107;" horiz-adv-x="467" 
d="M499 716l-172 -141h-58l122 141h108zM344 487c54 0 97 -11 119 -29l-1 -62h-12c-23 28 -61 39 -98 39c-124 0 -195 -114 -197 -238c-1 -89 52 -151 130 -151c52 0 99 20 132 50h11l-27 -65c-33 -24 -81 -41 -141 -41c-128 0 -209 78 -208 203c2 167 123 294 292 294z" />
    <glyph glyph-name="ccaron" unicode="&#x10d;" horiz-adv-x="467" 
d="M289 575l-83 141h52l79 -87l112 87h56l-133 -141h-83zM344 487c54 0 97 -11 119 -29l-1 -62h-12c-23 28 -61 39 -98 39c-124 0 -195 -114 -197 -238c-1 -89 52 -151 130 -151c52 0 99 20 132 50h11l-27 -65c-33 -24 -81 -41 -141 -41c-128 0 -209 78 -208 203
c2 167 123 294 292 294z" />
    <glyph glyph-name="ccedilla" unicode="&#xe7;" horiz-adv-x="467" 
d="M344 487c54 0 97 -11 119 -29l-1 -62h-12c-23 28 -61 39 -98 39c-124 0 -195 -114 -197 -238c-1 -89 52 -151 130 -151c52 0 99 20 132 50h11l-27 -65c-33 -24 -81 -41 -141 -41h-5l-24 -36l11 -3c33 -9 58 -30 58 -66c0 -71 -78 -104 -166 -104l-13 34l4 4
c61 1 106 19 106 57c0 26 -28 36 -63 42v6l47 69c-101 17 -164 90 -163 200c2 167 123 294 292 294z" />
    <glyph glyph-name="ccircumflex" unicode="&#x109;" horiz-adv-x="467" 
d="M397 716l83 -141h-51l-80 87l-111 -87h-57l133 141h83zM344 487c54 0 97 -11 119 -29l-1 -62h-12c-23 28 -61 39 -98 39c-124 0 -195 -114 -197 -238c-1 -89 52 -151 130 -151c52 0 99 20 132 50h11l-27 -65c-33 -24 -81 -41 -141 -41c-128 0 -209 78 -208 203
c2 167 123 294 292 294z" />
    <glyph glyph-name="cdotaccent" unicode="&#x10b;" horiz-adv-x="467" 
d="M404 701l-17 -98h-102l17 98h102zM344 487c54 0 97 -11 119 -29l-1 -62h-12c-23 28 -61 39 -98 39c-124 0 -195 -114 -197 -238c-1 -89 52 -151 130 -151c52 0 99 20 132 50h11l-27 -65c-33 -24 -81 -41 -141 -41c-128 0 -209 78 -208 203c2 167 123 294 292 294z" />
    <glyph glyph-name="d" unicode="d" horiz-adv-x="571" 
d="M487 708l97 12l-126 -720h-89l13 87h-2c-32 -53 -86 -97 -166 -97c-115 0 -161 81 -161 186c0 156 92 311 258 311c60 0 104 -30 125 -76h2zM245 47c102 0 175 137 177 244c3 87 -32 140 -103 140c-112 0 -166 -140 -166 -251c0 -90 33 -133 92 -133z" />
    <glyph glyph-name="eth" unicode="&#xf0;" horiz-adv-x="564" 
d="M424 601c64 -65 104 -160 104 -277c0 -200 -108 -334 -280 -334c-104 0 -192 64 -192 195c0 161 102 302 252 302c54 0 98 -21 117 -51l1 1c-10 49 -38 93 -76 130l-113 -51l-21 48l88 40c-31 20 -66 36 -103 46l52 43c47 -9 90 -28 128 -55l101 46l21 -47zM260 44
c109 0 167 137 167 255c0 86 -41 134 -106 134c-112 0 -164 -131 -164 -252c0 -87 38 -137 103 -137z" />
    <glyph glyph-name="dcaron" unicode="&#x10f;" horiz-adv-x="571" 
d="M487 708l97 12l-126 -720h-89l13 87h-2c-32 -53 -86 -97 -166 -97c-115 0 -161 81 -161 186c0 156 92 311 258 311c60 0 104 -30 125 -76h2zM742 720c-24 -82 -65 -156 -95 -194h-47c21 53 45 126 57 194h85zM245 47c102 0 175 137 177 244c3 87 -32 140 -103 140
c-112 0 -166 -140 -166 -251c0 -90 33 -133 92 -133z" />
    <glyph glyph-name="dcroat" unicode="&#x111;" horiz-adv-x="571" 
d="M625 612l-10 -53h-59l-98 -559h-89l13 87h-2c-32 -53 -86 -97 -166 -97c-115 0 -161 81 -161 186c0 156 92 311 258 311c60 0 104 -30 125 -76h2l24 148h-151l9 53h151l16 96l97 12l-19 -108h60zM422 291c3 87 -32 140 -103 140c-112 0 -166 -140 -166 -251
c0 -90 33 -133 92 -133c102 0 175 137 177 244z" />
    <glyph glyph-name="e" unicode="e" horiz-adv-x="516" 
d="M152 250c-3 -14 -4 -29 -4 -43c0 -98 50 -158 144 -158c52 0 107 16 151 57h11l-28 -69c-37 -27 -90 -47 -155 -47c-141 0 -219 81 -219 207c0 164 110 290 261 290c119 0 175 -65 175 -177c0 -19 -4 -41 -8 -60h-328zM398 301c2 9 2 17 2 27c0 70 -27 113 -90 113
c-62 0 -127 -52 -149 -140h237z" />
    <glyph glyph-name="eacute" unicode="&#xe9;" horiz-adv-x="516" 
d="M490 716l-172 -141h-58l122 141h108zM152 250c-3 -14 -4 -29 -4 -43c0 -98 50 -158 144 -158c52 0 107 16 151 57h11l-28 -69c-37 -27 -90 -47 -155 -47c-141 0 -219 81 -219 207c0 164 110 290 261 290c119 0 175 -65 175 -177c0 -19 -4 -41 -8 -60h-328zM398 301
c2 9 2 17 2 27c0 70 -27 113 -90 113c-62 0 -127 -52 -149 -140h237z" />
    <glyph glyph-name="ebreve" unicode="&#x115;" horiz-adv-x="516" 
d="M247 707c-3 -49 30 -76 81 -76c54 0 95 27 112 76h48c-24 -86 -81 -132 -168 -132s-129 53 -121 132h48zM152 250c-3 -14 -4 -29 -4 -43c0 -98 50 -158 144 -158c52 0 107 16 151 57h11l-28 -69c-37 -27 -90 -47 -155 -47c-141 0 -219 81 -219 207c0 164 110 290 261 290
c119 0 175 -65 175 -177c0 -19 -4 -41 -8 -60h-328zM398 301c2 9 2 17 2 27c0 70 -27 113 -90 113c-62 0 -127 -52 -149 -140h237z" />
    <glyph glyph-name="ecaron" unicode="&#x11b;" horiz-adv-x="516" 
d="M280 575l-83 141h52l79 -87l112 87h56l-133 -141h-83zM152 250c-3 -14 -4 -29 -4 -43c0 -98 50 -158 144 -158c52 0 107 16 151 57h11l-28 -69c-37 -27 -90 -47 -155 -47c-141 0 -219 81 -219 207c0 164 110 290 261 290c119 0 175 -65 175 -177c0 -19 -4 -41 -8 -60
h-328zM398 301c2 9 2 17 2 27c0 70 -27 113 -90 113c-62 0 -127 -52 -149 -140h237z" />
    <glyph glyph-name="ecircumflex" unicode="&#xea;" horiz-adv-x="516" 
d="M387 716l83 -141h-51l-80 87l-111 -87h-57l133 141h83zM152 250c-3 -14 -4 -29 -4 -43c0 -98 50 -158 144 -158c52 0 107 16 151 57h11l-28 -69c-37 -27 -90 -47 -155 -47c-141 0 -219 81 -219 207c0 164 110 290 261 290c119 0 175 -65 175 -177c0 -19 -4 -41 -8 -60
h-328zM398 301c2 9 2 17 2 27c0 70 -27 113 -90 113c-62 0 -127 -52 -149 -140h237z" />
    <glyph glyph-name="edieresis" unicode="&#xeb;" horiz-adv-x="516" 
d="M304 699l-16 -95h-94l17 95h93zM477 699l-16 -95h-93l16 95h93zM152 250c-3 -14 -4 -29 -4 -43c0 -98 50 -158 144 -158c52 0 107 16 151 57h11l-28 -69c-37 -27 -90 -47 -155 -47c-141 0 -219 81 -219 207c0 164 110 290 261 290c119 0 175 -65 175 -177
c0 -19 -4 -41 -8 -60h-328zM398 301c2 9 2 17 2 27c0 70 -27 113 -90 113c-62 0 -127 -52 -149 -140h237z" />
    <glyph glyph-name="edotaccent" unicode="&#x117;" horiz-adv-x="516" 
d="M394 701l-17 -98h-102l17 98h102zM152 250c-3 -14 -4 -29 -4 -43c0 -98 50 -158 144 -158c52 0 107 16 151 57h11l-28 -69c-37 -27 -90 -47 -155 -47c-141 0 -219 81 -219 207c0 164 110 290 261 290c119 0 175 -65 175 -177c0 -19 -4 -41 -8 -60h-328zM398 301
c2 9 2 17 2 27c0 70 -27 113 -90 113c-62 0 -127 -52 -149 -140h237z" />
    <glyph glyph-name="egrave" unicode="&#xe8;" horiz-adv-x="516" 
d="M305 716l78 -141h-52l-124 141h98zM152 250c-3 -14 -4 -29 -4 -43c0 -98 50 -158 144 -158c52 0 107 16 151 57h11l-28 -69c-37 -27 -90 -47 -155 -47c-141 0 -219 81 -219 207c0 164 110 290 261 290c119 0 175 -65 175 -177c0 -19 -4 -41 -8 -60h-328zM398 301
c2 9 2 17 2 27c0 70 -27 113 -90 113c-62 0 -127 -52 -149 -140h237z" />
    <glyph glyph-name="emacron" unicode="&#x113;" horiz-adv-x="516" 
d="M496 681l-9 -53h-314l9 53h314zM152 250c-3 -14 -4 -29 -4 -43c0 -98 50 -158 144 -158c52 0 107 16 151 57h11l-28 -69c-37 -27 -90 -47 -155 -47c-141 0 -219 81 -219 207c0 164 110 290 261 290c119 0 175 -65 175 -177c0 -19 -4 -41 -8 -60h-328zM398 301
c2 9 2 17 2 27c0 70 -27 113 -90 113c-62 0 -127 -52 -149 -140h237z" />
    <glyph glyph-name="eogonek" unicode="&#x119;" horiz-adv-x="516" 
d="M284 -184c-45 0 -80 20 -80 60c0 39 26 74 98 116c-11 -2 -24 -2 -31 -2c-141 0 -219 81 -219 207c0 164 110 290 261 290c119 0 175 -65 175 -177c0 -19 -4 -41 -8 -60h-328c-3 -14 -4 -29 -4 -43c0 -98 50 -158 144 -158c52 0 107 16 151 57h11l-28 -69
c-129 -82 -151 -120 -151 -148c0 -17 13 -31 39 -31c20 0 39 7 56 14h7l-19 -40c-20 -10 -47 -16 -74 -16zM161 301h237c2 9 2 17 2 27c0 70 -27 113 -90 113c-62 0 -127 -52 -149 -140z" />
    <glyph glyph-name="uni0259" unicode="&#x259;" horiz-adv-x="520" 
d="M276 487c135 0 207 -77 207 -200c0 -168 -110 -297 -260 -297c-108 0 -169 66 -169 174c0 30 3 58 9 88h324c1 11 1 22 1 33c0 95 -48 143 -132 143c-51 0 -105 -17 -148 -57h-11l29 73c37 24 81 43 150 43zM230 37c76 0 129 72 149 165h-234c-3 -18 -4 -32 -4 -52
c0 -71 32 -113 89 -113z" />
    <glyph glyph-name="f" unicode="f" horiz-adv-x="292" 
d="M362 730c23 0 45 -3 63 -12l-5 -61h-9c-17 12 -31 15 -55 15c-75 0 -102 -60 -121 -182l-2 -13h95l-14 -52h-91l-76 -425h-96l76 425h-71l9 52h72l5 32c23 124 91 221 220 221z" />
    <glyph glyph-name="g" unicode="g" horiz-adv-x="503" 
d="M296 70c120 0 178 -31 178 -102c0 -128 -144 -205 -286 -205c-112 0 -196 36 -196 112c0 47 38 86 92 128c-34 9 -60 34 -60 69c1 26 33 65 96 132c-25 20 -43 50 -43 94c0 112 87 189 201 189c32 0 67 -4 97 -15h158l-14 -49h-96v-4c15 -16 23 -42 23 -72
c0 -105 -85 -180 -204 -180c-36 0 -77 9 -93 19c-20 -29 -36 -60 -37 -79c-1 -26 19 -37 77 -37h107zM168 296c0 -50 29 -84 76 -84c79 0 109 67 109 143c0 54 -31 88 -77 88c-69 0 -108 -76 -108 -147zM190 -187c100 0 188 47 188 124c0 32 -23 44 -60 50
c-32 4 -104 7 -202 8c-29 -29 -44 -63 -44 -102c0 -53 47 -80 118 -80z" />
    <glyph glyph-name="gbreve" unicode="&#x11f;" horiz-adv-x="503" 
d="M233 707c-3 -49 30 -76 81 -76c54 0 95 27 112 76h48c-24 -86 -81 -132 -168 -132s-129 53 -121 132h48zM296 70c120 0 178 -31 178 -102c0 -128 -144 -205 -286 -205c-112 0 -196 36 -196 112c0 47 38 86 92 128c-34 9 -60 34 -60 69c1 26 33 65 96 132
c-25 20 -43 50 -43 94c0 112 87 189 201 189c32 0 67 -4 97 -15h158l-14 -49h-96v-4c15 -16 23 -42 23 -72c0 -105 -85 -180 -204 -180c-36 0 -77 9 -93 19c-20 -29 -36 -60 -37 -79c-1 -26 19 -37 77 -37h107zM168 296c0 -50 29 -84 76 -84c79 0 109 67 109 143
c0 54 -31 88 -77 88c-69 0 -108 -76 -108 -147zM190 -187c100 0 188 47 188 124c0 32 -23 44 -60 50c-32 4 -104 7 -202 8c-29 -29 -44 -63 -44 -102c0 -53 47 -80 118 -80z" />
    <glyph glyph-name="gcircumflex" unicode="&#x11d;" horiz-adv-x="503" 
d="M373 716l83 -141h-51l-80 87l-111 -87h-57l133 141h83zM296 70c120 0 178 -31 178 -102c0 -128 -144 -205 -286 -205c-112 0 -196 36 -196 112c0 47 38 86 92 128c-34 9 -60 34 -60 69c1 26 33 65 96 132c-25 20 -43 50 -43 94c0 112 87 189 201 189c32 0 67 -4 97 -15
h158l-14 -49h-96v-4c15 -16 23 -42 23 -72c0 -105 -85 -180 -204 -180c-36 0 -77 9 -93 19c-20 -29 -36 -60 -37 -79c-1 -26 19 -37 77 -37h107zM168 296c0 -50 29 -84 76 -84c79 0 109 67 109 143c0 54 -31 88 -77 88c-69 0 -108 -76 -108 -147zM190 -187
c100 0 188 47 188 124c0 32 -23 44 -60 50c-32 4 -104 7 -202 8c-29 -29 -44 -63 -44 -102c0 -53 47 -80 118 -80z" />
    <glyph glyph-name="uni0123" unicode="&#x123;" horiz-adv-x="503" 
d="M255 575c14 42 53 103 85 141h47c-24 -52 -36 -98 -45 -141h-87zM296 70c120 0 178 -31 178 -102c0 -128 -144 -205 -286 -205c-112 0 -196 36 -196 112c0 47 38 86 92 128c-34 9 -60 34 -60 69c1 26 33 65 96 132c-25 20 -43 50 -43 94c0 112 87 189 201 189
c32 0 67 -4 97 -15h158l-14 -49h-96v-4c15 -16 23 -42 23 -72c0 -105 -85 -180 -204 -180c-36 0 -77 9 -93 19c-20 -29 -36 -60 -37 -79c-1 -26 19 -37 77 -37h107zM168 296c0 -50 29 -84 76 -84c79 0 109 67 109 143c0 54 -31 88 -77 88c-69 0 -108 -76 -108 -147z
M190 -187c100 0 188 47 188 124c0 32 -23 44 -60 50c-32 4 -104 7 -202 8c-29 -29 -44 -63 -44 -102c0 -53 47 -80 118 -80z" />
    <glyph glyph-name="gdotaccent" unicode="&#x121;" horiz-adv-x="503" 
d="M379 701l-17 -98h-102l17 98h102zM296 70c120 0 178 -31 178 -102c0 -128 -144 -205 -286 -205c-112 0 -196 36 -196 112c0 47 38 86 92 128c-34 9 -60 34 -60 69c1 26 33 65 96 132c-25 20 -43 50 -43 94c0 112 87 189 201 189c32 0 67 -4 97 -15h158l-14 -49h-96v-4
c15 -16 23 -42 23 -72c0 -105 -85 -180 -204 -180c-36 0 -77 9 -93 19c-20 -29 -36 -60 -37 -79c-1 -26 19 -37 77 -37h107zM168 296c0 -50 29 -84 76 -84c79 0 109 67 109 143c0 54 -31 88 -77 88c-69 0 -108 -76 -108 -147zM190 -187c100 0 188 47 188 124
c0 32 -23 44 -60 50c-32 4 -104 7 -202 8c-29 -29 -44 -63 -44 -102c0 -53 47 -80 118 -80z" />
    <glyph glyph-name="h" unicode="h" horiz-adv-x="554" 
d="M351 0l50 292c3 16 8 43 8 60c0 41 -18 71 -67 71c-82 0 -143 -84 -159 -181l-42 -242h-96l126 708l98 12l-62 -343h3c32 56 92 110 169 110c75 0 127 -34 127 -121c0 -17 -2 -38 -6 -62l-54 -304h-95z" />
    <glyph glyph-name="hbar" unicode="&#x127;" horiz-adv-x="554" 
d="M379 487c75 0 127 -34 127 -121c0 -17 -2 -38 -6 -62l-54 -304h-95l50 292c3 16 8 43 8 60c0 41 -18 71 -67 71c-82 0 -143 -84 -159 -181l-42 -242h-96l99 559h-59l9 53h60l17 96l98 12l-20 -108h150l-9 -53h-150l-33 -182h3c32 56 92 110 169 110z" />
    <glyph glyph-name="hcircumflex" unicode="&#x125;" horiz-adv-x="554" 
d="M292 885l86 -129h-53l-80 75l-112 -75h-57l132 129h84zM351 0l50 292c3 16 8 43 8 60c0 41 -18 71 -67 71c-82 0 -143 -84 -159 -181l-42 -242h-96l126 708l98 12l-62 -343h3c32 56 92 110 169 110c75 0 127 -34 127 -121c0 -17 -2 -38 -6 -62l-54 -304h-95z" />
    <glyph glyph-name="i" unicode="i" horiz-adv-x="252" 
d="M165 701h102l-17 -98h-102zM130 477h95l-84 -477h-96z" />
    <glyph glyph-name="dotlessi" unicode="&#x131;" horiz-adv-x="252" 
d="M130 477h95l-84 -477h-96z" />
    <glyph glyph-name="iacute" unicode="&#xed;" horiz-adv-x="252" 
d="M363 716l-172 -141h-58l122 141h108zM130 477h95l-84 -477h-96z" />
    <glyph glyph-name="ibreve" unicode="&#x12d;" horiz-adv-x="252" 
d="M121 707c-3 -49 30 -76 81 -76c54 0 95 27 112 76h48c-24 -86 -81 -132 -168 -132s-129 53 -121 132h48zM130 477h95l-84 -477h-96z" />
    <glyph glyph-name="icircumflex" unicode="&#xee;" horiz-adv-x="252" 
d="M261 716l83 -141h-51l-80 87l-111 -87h-57l133 141h83zM130 477h95l-84 -477h-96z" />
    <glyph glyph-name="idieresis" unicode="&#xef;" horiz-adv-x="252" 
d="M177 699l-16 -95h-94l17 95h93zM350 699l-16 -95h-93l16 95h93zM130 477h95l-84 -477h-96z" />
    <glyph glyph-name="i.loclTRK" horiz-adv-x="252" 
d="M268 701l-17 -98h-102l17 98h102zM130 477h95l-84 -477h-96z" />
    <glyph glyph-name="igrave" unicode="&#xec;" horiz-adv-x="252" 
d="M178 716l78 -141h-52l-124 141h98zM130 477h95l-84 -477h-96z" />
    <glyph glyph-name="ij" unicode="&#x133;" horiz-adv-x="505" 
d="M165 701h102l-17 -98h-102zM518 701l-17 -98h-102l17 98h102zM130 477h95l-84 -477h-96zM479 477l-80 -451c-30 -170 -118 -234 -251 -265l-42 22v9c113 36 172 85 200 240l79 445h94z" />
    <glyph glyph-name="imacron" unicode="&#x12b;" horiz-adv-x="252" 
d="M370 681l-9 -53h-314l9 53h314zM130 477h95l-84 -477h-96z" />
    <glyph glyph-name="iogonek" unicode="&#x12f;" horiz-adv-x="252" 
d="M165 701h102l-17 -98h-102zM45 0l85 477h95l-84 -477c-87 -60 -100 -88 -100 -110c0 -19 13 -32 39 -32c20 0 38 7 55 14h7l-18 -40c-21 -10 -48 -16 -74 -16c-45 0 -80 20 -80 60c0 47 31 78 112 124h-37z" />
    <glyph glyph-name="itilde" unicode="&#x129;" horiz-adv-x="252" 
d="M328 706c-15 -34 -32 -47 -55 -47c-15 0 -31 10 -54 24c-23 15 -43 25 -67 25c-49 0 -84 -44 -103 -107h41c15 34 32 49 55 49c15 0 30 -11 53 -25s43 -24 67 -24c50 0 84 42 103 105h-40zM130 477h95l-84 -477h-96z" />
    <glyph glyph-name="j" unicode="j" horiz-adv-x="253" 
d="M266 701l-17 -98h-102l17 98h102zM227 477l-80 -451c-30 -170 -118 -234 -251 -265l-43 22v9c114 36 173 85 201 240l79 445h94z" />
    <glyph glyph-name="uni0237" unicode="&#x237;" horiz-adv-x="253" 
d="M227 477l-80 -451c-30 -170 -118 -234 -251 -265l-43 22v9c114 36 173 85 201 240l79 445h94z" />
    <glyph glyph-name="jcircumflex" unicode="&#x135;" horiz-adv-x="253" 
d="M263 716l83 -141h-51l-80 87l-111 -87h-57l133 141h83zM227 477l-80 -451c-30 -170 -118 -234 -251 -265l-43 22v9c114 36 173 85 201 240l79 445h94z" />
    <glyph glyph-name="k" unicode="k" horiz-adv-x="490" 
d="M170 708l98 12l-128 -720h-95zM195 255l223 222h94l-225 -208c57 -104 124 -205 172 -264v-5h-115c-43 63 -102 161 -151 247z" />
    <glyph glyph-name="uni0137" unicode="&#x137;" horiz-adv-x="490" 
d="M170 708l98 12l-128 -720h-95zM195 255l223 222h94l-225 -208c57 -104 124 -205 172 -264v-5h-115c-43 63 -102 161 -151 247zM271 -70c-12 -42 -53 -107 -85 -146h-46c24 53 38 103 47 146h84z" />
    <glyph glyph-name="kgreenlandic" unicode="&#x138;" horiz-adv-x="490" 
d="M129 477h95l-84 -477h-95zM195 255l223 222h94l-225 -208c57 -104 124 -205 172 -264v-5h-115c-43 63 -102 161 -150 247z" />
    <glyph glyph-name="l" unicode="l" horiz-adv-x="252" 
d="M170 708l98 12l-128 -720h-95z" />
    <glyph glyph-name="lacute" unicode="&#x13a;" horiz-adv-x="252" 
d="M418 885l-180 -129h-59l126 129h113zM170 708l98 12l-128 -720h-95z" />
    <glyph glyph-name="lcaron" unicode="&#x13e;" horiz-adv-x="252" 
d="M170 708l98 12l-128 -720h-95zM425 720c-24 -82 -65 -156 -95 -194h-47c21 53 45 126 57 194h85z" />
    <glyph glyph-name="uni013C" unicode="&#x13c;" horiz-adv-x="252" 
d="M170 708l98 12l-128 -720h-95zM125 -70c-12 -42 -53 -107 -85 -146h-46c24 53 38 103 47 146h84z" />
    <glyph glyph-name="ldot" unicode="&#x140;" horiz-adv-x="356" 
d="M170 708l98 12l-128 -720h-95zM392 396l-17 -98h-102l17 98h102z" />
    <glyph glyph-name="lslash" unicode="&#x142;" horiz-adv-x="252" 
d="M308 487l-10 -66l-92 -48l-66 -373h-95l57 325l-88 -47l10 66l90 47l56 317l98 12l-50 -280z" />
    <glyph glyph-name="m" unicode="m" horiz-adv-x="848" 
d="M669 487c69 0 131 -30 131 -120c0 -20 -3 -39 -7 -63l-54 -304h-95l50 292c3 16 8 41 8 58c0 41 -17 71 -66 71c-70 0 -131 -69 -147 -143l-50 -278h-95l50 292c3 16 8 41 8 58c0 41 -15 71 -62 71c-83 0 -141 -82 -157 -179l-42 -242h-96l85 477h87l-11 -100h3
c32 56 87 110 163 110c67 0 121 -29 122 -117h2c36 65 98 117 173 117z" />
    <glyph glyph-name="n" unicode="n" horiz-adv-x="555" 
d="M351 0l50 292c3 16 8 41 8 58c0 41 -18 71 -67 71c-82 0 -143 -82 -159 -179l-42 -242h-96l85 477h87l-11 -100h3c32 56 93 110 170 110c76 0 127 -36 127 -123c0 -17 -2 -36 -6 -60l-54 -304h-95z" />
    <glyph glyph-name="nacute" unicode="&#x144;" horiz-adv-x="555" 
d="M514 716l-172 -141h-58l122 141h108zM351 0l50 292c3 16 8 41 8 58c0 41 -18 71 -67 71c-82 0 -143 -82 -159 -179l-42 -242h-96l85 477h87l-11 -100h3c32 56 93 110 170 110c76 0 127 -36 127 -123c0 -17 -2 -36 -6 -60l-54 -304h-95z" />
    <glyph glyph-name="napostrophe" unicode="&#x149;" horiz-adv-x="555" 
d="M194 720c-24 -82 -65 -156 -95 -194h-47c21 53 45 126 57 194h85zM351 0l50 292c3 16 8 41 8 58c0 41 -18 71 -67 71c-82 0 -143 -82 -159 -179l-42 -242h-96l85 477h87l-11 -100h3c32 56 93 110 170 110c76 0 127 -36 127 -123c0 -17 -2 -36 -6 -60l-54 -304h-95z" />
    <glyph glyph-name="ncaron" unicode="&#x148;" horiz-adv-x="555" 
d="M304 575l-83 141h52l79 -87l112 87h56l-133 -141h-83zM351 0l50 292c3 16 8 41 8 58c0 41 -18 71 -67 71c-82 0 -143 -82 -159 -179l-42 -242h-96l85 477h87l-11 -100h3c32 56 93 110 170 110c76 0 127 -36 127 -123c0 -17 -2 -36 -6 -60l-54 -304h-95z" />
    <glyph glyph-name="uni0146" unicode="&#x146;" horiz-adv-x="555" 
d="M351 0l50 292c3 16 8 41 8 58c0 41 -18 71 -67 71c-82 0 -143 -82 -159 -179l-42 -242h-96l85 477h87l-11 -100h3c32 56 93 110 170 110c76 0 127 -36 127 -123c0 -17 -2 -36 -6 -60l-54 -304h-95zM287 -70c-12 -42 -53 -107 -85 -146h-46c24 53 38 103 47 146h84z" />
    <glyph glyph-name="eng" unicode="&#x14b;" horiz-adv-x="555" 
d="M200 -239l-43 22v9c114 36 173 85 200 240l44 260c3 16 8 41 8 58c0 41 -18 71 -67 71c-82 0 -143 -82 -159 -179l-42 -242h-96l85 477h87l-11 -100h3c32 56 93 110 170 110c76 0 127 -36 127 -123c0 -17 -2 -36 -6 -60l-49 -278c-30 -170 -119 -234 -251 -265z" />
    <glyph glyph-name="ntilde" unicode="&#xf1;" horiz-adv-x="555" 
d="M479 706c-15 -34 -32 -47 -55 -47c-15 0 -31 10 -54 24c-23 15 -43 25 -67 25c-49 0 -84 -44 -103 -107h41c15 34 32 49 55 49c15 0 30 -11 53 -25s43 -24 67 -24c50 0 84 42 103 105h-40zM351 0l50 292c3 16 8 41 8 58c0 41 -18 71 -67 71c-82 0 -143 -82 -159 -179
l-42 -242h-96l85 477h87l-11 -100h3c32 56 93 110 170 110c76 0 127 -36 127 -123c0 -17 -2 -36 -6 -60l-54 -304h-95z" />
    <glyph glyph-name="o" unicode="o" horiz-adv-x="568" 
d="M328 487c116 0 204 -65 204 -192c0 -164 -109 -305 -275 -305c-116 0 -201 70 -201 196c0 164 115 301 272 301zM260 44c113 0 173 132 173 251c0 81 -33 140 -109 140c-110 0 -168 -130 -168 -247c0 -80 29 -144 104 -144z" />
    <glyph glyph-name="oacute" unicode="&#xf3;" horiz-adv-x="568" 
d="M518 716l-172 -141h-58l122 141h108zM328 487c116 0 204 -65 204 -192c0 -164 -109 -305 -275 -305c-116 0 -201 70 -201 196c0 164 115 301 272 301zM260 44c113 0 173 132 173 251c0 81 -33 140 -109 140c-110 0 -168 -130 -168 -247c0 -80 29 -144 104 -144z" />
    <glyph glyph-name="obreve" unicode="&#x14f;" horiz-adv-x="568" 
d="M276 707c-3 -49 30 -76 81 -76c54 0 95 27 112 76h48c-24 -86 -81 -132 -168 -132s-129 53 -121 132h48zM328 487c116 0 204 -65 204 -192c0 -164 -109 -305 -275 -305c-116 0 -201 70 -201 196c0 164 115 301 272 301zM260 44c113 0 173 132 173 251
c0 81 -33 140 -109 140c-110 0 -168 -130 -168 -247c0 -80 29 -144 104 -144z" />
    <glyph glyph-name="ocircumflex" unicode="&#xf4;" horiz-adv-x="568" 
d="M416 716l83 -141h-51l-80 87l-111 -87h-57l133 141h83zM328 487c116 0 204 -65 204 -192c0 -164 -109 -305 -275 -305c-116 0 -201 70 -201 196c0 164 115 301 272 301zM260 44c113 0 173 132 173 251c0 81 -33 140 -109 140c-110 0 -168 -130 -168 -247
c0 -80 29 -144 104 -144z" />
    <glyph glyph-name="odieresis" unicode="&#xf6;" horiz-adv-x="568" 
d="M332 699l-16 -95h-94l17 95h93zM505 699l-16 -95h-93l16 95h93zM328 487c116 0 204 -65 204 -192c0 -164 -109 -305 -275 -305c-116 0 -201 70 -201 196c0 164 115 301 272 301zM260 44c113 0 173 132 173 251c0 81 -33 140 -109 140c-110 0 -168 -130 -168 -247
c0 -80 29 -144 104 -144z" />
    <glyph glyph-name="ograve" unicode="&#xf2;" horiz-adv-x="568" 
d="M333 716l78 -141h-52l-124 141h98zM328 487c116 0 204 -65 204 -192c0 -164 -109 -305 -275 -305c-116 0 -201 70 -201 196c0 164 115 301 272 301zM260 44c113 0 173 132 173 251c0 81 -33 140 -109 140c-110 0 -168 -130 -168 -247c0 -80 29 -144 104 -144z" />
    <glyph glyph-name="ohungarumlaut" unicode="&#x151;" horiz-adv-x="568" 
d="M445 716l-165 -141h-56l120 141h101zM610 716l-165 -141h-56l120 141h101zM328 487c116 0 204 -65 204 -192c0 -164 -109 -305 -275 -305c-116 0 -201 70 -201 196c0 164 115 301 272 301zM260 44c113 0 173 132 173 251c0 81 -33 140 -109 140
c-110 0 -168 -130 -168 -247c0 -80 29 -144 104 -144z" />
    <glyph glyph-name="omacron" unicode="&#x14d;" horiz-adv-x="568" 
d="M524 681l-9 -53h-314l9 53h314zM328 487c116 0 204 -65 204 -192c0 -164 -109 -305 -275 -305c-116 0 -201 70 -201 196c0 164 115 301 272 301zM260 44c113 0 173 132 173 251c0 81 -33 140 -109 140c-110 0 -168 -130 -168 -247c0 -80 29 -144 104 -144z" />
    <glyph glyph-name="oslash" unicode="&#xf8;" horiz-adv-x="568" 
d="M563 462l-60 -57c18 -29 29 -66 29 -110c0 -164 -109 -305 -275 -305c-57 0 -106 17 -141 48l-62 -58l-30 33l63 59c-20 30 -31 69 -31 114c0 164 115 301 272 301c58 0 109 -16 145 -48l60 56zM156 188c0 -16 1 -32 4 -46l255 241c-17 32 -47 52 -91 52
c-110 0 -168 -130 -168 -247zM433 295c0 14 -1 28 -3 41l-255 -241c16 -31 44 -51 85 -51c113 0 173 132 173 251z" />
    <glyph glyph-name="oslashacute" unicode="&#x1ff;" horiz-adv-x="568" 
d="M518 716l-172 -141h-58l122 141h108zM563 462l-60 -57c18 -29 29 -66 29 -110c0 -164 -109 -305 -275 -305c-57 0 -106 17 -141 48l-62 -58l-30 33l63 59c-20 30 -31 69 -31 114c0 164 115 301 272 301c58 0 109 -16 145 -48l60 56zM156 188c0 -16 1 -32 4 -46l255 241
c-17 32 -47 52 -91 52c-110 0 -168 -130 -168 -247zM433 295c0 14 -1 28 -3 41l-255 -241c16 -31 44 -51 85 -51c113 0 173 132 173 251z" />
    <glyph glyph-name="otilde" unicode="&#xf5;" horiz-adv-x="568" 
d="M483 706c-15 -34 -32 -47 -55 -47c-15 0 -31 10 -54 24c-23 15 -43 25 -67 25c-49 0 -84 -44 -103 -107h41c15 34 32 49 55 49c15 0 30 -11 53 -25s43 -24 67 -24c50 0 84 42 103 105h-40zM328 487c116 0 204 -65 204 -192c0 -164 -109 -305 -275 -305
c-116 0 -201 70 -201 196c0 164 115 301 272 301zM260 44c113 0 173 132 173 251c0 81 -33 140 -109 140c-110 0 -168 -130 -168 -247c0 -80 29 -144 104 -144z" />
    <glyph glyph-name="oe" unicode="&#x153;" horiz-adv-x="892" 
d="M257 -10c-116 0 -201 70 -201 196c0 164 115 301 269 301c82 0 143 -33 172 -97h2c36 56 108 97 188 97c119 0 176 -65 176 -177c0 -19 -3 -41 -8 -60h-328c-2 -14 -3 -29 -3 -43c0 -98 49 -158 143 -158c52 0 108 16 151 57h12l-28 -69c-38 -27 -91 -47 -155 -47
c-99 0 -156 44 -184 104h-2c-38 -59 -115 -104 -204 -104zM536 301h237c2 9 3 17 3 27c0 70 -29 113 -92 113c-62 0 -126 -52 -148 -140zM260 44c113 0 173 132 173 251c0 81 -33 140 -109 140c-110 0 -168 -130 -168 -247c0 -80 29 -144 104 -144z" />
    <glyph glyph-name="p" unicode="p" horiz-adv-x="571" 
d="M101 -223h-95l123 700h91l-13 -91h2c32 54 85 101 165 101c117 0 164 -84 164 -189c0 -154 -92 -308 -258 -308c-63 0 -106 35 -127 77h-2zM345 430c-103 0 -176 -140 -179 -248c-2 -88 41 -136 107 -136c112 0 165 138 165 250c0 90 -35 134 -93 134z" />
    <glyph glyph-name="thorn" unicode="&#xfe;" horiz-adv-x="571" 
d="M101 -223h-95l164 931l97 12l-62 -335h2c32 54 86 102 166 102c115 0 163 -83 163 -187c0 -156 -92 -310 -258 -310c-64 0 -106 33 -126 79h-2zM342 430c-103 0 -177 -141 -179 -248c-2 -88 41 -136 107 -136c111 0 166 136 166 249c0 90 -35 135 -94 135z" />
    <glyph glyph-name="q" unicode="q" horiz-adv-x="571" 
d="M462 477h88l-128 -700h-96l61 313h-2c-33 -53 -91 -100 -171 -100c-115 0 -161 79 -161 183c0 156 93 314 261 314c59 0 106 -31 126 -77h2zM248 47c101 0 175 138 177 247c3 86 -32 137 -103 137c-112 0 -169 -138 -169 -252c0 -90 35 -132 95 -132z" />
    <glyph glyph-name="r" unicode="r" horiz-adv-x="346" 
d="M129 477h89l-19 -125h3c35 70 101 138 174 137l-21 -86c-92 -1 -156 -75 -173 -174l-41 -229h-96z" />
    <glyph glyph-name="racute" unicode="&#x155;" horiz-adv-x="346" 
d="M414 716l-172 -141h-58l122 141h108zM129 477h89l-19 -125h3c35 70 101 138 174 137l-21 -86c-92 -1 -156 -75 -173 -174l-41 -229h-96z" />
    <glyph glyph-name="rcaron" unicode="&#x159;" horiz-adv-x="346" 
d="M204 575l-83 141h52l79 -87l112 87h56l-133 -141h-83zM129 477h89l-19 -125h3c35 70 101 138 174 137l-21 -86c-92 -1 -156 -75 -173 -174l-41 -229h-96z" />
    <glyph glyph-name="uni0157" unicode="&#x157;" horiz-adv-x="346" 
d="M129 477h89l-19 -125h3c35 70 101 138 174 137l-21 -86c-92 -1 -156 -75 -173 -174l-41 -229h-96zM124 -70c-12 -42 -53 -107 -85 -146h-46c24 53 38 103 47 146h84z" />
    <glyph glyph-name="s" unicode="s" horiz-adv-x="377" 
d="M350 399c-21 23 -61 40 -96 40c-45 0 -78 -24 -78 -63c0 -30 11 -46 64 -94c62 -54 89 -93 89 -146c0 -94 -81 -144 -169 -144c-52 0 -97 14 -133 38l-10 77h11c33 -36 75 -62 127 -62c53 0 83 30 83 72c0 41 -17 62 -72 111c-59 53 -75 78 -75 124c0 84 77 135 162 135
c39 0 70 -6 98 -20l9 -69z" />
    <glyph glyph-name="sacute" unicode="&#x15b;" horiz-adv-x="377" 
d="M413 716l-172 -141h-58l122 141h108zM350 399c-21 23 -61 40 -96 40c-45 0 -78 -24 -78 -63c0 -30 11 -46 64 -94c62 -54 89 -93 89 -146c0 -94 -81 -144 -169 -144c-52 0 -97 14 -133 38l-10 77h11c33 -36 75 -62 127 -62c53 0 83 30 83 72c0 41 -17 62 -72 111
c-59 53 -75 78 -75 124c0 84 77 135 162 135c39 0 70 -6 98 -20l9 -69z" />
    <glyph glyph-name="scaron" unicode="&#x161;" horiz-adv-x="377" 
d="M203 575l-83 141h52l79 -87l112 87h56l-133 -141h-83zM350 399c-21 23 -61 40 -96 40c-45 0 -78 -24 -78 -63c0 -30 11 -46 64 -94c62 -54 89 -93 89 -146c0 -94 -81 -144 -169 -144c-52 0 -97 14 -133 38l-10 77h11c33 -36 75 -62 127 -62c53 0 83 30 83 72
c0 41 -17 62 -72 111c-59 53 -75 78 -75 124c0 84 77 135 162 135c39 0 70 -6 98 -20l9 -69z" />
    <glyph glyph-name="scedilla" unicode="&#x15f;" horiz-adv-x="377" 
d="M351 467l9 -69l-10 1c-21 23 -61 40 -96 40c-45 0 -78 -24 -78 -63c0 -30 11 -46 64 -94c62 -54 89 -93 89 -146c0 -88 -71 -138 -153 -143l-25 -39l11 -3c33 -9 58 -30 58 -66c0 -71 -78 -104 -166 -104l-13 34l4 4c61 1 106 19 106 57c0 26 -28 36 -63 42v6l47 69
c-41 4 -78 17 -108 37l-10 77h11c33 -36 75 -62 127 -62c53 0 83 30 83 72c0 41 -17 62 -72 111c-59 53 -75 78 -75 124c0 84 77 135 162 135c39 0 70 -6 98 -20z" />
    <glyph glyph-name="scircumflex" unicode="&#x15d;" horiz-adv-x="377" 
d="M310 716l83 -141h-51l-80 87l-111 -87h-57l133 141h83zM350 399c-21 23 -61 40 -96 40c-45 0 -78 -24 -78 -63c0 -30 11 -46 64 -94c62 -54 89 -93 89 -146c0 -94 -81 -144 -169 -144c-52 0 -97 14 -133 38l-10 77h11c33 -36 75 -62 127 -62c53 0 83 30 83 72
c0 41 -17 62 -72 111c-59 53 -75 78 -75 124c0 84 77 135 162 135c39 0 70 -6 98 -20l9 -69z" />
    <glyph glyph-name="uni0219" unicode="&#x219;" horiz-adv-x="377" 
d="M350 399c-21 23 -61 40 -96 40c-45 0 -78 -24 -78 -63c0 -30 11 -46 64 -94c62 -54 89 -93 89 -146c0 -94 -81 -144 -169 -144c-52 0 -97 14 -133 38l-10 77h11c33 -36 75 -62 127 -62c53 0 83 30 83 72c0 41 -17 62 -72 111c-59 53 -75 78 -75 124c0 84 77 135 162 135
c39 0 70 -6 98 -20l9 -69zM191 -70c-12 -42 -53 -107 -85 -146h-46c24 53 38 103 47 146h84z" />
    <glyph glyph-name="germandbls" unicode="&#xdf;" horiz-adv-x="579" 
d="M361 -8c-48 0 -87 14 -123 38l-10 77h11c34 -36 69 -62 119 -62c48 0 89 38 89 105c0 40 -18 69 -71 125c-43 46 -71 83 -71 130c0 93 141 123 141 205c0 40 -30 62 -78 62c-68 0 -117 -52 -136 -158l-91 -514h-99l90 511c25 135 99 219 238 219c109 0 166 -43 166 -112
c0 -108 -143 -114 -143 -192c0 -30 24 -53 64 -96c54 -59 83 -105 83 -165c0 -108 -82 -173 -179 -173z" />
    <glyph glyph-name="longs" unicode="&#x17f;" horiz-adv-x="292" 
d="M362 730c23 0 45 -3 63 -12l-5 -61h-9c-17 12 -31 15 -55 15c-76 0 -101 -64 -122 -185l-87 -487h-96l76 425h-71l9 52h72l5 31c23 124 91 222 220 222z" />
    <glyph glyph-name="t" unicode="t" horiz-adv-x="314" 
d="M165 129c-2 -11 -4 -25 -4 -35c0 -33 17 -46 45 -46c26 0 51 5 78 20l-12 -46c-27 -18 -65 -30 -104 -30c-66 0 -103 25 -103 87c0 13 2 22 4 37l55 309h-69l9 52h69l22 124l96 11l-24 -135h124l-15 -52h-118z" />
    <glyph glyph-name="tbar" unicode="&#x167;" horiz-adv-x="314" 
d="M336 425h-118l-19 -106h97l-8 -49h-98l-25 -141c-2 -11 -4 -25 -4 -35c0 -33 17 -46 45 -46c26 0 51 5 78 20l-12 -46c-27 -18 -65 -30 -104 -30c-66 0 -103 25 -103 87c0 13 2 22 4 37l27 154h-68l8 49h69l19 106h-69l9 52h69l22 124l96 11l-24 -135h124z" />
    <glyph glyph-name="tcaron" unicode="&#x165;" horiz-adv-x="314" 
d="M426 720c-24 -82 -65 -156 -95 -194h-47c21 53 45 126 57 194h85zM165 129c-2 -11 -4 -25 -4 -35c0 -33 17 -46 45 -46c26 0 51 5 78 20l-12 -46c-27 -18 -65 -30 -104 -30c-66 0 -103 25 -103 87c0 13 2 22 4 37l55 309h-69l9 52h69l22 124l96 11l-24 -135h124l-15 -52
h-118z" />
    <glyph glyph-name="uni0163" unicode="&#x163;" horiz-adv-x="314" 
d="M218 425l-53 -296c-2 -11 -4 -25 -4 -35c0 -33 17 -46 45 -46c26 0 51 5 78 20l-12 -46c-27 -18 -65 -30 -104 -30h-8l-25 -38l11 -3c33 -9 58 -30 58 -66c0 -71 -78 -104 -166 -104l-13 34l4 4c61 1 106 19 106 57c0 26 -28 36 -63 42v6l50 73c-37 11 -57 36 -57 82
c0 13 2 22 4 37l55 309h-69l9 52h69l22 124l96 11l-24 -135h124l-15 -52h-118z" />
    <glyph glyph-name="uni021B" unicode="&#x21b;" horiz-adv-x="314" 
d="M165 129c-2 -11 -4 -25 -4 -35c0 -33 17 -46 45 -46c26 0 51 5 78 20l-12 -46c-27 -18 -65 -30 -104 -30c-66 0 -103 25 -103 87c0 13 2 22 4 37l55 309h-69l9 52h69l22 124l96 11l-24 -135h124l-15 -52h-118zM176 -70c-12 -42 -53 -107 -85 -146h-46
c24 53 38 103 47 146h84z" />
    <glyph glyph-name="u" unicode="u" horiz-adv-x="545" 
d="M215 477l-51 -294c-3 -16 -7 -41 -7 -58c0 -41 17 -71 66 -71c81 0 139 83 156 179l42 244h96l-85 -477h-88l11 99h-3c-32 -57 -89 -109 -163 -109c-69 0 -130 28 -130 118c0 20 3 39 7 63l54 306h95z" />
    <glyph glyph-name="uacute" unicode="&#xfa;" horiz-adv-x="545" 
d="M504 716l-172 -141h-58l122 141h108zM215 477l-51 -294c-3 -16 -7 -41 -7 -58c0 -41 17 -71 66 -71c81 0 139 83 156 179l42 244h96l-85 -477h-88l11 99h-3c-32 -57 -89 -109 -163 -109c-69 0 -130 28 -130 118c0 20 3 39 7 63l54 306h95z" />
    <glyph glyph-name="ubreve" unicode="&#x16d;" horiz-adv-x="545" 
d="M262 707c-3 -49 30 -76 81 -76c54 0 95 27 112 76h48c-24 -86 -81 -132 -168 -132s-129 53 -121 132h48zM215 477l-51 -294c-3 -16 -7 -41 -7 -58c0 -41 17 -71 66 -71c81 0 139 83 156 179l42 244h96l-85 -477h-88l11 99h-3c-32 -57 -89 -109 -163 -109
c-69 0 -130 28 -130 118c0 20 3 39 7 63l54 306h95z" />
    <glyph glyph-name="ucircumflex" unicode="&#xfb;" horiz-adv-x="545" 
d="M402 716l83 -141h-51l-80 87l-111 -87h-57l133 141h83zM215 477l-51 -294c-3 -16 -7 -41 -7 -58c0 -41 17 -71 66 -71c81 0 139 83 156 179l42 244h96l-85 -477h-88l11 99h-3c-32 -57 -89 -109 -163 -109c-69 0 -130 28 -130 118c0 20 3 39 7 63l54 306h95z" />
    <glyph glyph-name="udieresis" unicode="&#xfc;" horiz-adv-x="545" 
d="M318 699l-16 -95h-94l17 95h93zM491 699l-16 -95h-93l16 95h93zM215 477l-51 -294c-3 -16 -7 -41 -7 -58c0 -41 17 -71 66 -71c81 0 139 83 156 179l42 244h96l-85 -477h-88l11 99h-3c-32 -57 -89 -109 -163 -109c-69 0 -130 28 -130 118c0 20 3 39 7 63l54 306h95z" />
    <glyph glyph-name="ugrave" unicode="&#xf9;" horiz-adv-x="545" 
d="M319 716l78 -141h-52l-124 141h98zM215 477l-51 -294c-3 -16 -7 -41 -7 -58c0 -41 17 -71 66 -71c81 0 139 83 156 179l42 244h96l-85 -477h-88l11 99h-3c-32 -57 -89 -109 -163 -109c-69 0 -130 28 -130 118c0 20 3 39 7 63l54 306h95z" />
    <glyph glyph-name="uhungarumlaut" unicode="&#x171;" horiz-adv-x="545" 
d="M432 716l-165 -141h-56l120 141h101zM597 716l-165 -141h-56l120 141h101zM215 477l-51 -294c-3 -16 -7 -41 -7 -58c0 -41 17 -71 66 -71c81 0 139 83 156 179l42 244h96l-85 -477h-88l11 99h-3c-32 -57 -89 -109 -163 -109c-69 0 -130 28 -130 118c0 20 3 39 7 63
l54 306h95z" />
    <glyph glyph-name="umacron" unicode="&#x16b;" horiz-adv-x="545" 
d="M511 681l-9 -53h-314l9 53h314zM215 477l-51 -294c-3 -16 -7 -41 -7 -58c0 -41 17 -71 66 -71c81 0 139 83 156 179l42 244h96l-85 -477h-88l11 99h-3c-32 -57 -89 -109 -163 -109c-69 0 -130 28 -130 118c0 20 3 39 7 63l54 306h95z" />
    <glyph glyph-name="uogonek" unicode="&#x173;" horiz-adv-x="545" 
d="M59 108c0 20 3 39 7 63l54 306h95l-51 -294c-3 -16 -7 -41 -7 -58c0 -41 17 -71 66 -71c81 0 139 83 156 179l42 244h96l-85 -477c-86 -47 -122 -82 -122 -110c0 -19 14 -32 40 -32c19 0 38 7 55 14h7l-18 -40c-21 -10 -48 -16 -75 -16c-45 0 -79 20 -79 60
c0 54 54 92 128 124h-24l11 99h-3c-32 -57 -89 -109 -163 -109c-69 0 -130 28 -130 118z" />
    <glyph glyph-name="uring" unicode="&#x16f;" horiz-adv-x="545" 
d="M337 550c-61 0 -99 39 -99 90c0 68 51 122 124 122c60 0 99 -37 99 -90c0 -68 -52 -122 -124 -122zM339 585c46 0 77 40 77 85c0 30 -19 57 -57 57c-43 0 -76 -37 -76 -84c0 -32 20 -58 56 -58zM215 477l-51 -294c-3 -16 -7 -41 -7 -58c0 -41 17 -71 66 -71
c81 0 139 83 156 179l42 244h96l-85 -477h-88l11 99h-3c-32 -57 -89 -109 -163 -109c-69 0 -130 28 -130 118c0 20 3 39 7 63l54 306h95z" />
    <glyph glyph-name="utilde" unicode="&#x169;" horiz-adv-x="545" 
d="M469 706c-15 -34 -32 -47 -55 -47c-15 0 -31 10 -54 24c-23 15 -43 25 -67 25c-49 0 -84 -44 -103 -107h41c15 34 32 49 55 49c15 0 30 -11 53 -25s43 -24 67 -24c50 0 84 42 103 105h-40zM215 477l-51 -294c-3 -16 -7 -41 -7 -58c0 -41 17 -71 66 -71
c81 0 139 83 156 179l42 244h96l-85 -477h-88l11 99h-3c-32 -57 -89 -109 -163 -109c-69 0 -130 28 -130 118c0 20 3 39 7 63l54 306h95z" />
    <glyph glyph-name="v" unicode="v" horiz-adv-x="443" 
d="M492 477l-282 -477h-73l-80 477h100l54 -370h3l202 370h76z" />
    <glyph glyph-name="w" unicode="w" horiz-adv-x="757" 
d="M717 477h77l-251 -477h-73l-63 360h-5l-195 -360h-73l-64 477h98l41 -366h3l197 366h64l65 -366h3z" />
    <glyph glyph-name="wacute" unicode="&#x1e83;" horiz-adv-x="757" 
d="M626 716l-172 -141h-58l122 141h108zM717 477h77l-251 -477h-73l-63 360h-5l-195 -360h-73l-64 477h98l41 -366h3l197 366h64l65 -366h3z" />
    <glyph glyph-name="wcircumflex" unicode="&#x175;" horiz-adv-x="757" 
d="M524 716l83 -141h-51l-80 87l-111 -87h-57l133 141h83zM717 477h77l-251 -477h-73l-63 360h-5l-195 -360h-73l-64 477h98l41 -366h3l197 366h64l65 -366h3z" />
    <glyph glyph-name="wdieresis" unicode="&#x1e85;" horiz-adv-x="757" 
d="M440 699l-16 -95h-94l17 95h93zM613 699l-16 -95h-93l16 95h93zM717 477h77l-251 -477h-73l-63 360h-5l-195 -360h-73l-64 477h98l41 -366h3l197 366h64l65 -366h3z" />
    <glyph glyph-name="wgrave" unicode="&#x1e81;" horiz-adv-x="757" 
d="M441 716l78 -141h-52l-124 141h98zM717 477h77l-251 -477h-73l-63 360h-5l-195 -360h-73l-64 477h98l41 -366h3l197 366h64l65 -366h3z" />
    <glyph glyph-name="x" unicode="x" horiz-adv-x="456" 
d="M-23 0l206 245l-106 232h100l76 -178h5l141 178h75l-191 -226l115 -251h-101l-83 193h-5l-156 -193h-76z" />
    <glyph glyph-name="y" unicode="y" horiz-adv-x="455" 
d="M83 -223h-95c62 78 125 167 175 247l-108 453h100l76 -354h3c65 115 136 253 185 354h76c-132 -240 -305 -535 -412 -700z" />
    <glyph glyph-name="yacute" unicode="&#xfd;" horiz-adv-x="455" 
d="M461 716l-172 -141h-58l122 141h108zM83 -223h-95c62 78 125 167 175 247l-108 453h100l76 -354h3c65 115 136 253 185 354h76c-132 -240 -305 -535 -412 -700z" />
    <glyph glyph-name="ycircumflex" unicode="&#x177;" horiz-adv-x="455" 
d="M358 716l83 -141h-51l-80 87l-111 -87h-57l133 141h83zM83 -223h-95c62 78 125 167 175 247l-108 453h100l76 -354h3c65 115 136 253 185 354h76c-132 -240 -305 -535 -412 -700z" />
    <glyph glyph-name="ydieresis" unicode="&#xff;" horiz-adv-x="455" 
d="M275 699l-16 -95h-94l17 95h93zM448 699l-16 -95h-93l16 95h93zM83 -223h-95c62 78 125 167 175 247l-108 453h100l76 -354h3c65 115 136 253 185 354h76c-132 -240 -305 -535 -412 -700z" />
    <glyph glyph-name="ygrave" unicode="&#x1ef3;" horiz-adv-x="455" 
d="M276 716l78 -141h-52l-124 141h98zM83 -223h-95c62 78 125 167 175 247l-108 453h100l76 -354h3c65 115 136 253 185 354h76c-132 -240 -305 -535 -412 -700z" />
    <glyph glyph-name="z" unicode="z" horiz-adv-x="464" 
d="M125 477h356l-3 -18l-347 -400l-1 -6c200 0 254 1 308 13h6l-50 -66h-408l3 19l350 401l1 6h-247z" />
    <glyph glyph-name="zacute" unicode="&#x17a;" horiz-adv-x="464" 
d="M470 716l-172 -141h-58l122 141h108zM125 477h356l-3 -18l-347 -400l-1 -6c200 0 254 1 308 13h6l-50 -66h-408l3 19l350 401l1 6h-247z" />
    <glyph glyph-name="zcaron" unicode="&#x17e;" horiz-adv-x="464" 
d="M260 575l-83 141h52l79 -87l112 87h56l-133 -141h-83zM125 477h356l-3 -18l-347 -400l-1 -6c200 0 254 1 308 13h6l-50 -66h-408l3 19l350 401l1 6h-247z" />
    <glyph glyph-name="zdotaccent" unicode="&#x17c;" horiz-adv-x="464" 
d="M374 701l-17 -98h-102l17 98h102zM125 477h356l-3 -18l-347 -400l-1 -6c200 0 254 1 308 13h6l-50 -66h-408l3 19l350 401l1 6h-247z" />
    <glyph glyph-name="ordfeminine" unicode="&#xaa;" horiz-adv-x="390" 
d="M288 349l-3 48c-30 -36 -66 -55 -110 -55c-60 0 -92 31 -92 80c0 60 44 93 112 109c95 22 115 27 119 41c2 7 3 14 3 21c0 38 -29 54 -69 54c-33 0 -66 -10 -99 -38h-9l12 52c33 20 73 31 111 31c84 0 127 -37 127 -93c0 -9 -1 -20 -3 -31l-27 -155c-4 -21 -7 -43 -6 -64
h-66zM204 385c35 0 76 30 89 69l12 72c-120 -22 -147 -53 -147 -97c0 -27 17 -44 46 -44z" />
    <glyph glyph-name="ordmasculine" unicode="&#xba;" horiz-adv-x="446" 
d="M255 342c-87 0 -152 47 -152 140c0 120 77 210 196 210c86 0 151 -45 151 -137c0 -120 -76 -213 -195 -213zM257 384c74 0 113 94 113 174c0 58 -30 93 -74 93c-77 0 -113 -94 -113 -172c0 -59 31 -95 74 -95z" />
    <glyph glyph-name="uni207F" unicode="&#x207f;" horiz-adv-x="423" 
d="M311 349l37 210c2 11 3 22 3 31c0 32 -18 49 -48 49c-51 0 -92 -48 -105 -119l-30 -171h-80l59 336h73l-8 -70h2c27 49 70 77 121 77c60 0 96 -35 96 -94c0 -11 -1 -21 -3 -34l-38 -215h-79z" />
    <glyph glyph-name="uni0394" unicode="&#x394;" horiz-adv-x="684" 
d="M19 0v42l280 628l77 11l270 -644v-37h-627zM100 60h425l-207 501h-5z" />
    <glyph glyph-name="uni03A9" unicode="&#x3a9;" horiz-adv-x="807" 
d="M749 363c0 -123 -57 -215 -169 -287v-5h179v-71h-265v71c112 79 139 159 139 290c0 146 -83 271 -225 271c-143 0 -228 -117 -228 -270c0 -125 22 -210 141 -291v-71h-267v71h175v5c-107 67 -165 159 -165 287c0 188 150 328 344 328c196 0 341 -151 341 -328z" />
    <glyph glyph-name="uni03BC" unicode="&#x3bc;" 
d="M194 477v-297c0 -64 15 -120 81 -120c84 0 132 81 132 177v240h98v-477h-92l-6 102h-3c-23 -57 -54 -112 -129 -112c-33 0 -65 17 -78 37h-4v-177h-98v627h99z" />
    <glyph glyph-name="pi" unicode="&#x3c0;" 
d="M532 48c26 0 41 7 65 23l-4 -47c-23 -18 -50 -32 -88 -32c-77 0 -118 30 -118 123v300h-172v-415h-99v415h-89v62h555l-5 -62h-92v-288c0 -53 13 -79 47 -79z" />
    <glyph glyph-name="uni2099" unicode="&#x2099;" horiz-adv-x="423" 
d="M250 0l36 210c2 11 4 22 4 31c0 32 -19 49 -48 49c-52 0 -93 -48 -106 -119l-30 -171h-79l59 336h72l-7 -70h2c26 49 69 77 120 77c61 0 96 -35 96 -94c0 -11 -1 -21 -3 -34l-37 -215h-79z" />
    <glyph glyph-name="zero" unicode="0" horiz-adv-x="580" 
d="M379 692c128 0 191 -95 191 -250c0 -217 -110 -455 -312 -455c-127 0 -196 91 -196 245c0 215 119 460 317 460zM371 632c-133 0 -204 -252 -204 -418c0 -100 29 -166 98 -166c134 0 199 246 199 412c0 104 -27 172 -93 172z" />
    <glyph glyph-name="one" unicode="1" horiz-adv-x="580" 
d="M325 0h-98l103 590l-160 -67l10 64l211 93h55z" />
    <glyph glyph-name="two" unicode="2" horiz-adv-x="580" 
d="M14 0l7 37l132 111c153 130 292 258 294 376c0 57 -34 102 -98 102c-54 0 -110 -21 -164 -66h-10l22 77c54 35 107 55 172 55c122 0 187 -68 187 -160c-1 -133 -133 -244 -303 -380l-77 -62l-1 -4h169c83 0 131 0 172 5h10l-55 -91h-457z" />
    <glyph glyph-name="three" unicode="3" horiz-adv-x="580" 
d="M389 221c0 82 -54 119 -151 119h-31l17 59h19c110 0 175 52 176 141c1 55 -35 91 -102 91c-39 0 -87 -10 -134 -40h-10l21 66c49 24 100 35 149 35c102 0 178 -48 176 -143c-1 -86 -48 -140 -128 -171l-1 -5c58 -19 105 -69 104 -144c-3 -156 -126 -241 -281 -241
c-68 0 -138 21 -179 54l-1 83h10c45 -46 106 -68 168 -68c97 0 177 61 178 164z" />
    <glyph glyph-name="four" unicode="4" horiz-adv-x="580" 
d="M463 265h111l-25 -74h-99l-34 -191h-96l33 191h-327l6 40l423 449h82zM366 265l52 294h-7l-263 -289l-1 -5h219z" />
    <glyph glyph-name="five" unicode="5" horiz-adv-x="580" 
d="M416 235c1 70 -41 128 -125 128c-41 0 -84 -13 -118 -35l-45 9l110 343h323l-29 -87h-247l-62 -184c33 11 62 16 91 16c115 0 206 -56 205 -182c-2 -164 -126 -255 -287 -255c-65 0 -137 20 -180 56l2 82h10c41 -43 101 -68 167 -68c105 0 183 69 185 177z" />
    <glyph glyph-name="six" unicode="6" horiz-adv-x="580" 
d="M212 364c34 32 83 55 142 55c111 0 184 -72 183 -183c-2 -147 -115 -248 -261 -248c-129 0 -214 79 -213 206c2 234 218 452 446 499l36 -39c-143 -33 -290 -166 -337 -290h4zM168 182c-1 -72 35 -138 113 -138c95 0 149 93 149 188c1 69 -33 132 -105 132
c-93 0 -156 -80 -157 -182z" />
    <glyph glyph-name="seven" unicode="7" horiz-adv-x="580" 
d="M79 0c121 187 269 402 399 593h-345l29 87h438l-6 -28c-128 -196 -300 -462 -415 -652h-100z" />
    <glyph glyph-name="eight" unicode="8" horiz-adv-x="580" 
d="M399 379v-3c72 -44 131 -97 130 -177c-1 -139 -129 -211 -266 -211c-114 0 -212 57 -211 166c1 107 85 168 188 209l1 3c-63 41 -93 81 -93 146c1 121 123 180 228 180c99 0 172 -53 171 -140c-1 -84 -57 -133 -148 -173zM468 543c2 56 -32 98 -96 98
c-59 0 -126 -35 -126 -115c-1 -52 35 -85 101 -121c78 33 120 72 121 138zM423 182c1 70 -55 112 -134 151c-93 -40 -149 -89 -150 -173c-1 -69 58 -117 130 -117c89 0 154 52 154 139z" />
    <glyph glyph-name="nine" unicode="9" horiz-adv-x="580" 
d="M427 335c-28 -30 -78 -55 -136 -55c-108 0 -191 59 -190 169c2 147 118 243 262 243c128 0 206 -84 206 -206c0 -235 -211 -452 -456 -500l-37 46c180 48 317 186 355 303h-4zM468 510c0 67 -40 126 -110 126c-92 0 -149 -86 -150 -183c-1 -67 36 -116 102 -116
c79 0 158 58 158 173z" />
    <glyph glyph-name="zero.lf" horiz-adv-x="606" 
d="M390 692c128 0 191 -95 191 -250c0 -217 -110 -455 -312 -455c-128 0 -196 91 -196 245c0 215 119 460 317 460zM381 632c-132 0 -203 -252 -203 -418c0 -100 28 -166 97 -166c135 0 200 246 200 412c0 104 -27 172 -94 172z" />
    <glyph glyph-name="one.lf" horiz-adv-x="411" 
d="M259 0h-99l104 590l-160 -67l10 64l211 93h54z" />
    <glyph glyph-name="two.lf" horiz-adv-x="559" 
d="M-8 0l7 37l133 111c153 130 292 258 293 376c1 57 -33 102 -98 102c-54 0 -109 -21 -164 -66h-10l23 77c53 35 106 55 171 55c122 0 188 -68 187 -160c0 -133 -132 -244 -302 -380l-78 -62l-1 -4h169c84 0 131 0 172 5h10l-54 -91h-458z" />
    <glyph glyph-name="three.lf" horiz-adv-x="518" 
d="M356 221c1 82 -53 119 -150 119h-31l17 59h19c110 0 175 52 176 141c1 55 -35 91 -102 91c-40 0 -87 -10 -134 -40h-10l20 66c50 24 101 35 149 35c103 0 178 -48 177 -143c-1 -86 -48 -140 -128 -171l-1 -5c58 -19 105 -69 103 -144c-2 -156 -125 -241 -281 -241
c-67 0 -137 21 -178 54l-1 83h10c45 -46 106 -68 168 -68c97 0 177 61 177 164z" />
    <glyph glyph-name="four.lf" horiz-adv-x="594" 
d="M461 265h112l-25 -74h-99l-34 -191h-97l34 191h-327l6 40l422 449h83zM365 265l52 294h-7l-263 -289l-1 -5h219z" />
    <glyph glyph-name="five.lf" horiz-adv-x="533" 
d="M382 235c1 70 -41 128 -125 128c-41 0 -84 -13 -118 -35l-45 9l110 343h323l-29 -87h-247l-62 -184c33 11 62 16 91 16c115 0 206 -56 205 -182c-2 -164 -126 -255 -287 -255c-65 0 -137 20 -180 56l2 82h10c41 -43 101 -68 167 -68c105 0 183 69 185 177z" />
    <glyph glyph-name="six.lf" horiz-adv-x="583" 
d="M211 364c33 32 82 55 141 55c112 0 184 -72 183 -183c-2 -147 -114 -248 -261 -248c-129 0 -213 79 -212 206c2 234 217 452 445 499l36 -39c-142 -33 -289 -166 -336 -290h4zM166 182c0 -72 36 -138 114 -138c95 0 148 93 149 188c0 69 -33 132 -105 132
c-94 0 -157 -80 -158 -182z" />
    <glyph glyph-name="seven.lf" horiz-adv-x="553" 
d="M72 0c121 187 269 402 399 593h-345l28 87h439l-6 -28c-129 -196 -300 -462 -415 -652h-100z" />
    <glyph glyph-name="eight.lf" horiz-adv-x="581" 
d="M396 379v-3c72 -44 131 -97 130 -177c-1 -139 -129 -211 -266 -211c-114 0 -212 57 -211 166c1 107 85 168 188 209l1 3c-63 41 -94 81 -93 146c1 121 123 180 228 180c99 0 172 -53 171 -140c-1 -84 -57 -133 -148 -173zM465 543c1 56 -33 98 -97 98
c-58 0 -125 -35 -126 -115c0 -52 36 -85 102 -121c78 33 120 72 121 138zM420 182c1 70 -55 112 -134 151c-94 -40 -149 -89 -150 -173c-2 -69 58 -117 130 -117c89 0 154 52 154 139z" />
    <glyph glyph-name="nine.lf" horiz-adv-x="583" 
d="M426 335c-29 -30 -78 -55 -136 -55c-108 0 -192 59 -190 169c2 147 117 243 261 243c129 0 207 -84 207 -206c0 -235 -211 -452 -457 -500l-36 46c179 48 317 186 355 303h-4zM467 510c0 67 -41 126 -110 126c-92 0 -150 -86 -150 -183c-1 -67 36 -116 102 -116
c79 0 158 58 158 173z" />
    <glyph glyph-name="zero.ss01" unicode="&#x1e00;" horiz-adv-x="706" 
d="M429 706c147 0 228 -104 228 -266c0 -228 -113 -452 -330 -452c-149 0 -232 98 -232 261c0 230 121 457 334 457zM427 645c-150 0 -224 -235 -224 -412c0 -115 42 -183 128 -183c148 0 217 227 217 404c0 115 -40 191 -121 191z" />
    <glyph glyph-name="one.ss01" unicode="&#x1e01;" horiz-adv-x="508" 
d="M210 0l106 603l-193 -79l11 69l234 101h64l-122 -694h-100z" />
    <glyph glyph-name="two.ss01" unicode="&#x1e02;" horiz-adv-x="670" 
d="M3 0l7 39l162 114c190 135 333 254 333 372c0 69 -47 110 -124 110c-66 0 -140 -28 -203 -82h-12l23 82c60 43 135 71 216 71c143 0 214 -76 214 -169c0 -149 -149 -257 -340 -383l-94 -63l-1 -4h191c100 0 159 4 199 13h13l-52 -100h-532z" />
    <glyph glyph-name="three.ss01" unicode="&#x1e03;" horiz-adv-x="599" 
d="M427 227c0 77 -64 116 -182 116h-52l19 65h47c125 0 202 49 202 138c0 64 -53 93 -130 93c-53 0 -117 -16 -169 -49h-11l22 74c54 28 117 42 179 42c127 0 216 -50 216 -147c0 -88 -50 -150 -149 -179l-1 -7c72 -22 116 -68 116 -145c0 -151 -132 -240 -298 -240
c-84 0 -174 25 -216 63l-6 88h13c50 -52 134 -80 210 -80c113 0 190 66 190 168z" />
    <glyph glyph-name="four.ss01" unicode="&#x1e04;" horiz-adv-x="692" 
d="M647 269l-26 -74h-106l-34 -195h-100l35 195h-368l5 38l462 461h88l-75 -425h119zM181 269h248l53 301h-7l-293 -293z" />
    <glyph glyph-name="five.ss01" unicode="&#x1e05;" horiz-adv-x="632" 
d="M456 245c0 76 -54 125 -145 125c-48 0 -97 -17 -137 -43l-61 10l112 357h377l-28 -88h-300l-63 -197c32 16 77 26 123 26c145 0 231 -71 231 -187c0 -165 -135 -260 -317 -260c-83 0 -158 24 -209 64l-2 86h12c48 -48 120 -78 203 -78c129 0 204 74 204 185z" />
    <glyph glyph-name="six.ss01" unicode="&#x1e06;" horiz-adv-x="679" 
d="M235 363c44 39 101 69 174 69c106 0 201 -60 201 -185c0 -152 -120 -257 -280 -259c-138 -2 -243 71 -243 208c0 259 238 488 503 511l24 -46c-190 -34 -327 -158 -383 -298h4zM194 187c0 -82 52 -142 134 -142c112 0 175 96 175 198c0 81 -50 130 -127 130
c-100 0 -182 -72 -182 -186z" />
    <glyph glyph-name="seven.ss01" unicode="&#x1e07;" horiz-adv-x="653" 
d="M85 0c145 191 310 410 458 606h-408l32 88h511l-5 -28c-151 -205 -338 -472 -475 -666h-113z" />
    <glyph glyph-name="eight.ss01" unicode="&#x1e08;" horiz-adv-x="670" 
d="M313 -12c-144 0 -238 64 -238 168c0 112 87 178 199 215l1 3c-66 40 -94 95 -94 153c0 123 114 179 237 179c108 0 197 -47 197 -142c0 -81 -69 -141 -158 -170v-3c106 -58 143 -116 143 -187c0 -136 -127 -216 -287 -216zM401 419c77 27 134 73 134 141
c0 60 -49 93 -121 93c-78 0 -129 -44 -129 -115c0 -46 38 -89 116 -119zM318 45c103 0 173 56 173 146c0 62 -62 113 -160 152c-97 -34 -164 -91 -164 -179c0 -74 75 -119 151 -119z" />
    <glyph glyph-name="nine.ss01" unicode="&#x1e09;" horiz-adv-x="648" 
d="M469 351c-39 -39 -92 -70 -159 -70c-100 0 -193 55 -193 174c0 152 120 252 273 252c130 0 227 -64 227 -200c0 -254 -234 -485 -488 -519l-34 47c188 41 333 181 379 316h-5zM512 524c0 78 -50 126 -123 126c-104 0 -166 -91 -166 -188c0 -73 47 -120 116 -120
c95 0 173 75 173 182z" />
    <glyph glyph-name="zero.subs" unicode="&#x2080;" horiz-adv-x="438" 
d="M163 -168c-90 0 -151 63 -151 169c0 163 83 290 212 290c90 0 151 -63 151 -170c0 -164 -83 -289 -212 -289zM165 -125c73 0 125 121 125 257c0 74 -25 115 -68 115c-73 0 -125 -120 -125 -257c0 -74 24 -115 68 -115z" />
    <glyph glyph-name="one.subs" unicode="&#x2081;" horiz-adv-x="311" 
d="M64 -160l66 378l-106 -41l6 46l148 59h44l-78 -442h-80z" />
    <glyph glyph-name="two.subs" unicode="&#x2082;" horiz-adv-x="392" 
d="M-42 -160l5 25l91 73c150 121 187 175 187 236c0 40 -25 68 -68 68c-31 0 -67 -8 -102 -38h-11l16 52c33 22 72 34 116 34c84 0 133 -46 133 -112c0 -85 -75 -152 -194 -240l-39 -29l-1 -3h98c58 0 86 1 113 5h9l-39 -71h-314z" />
    <glyph glyph-name="three.subs" unicode="&#x2083;" horiz-adv-x="374" 
d="M204 -17c0 47 -39 75 -97 75h-13l11 42h17c66 0 102 36 102 87c0 34 -21 59 -66 59c-26 0 -59 -9 -88 -29h-10l13 47c31 16 66 26 104 26c73 0 124 -33 124 -96c0 -58 -35 -98 -97 -113v-3c42 -11 78 -44 78 -96c0 -95 -80 -150 -181 -150c-46 0 -89 12 -120 35l-2 57h10
c32 -30 70 -44 109 -44c67 0 106 41 106 103z" />
    <glyph glyph-name="four.subs" unicode="&#x2084;" horiz-adv-x="395" 
d="M337 11l-17 -52h-69l-21 -119h-75l21 119h-207l4 29l273 294h62l-48 -271h77zM51 12h134l32 180h-5l-160 -175z" />
    <glyph glyph-name="five.subs" unicode="&#x2085;" horiz-adv-x="376" 
d="M106 -168c-51 0 -95 16 -121 36l2 56h10c26 -28 64 -43 104 -43c70 0 116 44 116 114c0 48 -32 77 -82 77c-26 0 -49 -6 -69 -20l-35 6l72 224h219l-21 -64h-162l-37 -111c16 7 35 11 58 11c85 0 136 -47 136 -118c0 -106 -84 -168 -190 -168z" />
    <glyph glyph-name="six.subs" unicode="&#x2086;" horiz-adv-x="403" 
d="M150 -168c-91 0 -147 47 -147 132c0 152 140 293 293 326l31 -34c-84 -21 -183 -93 -218 -176l3 -1c19 20 47 36 87 36c71 0 126 -47 126 -119c0 -94 -76 -164 -175 -164zM153 -126c48 0 89 49 89 121c0 49 -27 77 -67 77c-49 0 -90 -50 -90 -121c0 -49 30 -77 68 -77z
" />
    <glyph glyph-name="seven.subs" unicode="&#x2087;" horiz-adv-x="382" 
d="M0 -160c83 122 178 253 266 381h-226l21 61h302l-4 -20c-80 -118 -188 -281 -275 -422h-84z" />
    <glyph glyph-name="eight.subs" unicode="&#x2088;" horiz-adv-x="414" 
d="M151 -168c-92 0 -143 46 -143 107c0 60 39 105 119 138v2c-42 31 -57 63 -57 97c0 69 62 114 148 114c74 0 125 -37 125 -91c0 -47 -32 -83 -96 -109v-2c56 -32 82 -69 82 -117c0 -86 -74 -139 -178 -139zM206 111c49 20 78 46 78 87c0 32 -26 55 -64 55
c-42 0 -73 -31 -73 -69c0 -27 21 -52 59 -73zM155 -127c54 0 93 33 93 88c0 40 -33 70 -82 92c-57 -25 -92 -57 -92 -110c0 -38 33 -70 81 -70z" />
    <glyph glyph-name="nine.subs" unicode="&#x2089;" horiz-adv-x="398" 
d="M55 -168l-30 33c104 32 187 99 221 189h-2c-21 -20 -49 -36 -92 -36c-70 0 -120 46 -120 116c0 96 72 156 171 156c87 0 144 -50 144 -133c0 -150 -135 -291 -292 -325zM177 63c49 0 89 43 89 110c0 48 -27 75 -67 75c-51 0 -85 -51 -85 -115c0 -40 25 -70 63 -70z" />
    <glyph glyph-name="zero.dnom" horiz-adv-x="438" 
d="M191 -8c-90 0 -151 63 -151 169c0 163 83 290 212 290c90 0 151 -63 151 -170c0 -164 -83 -289 -212 -289zM193 36c73 0 125 120 125 256c0 74 -25 115 -68 115c-73 0 -125 -120 -125 -256c0 -75 24 -115 68 -115z" />
    <glyph glyph-name="one.dnom" horiz-adv-x="311" 
d="M92 0l66 378l-106 -41l6 46l148 59h44l-78 -442h-80z" />
    <glyph glyph-name="two.dnom" horiz-adv-x="392" 
d="M-14 0l5 25l91 73c150 121 187 175 187 236c0 40 -25 68 -68 68c-31 0 -67 -8 -102 -38h-11l16 52c33 22 72 34 116 34c84 0 133 -46 133 -112c0 -85 -75 -152 -194 -240l-39 -29l-1 -3h98c58 0 86 1 113 5h9l-39 -71h-314z" />
    <glyph glyph-name="three.dnom" horiz-adv-x="374" 
d="M232 143c0 47 -39 75 -97 75h-13l11 42h17c66 0 102 36 102 87c0 34 -21 59 -66 59c-26 0 -59 -9 -88 -29h-10l13 47c31 16 66 26 104 26c73 0 124 -33 124 -96c0 -58 -35 -98 -97 -113v-3c42 -11 78 -44 78 -96c0 -95 -80 -150 -181 -150c-46 0 -89 12 -120 35l-1 57h9
c32 -30 70 -44 109 -44c67 0 106 41 106 103z" />
    <glyph glyph-name="four.dnom" horiz-adv-x="395" 
d="M365 171l-17 -52h-69l-21 -119h-75l21 119h-207l4 29l273 294h62l-48 -271h77zM79 172h134l32 180h-5l-160 -175z" />
    <glyph glyph-name="five.dnom" horiz-adv-x="376" 
d="M134 -8c-51 0 -95 16 -121 36l2 56h10c26 -28 64 -42 104 -42c70 0 116 43 116 113c0 48 -32 77 -82 77c-26 0 -49 -6 -69 -20l-35 6l72 224h219l-21 -64h-162l-37 -111c16 7 35 11 58 11c85 0 136 -47 136 -118c0 -106 -84 -168 -190 -168z" />
    <glyph glyph-name="six.dnom" horiz-adv-x="403" 
d="M178 -8c-91 0 -147 47 -147 132c0 152 140 293 293 326l31 -34c-84 -21 -183 -93 -218 -176l3 -1c19 20 47 36 87 36c71 0 126 -47 126 -118c0 -95 -76 -165 -175 -165zM181 34c48 0 89 49 89 122c0 48 -27 76 -67 76c-49 0 -90 -50 -90 -120c0 -50 30 -78 68 -78z" />
    <glyph glyph-name="seven.dnom" horiz-adv-x="382" 
d="M28 0c83 122 178 253 266 381h-226l21 61h302l-4 -20c-80 -118 -188 -281 -275 -422h-84z" />
    <glyph glyph-name="eight.dnom" horiz-adv-x="414" 
d="M179 -8c-92 0 -143 46 -143 107c0 60 39 105 119 138v2c-42 31 -57 63 -57 97c0 69 62 114 148 114c74 0 125 -37 125 -91c0 -47 -32 -83 -96 -109v-2c56 -32 82 -69 82 -117c0 -86 -74 -139 -178 -139zM234 271c49 20 78 46 78 87c0 32 -26 55 -64 55
c-42 0 -73 -31 -73 -69c0 -27 21 -52 59 -73zM183 33c54 0 93 33 93 88c0 40 -33 70 -82 92c-57 -25 -92 -57 -92 -109c0 -39 33 -71 81 -71z" />
    <glyph glyph-name="nine.dnom" horiz-adv-x="398" 
d="M83 -8l-30 33c104 32 187 99 221 189h-2c-21 -20 -49 -36 -92 -36c-70 0 -120 46 -120 116c0 96 72 156 171 156c87 0 144 -50 144 -133c0 -150 -135 -291 -292 -325zM205 223c49 0 89 43 89 110c0 48 -27 75 -67 75c-51 0 -85 -51 -85 -115c0 -40 25 -70 63 -70z" />
    <glyph glyph-name="zero.numr" horiz-adv-x="438" 
d="M233 230c-90 0 -151 63 -151 169c0 163 83 290 212 290c90 0 151 -63 151 -170c0 -164 -83 -289 -212 -289zM235 274c73 0 125 120 125 256c0 74 -25 115 -68 115c-73 0 -125 -120 -125 -256c0 -75 24 -115 68 -115z" />
    <glyph glyph-name="one.numr" horiz-adv-x="311" 
d="M134 238l66 378l-106 -41l6 46l148 59h44l-78 -442h-80z" />
    <glyph glyph-name="two.numr" horiz-adv-x="392" 
d="M28 238l5 25l91 73c150 121 187 175 187 236c0 40 -25 68 -68 68c-31 0 -67 -8 -102 -38h-11l16 52c33 22 72 34 116 34c84 0 133 -46 133 -112c0 -85 -75 -152 -194 -240l-39 -29l-1 -3h98c58 0 86 1 113 5h9l-39 -71h-314z" />
    <glyph glyph-name="three.numr" horiz-adv-x="374" 
d="M274 381c0 47 -39 75 -97 75h-13l11 42h17c66 0 102 36 102 87c0 34 -21 59 -66 59c-26 0 -59 -9 -88 -29h-10l13 47c31 16 66 26 104 26c73 0 124 -33 124 -96c0 -58 -35 -98 -97 -113v-3c42 -11 78 -44 78 -96c0 -95 -80 -150 -181 -150c-46 0 -89 12 -120 35l-1 57h9
c32 -30 70 -44 109 -44c67 0 106 41 106 103z" />
    <glyph glyph-name="four.numr" horiz-adv-x="395" 
d="M407 409l-17 -52h-69l-21 -119h-75l21 119h-207l4 29l273 294h62l-48 -271h77zM121 410h134l32 180h-5l-160 -175z" />
    <glyph glyph-name="five.numr" horiz-adv-x="376" 
d="M176 230c-51 0 -95 16 -121 36l2 56h10c26 -28 64 -42 104 -42c70 0 116 43 116 113c0 48 -32 77 -82 77c-26 0 -49 -6 -69 -20l-35 6l72 224h219l-21 -64h-162l-37 -111c16 7 35 11 58 11c85 0 136 -47 136 -118c0 -106 -84 -168 -190 -168z" />
    <glyph glyph-name="six.numr" horiz-adv-x="403" 
d="M220 230c-91 0 -147 47 -147 132c0 152 140 293 293 326l31 -34c-84 -21 -183 -93 -218 -176l3 -1c19 20 47 36 87 36c71 0 126 -47 126 -118c0 -95 -76 -165 -175 -165zM223 272c48 0 89 49 89 122c0 48 -27 76 -67 76c-49 0 -90 -50 -90 -120c0 -50 30 -78 68 -78z" />
    <glyph glyph-name="seven.numr" horiz-adv-x="382" 
d="M70 238c83 122 178 253 266 381h-226l21 61h302l-4 -20c-80 -118 -188 -281 -275 -422h-84z" />
    <glyph glyph-name="eight.numr" horiz-adv-x="414" 
d="M221 230c-92 0 -143 46 -143 107c0 60 39 105 119 138v2c-42 31 -57 63 -57 97c0 69 62 114 148 114c74 0 125 -37 125 -91c0 -47 -32 -83 -96 -109v-2c56 -32 82 -69 82 -117c0 -86 -74 -139 -178 -139zM276 509c49 20 78 46 78 87c0 32 -26 55 -64 55
c-42 0 -73 -31 -73 -69c0 -27 21 -52 59 -73zM225 271c54 0 93 33 93 88c0 40 -33 70 -82 92c-57 -25 -92 -57 -92 -109c0 -39 33 -71 81 -71z" />
    <glyph glyph-name="nine.numr" horiz-adv-x="398" 
d="M125 230l-30 33c104 32 187 99 221 189h-2c-21 -20 -49 -36 -92 -36c-70 0 -120 46 -120 116c0 96 72 156 171 156c87 0 144 -50 144 -133c0 -150 -135 -291 -292 -325zM247 461c49 0 89 43 89 110c0 48 -27 75 -67 75c-51 0 -85 -51 -85 -115c0 -40 25 -70 63 -70z" />
    <glyph glyph-name="zero.sups" unicode="&#x2070;" horiz-adv-x="438" 
d="M267 422c-90 0 -151 63 -151 169c0 163 83 290 212 290c90 0 151 -63 151 -170c0 -164 -83 -289 -212 -289zM269 466c73 0 125 120 125 256c0 74 -25 115 -68 115c-73 0 -125 -120 -125 -256c0 -75 24 -115 68 -115z" />
    <glyph glyph-name="one.sups" unicode="&#xb9;" horiz-adv-x="311" 
d="M168 430l66 378l-106 -41l6 46l148 59h44l-78 -442h-80z" />
    <glyph glyph-name="two.sups" unicode="&#xb2;" horiz-adv-x="392" 
d="M62 430l5 25l91 73c150 121 187 175 187 236c0 40 -25 68 -68 68c-31 0 -67 -8 -102 -38h-11l16 52c33 22 72 34 116 34c84 0 133 -46 133 -112c0 -85 -75 -152 -194 -240l-39 -29l-1 -3h98c58 0 86 1 113 5h9l-39 -71h-314z" />
    <glyph glyph-name="three.sups" unicode="&#xb3;" horiz-adv-x="374" 
d="M308 573c0 47 -39 75 -97 75h-13l11 42h17c66 0 102 36 102 87c0 34 -21 59 -66 59c-26 0 -59 -9 -88 -29h-10l13 47c31 16 66 26 104 26c73 0 124 -33 124 -96c0 -58 -35 -98 -97 -113v-3c42 -11 78 -44 78 -96c0 -95 -80 -150 -181 -150c-46 0 -89 12 -120 35l-1 57h9
c32 -30 70 -44 109 -44c67 0 106 41 106 103z" />
    <glyph glyph-name="four.sups" unicode="&#x2074;" horiz-adv-x="395" 
d="M441 601l-17 -52h-69l-21 -119h-75l21 119h-207l4 29l273 294h62l-48 -271h77zM155 602h134l32 180h-5l-160 -175z" />
    <glyph glyph-name="five.sups" unicode="&#x2075;" horiz-adv-x="376" 
d="M210 422c-51 0 -95 16 -121 36l2 56h10c26 -28 64 -42 104 -42c70 0 116 43 116 113c0 48 -32 77 -82 77c-26 0 -49 -6 -69 -20l-35 6l72 224h219l-21 -64h-162l-37 -111c16 7 35 11 58 11c85 0 136 -47 136 -118c0 -106 -84 -168 -190 -168z" />
    <glyph glyph-name="six.sups" unicode="&#x2076;" horiz-adv-x="403" 
d="M254 422c-91 0 -147 47 -147 132c0 152 140 293 293 326l31 -34c-84 -21 -183 -93 -218 -176l3 -1c19 20 47 36 87 36c71 0 126 -47 126 -118c0 -95 -76 -165 -175 -165zM257 464c48 0 89 49 89 122c0 48 -27 76 -67 76c-49 0 -90 -50 -90 -120c0 -50 30 -78 68 -78z" />
    <glyph glyph-name="seven.sups" unicode="&#x2077;" horiz-adv-x="382" 
d="M104 430c83 122 178 253 266 381h-226l21 61h302l-4 -20c-80 -118 -188 -281 -275 -422h-84z" />
    <glyph glyph-name="eight.sups" unicode="&#x2078;" horiz-adv-x="414" 
d="M255 422c-92 0 -143 46 -143 107c0 60 39 105 119 138v2c-42 31 -57 63 -57 97c0 69 62 114 148 114c74 0 125 -37 125 -91c0 -47 -32 -83 -96 -109v-2c56 -32 82 -69 82 -117c0 -86 -74 -139 -178 -139zM310 701c49 20 78 46 78 87c0 32 -26 55 -64 55
c-42 0 -73 -31 -73 -69c0 -27 21 -52 59 -73zM259 463c54 0 93 33 93 88c0 40 -33 70 -82 92c-57 -25 -92 -57 -92 -109c0 -39 33 -71 81 -71z" />
    <glyph glyph-name="nine.sups" unicode="&#x2079;" horiz-adv-x="398" 
d="M159 422l-30 33c104 32 187 99 221 189h-2c-21 -20 -49 -36 -92 -36c-70 0 -120 46 -120 116c0 96 72 156 171 156c87 0 144 -50 144 -133c0 -150 -135 -291 -292 -325zM281 653c49 0 89 43 89 110c0 48 -27 75 -67 75c-51 0 -85 -51 -85 -115c0 -40 25 -70 63 -70z" />
    <glyph glyph-name="fraction" unicode="&#x2044;" horiz-adv-x="153" 
d="M334 703l40 -27l-512 -699l-40 28z" />
    <glyph glyph-name="onehalf" unicode="&#xbd;" horiz-adv-x="856" 
d="M645 703l40 -27l-512 -699l-40 28zM134 238l66 378l-106 -41l6 46l148 59h44l-78 -442h-80zM450 0l5 25l90 73c151 121 188 175 188 236c0 40 -25 68 -68 68c-31 0 -68 -8 -103 -38h-10l16 52c33 22 72 34 116 34c84 0 133 -46 133 -112c0 -85 -76 -152 -194 -240
l-39 -29l-1 -3h97c59 0 86 1 114 5h9l-39 -71h-314z" />
    <glyph glyph-name="onequarter" unicode="&#xbc;" horiz-adv-x="825" 
d="M645 703l40 -27l-512 -699l-40 28zM134 238l66 378l-106 -41l6 46l148 59h44l-78 -442h-80zM794 171l-16 -52h-69l-21 -119h-75l21 119h-207l4 29l273 294h62l-48 -271h76zM509 172h134l32 180h-5l-161 -175v-5z" />
    <glyph glyph-name="threequarters" unicode="&#xbe;" horiz-adv-x="887" 
d="M708 703l40 -27l-512 -699l-40 28zM352 380c0 -95 -80 -150 -181 -150c-46 0 -89 12 -120 35l-1 57h9c32 -30 70 -44 109 -44c67 0 106 41 106 103c0 47 -39 75 -97 75h-13l11 42h17c66 0 102 36 102 87c0 34 -21 59 -66 59c-26 0 -59 -9 -88 -29h-10l13 47
c31 16 66 26 104 26c73 0 124 -33 124 -96c0 -58 -35 -98 -97 -113v-3c42 -11 78 -44 78 -96zM857 171l-17 -52h-69l-21 -119h-74l21 119h-207l3 29l273 294h62l-48 -271h77zM572 172h134l32 180h-6l-160 -175v-5z" />
    <glyph glyph-name="oneeighth" unicode="&#x215b;" horiz-adv-x="878" 
d="M645 703l40 -27l-512 -699l-40 28zM134 238l66 378l-106 -41l6 46l148 59h44l-78 -442h-80zM643 -8c-92 0 -143 46 -143 107c0 60 38 105 118 138l1 2c-42 31 -57 63 -57 97c0 69 62 114 147 114c75 0 125 -37 125 -91c0 -47 -32 -83 -95 -109v-2c56 -32 82 -69 82 -117
c0 -86 -75 -139 -178 -139zM698 271c49 20 77 46 77 87c0 32 -25 55 -64 55c-41 0 -72 -31 -72 -69c0 -27 21 -52 59 -73zM647 33c54 0 93 33 93 88c0 40 -33 70 -83 92c-57 -25 -92 -57 -92 -109c0 -39 34 -71 82 -71z" />
    <glyph glyph-name="threeeighths" unicode="&#x215c;" horiz-adv-x="949" 
d="M708 703l40 -27l-512 -699l-40 28zM274 381c0 47 -39 75 -97 75h-13l11 42h17c66 0 102 36 102 87c0 34 -21 59 -66 59c-26 0 -59 -9 -88 -29h-10l13 47c31 16 66 26 104 26c73 0 124 -33 124 -96c0 -58 -35 -98 -97 -113v-3c42 -11 78 -44 78 -96
c0 -95 -80 -150 -181 -150c-46 0 -89 12 -120 35l-1 57h9c32 -30 70 -44 109 -44c67 0 106 41 106 103zM706 -8c-92 0 -144 46 -144 107c0 60 39 105 119 138v2c-42 31 -56 63 -56 97c0 69 61 114 147 114c75 0 125 -37 125 -91c0 -47 -32 -83 -96 -109v-2
c56 -32 83 -69 83 -117c0 -86 -75 -139 -178 -139zM761 271c48 20 77 46 77 87c0 32 -25 55 -64 55c-41 0 -72 -31 -72 -69c0 -27 20 -52 59 -73zM710 33c53 0 93 33 93 88c0 40 -33 70 -83 92c-57 -25 -92 -57 -92 -109c0 -39 34 -71 82 -71z" />
    <glyph glyph-name="fiveeighths" unicode="&#x215d;" horiz-adv-x="951" 
d="M720 703l40 -27l-512 -699l-40 28zM176 230c-51 0 -95 16 -121 36l2 56h10c26 -28 64 -42 104 -42c70 0 116 43 116 113c0 48 -32 77 -82 77c-26 0 -49 -6 -69 -20l-35 6l72 224h219l-21 -64h-162l-37 -111c16 7 35 11 58 11c85 0 136 -47 136 -118
c0 -106 -84 -168 -190 -168zM718 -8c-92 0 -144 46 -144 107c0 60 39 105 119 138v2c-42 31 -56 63 -56 97c0 69 61 114 147 114c75 0 125 -37 125 -91c0 -47 -32 -83 -96 -109v-2c56 -32 83 -69 83 -117c0 -86 -75 -139 -178 -139zM773 271c48 20 77 46 77 87
c0 32 -25 55 -64 55c-41 0 -72 -31 -72 -69c0 -27 20 -52 59 -73zM722 33c53 0 93 33 93 88c0 40 -33 70 -83 92c-57 -25 -92 -57 -92 -109c0 -39 34 -71 82 -71z" />
    <glyph glyph-name="seveneighths" unicode="&#x215e;" horiz-adv-x="860" 
d="M636 703l40 -27l-512 -699l-40 28zM70 238c83 122 178 253 266 381h-226l21 61h302l-4 -20c-80 -118 -188 -281 -275 -422h-84zM634 -8c-92 0 -143 46 -143 107c0 60 38 105 118 138l1 2c-42 31 -57 63 -57 97c0 69 62 114 147 114c75 0 125 -37 125 -91
c0 -47 -32 -83 -95 -109v-2c56 -32 82 -69 82 -117c0 -86 -75 -139 -178 -139zM689 271c49 20 77 46 77 87c0 32 -25 55 -64 55c-41 0 -72 -31 -72 -69c0 -27 21 -52 59 -73zM638 33c54 0 93 33 93 88c0 40 -33 70 -83 92c-57 -25 -92 -57 -92 -109c0 -39 34 -71 82 -71z
" />
    <glyph glyph-name="period" unicode="." horiz-adv-x="298" 
d="M74 121h115l-22 -121h-114z" />
    <glyph glyph-name="comma" unicode="," horiz-adv-x="298" 
d="M202 124c-17 -52 -92 -197 -140 -266h-58c41 86 81 216 93 266h105z" />
    <glyph glyph-name="colon" unicode=":" horiz-adv-x="346" 
d="M275 477l-22 -119h-122l21 119h123zM212 118l-21 -118h-123l21 118h123z" />
    <glyph glyph-name="semicolon" unicode=";" horiz-adv-x="346" 
d="M275 477l-22 -120h-122l21 120h123zM207 124c-17 -52 -90 -197 -138 -266h-62c41 86 82 216 96 266h104z" />
    <glyph glyph-name="ellipsis" unicode="&#x2026;" horiz-adv-x="922" 
d="M74 121h115l-22 -121h-114zM382 121h114l-21 -121h-115zM689 121h115l-22 -121h-114z" />
    <glyph glyph-name="exclam" unicode="!" horiz-adv-x="359" 
d="M324 680l-109 -456h-59l51 456h117zM223 119l-21 -119h-113l21 119h113z" />
    <glyph glyph-name="exclamdown" unicode="&#xa1;" horiz-adv-x="359" 
d="M152 356l21 119h113l-21 -119h-113zM51 -205l110 456h59l-52 -456h-117z" />
    <glyph glyph-name="question" unicode="?" horiz-adv-x="487" 
d="M178 224l4 22c11 62 55 101 102 135c56 41 102 82 102 157c0 54 -37 88 -95 88c-45 0 -97 -16 -146 -55h-11l22 75c50 31 104 45 154 45c118 0 183 -61 183 -147c0 -109 -73 -152 -161 -202c-42 -24 -75 -50 -85 -107l-2 -11h-67zM255 118l-21 -119h-113l21 119h113z" />
    <glyph glyph-name="questiondown" unicode="&#xbf;" horiz-adv-x="487" 
d="M235 356l21 119h113l-21 -119h-113zM312 250l-3 -22c-10 -62 -55 -101 -102 -135c-57 -41 -103 -82 -103 -158c0 -53 37 -87 96 -87c45 0 96 16 145 55h12l-23 -75c-49 -31 -104 -45 -154 -45c-118 0 -183 61 -183 147c0 109 73 152 161 202c42 24 79 50 86 107l1 11h67z
" />
    <glyph glyph-name="periodcentered" unicode="&#xb7;" horiz-adv-x="307" 
d="M119 342h115l-22 -121h-115z" />
    <glyph glyph-name="bullet" unicode="&#x2022;" 
d="M156 328c0 91 73 165 164 165s165 -74 165 -165s-74 -164 -165 -164s-164 73 -164 164z" />
    <glyph glyph-name="asterisk" unicode="*" horiz-adv-x="364" 
d="M357 721l26 -47l-87 -41l87 -43l-26 -47l-81 56l9 -100h-58l10 101l-83 -57l-25 47l87 43l-87 41l26 46l81 -56l-9 101h58l-10 -101z" />
    <glyph glyph-name="numbersign" unicode="#" horiz-adv-x="500" 
d="M45 0l66 184h-82l34 69h71l73 197h-83l34 68h71l59 162h49l-59 -162h110l58 162h50l-58 -162h81l-34 -68h-71l-72 -197h82l-34 -69h-72l-64 -184h-50l66 184h-110l-66 -184h-49zM184 253h109l71 197h-109z" />
    <glyph glyph-name="slash" unicode="/" horiz-adv-x="603" 
d="M34 -192l-3 5l489 908l6 3h51l3 -5l-490 -908l-5 -3h-51z" />
    <glyph glyph-name="backslash" unicode="\" 
d="M117 723h49l5 -3l321 -909l-3 -5h-48l-6 3l-321 909z" />
    <glyph glyph-name="uni1E0A" unicode="&#x1e0a;" horiz-adv-x="351" 
d="M303 584l-21 -119h-123l21 119h123zM240 226l-21 -119h-122l20 119h123z" />
    <glyph glyph-name="parenleft" unicode="(" horiz-adv-x="345" 
d="M137 127c0 -118 22 -224 68 -289h-58c-51 60 -97 174 -97 314c0 204 97 447 254 568h58c-105 -92 -225 -329 -225 -593z" />
    <glyph glyph-name="parenright" unicode=")" horiz-adv-x="345" 
d="M223 431c0 118 -22 224 -68 289h58c51 -60 97 -174 97 -314c0 -204 -97 -447 -254 -568h-59c105 92 226 329 226 593z" />
    <glyph glyph-name="braceleft" unicode="{" horiz-adv-x="360" 
d="M371 680h-18c-54 0 -70 -24 -83 -98l-28 -158c-12 -69 -50 -125 -116 -144v-2c47 -20 69 -55 69 -105c0 -11 -1 -25 -4 -38l-27 -156c-3 -17 -6 -35 -6 -49c0 -35 14 -52 52 -52h19l-7 -40h-50c-57 0 -101 24 -101 92c0 9 1 18 2 27l28 156c4 24 6 45 6 63
c0 54 -19 78 -63 78l9 50c59 0 88 40 106 140l29 160c10 63 50 116 137 116h53z" />
    <glyph glyph-name="braceright" unicode="}" horiz-adv-x="360" 
d="M4 -122h18c54 0 69 24 82 98l28 158c12 69 50 125 116 144v2c-46 20 -68 55 -68 105c0 12 1 25 3 38l27 156c3 17 6 35 6 49c0 35 -14 52 -52 52h-19l7 40h50c57 0 101 -24 101 -92c0 -9 0 -18 -2 -27l-28 -156c-4 -24 -6 -45 -6 -63c0 -54 19 -78 63 -78l-9 -50
c-59 0 -88 -40 -106 -140l-28 -160c-12 -63 -51 -116 -138 -116h-52z" />
    <glyph glyph-name="bracketleft" unicode="[" horiz-adv-x="360" 
d="M371 720l-8 -45h-114l-140 -792h115l-8 -45h-201l156 882h200z" />
    <glyph glyph-name="bracketright" unicode="]" horiz-adv-x="360" 
d="M5 -162l8 45h114l140 792h-115l8 45h201l-156 -882h-200z" />
    <glyph glyph-name="hyphen" unicode="-" horiz-adv-x="385" 
d="M68 299h280l-11 -59h-281z" />
    <glyph glyph-name="uni00AD" unicode="&#xad;" horiz-adv-x="385" 
d="M68 299h280l-11 -59h-281z" />
    <glyph glyph-name="endash" unicode="&#x2013;" horiz-adv-x="500" 
d="M508 298l-10 -58h-487l10 58h487z" />
    <glyph glyph-name="emdash" unicode="&#x2014;" horiz-adv-x="918" 
d="M833 298l-10 -58h-718l10 58h718z" />
    <glyph glyph-name="uni2011" unicode="&#x2011;" horiz-adv-x="385" 
d="M68 299h280l-11 -59h-281z" />
    <glyph glyph-name="underscore" unicode="_" horiz-adv-x="500" 
d="M-63 -145l9 54h500l-9 -54h-500z" />
    <glyph glyph-name="uni1E0B" unicode="&#x1e0b;" horiz-adv-x="397" 
d="M90 387h280l-11 -59h-280z" />
    <glyph glyph-name="uni00AD.ss01" horiz-adv-x="397" 
d="M90 387h280l-11 -59h-280z" />
    <glyph glyph-name="endash.ss01" horiz-adv-x="500" 
d="M521 389l-5 -63h-487l5 63h487z" />
    <glyph glyph-name="emdash.ss01" horiz-adv-x="918" 
d="M846 389l-5 -63h-718l5 63h718z" />
    <glyph glyph-name="uni2011.ss01" horiz-adv-x="397" 
d="M90 387h280l-11 -59h-280z" />
    <glyph glyph-name="quotesinglbase" unicode="&#x201a;" horiz-adv-x="246" 
d="M172 125c-15 -49 -100 -196 -132 -242h-58c34 65 79 194 91 242h99z" />
    <glyph glyph-name="quotedblbase" unicode="&#x201e;" horiz-adv-x="410" 
d="M172 125c-15 -49 -100 -196 -132 -242h-58c34 64 79 194 91 242h99zM339 125c-16 -49 -101 -196 -133 -242h-58c34 64 79 194 91 242h100z" />
    <glyph glyph-name="quotedblleft" unicode="&#x201c;" horiz-adv-x="410" 
d="M78 438c16 49 100 195 132 242h58c-34 -65 -78 -194 -90 -242h-100zM244 438c16 49 101 195 132 242h58c-34 -65 -78 -194 -90 -242h-100z" />
    <glyph glyph-name="quotedblright" unicode="&#x201d;" horiz-adv-x="410" 
d="M270 680c-16 -49 -101 -195 -131 -242h-59c34 64 79 194 91 242h99zM436 680c-15 -49 -100 -195 -131 -242h-59c34 64 79 194 91 242h99z" />
    <glyph glyph-name="quoteleft" unicode="&#x2018;" horiz-adv-x="237" 
d="M84 438c13 49 91 195 118 242h58c-28 -65 -68 -194 -78 -242h-98z" />
    <glyph glyph-name="quoteright" unicode="&#x2019;" horiz-adv-x="237" 
d="M260 680c-13 -49 -91 -195 -118 -242h-59c28 65 69 194 78 242h99z" />
    <glyph glyph-name="guillemotleft" unicode="&#xab;" horiz-adv-x="420" 
d="M246 435l-11 -61l-105 -100l70 -98l-11 -58l-138 127l11 60zM403 435l-11 -61l-105 -100l70 -98l-11 -58l-137 127l12 60z" />
    <glyph glyph-name="guillemotright" unicode="&#xbb;" horiz-adv-x="420" 
d="M36 115l11 61l105 101l-70 97l11 58l136 -127l-12 -60zM193 115l11 61l105 101l-70 97l11 58l137 -127l-11 -60z" />
    <glyph glyph-name="guilsinglleft" unicode="&#x2039;" horiz-adv-x="263" 
d="M244 435l-11 -61l-105 -100l70 -98l-11 -58l-138 127l11 60z" />
    <glyph glyph-name="guilsinglright" unicode="&#x203a;" horiz-adv-x="263" 
d="M35 115l11 61l104 101l-69 97l10 58l138 -127l-11 -60z" />
    <glyph glyph-name="quotedbl" unicode="&#x22;" horiz-adv-x="461" 
d="M273 691l-75 -256h-52l17 256h110zM462 691l-74 -256h-52l16 256h110z" />
    <glyph glyph-name="quotesingle" unicode="'" horiz-adv-x="271" 
d="M273 691l-75 -256h-52l17 256h110z" />
    <glyph glyph-name="uni1E0C" unicode="&#x1e0c;" horiz-adv-x="420" 
d="M264 515l-11 -61l-105 -100l70 -98l-11 -58l-138 127l12 60zM421 515l-11 -61l-105 -100l70 -98l-11 -58l-136 127l12 60z" />
    <glyph glyph-name="uni1E0D" unicode="&#x1e0d;" horiz-adv-x="420" 
d="M49 195l11 61l104 101l-69 97l10 58l137 -127l-12 -60zM206 195l11 61l104 101l-69 97l10 58l139 -127l-12 -60z" />
    <glyph glyph-name="uni1E0E" unicode="&#x1e0e;" horiz-adv-x="263" 
d="M258 515l-11 -61l-105 -100l70 -98l-11 -58l-138 127l11 61z" />
    <glyph glyph-name="uni1E0F" unicode="&#x1e0f;" horiz-adv-x="263" 
d="M49 195l11 61l104 101l-69 97l10 58l139 -127l-12 -60z" />
    <glyph glyph-name="uni00A0" unicode="&#xa0;" horiz-adv-x="250" 
 />
    <glyph glyph-name="uniFEFF" unicode="&#xfeff;" horiz-adv-x="0" 
 />
    <glyph glyph-name="cent" unicode="&#xa2;" 
d="M419 486c43 -4 74 -16 93 -31v-61h-12c-21 24 -55 38 -90 41l-69 -388c47 3 91 22 120 49h11l-27 -65c-26 -20 -66 -35 -113 -40l-20 -111h-52l20 111c-111 9 -188 80 -188 197c0 163 116 288 275 298l18 104h52zM198 198c0 -76 35 -131 92 -147l67 381
c-98 -20 -159 -123 -159 -234z" />
    <glyph glyph-name="currency" unicode="&#xa4;" 
d="M535 491c19 -32 29 -69 29 -109c0 -73 -30 -141 -78 -191l43 -52l-50 -42l-43 53c-42 -28 -92 -44 -146 -44c-55 0 -102 19 -137 49l-59 -49l-39 47l58 49c-19 32 -29 70 -29 110c0 72 30 140 79 190l-43 52l49 42l44 -52c42 27 92 43 146 43c55 0 102 -18 137 -49l59 49
l39 -47zM297 174c109 0 188 99 188 206c0 78 -54 139 -133 139c-108 0 -188 -98 -188 -205c0 -79 54 -140 133 -140z" />
    <glyph glyph-name="dollar" unicode="$" horiz-adv-x="531" 
d="M375 675c42 -3 86 -13 112 -29l-6 -72l-14 1c-23 27 -60 43 -101 46l-40 -228c75 -55 127 -112 126 -192c0 -118 -86 -182 -194 -193l-19 -108h-52l19 107c-63 4 -125 31 -161 59l-11 94h12c45 -57 111 -90 170 -94l46 258l-17 12c-70 49 -107 88 -107 159
c2 108 89 170 185 180l17 94h52zM231 520c-1 -36 15 -62 49 -91l33 189c-42 -9 -81 -38 -82 -98zM357 184c0 40 -18 72 -50 103l-38 -216c51 12 87 48 88 113z" />
    <glyph glyph-name="Euro" unicode="&#x20ac;" horiz-adv-x="680" 
d="M525 692c70 0 121 -14 152 -37v-76h-11c-35 37 -85 54 -145 54c-121 0 -212 -82 -257 -196h289l-17 -48h-287c-7 -26 -11 -53 -13 -80h283l-16 -48h-269c3 -131 73 -210 192 -210c64 0 128 20 183 62h14l-37 -80c-43 -25 -108 -45 -180 -45c-166 0 -281 96 -284 273h-90
l16 48h76c2 28 6 54 13 80h-72l17 48h71c60 153 202 255 372 255z" />
    <glyph glyph-name="florin" unicode="&#x192;" horiz-adv-x="588" 
d="M544 692c26 0 47 -4 63 -11l-5 -62h-9c-12 9 -26 16 -45 16c-42 0 -72 -24 -110 -124l-49 -128h97l-18 -51h-98l-132 -345c-61 -157 -126 -221 -226 -221c-26 0 -47 5 -64 12l5 62h10c11 -10 27 -16 46 -16c42 0 73 24 111 124l147 384h-92l18 51h93l34 89
c61 159 128 220 224 220z" />
    <glyph glyph-name="uni20BA" unicode="&#x20ba;" horiz-adv-x="620" 
d="M491 323h103c-42 -202 -166 -323 -383 -323h-113l49 277l-103 -40l9 52l103 40l14 79l-103 -40l9 51l103 40l39 221h101l-32 -179l225 87l-9 -52l-225 -87l-14 -79l225 87l-10 -52l-224 -86l-45 -258h9c156 0 236 102 272 262z" />
    <glyph glyph-name="uni20BC" unicode="&#x20bc;" horiz-adv-x="777" 
d="M502 553c124 -21 197 -121 197 -297c0 -70 -19 -177 -37 -256h-104c21 90 40 212 40 288c0 109 -32 181 -107 202l-73 -410h-102l73 412c-154 -31 -205 -218 -240 -492h-104c33 313 126 530 355 555l22 125h102z" />
    <glyph glyph-name="uni20B9" unicode="&#x20b9;" horiz-adv-x="565" 
d="M594 680l-18 -48h-206c30 -26 48 -63 48 -112v-4h140l-17 -48h-129c-21 -82 -91 -132 -185 -154l-2 -4c57 -98 143 -220 217 -304l-1 -6h-127c-57 79 -130 196 -185 302h-53l9 48h65c84 8 142 50 161 118h-206l9 48h204v3c0 78 -53 113 -134 113h-50l9 48h451z" />
    <glyph glyph-name="sterling" unicode="&#xa3;" horiz-adv-x="581" 
d="M7 27c103 62 179 164 179 282c0 11 -1 23 -3 33h-99l10 52h88c-3 18 -5 34 -5 50c0 147 104 248 256 248c49 0 85 -7 116 -21l2 -66h-11c-28 20 -65 28 -105 28c-114 0 -152 -83 -152 -196c0 -15 2 -29 3 -43h175l-9 -52h-166c0 -125 -50 -192 -146 -256l-1 -4
c197 0 311 1 367 9h6l-51 -91h-458z" />
    <glyph glyph-name="yen" unicode="&#xa5;" 
d="M650 680l-244 -305h135l-9 -48h-164l-14 -73h165l-7 -48h-166l-38 -206h-98l37 206h-154l8 48h155l13 73h-155l9 48h125l-136 305h113l117 -290h5l221 290h82z" />
    <glyph glyph-name="uni2219" unicode="&#x2219;" horiz-adv-x="307" 
d="M119 342h115l-22 -121h-115z" />
    <glyph glyph-name="uni2215" unicode="&#x2215;" horiz-adv-x="153" 
d="M334 703l40 -27l-512 -699l-40 28z" />
    <glyph glyph-name="plus" unicode="+" 
d="M338 503v-218h210v-66h-210v-219h-67v219h-210v66h210v218h67z" />
    <glyph glyph-name="minus" unicode="&#x2212;" 
d="M548 285v-66h-487v66h487z" />
    <glyph glyph-name="multiply" unicode="&#xd7;" 
d="M128 480l176 -182l176 182l46 -46l-176 -183l176 -181l-46 -47l-176 181l-176 -181l-46 47l175 181l-174 183z" />
    <glyph glyph-name="divide" unicode="&#xf7;" 
d="M366 455c0 -32 -29 -63 -61 -63c-34 0 -63 28 -63 63s29 63 62 63s62 -28 62 -63zM548 285v-66h-487v66h487zM366 49c0 -33 -30 -63 -61 -63c-35 0 -63 29 -63 63c0 35 29 63 62 63c34 0 62 -29 62 -63z" />
    <glyph glyph-name="equal" unicode="=" 
d="M548 387v-66h-487v66h487zM548 186v-67h-487v67h487z" />
    <glyph glyph-name="notequal" unicode="&#x2260;" 
d="M480 503l-64 -117h132v-65h-170l-74 -136h244v-66h-281l-82 -150l-56 29l66 121h-134v66h173l72 136h-245v65h282l81 147z" />
    <glyph glyph-name="greater" unicode="&#x3e;" 
d="M58 514l492 -226v-69l-492 -227v70l410 191l-410 191v70z" />
    <glyph glyph-name="less" unicode="&#x3c;" 
d="M550 444l-411 -191l411 -191v-70l-492 227v69l492 226v-70z" />
    <glyph glyph-name="greaterequal" unicode="&#x2265;" 
d="M61 525l487 -181v-68l-487 -181v69l406 146l-406 146v69zM548 66v-66h-487v66h487z" />
    <glyph glyph-name="lessequal" unicode="&#x2264;" 
d="M548 456l-407 -146l407 -146v-69l-488 181v68l488 181v-69zM548 66v-66h-488v66h488z" />
    <glyph glyph-name="plusminus" unicode="&#xb1;" 
d="M338 504v-168h210v-66h-210v-168h-67v168h-210v66h210v168h67zM548 66v-66h-487v66h487z" />
    <glyph glyph-name="approxequal" unicode="&#x2248;" 
d="M310 384c57 -23 90 -34 121 -34c35 0 62 25 70 72h58c-9 -83 -54 -137 -131 -137c-36 0 -73 11 -131 34c-54 23 -89 35 -119 35c-37 0 -63 -27 -71 -72h-58c10 86 56 137 131 137c32 0 68 -10 130 -35zM314 181c64 -25 93 -33 116 -33c35 0 62 24 71 72h58
c-11 -91 -60 -137 -131 -137c-31 0 -66 9 -134 37c-67 28 -95 33 -117 33c-34 0 -62 -25 -70 -72h-58c9 81 53 137 131 137c33 0 69 -11 134 -37z" />
    <glyph glyph-name="asciitilde" unicode="~" 
d="M529 272c-39 -60 -74 -86 -121 -86c-28 0 -55 7 -104 32c-47 24 -76 34 -107 34c-34 0 -61 -22 -81 -70l-37 50c29 58 70 86 121 86c37 0 78 -16 121 -37c45 -21 67 -29 86 -29c31 0 54 20 85 70z" />
    <glyph glyph-name="logicalnot" unicode="&#xac;" 
d="M546 385v-277h-65v211h-423v66h488z" />
    <glyph glyph-name="asciicircum" unicode="^" 
d="M283 693h71l209 -437h-71l-174 363l-171 -363h-72z" />
    <glyph glyph-name="infinity" unicode="&#x221e;" horiz-adv-x="779" 
d="M730 258c0 -94 -57 -167 -152 -167c-55 0 -113 28 -185 111c-66 -67 -116 -110 -184 -110c-100 0 -154 76 -154 164c0 95 59 165 150 165c61 0 111 -29 188 -116c58 66 111 118 185 118c94 0 152 -73 152 -165zM581 171c47 0 75 36 75 84c0 50 -27 89 -79 89
c-40 0 -81 -31 -136 -90c60 -64 100 -83 140 -83zM208 171c40 0 86 29 137 83c-55 57 -101 89 -140 89c-48 0 -76 -42 -76 -88c0 -49 30 -84 79 -84z" />
    <glyph glyph-name="integral" unicode="&#x222b;" 
d="M484 723c0 -27 -20 -44 -46 -44c-21 0 -31 15 -40 31c-10 18 -13 23 -20 23c-18 0 -27 -26 -27 -78c0 -30 3 -84 3 -115v-526c0 -145 -37 -227 -133 -227c-41 0 -81 23 -81 61c0 24 22 41 43 41c14 0 26 -7 38 -33c8 -16 13 -20 18 -20c19 0 26 43 26 91
c0 11 -3 55 -3 77v577c0 73 12 129 37 161c22 27 53 44 97 44s88 -21 88 -63z" />
    <glyph glyph-name="uni2126" unicode="&#x2126;" horiz-adv-x="807" 
d="M749 363c0 -123 -57 -215 -169 -287v-5h179v-71h-265v71c112 79 139 159 139 290c0 146 -83 271 -225 271c-143 0 -228 -117 -228 -270c0 -125 22 -210 141 -291v-71h-267v71h175v5c-107 67 -165 159 -165 287c0 188 150 328 344 328c196 0 341 -151 341 -328z" />
    <glyph glyph-name="uni2206" unicode="&#x2206;" horiz-adv-x="684" 
d="M19 0v42l280 628l77 11l270 -644v-37h-627zM100 60h425l-207 501h-5z" />
    <glyph glyph-name="product" unicode="&#x220f;" horiz-adv-x="724" 
d="M672 786v-1000h-89v915h-400v-915h-90v1000h579z" />
    <glyph glyph-name="summation" unicode="&#x2211;" 
d="M591 786v-85h-411l282 -410l-300 -420h441v-85h-554v75l305 429l-292 421v75h529z" />
    <glyph glyph-name="radical" unicode="&#x221a;" 
d="M575 786l-207 -1000h-85l-153 327l-47 -23l-33 70l124 59l138 -302l173 869h90z" />
    <glyph glyph-name="partialdiff" unicode="&#x2202;" 
d="M287 721c184 0 249 -179 249 -361c0 -223 -70 -372 -231 -372c-125 0 -205 102 -205 227c0 122 80 216 199 216c57 0 107 -24 151 -71v24c0 124 -40 265 -160 265c-38 0 -71 -15 -111 -48l-49 57c50 45 101 63 157 63zM306 57c96 0 130 101 140 225
c-42 53 -86 79 -136 79c-77 0 -124 -68 -124 -151c0 -74 40 -153 120 -153z" />
    <glyph glyph-name="uni00B5" unicode="&#xb5;" 
d="M194 477v-297c0 -64 15 -120 81 -120c84 0 132 81 132 177v240h98v-477h-92l-6 102h-3c-23 -57 -54 -112 -129 -112c-33 0 -65 17 -78 37h-4v-177h-98v627h99z" />
    <glyph glyph-name="percent" unicode="%" horiz-adv-x="779" 
d="M646 704l41 -28l-512 -698l-40 28zM280 691c73 0 117 -49 117 -133c0 -109 -68 -218 -171 -218c-75 0 -122 49 -122 132c0 112 72 219 176 219zM277 652c-67 0 -101 -111 -101 -189c0 -49 15 -83 53 -83c66 0 96 110 96 188c0 49 -11 84 -48 84zM605 346
c73 0 117 -49 117 -133c0 -109 -68 -218 -172 -218c-74 0 -121 49 -121 132c0 112 72 219 176 219zM602 307c-67 0 -101 -111 -101 -189c0 -49 15 -83 53 -83c66 0 96 110 96 188c0 49 -12 84 -48 84z" />
    <glyph glyph-name="perthousand" unicode="&#x2030;" horiz-adv-x="1130" 
d="M646 704l41 -28l-512 -698l-40 28zM280 691c73 0 117 -49 117 -133c0 -109 -68 -218 -171 -218c-75 0 -122 49 -122 132c0 112 72 219 176 219zM277 652c-67 0 -101 -111 -101 -189c0 -49 15 -83 53 -83c66 0 96 110 96 188c0 49 -11 84 -48 84zM605 346
c73 0 117 -49 117 -133c0 -109 -68 -218 -172 -218c-74 0 -121 49 -121 132c0 112 72 219 176 219zM960 346c73 0 117 -49 117 -133c0 -109 -68 -218 -172 -218c-74 0 -121 49 -121 132c0 112 72 219 176 219zM602 307c-67 0 -101 -111 -101 -189c0 -49 15 -83 53 -83
c66 0 96 110 96 188c0 49 -12 84 -48 84zM957 307c-67 0 -101 -111 -101 -189c0 -49 15 -83 53 -83c66 0 96 110 96 188c0 49 -12 84 -48 84z" />
    <glyph glyph-name="lozenge" unicode="&#x25ca;" 
d="M366 747l171 -391l-171 -391h-82l-170 391l171 391h81zM203 356l122 -302l124 302l-124 302z" />
    <glyph glyph-name="at" unicode="@" horiz-adv-x="891" 
d="M651 -30l-9 -51c-49 -21 -128 -39 -205 -39c-226 0 -364 130 -364 316c0 292 215 484 493 484c168 0 308 -99 308 -287c0 -186 -124 -332 -289 -332c-52 0 -78 24 -78 60c0 5 0 12 1 19c-26 -34 -77 -79 -133 -79c-72 0 -98 52 -98 109c0 158 115 336 272 336
c34 0 66 -11 86 -28h65l-108 -292c-7 -17 -14 -43 -14 -54c0 -14 8 -23 26 -23c124 0 211 139 211 282c0 151 -98 243 -250 243c-232 0 -413 -171 -413 -437c0 -162 106 -267 290 -267c87 0 169 21 209 40zM603 443c-12 16 -33 19 -54 19c-103 0 -177 -172 -177 -282
c0 -32 10 -64 40 -64c48 0 95 66 102 87z" />
    <glyph glyph-name="ampersand" unicode="&#x26;" horiz-adv-x="723" 
d="M549 0c-31 31 -50 52 -78 85c-63 -64 -130 -97 -222 -97c-109 0 -205 54 -205 164c0 119 89 182 203 226c-32 42 -47 87 -47 127c0 109 83 183 195 183c89 0 139 -51 139 -122c0 -88 -69 -138 -181 -186c42 -60 91 -123 138 -177c17 26 45 108 56 165h72
c-14 -58 -53 -148 -89 -202c44 -51 109 -116 162 -161l-1 -5h-142zM459 561c0 49 -22 83 -71 83c-62 0 -100 -60 -100 -120c0 -36 15 -74 41 -109c85 36 129 87 130 146zM267 342c-77 -38 -120 -96 -120 -178c0 -70 49 -117 122 -117c75 0 128 30 169 74
c-62 73 -121 149 -171 221z" />
    <glyph glyph-name="paragraph" unicode="&#xb6;" 
d="M440 -168h-71l141 801h-113l-141 -801h-71l87 494c-105 0 -175 64 -175 154c0 136 107 212 254 212h241z" />
    <glyph glyph-name="section" unicode="&#xa7;" 
d="M405 648c-57 0 -110 -34 -110 -97c0 -45 32 -72 91 -106c90 -52 129 -97 129 -158c0 -88 -53 -135 -131 -162c32 -31 49 -64 49 -106c0 -114 -89 -175 -206 -175c-73 0 -140 30 -174 66l-5 89h12c38 -64 109 -95 172 -95c64 0 110 35 110 99c0 49 -40 76 -112 117
c-70 41 -111 78 -111 141c0 85 61 137 137 163c-32 27 -53 59 -53 104c0 114 103 171 204 171c52 0 100 -11 122 -29l-4 -71h-11c-23 32 -64 49 -109 49zM423 265c0 47 -40 76 -109 118l-18 11c-47 -15 -88 -52 -88 -105c0 -39 22 -64 84 -100c20 -12 39 -23 55 -34
c48 24 76 60 76 110z" />
    <glyph glyph-name="copyright" unicode="&#xa9;" horiz-adv-x="797" 
d="M782 346c0 -200 -153 -361 -360 -361c-205 0 -361 159 -361 361c0 204 158 360 361 360c201 0 360 -156 360 -360zM422 36c174 0 304 138 304 310c0 174 -134 309 -305 309c-175 0 -304 -137 -304 -309c0 -168 124 -310 305 -310zM562 467c-25 22 -65 31 -103 31
c-75 0 -139 -53 -139 -152c0 -98 66 -147 143 -147c46 0 81 12 107 34h10l-13 -59c-25 -17 -71 -29 -114 -29c-123 0 -226 67 -226 201c0 136 110 204 222 204c39 0 87 -10 115 -25l8 -58h-10z" />
    <glyph glyph-name="registered" unicode="&#xae;" horiz-adv-x="527" 
d="M521 464c0 -119 -91 -214 -213 -214s-214 93 -214 214s93 213 214 213c119 0 213 -92 213 -213zM308 280c103 0 180 82 180 184c0 103 -78 183 -181 183c-104 0 -180 -81 -180 -183s75 -184 181 -184zM306 587c52 0 94 -14 94 -61c0 -37 -15 -58 -57 -69l86 -117h-56
l-76 110h-20v-110h-44v247h73zM291 476c22 0 61 0 61 43c0 28 -20 43 -47 43h-28v-86h14z" />
    <glyph glyph-name="uni2117" unicode="&#x2117;" horiz-adv-x="797" 
d="M782 346c0 -200 -153 -361 -360 -361c-205 0 -361 159 -361 361c0 204 158 360 361 360c201 0 360 -156 360 -360zM422 36c174 0 304 138 304 310c0 174 -134 309 -305 309c-175 0 -304 -137 -304 -309c0 -168 124 -310 305 -310zM443 542c95 0 147 -39 147 -118
c0 -77 -59 -120 -150 -120h-54v-151h-81v389h138zM427 348c57 0 82 24 82 76c0 51 -25 74 -82 74h-41v-150h41z" />
    <glyph glyph-name="trademark" unicode="&#x2122;" horiz-adv-x="652" 
d="M91 642v38h194v-38h-69v-234h-59v234h-66zM491 505h3l76 175h68l30 -272h-61l-20 206h-4l-86 -189h-29l-86 189h-4l-18 -206h-47l29 272h69z" />
    <glyph glyph-name="degree" unicode="&#xb0;" horiz-adv-x="414" 
d="M413 561c0 -79 -63 -145 -145 -145c-79 0 -145 62 -145 145c0 82 66 145 145 145c81 0 145 -66 145 -145zM268 460c57 0 100 47 100 101c0 55 -43 101 -101 101c-53 0 -98 -44 -98 -101c0 -56 44 -101 99 -101z" />
    <glyph glyph-name="bar" unicode="|" horiz-adv-x="235" 
d="M155 -214h-65v1000h65v-1000z" />
    <glyph glyph-name="brokenbar" unicode="&#xa6;" horiz-adv-x="235" 
d="M90 661h65v-250h-65v250zM90 161h65v-250h-65v250z" />
    <glyph glyph-name="dagger" unicode="&#x2020;" horiz-adv-x="560" 
d="M404 691l-37 -207h190l-11 -69h-190l-100 -565h-81l100 565h-189l12 69h189l36 207h81z" />
    <glyph glyph-name="uni2113" unicode="&#x2113;" horiz-adv-x="500" 
d="M242 280l-27 -153c-2 -10 -2 -19 -2 -28c0 -38 18 -56 53 -56c27 0 71 16 103 41l6 -40c-48 -39 -98 -58 -148 -58c-79 0 -114 35 -114 97c0 11 1 23 3 35l15 83l-68 -57l-25 46l105 85l48 267c20 111 91 179 178 179c61 0 103 -38 103 -102c0 -121 -115 -243 -230 -339z
M255 351c80 76 147 178 147 269c0 32 -12 51 -36 51c-39 0 -62 -39 -73 -102z" />
    <glyph glyph-name="daggerdbl" unicode="&#x2021;" horiz-adv-x="560" 
d="M404 691l-34 -191h190l-12 -69h-190l-57 -322h190l-12 -69h-190l-33 -190h-81l33 190h-188l12 69h188l58 322h-189l12 69h188l34 191h81z" />
    <glyph glyph-name="estimated" unicode="&#x212e;" horiz-adv-x="904" 
d="M477 -9c-255 0 -402 165 -402 353c0 191 150 370 402 370c308 0 402 -200 402 -372h-652c-4 0 -5 0 -5 -6v-184c0 -11 1 -23 7 -30c55 -65 140 -105 247 -105c114 0 191 50 261 113h70c-78 -94 -164 -139 -330 -139zM227 363h498c4 0 7 2 7 7v189c0 8 -7 19 -12 26
c-63 88 -177 105 -247 105c-80 0 -176 -26 -242 -103c-6 -7 -9 -19 -9 -28v-189c0 -5 1 -7 5 -7z" />
    <glyph glyph-name="uni02C9" unicode="&#x2c9;" horiz-adv-x="217" 
d="M343 681l-9 -53h-314l9 53h314z" />
    <glyph glyph-name="uni0308" unicode="&#x308;" horiz-adv-x="0" 
d="M-67 699l-16 -95h-94l17 95h93zM106 699l-16 -95h-93l16 95h93z" />
    <glyph glyph-name="uni0307" unicode="&#x307;" horiz-adv-x="0" 
d="M24 701l-17 -98h-102l17 98h102z" />
    <glyph glyph-name="gravecomb" unicode="&#x300;" horiz-adv-x="0" 
d="M-37 716l78 -141h-52l-124 141h98z" />
    <glyph glyph-name="acutecomb" unicode="&#x301;" horiz-adv-x="0" 
d="M90 716l-172 -141h-58l122 141h108z" />
    <glyph glyph-name="uni030B" unicode="&#x30b;" horiz-adv-x="0" 
d="M10 716l-165 -141h-56l120 141h101zM175 716l-165 -141h-56l120 141h101z" />
    <glyph glyph-name="caroncomb.alt" horiz-adv-x="0" 
d="M36 720c-24 -82 -65 -156 -95 -194h-47c21 53 45 126 57 194h85z" />
    <glyph glyph-name="uni0302" unicode="&#x302;" horiz-adv-x="0" 
d="M24 716l83 -141h-51l-80 87l-111 -87h-57l133 141h83z" />
    <glyph glyph-name="uni030C" unicode="&#x30c;" horiz-adv-x="0" 
d="M-86 575l-83 141h52l79 -87l112 87h56l-133 -141h-83z" />
    <glyph glyph-name="uni0306" unicode="&#x306;" horiz-adv-x="0" 
d="M-118 707c-3 -49 30 -76 81 -76c54 0 95 27 112 76h48c-24 -86 -81 -132 -168 -132s-129 53 -121 132h48z" />
    <glyph glyph-name="uni030A" unicode="&#x30a;" horiz-adv-x="0" 
d="M-48 550c-61 0 -99 39 -99 90c0 68 51 122 124 122c60 0 99 -37 99 -90c0 -68 -52 -122 -124 -122zM-46 585c46 0 77 40 77 85c0 30 -19 57 -57 57c-43 0 -76 -37 -76 -84c0 -32 20 -58 56 -58z" />
    <glyph glyph-name="tildecomb" unicode="&#x303;" horiz-adv-x="0" 
d="M84 706c-15 -34 -32 -47 -55 -47c-15 0 -31 10 -54 24c-23 15 -43 25 -67 25c-49 0 -84 -44 -103 -107h41c15 34 32 49 55 49c15 0 30 -11 53 -25s43 -24 67 -24c50 0 84 42 103 105h-40z" />
    <glyph glyph-name="uni0304" unicode="&#x304;" horiz-adv-x="0" 
d="M126 681l-9 -53h-314l9 53h314z" />
    <glyph glyph-name="uni0312" unicode="&#x312;" horiz-adv-x="0" 
d="M-98 575c14 42 53 103 85 141h47c-24 -52 -36 -98 -45 -141h-87z" />
    <glyph glyph-name="uni0313" unicode="&#x313;" horiz-adv-x="0" 
d="M36 720c-24 -82 -65 -156 -95 -194h-47c21 53 45 126 57 194h85z" />
    <glyph glyph-name="uni0326" unicode="&#x326;" horiz-adv-x="0" 
d="M-103 -70c-12 -42 -53 -107 -85 -146h-46c24 53 38 103 47 146h84z" />
    <glyph glyph-name="uni0327" unicode="&#x327;" horiz-adv-x="0" 
d="M-249 -219l-13 34l4 4c61 1 106 19 106 57c0 26 -28 36 -63 42v6l52 76h41l-30 -46l11 -3c33 -9 58 -30 58 -66c0 -71 -78 -104 -166 -104z" />
    <glyph glyph-name="uni0328" unicode="&#x328;" horiz-adv-x="0" 
d="M-55 0c-86 -47 -122 -82 -122 -110c0 -19 14 -32 40 -32c19 0 38 7 55 14h7l-18 -40c-21 -10 -48 -16 -75 -16c-45 0 -80 20 -80 60c0 54 55 92 131 124h62z" />
    <glyph glyph-name="acute" unicode="&#xb4;" horiz-adv-x="217" 
d="M307 716l-172 -141h-58l122 141h108z" />
    <glyph glyph-name="breve" unicode="&#x2d8;" horiz-adv-x="217" 
d="M99 708c-3 -48 30 -75 81 -75c54 0 95 27 112 75h48c-24 -86 -81 -131 -168 -131s-129 52 -121 131h48z" />
    <glyph glyph-name="caron" unicode="&#x2c7;" horiz-adv-x="217" 
d="M109 575l-94 141h55l84 -87l107 87h54l-124 -141h-82z" />
    <glyph glyph-name="cedilla" unicode="&#xb8;" horiz-adv-x="217" 
d="M-32 -219l-13 34l4 4c61 1 106 19 106 57c0 26 -28 36 -63 42v6l52 76h41l-30 -46l11 -3c33 -9 58 -30 58 -66c0 -71 -78 -104 -166 -104z" />
    <glyph glyph-name="circumflex" unicode="&#x2c6;" horiz-adv-x="217" 
d="M241 716l83 -141h-51l-80 87l-111 -87h-57l133 141h83z" />
    <glyph glyph-name="dieresis" unicode="&#xa8;" horiz-adv-x="217" 
d="M150 699l-16 -95h-94l17 95h93zM323 699l-16 -95h-93l16 95h93z" />
    <glyph glyph-name="dotaccent" unicode="&#x2d9;" horiz-adv-x="217" 
d="M241 701l-17 -98h-102l17 98h102z" />
    <glyph glyph-name="grave" unicode="`" horiz-adv-x="217" 
d="M180 716l78 -141h-52l-124 141h98z" />
    <glyph glyph-name="hungarumlaut" unicode="&#x2dd;" horiz-adv-x="217" 
d="M227 716l-165 -141h-56l120 141h101zM392 716l-165 -141h-56l120 141h101z" />
    <glyph glyph-name="macron" unicode="&#xaf;" horiz-adv-x="217" 
d="M343 681l-9 -53h-314l9 53h314z" />
    <glyph glyph-name="ogonek" unicode="&#x2db;" horiz-adv-x="217" 
d="M162 0c-86 -47 -122 -82 -122 -110c0 -19 14 -32 40 -32c19 0 38 7 55 14h7l-18 -40c-21 -10 -48 -16 -75 -16c-45 0 -80 20 -80 60c0 54 55 92 131 124h62z" />
    <glyph glyph-name="ring" unicode="&#x2da;" horiz-adv-x="217" 
d="M169 550c-61 0 -99 39 -99 90c0 68 51 122 124 122c60 0 99 -37 99 -90c0 -68 -52 -122 -124 -122zM171 585c46 0 77 40 77 85c0 30 -19 57 -57 57c-43 0 -76 -37 -76 -84c0 -32 20 -58 56 -58z" />
    <glyph glyph-name="tilde" unicode="&#x2dc;" horiz-adv-x="217" 
d="M301 706c-15 -34 -32 -47 -55 -47c-15 0 -31 10 -54 24c-23 15 -43 25 -67 25c-49 0 -84 -44 -103 -107h41c15 34 32 49 55 49c15 0 30 -11 53 -25s43 -24 67 -24c50 0 84 42 103 105h-40z" />
    <glyph glyph-name="uni0308.case" horiz-adv-x="0" 
d="M-37 871l-16 -95h-94l16 95h94zM136 871l-16 -95h-94l17 95h93z" />
    <glyph glyph-name="uni0307.case" horiz-adv-x="0" 
d="M54 872l-17 -98h-102l17 98h102z" />
    <glyph glyph-name="gravecomb.case" horiz-adv-x="0" 
d="M-140 885h103l85 -129h-54z" />
    <glyph glyph-name="acutecomb.case" horiz-adv-x="0" 
d="M147 885l-181 -129h-59l127 129h113z" />
    <glyph glyph-name="uni030B.case" horiz-adv-x="0" 
d="M63 885l-166 -129h-57l120 129h103zM228 885l-166 -129h-57l120 129h103z" />
    <glyph glyph-name="uni0302.case" horiz-adv-x="0" 
d="M51 885l86 -129h-52l-80 75l-112 -75h-57l132 129h83z" />
    <glyph glyph-name="uni030C.case" horiz-adv-x="0" 
d="M-58 756l-86 129h53l80 -75l112 75h56l-132 -129h-83z" />
    <glyph glyph-name="uni0306.case" horiz-adv-x="0" 
d="M-91 883c-3 -45 30 -73 81 -73c53 0 93 26 111 73h48c-25 -85 -81 -129 -167 -129c-88 0 -129 53 -121 129h48z" />
    <glyph glyph-name="uni030A.case" horiz-adv-x="0" 
d="M-16 728c-60 0 -98 39 -98 90c0 67 51 121 124 121c59 0 98 -38 98 -90c0 -67 -51 -121 -124 -121zM-13 763c46 0 77 40 77 84c0 29 -19 56 -57 56c-43 0 -77 -36 -77 -83c0 -31 21 -57 57 -57z" />
    <glyph glyph-name="tildecomb.case" horiz-adv-x="0" 
d="M114 875c-15 -34 -32 -47 -55 -47c-14 0 -31 10 -53 24c-24 15 -43 25 -67 25c-49 0 -84 -43 -104 -107h42c15 35 31 49 54 49c15 0 30 -10 54 -25c23 -14 43 -24 67 -24c49 0 83 42 102 105h-40z" />
    <glyph glyph-name="uni0304.case" horiz-adv-x="0" 
d="M157 850l-10 -53h-314l10 53h314z" />
    </font>
</defs>
</svg>
