<?xml version="1.0" standalone="no"?>
<!DOCTYPE svg PUBLIC "-//W3C//DTD SVG 1.1//EN" "http://www.w3.org/Graphics/SVG/1.1/DTD/svg11.dtd" >
<svg xmlns="http://www.w3.org/2000/svg" xmlns:xlink="http://www.w3.org/1999/xlink" version="1.1">
<metadata>
Created by FontForge 20170910 at Wed Jun 27 12:51:37 2018
 By Jimmy Wärting
Copyright (c) 2018 Mazda Motor Corp.
</metadata>
<defs>
<font id="MazdaType-Regular" horiz-adv-x="600" >
  <font-face 
    font-family="Mazda Type"
    font-weight="400"
    font-stretch="normal"
    units-per-em="1000"
    panose-1="1 0 0 0 0 0 0 0 0 0"
    ascent="800"
    descent="-200"
    x-height="475"
    cap-height="680"
    bbox="-255 -237 1048 932"
    underline-thickness="50"
    underline-position="-100"
    stemh="50"
    stemv="83"
    unicode-range="U+000D-FEFF"
  />
<missing-glyph horiz-adv-x="572" 
d="M50 0h472v680h-472v-680zM148 618h276l-138 -228zM116 109v462l140 -231zM316 340l140 231v-462zM148 62l138 228l138 -228h-276z" />
    <glyph glyph-name="f_f" unicode="ff" horiz-adv-x="574" 
d="M556 677c-76 0 -93 -62 -93 -193v-9h98l-4 -44h-94v-431h-83v431h-201v-431h-83v431h-76v44h76v36c0 119 53 217 175 217c23 0 45 -3 65 -12l5 -55h-10c-19 12 -34 16 -59 16c-76 0 -93 -62 -93 -193v-9h201v36c0 119 53 217 175 217c23 0 45 -3 65 -12l5 -55h-10
c-19 12 -34 16 -59 16z" />
    <glyph glyph-name="f_f_i" unicode="ffi" horiz-adv-x="824" 
d="M20 431v44h76v36c0 119 53 217 175 217c23 0 45 -3 65 -12l5 -55h-10c-19 12 -34 16 -59 16c-76 0 -93 -62 -93 -193v-9h201v36c0 119 51 217 169 217c17 0 36 -3 49 -9l2 -50h-10c-16 10 -28 11 -43 11c-66 0 -84 -65 -84 -196v-9h98l-4 -44h-94v-431h-83v431h-201v-431
h-83v431h-76zM652 598v93h89v-93h-89zM655 0v475h83v-475h-83z" />
    <glyph glyph-name="f_f_l" unicode="ffl" horiz-adv-x="821" 
d="M20 431v44h76v36c0 119 53 217 175 217c23 0 45 -3 65 -12l5 -55h-10c-19 12 -34 16 -59 16c-76 0 -93 -62 -93 -193v-9h201v36c0 119 51 217 169 217c17 0 36 -3 49 -9l2 -50h-10c-16 10 -28 11 -43 11c-66 0 -84 -65 -84 -196v-9h98l-4 -44h-94v-431h-83v431h-201v-431
h-83v431h-76zM655 0v708l83 10v-718h-83z" />
    <glyph glyph-name="fi" unicode="fi" horiz-adv-x="540" 
d="M265 728c17 0 36 -3 49 -9l2 -50h-10c-16 10 -28 11 -43 11c-66 0 -84 -65 -84 -196v-9h98l-4 -44h-94v-431h-83v431h-76v44h76v36c0 119 51 217 169 217zM457 691v-93h-89v93h89zM454 475v-475h-83v475h83z" />
    <glyph glyph-name="fl" unicode="fl" horiz-adv-x="537" 
d="M265 728c17 0 36 -3 49 -9l2 -50h-10c-16 10 -28 11 -43 11c-66 0 -84 -65 -84 -196v-9h98l-4 -44h-94v-431h-83v431h-76v44h76v36c0 119 51 217 169 217zM371 0v708l83 10v-718h-83z" />
    <glyph glyph-name=".notdef" horiz-adv-x="572" 
d="M50 0h472v680h-472v-680zM148 618h276l-138 -228zM116 109v462l140 -231zM316 340l140 231v-462zM148 62l138 228l138 -228h-276z" />
    <glyph glyph-name=".null" horiz-adv-x="0" 
 />
    <glyph glyph-name=".null" horiz-adv-x="0" 
 />
    <glyph glyph-name="CR" unicode="&#xd;" horiz-adv-x="260" 
 />
    <glyph glyph-name="space" unicode=" " horiz-adv-x="260" 
 />
    <glyph glyph-name="A" unicode="A" horiz-adv-x="658" 
d="M447 263h-264l-116 -263h-66l306 670l58 10l292 -680h-99zM204 315h224l-108 255h-5z" />
    <glyph glyph-name="Aacute" unicode="&#xc1;" horiz-adv-x="658" 
d="M475 885l-149 -129h-51l107 129h93zM447 263h-264l-116 -263h-66l306 670l58 10l292 -680h-99zM204 315h224l-108 255h-5z" />
    <glyph glyph-name="Abreve" unicode="&#x102;" horiz-adv-x="658" 
d="M232 882c6 -49 47 -76 98 -76c53 0 93 28 101 76h39c-8 -76 -59 -126 -140 -126c-84 0 -135 51 -139 126h41zM447 263h-264l-116 -263h-66l306 670l58 10l292 -680h-99zM204 315h224l-108 255h-5z" />
    <glyph glyph-name="Acircumflex" unicode="&#xc2;" horiz-adv-x="658" 
d="M365 885l110 -129h-51l-95 81l-93 -81h-50l110 129h69zM447 263h-264l-116 -263h-66l306 670l58 10l292 -680h-99zM204 315h224l-108 255h-5z" />
    <glyph glyph-name="Adieresis" unicode="&#xc4;" horiz-adv-x="658" 
d="M288 869v-87h-81v87h81zM453 869v-87h-81v87h81zM447 263h-264l-116 -263h-66l306 670l58 10l292 -680h-99zM204 315h224l-108 255h-5z" />
    <glyph glyph-name="Agrave" unicode="&#xc0;" horiz-adv-x="658" 
d="M186 885h93l107 -129h-51zM447 263h-264l-116 -263h-66l306 670l58 10l292 -680h-99zM204 315h224l-108 255h-5z" />
    <glyph glyph-name="Amacron" unicode="&#x100;" horiz-adv-x="658" 
d="M486 848v-47h-311v47h311zM447 263h-264l-116 -263h-66l306 670l58 10l292 -680h-99zM204 315h224l-108 255h-5z" />
    <glyph glyph-name="Aogonek" unicode="&#x104;" horiz-adv-x="658" 
d="M1 0l306 670l58 10l292 -680c-79 -45 -107 -78 -107 -107c0 -23 14 -36 43 -36c18 0 39 5 55 12h7l-14 -35c-20 -11 -46 -18 -72 -18c-43 0 -85 17 -85 68c0 36 31 77 116 116h-42l-111 263h-264l-116 -263h-66zM204 315h224l-108 255h-5z" />
    <glyph glyph-name="Aring" unicode="&#xc5;" horiz-adv-x="658" 
d="M331 724c-62 0 -107 48 -107 104c0 58 47 104 107 104c59 0 107 -45 107 -104c0 -58 -47 -104 -107 -104zM331 757c41 0 68 32 68 71c0 36 -24 71 -69 71c-38 0 -67 -30 -67 -71c0 -38 26 -71 68 -71zM447 263h-264l-116 -263h-66l306 670l58 10l292 -680h-99zM204 315
h224l-108 255h-5z" />
    <glyph glyph-name="Aringacute" unicode="&#x1fa;" horiz-adv-x="658" 
d="M381 644l276 -644h-99l-111 263h-264l-116 -263h-66l294 643c-39 16 -64 53 -64 93c0 44 30 82 73 96l75 82h93l-106 -80c45 -12 79 -51 79 -98c0 -41 -26 -77 -64 -92zM270 736c0 -35 26 -68 68 -68c41 0 68 32 68 68c0 35 -24 68 -69 68c-38 0 -67 -30 -67 -68z
M204 315h224l-108 255h-5z" />
    <glyph glyph-name="Atilde" unicode="&#xc3;" horiz-adv-x="658" 
d="M340 853c18 -10 42 -24 61 -24c25 0 41 10 50 45h34c-11 -60 -40 -99 -85 -99c-25 0 -49 7 -72 21c-18 11 -43 25 -65 25c-24 0 -42 -11 -50 -47h-36c5 52 37 101 87 101c22 0 45 -5 76 -22zM447 263h-264l-116 -263h-66l306 670l58 10l292 -680h-99zM204 315h224
l-108 255h-5z" />
    <glyph glyph-name="AE" unicode="&#xc6;" horiz-adv-x="869" 
d="M835 63h6l-31 -63h-345v261h-231l-160 -261h-73l426 680h368v-53h-240v-254h216v-53h-216v-267h141c62 0 104 1 139 10zM267 315h198v312h-6z" />
    <glyph glyph-name="AEacute" unicode="&#x1fc;" horiz-adv-x="869" 
d="M729 885l-149 -129h-51l107 129h93zM835 63h6l-31 -63h-345v261h-231l-160 -261h-73l426 680h368v-53h-240v-254h216v-53h-216v-267h141c62 0 104 1 139 10zM267 315h198v312h-6z" />
    <glyph glyph-name="B" unicode="B" horiz-adv-x="576" 
d="M263 680c128 0 216 -44 216 -158c0 -77 -50 -124 -145 -148v-5c98 -10 193 -59 193 -169c0 -150 -129 -200 -255 -200h-176v680h167zM243 391c88 0 146 44 146 123c0 85 -47 113 -146 113h-57v-236h57zM258 53c119 0 177 43 177 144c0 97 -85 142 -193 142h-56v-286h72z
" />
    <glyph glyph-name="C" unicode="C" horiz-adv-x="714" 
d="M648 548c-47 47 -123 88 -217 88c-150 0 -278 -97 -278 -299c0 -203 136 -289 279 -289c109 0 190 37 240 81h8l-23 -85c-45 -30 -136 -56 -229 -56c-218 0 -374 116 -374 350c0 233 182 354 377 354c93 0 171 -26 220 -57l7 -87h-10z" />
    <glyph glyph-name="Cacute" unicode="&#x106;" horiz-adv-x="714" 
d="M561 885l-149 -129h-51l107 129h93zM648 548c-47 47 -123 88 -217 88c-150 0 -278 -97 -278 -299c0 -203 136 -289 279 -289c109 0 190 37 240 81h8l-23 -85c-45 -30 -136 -56 -229 -56c-218 0 -374 116 -374 350c0 233 182 354 377 354c93 0 171 -26 220 -57l7 -87h-10z
" />
    <glyph glyph-name="Ccaron" unicode="&#x10c;" horiz-adv-x="714" 
d="M382 756l-110 129h52l95 -81l93 81h49l-110 -129h-69zM648 548c-47 47 -123 88 -217 88c-150 0 -278 -97 -278 -299c0 -203 136 -289 279 -289c109 0 190 37 240 81h8l-23 -85c-45 -30 -136 -56 -229 -56c-218 0 -374 116 -374 350c0 233 182 354 377 354
c93 0 171 -26 220 -57l7 -87h-10z" />
    <glyph glyph-name="Ccedilla" unicode="&#xc7;" horiz-adv-x="714" 
d="M54 338c0 233 182 354 377 354c93 0 171 -26 220 -57l7 -87h-10c-47 47 -123 88 -217 88c-150 0 -278 -97 -278 -299c0 -203 136 -289 279 -289c109 0 190 37 240 81h8l-23 -85c-43 -29 -128 -54 -217 -56l-16 -35l11 -3c30 -8 70 -28 70 -73c0 -71 -79 -94 -155 -94
l-15 31l4 3c69 0 102 20 102 51s-30 43 -69 50l-1 6l34 64c-206 8 -351 124 -351 350z" />
    <glyph glyph-name="Ccircumflex" unicode="&#x108;" horiz-adv-x="714" 
d="M451 885l110 -129h-51l-95 81l-93 -81h-50l110 129h69zM648 548c-47 47 -123 88 -217 88c-150 0 -278 -97 -278 -299c0 -203 136 -289 279 -289c109 0 190 37 240 81h8l-23 -85c-45 -30 -136 -56 -229 -56c-218 0 -374 116 -374 350c0 233 182 354 377 354
c93 0 171 -26 220 -57l7 -87h-10z" />
    <glyph glyph-name="Cdotaccent" unicode="&#x10a;" horiz-adv-x="714" 
d="M461 871v-93h-89v93h89zM648 548c-47 47 -123 88 -217 88c-150 0 -278 -97 -278 -299c0 -203 136 -289 279 -289c109 0 190 37 240 81h8l-23 -85c-45 -30 -136 -56 -229 -56c-218 0 -374 116 -374 350c0 233 182 354 377 354c93 0 171 -26 220 -57l7 -87h-10z" />
    <glyph glyph-name="D" unicode="D" horiz-adv-x="774" 
d="M351 680c233 0 369 -110 369 -341c0 -220 -162 -339 -393 -339h-231v680h255zM312 53c204 0 311 95 311 286c0 201 -98 288 -303 288h-134v-574h126z" />
    <glyph glyph-name="Eth" unicode="&#xd0;" horiz-adv-x="778" 
d="M355 680c233 0 369 -110 369 -341c0 -220 -162 -339 -393 -339h-231v320h-74v53h74v307h255zM316 53c204 0 311 95 311 286c0 201 -98 288 -303 288h-134v-254h189v-53h-189v-267h126z" />
    <glyph glyph-name="Dcaron" unicode="&#x10e;" horiz-adv-x="774" 
d="M332 756l-110 129h52l95 -81l93 81h49l-110 -129h-69zM351 680c233 0 369 -110 369 -341c0 -220 -162 -339 -393 -339h-231v680h255zM312 53c204 0 311 95 311 286c0 201 -98 288 -303 288h-134v-574h126z" />
    <glyph glyph-name="Dcroat" unicode="&#x110;" horiz-adv-x="778" 
d="M355 680c233 0 369 -110 369 -341c0 -220 -162 -339 -393 -339h-231v320h-74v53h74v307h255zM316 53c204 0 311 95 311 286c0 201 -98 288 -303 288h-134v-254h189v-53h-189v-267h126z" />
    <glyph glyph-name="E" unicode="E" horiz-adv-x="500" 
d="M327 53c62 0 104 1 139 10h6l-31 -63h-345v680h330v-53h-240v-254h216v-53h-216v-267h141z" />
    <glyph glyph-name="Eacute" unicode="&#xc9;" horiz-adv-x="500" 
d="M405 885l-149 -129h-51l107 129h93zM327 53c62 0 104 1 139 10h6l-31 -63h-345v680h330v-53h-240v-254h216v-53h-216v-267h141z" />
    <glyph glyph-name="Ebreve" unicode="&#x114;" horiz-adv-x="500" 
d="M162 882c6 -49 47 -76 98 -76c53 0 93 28 101 76h39c-8 -76 -59 -126 -140 -126c-84 0 -135 51 -139 126h41zM327 53c62 0 104 1 139 10h6l-31 -63h-345v680h330v-53h-240v-254h216v-53h-216v-267h141z" />
    <glyph glyph-name="Ecaron" unicode="&#x11a;" horiz-adv-x="500" 
d="M226 756l-110 129h52l95 -81l93 81h49l-110 -129h-69zM327 53c62 0 104 1 139 10h6l-31 -63h-345v680h330v-53h-240v-254h216v-53h-216v-267h141z" />
    <glyph glyph-name="Ecircumflex" unicode="&#xca;" horiz-adv-x="500" 
d="M295 885l110 -129h-51l-95 81l-93 -81h-50l110 129h69zM327 53c62 0 104 1 139 10h6l-31 -63h-345v680h330v-53h-240v-254h216v-53h-216v-267h141z" />
    <glyph glyph-name="Edieresis" unicode="&#xcb;" horiz-adv-x="500" 
d="M218 869v-87h-81v87h81zM383 869v-87h-81v87h81zM327 53c62 0 104 1 139 10h6l-31 -63h-345v680h330v-53h-240v-254h216v-53h-216v-267h141z" />
    <glyph glyph-name="Edotaccent" unicode="&#x116;" horiz-adv-x="500" 
d="M305 871v-93h-89v93h89zM327 53c62 0 104 1 139 10h6l-31 -63h-345v680h330v-53h-240v-254h216v-53h-216v-267h141z" />
    <glyph glyph-name="Egrave" unicode="&#xc8;" horiz-adv-x="500" 
d="M116 885h93l107 -129h-51zM327 53c62 0 104 1 139 10h6l-31 -63h-345v680h330v-53h-240v-254h216v-53h-216v-267h141z" />
    <glyph glyph-name="Emacron" unicode="&#x112;" horiz-adv-x="500" 
d="M416 848v-47h-311v47h311zM327 53c62 0 104 1 139 10h6l-31 -63h-345v680h330v-53h-240v-254h216v-53h-216v-267h141z" />
    <glyph glyph-name="Eogonek" unicode="&#x118;" horiz-adv-x="500" 
d="M96 0v680h330v-53h-240v-254h216v-53h-216v-267h141c62 0 104 1 139 10h6l-31 -63c-70 -45 -101 -78 -101 -107c0 -23 14 -36 43 -36c18 0 39 5 55 12h7l-14 -35c-20 -11 -46 -18 -72 -18c-43 0 -85 17 -85 68c0 36 32 77 114 116h-292z" />
    <glyph glyph-name="F" unicode="F" horiz-adv-x="460" 
d="M446 680v-53h-260v-261h234v-53h-234v-313h-90v680h350z" />
    <glyph glyph-name="G" unicode="G" horiz-adv-x="764" 
d="M430 -12c-218 0 -375 116 -376 350c-1 233 184 354 379 354c94 0 185 -27 225 -56l8 -85h-10c-55 54 -132 85 -224 85c-151 0 -279 -97 -279 -299c0 -197 133 -292 284 -292c68 0 119 14 152 30v260h88v-275c-49 -41 -154 -72 -247 -72z" />
    <glyph glyph-name="Gbreve" unicode="&#x11e;" horiz-adv-x="764" 
d="M308 882c6 -49 47 -76 98 -76c53 0 93 28 101 76h39c-8 -76 -59 -126 -140 -126c-84 0 -135 51 -139 126h41zM430 -12c-218 0 -375 116 -376 350c-1 233 184 354 379 354c94 0 185 -27 225 -56l8 -85h-10c-55 54 -132 85 -224 85c-151 0 -279 -97 -279 -299
c0 -197 133 -292 284 -292c68 0 119 14 152 30v260h88v-275c-49 -41 -154 -72 -247 -72z" />
    <glyph glyph-name="Gcircumflex" unicode="&#x11c;" horiz-adv-x="764" 
d="M441 885l110 -129h-51l-95 81l-93 -81h-50l110 129h69zM430 -12c-218 0 -375 116 -376 350c-1 233 184 354 379 354c94 0 185 -27 225 -56l8 -85h-10c-55 54 -132 85 -224 85c-151 0 -279 -97 -279 -299c0 -197 133 -292 284 -292c68 0 119 14 152 30v260h88v-275
c-49 -41 -154 -72 -247 -72z" />
    <glyph glyph-name="uni0122" unicode="&#x122;" horiz-adv-x="764" 
d="M430 -12c-218 0 -375 116 -376 350c-1 233 184 354 379 354c94 0 185 -27 225 -56l8 -85h-10c-55 54 -132 85 -224 85c-151 0 -279 -97 -279 -299c0 -197 133 -292 284 -292c68 0 119 14 152 30v260h88v-275c-49 -41 -154 -72 -247 -72zM454 -70
c-6 -40 -32 -106 -53 -145h-43c14 56 19 106 21 145h75z" />
    <glyph glyph-name="Gdotaccent" unicode="&#x120;" horiz-adv-x="764" 
d="M451 871v-93h-89v93h89zM430 -12c-218 0 -375 116 -376 350c-1 233 184 354 379 354c94 0 185 -27 225 -56l8 -85h-10c-55 54 -132 85 -224 85c-151 0 -279 -97 -279 -299c0 -197 133 -292 284 -292c68 0 119 14 152 30v260h88v-275c-49 -41 -154 -72 -247 -72z" />
    <glyph glyph-name="H" unicode="H" horiz-adv-x="754" 
d="M186 680v-294h382v294h90v-680h-90v331h-382v-331h-90v680h90z" />
    <glyph glyph-name="Hbar" unicode="&#x126;" horiz-adv-x="762" 
d="M732 564v-53h-70v-511h-90v331h-382v-331h-90v511h-70v53h70v116h90v-116h382v116h90v-116h70zM572 386v125h-382v-125h382z" />
    <glyph glyph-name="Hcircumflex" unicode="&#x124;" horiz-adv-x="754" 
d="M411 885l110 -129h-51l-95 81l-93 -81h-50l110 129h69zM186 680v-294h382v294h90v-680h-90v331h-382v-331h-90v680h90z" />
    <glyph glyph-name="I" unicode="I" horiz-adv-x="282" 
d="M186 680v-680h-90v680h90z" />
    <glyph glyph-name="IJ" unicode="&#x132;" horiz-adv-x="565" 
d="M186 680v-680h-90v680h90zM477 680v-539c0 -189 -68 -248 -188 -292l-49 16v5c127 52 147 114 147 295v515h90z" />
    <glyph glyph-name="Iacute" unicode="&#xcd;" horiz-adv-x="282" 
d="M285 885l-149 -129h-51l107 129h93zM186 680v-680h-90v680h90z" />
    <glyph glyph-name="Ibreve" unicode="&#x12c;" horiz-adv-x="282" 
d="M42 882c6 -49 47 -76 98 -76c53 0 93 28 101 76h39c-8 -76 -59 -126 -140 -126c-84 0 -135 51 -139 126h41zM186 680v-680h-90v680h90z" />
    <glyph glyph-name="Icircumflex" unicode="&#xce;" horiz-adv-x="282" 
d="M175 885l110 -129h-51l-95 81l-93 -81h-50l110 129h69zM186 680v-680h-90v680h90z" />
    <glyph glyph-name="Idieresis" unicode="&#xcf;" horiz-adv-x="282" 
d="M98 869v-87h-81v87h81zM263 869v-87h-81v87h81zM186 680v-680h-90v680h90z" />
    <glyph glyph-name="Idotaccent" unicode="&#x130;" horiz-adv-x="282" 
d="M185 871v-93h-89v93h89zM186 680v-680h-90v680h90z" />
    <glyph glyph-name="Igrave" unicode="&#xcc;" horiz-adv-x="282" 
d="M-4 885h93l107 -129h-51zM186 680v-680h-90v680h90z" />
    <glyph glyph-name="Imacron" unicode="&#x12a;" horiz-adv-x="282" 
d="M296 848v-47h-311v47h311zM186 680v-680h-90v680h90z" />
    <glyph glyph-name="Iogonek" unicode="&#x12e;" horiz-adv-x="282" 
d="M39 -116c0 36 27 70 100 116h-43v680h90v-680c-59 -53 -81 -78 -81 -107c0 -23 14 -36 43 -36c18 0 39 5 55 12h7l-14 -35c-20 -11 -46 -18 -72 -18c-43 0 -85 17 -85 68z" />
    <glyph glyph-name="Itilde" unicode="&#x128;" horiz-adv-x="282" 
d="M150 853c18 -10 42 -24 61 -24c25 0 41 10 50 45h34c-11 -60 -40 -99 -85 -99c-25 0 -49 7 -72 21c-18 11 -43 25 -65 25c-24 0 -42 -11 -50 -47h-36c5 52 37 101 87 101c22 0 45 -5 76 -22zM186 680v-680h-90v680h90z" />
    <glyph glyph-name="J" unicode="J" horiz-adv-x="283" 
d="M195 680v-539c0 -189 -68 -248 -188 -292l-49 16v5c127 52 147 114 147 295v515h90z" />
    <glyph glyph-name="Jcircumflex" unicode="&#x134;" horiz-adv-x="283" 
d="M176 885l110 -129h-51l-95 81l-93 -81h-50l110 129h69zM195 680v-539c0 -189 -68 -248 -188 -292l-49 16v5c127 52 147 114 147 295v515h90z" />
    <glyph glyph-name="K" unicode="K" horiz-adv-x="619" 
d="M186 680v-680h-90v680h90zM195 376c104 97 207 203 303 304h89l-300 -287c140 -177 288 -334 355 -387v-6h-130c-77 78 -174 193 -317 368v8z" />
    <glyph glyph-name="uni0136" unicode="&#x136;" horiz-adv-x="619" 
d="M186 680v-680h-90v680h90zM195 376c104 97 207 203 303 304h89l-300 -287c140 -177 288 -334 355 -387v-6h-130c-77 78 -174 193 -317 368v8zM360 -70c-6 -40 -32 -106 -53 -145h-43c14 56 19 106 21 145h75z" />
    <glyph glyph-name="L" unicode="L" horiz-adv-x="435" 
d="M284 53c62 0 104 1 139 10h6l-31 -63h-302v680h90v-627h98z" />
    <glyph glyph-name="Lacute" unicode="&#x139;" horiz-adv-x="435" 
d="M312 885l-149 -129h-51l107 129h93zM284 53c62 0 104 1 139 10h6l-31 -63h-302v680h90v-627h98z" />
    <glyph glyph-name="Lcaron" unicode="&#x13d;" horiz-adv-x="435" 
d="M349 718c-11 -75 -39 -146 -59 -183h-39c12 44 24 118 24 183h74zM284 53c62 0 104 1 139 10h6l-31 -63h-302v680h90v-627h98z" />
    <glyph glyph-name="uni013B" unicode="&#x13b;" horiz-adv-x="435" 
d="M284 53c62 0 104 1 139 10h6l-31 -63h-302v680h90v-627h98zM280 -70c-6 -40 -32 -106 -53 -145h-43c14 56 19 106 21 145h75z" />
    <glyph glyph-name="Ldot" unicode="&#x13f;" horiz-adv-x="435" 
d="M284 53c62 0 104 1 139 10h6l-31 -63h-302v680h90v-627h98zM403 385v-93h-89v93h89z" />
    <glyph glyph-name="Lslash" unicode="&#x141;" horiz-adv-x="439" 
d="M427 63h6l-31 -63h-302v296l-74 -42v56l74 42v328h90v-281l129 74v-56l-129 -74v-290h98c62 0 104 1 139 10z" />
    <glyph glyph-name="M" unicode="M" horiz-adv-x="943" 
d="M465 165h3l260 515h76l79 -680h-92l-59 550h-4l-264 -509h-30l-258 508h-4l-54 -549h-61l77 680h77z" />
    <glyph glyph-name="N" unicode="N" horiz-adv-x="759" 
d="M604 163v517h59v-685h-31l-472 553h-5v-548h-59v680h68l437 -517h3z" />
    <glyph glyph-name="Nacute" unicode="&#x143;" horiz-adv-x="759" 
d="M524 885l-149 -129h-51l107 129h93zM604 163v517h59v-685h-31l-472 553h-5v-548h-59v680h68l437 -517h3z" />
    <glyph glyph-name="Ncaron" unicode="&#x147;" horiz-adv-x="759" 
d="M345 756l-110 129h52l95 -81l93 81h49l-110 -129h-69zM604 163v517h59v-685h-31l-472 553h-5v-548h-59v680h68l437 -517h3z" />
    <glyph glyph-name="uni0145" unicode="&#x145;" horiz-adv-x="759" 
d="M604 163v517h59v-685h-31l-472 553h-5v-548h-59v680h68l437 -517h3zM422 -70c-6 -40 -32 -106 -53 -145h-43c14 56 19 106 21 145h75z" />
    <glyph glyph-name="Eng" unicode="&#x14a;" horiz-adv-x="759" 
d="M96 0v680h68l437 -517h3v517h59v-647c0 -165 -59 -228 -182 -264l-44 16v6c112 44 158 108 163 242l-440 515h-5v-548h-59z" />
    <glyph glyph-name="Ntilde" unicode="&#xd1;" horiz-adv-x="759" 
d="M389 853c18 -10 42 -24 61 -24c25 0 41 10 50 45h34c-11 -60 -40 -99 -85 -99c-25 0 -49 7 -72 21c-18 11 -43 25 -65 25c-24 0 -42 -11 -50 -47h-36c5 52 37 101 87 101c22 0 45 -5 76 -22zM604 163v517h59v-685h-31l-472 553h-5v-548h-59v680h68l437 -517h3z" />
    <glyph glyph-name="O" unicode="O" horiz-adv-x="833" 
d="M412 692c181 0 367 -107 367 -352c0 -235 -184 -352 -357 -352c-182 0 -368 107 -368 352c0 235 184 352 358 352zM422 42c150 0 260 112 260 298c0 176 -112 298 -270 298c-150 0 -261 -112 -261 -298c0 -176 113 -298 271 -298z" />
    <glyph glyph-name="Oacute" unicode="&#xd3;" horiz-adv-x="833" 
d="M561 885l-149 -129h-51l107 129h93zM412 692c181 0 367 -107 367 -352c0 -235 -184 -352 -357 -352c-182 0 -368 107 -368 352c0 235 184 352 358 352zM422 42c150 0 260 112 260 298c0 176 -112 298 -270 298c-150 0 -261 -112 -261 -298c0 -176 113 -298 271 -298z" />
    <glyph glyph-name="Obreve" unicode="&#x14e;" horiz-adv-x="833" 
d="M318 882c6 -49 47 -76 98 -76c53 0 93 28 101 76h39c-8 -76 -59 -126 -140 -126c-84 0 -135 51 -139 126h41zM412 692c181 0 367 -107 367 -352c0 -235 -184 -352 -357 -352c-182 0 -368 107 -368 352c0 235 184 352 358 352zM422 42c150 0 260 112 260 298
c0 176 -112 298 -270 298c-150 0 -261 -112 -261 -298c0 -176 113 -298 271 -298z" />
    <glyph glyph-name="Ocircumflex" unicode="&#xd4;" horiz-adv-x="833" 
d="M451 885l110 -129h-51l-95 81l-93 -81h-50l110 129h69zM412 692c181 0 367 -107 367 -352c0 -235 -184 -352 -357 -352c-182 0 -368 107 -368 352c0 235 184 352 358 352zM422 42c150 0 260 112 260 298c0 176 -112 298 -270 298c-150 0 -261 -112 -261 -298
c0 -176 113 -298 271 -298z" />
    <glyph glyph-name="Odieresis" unicode="&#xd6;" horiz-adv-x="833" 
d="M374 869v-87h-81v87h81zM539 869v-87h-81v87h81zM412 692c181 0 367 -107 367 -352c0 -235 -184 -352 -357 -352c-182 0 -368 107 -368 352c0 235 184 352 358 352zM422 42c150 0 260 112 260 298c0 176 -112 298 -270 298c-150 0 -261 -112 -261 -298
c0 -176 113 -298 271 -298z" />
    <glyph glyph-name="Ograve" unicode="&#xd2;" horiz-adv-x="833" 
d="M272 885h93l107 -129h-51zM412 692c181 0 367 -107 367 -352c0 -235 -184 -352 -357 -352c-182 0 -368 107 -368 352c0 235 184 352 358 352zM422 42c150 0 260 112 260 298c0 176 -112 298 -270 298c-150 0 -261 -112 -261 -298c0 -176 113 -298 271 -298z" />
    <glyph glyph-name="Ohungarumlaut" unicode="&#x150;" horiz-adv-x="833" 
d="M486 885l-137 -129h-50l100 129h87zM639 885l-137 -129h-50l100 129h87zM412 692c181 0 367 -107 367 -352c0 -235 -184 -352 -357 -352c-182 0 -368 107 -368 352c0 235 184 352 358 352zM422 42c150 0 260 112 260 298c0 176 -112 298 -270 298
c-150 0 -261 -112 -261 -298c0 -176 113 -298 271 -298z" />
    <glyph glyph-name="Omacron" unicode="&#x14c;" horiz-adv-x="833" 
d="M572 848v-47h-311v47h311zM412 692c181 0 367 -107 367 -352c0 -235 -184 -352 -357 -352c-182 0 -368 107 -368 352c0 235 184 352 358 352zM422 42c150 0 260 112 260 298c0 176 -112 298 -270 298c-150 0 -261 -112 -261 -298c0 -176 113 -298 271 -298z" />
    <glyph glyph-name="Oslash" unicode="&#xd8;" horiz-adv-x="833" 
d="M676 597c62 -57 103 -142 103 -257c0 -235 -184 -352 -357 -352c-79 0 -159 20 -224 63l-62 -70l-38 34l59 68c-62 57 -103 142 -103 257c0 235 184 352 358 352c79 0 159 -20 224 -64l60 69l38 -33zM151 340c0 -78 22 -145 60 -196l377 429c-46 42 -107 65 -176 65
c-150 0 -261 -112 -261 -298zM422 42c150 0 260 112 260 298c0 78 -22 145 -60 196l-376 -429c46 -42 107 -65 176 -65z" />
    <glyph glyph-name="Oslashacute" unicode="&#x1fe;" horiz-adv-x="833" 
d="M561 885l-149 -129h-51l107 129h93zM676 597c62 -57 103 -142 103 -257c0 -235 -184 -352 -357 -352c-79 0 -159 20 -224 63l-62 -70l-38 34l59 68c-62 57 -103 142 -103 257c0 235 184 352 358 352c79 0 159 -20 224 -64l60 69l38 -33zM151 340c0 -78 22 -145 60 -196
l377 429c-46 42 -107 65 -176 65c-150 0 -261 -112 -261 -298zM422 42c150 0 260 112 260 298c0 78 -22 145 -60 196l-376 -429c46 -42 107 -65 176 -65z" />
    <glyph glyph-name="Otilde" unicode="&#xd5;" horiz-adv-x="833" 
d="M426 853c18 -10 42 -24 61 -24c25 0 41 10 50 45h34c-11 -60 -40 -99 -85 -99c-25 0 -49 7 -72 21c-18 11 -43 25 -65 25c-24 0 -42 -11 -50 -47h-36c5 52 37 101 87 101c22 0 45 -5 76 -22zM412 692c181 0 367 -107 367 -352c0 -235 -184 -352 -357 -352
c-182 0 -368 107 -368 352c0 235 184 352 358 352zM422 42c150 0 260 112 260 298c0 176 -112 298 -270 298c-150 0 -261 -112 -261 -298c0 -176 113 -298 271 -298z" />
    <glyph glyph-name="OE" unicode="&#x152;" horiz-adv-x="956" 
d="M54 340c0 235 180 345 368 345c48 0 118 -4 162 -5h298v-53h-240v-254h216v-53h-216v-267h141c62 0 104 1 139 10h6l-31 -63h-313c-44 -1 -115 -5 -152 -5c-196 0 -378 100 -378 345zM151 340c0 -176 109 -291 281 -291c31 0 76 2 120 4v574c-47 1 -83 4 -130 4
c-164 0 -271 -105 -271 -291z" />
    <glyph glyph-name="P" unicode="P" horiz-adv-x="555" 
d="M259 680c133 0 246 -42 246 -189c0 -138 -119 -192 -252 -192h-67v-299h-90v680h163zM245 348c100 0 166 32 166 143c0 109 -65 140 -166 140h-59v-283h59z" />
    <glyph glyph-name="Thorn" unicode="&#xde;" horiz-adv-x="565" 
d="M259 546c133 0 246 -42 246 -189c0 -138 -119 -192 -252 -192h-67v-165h-90v680h90v-134h73zM245 214c100 0 166 32 166 143c0 109 -65 140 -166 140h-59v-283h59z" />
    <glyph glyph-name="Q" unicode="Q" horiz-adv-x="833" 
d="M574 19c72 -49 203 -121 295 -158v-9l-144 -20c-66 30 -179 105 -248 160c-18 -3 -37 -4 -55 -4c-182 0 -368 107 -368 352c0 235 184 352 358 352c181 0 367 -107 367 -352c0 -165 -91 -272 -205 -321zM151 340c0 -176 113 -298 271 -298c150 0 260 112 260 298
c0 176 -112 298 -270 298c-150 0 -261 -112 -261 -298z" />
    <glyph glyph-name="R" unicode="R" horiz-adv-x="602" 
d="M263 680c141 0 239 -44 239 -177c0 -92 -69 -151 -167 -178v-4c79 -97 205 -236 297 -316v-5h-127c-68 69 -180 198 -264 306h-55v-306h-90v680h167zM269 353c90 5 140 69 140 148c0 106 -65 126 -158 126h-65v-274h83z" />
    <glyph glyph-name="Racute" unicode="&#x154;" horiz-adv-x="602" 
d="M445 885l-149 -129h-51l107 129h93zM263 680c141 0 239 -44 239 -177c0 -92 -69 -151 -167 -178v-4c79 -97 205 -236 297 -316v-5h-127c-68 69 -180 198 -264 306h-55v-306h-90v680h167zM269 353c90 5 140 69 140 148c0 106 -65 126 -158 126h-65v-274h83z" />
    <glyph glyph-name="Rcaron" unicode="&#x158;" horiz-adv-x="602" 
d="M266 756l-110 129h52l95 -81l93 81h49l-110 -129h-69zM263 680c141 0 239 -44 239 -177c0 -92 -69 -151 -167 -178v-4c79 -97 205 -236 297 -316v-5h-127c-68 69 -180 198 -264 306h-55v-306h-90v680h167zM269 353c90 5 140 69 140 148c0 106 -65 126 -158 126h-65v-274
h83z" />
    <glyph glyph-name="uni0156" unicode="&#x156;" horiz-adv-x="602" 
d="M263 680c141 0 239 -44 239 -177c0 -92 -69 -151 -167 -178v-4c79 -97 205 -236 297 -316v-5h-127c-68 69 -180 198 -264 306h-55v-306h-90v680h167zM269 353c90 5 140 69 140 148c0 106 -65 126 -158 126h-65v-274h83zM343 -70c-6 -40 -32 -106 -53 -145h-43
c14 56 19 106 21 145h75z" />
    <glyph glyph-name="S" unicode="S" horiz-adv-x="510" 
d="M415 583c-34 39 -80 59 -130 59c-56 0 -114 -28 -114 -97c0 -55 36 -88 117 -143c119 -81 178 -121 178 -233c0 -119 -104 -181 -214 -181c-84 0 -153 40 -193 82l-13 92h11c52 -66 123 -117 202 -117c68 0 121 40 121 111c0 76 -46 103 -144 173s-147 109 -147 198
c0 117 107 165 196 165c61 0 105 -15 131 -34l9 -75h-10z" />
    <glyph glyph-name="Sacute" unicode="&#x15a;" horiz-adv-x="510" 
d="M415 885l-149 -129h-51l107 129h93zM415 583c-34 39 -80 59 -130 59c-56 0 -114 -28 -114 -97c0 -55 36 -88 117 -143c119 -81 178 -121 178 -233c0 -119 -104 -181 -214 -181c-84 0 -153 40 -193 82l-13 92h11c52 -66 123 -117 202 -117c68 0 121 40 121 111
c0 76 -46 103 -144 173s-147 109 -147 198c0 117 107 165 196 165c61 0 105 -15 131 -34l9 -75h-10z" />
    <glyph glyph-name="Scaron" unicode="&#x160;" horiz-adv-x="510" 
d="M236 756l-110 129h52l95 -81l93 81h49l-110 -129h-69zM415 583c-34 39 -80 59 -130 59c-56 0 -114 -28 -114 -97c0 -55 36 -88 117 -143c119 -81 178 -121 178 -233c0 -119 -104 -181 -214 -181c-84 0 -153 40 -193 82l-13 92h11c52 -66 123 -117 202 -117
c68 0 121 40 121 111c0 76 -46 103 -144 173s-147 109 -147 198c0 117 107 165 196 165c61 0 105 -15 131 -34l9 -75h-10z" />
    <glyph glyph-name="Scedilla" unicode="&#x15e;" horiz-adv-x="510" 
d="M46 162h11c52 -66 123 -117 202 -117c68 0 121 40 121 111c0 76 -46 103 -144 173s-147 109 -147 198c0 117 107 165 196 165c61 0 105 -15 131 -34l9 -75h-10c-34 39 -80 59 -130 59c-56 0 -114 -28 -114 -97c0 -55 36 -88 117 -143c119 -81 178 -121 178 -233
c0 -110 -89 -172 -190 -180l-17 -36l11 -3c30 -8 70 -28 70 -73c0 -71 -79 -94 -155 -94l-15 31l4 3c69 0 102 20 102 51s-30 43 -69 50l-1 6l34 64c-79 4 -143 42 -181 82z" />
    <glyph glyph-name="Scircumflex" unicode="&#x15c;" horiz-adv-x="510" 
d="M305 885l110 -129h-51l-95 81l-93 -81h-50l110 129h69zM415 583c-34 39 -80 59 -130 59c-56 0 -114 -28 -114 -97c0 -55 36 -88 117 -143c119 -81 178 -121 178 -233c0 -119 -104 -181 -214 -181c-84 0 -153 40 -193 82l-13 92h11c52 -66 123 -117 202 -117
c68 0 121 40 121 111c0 76 -46 103 -144 173s-147 109 -147 198c0 117 107 165 196 165c61 0 105 -15 131 -34l9 -75h-10z" />
    <glyph glyph-name="uni0218" unicode="&#x218;" horiz-adv-x="510" 
d="M415 583c-34 39 -80 59 -130 59c-56 0 -114 -28 -114 -97c0 -55 36 -88 117 -143c119 -81 178 -121 178 -233c0 -119 -104 -181 -214 -181c-84 0 -153 40 -193 82l-13 92h11c52 -66 123 -117 202 -117c68 0 121 40 121 111c0 76 -46 103 -144 173s-147 109 -147 198
c0 117 107 165 196 165c61 0 105 -15 131 -34l9 -75h-10zM297 -70c-6 -40 -32 -106 -53 -145h-43c14 56 19 106 21 145h75z" />
    <glyph glyph-name="uni1E9E" unicode="&#x1e9e;" horiz-adv-x="680" 
d="M437 -12c-67 0 -114 22 -155 56l-13 90h11c51 -63 100 -89 159 -89c56 0 103 34 103 105c0 55 -39 89 -110 149c-80 68 -101 124 -101 175c0 60 37 124 128 155c-21 2 -61 4 -87 4c-133 0 -189 -52 -189 -173l-1 -460l-90 1v461c0 148 73 228 267 228
c71 0 148 -8 199 -15l6 -51c-113 -27 -148 -73 -148 -129c0 -39 7 -73 78 -133c88 -75 134 -119 134 -199c0 -119 -94 -175 -191 -175z" />
    <glyph glyph-name="uni018F" unicode="&#x18f;" horiz-adv-x="747" 
d="M693 338c1 -198 -119 -350 -329 -350c-193 0 -307 146 -307 337c0 14 1 27 2 41h534c-9 178 -109 270 -258 270c-109 0 -183 -49 -232 -98h-10l11 80c55 41 133 74 233 74c203 0 355 -126 356 -354zM372 42c124 0 214 95 221 271h-436v-18c0 -142 87 -253 215 -253z" />
    <glyph glyph-name="T" unicode="T" horiz-adv-x="500" 
d="M14 627v53h472v-53h-191v-627h-90v627h-191z" />
    <glyph glyph-name="Tbar" unicode="&#x166;" horiz-adv-x="500" 
d="M486 627h-191v-254h112v-53h-112v-320h-90v320h-111v53h111v254h-191v53h472v-53z" />
    <glyph glyph-name="Tcaron" unicode="&#x164;" horiz-adv-x="500" 
d="M215 756l-110 129h52l95 -81l93 81h49l-110 -129h-69zM14 627v53h472v-53h-191v-627h-90v627h-191z" />
    <glyph glyph-name="uni0162" unicode="&#x162;" horiz-adv-x="500" 
d="M14 627v53h472v-53h-191v-627h-19l-22 -47l11 -3c30 -8 70 -28 70 -73c0 -71 -79 -94 -155 -94l-15 31l4 3c69 0 102 20 102 51s-30 43 -69 50l-1 6l40 76h-36v627h-191z" />
    <glyph glyph-name="uni021A" unicode="&#x21a;" horiz-adv-x="500" 
d="M14 627v53h472v-53h-191v-627h-90v627h-191zM292 -70c-6 -40 -32 -106 -53 -145h-43c14 56 19 106 21 145h75z" />
    <glyph glyph-name="U" unicode="U" horiz-adv-x="731" 
d="M373 -12c-177 0 -284 97 -284 251v441h90v-427c0 -138 74 -208 195 -208c128 0 207 70 207 208v427h61v-441c0 -154 -106 -251 -269 -251z" />
    <glyph glyph-name="Uacute" unicode="&#xda;" horiz-adv-x="731" 
d="M513 885l-149 -129h-51l107 129h93zM373 -12c-177 0 -284 97 -284 251v441h90v-427c0 -138 74 -208 195 -208c128 0 207 70 207 208v427h61v-441c0 -154 -106 -251 -269 -251z" />
    <glyph glyph-name="Ubreve" unicode="&#x16c;" horiz-adv-x="731" 
d="M270 882c6 -49 47 -76 98 -76c53 0 93 28 101 76h39c-8 -76 -59 -126 -140 -126c-84 0 -135 51 -139 126h41zM373 -12c-177 0 -284 97 -284 251v441h90v-427c0 -138 74 -208 195 -208c128 0 207 70 207 208v427h61v-441c0 -154 -106 -251 -269 -251z" />
    <glyph glyph-name="Ucircumflex" unicode="&#xdb;" horiz-adv-x="731" 
d="M403 885l110 -129h-51l-95 81l-93 -81h-50l110 129h69zM373 -12c-177 0 -284 97 -284 251v441h90v-427c0 -138 74 -208 195 -208c128 0 207 70 207 208v427h61v-441c0 -154 -106 -251 -269 -251z" />
    <glyph glyph-name="Udieresis" unicode="&#xdc;" horiz-adv-x="731" 
d="M326 869v-87h-81v87h81zM491 869v-87h-81v87h81zM373 -12c-177 0 -284 97 -284 251v441h90v-427c0 -138 74 -208 195 -208c128 0 207 70 207 208v427h61v-441c0 -154 -106 -251 -269 -251z" />
    <glyph glyph-name="Ugrave" unicode="&#xd9;" horiz-adv-x="731" 
d="M224 885h93l107 -129h-51zM373 -12c-177 0 -284 97 -284 251v441h90v-427c0 -138 74 -208 195 -208c128 0 207 70 207 208v427h61v-441c0 -154 -106 -251 -269 -251z" />
    <glyph glyph-name="Uhungarumlaut" unicode="&#x170;" horiz-adv-x="731" 
d="M438 885l-137 -129h-50l100 129h87zM591 885l-137 -129h-50l100 129h87zM373 -12c-177 0 -284 97 -284 251v441h90v-427c0 -138 74 -208 195 -208c128 0 207 70 207 208v427h61v-441c0 -154 -106 -251 -269 -251z" />
    <glyph glyph-name="Umacron" unicode="&#x16a;" horiz-adv-x="731" 
d="M524 848v-47h-311v47h311zM373 -12c-177 0 -284 97 -284 251v441h90v-427c0 -138 74 -208 195 -208c128 0 207 70 207 208v427h61v-441c0 -154 -106 -251 -269 -251z" />
    <glyph glyph-name="Uogonek" unicode="&#x172;" horiz-adv-x="731" 
d="M89 239v441h90v-427c0 -138 74 -208 195 -208c128 0 207 70 207 208v427h61v-441c0 -126 -65 -196 -162 -234c-77 -30 -116 -82 -116 -113c0 -22 14 -35 43 -35c18 0 39 5 55 12h7l-13 -33c-20 -12 -47 -20 -73 -20c-43 0 -85 17 -85 68c0 32 23 69 89 104h-14
c-177 0 -284 97 -284 251z" />
    <glyph glyph-name="Uring" unicode="&#x16e;" horiz-adv-x="731" 
d="M369 724c-62 0 -107 48 -107 104c0 58 47 104 107 104c59 0 107 -45 107 -104c0 -58 -47 -104 -107 -104zM369 757c41 0 68 32 68 71c0 36 -24 71 -69 71c-38 0 -67 -30 -67 -71c0 -38 26 -71 68 -71zM373 -12c-177 0 -284 97 -284 251v441h90v-427
c0 -138 74 -208 195 -208c128 0 207 70 207 208v427h61v-441c0 -154 -106 -251 -269 -251z" />
    <glyph glyph-name="Utilde" unicode="&#x168;" horiz-adv-x="731" 
d="M378 853c18 -10 42 -24 61 -24c25 0 41 10 50 45h34c-11 -60 -40 -99 -85 -99c-25 0 -49 7 -72 21c-18 11 -43 25 -65 25c-24 0 -42 -11 -50 -47h-36c5 52 37 101 87 101c22 0 45 -5 76 -22zM373 -12c-177 0 -284 97 -284 251v441h90v-427c0 -138 74 -208 195 -208
c128 0 207 70 207 208v427h61v-441c0 -154 -106 -251 -269 -251z" />
    <glyph glyph-name="V" unicode="V" horiz-adv-x="643" 
d="M354 0h-67l-283 680h100l233 -577h4l228 577h70z" />
    <glyph glyph-name="W" unicode="W" horiz-adv-x="974" 
d="M488 551h-6l-202 -551h-65l-194 680h93l156 -550h3l198 550h61l203 -553h3l145 553h70l-199 -680h-61z" />
    <glyph glyph-name="Wacute" unicode="&#x1e82;" horiz-adv-x="974" 
d="M646 885l-149 -129h-51l107 129h93zM488 551h-6l-202 -551h-65l-194 680h93l156 -550h3l198 550h61l203 -553h3l145 553h70l-199 -680h-61z" />
    <glyph glyph-name="Wcircumflex" unicode="&#x174;" horiz-adv-x="974" 
d="M536 885l110 -129h-51l-95 81l-93 -81h-50l110 129h69zM488 551h-6l-202 -551h-65l-194 680h93l156 -550h3l198 550h61l203 -553h3l145 553h70l-199 -680h-61z" />
    <glyph glyph-name="Wdieresis" unicode="&#x1e84;" horiz-adv-x="974" 
d="M459 869v-87h-81v87h81zM624 869v-87h-81v87h81zM488 551h-6l-202 -551h-65l-194 680h93l156 -550h3l198 550h61l203 -553h3l145 553h70l-199 -680h-61z" />
    <glyph glyph-name="Wgrave" unicode="&#x1e80;" horiz-adv-x="974" 
d="M357 885h93l107 -129h-51zM488 551h-6l-202 -551h-65l-194 680h93l156 -550h3l198 550h61l203 -553h3l145 553h70l-199 -680h-61z" />
    <glyph glyph-name="X" unicode="X" horiz-adv-x="602" 
d="M249 346l-216 334h106l170 -274h5l172 274h74l-214 -324l147 -227c45 -70 67 -99 90 -123v-6h-113l-185 295h-4l-188 -295h-74z" />
    <glyph glyph-name="Y" unicode="Y" horiz-adv-x="559" 
d="M0 680h109l196 -301h6l179 301h69l-225 -356v-324h-90v315z" />
    <glyph glyph-name="Yacute" unicode="&#xdd;" horiz-adv-x="559" 
d="M429 885l-149 -129h-51l107 129h93zM0 680h109l196 -301h6l179 301h69l-225 -356v-324h-90v315z" />
    <glyph glyph-name="Ycircumflex" unicode="&#x176;" horiz-adv-x="559" 
d="M319 885l110 -129h-51l-95 81l-93 -81h-50l110 129h69zM0 680h109l196 -301h6l179 301h69l-225 -356v-324h-90v315z" />
    <glyph glyph-name="Ydieresis" unicode="&#x178;" horiz-adv-x="559" 
d="M242 869v-87h-81v87h81zM407 869v-87h-81v87h81zM0 680h109l196 -301h6l179 301h69l-225 -356v-324h-90v315z" />
    <glyph glyph-name="Ygrave" unicode="&#x1ef2;" horiz-adv-x="559" 
d="M140 885h93l107 -129h-51zM0 680h109l196 -301h6l179 301h69l-225 -356v-324h-90v315z" />
    <glyph glyph-name="Z" unicode="Z" horiz-adv-x="684" 
d="M97 680h516v-19l-443 -602v-6c337 0 404 0 490 17h6l-38 -70h-590v24l441 597v6h-402z" />
    <glyph glyph-name="Zacute" unicode="&#x179;" horiz-adv-x="684" 
d="M486 885l-149 -129h-51l107 129h93zM97 680h516v-19l-443 -602v-6c337 0 404 0 490 17h6l-38 -70h-590v24l441 597v6h-402z" />
    <glyph glyph-name="Zcaron" unicode="&#x17d;" horiz-adv-x="684" 
d="M307 756l-110 129h52l95 -81l93 81h49l-110 -129h-69zM97 680h516v-19l-443 -602v-6c337 0 404 0 490 17h6l-38 -70h-590v24l441 597v6h-402z" />
    <glyph glyph-name="Zdotaccent" unicode="&#x17b;" horiz-adv-x="684" 
d="M386 871v-93h-89v93h89zM97 680h516v-19l-443 -602v-6c337 0 404 0 490 17h6l-38 -70h-590v24l441 597v6h-402z" />
    <glyph glyph-name="a" unicode="a" horiz-adv-x="519" 
d="M375 0l-16 72c-40 -56 -93 -82 -157 -82c-105 0 -147 60 -147 133c0 70 49 111 140 133c122 29 160 39 160 54v12c0 81 -30 114 -100 114c-53 0 -109 -22 -148 -60h-10l7 62c34 26 93 47 153 47c133 0 179 -62 179 -164v-236c0 -28 2 -57 7 -85h-68zM224 39
c65 0 119 51 131 106v108c-175 -35 -216 -60 -216 -124c0 -48 28 -90 85 -90z" />
    <glyph glyph-name="aacute" unicode="&#xe1;" horiz-adv-x="519" 
d="M395 712l-139 -141h-51l102 141h88zM375 0l-16 72c-40 -56 -93 -82 -157 -82c-105 0 -147 60 -147 133c0 70 49 111 140 133c122 29 160 39 160 54v12c0 81 -30 114 -100 114c-53 0 -109 -22 -148 -60h-10l7 62c34 26 93 47 153 47c133 0 179 -62 179 -164v-236
c0 -28 2 -57 7 -85h-68zM224 39c65 0 119 51 131 106v108c-175 -35 -216 -60 -216 -124c0 -48 28 -90 85 -90z" />
    <glyph glyph-name="abreve" unicode="&#x103;" horiz-adv-x="519" 
d="M161 704c6 -51 47 -78 98 -78c53 0 93 28 101 78h39c-8 -78 -59 -128 -140 -128c-84 0 -135 51 -139 128h41zM375 0l-16 72c-40 -56 -93 -82 -157 -82c-105 0 -147 60 -147 133c0 70 49 111 140 133c122 29 160 39 160 54v12c0 81 -30 114 -100 114
c-53 0 -109 -22 -148 -60h-10l7 62c34 26 93 47 153 47c133 0 179 -62 179 -164v-236c0 -28 2 -57 7 -85h-68zM224 39c65 0 119 51 131 106v108c-175 -35 -216 -60 -216 -124c0 -48 28 -90 85 -90z" />
    <glyph glyph-name="acircumflex" unicode="&#xe2;" horiz-adv-x="519" 
d="M294 712l110 -141h-51l-96 92l-94 -92h-48l110 141h69zM375 0l-16 72c-40 -56 -93 -82 -157 -82c-105 0 -147 60 -147 133c0 70 49 111 140 133c122 29 160 39 160 54v12c0 81 -30 114 -100 114c-53 0 -109 -22 -148 -60h-10l7 62c34 26 93 47 153 47
c133 0 179 -62 179 -164v-236c0 -28 2 -57 7 -85h-68zM224 39c65 0 119 51 131 106v108c-175 -35 -216 -60 -216 -124c0 -48 28 -90 85 -90z" />
    <glyph glyph-name="adieresis" unicode="&#xe4;" horiz-adv-x="519" 
d="M217 689v-87h-81v87h81zM382 689v-87h-81v87h81zM375 0l-16 72c-40 -56 -93 -82 -157 -82c-105 0 -147 60 -147 133c0 70 49 111 140 133c122 29 160 39 160 54v12c0 81 -30 114 -100 114c-53 0 -109 -22 -148 -60h-10l7 62c34 26 93 47 153 47c133 0 179 -62 179 -164
v-236c0 -28 2 -57 7 -85h-68zM224 39c65 0 119 51 131 106v108c-175 -35 -216 -60 -216 -124c0 -48 28 -90 85 -90z" />
    <glyph glyph-name="agrave" unicode="&#xe0;" horiz-adv-x="519" 
d="M212 712l102 -141h-51l-138 141h87zM375 0l-16 72c-40 -56 -93 -82 -157 -82c-105 0 -147 60 -147 133c0 70 49 111 140 133c122 29 160 39 160 54v12c0 81 -30 114 -100 114c-53 0 -109 -22 -148 -60h-10l7 62c34 26 93 47 153 47c133 0 179 -62 179 -164v-236
c0 -28 2 -57 7 -85h-68zM224 39c65 0 119 51 131 106v108c-175 -35 -216 -60 -216 -124c0 -48 28 -90 85 -90z" />
    <glyph glyph-name="amacron" unicode="&#x101;" horiz-adv-x="519" 
d="M415 668v-47h-311v47h311zM375 0l-16 72c-40 -56 -93 -82 -157 -82c-105 0 -147 60 -147 133c0 70 49 111 140 133c122 29 160 39 160 54v12c0 81 -30 114 -100 114c-53 0 -109 -22 -148 -60h-10l7 62c34 26 93 47 153 47c133 0 179 -62 179 -164v-236c0 -28 2 -57 7 -85
h-68zM224 39c65 0 119 51 131 106v108c-175 -35 -216 -60 -216 -124c0 -48 28 -90 85 -90z" />
    <glyph glyph-name="aogonek" unicode="&#x105;" horiz-adv-x="519" 
d="M55 123c0 70 49 111 140 133c122 29 160 39 160 54v12c0 81 -30 114 -100 114c-53 0 -109 -22 -148 -60h-10l7 62c34 26 93 47 153 47c133 0 179 -62 179 -164v-236c0 -28 3 -57 7 -85c-80 -38 -101 -79 -101 -104c0 -26 14 -39 43 -39c18 0 39 5 55 12h7l-14 -35
c-20 -11 -46 -18 -72 -18c-43 0 -85 17 -85 68c0 41 35 76 99 116l-16 72c-40 -56 -93 -82 -157 -82c-105 0 -147 60 -147 133zM139 129c0 -48 28 -90 85 -90c65 0 119 51 131 106v108c-175 -35 -216 -60 -216 -124z" />
    <glyph glyph-name="aring" unicode="&#xe5;" horiz-adv-x="519" 
d="M260 544c-62 0 -107 48 -107 104c0 58 47 104 107 104c59 0 107 -45 107 -104c0 -58 -47 -104 -107 -104zM260 577c41 0 68 32 68 71c0 36 -24 71 -69 71c-38 0 -67 -30 -67 -71c0 -38 26 -71 68 -71zM375 0l-16 72c-40 -56 -93 -82 -157 -82c-105 0 -147 60 -147 133
c0 70 49 111 140 133c122 29 160 39 160 54v12c0 81 -30 114 -100 114c-53 0 -109 -22 -148 -60h-10l7 62c34 26 93 47 153 47c133 0 179 -62 179 -164v-236c0 -28 2 -57 7 -85h-68zM224 39c65 0 119 51 131 106v108c-175 -35 -216 -60 -216 -124c0 -48 28 -90 85 -90z" />
    <glyph glyph-name="aringacute" unicode="&#x1fb;" horiz-adv-x="519" 
d="M260 544c-62 0 -107 48 -107 104c0 44 27 82 67 97l85 117h88l-111 -112c49 -10 85 -51 85 -102c0 -58 -47 -104 -107 -104zM259 719c-38 0 -67 -30 -67 -71c0 -38 26 -71 68 -71c41 0 68 32 68 71c0 36 -24 71 -69 71zM436 85c0 -28 2 -57 7 -85h-68l-16 72
c-40 -56 -93 -82 -157 -82c-105 0 -147 60 -147 133c0 70 49 111 140 133c122 29 160 39 160 54v12c0 81 -30 114 -100 114c-53 0 -109 -22 -148 -60h-10l7 62c34 26 93 47 153 47c133 0 179 -62 179 -164v-236zM355 145v108c-175 -35 -216 -60 -216 -124
c0 -48 28 -90 85 -90c65 0 119 51 131 106z" />
    <glyph glyph-name="atilde" unicode="&#xe3;" horiz-adv-x="519" 
d="M269 673c18 -10 42 -24 61 -24c25 0 41 10 50 45h34c-11 -60 -40 -99 -85 -99c-25 0 -49 7 -72 21c-18 11 -43 25 -65 25c-24 0 -42 -11 -50 -47h-36c5 52 37 101 87 101c22 0 45 -5 76 -22zM375 0l-16 72c-40 -56 -93 -82 -157 -82c-105 0 -147 60 -147 133
c0 70 49 111 140 133c122 29 160 39 160 54v12c0 81 -30 114 -100 114c-53 0 -109 -22 -148 -60h-10l7 62c34 26 93 47 153 47c133 0 179 -62 179 -164v-236c0 -28 2 -57 7 -85h-68zM224 39c65 0 119 51 131 106v108c-175 -35 -216 -60 -216 -124c0 -48 28 -90 85 -90z" />
    <glyph glyph-name="ae" unicode="&#xe6;" horiz-adv-x="822" 
d="M766 288v-35h-331c5 -138 72 -208 174 -208c52 0 104 18 141 61h11l-13 -68c-30 -26 -88 -48 -152 -48c-96 0 -170 37 -209 108h-2c-37 -71 -100 -108 -175 -108c-108 0 -155 55 -155 132c0 70 52 113 148 136c146 35 152 36 152 54v10c0 81 -30 114 -100 114
c-53 0 -109 -22 -148 -60h-10l7 62c34 26 93 47 153 47c88 0 135 -25 157 -72h2c33 41 89 72 156 72c130 0 194 -81 194 -197zM681 298v13c0 89 -45 130 -109 130c-59 0 -125 -45 -135 -143h244zM355 145v105c-176 -34 -216 -63 -216 -123c0 -48 28 -88 85 -88
c65 0 119 51 131 106z" />
    <glyph glyph-name="aeacute" unicode="&#x1fd;" horiz-adv-x="822" 
d="M556 712l-139 -141h-51l102 141h88zM766 288v-35h-331c5 -138 72 -208 174 -208c52 0 104 18 141 61h11l-13 -68c-30 -26 -88 -48 -152 -48c-96 0 -170 37 -209 108h-2c-37 -71 -100 -108 -175 -108c-108 0 -155 55 -155 132c0 70 52 113 148 136c146 35 152 36 152 54
v10c0 81 -30 114 -100 114c-53 0 -109 -22 -148 -60h-10l7 62c34 26 93 47 153 47c88 0 135 -25 157 -72h2c33 41 89 72 156 72c130 0 194 -81 194 -197zM681 298v13c0 89 -45 130 -109 130c-59 0 -125 -45 -135 -143h244zM355 145v105c-176 -34 -216 -63 -216 -123
c0 -48 28 -88 85 -88c65 0 119 51 131 106z" />
    <glyph glyph-name="b" unicode="b" horiz-adv-x="592" 
d="M83 0v708l83 10v-341h2c28 59 82 108 167 108c128 0 197 -99 197 -241c0 -149 -83 -254 -219 -254c-58 0 -109 29 -145 71h-2l-6 -61h-77zM319 435c-87 0 -161 -95 -161 -221v-7c0 -110 72 -166 144 -166c88 0 142 77 142 203c0 119 -45 191 -125 191z" />
    <glyph glyph-name="c" unicode="c" horiz-adv-x="476" 
d="M302 485c60 0 104 -16 127 -33l11 -60h-12c-29 31 -77 47 -119 47c-99 0 -161 -76 -161 -197c0 -123 70 -202 165 -202c55 0 99 21 126 52h11l-15 -59c-26 -25 -77 -43 -136 -43c-141 0 -241 85 -241 245c0 151 102 250 244 250z" />
    <glyph glyph-name="cacute" unicode="&#x107;" horiz-adv-x="476" 
d="M424 712l-139 -141h-51l102 141h88zM302 485c60 0 104 -16 127 -33l11 -60h-12c-29 31 -77 47 -119 47c-99 0 -161 -76 -161 -197c0 -123 70 -202 165 -202c55 0 99 21 126 52h11l-15 -59c-26 -25 -77 -43 -136 -43c-141 0 -241 85 -241 245c0 151 102 250 244 250z" />
    <glyph glyph-name="ccaron" unicode="&#x10d;" horiz-adv-x="476" 
d="M254 571l-110 141h51l96 -92l94 92h48l-110 -141h-69zM302 485c60 0 104 -16 127 -33l11 -60h-12c-29 31 -77 47 -119 47c-99 0 -161 -76 -161 -197c0 -123 70 -202 165 -202c55 0 99 21 126 52h11l-15 -59c-26 -25 -77 -43 -136 -43c-141 0 -241 85 -241 245
c0 151 102 250 244 250z" />
    <glyph glyph-name="ccedilla" unicode="&#xe7;" horiz-adv-x="474" 
d="M60 235c0 151 102 250 244 250c60 0 104 -16 127 -33l11 -60h-12c-29 31 -77 47 -119 47c-99 0 -161 -76 -161 -197c0 -123 70 -202 165 -202c55 0 99 21 126 52h11l-15 -59c-26 -25 -75 -43 -132 -43l-17 -37l11 -3c30 -8 70 -28 70 -73c0 -71 -79 -94 -155 -94l-15 31
l4 3c69 0 102 20 102 51s-30 43 -69 50l-1 6l35 67c-124 12 -210 96 -210 244z" />
    <glyph glyph-name="ccircumflex" unicode="&#x109;" horiz-adv-x="476" 
d="M323 712l110 -141h-51l-96 92l-94 -92h-48l110 141h69zM302 485c60 0 104 -16 127 -33l11 -60h-12c-29 31 -77 47 -119 47c-99 0 -161 -76 -161 -197c0 -123 70 -202 165 -202c55 0 99 21 126 52h11l-15 -59c-26 -25 -77 -43 -136 -43c-141 0 -241 85 -241 245
c0 151 102 250 244 250z" />
    <glyph glyph-name="cdotaccent" unicode="&#x10b;" horiz-adv-x="476" 
d="M333 691v-93h-89v93h89zM302 485c60 0 104 -16 127 -33l11 -60h-12c-29 31 -77 47 -119 47c-99 0 -161 -76 -161 -197c0 -123 70 -202 165 -202c55 0 99 21 126 52h11l-15 -59c-26 -25 -77 -43 -136 -43c-141 0 -241 85 -241 245c0 151 102 250 244 250z" />
    <glyph glyph-name="d" unicode="d" horiz-adv-x="592" 
d="M509 718v-718h-77l-6 98h-2c-25 -58 -83 -108 -167 -108c-128 0 -197 100 -197 241c0 149 89 254 223 254c64 0 112 -28 141 -66h2v289zM272 41c88 0 161 95 161 220v8c0 103 -66 166 -139 166c-91 0 -146 -78 -146 -204c0 -118 45 -190 124 -190z" />
    <glyph glyph-name="eth" unicode="&#xf0;" horiz-adv-x="588" 
d="M358 601c97 -84 169 -212 169 -356c0 -173 -118 -255 -234 -255s-233 81 -233 252c0 166 111 243 222 243c55 0 95 -20 118 -40l1 1c-22 44 -57 88 -101 126l-105 -52l-21 42l84 42c-34 23 -73 43 -113 55l42 34c44 -11 89 -32 130 -60l92 45l21 -42zM295 39
c83 0 145 71 145 203c0 130 -62 195 -145 195c-85 0 -147 -65 -147 -195c0 -132 62 -203 147 -203z" />
    <glyph glyph-name="dcaron" unicode="&#x10f;" horiz-adv-x="592" 
d="M509 718v-718h-77l-6 98h-2c-25 -58 -83 -108 -167 -108c-128 0 -197 100 -197 241c0 149 89 254 223 254c64 0 112 -28 141 -66h2v289zM667 718c-11 -75 -39 -146 -59 -183h-39c12 44 24 118 24 183h74zM272 41c88 0 161 95 161 220v8c0 103 -66 166 -139 166
c-91 0 -146 -78 -146 -204c0 -118 45 -190 124 -190z" />
    <glyph glyph-name="dcroat" unicode="&#x111;" horiz-adv-x="594" 
d="M567 607v-46h-58v-561h-77l-6 98h-2c-25 -58 -83 -108 -167 -108c-128 0 -197 100 -197 241c0 149 89 254 223 254c64 0 112 -28 141 -66h2v142h-157v46h157v101l83 10v-111h58zM433 261v8c0 103 -66 166 -139 166c-91 0 -146 -78 -146 -204c0 -118 45 -190 124 -190
c88 0 161 95 161 220z" />
    <glyph glyph-name="e" unicode="e" horiz-adv-x="532" 
d="M476 253h-330c2 -127 63 -208 173 -208c52 0 104 18 141 61h11l-13 -68c-30 -26 -88 -48 -152 -48c-154 0 -246 95 -246 246s106 249 222 249c130 0 194 -81 194 -197v-35zM391 311c0 89 -45 130 -109 130c-65 0 -126 -51 -135 -141h244v11z" />
    <glyph glyph-name="eacute" unicode="&#xe9;" horiz-adv-x="532" 
d="M416 712l-139 -141h-51l102 141h88zM476 253h-330c2 -127 63 -208 173 -208c52 0 104 18 141 61h11l-13 -68c-30 -26 -88 -48 -152 -48c-154 0 -246 95 -246 246s106 249 222 249c130 0 194 -81 194 -197v-35zM391 311c0 89 -45 130 -109 130c-65 0 -126 -51 -135 -141
h244v11z" />
    <glyph glyph-name="ebreve" unicode="&#x115;" horiz-adv-x="532" 
d="M182 704c6 -51 47 -78 98 -78c53 0 93 28 101 78h39c-8 -78 -59 -128 -140 -128c-84 0 -135 51 -139 128h41zM476 253h-330c2 -127 63 -208 173 -208c52 0 104 18 141 61h11l-13 -68c-30 -26 -88 -48 -152 -48c-154 0 -246 95 -246 246s106 249 222 249
c130 0 194 -81 194 -197v-35zM391 311c0 89 -45 130 -109 130c-65 0 -126 -51 -135 -141h244v11z" />
    <glyph glyph-name="ecaron" unicode="&#x11b;" horiz-adv-x="532" 
d="M246 571l-110 141h51l96 -92l94 92h48l-110 -141h-69zM476 253h-330c2 -127 63 -208 173 -208c52 0 104 18 141 61h11l-13 -68c-30 -26 -88 -48 -152 -48c-154 0 -246 95 -246 246s106 249 222 249c130 0 194 -81 194 -197v-35zM391 311c0 89 -45 130 -109 130
c-65 0 -126 -51 -135 -141h244v11z" />
    <glyph glyph-name="ecircumflex" unicode="&#xea;" horiz-adv-x="532" 
d="M315 712l110 -141h-51l-96 92l-94 -92h-48l110 141h69zM476 253h-330c2 -127 63 -208 173 -208c52 0 104 18 141 61h11l-13 -68c-30 -26 -88 -48 -152 -48c-154 0 -246 95 -246 246s106 249 222 249c130 0 194 -81 194 -197v-35zM391 311c0 89 -45 130 -109 130
c-65 0 -126 -51 -135 -141h244v11z" />
    <glyph glyph-name="edieresis" unicode="&#xeb;" horiz-adv-x="532" 
d="M238 689v-87h-81v87h81zM403 689v-87h-81v87h81zM476 253h-330c2 -127 63 -208 173 -208c52 0 104 18 141 61h11l-13 -68c-30 -26 -88 -48 -152 -48c-154 0 -246 95 -246 246s106 249 222 249c130 0 194 -81 194 -197v-35zM391 311c0 89 -45 130 -109 130
c-65 0 -126 -51 -135 -141h244v11z" />
    <glyph glyph-name="edotaccent" unicode="&#x117;" horiz-adv-x="532" 
d="M325 691v-93h-89v93h89zM476 253h-330c2 -127 63 -208 173 -208c52 0 104 18 141 61h11l-13 -68c-30 -26 -88 -48 -152 -48c-154 0 -246 95 -246 246s106 249 222 249c130 0 194 -81 194 -197v-35zM391 311c0 89 -45 130 -109 130c-65 0 -126 -51 -135 -141h244v11z" />
    <glyph glyph-name="egrave" unicode="&#xe8;" horiz-adv-x="532" 
d="M233 712l102 -141h-51l-138 141h87zM476 253h-330c2 -127 63 -208 173 -208c52 0 104 18 141 61h11l-13 -68c-30 -26 -88 -48 -152 -48c-154 0 -246 95 -246 246s106 249 222 249c130 0 194 -81 194 -197v-35zM391 311c0 89 -45 130 -109 130c-65 0 -126 -51 -135 -141
h244v11z" />
    <glyph glyph-name="emacron" unicode="&#x113;" horiz-adv-x="532" 
d="M436 668v-47h-311v47h311zM476 253h-330c2 -127 63 -208 173 -208c52 0 104 18 141 61h11l-13 -68c-30 -26 -88 -48 -152 -48c-154 0 -246 95 -246 246s106 249 222 249c130 0 194 -81 194 -197v-35zM391 311c0 89 -45 130 -109 130c-65 0 -126 -51 -135 -141h244v11z
" />
    <glyph glyph-name="eogonek" unicode="&#x119;" horiz-adv-x="532" 
d="M60 236c0 151 106 249 222 249c130 0 194 -81 194 -197v-35h-330c2 -127 63 -208 173 -208c52 0 104 18 141 61h11l-13 -68c-116 -86 -131 -116 -131 -145c0 -23 14 -36 43 -36c18 0 39 5 55 12h7l-14 -35c-20 -11 -46 -18 -72 -18c-43 0 -85 17 -85 68
c0 34 25 69 90 110c-16 -3 -27 -4 -45 -4c-154 0 -246 95 -246 246zM147 300h244v11c0 89 -45 130 -109 130c-65 0 -126 -51 -135 -141z" />
    <glyph glyph-name="uni0259" unicode="&#x259;" horiz-adv-x="536" 
d="M239 485c152 0 237 -93 237 -246c0 -151 -86 -249 -223 -249c-122 0 -195 91 -195 225c0 11 1 24 2 36h331c-6 117 -71 182 -163 182c-52 0 -107 -22 -144 -65h-11l13 68c31 25 89 49 153 49zM259 34c67 0 122 57 131 170h-243c-1 -8 -1 -15 -1 -22
c0 -90 41 -148 113 -148z" />
    <glyph glyph-name="f" unicode="f" horiz-adv-x="290" 
d="M271 728c23 0 45 -3 65 -12l5 -55h-10c-19 12 -34 16 -59 16c-76 0 -93 -62 -93 -193v-9h98l-4 -44h-94v-431h-83v431h-76v44h76v36c0 119 53 217 175 217z" />
    <glyph glyph-name="g" unicode="g" horiz-adv-x="508" 
d="M315 67c133 0 191 -18 191 -111c0 -104 -128 -193 -274 -193c-117 0 -187 43 -187 133c0 38 28 61 70 110c-34 8 -71 39 -71 76c0 22 20 51 72 124c-32 25 -59 60 -59 120c0 91 74 159 179 159c30 0 53 -4 84 -15h166l-4 -42h-108v-4c24 -21 41 -50 41 -94
c0 -98 -79 -160 -184 -160c-36 0 -66 8 -86 18c-14 -30 -22 -60 -22 -75c0 -33 25 -46 85 -46h107zM142 326c0 -76 32 -114 89 -114c62 0 100 37 100 118c0 74 -31 114 -95 114c-61 0 -94 -43 -94 -118zM233 -189c100 0 192 44 192 122c0 38 -18 52 -66 59
c-32 5 -108 7 -211 7c-22 -33 -29 -55 -29 -93c0 -56 39 -95 114 -95z" />
    <glyph glyph-name="gbreve" unicode="&#x11f;" horiz-adv-x="508" 
d="M149 704c6 -51 47 -78 98 -78c53 0 93 28 101 78h39c-8 -78 -59 -128 -140 -128c-84 0 -135 51 -139 128h41zM315 67c133 0 191 -18 191 -111c0 -104 -128 -193 -274 -193c-117 0 -187 43 -187 133c0 38 28 61 70 110c-34 8 -71 39 -71 76c0 22 20 51 72 124
c-32 25 -59 60 -59 120c0 91 74 159 179 159c30 0 53 -4 84 -15h166l-4 -42h-108v-4c24 -21 41 -50 41 -94c0 -98 -79 -160 -184 -160c-36 0 -66 8 -86 18c-14 -30 -22 -60 -22 -75c0 -33 25 -46 85 -46h107zM142 326c0 -76 32 -114 89 -114c62 0 100 37 100 118
c0 74 -31 114 -95 114c-61 0 -94 -43 -94 -118zM233 -189c100 0 192 44 192 122c0 38 -18 52 -66 59c-32 5 -108 7 -211 7c-22 -33 -29 -55 -29 -93c0 -56 39 -95 114 -95z" />
    <glyph glyph-name="gcircumflex" unicode="&#x11d;" horiz-adv-x="508" 
d="M282 712l110 -141h-51l-96 92l-94 -92h-48l110 141h69zM315 67c133 0 191 -18 191 -111c0 -104 -128 -193 -274 -193c-117 0 -187 43 -187 133c0 38 28 61 70 110c-34 8 -71 39 -71 76c0 22 20 51 72 124c-32 25 -59 60 -59 120c0 91 74 159 179 159c30 0 53 -4 84 -15
h166l-4 -42h-108v-4c24 -21 41 -50 41 -94c0 -98 -79 -160 -184 -160c-36 0 -66 8 -86 18c-14 -30 -22 -60 -22 -75c0 -33 25 -46 85 -46h107zM142 326c0 -76 32 -114 89 -114c62 0 100 37 100 118c0 74 -31 114 -95 114c-61 0 -94 -43 -94 -118zM233 -189
c100 0 192 44 192 122c0 38 -18 52 -66 59c-32 5 -108 7 -211 7c-22 -33 -29 -55 -29 -93c0 -56 39 -95 114 -95z" />
    <glyph glyph-name="uni0123" unicode="&#x123;" horiz-adv-x="508" 
d="M200 589c6 40 32 102 53 141h43c-14 -56 -19 -102 -21 -141h-75zM315 67c133 0 191 -18 191 -111c0 -104 -128 -193 -274 -193c-117 0 -187 43 -187 133c0 38 28 61 70 110c-34 8 -71 39 -71 76c0 22 20 51 72 124c-32 25 -59 60 -59 120c0 91 74 159 179 159
c30 0 53 -4 84 -15h166l-4 -42h-108v-4c24 -21 41 -50 41 -94c0 -98 -79 -160 -184 -160c-36 0 -66 8 -86 18c-14 -30 -22 -60 -22 -75c0 -33 25 -46 85 -46h107zM142 326c0 -76 32 -114 89 -114c62 0 100 37 100 118c0 74 -31 114 -95 114c-61 0 -94 -43 -94 -118z
M233 -189c100 0 192 44 192 122c0 38 -18 52 -66 59c-32 5 -108 7 -211 7c-22 -33 -29 -55 -29 -93c0 -56 39 -95 114 -95z" />
    <glyph glyph-name="gdotaccent" unicode="&#x121;" horiz-adv-x="508" 
d="M292 691v-93h-89v93h89zM315 67c133 0 191 -18 191 -111c0 -104 -128 -193 -274 -193c-117 0 -187 43 -187 133c0 38 28 61 70 110c-34 8 -71 39 -71 76c0 22 20 51 72 124c-32 25 -59 60 -59 120c0 91 74 159 179 159c30 0 53 -4 84 -15h166l-4 -42h-108v-4
c24 -21 41 -50 41 -94c0 -98 -79 -160 -184 -160c-36 0 -66 8 -86 18c-14 -30 -22 -60 -22 -75c0 -33 25 -46 85 -46h107zM142 326c0 -76 32 -114 89 -114c62 0 100 37 100 118c0 74 -31 114 -95 114c-61 0 -94 -43 -94 -118zM233 -189c100 0 192 44 192 122
c0 38 -18 52 -66 59c-32 5 -108 7 -211 7c-22 -33 -29 -55 -29 -93c0 -56 39 -95 114 -95z" />
    <glyph glyph-name="h" unicode="h" horiz-adv-x="563" 
d="M399 0v303c0 65 -18 124 -88 124c-93 0 -145 -84 -145 -184v-243h-83v708l83 10v-343h3c28 57 82 110 165 110c80 0 148 -32 148 -175v-310h-83z" />
    <glyph glyph-name="hbar" unicode="&#x127;" horiz-adv-x="565" 
d="M336 485c80 0 148 -32 148 -175v-310h-83v303c0 65 -18 124 -88 124c-93 0 -145 -84 -145 -184v-243h-83v561h-58v46h58v101l83 10v-111h157v-46h-157v-186h3c28 57 82 110 165 110z" />
    <glyph glyph-name="hcircumflex" unicode="&#x125;" horiz-adv-x="563" 
d="M163 885l110 -129h-51l-95 81l-93 -81h-50l110 129h69zM399 0v303c0 65 -18 124 -88 124c-93 0 -145 -84 -145 -184v-243h-83v708l83 10v-343h3c28 57 82 110 165 110c80 0 148 -32 148 -175v-310h-83z" />
    <glyph glyph-name="i" unicode="i" horiz-adv-x="255" 
d="M172 691v-93h-89v93h89zM169 475v-475h-83v475h83z" />
    <glyph glyph-name="dotlessi" unicode="&#x131;" horiz-adv-x="255" 
d="M169 475v-475h-83v475h83z" />
    <glyph glyph-name="iacute" unicode="&#xed;" horiz-adv-x="255" 
d="M264 712l-139 -141h-51l102 141h88zM169 475v-475h-83v475h83z" />
    <glyph glyph-name="ibreve" unicode="&#x12d;" horiz-adv-x="255" 
d="M30 704c6 -51 47 -78 98 -78c53 0 93 28 101 78h39c-8 -78 -59 -128 -140 -128c-84 0 -135 51 -139 128h41zM169 475v-475h-83v475h83z" />
    <glyph glyph-name="icircumflex" unicode="&#xee;" horiz-adv-x="255" 
d="M163 712l110 -141h-51l-96 92l-94 -92h-48l110 141h69zM169 475v-475h-83v475h83z" />
    <glyph glyph-name="idieresis" unicode="&#xef;" horiz-adv-x="255" 
d="M86 689v-87h-81v87h81zM251 689v-87h-81v87h81zM169 475v-475h-83v475h83z" />
    <glyph glyph-name="i.loclTRK" horiz-adv-x="255" 
d="M173 691v-93h-89v93h89zM169 475v-475h-83v475h83z" />
    <glyph glyph-name="igrave" unicode="&#xec;" horiz-adv-x="255" 
d="M81 712l102 -141h-51l-138 141h87zM169 475v-475h-83v475h83z" />
    <glyph glyph-name="ij" unicode="&#x133;" horiz-adv-x="510" 
d="M172 691v-93h-89v93h89zM427 691v-93h-89v93h89zM169 475v-475h-83v475h83zM424 475v-442c0 -165 -59 -228 -182 -264l-44 16v6c118 46 143 105 143 254v430h83z" />
    <glyph glyph-name="imacron" unicode="&#x12b;" horiz-adv-x="255" 
d="M284 668v-47h-311v47h311zM169 475v-475h-83v475h83z" />
    <glyph glyph-name="iogonek" unicode="&#x12f;" horiz-adv-x="255" 
d="M84 598v93h89v-93h-89zM25 -116c0 36 21 68 96 116h-35v475h83v-475c-62 -54 -78 -78 -78 -107c0 -23 14 -36 43 -36c18 0 39 5 55 12h7l-14 -35c-20 -11 -46 -18 -72 -18c-43 0 -85 17 -85 68z" />
    <glyph glyph-name="itilde" unicode="&#x129;" horiz-adv-x="255" 
d="M138 673c18 -10 42 -24 61 -24c25 0 41 10 50 45h34c-11 -60 -40 -99 -85 -99c-25 0 -49 7 -72 21c-18 11 -43 25 -65 25c-24 0 -42 -11 -50 -47h-36c5 52 37 101 87 101c22 0 45 -5 76 -22zM169 475v-475h-83v475h83z" />
    <glyph glyph-name="j" unicode="j" horiz-adv-x="255" 
d="M172 691v-93h-89v93h89zM169 475v-442c0 -165 -59 -228 -182 -264l-44 16v6c118 46 143 105 143 254v430h83z" />
    <glyph glyph-name="uni0237" unicode="&#x237;" horiz-adv-x="255" 
d="M169 475v-442c0 -165 -59 -228 -182 -264l-44 16v6c118 46 143 105 143 254v430h83z" />
    <glyph glyph-name="jcircumflex" unicode="&#x135;" horiz-adv-x="255" 
d="M162 712l110 -141h-51l-96 92l-94 -92h-48l110 141h69zM169 475v-442c0 -165 -59 -228 -182 -264l-44 16v6c118 46 143 105 143 254v430h83z" />
    <glyph glyph-name="k" unicode="k" horiz-adv-x="495" 
d="M166 718v-718h-83v708zM177 252c70 73 136 149 197 223h82l-198 -204c54 -73 194 -235 235 -266v-5h-119c-53 61 -131 161 -197 246v6z" />
    <glyph glyph-name="uni0137" unicode="&#x137;" horiz-adv-x="495" 
d="M166 718v-718h-83v708zM177 252c70 73 136 149 197 223h82l-198 -204c54 -73 194 -235 235 -266v-5h-119c-53 61 -131 161 -197 246v6zM290 -70c-6 -40 -32 -106 -53 -145h-43c14 56 19 106 21 145h75z" />
    <glyph glyph-name="kgreenlandic" unicode="&#x138;" horiz-adv-x="495" 
d="M166 475v-475h-83v475h83zM177 252c70 73 136 149 197 223h82l-198 -204c54 -73 194 -235 235 -266v-5h-119c-53 61 -131 161 -197 246v6z" />
    <glyph glyph-name="l" unicode="l" horiz-adv-x="249" 
d="M83 0v708l83 10v-718h-83z" />
    <glyph glyph-name="lacute" unicode="&#x13a;" horiz-adv-x="249" 
d="M283 885l-149 -129h-51l107 129h93zM83 0v708l83 10v-718h-83z" />
    <glyph glyph-name="lcaron" unicode="&#x13e;" horiz-adv-x="249" 
d="M83 0v708l83 10v-718h-83zM324 718c-11 -75 -39 -146 -59 -183h-39c12 44 24 118 24 183h74z" />
    <glyph glyph-name="uni013C" unicode="&#x13c;" horiz-adv-x="249" 
d="M83 0v708l83 10v-718h-83zM167 -70c-6 -40 -32 -106 -53 -145h-43c14 56 19 106 21 145h75z" />
    <glyph glyph-name="ldot" unicode="&#x140;" horiz-adv-x="338" 
d="M83 0v708l83 10v-718h-83zM338 385v-93h-89v93h89z" />
    <glyph glyph-name="lslash" unicode="&#x142;" horiz-adv-x="265" 
d="M256 484v-54l-82 -49v-381h-83v334l-82 -48v54l82 48v320l83 10v-283z" />
    <glyph glyph-name="m" unicode="m" horiz-adv-x="871" 
d="M637 485c84 0 153 -42 153 -175v-310h-83v303c0 65 -15 124 -88 124c-97 0 -142 -84 -142 -184v-243h-82v303c0 65 -12 124 -88 124c-96 0 -141 -84 -141 -184v-243h-83v475h77l4 -98h3c28 58 85 108 159 108c71 0 127 -29 143 -111h3c27 60 90 111 165 111z" />
    <glyph glyph-name="n" unicode="n" horiz-adv-x="563" 
d="M399 0v303c0 65 -18 124 -88 124c-94 0 -145 -84 -145 -184v-243h-83v475h77l5 -100h3c28 57 83 110 166 110c80 0 148 -42 148 -175v-310h-83z" />
    <glyph glyph-name="nacute" unicode="&#x144;" horiz-adv-x="563" 
d="M417 712l-139 -141h-51l102 141h88zM399 0v303c0 65 -18 124 -88 124c-94 0 -145 -84 -145 -184v-243h-83v475h77l5 -100h3c28 57 83 110 166 110c80 0 148 -42 148 -175v-310h-83z" />
    <glyph glyph-name="napostrophe" unicode="&#x149;" horiz-adv-x="563" 
d="M98 718c-11 -75 -39 -146 -59 -183h-39c12 44 24 118 24 183h74zM399 0v303c0 65 -18 124 -88 124c-94 0 -145 -84 -145 -184v-243h-83v475h77l5 -100h3c28 57 83 110 166 110c80 0 148 -42 148 -175v-310h-83z" />
    <glyph glyph-name="ncaron" unicode="&#x148;" horiz-adv-x="563" 
d="M247 571l-110 141h51l96 -92l94 92h48l-110 -141h-69zM399 0v303c0 65 -18 124 -88 124c-94 0 -145 -84 -145 -184v-243h-83v475h77l5 -100h3c28 57 83 110 166 110c80 0 148 -42 148 -175v-310h-83z" />
    <glyph glyph-name="uni0146" unicode="&#x146;" horiz-adv-x="563" 
d="M399 0v303c0 65 -18 124 -88 124c-94 0 -145 -84 -145 -184v-243h-83v475h77l5 -100h3c28 57 83 110 166 110c80 0 148 -42 148 -175v-310h-83zM324 -70c-6 -40 -32 -106 -53 -145h-43c14 56 19 106 21 145h75z" />
    <glyph glyph-name="eng" unicode="&#x14b;" horiz-adv-x="563" 
d="M83 0v475h77l5 -100h3c28 57 83 110 166 110c80 0 148 -42 148 -175v-277c0 -165 -59 -228 -182 -264l-44 16v6c118 46 143 105 143 254v258c0 65 -18 124 -88 124c-94 0 -145 -84 -145 -184v-243h-83z" />
    <glyph glyph-name="ntilde" unicode="&#xf1;" horiz-adv-x="563" 
d="M291 673c18 -10 42 -24 61 -24c25 0 41 10 50 45h34c-11 -60 -40 -99 -85 -99c-25 0 -49 7 -72 21c-18 11 -43 25 -65 25c-24 0 -42 -11 -50 -47h-36c5 52 37 101 87 101c22 0 45 -5 76 -22zM399 0v303c0 65 -18 124 -88 124c-94 0 -145 -84 -145 -184v-243h-83v475h77
l5 -100h3c28 57 83 110 166 110c80 0 148 -42 148 -175v-310h-83z" />
    <glyph glyph-name="o" unicode="o" horiz-adv-x="592" 
d="M297 485c108 0 235 -75 235 -243c0 -171 -127 -252 -235 -252c-111 0 -237 81 -237 252c0 168 126 243 237 243zM297 39c83 0 147 71 147 203c0 130 -64 195 -147 195c-85 0 -149 -65 -149 -195c0 -132 64 -203 149 -203z" />
    <glyph glyph-name="oacute" unicode="&#xf3;" horiz-adv-x="592" 
d="M431 712l-139 -141h-51l102 141h88zM297 485c108 0 235 -75 235 -243c0 -171 -127 -252 -235 -252c-111 0 -237 81 -237 252c0 168 126 243 237 243zM297 39c83 0 147 71 147 203c0 130 -64 195 -147 195c-85 0 -149 -65 -149 -195c0 -132 64 -203 149 -203z" />
    <glyph glyph-name="obreve" unicode="&#x14f;" horiz-adv-x="592" 
d="M197 704c6 -51 47 -78 98 -78c53 0 93 28 101 78h39c-8 -78 -59 -128 -140 -128c-84 0 -135 51 -139 128h41zM297 485c108 0 235 -75 235 -243c0 -171 -127 -252 -235 -252c-111 0 -237 81 -237 252c0 168 126 243 237 243zM297 39c83 0 147 71 147 203
c0 130 -64 195 -147 195c-85 0 -149 -65 -149 -195c0 -132 64 -203 149 -203z" />
    <glyph glyph-name="ocircumflex" unicode="&#xf4;" horiz-adv-x="592" 
d="M330 712l110 -141h-51l-96 92l-94 -92h-48l110 141h69zM297 485c108 0 235 -75 235 -243c0 -171 -127 -252 -235 -252c-111 0 -237 81 -237 252c0 168 126 243 237 243zM297 39c83 0 147 71 147 203c0 130 -64 195 -147 195c-85 0 -149 -65 -149 -195
c0 -132 64 -203 149 -203z" />
    <glyph glyph-name="odieresis" unicode="&#xf6;" horiz-adv-x="592" 
d="M253 689v-87h-81v87h81zM418 689v-87h-81v87h81zM297 485c108 0 235 -75 235 -243c0 -171 -127 -252 -235 -252c-111 0 -237 81 -237 252c0 168 126 243 237 243zM297 39c83 0 147 71 147 203c0 130 -64 195 -147 195c-85 0 -149 -65 -149 -195c0 -132 64 -203 149 -203z
" />
    <glyph glyph-name="ograve" unicode="&#xf2;" horiz-adv-x="592" 
d="M248 712l102 -141h-51l-138 141h87zM297 485c108 0 235 -75 235 -243c0 -171 -127 -252 -235 -252c-111 0 -237 81 -237 252c0 168 126 243 237 243zM297 39c83 0 147 71 147 203c0 130 -64 195 -147 195c-85 0 -149 -65 -149 -195c0 -132 64 -203 149 -203z" />
    <glyph glyph-name="ohungarumlaut" unicode="&#x151;" horiz-adv-x="592" 
d="M364 712l-131 -141h-50l97 141h84zM517 712l-131 -141h-50l97 141h84zM297 485c108 0 235 -75 235 -243c0 -171 -127 -252 -235 -252c-111 0 -237 81 -237 252c0 168 126 243 237 243zM297 39c83 0 147 71 147 203c0 130 -64 195 -147 195c-85 0 -149 -65 -149 -195
c0 -132 64 -203 149 -203z" />
    <glyph glyph-name="omacron" unicode="&#x14d;" horiz-adv-x="592" 
d="M451 668v-47h-311v47h311zM297 485c108 0 235 -75 235 -243c0 -171 -127 -252 -235 -252c-111 0 -237 81 -237 252c0 168 126 243 237 243zM297 39c83 0 147 71 147 203c0 130 -64 195 -147 195c-85 0 -149 -65 -149 -195c0 -132 64 -203 149 -203z" />
    <glyph glyph-name="oslash" unicode="&#xf8;" horiz-adv-x="592" 
d="M475 406c34 -39 57 -93 57 -164c0 -171 -127 -252 -235 -252c-50 0 -102 16 -145 49l-54 -61l-35 31l55 62c-35 41 -58 98 -58 171c0 168 126 243 237 243c49 0 101 -15 144 -47l52 59l35 -31zM148 242c0 -45 7 -83 21 -113l230 262c-26 31 -62 46 -102 46
c-85 0 -149 -65 -149 -195zM297 39c83 0 147 71 147 203c0 43 -7 78 -19 107l-231 -262c26 -32 62 -48 103 -48z" />
    <glyph glyph-name="oslashacute" unicode="&#x1ff;" horiz-adv-x="592" 
d="M431 712l-139 -141h-51l102 141h88zM475 406c34 -39 57 -93 57 -164c0 -171 -127 -252 -235 -252c-50 0 -102 16 -145 49l-54 -61l-35 31l55 62c-35 41 -58 98 -58 171c0 168 126 243 237 243c49 0 101 -15 144 -47l52 59l35 -31zM148 242c0 -45 7 -83 21 -113l230 262
c-26 31 -62 46 -102 46c-85 0 -149 -65 -149 -195zM297 39c83 0 147 71 147 203c0 43 -7 78 -19 107l-231 -262c26 -32 62 -48 103 -48z" />
    <glyph glyph-name="otilde" unicode="&#xf5;" horiz-adv-x="592" 
d="M305 673c18 -10 42 -24 61 -24c25 0 41 10 50 45h34c-11 -60 -40 -99 -85 -99c-25 0 -49 7 -72 21c-18 11 -43 25 -65 25c-24 0 -42 -11 -50 -47h-36c5 52 37 101 87 101c22 0 45 -5 76 -22zM297 485c108 0 235 -75 235 -243c0 -171 -127 -252 -235 -252
c-111 0 -237 81 -237 252c0 168 126 243 237 243zM297 39c83 0 147 71 147 203c0 130 -64 195 -147 195c-85 0 -149 -65 -149 -195c0 -132 64 -203 149 -203z" />
    <glyph glyph-name="oe" unicode="&#x153;" horiz-adv-x="916" 
d="M60 242c0 168 126 243 237 243c78 0 151 -36 191 -109h2c31 67 96 109 176 109c130 0 194 -81 194 -197v-35h-330c2 -127 63 -208 173 -208c52 0 104 18 141 61h11l-13 -68c-30 -26 -88 -48 -152 -48c-96 0 -172 40 -204 112h-1c-38 -78 -117 -112 -188 -112
c-111 0 -237 81 -237 252zM531 300h244v11c0 89 -45 130 -109 130c-65 0 -126 -51 -135 -141zM148 242c0 -132 64 -203 149 -203c83 0 147 71 147 203c0 130 -64 195 -147 195c-85 0 -149 -65 -149 -195z" />
    <glyph glyph-name="p" unicode="p" horiz-adv-x="592" 
d="M83 -223v698h77l6 -98h2c28 59 82 108 167 108c128 0 197 -100 197 -242c0 -149 -83 -253 -219 -253c-58 0 -109 27 -145 70h-2v-283h-83zM319 435c-87 0 -161 -95 -161 -221v-7c0 -109 72 -166 144 -166c88 0 142 73 142 202c0 119 -45 192 -125 192z" />
    <glyph glyph-name="thorn" unicode="&#xfe;" horiz-adv-x="592" 
d="M83 -223v931l83 10v-341h2c28 59 82 108 167 108c128 0 197 -100 197 -242c0 -149 -83 -253 -219 -253c-58 0 -109 27 -145 70h-2v-283h-83zM319 435c-87 0 -161 -95 -161 -221v-7c0 -110 72 -166 144 -166c88 0 142 77 142 203c0 119 -45 191 -125 191z" />
    <glyph glyph-name="q" unicode="q" horiz-adv-x="592" 
d="M509 475v-698h-83v321h-2c-28 -58 -83 -108 -167 -108c-127 0 -197 100 -197 241c0 149 89 254 223 254c64 0 105 -25 142 -66h2l5 56h77zM272 41c88 0 161 96 161 221v7c0 104 -66 166 -140 166c-90 0 -145 -78 -145 -204c0 -118 44 -190 124 -190z" />
    <glyph glyph-name="r" unicode="r" horiz-adv-x="339" 
d="M160 475l4 -121h3c22 92 88 135 157 136l-7 -69c-97 -5 -151 -79 -151 -184v-237h-83v475h77z" />
    <glyph glyph-name="racute" unicode="&#x155;" horiz-adv-x="339" 
d="M321 712l-139 -141h-51l102 141h88zM160 475l4 -121h3c22 92 88 135 157 136l-7 -69c-97 -5 -151 -79 -151 -184v-237h-83v475h77z" />
    <glyph glyph-name="rcaron" unicode="&#x159;" horiz-adv-x="339" 
d="M151 571l-110 141h51l96 -92l94 92h48l-110 -141h-69zM160 475l4 -121h3c22 92 88 135 157 136l-7 -69c-97 -5 -151 -79 -151 -184v-237h-83v475h77z" />
    <glyph glyph-name="uni0157" unicode="&#x157;" horiz-adv-x="339" 
d="M160 475l4 -121h3c22 92 88 135 157 136l-7 -69c-97 -5 -151 -79 -151 -184v-237h-83v475h77zM164 -70c-6 -40 -32 -106 -53 -145h-43c14 56 19 106 21 145h75z" />
    <glyph glyph-name="s" unicode="s" horiz-adv-x="401" 
d="M325 399c-31 31 -69 42 -108 42c-35 0 -77 -21 -77 -65c0 -37 14 -53 85 -93c75 -42 128 -79 128 -155c0 -88 -72 -138 -162 -138c-61 0 -113 24 -143 51l-12 75h11c40 -51 92 -76 144 -76c51 0 86 25 86 74c0 51 -39 75 -114 115c-72 39 -98 71 -98 135
c0 81 81 121 149 121c51 0 80 -9 109 -25l10 -61h-8z" />
    <glyph glyph-name="sacute" unicode="&#x15b;" horiz-adv-x="401" 
d="M336 712l-139 -141h-51l102 141h88zM325 399c-31 31 -69 42 -108 42c-35 0 -77 -21 -77 -65c0 -37 14 -53 85 -93c75 -42 128 -79 128 -155c0 -88 -72 -138 -162 -138c-61 0 -113 24 -143 51l-12 75h11c40 -51 92 -76 144 -76c51 0 86 25 86 74c0 51 -39 75 -114 115
c-72 39 -98 71 -98 135c0 81 81 121 149 121c51 0 80 -9 109 -25l10 -61h-8z" />
    <glyph glyph-name="scaron" unicode="&#x161;" horiz-adv-x="401" 
d="M166 571l-110 141h51l96 -92l94 92h48l-110 -141h-69zM325 399c-31 31 -69 42 -108 42c-35 0 -77 -21 -77 -65c0 -37 14 -53 85 -93c75 -42 128 -79 128 -155c0 -88 -72 -138 -162 -138c-61 0 -113 24 -143 51l-12 75h11c40 -51 92 -76 144 -76c51 0 86 25 86 74
c0 51 -39 75 -114 115c-72 39 -98 71 -98 135c0 81 81 121 149 121c51 0 80 -9 109 -25l10 -61h-8z" />
    <glyph glyph-name="scedilla" unicode="&#x15f;" horiz-adv-x="401" 
d="M36 116h11c40 -51 92 -76 144 -76c51 0 86 25 86 74c0 51 -39 75 -114 115c-72 39 -98 71 -98 135c0 81 81 121 149 121c51 0 80 -9 109 -25l10 -61h-8c-31 31 -69 42 -108 42c-35 0 -77 -21 -77 -65c0 -37 14 -53 85 -93c75 -42 128 -79 128 -155
c0 -78 -56 -126 -132 -136l-18 -39l11 -3c30 -8 70 -28 70 -73c0 -71 -79 -94 -155 -94l-15 31l4 3c69 0 102 20 102 51s-30 43 -69 50l-1 6l35 66c-59 2 -108 25 -137 51z" />
    <glyph glyph-name="scircumflex" unicode="&#x15d;" horiz-adv-x="401" 
d="M235 712l110 -141h-51l-96 92l-94 -92h-48l110 141h69zM325 399c-31 31 -69 42 -108 42c-35 0 -77 -21 -77 -65c0 -37 14 -53 85 -93c75 -42 128 -79 128 -155c0 -88 -72 -138 -162 -138c-61 0 -113 24 -143 51l-12 75h11c40 -51 92 -76 144 -76c51 0 86 25 86 74
c0 51 -39 75 -114 115c-72 39 -98 71 -98 135c0 81 81 121 149 121c51 0 80 -9 109 -25l10 -61h-8z" />
    <glyph glyph-name="uni0219" unicode="&#x219;" horiz-adv-x="401" 
d="M325 399c-31 31 -69 42 -108 42c-35 0 -77 -21 -77 -65c0 -37 14 -53 85 -93c75 -42 128 -79 128 -155c0 -88 -72 -138 -162 -138c-61 0 -113 24 -143 51l-12 75h11c40 -51 92 -76 144 -76c51 0 86 25 86 74c0 51 -39 75 -114 115c-72 39 -98 71 -98 135
c0 81 81 121 149 121c51 0 80 -9 109 -25l10 -61h-8zM241 -70c-6 -40 -32 -106 -53 -145h-43c14 56 19 106 21 145h75z" />
    <glyph glyph-name="germandbls" unicode="&#xdf;" horiz-adv-x="583" 
d="M164 0h-83v491c0 127 60 237 207 237c94 0 165 -35 165 -117c0 -80 -115 -131 -115 -184c0 -29 29 -55 84 -93c80 -56 117 -100 117 -176c0 -93 -60 -168 -165 -168c-56 0 -100 23 -125 48l-12 78h11c40 -51 80 -74 126 -74c55 0 86 42 86 100c0 51 -34 92 -106 142
c-59 41 -94 73 -94 120c0 78 113 130 113 201c0 50 -33 75 -88 75c-90 0 -121 -81 -121 -198v-482z" />
    <glyph glyph-name="longs" unicode="&#x17f;" horiz-adv-x="290" 
d="M271 728c23 0 45 -3 65 -12l5 -55h-10c-19 12 -34 16 -59 16c-76 0 -93 -62 -93 -193v-484h-83v431h-76v44h76v36c0 119 53 217 175 217z" />
    <glyph glyph-name="t" unicode="t" horiz-adv-x="324" 
d="M178 122c0 -53 16 -81 52 -81c29 0 48 8 74 24l-3 -41c-24 -18 -55 -32 -92 -32c-75 0 -114 30 -114 120v319h-72v44h72v127l83 10v-137h128l-5 -44h-123v-309z" />
    <glyph glyph-name="tbar" unicode="&#x167;" horiz-adv-x="324" 
d="M178 122c0 -53 16 -81 52 -81c29 0 48 8 74 24l-3 -41c-24 -18 -55 -32 -92 -32c-75 0 -114 30 -114 120v162h-72v42h72v115h-72v44h72v127l83 10v-137h128l-5 -44h-123v-115h104v-42h-104v-152z" />
    <glyph glyph-name="tcaron" unicode="&#x165;" horiz-adv-x="324" 
d="M336 718c-11 -75 -39 -146 -59 -183h-39c12 44 24 118 24 183h74zM178 122c0 -53 16 -81 52 -81c29 0 48 8 74 24l-3 -41c-24 -18 -55 -32 -92 -32c-75 0 -114 30 -114 120v319h-72v44h72v127l83 10v-137h128l-5 -44h-123v-309z" />
    <glyph glyph-name="uni0163" unicode="&#x163;" horiz-adv-x="324" 
d="M23 431v44h72v127l83 10v-137h128l-5 -44h-123v-309c0 -53 16 -81 52 -81c29 0 48 8 74 24l-3 -41c-24 -18 -55 -32 -92 -32h-9l-18 -39l11 -3c30 -8 70 -28 70 -73c0 -71 -79 -94 -155 -94l-15 31l4 3c69 0 102 20 102 51s-30 43 -69 50l-1 6l38 72
c-48 11 -72 45 -72 116v319h-72z" />
    <glyph glyph-name="uni021B" unicode="&#x21b;" horiz-adv-x="324" 
d="M178 122c0 -53 16 -81 52 -81c29 0 48 8 74 24l-3 -41c-24 -18 -55 -32 -92 -32c-75 0 -114 30 -114 120v319h-72v44h72v127l83 10v-137h128l-5 -44h-123v-309zM208 -70c-6 -40 -32 -106 -53 -145h-43c14 56 19 106 21 145h75z" />
    <glyph glyph-name="u" unicode="u" horiz-adv-x="560" 
d="M164 475v-303c0 -65 18 -124 88 -124c91 0 142 84 142 184v243h83v-475h-77l-5 100h-3c-28 -57 -80 -110 -163 -110c-80 0 -148 42 -148 175v310h83z" />
    <glyph glyph-name="uacute" unicode="&#xfa;" horiz-adv-x="560" 
d="M415 712l-139 -141h-51l102 141h88zM164 475v-303c0 -65 18 -124 88 -124c91 0 142 84 142 184v243h83v-475h-77l-5 100h-3c-28 -57 -80 -110 -163 -110c-80 0 -148 42 -148 175v310h83z" />
    <glyph glyph-name="ubreve" unicode="&#x16d;" horiz-adv-x="560" 
d="M181 704c6 -51 47 -78 98 -78c53 0 93 28 101 78h39c-8 -78 -59 -128 -140 -128c-84 0 -135 51 -139 128h41zM164 475v-303c0 -65 18 -124 88 -124c91 0 142 84 142 184v243h83v-475h-77l-5 100h-3c-28 -57 -80 -110 -163 -110c-80 0 -148 42 -148 175v310h83z" />
    <glyph glyph-name="ucircumflex" unicode="&#xfb;" horiz-adv-x="560" 
d="M314 712l110 -141h-51l-96 92l-94 -92h-48l110 141h69zM164 475v-303c0 -65 18 -124 88 -124c91 0 142 84 142 184v243h83v-475h-77l-5 100h-3c-28 -57 -80 -110 -163 -110c-80 0 -148 42 -148 175v310h83z" />
    <glyph glyph-name="udieresis" unicode="&#xfc;" horiz-adv-x="560" 
d="M237 689v-87h-81v87h81zM402 689v-87h-81v87h81zM164 475v-303c0 -65 18 -124 88 -124c91 0 142 84 142 184v243h83v-475h-77l-5 100h-3c-28 -57 -80 -110 -163 -110c-80 0 -148 42 -148 175v310h83z" />
    <glyph glyph-name="ugrave" unicode="&#xf9;" horiz-adv-x="560" 
d="M232 712l102 -141h-51l-138 141h87zM164 475v-303c0 -65 18 -124 88 -124c91 0 142 84 142 184v243h83v-475h-77l-5 100h-3c-28 -57 -80 -110 -163 -110c-80 0 -148 42 -148 175v310h83z" />
    <glyph glyph-name="uhungarumlaut" unicode="&#x171;" horiz-adv-x="560" 
d="M348 712l-131 -141h-50l97 141h84zM501 712l-131 -141h-50l97 141h84zM164 475v-303c0 -65 18 -124 88 -124c91 0 142 84 142 184v243h83v-475h-77l-5 100h-3c-28 -57 -80 -110 -163 -110c-80 0 -148 42 -148 175v310h83z" />
    <glyph glyph-name="umacron" unicode="&#x16b;" horiz-adv-x="560" 
d="M435 668v-47h-311v47h311zM164 475v-303c0 -65 18 -124 88 -124c91 0 142 84 142 184v243h83v-475h-77l-5 100h-3c-28 -57 -80 -110 -163 -110c-80 0 -148 42 -148 175v310h83z" />
    <glyph glyph-name="uogonek" unicode="&#x173;" horiz-adv-x="560" 
d="M81 165v310h83v-303c0 -65 18 -124 88 -124c91 0 142 84 142 184v243h83v-475c-70 -45 -101 -78 -101 -107c0 -23 14 -36 43 -36c18 0 39 5 55 12h7l-14 -35c-20 -11 -46 -18 -72 -18c-43 0 -85 17 -85 68c0 36 32 76 111 116h-21l-5 100h-3c-28 -57 -80 -110 -163 -110
c-80 0 -148 42 -148 175z" />
    <glyph glyph-name="uring" unicode="&#x16f;" horiz-adv-x="560" 
d="M280 544c-62 0 -107 48 -107 104c0 58 47 104 107 104c59 0 107 -45 107 -104c0 -58 -47 -104 -107 -104zM280 577c41 0 68 32 68 71c0 36 -24 71 -69 71c-38 0 -67 -30 -67 -71c0 -38 26 -71 68 -71zM164 475v-303c0 -65 18 -124 88 -124c91 0 142 84 142 184v243h83
v-475h-77l-5 100h-3c-28 -57 -80 -110 -163 -110c-80 0 -148 42 -148 175v310h83z" />
    <glyph glyph-name="utilde" unicode="&#x169;" horiz-adv-x="560" 
d="M289 673c18 -10 42 -24 61 -24c25 0 41 10 50 45h34c-11 -60 -40 -99 -85 -99c-25 0 -49 7 -72 21c-18 11 -43 25 -65 25c-24 0 -42 -11 -50 -47h-36c5 52 37 101 87 101c22 0 45 -5 76 -22zM164 475v-303c0 -65 18 -124 88 -124c91 0 142 84 142 184v243h83v-475h-77
l-5 100h-3c-28 -57 -80 -110 -163 -110c-80 0 -148 42 -148 175v310h83z" />
    <glyph glyph-name="v" unicode="v" horiz-adv-x="452" 
d="M257 0h-64l-183 475h92l138 -383h3l132 383h67z" />
    <glyph glyph-name="w" unicode="w" horiz-adv-x="780" 
d="M756 475l-167 -475h-59l-143 369h-5l-138 -369h-59l-161 475h88l117 -372h3l137 372h56l143 -372h3l117 372h68z" />
    <glyph glyph-name="wacute" unicode="&#x1e83;" horiz-adv-x="780" 
d="M530 712l-139 -141h-51l102 141h88zM756 475l-167 -475h-59l-143 369h-5l-138 -369h-59l-161 475h88l117 -372h3l137 372h56l143 -372h3l117 372h68z" />
    <glyph glyph-name="wcircumflex" unicode="&#x175;" horiz-adv-x="780" 
d="M429 712l110 -141h-51l-96 92l-94 -92h-48l110 141h69zM756 475l-167 -475h-59l-143 369h-5l-138 -369h-59l-161 475h88l117 -372h3l137 372h56l143 -372h3l117 372h68z" />
    <glyph glyph-name="wdieresis" unicode="&#x1e85;" horiz-adv-x="780" 
d="M352 689v-87h-81v87h81zM517 689v-87h-81v87h81zM756 475l-167 -475h-59l-143 369h-5l-138 -369h-59l-161 475h88l117 -372h3l137 372h56l143 -372h3l117 372h68z" />
    <glyph glyph-name="wgrave" unicode="&#x1e81;" horiz-adv-x="780" 
d="M347 712l102 -141h-51l-138 141h87zM756 475l-167 -475h-59l-143 369h-5l-138 -369h-59l-161 475h88l117 -372h3l137 372h56l143 -372h3l117 372h68z" />
    <glyph glyph-name="x" unicode="x" horiz-adv-x="469" 
d="M191 241l-155 234h92l112 -181h4l116 181h65l-150 -220l103 -158c33 -50 52 -77 65 -92v-5h-95l-123 196h-5l-128 -196h-66z" />
    <glyph glyph-name="y" unicode="y" horiz-adv-x="443" 
d="M151 -223h-78c48 84 88 170 123 254l-189 444h92l138 -352h3l129 352h67z" />
    <glyph glyph-name="yacute" unicode="&#xfd;" horiz-adv-x="443" 
d="M362 712l-139 -141h-51l102 141h88zM151 -223h-78c48 84 88 170 123 254l-189 444h92l138 -352h3l129 352h67z" />
    <glyph glyph-name="ycircumflex" unicode="&#x177;" horiz-adv-x="443" 
d="M261 712l110 -141h-51l-96 92l-94 -92h-48l110 141h69zM151 -223h-78c48 84 88 170 123 254l-189 444h92l138 -352h3l129 352h67z" />
    <glyph glyph-name="ydieresis" unicode="&#xff;" horiz-adv-x="443" 
d="M184 689v-87h-81v87h81zM349 689v-87h-81v87h81zM151 -223h-78c48 84 88 170 123 254l-189 444h92l138 -352h3l129 352h67z" />
    <glyph glyph-name="ygrave" unicode="&#x1ef3;" horiz-adv-x="443" 
d="M179 712l102 -141h-51l-138 141h87zM151 -223h-78c48 84 88 170 123 254l-189 444h92l138 -352h3l129 352h67z" />
    <glyph glyph-name="z" unicode="z" horiz-adv-x="467" 
d="M68 475h353v-18l-281 -405v-5c208 0 266 1 319 14h6l-36 -61h-408v18l284 405v6h-256z" />
    <glyph glyph-name="zacute" unicode="&#x17a;" horiz-adv-x="467" 
d="M369 712l-139 -141h-51l102 141h88zM68 475h353v-18l-281 -405v-5c208 0 266 1 319 14h6l-36 -61h-408v18l284 405v6h-256z" />
    <glyph glyph-name="zcaron" unicode="&#x17e;" horiz-adv-x="467" 
d="M199 571l-110 141h51l96 -92l94 92h48l-110 -141h-69zM68 475h353v-18l-281 -405v-5c208 0 266 1 319 14h6l-36 -61h-408v18l284 405v6h-256z" />
    <glyph glyph-name="zdotaccent" unicode="&#x17c;" horiz-adv-x="467" 
d="M278 691v-93h-89v93h89zM68 475h353v-18l-281 -405v-5c208 0 266 1 319 14h6l-36 -61h-408v18l284 405v6h-256z" />
    <glyph glyph-name="ordfeminine" unicode="&#xaa;" horiz-adv-x="406" 
d="M282 349l-12 48c-23 -36 -63 -55 -109 -55c-68 0 -105 38 -105 92c0 58 41 82 91 94c89 21 120 28 120 43v3c0 56 -32 79 -83 79c-27 0 -66 -14 -92 -44h-11l6 47c33 26 78 36 114 36c96 0 133 -51 133 -123v-156c0 -21 1 -43 6 -64h-58zM182 379c35 0 80 32 85 73v75
c-99 -22 -144 -41 -144 -89c0 -34 24 -59 59 -59z" />
    <glyph glyph-name="ordmasculine" unicode="&#xba;" horiz-adv-x="460" 
d="M231 692c83 0 171 -57 171 -173c0 -118 -88 -177 -171 -177c-85 0 -173 59 -173 177c0 116 88 173 173 173zM230 380c56 0 96 55 96 140c0 83 -40 135 -96 135s-96 -52 -96 -135c0 -85 40 -140 96 -140z" />
    <glyph glyph-name="uni207F" unicode="&#x207f;" horiz-adv-x="433" 
d="M295 349v214c0 56 -22 82 -60 82c-56 0 -93 -50 -93 -124v-172h-72v336h65l5 -69h2c20 48 62 76 113 76c70 0 112 -44 112 -126v-217h-72z" />
    <glyph glyph-name="uni0394" unicode="&#x394;" horiz-adv-x="685" 
d="M31 0v41l287 629l58 10l278 -647v-33h-623zM100 52h452l-221 518h-5z" />
    <glyph glyph-name="uni03A9" unicode="&#x3a9;" horiz-adv-x="797" 
d="M736 359c0 -130 -58 -220 -168 -297v-4h176v-58h-257v60c121 84 151 163 151 299c0 151 -87 279 -238 279c-152 0 -242 -117 -242 -278c0 -131 31 -216 154 -300v-60h-259v58h172v4c-105 73 -165 163 -165 297c0 188 146 332 340 332c196 0 336 -162 336 -332z" />
    <glyph glyph-name="uni03BC" unicode="&#x3bc;" 
d="M185 475v-303c0 -65 18 -124 88 -124c91 0 142 84 142 184v243h83v-475h-77l-5 100h-3c-28 -57 -56 -110 -139 -110c-38 0 -70 18 -83 39h-4v-179h-85v625h83z" />
    <glyph glyph-name="pi" unicode="&#x3c0;" 
d="M525 41c29 0 44 8 70 24l-3 -41c-24 -18 -51 -32 -88 -32c-75 0 -110 30 -110 120v309h-189v-421h-83v421h-90v54h545l-5 -54h-95v-299c0 -53 12 -81 48 -81z" />
    <glyph glyph-name="uni2099" unicode="&#x2099;" horiz-adv-x="433" 
d="M295 0v214c0 56 -22 82 -60 82c-56 0 -93 -50 -93 -124v-172h-72v336h65l5 -69h2c20 48 62 76 113 76c70 0 112 -44 112 -126v-217h-72z" />
    <glyph glyph-name="zero" unicode="0" horiz-adv-x="584" 
d="M293 692c149 0 250 -142 250 -357c0 -214 -103 -347 -250 -347c-149 0 -252 133 -252 347c0 215 102 357 252 357zM293 642c-103 0 -156 -122 -156 -307c0 -189 53 -297 156 -297c99 0 154 108 154 297c0 185 -55 307 -154 307z" />
    <glyph glyph-name="one" unicode="1" horiz-adv-x="584" 
d="M269 0v600l-155 -73l9 58l195 95h41v-680h-90z" />
    <glyph glyph-name="two" unicode="2" horiz-adv-x="584" 
d="M57 0v31l114 112c153 150 230 260 230 359c0 70 -32 134 -116 134c-57 0 -115 -26 -160 -72h-10l7 68c47 39 103 60 173 60c134 0 200 -80 200 -183c0 -114 -73 -202 -243 -366l-66 -64v-4h172c89 0 138 0 178 5h10l-31 -80h-458z" />
    <glyph glyph-name="three" unicode="3" horiz-adv-x="584" 
d="M407 195c0 102 -69 148 -181 148h-27l6 56h23c103 0 149 52 149 123s-43 116 -123 116c-35 0 -80 -8 -123 -39h-10l10 59c42 23 86 34 135 34c112 0 197 -54 197 -167c0 -73 -29 -115 -100 -146v-5c74 -22 133 -76 133 -181c0 -139 -121 -205 -249 -205
c-70 0 -135 19 -182 56l-9 76h11c56 -50 116 -71 177 -71c88 0 163 44 163 146z" />
    <glyph glyph-name="four" unicode="4" horiz-adv-x="584" 
d="M440 261h118l-10 -66h-108v-195h-82v195h-334v20l353 465h63v-419zM358 261v307h-8l-219 -301v-6h227z" />
    <glyph glyph-name="five" unicode="5" horiz-adv-x="584" 
d="M419 211c0 92 -52 160 -154 160c-43 0 -88 -13 -123 -35l-37 5l45 339h315l-14 -77h-244l-27 -195c29 12 65 18 99 18c143 0 225 -92 225 -214c0 -154 -122 -224 -252 -224c-66 0 -130 20 -176 57l-10 75h10c47 -45 108 -71 174 -71c84 0 169 46 169 162z" />
    <glyph glyph-name="six" unicode="6" horiz-adv-x="584" 
d="M166 350c30 38 84 70 150 70c108 0 208 -74 208 -215c0 -124 -101 -217 -224 -217c-130 0 -237 77 -237 243c0 243 188 422 343 462l38 -30c-130 -39 -257 -190 -282 -313h4zM155 209c0 -97 55 -171 143 -171c86 0 134 77 134 165c0 98 -47 166 -129 166
s-148 -63 -148 -160z" />
    <glyph glyph-name="seven" unicode="7" horiz-adv-x="584" 
d="M106 0c106 181 234 408 334 604h-361l15 76h439v-28c-104 -200 -237 -462 -331 -652h-96z" />
    <glyph glyph-name="eight" unicode="8" horiz-adv-x="584" 
d="M483 546c0 -66 -45 -125 -118 -161v-3c100 -48 165 -102 165 -207c0 -124 -132 -187 -243 -187c-115 0 -232 58 -232 182c0 97 84 165 159 196v3c-89 47 -119 87 -119 162c0 110 113 161 201 161c89 0 187 -43 187 -146zM417 545c0 68 -54 103 -121 103
c-46 0 -108 -30 -108 -110c0 -58 34 -88 124 -130c69 34 105 75 105 137zM434 168c0 82 -61 128 -171 173c-75 -36 -124 -91 -124 -167c0 -88 63 -138 148 -138c84 0 147 50 147 132z" />
    <glyph glyph-name="nine" unicode="9" horiz-adv-x="584" 
d="M410 347c-28 -35 -82 -61 -143 -61c-100 0 -203 57 -203 197c0 124 98 209 219 209c128 0 233 -80 233 -252c0 -209 -143 -394 -343 -453l-39 32c158 59 253 194 280 328h-4zM424 482c0 97 -61 161 -138 161c-87 0 -130 -72 -130 -160c0 -92 51 -146 126 -146
c77 0 142 52 142 145z" />
    <glyph glyph-name="zero.lf" horiz-adv-x="604" 
d="M303 692c149 0 250 -142 250 -357c0 -214 -103 -347 -250 -347c-149 0 -252 133 -252 347c0 215 102 357 252 357zM303 642c-103 0 -156 -122 -156 -307c0 -189 53 -297 156 -297c99 0 154 108 154 297c0 185 -55 307 -154 307z" />
    <glyph glyph-name="one.lf" horiz-adv-x="403" 
d="M195 0v600l-155 -73l9 58l195 95h41v-680h-90z" />
    <glyph glyph-name="two.lf" horiz-adv-x="564" 
d="M43 0v31l114 112c153 150 230 260 230 359c0 70 -32 134 -116 134c-57 0 -115 -26 -160 -72h-10l7 68c47 39 103 60 173 60c134 0 200 -80 200 -183c0 -114 -73 -202 -243 -366l-66 -64v-4h172c89 0 138 0 178 5h10l-31 -80h-458z" />
    <glyph glyph-name="three.lf" horiz-adv-x="541" 
d="M387 195c0 102 -69 148 -181 148h-27l6 56h23c103 0 149 52 149 123s-43 116 -123 116c-35 0 -80 -8 -123 -39h-10l10 59c42 23 86 34 135 34c112 0 197 -54 197 -167c0 -73 -29 -115 -100 -146v-5c74 -22 133 -76 133 -181c0 -139 -121 -205 -249 -205
c-70 0 -135 19 -182 56l-9 76h11c56 -50 116 -71 177 -71c88 0 163 44 163 146z" />
    <glyph glyph-name="four.lf" horiz-adv-x="604" 
d="M444 261h118l-10 -66h-108v-195h-82v195h-334v20l353 465h63v-419zM362 261v307h-8l-219 -301v-6h227z" />
    <glyph glyph-name="five.lf" horiz-adv-x="537" 
d="M397 211c0 92 -52 160 -154 160c-43 0 -88 -13 -123 -35l-37 5l45 339h315l-14 -77h-244l-27 -195c29 12 65 18 99 18c143 0 225 -92 225 -214c0 -154 -122 -224 -252 -224c-66 0 -130 20 -176 57l-10 75h10c47 -45 108 -71 174 -71c84 0 169 46 169 162z" />
    <glyph glyph-name="six.lf" horiz-adv-x="598" 
d="M172 350c30 38 84 70 150 70c108 0 208 -74 208 -215c0 -124 -101 -217 -224 -217c-130 0 -237 77 -237 243c0 243 188 422 343 462l38 -30c-130 -39 -257 -190 -282 -313h4zM161 209c0 -97 55 -171 143 -171c86 0 134 77 134 165c0 98 -47 166 -129 166
s-148 -63 -148 -160z" />
    <glyph glyph-name="seven.lf" horiz-adv-x="560" 
d="M94 0c106 181 234 408 334 604h-361l15 76h439v-28c-104 -200 -237 -462 -331 -652h-96z" />
    <glyph glyph-name="eight.lf" horiz-adv-x="597" 
d="M489 546c0 -66 -45 -125 -118 -161v-3c100 -48 165 -102 165 -207c0 -124 -132 -187 -243 -187c-115 0 -232 58 -232 182c0 97 84 165 159 196v3c-89 47 -119 87 -119 162c0 110 113 161 201 161c89 0 187 -43 187 -146zM423 545c0 68 -54 103 -121 103
c-46 0 -108 -30 -108 -110c0 -58 34 -88 124 -130c69 34 105 75 105 137zM440 168c0 82 -61 128 -171 173c-75 -36 -124 -91 -124 -167c0 -88 63 -138 148 -138c84 0 147 50 147 132z" />
    <glyph glyph-name="nine.lf" horiz-adv-x="588" 
d="M413 347c-28 -35 -82 -61 -143 -61c-100 0 -203 57 -203 197c0 124 98 209 219 209c128 0 233 -80 233 -252c0 -209 -143 -394 -343 -453l-39 32c158 59 253 194 280 328h-4zM427 482c0 97 -61 161 -138 161c-87 0 -130 -72 -130 -160c0 -92 51 -146 126 -146
c77 0 142 52 142 145z" />
    <glyph glyph-name="zero.ss01" unicode="&#x1e00;" horiz-adv-x="689" 
d="M346 706c164 0 268 -148 267 -364c1 -216 -103 -354 -267 -354c-167 0 -270 138 -270 354s103 364 270 364zM346 653c-112 0 -171 -126 -171 -311c0 -190 59 -300 171 -300c107 0 168 110 168 300c0 185 -61 311 -168 311z" />
    <glyph glyph-name="one.ss01" unicode="&#x1e01;" horiz-adv-x="503" 
d="M258 615l-190 -77l7 54l227 102h48v-694h-92v615z" />
    <glyph glyph-name="two.ss01" unicode="&#x1e02;" horiz-adv-x="673" 
d="M56 34l141 114c176 143 272 244 272 357c0 96 -57 142 -144 142c-66 0 -134 -29 -187 -85h-11l8 68c54 49 119 76 202 76c154 0 230 -84 230 -194c0 -123 -79 -217 -282 -366l-90 -66v-4h199c104 0 173 5 207 13h13l-30 -89h-528v34z" />
    <glyph glyph-name="three.ss01" unicode="&#x1e03;" horiz-adv-x="560" 
d="M419 199c0 104 -79 151 -193 151h-50l6 57h46c105 0 171 54 171 126c0 73 -66 117 -148 117c-45 0 -107 -14 -151 -46h-10l10 64c43 24 111 38 165 38c114 0 221 -54 221 -169c0 -75 -42 -122 -120 -150v-6c82 -22 145 -75 145 -184c0 -142 -129 -209 -263 -209
c-78 0 -161 21 -209 59l-13 82h11c61 -55 140 -79 207 -79c90 0 175 45 175 149z" />
    <glyph glyph-name="four.ss01" unicode="&#x1e04;" horiz-adv-x="689" 
d="M628 266l-11 -67h-107v-199h-88v199h-365v38l381 457h72v-428h118zM422 577h-7l-245 -301v-10h252v311z" />
    <glyph glyph-name="five.ss01" unicode="&#x1e05;" horiz-adv-x="633" 
d="M471 216c0 104 -70 162 -180 162c-51 0 -97 -17 -135 -44l-56 8l53 352h361l-11 -78h-295l-31 -207c34 17 91 26 134 26c161 0 255 -92 255 -217c0 -157 -119 -230 -271 -230c-87 0 -170 27 -224 68l-11 76h11c55 -48 132 -82 217 -82c98 0 183 45 183 166z" />
    <glyph glyph-name="six.ss01" unicode="&#x1e06;" horiz-adv-x="673" 
d="M184 358c34 39 98 73 174 73c116 0 231 -68 231 -222c0 -136 -111 -221 -251 -221c-145 0 -254 84 -254 258c0 247 185 447 396 461l18 -35c-183 -40 -290 -189 -318 -314h4zM175 218c1 -107 64 -179 163 -179c98 0 157 70 157 170c0 105 -58 169 -148 169
c-87 0 -173 -49 -172 -160z" />
    <glyph glyph-name="seven.ss01" unicode="&#x1e07;" horiz-adv-x="654" 
d="M132 0c116 185 257 417 373 617h-422l17 77h503v-28c-119 -204 -268 -472 -375 -666h-96z" />
    <glyph glyph-name="eight.ss01" unicode="&#x1e08;" horiz-adv-x="668" 
d="M537 551c0 -67 -37 -124 -125 -156v-3c121 -47 173 -98 173 -207c0 -131 -131 -197 -259 -197c-134 0 -243 70 -243 186c0 111 83 165 166 196v3c-86 42 -120 91 -120 165c0 112 110 168 205 168c91 0 203 -46 203 -155zM475 551c0 74 -66 110 -135 110
c-55 0 -129 -25 -129 -115c0 -59 45 -92 145 -129c82 31 119 69 119 134zM494 175c0 79 -67 129 -192 174c-89 -34 -144 -84 -144 -171c0 -96 80 -141 168 -141c91 0 168 43 168 138z" />
    <glyph glyph-name="nine.ss01" unicode="&#x1e09;" horiz-adv-x="642" 
d="M458 364c-32 -43 -82 -76 -156 -76c-110 0 -220 58 -220 206c0 136 107 213 240 213c139 0 243 -83 243 -259c0 -240 -191 -423 -368 -460l-36 36c163 52 283 202 302 340h-5zM467 488c0 107 -54 168 -146 168c-85 0 -147 -61 -147 -161c0 -103 51 -153 134 -153
c82 0 159 53 159 146z" />
    <glyph glyph-name="zero.subs" unicode="&#x2080;" horiz-adv-x="422" 
d="M211 290c95 0 166 -94 166 -231s-72 -227 -166 -227s-166 90 -166 227s71 231 166 231zM211 254c-62 0 -97 -78 -97 -195c0 -121 35 -190 97 -190c61 0 96 69 96 190c0 117 -35 195 -96 195z" />
    <glyph glyph-name="one.subs" unicode="&#x2081;" horiz-adv-x="312" 
d="M137 -160v387l-104 -46l4 40l135 61h31v-442h-66z" />
    <glyph glyph-name="two.subs" unicode="&#x2082;" horiz-adv-x="393" 
d="M34 -160v20l80 72c107 96 153 170 153 232c0 46 -24 86 -81 86c-32 0 -66 -9 -96 -39h-10l6 45c33 25 68 34 110 34c93 0 139 -55 139 -121c0 -72 -48 -136 -168 -238l-41 -35v-3h109c63 0 92 1 120 4h9l-19 -57h-311z" />
    <glyph glyph-name="three.subs" unicode="&#x2083;" horiz-adv-x="378" 
d="M261 -33c0 67 -45 95 -115 95h-14l3 36h15c62 0 89 32 89 78c0 45 -23 77 -79 77c-24 0 -56 -9 -81 -30h-10l5 39c34 22 64 28 96 28c77 0 136 -38 136 -111c0 -48 -24 -79 -66 -94v-3c44 -14 88 -46 88 -116c0 -89 -79 -134 -167 -134c-43 0 -86 9 -118 33l-8 54h9
c40 -34 79 -45 116 -45c63 0 101 32 101 93z" />
    <glyph glyph-name="four.subs" unicode="&#x2084;" horiz-adv-x="385" 
d="M280 6h83l-7 -44h-76v-122h-59v122h-211v12l227 308h43v-276zM221 7v192h-6l-131 -188v-4h137z" />
    <glyph glyph-name="five.subs" unicode="&#x2085;" horiz-adv-x="371" 
d="M266 -21c0 59 -35 100 -96 100c-27 0 -55 -5 -79 -20l-30 4l29 219h216l-11 -52h-162l-17 -126c14 8 41 13 66 13c89 0 149 -56 149 -137c0 -99 -82 -148 -171 -148c-48 0 -92 17 -118 37l-7 51h10c32 -30 71 -46 113 -46c68 0 108 38 108 105z" />
    <glyph glyph-name="six.subs" unicode="&#x2086;" horiz-adv-x="390" 
d="M201 -168c-98 0 -156 59 -156 157c0 157 117 268 226 301l30 -24c-79 -23 -163 -113 -185 -198h2c19 25 50 45 97 45c73 0 138 -50 138 -140c0 -80 -67 -141 -152 -141zM200 -133c54 0 85 46 85 104c0 65 -31 105 -80 105c-53 0 -92 -41 -92 -101c0 -66 34 -108 87 -108z
" />
    <glyph glyph-name="seven.subs" unicode="&#x2087;" horiz-adv-x="374" 
d="M59 -160c68 117 149 260 214 389h-233l10 53h294v-20c-64 -122 -150 -290 -215 -422h-70z" />
    <glyph glyph-name="eight.subs" unicode="&#x2088;" horiz-adv-x="406" 
d="M331 194c0 -42 -28 -79 -77 -103v-2c67 -33 107 -68 107 -135c0 -80 -77 -122 -162 -122c-90 0 -154 41 -154 119c0 52 39 100 103 127v2c-57 31 -77 62 -77 108c0 61 61 102 134 102c63 0 126 -30 126 -96zM280 195c0 40 -27 65 -72 65c-42 0 -69 -26 -69 -68
c0 -36 23 -59 77 -84c45 23 64 48 64 87zM291 -51c0 55 -39 83 -107 110c-50 -24 -77 -60 -77 -106c0 -55 37 -87 92 -87s92 32 92 83z" />
    <glyph glyph-name="nine.subs" unicode="&#x2089;" horiz-adv-x="384" 
d="M113 -168l-30 24c93 34 166 117 188 210h-2c-17 -22 -49 -43 -99 -43c-67 0 -133 41 -133 131c0 79 63 136 147 136c95 0 155 -62 155 -164c0 -134 -92 -255 -226 -294zM183 61c52 0 88 37 88 93c0 61 -36 101 -85 101c-54 0 -81 -43 -81 -101s31 -93 78 -93z" />
    <glyph glyph-name="zero.dnom" horiz-adv-x="422" 
d="M211 450c95 0 166 -94 166 -231s-72 -227 -166 -227s-166 90 -166 227s71 231 166 231zM211 414c-62 0 -97 -78 -97 -195c0 -121 35 -190 97 -190c61 0 96 69 96 190c0 117 -35 195 -96 195z" />
    <glyph glyph-name="one.dnom" horiz-adv-x="312" 
d="M137 0v387l-104 -46l4 40l135 61h31v-442h-66z" />
    <glyph glyph-name="two.dnom" horiz-adv-x="393" 
d="M34 0v20l80 72c107 96 153 170 153 232c0 46 -24 86 -81 86c-32 0 -66 -9 -96 -39h-10l6 45c33 25 68 34 110 34c93 0 139 -55 139 -121c0 -72 -48 -136 -168 -238l-41 -35v-3h109c63 0 92 1 120 4h9l-19 -57h-311z" />
    <glyph glyph-name="three.dnom" horiz-adv-x="378" 
d="M261 127c0 67 -45 95 -115 95h-14l3 36h15c62 0 89 32 89 78c0 45 -23 77 -79 77c-24 0 -56 -9 -81 -30h-10l5 39c34 22 64 28 96 28c77 0 136 -38 136 -111c0 -48 -24 -79 -66 -94v-3c44 -14 88 -46 88 -116c0 -89 -79 -134 -167 -134c-43 0 -86 9 -118 33l-8 54h9
c40 -34 79 -45 116 -45c63 0 101 32 101 93z" />
    <glyph glyph-name="four.dnom" horiz-adv-x="385" 
d="M280 166h83l-7 -44h-76v-122h-59v122h-211v12l227 308h43v-276zM221 167v192h-6l-131 -188v-4h137z" />
    <glyph glyph-name="five.dnom" horiz-adv-x="371" 
d="M266 139c0 59 -35 100 -96 100c-27 0 -55 -5 -79 -20l-30 4l29 219h216l-11 -52h-162l-17 -126c14 8 41 13 66 13c89 0 149 -56 149 -137c0 -99 -82 -148 -171 -148c-48 0 -92 17 -118 37l-7 51h10c32 -30 71 -46 113 -46c68 0 108 38 108 105z" />
    <glyph glyph-name="six.dnom" horiz-adv-x="390" 
d="M201 -8c-98 0 -156 59 -156 157c0 157 117 268 226 301l30 -24c-79 -23 -163 -113 -185 -198h2c19 25 50 45 97 45c73 0 138 -50 138 -140c0 -80 -67 -141 -152 -141zM200 27c54 0 85 46 85 104c0 65 -31 105 -80 105c-53 0 -92 -41 -92 -101c0 -66 34 -108 87 -108z" />
    <glyph glyph-name="seven.dnom" horiz-adv-x="374" 
d="M59 0c68 117 149 260 214 389h-233l10 53h294v-20c-64 -122 -150 -290 -215 -422h-70z" />
    <glyph glyph-name="eight.dnom" horiz-adv-x="406" 
d="M331 354c0 -42 -28 -79 -77 -103v-2c67 -33 107 -68 107 -135c0 -80 -77 -122 -162 -122c-90 0 -154 41 -154 119c0 52 39 100 103 127v2c-57 31 -77 62 -77 108c0 61 61 102 134 102c63 0 126 -30 126 -96zM280 355c0 40 -27 65 -72 65c-42 0 -69 -26 -69 -68
c0 -36 23 -59 77 -84c45 23 64 48 64 87zM291 109c0 55 -39 83 -107 110c-50 -24 -77 -60 -77 -106c0 -55 37 -87 92 -87s92 32 92 83z" />
    <glyph glyph-name="nine.dnom" horiz-adv-x="384" 
d="M113 -8l-30 24c93 34 166 117 188 210h-2c-17 -22 -49 -43 -99 -43c-67 0 -133 41 -133 131c0 79 63 136 147 136c95 0 155 -62 155 -164c0 -134 -92 -255 -226 -294zM183 221c52 0 88 37 88 93c0 61 -36 101 -85 101c-54 0 -81 -43 -81 -101s31 -93 78 -93z" />
    <glyph glyph-name="zero.numr" horiz-adv-x="422" 
d="M211 688c95 0 166 -94 166 -231s-72 -227 -166 -227s-166 90 -166 227s71 231 166 231zM211 652c-62 0 -97 -78 -97 -195c0 -121 35 -190 97 -190c61 0 96 69 96 190c0 117 -35 195 -96 195z" />
    <glyph glyph-name="one.numr" horiz-adv-x="312" 
d="M137 238v387l-104 -46l4 40l135 61h31v-442h-66z" />
    <glyph glyph-name="two.numr" horiz-adv-x="393" 
d="M34 238v20l80 72c107 96 153 170 153 232c0 46 -24 86 -81 86c-32 0 -66 -9 -96 -39h-10l6 45c33 25 68 34 110 34c93 0 139 -55 139 -121c0 -72 -48 -136 -168 -238l-41 -35v-3h109c63 0 92 1 120 4h9l-19 -57h-311z" />
    <glyph glyph-name="three.numr" horiz-adv-x="378" 
d="M261 365c0 67 -45 95 -115 95h-14l3 36h15c62 0 89 32 89 78c0 45 -23 77 -79 77c-24 0 -56 -9 -81 -30h-10l5 39c34 22 64 28 96 28c77 0 136 -38 136 -111c0 -48 -24 -79 -66 -94v-3c44 -14 88 -46 88 -116c0 -89 -79 -134 -167 -134c-43 0 -86 9 -118 33l-8 54h9
c40 -34 79 -45 116 -45c63 0 101 32 101 93z" />
    <glyph glyph-name="four.numr" horiz-adv-x="385" 
d="M280 404h83l-7 -44h-76v-122h-59v122h-211v12l227 308h43v-276zM221 405v192h-6l-131 -188v-4h137z" />
    <glyph glyph-name="five.numr" horiz-adv-x="371" 
d="M266 377c0 59 -35 100 -96 100c-27 0 -55 -5 -79 -20l-30 4l29 219h216l-11 -52h-162l-17 -126c14 8 41 13 66 13c89 0 149 -56 149 -137c0 -99 -82 -148 -171 -148c-48 0 -92 17 -118 37l-7 51h10c32 -30 71 -46 113 -46c68 0 108 38 108 105z" />
    <glyph glyph-name="six.numr" horiz-adv-x="390" 
d="M201 230c-98 0 -156 59 -156 157c0 157 117 268 226 301l30 -24c-79 -23 -163 -113 -185 -198h2c19 25 50 45 97 45c73 0 138 -50 138 -140c0 -80 -67 -141 -152 -141zM200 265c54 0 85 46 85 104c0 65 -31 105 -80 105c-53 0 -92 -41 -92 -101c0 -66 34 -108 87 -108z
" />
    <glyph glyph-name="seven.numr" horiz-adv-x="374" 
d="M59 238c68 117 149 260 214 389h-233l10 53h294v-20c-64 -122 -150 -290 -215 -422h-70z" />
    <glyph glyph-name="eight.numr" horiz-adv-x="406" 
d="M331 592c0 -42 -28 -79 -77 -103v-2c67 -33 107 -68 107 -135c0 -80 -77 -122 -162 -122c-90 0 -154 41 -154 119c0 52 39 100 103 127v2c-57 31 -77 62 -77 108c0 61 61 102 134 102c63 0 126 -30 126 -96zM280 593c0 40 -27 65 -72 65c-42 0 -69 -26 -69 -68
c0 -36 23 -59 77 -84c45 23 64 48 64 87zM291 347c0 55 -39 83 -107 110c-50 -24 -77 -60 -77 -106c0 -55 37 -87 92 -87s92 32 92 83z" />
    <glyph glyph-name="nine.numr" horiz-adv-x="384" 
d="M113 230l-30 24c93 34 166 117 188 210h-2c-17 -22 -49 -43 -99 -43c-67 0 -133 41 -133 131c0 79 63 136 147 136c95 0 155 -62 155 -164c0 -134 -92 -255 -226 -294zM183 459c52 0 88 37 88 93c0 61 -36 101 -85 101c-54 0 -81 -43 -81 -101s31 -93 78 -93z" />
    <glyph glyph-name="zero.sups" unicode="&#x2070;" horiz-adv-x="422" 
d="M211 880c95 0 166 -94 166 -231s-72 -227 -166 -227s-166 90 -166 227s71 231 166 231zM211 844c-62 0 -97 -78 -97 -195c0 -121 35 -190 97 -190c61 0 96 69 96 190c0 117 -35 195 -96 195z" />
    <glyph glyph-name="one.sups" unicode="&#xb9;" horiz-adv-x="312" 
d="M137 430v387l-104 -46l4 40l135 61h31v-442h-66z" />
    <glyph glyph-name="two.sups" unicode="&#xb2;" horiz-adv-x="393" 
d="M34 430v20l80 72c107 96 153 170 153 232c0 46 -24 86 -81 86c-32 0 -66 -9 -96 -39h-10l6 45c33 25 68 34 110 34c93 0 139 -55 139 -121c0 -72 -48 -136 -168 -238l-41 -35v-3h109c63 0 92 1 120 4h9l-19 -57h-311z" />
    <glyph glyph-name="three.sups" unicode="&#xb3;" horiz-adv-x="378" 
d="M261 557c0 67 -45 95 -115 95h-14l3 36h15c62 0 89 32 89 78c0 45 -23 77 -79 77c-24 0 -56 -9 -81 -30h-10l5 39c34 22 64 28 96 28c77 0 136 -38 136 -111c0 -48 -24 -79 -66 -94v-3c44 -14 88 -46 88 -116c0 -89 -79 -134 -167 -134c-43 0 -86 9 -118 33l-8 54h9
c40 -34 79 -45 116 -45c63 0 101 32 101 93z" />
    <glyph glyph-name="four.sups" unicode="&#x2074;" horiz-adv-x="385" 
d="M280 596h83l-7 -44h-76v-122h-59v122h-211v12l227 308h43v-276zM221 597v192h-6l-131 -188v-4h137z" />
    <glyph glyph-name="five.sups" unicode="&#x2075;" horiz-adv-x="371" 
d="M266 569c0 59 -35 100 -96 100c-27 0 -55 -5 -79 -20l-30 4l29 219h216l-11 -52h-162l-17 -126c14 8 41 13 66 13c89 0 149 -56 149 -137c0 -99 -82 -148 -171 -148c-48 0 -92 17 -118 37l-7 51h10c32 -30 71 -46 113 -46c68 0 108 38 108 105z" />
    <glyph glyph-name="six.sups" unicode="&#x2076;" horiz-adv-x="390" 
d="M201 422c-98 0 -156 59 -156 157c0 157 117 268 226 301l30 -24c-79 -23 -163 -113 -185 -198h2c19 25 50 45 97 45c73 0 138 -50 138 -140c0 -80 -67 -141 -152 -141zM200 457c54 0 85 46 85 104c0 65 -31 105 -80 105c-53 0 -92 -41 -92 -101c0 -66 34 -108 87 -108z
" />
    <glyph glyph-name="seven.sups" unicode="&#x2077;" horiz-adv-x="374" 
d="M59 430c68 117 149 260 214 389h-233l10 53h294v-20c-64 -122 -150 -290 -215 -422h-70z" />
    <glyph glyph-name="eight.sups" unicode="&#x2078;" horiz-adv-x="406" 
d="M331 784c0 -42 -28 -79 -77 -103v-2c67 -33 107 -68 107 -135c0 -80 -77 -122 -162 -122c-90 0 -154 41 -154 119c0 52 39 100 103 127v2c-57 31 -77 62 -77 108c0 61 61 102 134 102c63 0 126 -30 126 -96zM280 785c0 40 -27 65 -72 65c-42 0 -69 -26 -69 -68
c0 -36 23 -59 77 -84c45 23 64 48 64 87zM291 539c0 55 -39 83 -107 110c-50 -24 -77 -60 -77 -106c0 -55 37 -87 92 -87s92 32 92 83z" />
    <glyph glyph-name="nine.sups" unicode="&#x2079;" horiz-adv-x="384" 
d="M113 422l-30 24c93 34 166 117 188 210h-2c-17 -22 -49 -43 -99 -43c-67 0 -133 41 -133 131c0 79 63 136 147 136c95 0 155 -62 155 -164c0 -134 -92 -255 -226 -294zM183 651c52 0 88 37 88 93c0 61 -36 101 -85 101c-54 0 -81 -43 -81 -101s31 -93 78 -93z" />
    <glyph glyph-name="fraction" unicode="&#x2044;" horiz-adv-x="149" 
d="M249 699l40 -20l-390 -699l-39 20z" />
    <glyph glyph-name="onehalf" unicode="&#xbd;" horiz-adv-x="854" 
d="M561 699l40 -20l-390 -699l-39 20zM137 238v387l-104 -46l4 40l135 61h31v-442h-66zM495 0v20l80 72c107 96 153 170 153 232c0 46 -24 86 -81 86c-32 0 -66 -9 -96 -39h-10l6 45c33 25 68 34 110 34c93 0 139 -55 139 -121c0 -72 -48 -136 -168 -238l-41 -35v-3h109
c63 0 92 1 120 4h9l-19 -57h-311z" />
    <glyph glyph-name="onequarter" unicode="&#xbc;" horiz-adv-x="812" 
d="M561 699l40 -20l-390 -699l-39 20zM137 238v387l-104 -46l4 40l135 61h31v-442h-66zM707 166h83l-7 -44h-76v-122h-59v122h-211v12l227 308h43v-276zM648 167v192h-6l-131 -188v-4h137z" />
    <glyph glyph-name="threequarters" unicode="&#xbe;" horiz-adv-x="878" 
d="M627 699l40 -20l-390 -699l-39 20zM261 365c0 67 -45 95 -115 95h-14l3 36h15c62 0 89 32 89 78c0 45 -23 77 -79 77c-24 0 -56 -9 -81 -30h-10l5 39c34 22 64 28 96 28c77 0 136 -38 136 -111c0 -48 -24 -79 -66 -94v-3c44 -14 88 -46 88 -116c0 -89 -79 -134 -167 -134
c-43 0 -86 9 -118 33l-8 54h9c40 -34 79 -45 116 -45c63 0 101 32 101 93zM773 166h83l-7 -44h-76v-122h-59v122h-211v12l227 308h43v-276zM714 167v192h-6l-131 -188v-4h137z" />
    <glyph glyph-name="oneeighth" unicode="&#x215b;" horiz-adv-x="867" 
d="M561 699l40 -20l-390 -699l-39 20zM137 238v387l-104 -46l4 40l135 61h31v-442h-66zM792 354c0 -42 -28 -79 -77 -103v-2c67 -33 107 -68 107 -135c0 -80 -77 -122 -162 -122c-90 0 -154 41 -154 119c0 52 39 100 103 127v2c-57 31 -77 62 -77 108c0 61 61 102 134 102
c63 0 126 -30 126 -96zM741 355c0 40 -27 65 -72 65c-42 0 -69 -26 -69 -68c0 -36 23 -59 77 -84c45 23 64 48 64 87zM752 109c0 55 -39 83 -107 110c-50 -24 -77 -60 -77 -106c0 -55 37 -87 92 -87s92 32 92 83z" />
    <glyph glyph-name="threeeighths" unicode="&#x215c;" horiz-adv-x="933" 
d="M627 699l40 -20l-390 -699l-39 20zM261 365c0 67 -45 95 -115 95h-14l3 36h15c62 0 89 32 89 78c0 45 -23 77 -79 77c-24 0 -56 -9 -81 -30h-10l5 39c34 22 64 28 96 28c77 0 136 -38 136 -111c0 -48 -24 -79 -66 -94v-3c44 -14 88 -46 88 -116c0 -89 -79 -134 -167 -134
c-43 0 -86 9 -118 33l-8 54h9c40 -34 79 -45 116 -45c63 0 101 32 101 93zM858 354c0 -42 -28 -79 -77 -103v-2c67 -33 107 -68 107 -135c0 -80 -77 -122 -162 -122c-90 0 -154 41 -154 119c0 52 39 100 103 127v2c-57 31 -77 62 -77 108c0 61 61 102 134 102
c63 0 126 -30 126 -96zM807 355c0 40 -27 65 -72 65c-42 0 -69 -26 -69 -68c0 -36 23 -59 77 -84c45 23 64 48 64 87zM818 109c0 55 -39 83 -107 110c-50 -24 -77 -60 -77 -106c0 -55 37 -87 92 -87s92 32 92 83z" />
    <glyph glyph-name="fiveeighths" unicode="&#x215d;" horiz-adv-x="936" 
d="M630 699l40 -20l-390 -699l-39 20zM266 377c0 59 -35 100 -96 100c-27 0 -55 -5 -79 -20l-30 4l29 219h216l-11 -52h-162l-17 -126c14 8 41 13 66 13c89 0 149 -56 149 -137c0 -99 -82 -148 -171 -148c-48 0 -92 17 -118 37l-7 51h10c32 -30 71 -46 113 -46
c68 0 108 38 108 105zM861 354c0 -42 -28 -79 -77 -103v-2c67 -33 107 -68 107 -135c0 -80 -77 -122 -162 -122c-90 0 -154 41 -154 119c0 52 39 100 103 127v2c-57 31 -77 62 -77 108c0 61 61 102 134 102c63 0 126 -30 126 -96zM810 355c0 40 -27 65 -72 65
c-42 0 -69 -26 -69 -68c0 -36 23 -59 77 -84c45 23 64 48 64 87zM821 109c0 55 -39 83 -107 110c-50 -24 -77 -60 -77 -106c0 -55 37 -87 92 -87s92 32 92 83z" />
    <glyph glyph-name="seveneighths" unicode="&#x215e;" horiz-adv-x="849" 
d="M543 699l40 -20l-390 -699l-39 20zM59 238c68 117 149 260 214 389h-233l10 53h294v-20c-64 -122 -150 -290 -215 -422h-70zM774 354c0 -42 -28 -79 -77 -103v-2c67 -33 107 -68 107 -135c0 -80 -77 -122 -162 -122c-90 0 -154 41 -154 119c0 52 39 100 103 127v2
c-57 31 -77 62 -77 108c0 61 61 102 134 102c63 0 126 -30 126 -96zM723 355c0 40 -27 65 -72 65c-42 0 -69 -26 -69 -68c0 -36 23 -59 77 -84c45 23 64 48 64 87zM734 109c0 55 -39 83 -107 110c-50 -24 -77 -60 -77 -106c0 -55 37 -87 92 -87s92 32 92 83z" />
    <glyph glyph-name="period" unicode="." horiz-adv-x="300" 
d="M205 106v-106h-110v106h110z" />
    <glyph glyph-name="comma" unicode="," horiz-adv-x="300" 
d="M212 110c-8 -46 -57 -188 -90 -251h-50c26 82 46 206 50 251h90z" />
    <glyph glyph-name="colon" unicode=":" horiz-adv-x="348" 
d="M228 475v-106h-108v106h108zM228 106v-106h-108v106h108z" />
    <glyph glyph-name="semicolon" unicode=";" horiz-adv-x="348" 
d="M228 475v-106h-108v106h108zM222 110c-8 -46 -57 -188 -90 -251h-50c26 82 46 206 50 251h90z" />
    <glyph glyph-name="ellipsis" unicode="&#x2026;" horiz-adv-x="900" 
d="M205 106v-106h-110v106h110zM505 106v-106h-110v106h110zM805 106v-106h-110v106h110z" />
    <glyph glyph-name="exclam" unicode="!" horiz-adv-x="344" 
d="M223 680l-29 -456h-44l-29 456h102zM221 104v-104h-98v104h98z" />
    <glyph glyph-name="exclamdown" unicode="&#xa1;" horiz-adv-x="344" 
d="M123 371v104h98v-104h-98zM121 -205l29 456h44l29 -456h-102z" />
    <glyph glyph-name="question" unicode="?" horiz-adv-x="470" 
d="M188 225v22c0 64 37 99 75 135c37 35 79 73 79 139c0 70 -40 115 -110 115c-45 0 -96 -16 -141 -57h-10l7 66c49 33 101 47 152 47c117 0 194 -62 194 -165c0 -97 -68 -142 -128 -182c-38 -25 -65 -50 -65 -109v-11h-53zM269 104v-104h-98v104h98z" />
    <glyph glyph-name="questiondown" unicode="&#xbf;" horiz-adv-x="470" 
d="M201 371v104h98v-104h-98zM282 250v-22c0 -64 -37 -99 -75 -135c-37 -35 -79 -73 -79 -139c0 -70 40 -115 110 -115c45 0 96 16 141 57h10l-7 -66c-49 -33 -101 -47 -152 -47c-117 0 -194 62 -194 165c0 97 68 142 128 182c38 25 65 50 65 109v11h53z" />
    <glyph glyph-name="periodcentered" unicode="&#xb7;" horiz-adv-x="300" 
d="M205 326v-106h-110v106h110z" />
    <glyph glyph-name="bullet" unicode="&#x2022;" 
d="M136 328c0 91 73 165 164 165s165 -74 165 -165s-74 -164 -165 -164s-164 73 -164 164z" />
    <glyph glyph-name="asterisk" unicode="*" horiz-adv-x="362" 
d="M282 720l25 -44l-86 -43l86 -45l-25 -44l-81 55l5 -100h-50l6 101l-83 -56l-24 44l86 45l-86 43l25 43l81 -55l-5 101h50l-6 -101z" />
    <glyph glyph-name="numbersign" unicode="#" horiz-adv-x="500" 
d="M80 0l34 184h-82l22 65h71l38 205h-83l22 64h71l30 162h49l-30 -162h110l29 162h50l-29 -162h81l-22 -64h-71l-37 -205h82l-22 -65h-72l-32 -184h-50l34 184h-110l-34 -184h-49zM175 249h109l36 205h-109z" />
    <glyph glyph-name="slash" unicode="/" 
d="M80 -193l-3 5l400 908l6 3h41l3 -5l-402 -908l-5 -3h-40z" />
    <glyph glyph-name="backslash" unicode="\" 
d="M80 721h40l5 -3l402 -908l-3 -5h-41l-6 3l-400 908z" />
    <glyph glyph-name="colon.ss01" unicode="&#x1e0a;" horiz-adv-x="348" 
d="M228 575v-106h-108v106h108zM228 206v-106h-108v106h108z" />
    <glyph glyph-name="parenleft" unicode="(" horiz-adv-x="360" 
d="M143 281c0 -187 47 -354 134 -443h-58c-81 78 -159 231 -159 443c0 208 78 362 159 439h58c-87 -89 -134 -254 -134 -439z" />
    <glyph glyph-name="parenright" unicode=")" horiz-adv-x="360" 
d="M204 278c0 187 -47 353 -134 442h58c81 -78 159 -230 159 -442c0 -208 -78 -363 -159 -440h-58c87 89 134 255 134 440z" />
    <glyph glyph-name="braceleft" unicode="{" horiz-adv-x="360" 
d="M292 680h-18c-46 0 -65 -24 -65 -98v-158c0 -69 -27 -116 -79 -144v-2c50 -25 79 -72 79 -143v-156c0 -64 13 -101 64 -101h19v-40h-50c-53 0 -116 36 -116 119v156c0 98 -23 141 -81 141v50c59 0 81 44 81 140v160c0 60 49 116 117 116h49v-40z" />
    <glyph glyph-name="braceright" unicode="}" horiz-adv-x="360" 
d="M68 -122h18c46 0 65 24 65 98v158c0 69 27 116 79 144v2c-50 25 -79 72 -79 143v156c0 64 -13 101 -64 101h-19v40h50c53 0 116 -36 116 -119v-156c0 -98 23 -141 81 -141v-50c-59 0 -81 -44 -81 -140v-160c0 -60 -49 -116 -117 -116h-49v40z" />
    <glyph glyph-name="bracketleft" unicode="[" horiz-adv-x="360" 
d="M296 720v-43h-116v-796h116v-43h-198v882h198z" />
    <glyph glyph-name="bracketright" unicode="]" horiz-adv-x="360" 
d="M64 -162v43h116v796h-116v43h198v-882h-198z" />
    <glyph glyph-name="hyphen" unicode="-" horiz-adv-x="393" 
d="M340 295l-4 -51h-283l4 51h283z" />
    <glyph glyph-name="uni00AD" unicode="&#xad;" horiz-adv-x="393" 
d="M340 295l-4 -51h-283l4 51h283z" />
    <glyph glyph-name="endash" unicode="&#x2013;" horiz-adv-x="500" 
d="M495 293v-47h-490v47h490z" />
    <glyph glyph-name="emdash" unicode="&#x2014;" horiz-adv-x="918" 
d="M818 293v-47h-718v47h718z" />
    <glyph glyph-name="uni2011" unicode="&#x2011;" horiz-adv-x="393" 
d="M340 295l-4 -51h-283l4 51h283z" />
    <glyph glyph-name="underscore" unicode="_" horiz-adv-x="500" 
d="M0 -145v54h500v-54h-500z" />
    <glyph glyph-name="hyphen.ss01" unicode="&#x1e0b;" horiz-adv-x="393" 
d="M340 384l-4 -51h-283l4 51h283z" />
    <glyph glyph-name="uni00AD.ss01" horiz-adv-x="393" 
d="M340 384l-4 -51h-283l4 51h283z" />
    <glyph glyph-name="endash.ss01" horiz-adv-x="500" 
d="M495 382v-47h-490v47h490z" />
    <glyph glyph-name="emdash.ss01" horiz-adv-x="918" 
d="M818 382v-47h-718v47h718z" />
    <glyph glyph-name="uni2011.ss01" horiz-adv-x="393" 
d="M340 384l-4 -51h-283l4 51h283z" />
    <glyph glyph-name="quotesinglbase" unicode="&#x201a;" horiz-adv-x="243" 
d="M189 125c-7 -46 -67 -188 -90 -231h-45c24 62 49 186 53 231h82z" />
    <glyph glyph-name="quotedblbase" unicode="&#x201e;" horiz-adv-x="393" 
d="M189 125c-7 -46 -67 -188 -90 -231h-45c24 62 49 186 53 231h82zM339 125c-7 -46 -67 -188 -90 -231h-45c24 62 49 186 53 231h82z" />
    <glyph glyph-name="quotedblleft" unicode="&#x201c;" horiz-adv-x="393" 
d="M54 449c7 46 67 188 90 231h45c-24 -62 -49 -186 -53 -231h-82zM204 449c7 46 67 188 90 231h45c-24 -62 -49 -186 -53 -231h-82z" />
    <glyph glyph-name="quotedblright" unicode="&#x201d;" horiz-adv-x="393" 
d="M189 680c-7 -46 -67 -188 -90 -231h-45c24 62 49 186 53 231h82zM339 680c-7 -46 -67 -188 -90 -231h-45c24 62 49 186 53 231h82z" />
    <glyph glyph-name="quoteleft" unicode="&#x2018;" horiz-adv-x="243" 
d="M54 449c7 46 67 188 90 231h45c-24 -62 -49 -186 -53 -231h-82z" />
    <glyph glyph-name="quoteright" unicode="&#x2019;" horiz-adv-x="243" 
d="M189 680c-7 -46 -67 -188 -90 -231h-45c24 62 49 186 53 231h82z" />
    <glyph glyph-name="guillemotleft" unicode="&#xab;" horiz-adv-x="418" 
d="M205 431v-57l-91 -99l91 -99v-57l-159 125v62zM362 431v-57l-91 -99l91 -99v-57l-159 125v62z" />
    <glyph glyph-name="guillemotright" unicode="&#xbb;" horiz-adv-x="418" 
d="M56 119v57l91 99l-91 99v57l159 -125v-62zM213 119v57l91 99l-91 99v57l159 -125v-62z" />
    <glyph glyph-name="guilsinglleft" unicode="&#x2039;" horiz-adv-x="261" 
d="M205 431v-57l-91 -99l91 -99v-57l-159 125v62z" />
    <glyph glyph-name="guilsinglright" unicode="&#x203a;" horiz-adv-x="261" 
d="M56 119v57l91 99l-91 99v57l159 -125v-62z" />
    <glyph glyph-name="quotedbl" unicode="&#x22;" horiz-adv-x="518" 
d="M223 710l-29 -256h-44l-29 256h102zM397 710l-29 -256h-44l-29 256h102z" />
    <glyph glyph-name="quotesingle" unicode="'" horiz-adv-x="344" 
d="M223 710l-29 -256h-44l-29 256h102z" />
    <glyph glyph-name="guillemotleft.ss01" unicode="&#x1e0c;" horiz-adv-x="418" 
d="M205 511v-57l-91 -99l91 -99v-57l-159 125v62zM362 511v-57l-91 -99l91 -99v-57l-159 125v62z" />
    <glyph glyph-name="guillemotright.ss01" unicode="&#x1e0d;" horiz-adv-x="418" 
d="M56 199v57l91 99l-91 99v57l159 -125v-62zM213 199v57l91 99l-91 99v57l159 -125v-62z" />
    <glyph glyph-name="guilsinglleft.ss01" unicode="&#x1e0e;" horiz-adv-x="261" 
d="M205 511v-57l-91 -99l91 -99v-57l-159 125v62z" />
    <glyph glyph-name="guilsinglright.ss01" unicode="&#x1e0f;" horiz-adv-x="261" 
d="M56 199v57l91 99l-91 99v57l159 -125v-62z" />
    <glyph glyph-name="uni00A0" unicode="&#xa0;" horiz-adv-x="260" 
 />
    <glyph glyph-name="uniFEFF" unicode="&#xfeff;" horiz-adv-x="0" 
 />
    <glyph glyph-name="cent" unicode="&#xa2;" 
d="M505 92l-15 -59c-23 -22 -64 -38 -114 -42v-111h-50v111c-126 11 -213 95 -213 244c0 140 87 235 213 248v107h50v-106c50 -2 88 -17 108 -32l11 -60h-12c-26 28 -68 44 -107 47v-399c51 2 92 23 118 52h11zM203 242c0 -104 50 -177 123 -196v389
c-77 -17 -123 -88 -123 -193z" />
    <glyph glyph-name="currency" unicode="&#xa4;" 
d="M95 594l55 -56c37 34 93 56 150 56c55 0 105 -18 149 -55l53 55l38 -38l-53 -54c36 -46 54 -99 54 -156s-18 -111 -54 -156l52 -54l-37 -38l-53 55c-41 -36 -92 -55 -149 -55c-52 0 -104 17 -150 56l-55 -56l-37 38l55 57c-36 45 -53 97 -53 153c0 59 18 111 52 154
l-54 56zM300 156c102 0 179 85 179 190c0 106 -78 190 -179 190c-94 0 -177 -78 -177 -190c0 -108 79 -190 177 -190z" />
    <glyph glyph-name="dollar" unicode="$" horiz-adv-x="520" 
d="M460 179c0 -96 -75 -152 -164 -166v-113h-50v109c-81 1 -150 37 -188 77l-12 87h11c48 -62 115 -107 189 -110v259l-11 8c-96 66 -144 104 -144 190c0 94 77 140 155 150v99h50v-96c54 -2 94 -16 118 -33l8 -70h-10c-31 35 -73 52 -116 55v-233
c109 -71 164 -110 164 -213zM172 537c0 -43 23 -73 74 -110v194c-41 -9 -74 -35 -74 -84zM296 68c49 11 79 45 79 99s-26 82 -79 121v-220z" />
    <glyph glyph-name="Euro" unicode="&#x20ac;" horiz-adv-x="699" 
d="M627 111h8l-19 -80c-39 -24 -96 -43 -168 -43c-161 0 -306 92 -335 277h-91l8 44h78c-1 9 -1 19 -1 29c0 18 1 35 3 51h-78l8 44h78c40 171 190 259 327 259c71 0 128 -13 164 -34l8 -76h-10c-43 39 -99 54 -162 54c-112 0 -199 -77 -229 -203h295l-8 -44h-294
c-2 -17 -3 -34 -3 -52c0 -10 0 -19 1 -28h294l-8 -44h-281c24 -139 120 -219 240 -219c64 0 127 20 175 65z" />
    <glyph glyph-name="florin" unicode="&#x192;" horiz-adv-x="596" 
d="M536 681l5 -55h-10c-13 9 -32 15 -50 15c-52 0 -79 -24 -98 -113l-31 -145h96l-4 -44h-101l-74 -352c-34 -161 -93 -217 -190 -217c-23 0 -45 3 -64 11l-5 55h10c13 -9 32 -15 50 -15c52 0 79 24 98 113l85 405h-82v44h92l19 92c34 161 93 217 190 217c23 0 45 -3 64 -11
z" />
    <glyph glyph-name="uni20BA" unicode="&#x20ba;" horiz-adv-x="625" 
d="M485 319h90c-10 -190 -115 -319 -326 -319h-111v282l-94 -39v47l94 39v76l-94 -39v47l94 39v228h90v-191l219 91v-47l-219 -91v-76l219 90v-46l-219 -91v-266h6c184 0 241 105 251 266z" />
    <glyph glyph-name="uni20BC" unicode="&#x20bc;" horiz-adv-x="796" 
d="M443 555c168 -24 273 -183 273 -427c0 -51 -2 -88 -5 -128h-97c3 40 5 78 5 128c0 196 -42 345 -176 372v-420h-90v420c-134 -27 -176 -176 -176 -372c0 -50 2 -88 5 -128h-97c-3 40 -5 77 -5 128c0 244 105 403 273 427v125h90v-125z" />
    <glyph glyph-name="uni20B9" unicode="&#x20b9;" horiz-adv-x="577" 
d="M522 680l-8 -44h-211c36 -26 57 -65 61 -120h148l-8 -44h-142c-13 -77 -75 -133 -164 -150v-4c79 -97 193 -233 285 -313v-5h-127c-68 69 -170 200 -254 308h-42v44h70c79 4 132 51 144 120h-214v44h216c-6 94 -70 120 -164 120h-52v44h462z" />
    <glyph glyph-name="sterling" unicode="&#xa3;" horiz-adv-x="569" 
d="M48 24c72 50 129 135 129 234c0 28 -3 57 -12 84h-99v48h90c-10 35 -16 68 -16 104c0 99 75 198 217 198c46 0 78 -7 111 -21l11 -57h-10c-32 20 -67 29 -110 29c-92 0 -131 -66 -131 -152c0 -32 8 -68 15 -101h174v-48h-165c4 -22 7 -46 7 -69c0 -63 -33 -136 -107 -194
v-4c197 0 308 1 363 9h6l-33 -84h-440v24z" />
    <glyph glyph-name="yen" unicode="&#xa5;" 
d="M575 680l-197 -305h157v-44h-184v-77h184v-44h-184v-210h-83v210h-190v44h190v77h-190v44h161l-211 305h104l192 -291h6l179 291h66z" />
    <glyph glyph-name="uni2219" unicode="&#x2219;" horiz-adv-x="300" 
d="M205 326v-106h-110v106h110z" />
    <glyph glyph-name="uni2215" unicode="&#x2215;" horiz-adv-x="149" 
d="M249 699l40 -20l-390 -699l-39 20z" />
    <glyph glyph-name="plus" unicode="+" 
d="M328 503v-225h217v-53h-217v-225h-53v225h-217v53h217v225h53z" />
    <glyph glyph-name="minus" unicode="&#x2212;" 
d="M545 278v-53h-487v53h487z" />
    <glyph glyph-name="multiply" unicode="&#xd7;" 
d="M118 477l183 -189l183 189l36 -37l-182 -189l182 -189l-36 -37l-183 188l-183 -188l-36 37l181 189l-181 189z" />
    <glyph glyph-name="divide" unicode="&#xf7;" 
d="M356 453c0 -29 -26 -56 -54 -56c-30 0 -56 25 -56 56s25 56 55 56s55 -25 55 -56zM545 278v-53h-487v53h487zM356 50c0 -29 -27 -56 -54 -56c-31 0 -56 26 -56 56c0 32 26 56 55 56c30 0 55 -25 55 -56z" />
    <glyph glyph-name="equal" unicode="=" 
d="M545 378v-53h-487v53h487zM545 181v-53h-487v53h487z" />
    <glyph glyph-name="notequal" unicode="&#x2260;" 
d="M473 503l-69 -125h141v-53h-172l-80 -144h252v-53h-283l-86 -156l-46 25l72 131h-144v53h175l80 144h-255v53h285l84 150z" />
    <glyph glyph-name="greater" unicode="&#x3e;" 
d="M55 514l492 -234v-54l-492 -234v55l430 206l-430 206v55z" />
    <glyph glyph-name="less" unicode="&#x3c;" 
d="M547 459l-430 -206l430 -206v-55l-492 234v54l492 234v-55z" />
    <glyph glyph-name="greaterequal" unicode="&#x2265;" 
d="M58 528l487 -194v-54l-487 -194v55l427 166l-427 166v55zM545 53v-53h-487v53h487z" />
    <glyph glyph-name="lessequal" unicode="&#x2264;" 
d="M545 473l-428 -166l428 -166v-55l-488 194v54l488 194v-55zM545 53v-53h-488v53h488z" />
    <glyph glyph-name="plusminus" unicode="&#xb1;" 
d="M328 503v-180h217v-53h-217v-180h-53v180h-217v53h217v180h53zM545 53v-53h-487v53h487z" />
    <glyph glyph-name="approxequal" unicode="&#x2248;" 
d="M307 377c59 -23 94 -35 127 -35c36 0 65 28 74 75h50c-10 -74 -52 -128 -126 -128c-37 0 -76 12 -137 36c-59 23 -95 35 -126 35c-39 0 -66 -29 -75 -75h-50c11 79 56 128 126 128c34 0 71 -10 137 -36zM310 179c70 -28 100 -34 123 -34c36 0 65 25 75 75h50
c-12 -85 -60 -128 -126 -128c-32 0 -69 9 -142 38s-101 33 -122 33c-35 0 -65 -27 -74 -75h-50c10 74 52 128 126 128c33 0 69 -9 140 -37z" />
    <glyph glyph-name="asciitilde" unicode="~" 
d="M525 279c-39 -61 -74 -86 -121 -86c-26 0 -51 5 -103 31c-48 24 -77 34 -108 34c-34 0 -61 -22 -81 -69l-35 36c27 57 69 86 121 86c37 0 79 -17 120 -36c46 -21 68 -29 87 -29c30 0 54 19 85 69z" />
    <glyph glyph-name="logicalnot" unicode="&#xac;" 
d="M545 378v-267h-52v214h-436v53h488z" />
    <glyph glyph-name="asciicircum" unicode="^" 
d="M275 691h52l222 -453h-57l-192 390l-189 -390h-58z" />
    <glyph glyph-name="infinity" unicode="&#x221e;" horiz-adv-x="758" 
d="M707 255c0 -88 -53 -157 -143 -157c-53 0 -110 27 -184 109c-64 -60 -114 -108 -184 -108c-97 0 -145 74 -145 153c0 89 56 156 141 156c58 0 108 -28 188 -114c56 59 108 116 183 116c89 0 144 -69 144 -155zM567 166c49 0 76 38 76 86c0 49 -26 90 -80 90
c-42 0 -84 -34 -141 -91c66 -68 106 -85 145 -85zM195 166c40 0 88 29 142 85c-58 57 -104 90 -145 90c-49 0 -77 -43 -77 -89c0 -51 30 -86 80 -86z" />
    <glyph glyph-name="integral" unicode="&#x222b;" 
d="M420 730c0 -24 -19 -38 -42 -38c-16 0 -26 12 -35 24c-10 14 -13 19 -19 19c-20 0 -30 -30 -30 -91c0 -33 2 -67 2 -96v-542c0 -136 -31 -219 -123 -219c-36 0 -68 20 -68 52c0 20 18 36 36 36c10 0 22 -4 34 -25c9 -14 13 -17 17 -17c21 0 28 54 28 111c0 9 -1 29 -1 51
v607c0 58 12 112 34 142c20 26 47 42 88 42c42 0 79 -19 79 -56z" />
    <glyph glyph-name="uni2126" unicode="&#x2126;" horiz-adv-x="797" 
d="M736 359c0 -130 -58 -220 -168 -297v-4h176v-58h-257v60c121 84 151 163 151 299c0 151 -87 279 -238 279c-152 0 -242 -117 -242 -278c0 -131 31 -216 154 -300v-60h-259v58h172v4c-105 73 -165 163 -165 297c0 188 146 332 340 332c196 0 336 -162 336 -332z" />
    <glyph glyph-name="uni2206" unicode="&#x2206;" horiz-adv-x="685" 
d="M31 0v41l287 629l58 10l278 -647v-33h-623zM100 52h452l-221 518h-5z" />
    <glyph glyph-name="product" unicode="&#x220f;" horiz-adv-x="718" 
d="M641 786v-1000h-76v928h-412v-928h-77v1000h565z" />
    <glyph glyph-name="summation" unicode="&#x2211;" 
d="M565 786v-72h-423l291 -424l-309 -432h453v-72h-549v64l312 440l-298 432v64h523z" />
    <glyph glyph-name="radical" unicode="&#x221a;" 
d="M510 786l-205 -1000h-74l-156 334l-46 -22l-28 60l110 52l146 -317l178 893h75z" />
    <glyph glyph-name="partialdiff" unicode="&#x2202;" 
d="M222 721c184 0 244 -185 244 -360c0 -216 -64 -373 -225 -373c-122 0 -199 104 -199 225s77 214 194 214c59 0 111 -26 156 -75v44c0 109 -40 262 -167 262c-37 0 -70 -14 -110 -47l-42 50c45 41 94 60 149 60zM241 48c103 0 137 111 147 232c-46 59 -92 85 -144 85
c-81 0 -129 -71 -129 -155c0 -76 41 -162 126 -162z" />
    <glyph glyph-name="uni00B5" unicode="&#xb5;" 
d="M185 475v-303c0 -65 18 -124 88 -124c91 0 142 84 142 184v243h83v-475h-77l-5 100h-3c-28 -57 -56 -110 -139 -110c-38 0 -70 18 -83 39h-4v-179h-85v625h83z" />
    <glyph glyph-name="percent" unicode="%" horiz-adv-x="766" 
d="M556 699l40 -20l-390 -699l-39 20zM195 691c74 0 133 -66 133 -178c0 -109 -61 -173 -133 -173c-75 0 -137 64 -137 173c0 112 61 178 137 178zM195 654c-50 0 -74 -60 -74 -141c0 -80 24 -135 74 -135c47 0 71 55 71 135c0 81 -24 141 -71 141zM575 346
c74 0 133 -66 133 -178c0 -109 -61 -173 -133 -173c-75 0 -137 64 -137 173c0 112 61 178 137 178zM575 309c-50 0 -74 -60 -74 -141c0 -80 24 -135 74 -135c47 0 71 55 71 135c0 81 -24 141 -71 141z" />
    <glyph glyph-name="perthousand" unicode="&#x2030;" horiz-adv-x="1103" 
d="M556 699l40 -20l-390 -699l-39 20zM195 691c74 0 133 -66 133 -178c0 -109 -61 -173 -133 -173c-75 0 -137 64 -137 173c0 112 61 178 137 178zM195 654c-50 0 -74 -60 -74 -141c0 -80 24 -135 74 -135c47 0 71 55 71 135c0 81 -24 141 -71 141zM575 346
c74 0 133 -66 133 -178c0 -109 -61 -173 -133 -173c-75 0 -137 64 -137 173c0 112 61 178 137 178zM915 346c74 0 133 -66 133 -178c0 -109 -61 -173 -133 -173c-75 0 -137 64 -137 173c0 112 61 178 137 178zM575 309c-50 0 -74 -60 -74 -141c0 -80 24 -135 74 -135
c47 0 71 55 71 135c0 81 -24 141 -71 141zM915 309c-50 0 -74 -60 -74 -141c0 -80 24 -135 74 -135c47 0 71 55 71 135c0 81 -24 141 -71 141z" />
    <glyph glyph-name="lozenge" unicode="&#x25ca;" 
d="M333 747l167 -391l-167 -391h-71l-167 391l167 391h71zM170 356l127 -315l128 315l-128 315z" />
    <glyph glyph-name="at" unicode="@" horiz-adv-x="933" 
d="M844 355c0 -127 -71 -292 -239 -292c-57 0 -82 32 -82 75c-20 -31 -58 -75 -114 -75c-88 0 -119 70 -119 142c0 123 58 301 215 301c34 0 64 -11 87 -28h59l-58 -298c-4 -16 -5 -33 -5 -44c0 -20 9 -33 28 -33c99 0 175 112 175 250c0 170 -117 286 -288 286
c-233 0 -345 -186 -345 -391c0 -193 129 -323 332 -323c87 0 163 22 200 41v-47c-45 -21 -128 -39 -205 -39c-238 0 -402 154 -402 369c0 210 131 431 421 431c182 0 340 -120 340 -325zM571 446c-15 17 -38 21 -60 21c-96 0 -137 -150 -137 -255c0 -50 11 -107 55 -107
c45 0 92 69 96 92z" />
    <glyph glyph-name="ampersand" unicode="&#x26;" horiz-adv-x="749" 
d="M599 0c-40 34 -64 55 -99 88c-52 -66 -129 -100 -218 -100c-109 0 -223 56 -223 187c0 94 61 159 162 203c-53 54 -72 107 -72 157c0 100 79 153 167 153c97 0 162 -53 162 -136c0 -72 -58 -129 -159 -175c54 -60 128 -136 186 -189c12 26 30 111 31 168h63
c-5 -58 -29 -144 -57 -198c55 -50 124 -108 186 -153v-5h-129zM400 549c0 62 -35 99 -84 99c-53 0 -89 -37 -89 -106c0 -45 25 -91 67 -135c83 38 106 79 106 142zM245 345c-73 -38 -101 -95 -101 -165c0 -80 65 -142 145 -142c85 0 143 34 177 81c-76 73 -156 154 -221 226
z" />
    <glyph glyph-name="paragraph" unicode="&#xb6;" 
d="M514 -171h-62v810h-116v-810h-62v489c-111 0 -201 79 -201 185c0 120 78 188 215 188h226v-862z" />
    <glyph glyph-name="section" unicode="&#xa7;" 
d="M509 264c0 -65 -41 -110 -110 -138c45 -33 70 -69 70 -124c0 -104 -82 -158 -182 -158c-74 0 -137 29 -179 68l-14 86h11c49 -65 118 -100 184 -100c54 0 95 32 95 93c0 62 -45 88 -135 133s-141 82 -141 160c0 74 50 119 114 141c-41 29 -68 64 -68 123
c0 94 78 152 175 152c49 0 96 -10 121 -29l7 -67h-10c-30 34 -74 48 -118 48c-46 0 -96 -25 -96 -87c0 -60 48 -85 121 -122c118 -60 155 -101 155 -179zM362 150c45 20 67 52 67 99c0 60 -47 88 -135 134c-11 6 -22 12 -33 17c-39 -11 -77 -42 -77 -97
c0 -45 23 -73 104 -114c27 -14 52 -27 74 -39z" />
    <glyph glyph-name="copyright" unicode="&#xa9;" horiz-adv-x="797" 
d="M759 346c0 -200 -153 -361 -360 -361c-205 0 -361 159 -361 361c0 204 158 360 361 360c201 0 360 -156 360 -360zM399 36c174 0 304 138 304 310c0 174 -134 309 -305 309c-175 0 -304 -137 -304 -309c0 -168 124 -310 305 -310zM538 471c-25 22 -66 31 -103 31
c-80 0 -145 -57 -145 -156c0 -98 70 -151 148 -151c46 0 83 13 109 36h9l-12 -56c-25 -17 -71 -30 -114 -30c-122 0 -225 67 -225 201c0 136 110 204 220 204c39 0 86 -9 115 -25l7 -54h-9z" />
    <glyph glyph-name="registered" unicode="&#xae;" horiz-adv-x="527" 
d="M477 464c0 -119 -91 -214 -213 -214s-214 93 -214 214s93 213 214 213c119 0 213 -92 213 -213zM264 280c103 0 180 82 180 184c0 103 -78 183 -181 183c-104 0 -180 -81 -180 -183s75 -184 181 -184zM258 587c52 0 94 -14 94 -61c0 -37 -15 -58 -57 -69l86 -117h-52
l-76 110h-20v-110h-41v247h66zM247 476c22 0 61 0 61 43c0 28 -20 43 -47 43h-28v-86h14z" />
    <glyph glyph-name="uni2117" unicode="&#x2117;" horiz-adv-x="797" 
d="M759 346c0 -200 -153 -361 -360 -361c-205 0 -361 159 -361 361c0 204 158 360 361 360c201 0 360 -156 360 -360zM399 36c174 0 304 138 304 310c0 174 -134 309 -305 309c-175 0 -304 -137 -304 -309c0 -168 124 -310 305 -310zM420 542c93 0 144 -38 144 -115
c0 -74 -59 -117 -148 -117h-55v-157h-74v389h133zM402 350c62 0 88 24 88 77c0 52 -26 75 -88 75h-41v-152h41z" />
    <glyph glyph-name="trademark" unicode="&#x2122;" horiz-adv-x="643" 
d="M32 646v34h191v-34h-70v-238h-54v238h-67zM428 501h3l78 179h60l30 -272h-54l-21 206h-4l-86 -189h-28l-87 189h-4l-17 -206h-45l30 272h60z" />
    <glyph glyph-name="degree" unicode="&#xb0;" horiz-adv-x="416" 
d="M352 562c0 -78 -62 -144 -144 -144c-78 0 -144 60 -144 144c0 82 66 144 144 144c80 0 144 -66 144 -144zM208 457c60 0 105 48 105 105s-45 105 -106 105c-57 0 -104 -46 -104 -105s46 -105 105 -105z" />
    <glyph glyph-name="bar" unicode="|" horiz-adv-x="235" 
d="M144 -214h-52v1000h52v-1000z" />
    <glyph glyph-name="brokenbar" unicode="&#xa6;" horiz-adv-x="235" 
d="M92 661h52v-250h-52v250zM92 161h52v-250h-52v250z" />
    <glyph glyph-name="uni2113" unicode="&#x2113;" horiz-adv-x="500" 
d="M403 598c0 -95 -58 -195 -168 -313v-161c0 -62 24 -92 69 -92c29 0 65 14 91 40l11 -34c-34 -33 -79 -52 -123 -52c-92 0 -132 45 -132 123v106l-58 -62l-24 43l82 83v274c0 107 59 168 139 168c61 0 113 -44 113 -123zM235 347c81 94 115 169 115 246
c0 54 -17 85 -51 85c-47 0 -64 -47 -64 -117v-214z" />
    <glyph glyph-name="dagger" unicode="&#x2020;" horiz-adv-x="560" 
d="M311 691v-213h193v-53h-193v-572h-63v572h-192v53h192v213h63z" />
    <glyph glyph-name="daggerdbl" unicode="&#x2021;" horiz-adv-x="560" 
d="M311 691v-192h193v-53h-193v-348h193v-53h-193v-192h-63v192h-192v53h192v348h-192v53h192v192h63z" />
    <glyph glyph-name="estimated" unicode="&#x212e;" horiz-adv-x="904" 
d="M452 -9c-255 0 -402 165 -402 353c0 191 150 370 402 370c308 0 402 -200 402 -372h-652c-4 0 -5 0 -5 -6v-184c0 -11 1 -23 7 -30c54 -66 140 -105 247 -105c114 0 191 50 261 113h70c-78 -94 -164 -139 -330 -139zM202 363h498c4 0 7 2 7 7v189c0 8 -7 19 -12 26
c-68 84 -177 105 -247 105c-80 0 -170 -31 -242 -103c-6 -7 -9 -19 -9 -28v-189c0 -5 1 -7 5 -7z" />
    <glyph glyph-name="uni02C9" unicode="&#x2c9;" horiz-adv-x="200" 
d="M256 668v-47h-311v47h311z" />
    <glyph glyph-name="uni0308" unicode="&#x308;" horiz-adv-x="0" 
d="M-142 689v-87h-81v87h81zM23 689v-87h-81v87h81z" />
    <glyph glyph-name="uni0307" unicode="&#x307;" horiz-adv-x="0" 
d="M-55 691v-93h-89v93h89z" />
    <glyph glyph-name="gravecomb" unicode="&#x300;" horiz-adv-x="0" 
d="M-143 712l102 -141h-51l-138 141h87z" />
    <glyph glyph-name="acutecomb" unicode="&#x301;" horiz-adv-x="0" 
d="M32 712l-139 -141h-51l102 141h88z" />
    <glyph glyph-name="uni030B" unicode="&#x30b;" horiz-adv-x="0" 
d="M-41 712l-131 -141h-50l97 141h84zM112 712l-131 -141h-50l97 141h84z" />
    <glyph glyph-name="caroncomb.alt" horiz-adv-x="0" 
d="M-46 718c-11 -75 -39 -146 -59 -183h-39c12 44 24 118 24 183h74z" />
    <glyph glyph-name="uni0302" unicode="&#x302;" horiz-adv-x="0" 
d="M-62 712l110 -141h-51l-96 92l-94 -92h-48l110 141h69z" />
    <glyph glyph-name="uni030C" unicode="&#x30c;" horiz-adv-x="0" 
d="M-134 571l-110 141h51l96 -92l94 92h48l-110 -141h-69z" />
    <glyph glyph-name="uni0306" unicode="&#x306;" horiz-adv-x="0" 
d="M-198 704c6 -51 47 -78 98 -78c53 0 93 28 101 78h39c-8 -78 -59 -128 -140 -128c-84 0 -135 51 -139 128h41z" />
    <glyph glyph-name="uni030A" unicode="&#x30a;" horiz-adv-x="0" 
d="M-100 544c-62 0 -107 48 -107 104c0 58 47 104 107 104c59 0 107 -45 107 -104c0 -58 -47 -104 -107 -104zM-100 577c41 0 68 32 68 71c0 36 -24 71 -69 71c-38 0 -67 -30 -67 -71c0 -38 26 -71 68 -71z" />
    <glyph glyph-name="tildecomb" unicode="&#x303;" horiz-adv-x="0" 
d="M-91 673c18 -10 42 -24 61 -24c25 0 41 10 50 45h34c-11 -60 -40 -99 -85 -99c-25 0 -49 7 -72 21c-18 11 -43 25 -65 25c-24 0 -42 -11 -50 -47h-36c5 52 37 101 87 101c22 0 45 -5 76 -22z" />
    <glyph glyph-name="uni0304" unicode="&#x304;" horiz-adv-x="0" 
d="M56 668v-47h-311v47h311z" />
    <glyph glyph-name="uni0312" unicode="&#x312;" horiz-adv-x="0" 
d="M-144 589c6 40 32 102 53 141h43c-14 -56 -19 -102 -21 -141h-75z" />
    <glyph glyph-name="uni0313" unicode="&#x313;" horiz-adv-x="0" 
d="M-46 718c-11 -75 -39 -146 -59 -183h-39c12 44 24 118 24 183h74z" />
    <glyph glyph-name="uni0326" unicode="&#x326;" horiz-adv-x="0" 
d="M-49 -70c-6 -40 -32 -106 -53 -145h-43c14 56 19 106 21 145h75z" />
    <glyph glyph-name="uni0327" unicode="&#x327;" horiz-adv-x="0" 
d="M-160 -217l-15 31l4 3c69 0 102 20 102 51s-30 43 -69 50l-1 6l40 76h35l-22 -47l11 -3c30 -8 70 -28 70 -73c0 -71 -79 -94 -155 -94z" />
    <glyph glyph-name="uni0328" unicode="&#x328;" horiz-adv-x="0" 
d="M-7 0c-70 -45 -101 -78 -101 -107c0 -23 14 -36 43 -36c18 0 39 5 55 12h7l-14 -35c-20 -11 -46 -18 -72 -18c-43 0 -85 17 -85 68c0 36 32 77 114 116h53z" />
    <glyph glyph-name="acute" unicode="&#xb4;" horiz-adv-x="200" 
d="M232 712l-139 -141h-51l102 141h88z" />
    <glyph glyph-name="breve" unicode="&#x2d8;" horiz-adv-x="200" 
d="M2 704c6 -51 47 -78 98 -78c53 0 93 28 101 78h39c-8 -78 -59 -128 -140 -128c-84 0 -135 51 -139 128h41z" />
    <glyph glyph-name="caron" unicode="&#x2c7;" horiz-adv-x="200" 
d="M66 571l-110 141h51l96 -92l94 92h48l-110 -141h-69z" />
    <glyph glyph-name="cedilla" unicode="&#xb8;" horiz-adv-x="200" 
d="M40 -217l-15 31l4 3c69 0 102 20 102 51s-30 43 -69 50l-1 6l40 76h35l-22 -47l11 -3c30 -8 70 -28 70 -73c0 -71 -79 -94 -155 -94z" />
    <glyph glyph-name="circumflex" unicode="&#x2c6;" horiz-adv-x="200" 
d="M138 712l110 -141h-51l-96 92l-94 -92h-48l110 141h69z" />
    <glyph glyph-name="dieresis" unicode="&#xa8;" horiz-adv-x="200" 
d="M58 689v-87h-81v87h81zM223 689v-87h-81v87h81z" />
    <glyph glyph-name="dotaccent" unicode="&#x2d9;" horiz-adv-x="200" 
d="M145 691v-93h-89v93h89z" />
    <glyph glyph-name="grave" unicode="`" horiz-adv-x="200" 
d="M57 712l102 -141h-51l-138 141h87z" />
    <glyph glyph-name="hungarumlaut" unicode="&#x2dd;" horiz-adv-x="200" 
d="M159 712l-131 -141h-50l97 141h84zM312 712l-131 -141h-50l97 141h84z" />
    <glyph glyph-name="macron" unicode="&#xaf;" horiz-adv-x="200" 
d="M256 668v-47h-311v47h311z" />
    <glyph glyph-name="ogonek" unicode="&#x2db;" horiz-adv-x="200" 
d="M193 0c-70 -45 -101 -78 -101 -107c0 -23 14 -36 43 -36c18 0 39 5 55 12h7l-14 -35c-20 -11 -46 -18 -72 -18c-43 0 -85 17 -85 68c0 36 32 77 114 116h53z" />
    <glyph glyph-name="ring" unicode="&#x2da;" horiz-adv-x="200" 
d="M100 544c-62 0 -107 48 -107 104c0 58 47 104 107 104c59 0 107 -45 107 -104c0 -58 -47 -104 -107 -104zM100 577c41 0 68 32 68 71c0 36 -24 71 -69 71c-38 0 -67 -30 -67 -71c0 -38 26 -71 68 -71z" />
    <glyph glyph-name="tilde" unicode="&#x2dc;" horiz-adv-x="200" 
d="M109 673c18 -10 42 -24 61 -24c25 0 41 10 50 45h34c-11 -60 -40 -99 -85 -99c-25 0 -49 7 -72 21c-18 11 -43 25 -65 25c-24 0 -42 -11 -50 -47h-36c5 52 37 101 87 101c22 0 45 -5 76 -22z" />
    <glyph glyph-name="uni0308.case" horiz-adv-x="0" 
d="M-142 869v-87h-81v87h81zM23 869v-87h-81v87h81z" />
    <glyph glyph-name="uni0307.case" horiz-adv-x="0" 
d="M-55 871v-93h-89v93h89z" />
    <glyph glyph-name="gravecomb.case" horiz-adv-x="0" 
d="M-240 885h93l107 -129h-51z" />
    <glyph glyph-name="acutecomb.case" horiz-adv-x="0" 
d="M41 885l-149 -129h-51l107 129h93z" />
    <glyph glyph-name="uni030B.case" horiz-adv-x="0" 
d="M-36 885l-137 -129h-50l100 129h87zM117 885l-137 -129h-50l100 129h87z" />
    <glyph glyph-name="uni0302.case" horiz-adv-x="0" 
d="M-66 885l110 -129h-51l-95 81l-93 -81h-50l110 129h69z" />
    <glyph glyph-name="uni030C.case" horiz-adv-x="0" 
d="M-134 756l-110 129h52l95 -81l93 81h49l-110 -129h-69z" />
    <glyph glyph-name="uni0306.case" horiz-adv-x="0" 
d="M-198 882c6 -49 47 -76 98 -76c53 0 93 28 101 76h39c-8 -76 -59 -126 -140 -126c-84 0 -135 51 -139 126h41z" />
    <glyph glyph-name="uni030A.case" horiz-adv-x="0" 
d="M-100 724c-62 0 -107 48 -107 104c0 58 47 104 107 104c59 0 107 -45 107 -104c0 -58 -47 -104 -107 -104zM-100 757c41 0 68 32 68 71c0 36 -24 71 -69 71c-38 0 -67 -30 -67 -71c0 -38 26 -71 68 -71z" />
    <glyph glyph-name="tildecomb.case" horiz-adv-x="0" 
d="M-91 853c18 -10 42 -24 61 -24c25 0 41 10 50 45h34c-11 -60 -40 -99 -85 -99c-25 0 -49 7 -72 21c-18 11 -43 25 -65 25c-24 0 -42 -11 -50 -47h-36c5 52 37 101 87 101c22 0 45 -5 76 -22z" />
    <glyph glyph-name="uni0304.case" horiz-adv-x="0" 
d="M56 848v-47h-311v47h311z" />
    </font>
</defs>
</svg>
