<?xml version="1.0" standalone="no"?>
<!DOCTYPE svg PUBLIC "-//W3C//DTD SVG 1.1//EN" "http://www.w3.org/Graphics/SVG/1.1/DTD/svg11.dtd" >
<svg xmlns="http://www.w3.org/2000/svg" xmlns:xlink="http://www.w3.org/1999/xlink" version="1.1">
<metadata>
Created by FontForge 20190801 at Thu Apr 18 20:41:59 2019
 By Jimmy Wärting
Copyright \(c\) 2015 Now by Alfredo Marco Pradil. All rights reserved.
</metadata>
<defs>
<font id="Now-Regular" horiz-adv-x="0" >
  <font-face 
    font-family="Now"
    font-weight="400"
    font-stretch="normal"
    units-per-em="2048"
    panose-1="0 0 5 0 0 0 0 0 0 0"
    ascent="1638"
    descent="-410"
    x-height="813"
    cap-height="1219"
    bbox="-1310 -553 1773 1901"
    underline-thickness="50"
    underline-position="-100"
    stemh="122"
    stemv="133"
    unicode-range="U+0020-FB02"
  />
<missing-glyph horiz-adv-x="1080" 
d="M207 0v1219h666v-1219h-666zM311 104h458v1011h-458v-1011z" />
    <glyph glyph-name="fi" unicode="fi" horiz-adv-x="967" 
d="M314 1260v-447h217v-130h-217v-683h-133v683h-136v130h136v465c0 130 109 234 237 234c43 0 88 -12 109 -26v-104h-92c-64 0 -121 -48 -121 -122zM753 1055c-49 0 -91 41 -91 89c0 52 42 91 91 91s91 -39 91 -91c0 -48 -42 -89 -91 -89zM686 0v813h133v-813h-133z" />
    <glyph glyph-name="fl" unicode="fl" horiz-adv-x="967" 
d="M314 1260v-447h217v-130h-217v-683h-133v683h-136v130h136v465c0 130 109 234 237 234c43 0 88 -12 109 -26v-104h-92c-64 0 -121 -48 -121 -122zM686 1495h133v-1495h-133v1495z" />
    <glyph glyph-name=".notdef" horiz-adv-x="1080" 
d="M207 0v1219h666v-1219h-666zM311 104h458v1011h-458v-1011z" />
    <glyph glyph-name="space" unicode=" " horiz-adv-x="488" 
 />
    <glyph glyph-name="A" unicode="A" horiz-adv-x="1100" 
d="M918 0l-98 281h-539l-98 -281h-150l441 1219h153l440 -1219h-149zM327 414h447l-223 644z" />
    <glyph glyph-name="Aacute" unicode="&#xc1;" horiz-adv-x="1100" 
d="M840 1625l-245 -301h-89l178 301h156zM918 0l-98 281h-539l-98 -281h-150l441 1219h153l440 -1219h-149zM327 414h447l-223 644z" />
    <glyph glyph-name="Abreve" unicode="&#x102;" horiz-adv-x="1100" 
d="M550 1375c-155 0 -268 96 -268 250h82c0 -91 78 -166 186 -166c109 0 187 75 187 166h83c0 -154 -114 -250 -270 -250zM918 0l-98 281h-539l-98 -281h-150l441 1219h153l440 -1219h-149zM327 414h447l-223 644z" />
    <glyph glyph-name="Acircumflex" unicode="&#xc2;" horiz-adv-x="1100" 
d="M552 1537l-127 -213h-103l160 301h136l161 -301h-102zM918 0l-98 281h-539l-98 -281h-150l441 1219h153l440 -1219h-149zM327 414h447l-223 644z" />
    <glyph glyph-name="Adieresis" unicode="&#xc4;" horiz-adv-x="1100" 
d="M399 1461c-49 0 -91 41 -91 89c0 52 42 91 91 91s91 -39 91 -91c0 -48 -42 -89 -91 -89zM702 1461c-49 0 -91 41 -91 89c0 52 42 91 91 91s91 -39 91 -91c0 -48 -42 -89 -91 -89zM918 0l-98 281h-539l-98 -281h-150l441 1219h153l440 -1219h-149zM327 414h447l-223 644z
" />
    <glyph glyph-name="Agrave" unicode="&#xc0;" horiz-adv-x="1100" 
d="M595 1324h-89l-245 301h156zM918 0l-98 281h-539l-98 -281h-150l441 1219h153l440 -1219h-149zM327 414h447l-223 644z" />
    <glyph glyph-name="Amacron" unicode="&#x100;" horiz-adv-x="1100" 
d="M770 1476v-92h-439v92h439zM918 0l-98 281h-539l-98 -281h-150l441 1219h153l440 -1219h-149zM327 414h447l-223 644z" />
    <glyph glyph-name="Aogonek" unicode="&#x104;" horiz-adv-x="1100" 
d="M1119 -273l45 -65c-60 -60 -136 -86 -219 -83c-109 5 -182 65 -182 169c0 107 82 182 195 252h-40l-98 281h-539l-98 -281h-150l441 1219h153l440 -1219c-112 -62 -210 -128 -210 -241c0 -61 38 -107 108 -107c61 0 118 28 154 75zM327 414h447l-223 644z" />
    <glyph glyph-name="Aring" unicode="&#xc5;" horiz-adv-x="1100" 
d="M552 1295c-94 0 -172 78 -172 171c0 94 78 170 172 170c92 0 169 -76 169 -170c0 -93 -77 -171 -169 -171zM552 1567c-55 0 -98 -48 -98 -101c0 -57 43 -99 98 -99c53 0 97 42 97 99c0 53 -44 101 -97 101zM918 0l-98 281h-539l-98 -281h-150l441 1219h153l440 -1219
h-149zM327 414h447l-223 644z" />
    <glyph glyph-name="Atilde" unicode="&#xc3;" horiz-adv-x="1100" 
d="M445 1534c-52 0 -78 -57 -78 -127h-99c0 127 65 225 174 225c115 0 151 -134 217 -134c49 0 77 43 77 127h97c0 -125 -60 -224 -174 -224c-122 0 -151 133 -214 133zM918 0l-98 281h-539l-98 -281h-150l441 1219h153l440 -1219h-149zM327 414h447l-223 644z" />
    <glyph glyph-name="AE" unicode="&#xc6;" horiz-adv-x="1448" 
d="M1357 1081h-533v-402h465v-138h-465v-403h533v-138h-668v289h-391l-113 -289h-156l490 1219h838v-138zM350 421h339v679h-73z" />
    <glyph glyph-name="B" unicode="B" horiz-adv-x="1120" 
d="M794 617c126 -43 215 -147 215 -295c0 -190 -150 -322 -335 -322h-489v1219h447c186 0 338 -133 338 -325c0 -131 -70 -227 -176 -277zM831 883c0 117 -95 198 -214 198h-296v-405h296c119 0 214 88 214 207zM656 138c119 0 214 83 214 200s-95 205 -214 205h-335v-405
h335z" />
    <glyph glyph-name="C" unicode="C" horiz-adv-x="1323" 
d="M717 -16c-346 0 -626 279 -626 626c0 346 280 625 626 625c234 0 437 -128 545 -318l-119 -67c-83 148 -242 247 -426 247c-270 0 -488 -216 -488 -487c0 -272 218 -488 488 -488c184 0 343 99 426 247l119 -67c-108 -190 -311 -318 -545 -318z" />
    <glyph glyph-name="Cacute" unicode="&#x106;" horiz-adv-x="1323" 
d="M617 1324l178 301h156l-245 -301h-89zM717 -16c-346 0 -626 279 -626 626c0 346 280 625 626 625c234 0 437 -128 545 -318l-119 -67c-83 148 -242 247 -426 247c-270 0 -488 -216 -488 -487c0 -272 218 -488 488 -488c184 0 343 99 426 247l119 -67
c-108 -190 -311 -318 -545 -318z" />
    <glyph glyph-name="Ccaron" unicode="&#x10c;" horiz-adv-x="1323" 
d="M592 1324l-159 301h102l127 -213l125 213h103l-161 -301h-137zM717 -16c-346 0 -626 279 -626 626c0 346 280 625 626 625c234 0 437 -128 545 -318l-119 -67c-83 148 -242 247 -426 247c-270 0 -488 -216 -488 -487c0 -272 218 -488 488 -488c184 0 343 99 426 247
l119 -67c-108 -190 -311 -318 -545 -318z" />
    <glyph glyph-name="Ccedilla" unicode="&#xc7;" horiz-adv-x="1323" 
d="M717 122c184 0 343 99 426 247l119 -67c-108 -190 -311 -318 -545 -318c-11 0 -22 0 -32 1l-45 -92c111 22 200 -44 200 -147c0 -94 -73 -169 -167 -169c-75 0 -158 48 -189 108l73 29c23 -33 75 -57 116 -57c48 0 87 39 87 89c0 74 -69 104 -157 70l-64 41l70 136
c-294 51 -518 307 -518 617c0 346 280 625 626 625c234 0 437 -128 545 -318l-119 -67c-83 148 -242 247 -426 247c-270 0 -488 -216 -488 -487c0 -272 218 -488 488 -488z" />
    <glyph glyph-name="Cdotaccent" unicode="&#x10a;" horiz-adv-x="1323" 
d="M662 1461c-49 0 -91 41 -91 89c0 52 42 91 91 91s91 -39 91 -91c0 -48 -42 -89 -91 -89zM717 -16c-346 0 -626 279 -626 626c0 346 280 625 626 625c234 0 437 -128 545 -318l-119 -67c-83 148 -242 247 -426 247c-270 0 -488 -216 -488 -487c0 -272 218 -488 488 -488
c184 0 343 99 426 247l119 -67c-108 -190 -311 -318 -545 -318z" />
    <glyph glyph-name="D" unicode="D" horiz-adv-x="1227" 
d="M185 0v1219h320c417 0 626 -273 626 -609c0 -337 -209 -610 -626 -610h-320zM321 138h182c346 0 489 200 489 472c0 271 -143 471 -489 471h-182v-943z" />
    <glyph glyph-name="Eth" unicode="&#xd0;" horiz-adv-x="1227" 
d="M505 1219c417 0 626 -273 626 -609c0 -337 -209 -610 -626 -610h-320v546h-82v128h82v545h320zM503 138c346 0 489 200 489 472c0 271 -143 471 -489 471h-182v-407h260v-128h-260v-408h182z" />
    <glyph glyph-name="Dcaron" unicode="&#x10e;" horiz-adv-x="1227" 
d="M541 1324l-159 301h102l127 -213l125 213h103l-161 -301h-137zM185 0v1219h320c417 0 626 -273 626 -609c0 -337 -209 -610 -626 -610h-320zM321 138h182c346 0 489 200 489 472c0 271 -143 471 -489 471h-182v-943z" />
    <glyph glyph-name="Dcroat" unicode="&#x110;" horiz-adv-x="1227" 
d="M505 1219c417 0 626 -273 626 -609c0 -337 -209 -610 -626 -610h-320v546h-82v128h82v545h320zM503 138c346 0 489 200 489 472c0 271 -143 471 -489 471h-182v-407h260v-128h-260v-408h182z" />
    <glyph glyph-name="E" unicode="E" horiz-adv-x="943" 
d="M854 1086h-531v-410h463v-133h-463v-410h531v-133h-669v1219h669v-133z" />
    <glyph glyph-name="Eacute" unicode="&#xc9;" horiz-adv-x="943" 
d="M761 1625l-245 -301h-89l178 301h156zM854 1086h-531v-410h463v-133h-463v-410h531v-133h-669v1219h669v-133z" />
    <glyph glyph-name="Ecaron" unicode="&#x11a;" horiz-adv-x="943" 
d="M539 1324h-137l-159 301h102l127 -213l125 213h103zM854 1086h-531v-410h463v-133h-463v-410h531v-133h-669v1219h669v-133z" />
    <glyph glyph-name="Ecircumflex" unicode="&#xca;" horiz-adv-x="943" 
d="M473 1537l-127 -213h-103l160 301h136l161 -301h-102zM854 1086h-531v-410h463v-133h-463v-410h531v-133h-669v1219h669v-133z" />
    <glyph glyph-name="Edieresis" unicode="&#xcb;" horiz-adv-x="943" 
d="M320 1461c-49 0 -91 41 -91 89c0 52 42 91 91 91s91 -39 91 -91c0 -48 -42 -89 -91 -89zM623 1461c-49 0 -91 41 -91 89c0 52 42 91 91 91s91 -39 91 -91c0 -48 -42 -89 -91 -89zM854 1086h-531v-410h463v-133h-463v-410h531v-133h-669v1219h669v-133z" />
    <glyph glyph-name="Edotaccent" unicode="&#x116;" horiz-adv-x="943" 
d="M472 1461c-49 0 -91 41 -91 89c0 52 42 91 91 91s91 -39 91 -91c0 -48 -42 -89 -91 -89zM854 1086h-531v-410h463v-133h-463v-410h531v-133h-669v1219h669v-133z" />
    <glyph glyph-name="Egrave" unicode="&#xc8;" horiz-adv-x="943" 
d="M516 1324h-89l-245 301h156zM854 1086h-531v-410h463v-133h-463v-410h531v-133h-669v1219h669v-133z" />
    <glyph glyph-name="Emacron" unicode="&#x112;" horiz-adv-x="943" 
d="M691 1476v-92h-439v92h439zM854 1086h-531v-410h463v-133h-463v-410h531v-133h-669v1219h669v-133z" />
    <glyph glyph-name="Eogonek" unicode="&#x118;" horiz-adv-x="943" 
d="M906 -273l45 -65c-60 -60 -136 -86 -219 -83c-109 5 -182 65 -182 169c0 107 82 182 195 252h-560v1219h669v-133h-531v-410h463v-133h-463v-410h531v-133c-112 -62 -210 -128 -210 -241c0 -61 38 -107 108 -107c61 0 118 28 154 75z" />
    <glyph glyph-name="F" unicode="F" horiz-adv-x="907" 
d="M854 1086h-531v-410h463v-133h-463v-543h-138v1219h669v-133z" />
    <glyph glyph-name="G" unicode="G" horiz-adv-x="1418" 
d="M715 649h628v-39c0 -347 -280 -626 -626 -626s-626 279 -626 626c0 346 280 625 626 625c234 0 437 -128 545 -318l-119 -67c-83 148 -242 247 -426 247c-270 0 -488 -216 -488 -487c0 -272 218 -488 488 -488c240 0 438 169 480 397h-482v130z" />
    <glyph glyph-name="Gbreve" unicode="&#x11e;" horiz-adv-x="1418" 
d="M708 1375c-155 0 -268 96 -268 250h82c0 -91 78 -166 186 -166c109 0 187 75 187 166h83c0 -154 -114 -250 -270 -250zM715 649h628v-39c0 -347 -280 -626 -626 -626s-626 279 -626 626c0 346 280 625 626 625c234 0 437 -128 545 -318l-119 -67
c-83 148 -242 247 -426 247c-270 0 -488 -216 -488 -487c0 -272 218 -488 488 -488c240 0 438 169 480 397h-482v130z" />
    <glyph glyph-name="uni0122" unicode="&#x122;" horiz-adv-x="1418" 
d="M715 649h628v-39c0 -347 -280 -626 -626 -626s-626 279 -626 626c0 346 280 625 626 625c234 0 437 -128 545 -318l-119 -67c-83 148 -242 247 -426 247c-270 0 -488 -216 -488 -487c0 -272 218 -488 488 -488c240 0 438 169 480 397h-482v130zM503 -386l122 286h167
l-195 -286h-94z" />
    <glyph glyph-name="Gdotaccent" unicode="&#x120;" horiz-adv-x="1418" 
d="M709 1461c-49 0 -91 41 -91 89c0 52 42 91 91 91s91 -39 91 -91c0 -48 -42 -89 -91 -89zM715 649h628v-39c0 -347 -280 -626 -626 -626s-626 279 -626 626c0 346 280 625 626 625c234 0 437 -128 545 -318l-119 -67c-83 148 -242 247 -426 247
c-270 0 -488 -216 -488 -487c0 -272 218 -488 488 -488c240 0 438 169 480 397h-482v130z" />
    <glyph glyph-name="H" unicode="H" horiz-adv-x="1307" 
d="M984 1219h138v-1219h-138v541h-661v-541h-138v1219h138v-540h661v540z" />
    <glyph glyph-name="Hbar" unicode="&#x126;" horiz-adv-x="1307" 
d="M1235 1020v-95h-113v-925h-138v541h-661v-541h-138v925h-112v95h112v199h138v-199h661v199h138v-199h113zM984 679v246h-661v-246h661z" />
    <glyph glyph-name="I" unicode="I" horiz-adv-x="508" 
d="M185 0v1219h138v-1219h-138z" />
    <glyph glyph-name="Iacute" unicode="&#xcd;" horiz-adv-x="508" 
d="M209 1324l178 301h156l-245 -301h-89zM185 0v1219h138v-1219h-138z" />
    <glyph glyph-name="Icircumflex" unicode="&#xce;" horiz-adv-x="508" 
d="M25 1324l160 301h136l161 -301h-102l-125 213l-127 -213h-103zM185 0v1219h138v-1219h-138z" />
    <glyph glyph-name="Idieresis" unicode="&#xcf;" horiz-adv-x="508" 
d="M102 1461c-49 0 -91 41 -91 89c0 52 42 91 91 91s91 -39 91 -91c0 -48 -42 -89 -91 -89zM405 1461c-49 0 -91 41 -91 89c0 52 42 91 91 91s91 -39 91 -91c0 -48 -42 -89 -91 -89zM185 0v1219h138v-1219h-138z" />
    <glyph glyph-name="Idotaccent" unicode="&#x130;" horiz-adv-x="508" 
d="M254 1461c-49 0 -91 41 -91 89c0 52 42 91 91 91s91 -39 91 -91c0 -48 -42 -89 -91 -89zM185 0v1219h138v-1219h-138z" />
    <glyph glyph-name="Igrave" unicode="&#xcc;" horiz-adv-x="508" 
d="M209 1324l-245 301h156l178 -301h-89zM185 0v1219h138v-1219h-138z" />
    <glyph glyph-name="Imacron" unicode="&#x12a;" horiz-adv-x="508" 
d="M34 1384v92h439v-92h-439zM185 0v1219h138v-1219h-138z" />
    <glyph glyph-name="Iogonek" unicode="&#x12e;" horiz-adv-x="508" 
d="M375 -273l45 -65c-60 -60 -136 -86 -219 -83c-109 5 -182 65 -182 169c0 107 82 182 195 252h-29v1219h138v-1219c-112 -62 -210 -128 -210 -241c0 -61 38 -107 108 -107c61 0 118 28 154 75z" />
    <glyph glyph-name="J" unicode="J" horiz-adv-x="851" 
d="M677 1219v-925c0 -192 -123 -310 -310 -310c-174 0 -291 101 -309 268l140 31c9 -99 78 -161 169 -161c100 0 172 71 172 187v772h-423v138h561z" />
    <glyph glyph-name="K" unicode="K" horiz-adv-x="1128" 
d="M914 0l-503 593h-88v-593h-138v1219h138v-496h84l486 496h192l-556 -562l579 -657h-194z" />
    <glyph glyph-name="uni0136" unicode="&#x136;" horiz-adv-x="1128" 
d="M529 657l579 -657h-194l-503 593h-88v-593h-138v1219h138v-496h84l486 496h192zM358 -386l122 286h167l-195 -286h-94z" />
    <glyph glyph-name="L" unicode="L" horiz-adv-x="800" 
d="M323 138h450v-138h-588v1219h138v-1081z" />
    <glyph glyph-name="Lacute" unicode="&#x139;" horiz-adv-x="800" 
d="M543 1625l-245 -301h-89l178 301h156zM323 138h450v-138h-588v1219h138v-1081z" />
    <glyph glyph-name="Lcaron" unicode="&#x13d;" horiz-adv-x="800" 
d="M482 1625l-161 -301h-137l-159 301h102l127 -213l125 213h103zM323 138h450v-138h-588v1219h138v-1081z" />
    <glyph glyph-name="uni013B" unicode="&#x13b;" horiz-adv-x="800" 
d="M323 138h450v-138h-588v1219h138v-1081zM273 -386l122 286h167l-195 -286h-94z" />
    <glyph glyph-name="Lslash" unicode="&#x141;" horiz-adv-x="800" 
d="M323 138h450v-138h-588v418l-72 -76v141l72 76v660h138v-514l163 173v-142l-163 -172v-426z" />
    <glyph glyph-name="M" unicode="M" horiz-adv-x="1589" 
d="M1259 1219h145v-1219h-137v946l-418 -946h-113l-413 942v-942h-138v1219h146l462 -1056z" />
    <glyph glyph-name="N" unicode="N" horiz-adv-x="1381" 
d="M1059 1219h137v-1219h-130l-743 990v-990h-138v1219h130l744 -989v989z" />
    <glyph glyph-name="Nacute" unicode="&#x143;" horiz-adv-x="1381" 
d="M979 1625l-245 -301h-89l178 301h156zM1059 1219h137v-1219h-130l-743 990v-990h-138v1219h130l744 -989v989z" />
    <glyph glyph-name="Ncaron" unicode="&#x147;" horiz-adv-x="1381" 
d="M757 1324h-137l-159 301h102l127 -213l125 213h103zM1059 1219h137v-1219h-130l-743 990v-990h-138v1219h130l744 -989v989z" />
    <glyph glyph-name="uni0145" unicode="&#x145;" horiz-adv-x="1381" 
d="M1059 1219h137v-1219h-130l-743 990v-990h-138v1219h130l744 -989v989zM484 -386l122 286h167l-195 -286h-94z" />
    <glyph glyph-name="Eng" unicode="&#x14a;" horiz-adv-x="1381" 
d="M1059 1219h137v-1396c0 -176 -72 -233 -235 -231v122c57 -2 105 15 105 120v166l-743 990v-990h-138v1219h130l744 -989v989z" />
    <glyph glyph-name="Ntilde" unicode="&#xd1;" horiz-adv-x="1381" 
d="M584 1534c-52 0 -78 -57 -78 -127h-99c0 127 65 225 174 225c115 0 151 -134 217 -134c49 0 77 43 77 127h97c0 -125 -60 -224 -174 -224c-122 0 -151 133 -214 133zM1059 1219h137v-1219h-130l-743 990v-990h-138v1219h130l744 -989v989z" />
    <glyph glyph-name="O" unicode="O" horiz-adv-x="1434" 
d="M717 -16c-346 0 -626 279 -626 626c0 346 280 625 626 625s626 -279 626 -625c0 -347 -280 -626 -626 -626zM717 122c271 0 488 216 488 488c0 271 -217 487 -488 487c-270 0 -488 -216 -488 -487c0 -272 218 -488 488 -488z" />
    <glyph glyph-name="Oacute" unicode="&#xd3;" horiz-adv-x="1434" 
d="M672 1324l178 301h156l-245 -301h-89zM717 -16c-346 0 -626 279 -626 626c0 346 280 625 626 625s626 -279 626 -625c0 -347 -280 -626 -626 -626zM717 122c271 0 488 216 488 488c0 271 -217 487 -488 487c-270 0 -488 -216 -488 -487c0 -272 218 -488 488 -488z" />
    <glyph glyph-name="Ocircumflex" unicode="&#xd4;" horiz-adv-x="1434" 
d="M488 1324l160 301h136l161 -301h-102l-125 213l-127 -213h-103zM717 -16c-346 0 -626 279 -626 626c0 346 280 625 626 625s626 -279 626 -625c0 -347 -280 -626 -626 -626zM717 122c271 0 488 216 488 488c0 271 -217 487 -488 487c-270 0 -488 -216 -488 -487
c0 -272 218 -488 488 -488z" />
    <glyph glyph-name="Odieresis" unicode="&#xd6;" horiz-adv-x="1434" 
d="M565 1461c-49 0 -91 41 -91 89c0 52 42 91 91 91s91 -39 91 -91c0 -48 -42 -89 -91 -89zM868 1461c-49 0 -91 41 -91 89c0 52 42 91 91 91s91 -39 91 -91c0 -48 -42 -89 -91 -89zM717 -16c-346 0 -626 279 -626 626c0 346 280 625 626 625s626 -279 626 -625
c0 -347 -280 -626 -626 -626zM717 122c271 0 488 216 488 488c0 271 -217 487 -488 487c-270 0 -488 -216 -488 -487c0 -272 218 -488 488 -488z" />
    <glyph glyph-name="Ograve" unicode="&#xd2;" horiz-adv-x="1434" 
d="M672 1324l-245 301h156l178 -301h-89zM717 -16c-346 0 -626 279 -626 626c0 346 280 625 626 625s626 -279 626 -625c0 -347 -280 -626 -626 -626zM717 122c271 0 488 216 488 488c0 271 -217 487 -488 487c-270 0 -488 -216 -488 -487c0 -272 218 -488 488 -488z" />
    <glyph glyph-name="Ohungarumlaut" unicode="&#x150;" horiz-adv-x="1434" 
d="M540 1324l176 301h155l-243 -301h-88zM805 1324l176 301h155l-243 -301h-88zM717 -16c-346 0 -626 279 -626 626c0 346 280 625 626 625s626 -279 626 -625c0 -347 -280 -626 -626 -626zM717 122c271 0 488 216 488 488c0 271 -217 487 -488 487
c-270 0 -488 -216 -488 -487c0 -272 218 -488 488 -488z" />
    <glyph glyph-name="Omacron" unicode="&#x14c;" horiz-adv-x="1434" 
d="M497 1384v92h439v-92h-439zM717 -16c-346 0 -626 279 -626 626c0 346 280 625 626 625s626 -279 626 -625c0 -347 -280 -626 -626 -626zM717 122c271 0 488 216 488 488c0 271 -217 487 -488 487c-270 0 -488 -216 -488 -487c0 -272 218 -488 488 -488z" />
    <glyph glyph-name="Oslash" unicode="&#xd8;" horiz-adv-x="1434" 
d="M1123 1086c135 -114 220 -285 220 -476c0 -347 -280 -626 -626 -626c-112 0 -216 29 -307 80l-98 -141l-103 61l103 148c-135 115 -221 286 -221 478c0 346 280 625 626 625c112 0 217 -29 308 -81l99 142l101 -63zM229 610c0 -146 63 -276 162 -365l555 796
c-68 36 -146 56 -229 56c-270 0 -488 -216 -488 -487zM717 122c271 0 488 216 488 488c0 145 -62 274 -161 363l-555 -795c68 -36 146 -56 228 -56z" />
    <glyph glyph-name="Otilde" unicode="&#xd5;" horiz-adv-x="1434" 
d="M825 1401c-122 0 -151 133 -214 133c-52 0 -78 -57 -78 -127h-99c0 127 65 225 174 225c115 0 151 -134 217 -134c49 0 77 43 77 127h97c0 -125 -60 -224 -174 -224zM717 -16c-346 0 -626 279 -626 626c0 346 280 625 626 625s626 -279 626 -625
c0 -347 -280 -626 -626 -626zM717 122c271 0 488 216 488 488c0 271 -217 487 -488 487c-270 0 -488 -216 -488 -487c0 -272 218 -488 488 -488z" />
    <glyph glyph-name="OE" unicode="&#x152;" horiz-adv-x="1663" 
d="M1574 1086h-535v-410h466v-133h-466v-410h535v-133h-649v20c-65 -24 -134 -36 -208 -36c-346 0 -626 279 -626 626c0 346 280 625 626 625c74 0 143 -12 208 -36v20h649v-133zM719 117c73 0 144 17 206 46v893c-62 30 -133 46 -206 46c-275 0 -494 -219 -494 -492
c0 -274 219 -493 494 -493z" />
    <glyph glyph-name="P" unicode="P" horiz-adv-x="1029" 
d="M625 1219c190 0 341 -153 341 -341c0 -190 -151 -338 -341 -338h-302v-540h-138v1219h440zM612 671c120 0 216 73 216 205c0 127 -96 210 -216 210h-289v-415h289z" />
    <glyph glyph-name="Thorn" unicode="&#xde;" horiz-adv-x="1025" 
d="M623 1050c187 0 340 -153 340 -343c0 -187 -153 -336 -340 -336h-305v-371h-133v1219h133v-169h305zM612 504c124 0 213 84 213 206s-89 207 -213 207h-294v-413h294z" />
    <glyph glyph-name="Q" unicode="Q" horiz-adv-x="1464" 
d="M1344 128v-128h-485c-46 -10 -93 -16 -142 -16c-346 0 -626 279 -626 626c0 346 280 625 626 625s626 -279 626 -625c0 -212 -104 -398 -265 -512l93 30h173zM229 610c0 -272 218 -488 488 -488c271 0 488 216 488 488c0 271 -217 487 -488 487
c-270 0 -488 -216 -488 -487z" />
    <glyph glyph-name="R" unicode="R" horiz-adv-x="1093" 
d="M687 554l357 -554h-156l-344 548h-221v-548h-138v1219h440c189 0 341 -151 341 -343c0 -164 -120 -297 -279 -322zM323 679h294c120 0 211 80 211 200c0 121 -92 202 -211 202h-294v-402z" />
    <glyph glyph-name="Racute" unicode="&#x154;" horiz-adv-x="1093" 
d="M835 1625l-245 -301h-89l178 301h156zM687 554l357 -554h-156l-344 548h-221v-548h-138v1219h440c189 0 341 -151 341 -343c0 -164 -120 -297 -279 -322zM323 679h294c120 0 211 80 211 200c0 121 -92 202 -211 202h-294v-402z" />
    <glyph glyph-name="Rcaron" unicode="&#x158;" horiz-adv-x="1093" 
d="M613 1324h-137l-159 301h102l127 -213l125 213h103zM687 554l357 -554h-156l-344 548h-221v-548h-138v1219h440c189 0 341 -151 341 -343c0 -164 -120 -297 -279 -322zM323 679h294c120 0 211 80 211 200c0 121 -92 202 -211 202h-294v-402z" />
    <glyph glyph-name="uni0156" unicode="&#x156;" horiz-adv-x="1093" 
d="M687 554l357 -554h-156l-344 548h-221v-548h-138v1219h440c189 0 341 -151 341 -343c0 -164 -120 -297 -279 -322zM323 679h294c120 0 211 80 211 200c0 121 -92 202 -211 202h-294v-402zM340 -386l122 286h167l-195 -286h-94z" />
    <glyph glyph-name="S" unicode="S" horiz-adv-x="930" 
d="M473 -16c-182 0 -335 97 -400 248l125 75c42 -112 142 -185 275 -185s237 71 237 197c0 299 -588 201 -588 593c0 198 149 323 341 323c150 0 275 -76 340 -172l-101 -89c-60 78 -135 123 -236 123c-112 0 -206 -57 -206 -174c0 -286 588 -183 588 -600
c0 -212 -165 -339 -375 -339z" />
    <glyph glyph-name="Sacute" unicode="&#x15a;" horiz-adv-x="930" 
d="M420 1324l178 301h156l-245 -301h-89zM473 -16c-182 0 -335 97 -400 248l125 75c42 -112 142 -185 275 -185s237 71 237 197c0 299 -588 201 -588 593c0 198 149 323 341 323c150 0 275 -76 340 -172l-101 -89c-60 78 -135 123 -236 123c-112 0 -206 -57 -206 -174
c0 -286 588 -183 588 -600c0 -212 -165 -339 -375 -339z" />
    <glyph glyph-name="Scaron" unicode="&#x160;" horiz-adv-x="930" 
d="M395 1324l-159 301h102l127 -213l125 213h103l-161 -301h-137zM473 -16c-182 0 -335 97 -400 248l125 75c42 -112 142 -185 275 -185s237 71 237 197c0 299 -588 201 -588 593c0 198 149 323 341 323c150 0 275 -76 340 -172l-101 -89c-60 78 -135 123 -236 123
c-112 0 -206 -57 -206 -174c0 -286 588 -183 588 -600c0 -212 -165 -339 -375 -339z" />
    <glyph glyph-name="Scedilla" unicode="&#x15e;" horiz-adv-x="930" 
d="M848 323c0 -207 -158 -333 -361 -339l-44 -91c111 22 200 -44 200 -147c0 -94 -73 -169 -167 -169c-75 0 -158 48 -189 108l73 29c23 -33 75 -57 116 -57c48 0 87 39 87 89c0 74 -69 104 -157 70l-64 41l68 131c-154 20 -280 111 -337 244l125 75
c42 -112 142 -185 275 -185s237 71 237 197c0 299 -588 201 -588 593c0 198 149 323 341 323c150 0 275 -76 340 -172l-101 -89c-60 78 -135 123 -236 123c-112 0 -206 -57 -206 -174c0 -286 588 -183 588 -600z" />
    <glyph glyph-name="uni0218" unicode="&#x218;" horiz-adv-x="930" 
d="M473 -16c-182 0 -335 97 -400 248l125 75c42 -112 142 -185 275 -185s237 71 237 197c0 299 -588 201 -588 593c0 198 149 323 341 323c150 0 275 -76 340 -172l-101 -89c-60 78 -135 123 -236 123c-112 0 -206 -57 -206 -174c0 -286 588 -183 588 -600
c0 -212 -165 -339 -375 -339zM259 -386l122 286h167l-195 -286h-94z" />
    <glyph glyph-name="uni1E9E" unicode="&#x1e9e;" horiz-adv-x="1119" 
d="M164 0v790c0 299 166 429 386 429h440l-288 -512c197 -13 334 -153 334 -354c0 -207 -143 -353 -319 -353h-283v138h260c109 0 207 78 207 215c0 144 -88 221 -231 221h-109v135l206 375h-216c-144 0 -253 -65 -253 -294v-790h-134z" />
    <glyph glyph-name="T" unicode="T" horiz-adv-x="861" 
d="M834 1219v-138h-335v-1081h-138v1081h-334v138h807z" />
    <glyph glyph-name="Tbar" unicode="&#x166;" horiz-adv-x="861" 
d="M834 1081h-335v-407h171v-128h-171v-546h-138v546h-169v128h169v407h-334v138h807v-138z" />
    <glyph glyph-name="Tcaron" unicode="&#x164;" horiz-adv-x="861" 
d="M498 1324h-137l-159 301h102l127 -213l125 213h103zM834 1219v-138h-335v-1081h-138v1081h-334v138h807z" />
    <glyph glyph-name="uni0162" unicode="&#x162;" horiz-adv-x="861" 
d="M499 0h-38l-52 -107c111 22 200 -44 200 -147c0 -94 -73 -169 -167 -169c-75 0 -158 48 -189 108l73 29c23 -33 75 -57 116 -57c48 0 87 39 87 89c0 74 -69 104 -157 70l-64 41l74 143h-21v1081h-334v138h807v-138h-335v-1081z" />
    <glyph glyph-name="uni021A" unicode="&#x21a;" horiz-adv-x="861" 
d="M27 1219h807v-138h-335v-1081h-138v1081h-334v138zM225 -386l122 286h167l-195 -286h-94z" />
    <glyph glyph-name="U" unicode="U" horiz-adv-x="1244" 
d="M621 -16c-266 0 -460 175 -460 416v819h138v-796c0 -174 135 -301 322 -301s324 127 324 301v796h138v-819c0 -241 -194 -416 -462 -416z" />
    <glyph glyph-name="Uacute" unicode="&#xda;" horiz-adv-x="1244" 
d="M578 1324l178 301h156l-245 -301h-89zM621 -16c-266 0 -460 175 -460 416v819h138v-796c0 -174 135 -301 322 -301s324 127 324 301v796h138v-819c0 -241 -194 -416 -462 -416z" />
    <glyph glyph-name="Ucircumflex" unicode="&#xdb;" horiz-adv-x="1244" 
d="M394 1324l160 301h136l161 -301h-102l-125 213l-127 -213h-103zM621 -16c-266 0 -460 175 -460 416v819h138v-796c0 -174 135 -301 322 -301s324 127 324 301v796h138v-819c0 -241 -194 -416 -462 -416z" />
    <glyph glyph-name="Udieresis" unicode="&#xdc;" horiz-adv-x="1244" 
d="M471 1461c-49 0 -91 41 -91 89c0 52 42 91 91 91s91 -39 91 -91c0 -48 -42 -89 -91 -89zM774 1461c-49 0 -91 41 -91 89c0 52 42 91 91 91s91 -39 91 -91c0 -48 -42 -89 -91 -89zM621 -16c-266 0 -460 175 -460 416v819h138v-796c0 -174 135 -301 322 -301
s324 127 324 301v796h138v-819c0 -241 -194 -416 -462 -416z" />
    <glyph glyph-name="Ugrave" unicode="&#xd9;" horiz-adv-x="1244" 
d="M578 1324l-245 301h156l178 -301h-89zM621 -16c-266 0 -460 175 -460 416v819h138v-796c0 -174 135 -301 322 -301s324 127 324 301v796h138v-819c0 -241 -194 -416 -462 -416z" />
    <glyph glyph-name="Uhungarumlaut" unicode="&#x170;" horiz-adv-x="1244" 
d="M446 1324l176 301h155l-243 -301h-88zM711 1324l176 301h155l-243 -301h-88zM621 -16c-266 0 -460 175 -460 416v819h138v-796c0 -174 135 -301 322 -301s324 127 324 301v796h138v-819c0 -241 -194 -416 -462 -416z" />
    <glyph glyph-name="Umacron" unicode="&#x16a;" horiz-adv-x="1244" 
d="M403 1384v92h439v-92h-439zM621 -16c-266 0 -460 175 -460 416v819h138v-796c0 -174 135 -301 322 -301s324 127 324 301v796h138v-819c0 -241 -194 -416 -462 -416z" />
    <glyph glyph-name="Uogonek" unicode="&#x172;" horiz-adv-x="1244" 
d="M945 1219h138v-819c0 -202 -137 -358 -339 -403c-110 -61 -205 -127 -205 -238c0 -61 38 -107 108 -107c61 0 118 28 154 75l45 -65c-60 -60 -136 -86 -219 -83c-109 5 -182 65 -182 169c0 99 70 170 170 236c-263 3 -454 177 -454 416v819h138v-796
c0 -174 135 -301 322 -301s324 127 324 301v796z" />
    <glyph glyph-name="Uring" unicode="&#x16e;" horiz-adv-x="1244" 
d="M624 1295c-94 0 -172 78 -172 171c0 94 78 170 172 170c92 0 169 -76 169 -170c0 -93 -77 -171 -169 -171zM624 1367c53 0 97 42 97 99c0 53 -44 101 -97 101c-55 0 -98 -48 -98 -101c0 -57 43 -99 98 -99zM621 -16c-266 0 -460 175 -460 416v819h138v-796
c0 -174 135 -301 322 -301s324 127 324 301v796h138v-819c0 -241 -194 -416 -462 -416z" />
    <glyph glyph-name="V" unicode="V" horiz-adv-x="1102" 
d="M917 1219h151l-440 -1219h-153l-441 1219h153l365 -1043z" />
    <glyph glyph-name="W" unicode="W" horiz-adv-x="1751" 
d="M421 0l-380 1219h146l307 -983l283 983h195l289 -984l306 984h143l-377 -1219h-146l-313 1070l-306 -1070h-147z" />
    <glyph glyph-name="Wacute" unicode="&#x1e82;" horiz-adv-x="1751" 
d="M832 1324l178 301h156l-245 -301h-89zM421 0l-380 1219h146l307 -983l283 983h195l289 -984l306 984h143l-377 -1219h-146l-313 1070l-306 -1070h-147z" />
    <glyph glyph-name="Wcircumflex" unicode="&#x174;" horiz-adv-x="1751" 
d="M648 1324l160 301h136l161 -301h-102l-125 213l-127 -213h-103zM421 0l-380 1219h146l307 -983l283 983h195l289 -984l306 984h143l-377 -1219h-146l-313 1070l-306 -1070h-147z" />
    <glyph glyph-name="Wdieresis" unicode="&#x1e84;" horiz-adv-x="1751" 
d="M725 1461c-49 0 -91 41 -91 89c0 52 42 91 91 91s91 -39 91 -91c0 -48 -42 -89 -91 -89zM1028 1461c-49 0 -91 41 -91 89c0 52 42 91 91 91s91 -39 91 -91c0 -48 -42 -89 -91 -89zM421 0l-380 1219h146l307 -983l283 983h195l289 -984l306 984h143l-377 -1219h-146
l-313 1070l-306 -1070h-147z" />
    <glyph glyph-name="Wgrave" unicode="&#x1e80;" horiz-adv-x="1751" 
d="M832 1324l-245 301h156l178 -301h-89zM421 0l-380 1219h146l307 -983l283 983h195l289 -984l306 984h143l-377 -1219h-146l-313 1070l-306 -1070h-147z" />
    <glyph glyph-name="X" unicode="X" horiz-adv-x="1050" 
d="M34 0l415 618l-403 601h166l313 -485l314 485h166l-405 -599l416 -620h-167l-325 504l-322 -504h-168z" />
    <glyph glyph-name="Y" unicode="Y" horiz-adv-x="1016" 
d="M440 0v574l-426 645h172l323 -499l324 499h169l-424 -642v-577h-138z" />
    <glyph glyph-name="Yacute" unicode="&#xdd;" horiz-adv-x="1016" 
d="M463 1324l178 301h156l-245 -301h-89zM440 0v574l-426 645h172l323 -499l324 499h169l-424 -642v-577h-138z" />
    <glyph glyph-name="Ycircumflex" unicode="&#x176;" horiz-adv-x="1016" 
d="M279 1324l160 301h136l161 -301h-102l-125 213l-127 -213h-103zM440 0v574l-426 645h172l323 -499l324 499h169l-424 -642v-577h-138z" />
    <glyph glyph-name="Ydieresis" unicode="&#x178;" horiz-adv-x="1016" 
d="M356 1461c-49 0 -91 41 -91 89c0 52 42 91 91 91s91 -39 91 -91c0 -48 -42 -89 -91 -89zM659 1461c-49 0 -91 41 -91 89c0 52 42 91 91 91s91 -39 91 -91c0 -48 -42 -89 -91 -89zM440 0v574l-426 645h172l323 -499l324 499h169l-424 -642v-577h-138z" />
    <glyph glyph-name="Ygrave" unicode="&#x1ef2;" horiz-adv-x="1016" 
d="M463 1324l-245 301h156l178 -301h-89zM440 0v574l-426 645h172l323 -499l324 499h169l-424 -642v-577h-138z" />
    <glyph glyph-name="Z" unicode="Z" horiz-adv-x="1010" 
d="M285 138h678v-138h-923l655 1081h-605v138h850z" />
    <glyph glyph-name="Zacute" unicode="&#x179;" horiz-adv-x="1010" 
d="M794 1625l-245 -301h-89l178 301h156zM285 138h678v-138h-923l655 1081h-605v138h850z" />
    <glyph glyph-name="Zcaron" unicode="&#x17d;" horiz-adv-x="1010" 
d="M572 1324h-137l-159 301h102l127 -213l125 213h103zM285 138h678v-138h-923l655 1081h-605v138h850z" />
    <glyph glyph-name="Zdotaccent" unicode="&#x17b;" horiz-adv-x="1010" 
d="M505 1461c-49 0 -91 41 -91 89c0 52 42 91 91 91s91 -39 91 -91c0 -48 -42 -89 -91 -89zM285 138h678v-138h-923l655 1081h-605v138h850z" />
    <glyph glyph-name="a" unicode="a" horiz-adv-x="1098" 
d="M1001 114h51v-114c-28 -11 -54 -16 -78 -16c-82 0 -144 56 -172 137c-76 -82 -184 -137 -305 -137c-234 0 -422 188 -422 422s188 423 422 423c113 0 215 -44 290 -115v99h133v-597c0 -75 39 -102 81 -102zM497 117c160 0 290 128 290 289s-130 290 -290 290
s-289 -129 -289 -290s129 -289 289 -289z" />
    <glyph glyph-name="aacute" unicode="&#xe1;" horiz-adv-x="1098" 
d="M786 1219l-245 -301h-89l178 301h156zM1001 114h51v-114c-28 -11 -54 -16 -78 -16c-82 0 -144 56 -172 137c-76 -82 -184 -137 -305 -137c-234 0 -422 188 -422 422s188 423 422 423c113 0 215 -44 290 -115v99h133v-597c0 -75 39 -102 81 -102zM497 117
c160 0 290 128 290 289s-130 290 -290 290s-289 -129 -289 -290s129 -289 289 -289z" />
    <glyph glyph-name="abreve" unicode="&#x103;" horiz-adv-x="1098" 
d="M496 969c-155 0 -268 96 -268 250h82c0 -91 78 -166 186 -166c109 0 187 75 187 166h83c0 -154 -114 -250 -270 -250zM1001 114h51v-114c-28 -11 -54 -16 -78 -16c-82 0 -144 56 -172 137c-76 -82 -184 -137 -305 -137c-234 0 -422 188 -422 422s188 423 422 423
c113 0 215 -44 290 -115v99h133v-597c0 -75 39 -102 81 -102zM497 117c160 0 290 128 290 289s-130 290 -290 290s-289 -129 -289 -290s129 -289 289 -289z" />
    <glyph glyph-name="acircumflex" unicode="&#xe2;" horiz-adv-x="1098" 
d="M498 1131l-127 -213h-103l160 301h136l161 -301h-102zM1001 114h51v-114c-28 -11 -54 -16 -78 -16c-82 0 -144 56 -172 137c-76 -82 -184 -137 -305 -137c-234 0 -422 188 -422 422s188 423 422 423c113 0 215 -44 290 -115v99h133v-597c0 -75 39 -102 81 -102zM497 117
c160 0 290 128 290 289s-130 290 -290 290s-289 -129 -289 -290s129 -289 289 -289z" />
    <glyph glyph-name="adieresis" unicode="&#xe4;" horiz-adv-x="1098" 
d="M345 1055c-49 0 -91 41 -91 89c0 52 42 91 91 91s91 -39 91 -91c0 -48 -42 -89 -91 -89zM648 1055c-49 0 -91 41 -91 89c0 52 42 91 91 91s91 -39 91 -91c0 -48 -42 -89 -91 -89zM1001 114h51v-114c-28 -11 -54 -16 -78 -16c-82 0 -144 56 -172 137
c-76 -82 -184 -137 -305 -137c-234 0 -422 188 -422 422s188 423 422 423c113 0 215 -44 290 -115v99h133v-597c0 -75 39 -102 81 -102zM497 117c160 0 290 128 290 289s-130 290 -290 290s-289 -129 -289 -290s129 -289 289 -289z" />
    <glyph glyph-name="agrave" unicode="&#xe0;" horiz-adv-x="1098" 
d="M541 918h-89l-245 301h156zM1001 114h51v-114c-28 -11 -54 -16 -78 -16c-82 0 -144 56 -172 137c-76 -82 -184 -137 -305 -137c-234 0 -422 188 -422 422s188 423 422 423c113 0 215 -44 290 -115v99h133v-597c0 -75 39 -102 81 -102zM497 117c160 0 290 128 290 289
s-130 290 -290 290s-289 -129 -289 -290s129 -289 289 -289z" />
    <glyph glyph-name="amacron" unicode="&#x101;" horiz-adv-x="1098" 
d="M716 1070v-92h-439v92h439zM1001 114h51v-114c-28 -11 -54 -16 -78 -16c-82 0 -144 56 -172 137c-76 -82 -184 -137 -305 -137c-234 0 -422 188 -422 422s188 423 422 423c113 0 215 -44 290 -115v99h133v-597c0 -75 39 -102 81 -102zM497 117c160 0 290 128 290 289
s-130 290 -290 290s-289 -129 -289 -290s129 -289 289 -289z" />
    <glyph glyph-name="aogonek" unicode="&#x105;" horiz-adv-x="1098" 
d="M1104 -273l45 -65c-60 -60 -136 -86 -219 -83c-109 5 -182 65 -182 169c0 102 75 175 180 242c-59 17 -104 66 -126 131c-76 -82 -184 -137 -305 -137c-234 0 -422 188 -422 422s188 423 422 423c113 0 215 -44 290 -115v99h133v-597c0 -75 39 -102 81 -102h51v-114
c-112 -62 -210 -128 -210 -241c0 -61 38 -107 108 -107c61 0 118 28 154 75zM497 117c160 0 290 128 290 289s-130 290 -290 290s-289 -129 -289 -290s129 -289 289 -289z" />
    <glyph glyph-name="aring" unicode="&#xe5;" horiz-adv-x="1098" 
d="M498 889c-94 0 -172 78 -172 171c0 94 78 170 172 170c92 0 169 -76 169 -170c0 -93 -77 -171 -169 -171zM498 1161c-55 0 -98 -48 -98 -101c0 -57 43 -99 98 -99c53 0 97 42 97 99c0 53 -44 101 -97 101zM1001 114h51v-114c-28 -11 -54 -16 -78 -16
c-82 0 -144 56 -172 137c-76 -82 -184 -137 -305 -137c-234 0 -422 188 -422 422s188 423 422 423c113 0 215 -44 290 -115v99h133v-597c0 -75 39 -102 81 -102zM497 117c160 0 290 128 290 289s-130 290 -290 290s-289 -129 -289 -290s129 -289 289 -289z" />
    <glyph glyph-name="atilde" unicode="&#xe3;" horiz-adv-x="1098" 
d="M391 1128c-52 0 -78 -57 -78 -127h-99c0 127 65 225 174 225c115 0 151 -134 217 -134c49 0 77 43 77 127h97c0 -125 -60 -224 -174 -224c-122 0 -151 133 -214 133zM1001 114h51v-114c-28 -11 -54 -16 -78 -16c-82 0 -144 56 -172 137c-76 -82 -184 -137 -305 -137
c-234 0 -422 188 -422 422s188 423 422 423c113 0 215 -44 290 -115v99h133v-597c0 -75 39 -102 81 -102zM497 117c160 0 290 128 290 289s-130 290 -290 290s-289 -129 -289 -290s129 -289 289 -289z" />
    <glyph glyph-name="ae" unicode="&#xe6;" horiz-adv-x="1538" 
d="M1466 413l-1 -28h-710c9 -150 135 -268 289 -268c118 0 219 68 265 171h141c-52 -176 -213 -304 -406 -304c-132 0 -249 60 -327 154c-106 -95 -233 -154 -343 -154c-172 0 -294 105 -294 260c0 161 128 257 325 257h227c0 2 1 4 1 6v25c0 108 -83 188 -196 188
c-87 0 -167 -50 -188 -120l-133 44c42 109 170 185 323 185c128 0 233 -56 287 -143c78 88 191 143 318 143c232 0 417 -182 422 -416zM1044 696c-125 0 -231 -78 -272 -189h540c-39 110 -144 189 -268 189zM374 106c86 0 191 54 277 142c-16 41 -26 85 -29 131h-217
c-122 0 -192 -47 -192 -138c0 -83 62 -135 161 -135z" />
    <glyph glyph-name="b" unicode="b" horiz-adv-x="1069" 
d="M571 829c234 0 422 -189 422 -423s-188 -422 -422 -422c-112 0 -214 43 -290 114v-98h-133v1495h133v-781c76 71 178 115 290 115zM571 117c159 0 289 128 289 289s-130 290 -289 290c-161 0 -290 -129 -290 -290s129 -289 290 -289z" />
    <glyph glyph-name="c" unicode="c" horiz-adv-x="970" 
d="M497 -16c-234 0 -422 188 -422 422s188 423 422 423c191 0 350 -124 404 -294h-143c-48 96 -147 161 -261 161c-159 0 -289 -127 -289 -290c0 -162 130 -289 289 -289c114 0 213 65 261 161h143c-54 -171 -213 -294 -404 -294z" />
    <glyph glyph-name="cacute" unicode="&#x107;" horiz-adv-x="970" 
d="M438 918l178 301h156l-245 -301h-89zM497 -16c-234 0 -422 188 -422 422s188 423 422 423c191 0 350 -124 404 -294h-143c-48 96 -147 161 -261 161c-159 0 -289 -127 -289 -290c0 -162 130 -289 289 -289c114 0 213 65 261 161h143c-54 -171 -213 -294 -404 -294z" />
    <glyph glyph-name="ccaron" unicode="&#x10d;" horiz-adv-x="970" 
d="M413 918l-159 301h102l127 -213l125 213h103l-161 -301h-137zM497 -16c-234 0 -422 188 -422 422s188 423 422 423c191 0 350 -124 404 -294h-143c-48 96 -147 161 -261 161c-159 0 -289 -127 -289 -290c0 -162 130 -289 289 -289c114 0 213 65 261 161h143
c-54 -171 -213 -294 -404 -294z" />
    <glyph glyph-name="ccedilla" unicode="&#xe7;" horiz-adv-x="970" 
d="M497 117c114 0 213 65 261 161h143c-53 -169 -208 -290 -396 -294l-44 -91c111 22 200 -44 200 -147c0 -94 -73 -169 -167 -169c-75 0 -158 48 -189 108l73 29c23 -33 75 -57 116 -57c48 0 87 39 87 89c0 74 -69 104 -157 70l-64 41l69 132c-202 33 -354 206 -354 417
c0 234 188 423 422 423c191 0 350 -124 404 -294h-143c-48 96 -147 161 -261 161c-159 0 -289 -127 -289 -290c0 -162 130 -289 289 -289z" />
    <glyph glyph-name="cdotaccent" unicode="&#x10b;" horiz-adv-x="970" 
d="M483 1055c-49 0 -91 41 -91 89c0 52 42 91 91 91s91 -39 91 -91c0 -48 -42 -89 -91 -89zM497 -16c-234 0 -422 188 -422 422s188 423 422 423c191 0 350 -124 404 -294h-143c-48 96 -147 161 -261 161c-159 0 -289 -127 -289 -290c0 -162 130 -289 289 -289
c114 0 213 65 261 161h143c-54 -171 -213 -294 -404 -294z" />
    <glyph glyph-name="d" unicode="d" horiz-adv-x="1068" 
d="M787 1495h133v-1495h-133v98c-76 -71 -177 -114 -290 -114c-234 0 -422 188 -422 422s188 423 422 423c113 0 214 -43 290 -114v780zM497 117c160 0 290 128 290 289s-130 290 -290 290s-289 -129 -289 -290s129 -289 289 -289z" />
    <glyph glyph-name="eth" unicode="&#xf0;" horiz-adv-x="1047" 
d="M650 1110c197 -161 299 -411 299 -634c0 -265 -143 -492 -439 -492c-242 0 -437 188 -437 422s195 423 437 423c95 0 203 -26 278 -108c-41 145 -140 244 -210 298l-86 -110l-68 53l84 106c-73 41 -152 60 -234 62l25 109c101 0 196 -30 281 -80l75 94l66 -50zM510 115
c161 0 289 130 289 291s-128 291 -289 291c-162 0 -291 -130 -291 -291s129 -291 291 -291z" />
    <glyph glyph-name="dcaron" unicode="&#x10f;" horiz-adv-x="1118" 
d="M762 715v780h133v-1495h-133v98c-76 -71 -177 -114 -290 -114c-234 0 -422 188 -422 422s188 423 422 423c113 0 214 -43 290 -114zM1187 1219h153l-252 -453h-112zM472 117c160 0 290 128 290 289s-130 290 -290 290s-289 -129 -289 -290s129 -289 289 -289z" />
    <glyph glyph-name="dcroat" unicode="&#x111;" horiz-adv-x="1068" 
d="M1077 1283v-128h-157v-1155h-133v98c-76 -71 -177 -114 -290 -114c-234 0 -422 188 -422 422s188 423 422 423c113 0 214 -43 290 -114v440h-188v128h188v212h133v-212h157zM497 117c160 0 290 128 290 289s-130 290 -290 290s-289 -129 -289 -290s129 -289 289 -289z
" />
    <glyph glyph-name="e" unicode="e" horiz-adv-x="992" 
d="M920 413l-2 -28h-709c9 -150 135 -268 288 -268c119 0 220 68 265 171h142c-52 -176 -213 -304 -407 -304c-234 0 -422 188 -422 422s188 423 422 423c233 0 418 -182 423 -416zM497 696c-124 0 -230 -78 -271 -189h540c-39 110 -144 189 -269 189z" />
    <glyph glyph-name="eacute" unicode="&#xe9;" horiz-adv-x="992" 
d="M785 1219l-245 -301h-89l178 301h156zM920 413l-2 -28h-709c9 -150 135 -268 288 -268c119 0 220 68 265 171h142c-52 -176 -213 -304 -407 -304c-234 0 -422 188 -422 422s188 423 422 423c233 0 418 -182 423 -416zM497 696c-124 0 -230 -78 -271 -189h540
c-39 110 -144 189 -269 189z" />
    <glyph glyph-name="ecaron" unicode="&#x11b;" horiz-adv-x="992" 
d="M563 918h-137l-159 301h102l127 -213l125 213h103zM920 413l-2 -28h-709c9 -150 135 -268 288 -268c119 0 220 68 265 171h142c-52 -176 -213 -304 -407 -304c-234 0 -422 188 -422 422s188 423 422 423c233 0 418 -182 423 -416zM497 696c-124 0 -230 -78 -271 -189h540
c-39 110 -144 189 -269 189z" />
    <glyph glyph-name="ecircumflex" unicode="&#xea;" horiz-adv-x="992" 
d="M497 1131l-127 -213h-103l160 301h136l161 -301h-102zM920 413l-2 -28h-709c9 -150 135 -268 288 -268c119 0 220 68 265 171h142c-52 -176 -213 -304 -407 -304c-234 0 -422 188 -422 422s188 423 422 423c233 0 418 -182 423 -416zM497 696c-124 0 -230 -78 -271 -189
h540c-39 110 -144 189 -269 189z" />
    <glyph glyph-name="edieresis" unicode="&#xeb;" horiz-adv-x="992" 
d="M344 1055c-49 0 -91 41 -91 89c0 52 42 91 91 91s91 -39 91 -91c0 -48 -42 -89 -91 -89zM647 1055c-49 0 -91 41 -91 89c0 52 42 91 91 91s91 -39 91 -91c0 -48 -42 -89 -91 -89zM920 413l-2 -28h-709c9 -150 135 -268 288 -268c119 0 220 68 265 171h142
c-52 -176 -213 -304 -407 -304c-234 0 -422 188 -422 422s188 423 422 423c233 0 418 -182 423 -416zM497 696c-124 0 -230 -78 -271 -189h540c-39 110 -144 189 -269 189z" />
    <glyph glyph-name="edotaccent" unicode="&#x117;" horiz-adv-x="992" 
d="M496 1055c-49 0 -91 41 -91 89c0 52 42 91 91 91s91 -39 91 -91c0 -48 -42 -89 -91 -89zM920 413l-2 -28h-709c9 -150 135 -268 288 -268c119 0 220 68 265 171h142c-52 -176 -213 -304 -407 -304c-234 0 -422 188 -422 422s188 423 422 423c233 0 418 -182 423 -416z
M497 696c-124 0 -230 -78 -271 -189h540c-39 110 -144 189 -269 189z" />
    <glyph glyph-name="egrave" unicode="&#xe8;" horiz-adv-x="992" 
d="M540 918h-89l-245 301h156zM920 413l-2 -28h-709c9 -150 135 -268 288 -268c119 0 220 68 265 171h142c-52 -176 -213 -304 -407 -304c-234 0 -422 188 -422 422s188 423 422 423c233 0 418 -182 423 -416zM497 696c-124 0 -230 -78 -271 -189h540
c-39 110 -144 189 -269 189z" />
    <glyph glyph-name="emacron" unicode="&#x113;" horiz-adv-x="992" 
d="M715 1070v-92h-439v92h439zM920 413l-2 -28h-709c9 -150 135 -268 288 -268c119 0 220 68 265 171h142c-52 -176 -213 -304 -407 -304c-234 0 -422 188 -422 422s188 423 422 423c233 0 418 -182 423 -416zM497 696c-124 0 -230 -78 -271 -189h540
c-39 110 -144 189 -269 189z" />
    <glyph glyph-name="eogonek" unicode="&#x119;" horiz-adv-x="992" 
d="M920 413l-2 -28h-709c9 -150 135 -268 288 -268c119 0 220 68 265 171h142c-40 -136 -145 -243 -281 -285c-106 -60 -197 -125 -197 -234c0 -61 38 -107 108 -107c61 0 118 28 154 75l45 -65c-60 -60 -136 -86 -219 -83c-109 5 -182 65 -182 169c0 94 63 163 155 226
c-229 5 -412 191 -412 422c0 234 188 423 422 423c233 0 418 -182 423 -416zM497 696c-124 0 -230 -78 -271 -189h540c-39 110 -144 189 -269 189z" />
    <glyph glyph-name="f" unicode="f" horiz-adv-x="538" 
d="M531 813v-130h-217v-683h-133v683h-136v130h136v465c0 130 109 234 237 234c43 0 88 -12 109 -26v-104h-92c-64 0 -121 -48 -121 -122v-447h217z" />
    <glyph glyph-name="g" unicode="g" horiz-adv-x="1068" 
d="M785 813h135v-878c0 -299 -172 -439 -414 -439c-194 0 -351 119 -408 285l122 55c35 -119 146 -207 286 -207c167 0 281 82 281 306v163c-76 -71 -177 -114 -290 -114c-234 0 -422 188 -422 422c0 236 188 423 422 423c112 0 213 -42 288 -112v96zM497 117
c160 0 290 130 290 289c0 161 -130 290 -290 290s-289 -129 -289 -290c0 -159 129 -289 289 -289z" />
    <glyph glyph-name="gbreve" unicode="&#x11f;" horiz-adv-x="1068" 
d="M527 969c-155 0 -268 96 -268 250h82c0 -91 78 -166 186 -166c109 0 187 75 187 166h83c0 -154 -114 -250 -270 -250zM785 813h135v-878c0 -299 -172 -439 -414 -439c-194 0 -351 119 -408 285l122 55c35 -119 146 -207 286 -207c167 0 281 82 281 306v163
c-76 -71 -177 -114 -290 -114c-234 0 -422 188 -422 422c0 236 188 423 422 423c112 0 213 -42 288 -112v96zM497 117c160 0 290 130 290 289c0 161 -130 290 -290 290s-289 -129 -289 -290c0 -159 129 -289 289 -289z" />
    <glyph glyph-name="uni0123" unicode="&#x123;" horiz-adv-x="1068" 
d="M733 1219l-122 -286h-167l195 286h94zM785 813h135v-878c0 -299 -172 -439 -414 -439c-194 0 -351 119 -408 285l122 55c35 -119 146 -207 286 -207c167 0 281 82 281 306v163c-76 -71 -177 -114 -290 -114c-234 0 -422 188 -422 422c0 236 188 423 422 423
c112 0 213 -42 288 -112v96zM497 117c160 0 290 130 290 289c0 161 -130 290 -290 290s-289 -129 -289 -290c0 -159 129 -289 289 -289z" />
    <glyph glyph-name="gdotaccent" unicode="&#x121;" horiz-adv-x="1068" 
d="M528 1055c-49 0 -91 41 -91 89c0 52 42 91 91 91s91 -39 91 -91c0 -48 -42 -89 -91 -89zM785 813h135v-878c0 -299 -172 -439 -414 -439c-194 0 -351 119 -408 285l122 55c35 -119 146 -207 286 -207c167 0 281 82 281 306v163c-76 -71 -177 -114 -290 -114
c-234 0 -422 188 -422 422c0 236 188 423 422 423c112 0 213 -42 288 -112v96zM497 117c160 0 290 130 290 289c0 161 -130 290 -290 290s-289 -129 -289 -290c0 -159 129 -289 289 -289z" />
    <glyph glyph-name="h" unicode="h" horiz-adv-x="895" 
d="M457 829c171 0 309 -137 309 -310v-519h-134v519c0 100 -79 177 -177 177c-96 0 -174 -77 -174 -177v-519h-133v1495h133v-721c50 35 111 55 176 55z" />
    <glyph glyph-name="hbar" unicode="&#x127;" horiz-adv-x="895" 
d="M457 829c171 0 309 -137 309 -310v-519h-134v519c0 100 -79 177 -177 177c-96 0 -174 -77 -174 -177v-519h-133v1155h-103v128h103v212h133v-212h242v-128h-242v-381c50 35 111 55 176 55z" />
    <glyph glyph-name="i" unicode="i" horiz-adv-x="429" 
d="M215 1055c-49 0 -91 41 -91 89c0 52 42 91 91 91s91 -39 91 -91c0 -48 -42 -89 -91 -89zM148 0v813h133v-813h-133z" />
    <glyph glyph-name="dotlessi" unicode="&#x131;" horiz-adv-x="429" 
d="M148 0v813h133v-813h-133z" />
    <glyph glyph-name="iacute" unicode="&#xed;" horiz-adv-x="429" 
d="M170 918l178 301h156l-245 -301h-89zM148 0v813h133v-813h-133z" />
    <glyph glyph-name="icircumflex" unicode="&#xee;" horiz-adv-x="429" 
d="M-14 918l160 301h136l161 -301h-102l-125 213l-127 -213h-103zM148 0v813h133v-813h-133z" />
    <glyph glyph-name="idieresis" unicode="&#xef;" horiz-adv-x="429" 
d="M63 1055c-49 0 -91 41 -91 89c0 52 42 91 91 91s91 -39 91 -91c0 -48 -42 -89 -91 -89zM366 1055c-49 0 -91 41 -91 89c0 52 42 91 91 91s91 -39 91 -91c0 -48 -42 -89 -91 -89zM148 0v813h133v-813h-133z" />
    <glyph glyph-name="i.loclTRK" horiz-adv-x="429" 
d="M215 1055c-49 0 -91 41 -91 89c0 52 42 91 91 91s91 -39 91 -91c0 -48 -42 -89 -91 -89zM148 0v813h133v-813h-133z" />
    <glyph glyph-name="igrave" unicode="&#xec;" horiz-adv-x="429" 
d="M170 918l-245 301h156l178 -301h-89zM148 0v813h133v-813h-133z" />
    <glyph glyph-name="imacron" unicode="&#x12b;" horiz-adv-x="429" 
d="M-5 978v92h439v-92h-439zM148 0v813h133v-813h-133z" />
    <glyph glyph-name="iogonek" unicode="&#x12f;" horiz-adv-x="429" 
d="M215 1055c-49 0 -91 41 -91 89c0 52 42 91 91 91s91 -39 91 -91c0 -48 -42 -89 -91 -89zM333 -273l45 -65c-60 -60 -136 -86 -219 -83c-109 5 -182 65 -182 169c0 107 82 182 195 252h-24v813h133v-813c-112 -62 -210 -128 -210 -241c0 -61 38 -107 108 -107
c61 0 118 28 154 75z" />
    <glyph glyph-name="j" unicode="j" horiz-adv-x="429" 
d="M215 1055c-49 0 -91 41 -91 89c0 52 42 91 91 91s91 -39 91 -91c0 -48 -42 -89 -91 -89zM44 -553c-42 0 -88 12 -109 26v104h93c63 0 120 48 120 122v1114h133v-1132c0 -130 -109 -234 -237 -234z" />
    <glyph glyph-name="uni0237" unicode="&#x237;" horiz-adv-x="429" 
d="M44 -553c-42 0 -88 12 -109 26v104h93c63 0 120 48 120 122v1114h133v-1132c0 -130 -109 -234 -237 -234z" />
    <glyph glyph-name="k" unicode="k" horiz-adv-x="838" 
d="M844 0h-184l-379 433v-433h-133v1495h133v-1022l350 340h177l-374 -363z" />
    <glyph glyph-name="uni0137" unicode="&#x137;" horiz-adv-x="838" 
d="M434 450l410 -450h-184l-379 433v-433h-133v1495h133v-1022l350 340h177zM237 -386l122 286h167l-195 -286h-94z" />
    <glyph glyph-name="l" unicode="l" horiz-adv-x="429" 
d="M148 0v1495h133v-1495h-133z" />
    <glyph glyph-name="lacute" unicode="&#x13a;" horiz-adv-x="429" 
d="M170 1600l178 301h156l-245 -301h-89zM148 0v1495h133v-1495h-133z" />
    <glyph glyph-name="lcaron" unicode="&#x13e;" horiz-adv-x="470" 
d="M123 0v1495h133v-1495h-133zM326 766l211 453h153l-252 -453h-112z" />
    <glyph glyph-name="uni013C" unicode="&#x13c;" horiz-adv-x="429" 
d="M148 0v1495h133v-1495h-133zM9 -386l122 286h167l-195 -286h-94z" />
    <glyph glyph-name="lslash" unicode="&#x142;" horiz-adv-x="429" 
d="M401 1016v-142l-120 -127v-747h-133v607l-120 -127v141l120 127v747h133v-606z" />
    <glyph glyph-name="m" unicode="m" horiz-adv-x="1360" 
d="M148 0v813h133v-73c49 54 114 89 186 89c83 0 166 -46 222 -119c56 73 141 119 238 119c169 0 304 -140 304 -312v-517h-134v517c0 99 -76 179 -170 179c-95 0 -171 -80 -171 -179v-517h-133v517c0 99 -77 179 -171 179c-96 0 -171 -80 -171 -179v-517h-133z" />
    <glyph glyph-name="n" unicode="n" horiz-adv-x="903" 
d="M473 829c156 0 301 -138 301 -312v-517h-133v517c0 101 -80 179 -179 179c-101 0 -181 -78 -181 -179v-517h-133v813h133v-62c52 49 119 78 192 78z" />
    <glyph glyph-name="nacute" unicode="&#x144;" horiz-adv-x="903" 
d="M741 1219l-245 -301h-89l178 301h156zM473 829c156 0 301 -138 301 -312v-517h-133v517c0 101 -80 179 -179 179c-101 0 -181 -78 -181 -179v-517h-133v813h133v-62c52 49 119 78 192 78z" />
    <glyph glyph-name="ncaron" unicode="&#x148;" horiz-adv-x="903" 
d="M519 918h-137l-159 301h102l127 -213l125 213h103zM473 829c156 0 301 -138 301 -312v-517h-133v517c0 101 -80 179 -179 179c-101 0 -181 -78 -181 -179v-517h-133v813h133v-62c52 49 119 78 192 78z" />
    <glyph glyph-name="uni0146" unicode="&#x146;" horiz-adv-x="903" 
d="M473 829c156 0 301 -138 301 -312v-517h-133v517c0 101 -80 179 -179 179c-101 0 -181 -78 -181 -179v-517h-133v813h133v-62c52 49 119 78 192 78zM246 -386l122 286h167l-195 -286h-94z" />
    <glyph glyph-name="eng" unicode="&#x14b;" horiz-adv-x="903" 
d="M473 829c156 0 301 -138 301 -312v-727c0 -175 -75 -232 -237 -230v89c56 -2 104 15 104 120v748c0 101 -80 179 -179 179c-101 0 -181 -78 -181 -179v-517h-133v813h133v-62c52 49 119 78 192 78z" />
    <glyph glyph-name="ntilde" unicode="&#xf1;" horiz-adv-x="903" 
d="M346 1128c-52 0 -78 -57 -78 -127h-99c0 127 65 225 174 225c115 0 151 -134 217 -134c49 0 77 43 77 127h97c0 -125 -60 -224 -174 -224c-122 0 -151 133 -214 133zM473 829c156 0 301 -138 301 -312v-517h-133v517c0 101 -80 179 -179 179c-101 0 -181 -78 -181 -179
v-517h-133v813h133v-62c52 49 119 78 192 78z" />
    <glyph glyph-name="o" unicode="o" horiz-adv-x="996" 
d="M497 -16c-234 0 -422 188 -422 422s188 423 422 423c235 0 423 -189 423 -423s-188 -422 -423 -422zM497 117c160 0 290 128 290 289s-130 290 -290 290s-289 -129 -289 -290s129 -289 289 -289z" />
    <glyph glyph-name="oacute" unicode="&#xf3;" horiz-adv-x="996" 
d="M452 918l178 301h156l-245 -301h-89zM497 -16c-234 0 -422 188 -422 422s188 423 422 423c235 0 423 -189 423 -423s-188 -422 -423 -422zM497 117c160 0 290 128 290 289s-130 290 -290 290s-289 -129 -289 -290s129 -289 289 -289z" />
    <glyph glyph-name="ocircumflex" unicode="&#xf4;" horiz-adv-x="996" 
d="M268 918l160 301h136l161 -301h-102l-125 213l-127 -213h-103zM497 -16c-234 0 -422 188 -422 422s188 423 422 423c235 0 423 -189 423 -423s-188 -422 -423 -422zM497 117c160 0 290 128 290 289s-130 290 -290 290s-289 -129 -289 -290s129 -289 289 -289z" />
    <glyph glyph-name="odieresis" unicode="&#xf6;" horiz-adv-x="996" 
d="M345 1055c-49 0 -91 41 -91 89c0 52 42 91 91 91s91 -39 91 -91c0 -48 -42 -89 -91 -89zM648 1055c-49 0 -91 41 -91 89c0 52 42 91 91 91s91 -39 91 -91c0 -48 -42 -89 -91 -89zM497 -16c-234 0 -422 188 -422 422s188 423 422 423c235 0 423 -189 423 -423
s-188 -422 -423 -422zM497 117c160 0 290 128 290 289s-130 290 -290 290s-289 -129 -289 -290s129 -289 289 -289z" />
    <glyph glyph-name="ograve" unicode="&#xf2;" horiz-adv-x="996" 
d="M452 918l-245 301h156l178 -301h-89zM497 -16c-234 0 -422 188 -422 422s188 423 422 423c235 0 423 -189 423 -423s-188 -422 -423 -422zM497 117c160 0 290 128 290 289s-130 290 -290 290s-289 -129 -289 -290s129 -289 289 -289z" />
    <glyph glyph-name="ohungarumlaut" unicode="&#x151;" horiz-adv-x="996" 
d="M320 918l176 301h155l-243 -301h-88zM585 918l176 301h155l-243 -301h-88zM497 -16c-234 0 -422 188 -422 422s188 423 422 423c235 0 423 -189 423 -423s-188 -422 -423 -422zM497 117c160 0 290 128 290 289s-130 290 -290 290s-289 -129 -289 -290s129 -289 289 -289z
" />
    <glyph glyph-name="omacron" unicode="&#x14d;" horiz-adv-x="996" 
d="M277 978v92h439v-92h-439zM497 -16c-234 0 -422 188 -422 422s188 423 422 423c235 0 423 -189 423 -423s-188 -422 -423 -422zM497 117c160 0 290 128 290 289s-130 290 -290 290s-289 -129 -289 -290s129 -289 289 -289z" />
    <glyph glyph-name="oslash" unicode="&#xf8;" horiz-adv-x="996" 
d="M786 716c82 -77 134 -187 134 -310c0 -234 -188 -422 -423 -422c-69 0 -133 16 -190 45l-79 -113l-102 61l83 120c-82 76 -134 186 -134 309c0 234 188 423 422 423c69 0 134 -16 192 -46l79 114l100 -63zM208 406c0 -77 30 -147 79 -199l324 466c-35 15 -73 23 -114 23
c-160 0 -289 -129 -289 -290zM497 117c160 0 290 128 290 289c0 77 -30 147 -79 199l-324 -465c35 -15 73 -23 113 -23z" />
    <glyph glyph-name="otilde" unicode="&#xf5;" horiz-adv-x="996" 
d="M605 995c-122 0 -151 133 -214 133c-52 0 -78 -57 -78 -127h-99c0 127 65 225 174 225c115 0 151 -134 217 -134c49 0 77 43 77 127h97c0 -125 -60 -224 -174 -224zM497 -16c-234 0 -422 188 -422 422s188 423 422 423c235 0 423 -189 423 -423s-188 -422 -423 -422z
M497 117c160 0 290 128 290 289s-130 290 -290 290s-289 -129 -289 -290s129 -289 289 -289z" />
    <glyph glyph-name="oe" unicode="&#x153;" horiz-adv-x="1707" 
d="M1635 413l-2 -28h-709c9 -150 135 -268 288 -268c119 0 220 68 265 171h142c-52 -176 -213 -304 -407 -304c-151 0 -282 78 -357 196c-75 -118 -207 -196 -358 -196c-234 0 -422 188 -422 422s188 423 422 423c151 0 283 -78 358 -197c75 119 206 197 357 197
c233 0 418 -182 423 -416zM497 117c160 0 290 128 290 289s-130 290 -290 290s-289 -129 -289 -290s129 -289 289 -289zM1212 696c-124 0 -230 -78 -271 -189h540c-39 110 -144 189 -269 189z" />
    <glyph glyph-name="p" unicode="p" horiz-adv-x="1068" 
d="M571 829c234 0 422 -189 422 -423s-188 -422 -422 -422c-112 0 -214 43 -290 114v-586h-133v1301h133v-99c76 71 178 115 290 115zM571 117c159 0 289 128 289 289s-130 290 -289 290c-161 0 -290 -129 -290 -290s129 -289 290 -289z" />
    <glyph glyph-name="thorn" unicode="&#xfe;" horiz-adv-x="1068" 
d="M571 829c234 0 422 -189 422 -423s-188 -422 -422 -422c-112 0 -214 43 -290 114v-586h-133v1983h133v-781c76 71 178 115 290 115zM571 117c159 0 289 128 289 289s-130 290 -289 290c-161 0 -290 -129 -290 -290s129 -289 290 -289z" />
    <glyph glyph-name="q" unicode="q" horiz-adv-x="1068" 
d="M1040 -358h75v-113c-24 -10 -58 -17 -91 -17c-128 0 -237 104 -237 234v352c-76 -71 -177 -114 -290 -114c-234 0 -422 188 -422 422s188 423 422 423c113 0 214 -43 290 -114v98h133v-1049c0 -74 57 -122 120 -122zM497 117c160 0 290 128 290 289s-130 290 -290 290
s-289 -129 -289 -290s129 -289 289 -289z" />
    <glyph glyph-name="r" unicode="r" horiz-adv-x="619" 
d="M148 0v813h133v-112c62 79 155 128 270 128c23 0 42 -2 62 -5v-136c-18 4 -39 8 -62 8c-149 0 -270 -112 -270 -262v-434h-133z" />
    <glyph glyph-name="racute" unicode="&#x155;" horiz-adv-x="619" 
d="M289 918l178 301h156l-245 -301h-89zM148 0v813h133v-112c62 79 155 128 270 128c23 0 42 -2 62 -5v-136c-18 4 -39 8 -62 8c-149 0 -270 -112 -270 -262v-434h-133z" />
    <glyph glyph-name="rcaron" unicode="&#x159;" horiz-adv-x="619" 
d="M264 918l-159 301h102l127 -213l125 213h103l-161 -301h-137zM148 0v813h133v-112c62 79 155 128 270 128c23 0 42 -2 62 -5v-136c-18 4 -39 8 -62 8c-149 0 -270 -112 -270 -262v-434h-133z" />
    <glyph glyph-name="uni0157" unicode="&#x157;" horiz-adv-x="619" 
d="M148 0v813h133v-112c62 79 155 128 270 128c23 0 42 -2 62 -5v-136c-18 4 -39 8 -62 8c-149 0 -270 -112 -270 -262v-434h-133zM9 -386l122 286h167l-195 -286h-94z" />
    <glyph glyph-name="s" unicode="s" horiz-adv-x="688" 
d="M354 -16c-131 0 -253 79 -284 179l128 52c12 -59 83 -100 156 -100c70 0 127 39 127 106c0 65 -50 86 -146 125c-141 59 -229 114 -229 246c0 151 114 237 237 237c106 0 211 -63 241 -138l-117 -60c-20 42 -65 65 -119 65c-63 0 -107 -31 -107 -96
c0 -68 48 -90 146 -130c106 -44 228 -101 228 -247c0 -143 -118 -239 -261 -239z" />
    <glyph glyph-name="sacute" unicode="&#x15b;" horiz-adv-x="688" 
d="M300 918l178 301h156l-245 -301h-89zM354 -16c-131 0 -253 79 -284 179l128 52c12 -59 83 -100 156 -100c70 0 127 39 127 106c0 65 -50 86 -146 125c-141 59 -229 114 -229 246c0 151 114 237 237 237c106 0 211 -63 241 -138l-117 -60c-20 42 -65 65 -119 65
c-63 0 -107 -31 -107 -96c0 -68 48 -90 146 -130c106 -44 228 -101 228 -247c0 -143 -118 -239 -261 -239z" />
    <glyph glyph-name="scaron" unicode="&#x161;" horiz-adv-x="688" 
d="M275 918l-159 301h102l127 -213l125 213h103l-161 -301h-137zM354 -16c-131 0 -253 79 -284 179l128 52c12 -59 83 -100 156 -100c70 0 127 39 127 106c0 65 -50 86 -146 125c-141 59 -229 114 -229 246c0 151 114 237 237 237c106 0 211 -63 241 -138l-117 -60
c-20 42 -65 65 -119 65c-63 0 -107 -31 -107 -96c0 -68 48 -90 146 -130c106 -44 228 -101 228 -247c0 -143 -118 -239 -261 -239z" />
    <glyph glyph-name="scedilla" unicode="&#x15f;" horiz-adv-x="688" 
d="M615 223c0 -139 -111 -233 -248 -239l-44 -91c111 22 200 -44 200 -147c0 -94 -73 -169 -167 -169c-75 0 -158 48 -189 108l73 29c23 -33 75 -57 116 -57c48 0 87 39 87 89c0 74 -69 104 -157 70l-64 41l69 133c-105 20 -195 89 -221 173l128 52c12 -59 83 -100 156 -100
c70 0 127 39 127 106c0 65 -50 86 -146 125c-141 59 -229 114 -229 246c0 151 114 237 237 237c106 0 211 -63 241 -138l-117 -60c-20 42 -65 65 -119 65c-63 0 -107 -31 -107 -96c0 -68 48 -90 146 -130c106 -44 228 -101 228 -247z" />
    <glyph glyph-name="uni0219" unicode="&#x219;" horiz-adv-x="688" 
d="M354 -16c-131 0 -253 79 -284 179l128 52c12 -59 83 -100 156 -100c70 0 127 39 127 106c0 65 -50 86 -146 125c-141 59 -229 114 -229 246c0 151 114 237 237 237c106 0 211 -63 241 -138l-117 -60c-20 42 -65 65 -119 65c-63 0 -107 -31 -107 -96
c0 -68 48 -90 146 -130c106 -44 228 -101 228 -247c0 -143 -118 -239 -261 -239zM139 -386l122 286h167l-195 -286h-94z" />
    <glyph glyph-name="germandbls" unicode="&#xdf;" horiz-adv-x="1048" 
d="M775 641c120 -54 195 -166 195 -305c0 -190 -143 -336 -318 -336h-234v138h211c109 0 207 78 207 208c0 133 -103 218 -231 218h-93v112h39c124 0 223 99 223 224c0 126 -99 217 -239 217c-145 0 -254 -98 -254 -230v-887h-133v887c0 202 166 348 385 348
c213 0 368 -141 368 -331c0 -108 -49 -201 -126 -263z" />
    <glyph glyph-name="t" unicode="t" horiz-adv-x="579" 
d="M522 683h-216v-447c0 -75 57 -122 121 -122h92v-104c-21 -15 -66 -26 -109 -26c-128 0 -237 104 -237 234v465h-136v130h136v352h133v-352h216v-130z" />
    <glyph glyph-name="tbar" unicode="&#x167;" horiz-adv-x="579" 
d="M540 343h-234v-107c0 -75 57 -122 121 -122h92v-104c-21 -15 -66 -26 -109 -26c-128 0 -237 104 -237 234v125h-129v128h129v212h-136v130h136v352h133v-352h216v-130h-216v-212h234v-128z" />
    <glyph glyph-name="tcaron" unicode="&#x165;" horiz-adv-x="579" 
d="M743 1443h153l-252 -453h-112zM306 1165v-352h216v-130h-216v-447c0 -75 57 -122 121 -122h92v-104c-21 -15 -66 -26 -109 -26c-128 0 -237 104 -237 234v465h-136v130h136v352h133z" />
    <glyph glyph-name="uni0163" unicode="&#x163;" horiz-adv-x="579" 
d="M353 -107c111 22 200 -44 200 -147c0 -94 -73 -169 -167 -169c-75 0 -158 48 -189 108l73 29c23 -33 75 -57 116 -57c48 0 87 39 87 89c0 74 -69 104 -157 70l-64 41l74 143c-88 33 -153 118 -153 218v465h-136v130h136v352h133v-352h216v-130h-216v-447
c0 -75 57 -122 121 -122h92v-104c-21 -15 -66 -26 -109 -26h-13z" />
    <glyph glyph-name="uni021B" unicode="&#x21b;" horiz-adv-x="579" 
d="M522 683h-216v-447c0 -75 57 -122 121 -122h92v-104c-21 -15 -66 -26 -109 -26c-128 0 -237 104 -237 234v465h-136v130h136v352h133v-352h216v-130zM169 -386l122 286h167l-195 -286h-94z" />
    <glyph glyph-name="u" unicode="u" horiz-adv-x="880" 
d="M440 -16c-185 0 -307 98 -307 299v530h133v-516c0 -128 73 -180 174 -180c102 0 174 52 174 180v516h132v-530c0 -201 -122 -299 -306 -299z" />
    <glyph glyph-name="uacute" unicode="&#xfa;" horiz-adv-x="880" 
d="M395 918l178 301h156l-245 -301h-89zM440 -16c-185 0 -307 98 -307 299v530h133v-516c0 -128 73 -180 174 -180c102 0 174 52 174 180v516h132v-530c0 -201 -122 -299 -306 -299z" />
    <glyph glyph-name="ucircumflex" unicode="&#xfb;" horiz-adv-x="880" 
d="M211 918l160 301h136l161 -301h-102l-125 213l-127 -213h-103zM440 -16c-185 0 -307 98 -307 299v530h133v-516c0 -128 73 -180 174 -180c102 0 174 52 174 180v516h132v-530c0 -201 -122 -299 -306 -299z" />
    <glyph glyph-name="udieresis" unicode="&#xfc;" horiz-adv-x="880" 
d="M288 1055c-49 0 -91 41 -91 89c0 52 42 91 91 91s91 -39 91 -91c0 -48 -42 -89 -91 -89zM591 1055c-49 0 -91 41 -91 89c0 52 42 91 91 91s91 -39 91 -91c0 -48 -42 -89 -91 -89zM440 -16c-185 0 -307 98 -307 299v530h133v-516c0 -128 73 -180 174 -180
c102 0 174 52 174 180v516h132v-530c0 -201 -122 -299 -306 -299z" />
    <glyph glyph-name="ugrave" unicode="&#xf9;" horiz-adv-x="880" 
d="M395 918l-245 301h156l178 -301h-89zM440 -16c-185 0 -307 98 -307 299v530h133v-516c0 -128 73 -180 174 -180c102 0 174 52 174 180v516h132v-530c0 -201 -122 -299 -306 -299z" />
    <glyph glyph-name="uhungarumlaut" unicode="&#x171;" horiz-adv-x="880" 
d="M263 918l176 301h155l-243 -301h-88zM528 918l176 301h155l-243 -301h-88zM440 -16c-185 0 -307 98 -307 299v530h133v-516c0 -128 73 -180 174 -180c102 0 174 52 174 180v516h132v-530c0 -201 -122 -299 -306 -299z" />
    <glyph glyph-name="umacron" unicode="&#x16b;" horiz-adv-x="880" 
d="M220 978v92h439v-92h-439zM440 -16c-185 0 -307 98 -307 299v530h133v-516c0 -128 73 -180 174 -180c102 0 174 52 174 180v516h132v-530c0 -201 -122 -299 -306 -299z" />
    <glyph glyph-name="uogonek" unicode="&#x173;" horiz-adv-x="880" 
d="M614 813h132v-530c0 -158 -75 -252 -196 -285c-110 -62 -206 -127 -206 -239c0 -61 38 -107 108 -107c61 0 118 28 154 75l45 -65c-60 -60 -136 -86 -219 -83c-109 5 -182 65 -182 169c0 99 70 171 171 236c-174 7 -288 105 -288 299v530h133v-516
c0 -128 73 -180 174 -180c102 0 174 52 174 180v516z" />
    <glyph glyph-name="uring" unicode="&#x16f;" horiz-adv-x="880" 
d="M441 889c-94 0 -172 78 -172 171c0 94 78 170 172 170c92 0 169 -76 169 -170c0 -93 -77 -171 -169 -171zM441 961c53 0 97 42 97 99c0 53 -44 101 -97 101c-55 0 -98 -48 -98 -101c0 -57 43 -99 98 -99zM440 -16c-185 0 -307 98 -307 299v530h133v-516
c0 -128 73 -180 174 -180c102 0 174 52 174 180v516h132v-530c0 -201 -122 -299 -306 -299z" />
    <glyph glyph-name="v" unicode="v" horiz-adv-x="805" 
d="M650 813h143l-327 -813h-128l-326 813h144l247 -655z" />
    <glyph glyph-name="w" unicode="w" horiz-adv-x="1320" 
d="M1152 813h146l-278 -813h-146l-213 629l-213 -629h-146l-280 813h151l207 -651l218 651h126l218 -653z" />
    <glyph glyph-name="wacute" unicode="&#x1e83;" horiz-adv-x="1320" 
d="M950 1219l-245 -301h-89l178 301h156zM1152 813h146l-278 -813h-146l-213 629l-213 -629h-146l-280 813h151l207 -651l218 651h126l218 -653z" />
    <glyph glyph-name="wcircumflex" unicode="&#x175;" horiz-adv-x="1320" 
d="M662 1131l-127 -213h-103l160 301h136l161 -301h-102zM1152 813h146l-278 -813h-146l-213 629l-213 -629h-146l-280 813h151l207 -651l218 651h126l218 -653z" />
    <glyph glyph-name="wdieresis" unicode="&#x1e85;" horiz-adv-x="1320" 
d="M509 1055c-49 0 -91 41 -91 89c0 52 42 91 91 91s91 -39 91 -91c0 -48 -42 -89 -91 -89zM812 1055c-49 0 -91 41 -91 89c0 52 42 91 91 91s91 -39 91 -91c0 -48 -42 -89 -91 -89zM1152 813h146l-278 -813h-146l-213 629l-213 -629h-146l-280 813h151l207 -651l218 651
h126l218 -653z" />
    <glyph glyph-name="wgrave" unicode="&#x1e81;" horiz-adv-x="1320" 
d="M705 918h-89l-245 301h156zM1152 813h146l-278 -813h-146l-213 629l-213 -629h-146l-280 813h151l207 -651l218 651h126l218 -653z" />
    <glyph glyph-name="x" unicode="x" horiz-adv-x="857" 
d="M848 813l-339 -407l339 -406h-161l-258 310l-258 -310h-162l339 407l-339 406h161l259 -310l258 310h161z" />
    <glyph glyph-name="y" unicode="y" horiz-adv-x="826" 
d="M663 813h151l-351 -878l-170 -423h-143l194 480l-333 821h148l257 -659z" />
    <glyph glyph-name="yacute" unicode="&#xfd;" horiz-adv-x="826" 
d="M702 1219l-245 -301h-89l178 301h156zM663 813h151l-351 -878l-170 -423h-143l194 480l-333 821h148l257 -659z" />
    <glyph glyph-name="ycircumflex" unicode="&#x177;" horiz-adv-x="826" 
d="M414 1131l-127 -213h-103l160 301h136l161 -301h-102zM663 813h151l-351 -878l-170 -423h-143l194 480l-333 821h148l257 -659z" />
    <glyph glyph-name="ydieresis" unicode="&#xff;" horiz-adv-x="826" 
d="M261 1055c-49 0 -91 41 -91 89c0 52 42 91 91 91s91 -39 91 -91c0 -48 -42 -89 -91 -89zM564 1055c-49 0 -91 41 -91 89c0 52 42 91 91 91s91 -39 91 -91c0 -48 -42 -89 -91 -89zM663 813h151l-351 -878l-170 -423h-143l194 480l-333 821h148l257 -659z" />
    <glyph glyph-name="ygrave" unicode="&#x1ef3;" horiz-adv-x="826" 
d="M457 918h-89l-245 301h156zM663 813h151l-351 -878l-170 -423h-143l194 480l-333 821h148l257 -659z" />
    <glyph glyph-name="z" unicode="z" horiz-adv-x="779" 
d="M736 813l-457 -680h454v-133h-702l456 679h-423v134h672z" />
    <glyph glyph-name="zacute" unicode="&#x17a;" horiz-adv-x="779" 
d="M678 1219l-245 -301h-89l178 301h156zM736 813l-457 -680h454v-133h-702l456 679h-423v134h672z" />
    <glyph glyph-name="zcaron" unicode="&#x17e;" horiz-adv-x="779" 
d="M456 918h-137l-159 301h102l127 -213l125 213h103zM736 813l-457 -680h454v-133h-702l456 679h-423v134h672z" />
    <glyph glyph-name="zdotaccent" unicode="&#x17c;" horiz-adv-x="779" 
d="M389 1055c-49 0 -91 41 -91 89c0 52 42 91 91 91s91 -39 91 -91c0 -48 -42 -89 -91 -89zM736 813l-457 -680h454v-133h-702l456 679h-423v134h672z" />
    <glyph glyph-name="ordfeminine" unicode="&#xaa;" horiz-adv-x="844" 
d="M586 1219h73v-488h-73v107c-41 -70 -114 -116 -203 -116c-135 0 -247 112 -247 253c0 140 112 254 247 254c89 0 162 -47 203 -117v107zM396 785c106 0 190 85 190 190c0 103 -84 187 -190 187c-104 0 -187 -84 -187 -187c0 -105 83 -190 187 -190z" />
    <glyph glyph-name="ordmasculine" unicode="&#xba;" horiz-adv-x="719" 
d="M358 722c-143 0 -260 112 -260 253c0 140 117 254 260 254c146 0 263 -114 263 -254c0 -141 -117 -253 -263 -253zM358 785c105 0 190 85 190 190c0 103 -85 187 -190 187c-104 0 -187 -84 -187 -187c0 -105 83 -190 187 -190z" />
    <glyph glyph-name="uni0394" unicode="&#x394;" horiz-adv-x="1190" 
d="M672 1219l489 -1219h-1132l489 1219h154zM228 122h734l-366 940z" />
    <glyph glyph-name="uni03A9" unicode="&#x3a9;" horiz-adv-x="1449" 
d="M101 0v99h276v12c-128 100 -249 289 -249 526c0 330 252 584 602 584c361 0 591 -278 591 -581c0 -237 -126 -437 -252 -529v-12h280v-99h-473v73c159 81 314 275 314 548c0 240 -163 499 -459 499c-284 0 -471 -226 -471 -502c0 -264 158 -467 312 -545v-73h-471z" />
    <glyph glyph-name="uni03BC" unicode="&#x3bc;" horiz-adv-x="1006" 
d="M725 813h133v-813h-133v121c-59 -83 -153 -137 -260 -137c-83 0 -159 32 -215 85v-475h-102v1219h133v-493c0 -120 98 -218 220 -218c123 0 224 98 224 218v493z" />
    <glyph glyph-name="pi" unicode="&#x3c0;" horiz-adv-x="1059" 
d="M106 0c70 179 131 532 143 783c-127 0 -189 -8 -234 -24l-15 78c49 28 129 47 273 47h790l-11 -101h-166v-520c0 -135 10 -208 28 -263h-126c-21 36 -29 122 -29 247v536l-383 2c-12 -223 -74 -627 -147 -785h-123z" />
    <glyph glyph-name="zero" unicode="0" horiz-adv-x="1056" 
d="M528 -16c-284 0 -439 268 -439 626c0 357 155 625 439 625c283 0 439 -268 439 -625c0 -358 -156 -626 -439 -626zM530 122c200 0 299 201 299 488c0 286 -99 487 -299 487c-202 0 -301 -201 -301 -487c0 -287 99 -488 301 -488z" />
    <glyph glyph-name="one" unicode="1" horiz-adv-x="1056" 
d="M494 0v1081h-203v138h341v-1219h-138z" />
    <glyph glyph-name="two" unicode="2" horiz-adv-x="1056" 
d="M375 138h570v-138h-881l507 562c146 161 187 227 187 317c0 150 -104 219 -218 220c-127 1 -226 -85 -223 -226l-149 1c-5 218 167 365 379 363c196 -1 353 -127 360 -337c5 -142 -50 -221 -235 -429z" />
    <glyph glyph-name="three" unicode="3" horiz-adv-x="1056" 
d="M519 722c216 0 389 -155 389 -364c0 -207 -168 -374 -382 -374c-210 0 -379 157 -379 354l145 2c0 -124 107 -220 234 -220c135 0 240 109 240 244c0 133 -105 220 -239 220h-299l384 499h-433v136h703l-387 -497h24z" />
    <glyph glyph-name="four" unicode="4" horiz-adv-x="1056" 
d="M938 395v-138h-126v-257h-138v257h-589l554 962h173v-824h126zM296 395h378v669z" />
    <glyph glyph-name="five" unicode="5" horiz-adv-x="1056" 
d="M552 808c226 0 390 -174 390 -410c0 -239 -169 -414 -436 -414c-151 0 -309 60 -393 156l18 164h13c94 -137 240 -182 359 -182c193 0 301 120 301 273c0 164 -125 275 -281 275c-90 0 -173 -36 -231 -98l-119 72l68 572h629v-138h-505l-45 -342c63 46 146 72 232 72z
" />
    <glyph glyph-name="six" unicode="6" horiz-adv-x="1056" 
d="M955 419c9 -232 -177 -421 -410 -432c-237 -11 -435 167 -445 397c-5 117 40 211 104 292l427 543h176l-323 -413c18 5 39 7 63 7c182 0 398 -151 408 -394zM544 122c172 8 285 134 276 296c-10 170 -142 287 -309 278c-169 -10 -286 -143 -275 -311
c10 -162 134 -272 308 -263z" />
    <glyph glyph-name="seven" unicode="7" horiz-adv-x="1056" 
d="M128 1219h813v-91l-631 -1128h-161l609 1081h-630v138z" />
    <glyph glyph-name="eight" unicode="8" horiz-adv-x="1056" 
d="M527 -16c-219 0 -390 162 -390 369c0 145 84 266 210 325c-86 53 -140 144 -140 253c0 171 138 304 322 304c182 0 320 -133 320 -304c0 -109 -54 -200 -140 -253c127 -59 210 -180 210 -325c0 -207 -169 -369 -392 -369zM529 718c107 0 192 85 192 192
c0 109 -85 194 -192 194c-109 0 -194 -85 -194 -194c0 -107 85 -192 194 -192zM527 106c142 0 252 117 252 256c0 142 -110 252 -252 252c-140 0 -250 -110 -250 -252c0 -139 110 -256 250 -256z" />
    <glyph glyph-name="nine" unicode="9" horiz-adv-x="1056" 
d="M955 835c5 -112 -39 -210 -104 -292l-428 -543h-175l323 413c-18 -4 -40 -7 -63 -7c-182 0 -398 152 -408 394c-10 232 177 421 409 432c238 11 436 -167 446 -397zM544 523c169 10 284 141 274 311c-10 162 -139 273 -307 263c-171 -10 -285 -133 -276 -296
c9 -170 139 -288 309 -278z" />
    <glyph glyph-name="uni00B9" unicode="&#xb9;" horiz-adv-x="360" 
d="M142 522v603h-112v94h211v-697h-99z" />
    <glyph glyph-name="uni00B2" unicode="&#xb2;" horiz-adv-x="561" 
d="M199 616h303v-94h-505l284 330c81 94 101 125 101 170c0 77 -54 113 -112 113c-65 0 -117 -46 -114 -118h-99c-7 127 97 212 218 212c117 0 208 -79 208 -198c0 -88 -38 -133 -130 -239z" />
    <glyph glyph-name="uni00B3" unicode="&#xb3;" horiz-adv-x="556" 
d="M279 935c127 1 226 -82 226 -204c0 -121 -98 -219 -223 -219c-118 0 -219 91 -219 203h101c0 -60 55 -109 118 -109c72 0 125 59 125 127s-53 115 -128 115h-175l212 278h-253v93h432l-220 -284h4z" />
    <glyph glyph-name="fraction" unicode="&#x2044;" horiz-adv-x="458" 
d="M-250 0l851 1219h107l-850 -1219h-108z" />
    <glyph glyph-name="onehalf" unicode="&#xbd;" horiz-adv-x="1571" 
d="M284 406h-92v721h-136v92h228v-813zM1086 1219h107l-850 -1219h-108zM1113 92h380v-92h-588l338 375c106 117 125 155 125 211c0 98 -66 146 -145 147c-85 1 -151 -57 -149 -151l-100 1c-3 145 111 243 253 242c132 -1 236 -87 240 -225c4 -92 -33 -147 -156 -286z" />
    <glyph glyph-name="onequarter" unicode="&#xbc;" horiz-adv-x="1537" 
d="M56 1127v92h228v-813h-92v721h-136zM1138 1216h107l-850 -1219h-108zM1448 263v-92h-84v-171h-92v171h-393l370 642h115v-550h84zM1019 263h253v447z" />
    <glyph glyph-name="threequarters" unicode="&#xbe;" horiz-adv-x="1693" 
d="M586 650c0 -138 -112 -250 -254 -250c-141 0 -253 105 -253 236l96 2c0 -83 72 -147 157 -147c90 0 160 73 160 163c0 88 -70 147 -160 147h-199l256 332h-289v91h469l-258 -331h16c144 0 259 -104 259 -243zM1276 1216h107l-850 -1219h-108zM1605 263v-92h-84v-171h-92
v171h-393l370 642h115v-550h84zM1176 263h253v447z" />
    <glyph glyph-name="period" unicode="." horiz-adv-x="602" 
d="M301 -16c-63 0 -117 53 -117 117c0 63 54 117 117 117s117 -54 117 -117c0 -64 -54 -117 -117 -117z" />
    <glyph glyph-name="comma" unicode="," horiz-adv-x="556" 
d="M103 -249l211 454h153l-252 -454h-112z" />
    <glyph glyph-name="colon" unicode=":" horiz-adv-x="521" 
d="M260 647c-48 0 -91 41 -91 91c0 49 43 91 91 91c49 0 91 -42 91 -91c0 -50 -42 -91 -91 -91zM260 -16c-48 0 -91 40 -91 91c0 49 43 91 91 91c49 0 91 -42 91 -91c0 -51 -42 -91 -91 -91z" />
    <glyph glyph-name="semicolon" unicode=";" horiz-adv-x="565" 
d="M339 647c-50 0 -91 41 -91 91c0 49 41 91 91 91c49 0 91 -42 91 -91c0 -50 -42 -91 -91 -91zM50 -249l211 454h153l-252 -454h-112z" />
    <glyph glyph-name="ellipsis" unicode="&#x2026;" horiz-adv-x="1502" 
d="M301 -16c-63 0 -117 53 -117 117c0 63 54 117 117 117s117 -54 117 -117c0 -64 -54 -117 -117 -117zM745 -16c-63 0 -117 53 -117 117c0 63 54 117 117 117s117 -54 117 -117c0 -64 -54 -117 -117 -117zM1200 -16c-63 0 -117 53 -117 117c0 63 54 117 117 117
s117 -54 117 -117c0 -64 -54 -117 -117 -117z" />
    <glyph glyph-name="exclam" unicode="!" horiz-adv-x="520" 
d="M200 351l-13 868h133l-14 -868h-106zM254 -16c-49 0 -91 42 -91 91c0 50 42 91 91 91c48 0 91 -41 91 -91c0 -49 -43 -91 -91 -91z" />
    <glyph glyph-name="exclamdown" unicode="&#xa1;" horiz-adv-x="533" 
d="M266 647c-48 0 -91 41 -91 91c0 49 43 91 91 91c49 0 91 -42 91 -91c0 -50 -42 -91 -91 -91zM200 -406l14 868h106l13 -868h-133z" />
    <glyph glyph-name="question" unicode="?" horiz-adv-x="855" 
d="M360 341v112c0 303 295 181 295 447c0 127 -98 218 -234 218c-134 0 -231 -97 -231 -227c0 -17 0 -31 3 -47h-120c-2 17 -3 35 -3 52c0 193 149 339 351 339c204 0 352 -141 352 -335c0 -315 -291 -245 -291 -432v-127h-122zM427 -16c-49 0 -91 40 -91 91
c0 49 42 91 91 91c50 0 91 -42 91 -91c0 -51 -41 -91 -91 -91z" />
    <glyph glyph-name="questiondown" unicode="&#xbf;" horiz-adv-x="855" 
d="M428 647c-50 0 -91 42 -91 91c0 51 41 91 91 91c49 0 91 -40 91 -91c0 -49 -42 -91 -91 -91zM434 -422c-204 0 -352 141 -352 335c0 315 291 245 291 432v127h122v-112c0 -303 -295 -181 -295 -447c0 -127 98 -218 234 -218c134 0 231 97 231 227c0 17 0 31 -3 47h120
c2 -17 3 -35 3 -52c0 -193 -149 -339 -351 -339z" />
    <glyph glyph-name="periodcentered" unicode="&#xb7;" horiz-adv-x="587" 
d="M293 479c-57 0 -106 45 -106 106c0 57 49 106 106 106c56 0 108 -49 108 -106c0 -61 -52 -106 -108 -106z" />
    <glyph glyph-name="bullet" unicode="&#x2022;" horiz-adv-x="870" 
d="M435 254c-153 0 -284 125 -284 282c0 155 131 285 284 285c151 0 283 -130 283 -285c0 -157 -132 -282 -283 -282z" />
    <glyph glyph-name="asterisk" unicode="*" horiz-adv-x="707" 
d="M290 863l-67 39l86 122l-149 -13v76l149 -13l-86 122l67 39l63 -133l64 133l68 -39l-88 -122l150 13v-76l-150 13l88 -122l-68 -39l-64 133z" />
    <glyph glyph-name="numbersign" unicode="#" horiz-adv-x="1267" 
d="M277 0l44 302h-244l15 106h242l62 403h-246l18 104h239l45 304h103l-41 -304h325l44 304h104l-42 -304h245l-17 -104h-243l-57 -403h243l-13 -106h-243l-47 -302h-102l42 302h-328l-42 -302h-106zM441 408h327l58 403h-328z" />
    <glyph glyph-name="slash" unicode="/" horiz-adv-x="1118" 
d="M-29 -488l1047 1983h129l-1045 -1983h-131z" />
    <glyph glyph-name="backslash" unicode="\" horiz-adv-x="1118" 
d="M1018 -488l-1047 1983h131l1045 -1983h-129z" />
    <glyph glyph-name="parenleft" unicode="(" horiz-adv-x="561" 
d="M540 -481c-242 18 -432 286 -432 985c0 700 190 973 432 991v-97c-175 -23 -314 -263 -314 -894c0 -626 139 -865 314 -888v-97z" />
    <glyph glyph-name="parenright" unicode=")" horiz-adv-x="561" 
d="M21 -481v97c176 23 314 262 314 888c0 631 -138 871 -314 894v97c242 -18 432 -291 432 -991c0 -699 -190 -967 -432 -985z" />
    <glyph glyph-name="braceleft" unicode="{" horiz-adv-x="485" 
d="M349 -405c-94 0 -164 95 -164 216v420c0 153 -14 216 -122 270v91c109 55 122 123 122 269v417c0 123 70 217 164 217h75v-100c-101 0 -133 -28 -133 -134v-424c0 -120 -15 -219 -112 -291c97 -71 112 -171 112 -291v-432c0 -88 29 -127 133 -127v-101h-75z" />
    <glyph glyph-name="braceright" unicode="}" horiz-adv-x="485" 
d="M61 -405v101c104 0 133 39 133 127v432c0 120 15 220 112 291c-97 72 -112 171 -112 291v424c0 106 -32 134 -133 134v100h75c94 0 164 -94 164 -217v-417c0 -146 13 -214 122 -269v-91c-107 -54 -122 -117 -122 -270v-420c0 -121 -70 -216 -164 -216h-75z" />
    <glyph glyph-name="bracketleft" unicode="[" horiz-adv-x="528" 
d="M178 -406v1901h327v-102h-210v-1697h210v-102h-327z" />
    <glyph glyph-name="bracketright" unicode="]" horiz-adv-x="527" 
d="M23 -406v102h209v1697h-209v102h326v-1901h-326z" />
    <glyph glyph-name="hyphen" unicode="-" horiz-adv-x="865" 
d="M148 358v130h569v-130h-569z" />
    <glyph glyph-name="uni00AD" unicode="&#xad;" horiz-adv-x="865" 
d="M148 358v130h569v-130h-569z" />
    <glyph glyph-name="endash" unicode="&#x2013;" horiz-adv-x="1109" 
d="M148 358v130h813v-130h-813z" />
    <glyph glyph-name="emdash" unicode="&#x2014;" horiz-adv-x="1921" 
d="M148 358v130h1625v-130h-1625z" />
    <glyph glyph-name="underscore" unicode="_" horiz-adv-x="1271" 
d="M148 -130v130h975v-130h-975z" />
    <glyph glyph-name="quotesinglbase" unicode="&#x201a;" horiz-adv-x="498" 
d="M74 -249l211 454h153l-252 -454h-112z" />
    <glyph glyph-name="quotedblbase" unicode="&#x201e;" horiz-adv-x="764" 
d="M74 -249l211 454h153l-252 -454h-112zM340 -249l212 454h152l-252 -454h-112z" />
    <glyph glyph-name="quotedblleft" unicode="&#x201c;" horiz-adv-x="764" 
d="M59 766l252 453h112l-211 -453h-153zM326 766l252 453h112l-212 -453h-152z" />
    <glyph glyph-name="quotedblright" unicode="&#x201d;" horiz-adv-x="762" 
d="M73 766l211 453h153l-252 -453h-112zM339 766l212 453h152l-252 -453h-112z" />
    <glyph glyph-name="quoteleft" unicode="&#x2018;" horiz-adv-x="497" 
d="M59 766l252 453h112l-211 -453h-153z" />
    <glyph glyph-name="quoteright" unicode="&#x2019;" horiz-adv-x="496" 
d="M73 766l211 453h153l-252 -453h-112z" />
    <glyph glyph-name="guillemotleft" unicode="&#xab;" horiz-adv-x="784" 
d="M308 154l-247 299l247 300h113l-247 -300l247 -299h-113zM607 154l-247 299l247 300h117l-247 -300l247 -299h-117z" />
    <glyph glyph-name="guillemotright" unicode="&#xbb;" horiz-adv-x="784" 
d="M60 154l247 299l-247 300h114l247 -300l-247 -299h-114zM359 154l247 299l-247 300h117l247 -300l-247 -299h-117z" />
    <glyph glyph-name="guilsinglleft" unicode="&#x2039;" horiz-adv-x="481" 
d="M308 154l-247 299l247 300h113l-247 -300l247 -299h-113z" />
    <glyph glyph-name="guilsinglright" unicode="&#x203a;" horiz-adv-x="482" 
d="M60 154l247 299l-247 300h114l247 -300l-247 -299h-114z" />
    <glyph glyph-name="quotedbl" unicode="&#x22;" horiz-adv-x="741" 
d="M185 692l-14 543h126l-14 -543h-98zM457 692l-15 543h128l-14 -543h-99z" />
    <glyph glyph-name="quotesingle" unicode="'" horiz-adv-x="468" 
d="M185 757l-14 478h126l-14 -478h-98z" />
    <glyph glyph-name="cent" unicode="&#xa2;" horiz-adv-x="940" 
d="M564 873c-169 0 -303 -135 -303 -304s134 -304 303 -304c83 0 165 28 222 80v-135c-59 -38 -129 -61 -204 -64v-148h-86v153c-210 32 -369 206 -369 418s159 386 369 417v153h86v-148c75 -3 144 -25 204 -63v-135c-59 52 -139 80 -222 80z" />
    <glyph glyph-name="currency" unicode="&#xa4;" horiz-adv-x="1140" 
d="M275 221l-73 78l83 81c-94 122 -94 298 0 420l-81 79l73 78l83 -84c123 96 297 97 421 1l81 82l75 -73l-82 -82c95 -123 95 -299 0 -422l82 -80l-74 -78l-82 85c-124 -96 -300 -96 -423 0zM389 413c101 -99 260 -101 359 0c98 97 98 257 -2 354c-99 98 -256 98 -356 -1
c-95 -96 -97 -257 -1 -353z" />
    <glyph glyph-name="dollar" unicode="$" horiz-adv-x="999" 
d="M883 323c0 -186 -127 -307 -300 -333v-130h-132v127c-157 18 -285 110 -343 245l125 75c42 -112 142 -185 275 -185s237 71 237 197c0 299 -588 201 -588 593c0 182 125 302 294 320v130h132v-135c112 -23 203 -87 255 -164l-101 -89c-60 78 -135 123 -236 123
c-112 0 -206 -57 -206 -174c0 -286 588 -183 588 -600z" />
    <glyph glyph-name="Euro" unicode="&#x20ac;" horiz-adv-x="1340" 
d="M862 122c125 0 250 52 338 138v-175c-101 -62 -224 -101 -338 -101c-276 0 -508 175 -592 421h-141v123h112c-3 27 -5 54 -5 82c0 24 1 48 4 71h-111v124h138c81 251 315 430 595 430c110 0 229 -35 327 -96l-43 -135c-81 59 -183 93 -284 93c-203 0 -374 -119 -448 -292
h669l-39 -124h-665c-3 -23 -5 -47 -5 -71c0 -28 2 -55 7 -82h616l-39 -123h-540c76 -169 245 -283 444 -283z" />
    <glyph glyph-name="florin" unicode="&#x192;" horiz-adv-x="818" 
d="M639 1135c-83 0 -148 -61 -163 -147l-28 -175h228l-15 -104h-229l-177 -1115h-120l176 1115h-137l16 104h137l30 191c21 131 142 231 270 231c42 0 86 -13 106 -27l-13 -101c-20 18 -54 28 -81 28z" />
    <glyph glyph-name="sterling" unicode="&#xa3;" horiz-adv-x="1073" 
d="M352 98h618v-98h-722v551h-130v93h130v221c0 216 148 370 361 370c149 0 294 -105 338 -250l-101 -44c-23 109 -128 189 -237 189c-155 0 -257 -106 -257 -265v-221h302v-93h-302v-453z" />
    <glyph glyph-name="yen" unicode="&#xa5;" horiz-adv-x="1155" 
d="M636 587v-15h333v-84h-333v-166h333v-85h-333v-237h-118v237h-329v85h329v166h-330v84h330v15l-420 632h129l349 -537l350 537h128z" />
    <glyph glyph-name="plus" unicode="+" horiz-adv-x="1184" 
d="M532 0v442h-444v124h444v442h122v-442h442v-124h-442v-442h-122z" />
    <glyph glyph-name="minus" unicode="&#x2212;" horiz-adv-x="1240" 
d="M222 410v130h796v-130h-796z" />
    <glyph glyph-name="multiply" unicode="&#xd7;" horiz-adv-x="1016" 
d="M907 816l-313 -312l313 -312l-85 -88l-314 314l-315 -314l-84 88l312 312l-312 312l84 88l315 -314l314 314z" />
    <glyph glyph-name="divide" unicode="&#xf7;" horiz-adv-x="1173" 
d="M586 640c-44 0 -83 36 -83 83c0 46 39 83 83 83c46 0 85 -37 85 -83c0 -47 -39 -83 -85 -83zM99 410v74h975v-74h-975zM586 88c-44 0 -83 36 -83 83c0 45 39 83 83 83c46 0 85 -38 85 -83c0 -47 -39 -83 -85 -83z" />
    <glyph glyph-name="equal" unicode="=" horiz-adv-x="1419" 
d="M222 540v91h975v-91h-975zM222 231v91h975v-91h-975z" />
    <glyph glyph-name="notequal" unicode="&#x2260;" horiz-adv-x="1291" 
d="M1134 540h-335l-186 -218h521v-91h-599l-192 -224h-88l192 224h-288v91h366l187 218h-553v91h631l161 188h87l-161 -188h257v-91z" />
    <glyph glyph-name="greater" unicode="&#x3e;" horiz-adv-x="1091" 
d="M107 1068l897 -450v-122l-897 -454v116l789 398l-789 398v114z" />
    <glyph glyph-name="less" unicode="&#x3c;" horiz-adv-x="1091" 
d="M984 1068v-114l-789 -398l789 -398v-116l-897 454v122z" />
    <glyph glyph-name="greaterequal" unicode="&#x2265;" horiz-adv-x="1137" 
d="M127 1118l897 -421v-122l-897 -424v116l785 370l-785 367v114zM127 0v83h897v-83h-897z" />
    <glyph glyph-name="lessequal" unicode="&#x2264;" horiz-adv-x="1137" 
d="M1010 1118v-114l-785 -367l785 -370v-116l-897 424v122zM113 0v83h897v-83h-897z" />
    <glyph glyph-name="plusminus" unicode="&#xb1;" horiz-adv-x="1379" 
d="M632 304v293h-506v115h506v292h115v-292h506v-115h-506v-293h-115zM126 0v104h1127v-104h-1127z" />
    <glyph glyph-name="approxequal" unicode="&#x2248;" horiz-adv-x="1165" 
d="M756 519c-109 0 -169 71 -215 121c-39 44 -73 74 -123 74c-85 0 -138 -78 -135 -178h-96c-7 163 91 273 232 273c90 0 142 -45 202 -118c34 -41 68 -80 127 -80c79 0 138 72 133 177h96c6 -154 -86 -269 -221 -269zM756 195c-109 0 -168 70 -215 120
c-40 44 -73 75 -123 75c-85 0 -138 -80 -135 -177h-96c-7 162 91 273 232 273c90 0 143 -46 202 -119c34 -42 68 -79 127 -79c79 0 138 70 133 177h96c6 -156 -86 -270 -221 -270z" />
    <glyph glyph-name="asciitilde" unicode="~" horiz-adv-x="1164" 
d="M756 283c-109 0 -171 71 -215 122c-41 47 -73 74 -124 74c-84 0 -138 -79 -134 -178h-96c-10 161 89 274 230 274c88 0 145 -45 204 -118c35 -44 70 -80 126 -80c80 0 140 70 134 177h96c11 -154 -87 -271 -221 -271z" />
    <glyph glyph-name="logicalnot" unicode="&#xac;" horiz-adv-x="1304" 
d="M983 187v416h-883v101h982v-517h-99z" />
    <glyph glyph-name="asciicircum" unicode="^" horiz-adv-x="1164" 
d="M1095 322h-116l-397 789l-398 -789h-115l452 897h122z" />
    <glyph glyph-name="emptyset" unicode="&#x2205;" horiz-adv-x="1274" 
d="M1001 795c76 -86 122 -199 122 -322c0 -268 -218 -486 -486 -486c-123 0 -236 46 -322 122l-70 -70l-42 42l70 70c-76 86 -122 199 -122 322c0 268 218 486 486 486c123 0 236 -46 322 -122l70 70l42 -42zM260 473c0 -94 34 -180 90 -245l532 532c-65 56 -151 90 -245 90
c-210 0 -377 -167 -377 -377zM637 96c210 0 377 167 377 377c0 94 -34 180 -90 245l-532 -532c65 -56 151 -90 245 -90z" />
    <glyph glyph-name="infinity" unicode="&#x221e;" horiz-adv-x="1402" 
d="M402 237c-125 0 -219 101 -224 236c5 135 99 236 224 236c93 0 199 -60 298 -168c97 108 205 168 297 168c129 0 220 -96 225 -236c-5 -140 -96 -236 -225 -236c-92 0 -200 60 -297 168c-99 -108 -205 -168 -298 -168zM402 328c69 0 153 52 238 145
c-85 93 -169 145 -238 145c-71 0 -131 -64 -133 -145c2 -81 62 -145 133 -145zM997 328c74 0 130 62 134 145c-4 83 -60 145 -134 145c-70 0 -154 -52 -237 -145c83 -93 167 -145 237 -145z" />
    <glyph glyph-name="integral" unicode="&#x222b;" horiz-adv-x="776" 
d="M177 -307c-90 0 -142 73 -108 175h91c-9 -58 0 -79 33 -79c23 0 45 18 49 47l195 1225c13 85 86 143 164 143c86 0 141 -73 105 -175h-91c9 58 0 80 -32 80c-23 0 -46 -18 -51 -48l-195 -1225c-13 -85 -84 -143 -160 -143z" />
    <glyph glyph-name="product" unicode="&#x220f;" horiz-adv-x="1264" 
d="M237 -195v1240h-125v98h1040v-98h-125v-1240h-97v1240h-595v-1240h-98z" />
    <glyph glyph-name="summation" unicode="&#x2211;" horiz-adv-x="1092" 
d="M77 -193v76l600 592l-600 591v77h930v-104h-753l563 -564l-563 -564h753v-104h-930z" />
    <glyph glyph-name="radical" unicode="&#x221a;" horiz-adv-x="1131" 
d="M362 -127l-186 576h-108v91h173l167 -511l579 1210l83 -36l-636 -1330h-72z" />
    <glyph glyph-name="uni00B5" unicode="&#xb5;" horiz-adv-x="1104" 
d="M799 813h133v-813h-133v121c-59 -83 -153 -137 -260 -137c-83 0 -159 32 -215 85v-475h-102v1219h133v-493c0 -120 98 -218 220 -218c123 0 224 98 224 218v493z" />
    <glyph glyph-name="partialdiff" unicode="&#x2202;" horiz-adv-x="953" 
d="M303 1146c285 41 506 -234 504 -613c-1 -294 -169 -522 -387 -522c-255 0 -372 208 -271 478c93 250 311 348 514 257c-54 214 -194 344 -360 302v98zM687 533c0 35 -1 69 -5 102c-171 112 -341 42 -423 -177c-73 -195 0 -356 161 -356c145 0 265 192 267 431z" />
    <glyph glyph-name="percent" unicode="%" horiz-adv-x="1241" 
d="M331 725c-124 0 -223 114 -223 253c0 142 99 257 223 257c121 0 219 -115 219 -257c0 -139 -98 -253 -219 -253zM132 0l836 1219h140l-836 -1219h-140zM331 829c61 0 117 67 117 149c0 87 -56 153 -117 153c-64 0 -117 -66 -117 -153c0 -82 53 -149 117 -149zM911 -16
c-124 0 -221 115 -221 257c0 139 97 253 221 253c123 0 221 -114 221 -253c0 -142 -98 -257 -221 -257zM911 88c62 0 115 66 115 153c0 82 -53 149 -115 149c-64 0 -117 -67 -117 -149c0 -87 53 -153 117 -153z" />
    <glyph glyph-name="perthousand" unicode="&#x2030;" horiz-adv-x="1745" 
d="M331 725c-124 0 -223 114 -223 253c0 142 99 257 223 257c121 0 219 -115 219 -257c0 -139 -98 -253 -219 -253zM132 0l836 1219h140l-836 -1219h-140zM331 829c61 0 117 67 117 149c0 87 -56 153 -117 153c-64 0 -117 -66 -117 -153c0 -82 53 -149 117 -149zM911 -16
c-124 0 -221 115 -221 257c0 139 97 253 221 253c123 0 221 -114 221 -253c0 -142 -98 -257 -221 -257zM1436 -16c-124 0 -223 115 -223 257c0 139 99 253 223 253c122 0 219 -114 219 -253c0 -142 -97 -257 -219 -257zM911 88c62 0 115 66 115 153c0 82 -53 149 -115 149
c-64 0 -117 -67 -117 -149c0 -87 53 -153 117 -153zM1434 88c64 0 116 66 116 153c0 82 -52 149 -116 149c-63 0 -117 -67 -117 -149c0 -87 54 -153 117 -153z" />
    <glyph glyph-name="lozenge" unicode="&#x25ca;" horiz-adv-x="1112" 
d="M557 85l-491 489l491 491l489 -490zM558 236l337 339l-337 338l-340 -339z" />
    <glyph glyph-name="uniF8FF" unicode="&#xf8ff;" horiz-adv-x="1485" 
d="M743 0c-340 0 -618 278 -618 618c0 341 278 617 618 617c341 0 617 -276 617 -617c0 -340 -276 -618 -617 -618zM743 59c309 0 559 251 559 559s-250 559 -559 559c-307 0 -559 -251 -559 -559s252 -559 559 -559zM419 353c-16 0 -29 13 -29 29v471c0 17 13 30 29 30
c17 0 30 -13 30 -30v-471c0 -16 -13 -29 -30 -29zM743 353c-16 0 -29 13 -29 29v471c0 17 13 30 29 30s29 -13 29 -30v-471c0 -16 -13 -29 -29 -29zM1066 353c-6 0 -14 3 -19 9l-236 235c-11 13 -11 30 0 42l236 235c11 12 29 12 40 0c12 -11 12 -30 0 -42l-214 -214
l214 -215c12 -11 10 -28 0 -41c-4 -6 -13 -9 -21 -9zM507 588c-16 0 -29 13 -29 30c0 16 13 29 29 29h148c16 0 29 -13 29 -29c0 -17 -13 -30 -29 -30h-148z" />
    <glyph glyph-name="at" unicode="@" horiz-adv-x="1258" 
d="M1070 309h-110v72c-48 -56 -133 -95 -202 -95c-148 0 -267 114 -267 259c0 146 119 260 265 260c76 0 160 -43 204 -103v54c0 149 -130 270 -293 270c-239 0 -429 -204 -429 -455c0 -261 216 -464 481 -464h351v-107h-351c-330 0 -588 250 -588 571
c0 313 235 565 536 565c224 0 403 -166 403 -380v-447zM792 380c80 0 146 46 168 114v102c-22 67 -88 113 -168 113c-101 0 -172 -70 -172 -164c0 -95 71 -165 172 -165z" />
    <glyph glyph-name="ampersand" unicode="&#x26;" horiz-adv-x="1126" 
d="M1027 683v-134h-113v-201c0 -202 -149 -348 -368 -348c-213 0 -384 140 -384 335c0 117 60 224 153 287c-86 65 -142 167 -142 282c0 183 142 315 319 315h289v-138h-266c-109 0 -207 -64 -207 -185c0 -126 103 -213 231 -213h242v201h133v-201h113zM544 119
c145 0 237 97 237 229v201h-270c-123 0 -222 -91 -222 -211c0 -130 115 -219 255 -219z" />
    <glyph glyph-name="paragraph" unicode="&#xb6;" horiz-adv-x="949" 
d="M424 -244v919h-52c-179 0 -289 95 -289 273c0 177 110 271 289 271h127v-1463h-75zM652 -244v1463h75v-1463h-75z" />
    <glyph glyph-name="section" unicode="&#xa7;" horiz-adv-x="1049" 
d="M847 400c40 -36 65 -82 65 -143c0 -156 -185 -254 -391 -254c-189 0 -343 82 -402 186l88 50c41 -78 156 -141 319 -141c149 0 284 55 284 159c0 222 -634 136 -634 450c0 57 22 105 65 145c-40 35 -65 81 -65 141c0 159 171 242 343 242c132 0 255 -47 324 -115l-72 -59
c-52 51 -143 85 -245 85c-126 0 -247 -50 -247 -148c0 -223 635 -137 635 -452c0 -57 -24 -105 -67 -146zM279 710c0 -155 299 -165 486 -256c29 26 45 57 45 94c0 152 -298 161 -486 251c-29 -23 -45 -53 -45 -89z" />
    <glyph glyph-name="copyright" unicode="&#xa9;" horiz-adv-x="1500" 
d="M750 -16c-345 0 -626 281 -626 626c0 344 281 625 626 625s626 -281 626 -625c0 -345 -281 -626 -626 -626zM749 63c306 0 548 243 548 547c0 303 -242 546 -548 546c-304 0 -546 -243 -546 -546c0 -304 242 -547 546 -547zM757 262c-192 0 -347 155 -347 347
c0 193 155 348 347 348c157 0 288 -102 333 -242h-118c-39 79 -121 133 -215 133c-131 0 -238 -105 -238 -239c0 -133 107 -238 238 -238c94 0 176 54 215 133h118c-45 -141 -176 -242 -333 -242z" />
    <glyph glyph-name="registered" unicode="&#xae;" horiz-adv-x="1500" 
d="M750 1235c345 0 626 -281 626 -625c0 -345 -281 -626 -626 -626s-626 281 -626 626c0 344 281 625 626 625zM750 63c306 0 548 243 548 547c0 303 -242 546 -548 546c-304 0 -546 -243 -546 -546c0 -304 242 -547 546 -547zM974 746c0 -82 -53 -149 -127 -172l153 -281
h-83l-152 273h-108v-273h-73v633h207c102 0 183 -79 183 -180zM657 853v-214h134c60 0 109 47 109 107s-49 107 -109 107h-134z" />
    <glyph glyph-name="trademark" unicode="&#x2122;" horiz-adv-x="1418" 
d="M110 1144v75h392v-75h-155v-495h-84v495h-153zM1106 1219h90v-570h-83v439l-212 -314l-209 309v-434h-85v570h91l204 -304z" />
    <glyph glyph-name="degree" unicode="&#xb0;" horiz-adv-x="810" 
d="M405 800c-126 0 -228 102 -228 227s102 228 228 228c125 0 227 -103 227 -228s-102 -227 -227 -227zM405 876c85 0 151 66 151 151c0 86 -66 151 -151 151c-86 0 -151 -65 -151 -151c0 -85 65 -151 151 -151z" />
    <glyph glyph-name="bar" unicode="|" horiz-adv-x="533" 
d="M222 -244v1463h89v-1463h-89z" />
    <glyph glyph-name="brokenbar" unicode="&#xa6;" horiz-adv-x="533" 
d="M222 634v585h89v-585h-89zM222 -244v585h89v-585h-89z" />
    <glyph glyph-name="uni2113" horiz-adv-x="998" 
d="M558 -8c-215 0 -311 153 -324 312v18c-36 -23 -75 -55 -114 -85l-42 80c54 44 107 80 154 120v475c0 322 155 422 301 422c171 0 246 -136 246 -287c0 -221 -165 -428 -413 -646v-45c0 -177 110 -255 221 -255c127 0 227 97 276 185l67 -58c-91 -161 -221 -236 -372 -236
zM364 530c174 171 312 340 312 510c0 112 -37 195 -145 195c-73 0 -167 -71 -167 -305v-400z" />
    <glyph glyph-name="dagger" unicode="&#x2020;" horiz-adv-x="789" 
d="M721 769v-91h-284v-954h-91v954h-278v91h278v320h91v-320h284z" />
    <glyph glyph-name="daggerdbl" unicode="&#x2021;" horiz-adv-x="869" 
d="M761 678h-284v-537h284v-89h-284v-328h-91v328h-278v89h278v537h-278v91h278v320h91v-320h284v-91z" />
    <glyph glyph-name="estimated" horiz-adv-x="1598" 
d="M814 -15c-383 0 -694 280 -694 623c0 348 311 627 694 627c386 0 696 -279 696 -627v-16h-1125c-6 0 -10 -2 -10 -7v-341c0 -15 7 -28 15 -39c109 -112 260 -185 426 -185c180 0 340 81 449 208h99c-124 -147 -325 -243 -550 -243zM385 626h863c5 0 7 6 7 11v341
c0 15 -5 31 -16 41c-109 107 -257 179 -423 179c-164 0 -314 -73 -424 -184c-10 -11 -17 -26 -17 -42v-335c0 -5 4 -11 10 -11z" />
    <glyph glyph-name="uni0308" unicode="&#x308;" 
d="M-524 1055c-49 0 -91 41 -91 89c0 52 42 91 91 91s91 -39 91 -91c0 -48 -42 -89 -91 -89zM-221 1055c-49 0 -91 41 -91 89c0 52 42 91 91 91s91 -39 91 -91c0 -48 -42 -89 -91 -89z" />
    <glyph glyph-name="uni0307" unicode="&#x307;" 
d="M-221 1055c-49 0 -91 41 -91 89c0 52 42 91 91 91s91 -39 91 -91c0 -48 -42 -89 -91 -89z" />
    <glyph glyph-name="gravecomb" unicode="&#x300;" 
d="M-148 918l-245 301h156l178 -301h-89z" />
    <glyph glyph-name="acutecomb" unicode="&#x301;" 
d="M-365 918l178 301h156l-245 -301h-89z" />
    <glyph glyph-name="uni030B" unicode="&#x30b;" 
d="M-628 918l176 301h155l-243 -301h-88zM-363 918l176 301h155l-243 -301h-88z" />
    <glyph glyph-name="uni030C.alt" 
d="M-394 766l211 453h153l-252 -453h-112z" />
    <glyph glyph-name="uni0302" unicode="&#x302;" 
d="M-525 918l160 301h136l161 -301h-102l-125 213l-127 -213h-103z" />
    <glyph glyph-name="uni030C" unicode="&#x30c;" 
d="M-366 918l-159 301h102l127 -213l125 213h103l-161 -301h-137z" />
    <glyph glyph-name="uni0306" unicode="&#x306;" 
d="M-372 969c-155 0 -268 96 -268 250h82c0 -91 78 -166 186 -166c109 0 187 75 187 166h83c0 -154 -114 -250 -270 -250z" />
    <glyph glyph-name="uni030A" unicode="&#x30a;" 
d="M-284 889c-94 0 -172 78 -172 171c0 94 78 170 172 170c92 0 169 -76 169 -170c0 -93 -77 -171 -169 -171zM-284 961c53 0 97 42 97 99c0 53 -44 101 -97 101c-55 0 -98 -48 -98 -101c0 -57 43 -99 98 -99z" />
    <glyph glyph-name="tildecomb" unicode="&#x303;" 
d="M-292 995c-122 0 -151 133 -214 133c-52 0 -78 -57 -78 -127h-99c0 127 65 225 174 225c115 0 151 -134 217 -134c49 0 77 43 77 127h97c0 -125 -60 -224 -174 -224z" />
    <glyph glyph-name="uni0304" unicode="&#x304;" 
d="M-587 978v92h439v-92h-439z" />
    <glyph glyph-name="uni0312" unicode="&#x312;" 
d="M-377 933l195 286h94l-122 -286h-167z" />
    <glyph glyph-name="dotbelowcomb" unicode="&#x323;" 
d="M-221 -406c-49 0 -91 40 -91 91c0 48 42 91 91 91s91 -43 91 -91c0 -51 -42 -91 -91 -91z" />
    <glyph glyph-name="uni0326" unicode="&#x326;" 
d="M-340 -386l122 286h167l-195 -286h-94z" />
    <glyph glyph-name="uni0327" unicode="&#x327;" 
d="M-261 -423c-75 0 -158 48 -189 108l73 29c23 -33 75 -57 116 -57c48 0 87 39 87 89c0 74 -69 104 -157 70l-64 41l74 143h79l-52 -107c111 22 200 -44 200 -147c0 -94 -73 -169 -167 -169z" />
    <glyph glyph-name="uni0328" unicode="&#x328;" 
d="M-268 -421c-109 5 -182 65 -182 169c0 119 101 198 234 275l70 -23c-112 -62 -210 -128 -210 -241c0 -61 38 -107 108 -107c61 0 118 28 154 75l45 -65c-60 -60 -136 -86 -219 -83z" />
    <glyph glyph-name="uni0335" unicode="&#x335;" 
d="M-626 361v128h478v-128h-478z" />
    <glyph glyph-name="uni0336" unicode="&#x336;" 
d="M-1310 375v95h1162v-95h-1162z" />
    <glyph glyph-name="uni0337" unicode="&#x337;" 
d="M-415 145v141l373 395v-142z" />
    <glyph glyph-name="uni0338" unicode="&#x338;" 
d="M-632 -76l-102 61l642 920l100 -63z" />
    <glyph glyph-name="acute" unicode="&#xb4;" horiz-adv-x="424" 
d="M59 918l178 301h156l-245 -301h-89z" />
    <glyph glyph-name="breve" unicode="&#x2d8;" horiz-adv-x="741" 
d="M369 969c-155 0 -268 96 -268 250h82c0 -91 78 -166 186 -166c109 0 187 75 187 166h83c0 -154 -114 -250 -270 -250z" />
    <glyph glyph-name="caron" unicode="&#x2c7;" horiz-adv-x="594" 
d="M228 918l-159 301h102l127 -213l125 213h103l-161 -301h-137z" />
    <glyph glyph-name="cedilla" unicode="&#xb8;" horiz-adv-x="529" 
d="M268 -423c-75 0 -158 48 -189 108l73 29c23 -33 75 -57 116 -57c48 0 87 39 87 89c0 74 -69 104 -157 70l-64 41l74 143h79l-52 -107c111 22 200 -44 200 -147c0 -94 -73 -169 -167 -169z" />
    <glyph glyph-name="circumflex" unicode="&#x2c6;" horiz-adv-x="593" 
d="M68 918l160 301h136l161 -301h-102l-125 213l-127 -213h-103z" />
    <glyph glyph-name="dieresis" unicode="&#xa8;" horiz-adv-x="745" 
d="M196 1055c-49 0 -91 41 -91 89c0 52 42 91 91 91s91 -39 91 -91c0 -48 -42 -89 -91 -89zM499 1055c-49 0 -91 41 -91 89c0 52 42 91 91 91s91 -39 91 -91c0 -48 -42 -89 -91 -89z" />
    <glyph glyph-name="dotaccent" unicode="&#x2d9;" horiz-adv-x="442" 
d="M221 1055c-49 0 -91 41 -91 89c0 52 42 91 91 91s91 -39 91 -91c0 -48 -42 -89 -91 -89z" />
    <glyph glyph-name="grave" unicode="`" horiz-adv-x="424" 
d="M276 918l-245 301h156l178 -301h-89z" />
    <glyph glyph-name="hungarumlaut" unicode="&#x2dd;" horiz-adv-x="424" 
d="M59 918l178 301h156l-245 -301h-89z" />
    <glyph glyph-name="macron" unicode="&#xaf;" horiz-adv-x="735" 
d="M148 978v92h439v-92h-439z" />
    <glyph glyph-name="ogonek" unicode="&#x2db;" horiz-adv-x="544" 
d="M276 -421c-109 5 -182 65 -182 169c0 119 101 198 234 275l70 -23c-112 -62 -210 -128 -210 -241c0 -61 38 -107 108 -107c61 0 118 28 154 75l45 -65c-60 -60 -136 -86 -219 -83z" />
    <glyph glyph-name="ring" unicode="&#x2da;" horiz-adv-x="570" 
d="M286 889c-94 0 -172 78 -172 171c0 94 78 170 172 170c92 0 169 -76 169 -170c0 -93 -77 -171 -169 -171zM286 961c53 0 97 42 97 99c0 53 -44 101 -97 101c-55 0 -98 -48 -98 -101c0 -57 43 -99 98 -99z" />
    <glyph glyph-name="tilde" unicode="&#x2dc;" horiz-adv-x="800" 
d="M508 995c-76 0 -120 45 -149 89c-21 33 -41 44 -65 44c-52 0 -78 -57 -78 -127h-99c0 127 65 225 174 225c71 0 115 -43 149 -90c15 -21 33 -44 68 -44c49 0 77 43 77 127h97c0 -125 -60 -224 -174 -224z" />
    <glyph glyph-name="uni0338.case" 
d="M-893 -76l-103 61l915 1312l101 -63z" />
    </font>
</defs>
</svg>
