<?xml version="1.0" standalone="no"?>
<!DOCTYPE svg PUBLIC "-//W3C//DTD SVG 1.1//EN" "http://www.w3.org/Graphics/SVG/1.1/DTD/svg11.dtd" >
<svg xmlns="http://www.w3.org/2000/svg" xmlns:xlink="http://www.w3.org/1999/xlink" version="1.1">
<metadata>
Created by FontForge 20190801 at Thu Apr 18 20:41:59 2019
 By Jimmy Wärting
Copyright \(c\) 2015 Now by Alfredo Marco Pradil. All rights reserved.
</metadata>
<defs>
<font id="Now-Thin" horiz-adv-x="0" >
  <font-face 
    font-family="Now Thin"
    font-weight="100"
    font-stretch="normal"
    units-per-em="2048"
    panose-1="0 0 2 0 0 0 0 0 0 0"
    ascent="1638"
    descent="-410"
    x-height="813"
    cap-height="1219"
    bbox="-1315 -553 1822 1901"
    underline-thickness="50"
    underline-position="-100"
    stemh="33"
    stemv="33"
    unicode-range="U+0020-FB02"
  />
<missing-glyph horiz-adv-x="988" 
d="M197 0v1219h594v-1219h-594zM229 33h530v1154h-530v-1154z" />
    <glyph glyph-name="fi" unicode="fi" horiz-adv-x="941" 
d="M214 1318c0 98 80 177 178 177c27 0 68 -11 89 -26v-21l-89 15c-82 0 -145 -64 -145 -145v-505h234v-33h-234v-780h-33v780h-136v33h136v505zM728 1235c26 0 49 -22 49 -48c0 -28 -23 -49 -49 -49s-49 21 -49 49c0 26 23 48 49 48zM712 0v813h32v-813h-32z" />
    <glyph glyph-name="fl" unicode="fl" horiz-adv-x="941" 
d="M214 1318c0 98 80 177 178 177c27 0 68 -11 89 -26v-21l-89 15c-82 0 -145 -64 -145 -145v-505h234v-33h-234v-780h-33v780h-136v33h136v505zM712 1495h32v-1495h-32v1495z" />
    <glyph glyph-name=".notdef" horiz-adv-x="988" 
d="M197 0v1219h594v-1219h-594zM229 33h530v1154h-530v-1154z" />
    <glyph glyph-name="space" unicode=" " horiz-adv-x="520" 
 />
    <glyph glyph-name="A" unicode="A" horiz-adv-x="1107" 
d="M974 0l-113 315h-616l-113 -315h-37l440 1219h36l441 -1219h-38zM257 348h592l-296 824z" />
    <glyph glyph-name="Aacute" unicode="&#xc1;" horiz-adv-x="1107" 
d="M749 1625l-175 -294h-41l162 294h54zM974 0l-113 315h-616l-113 -315h-37l440 1219h36l441 -1219h-38zM257 348h592l-296 824z" />
    <glyph glyph-name="Abreve" unicode="&#x102;" horiz-adv-x="1107" 
d="M553 1404c-138 0 -247 98 -247 221h33c0 -106 94 -188 214 -188c121 0 215 82 215 188h33c0 -123 -109 -221 -248 -221zM974 0l-113 315h-616l-113 -315h-37l440 1219h36l441 -1219h-38zM257 348h592l-296 824z" />
    <glyph glyph-name="Acircumflex" unicode="&#xc2;" horiz-adv-x="1107" 
d="M554 1588l-128 -257h-50l157 294h41l157 -294h-50zM974 0l-113 315h-616l-113 -315h-37l440 1219h36l441 -1219h-38zM257 348h592l-296 824z" />
    <glyph glyph-name="Adieresis" unicode="&#xc4;" horiz-adv-x="1107" 
d="M429 1544c-26 0 -49 21 -49 49c0 26 23 48 49 48s49 -22 49 -48c0 -28 -23 -49 -49 -49zM678 1544c-26 0 -49 21 -49 49c0 26 23 48 49 48s49 -22 49 -48c0 -28 -23 -49 -49 -49zM974 0l-113 315h-616l-113 -315h-37l440 1219h36l441 -1219h-38zM257 348h592l-296 824z
" />
    <glyph glyph-name="Agrave" unicode="&#xc0;" horiz-adv-x="1107" 
d="M574 1331h-41l-175 294h54zM974 0l-113 315h-616l-113 -315h-37l440 1219h36l441 -1219h-38zM257 348h592l-296 824z" />
    <glyph glyph-name="Amacron" unicode="&#x100;" horiz-adv-x="1107" 
d="M757 1446v-32h-406v32h406zM974 0l-113 315h-616l-113 -315h-37l440 1219h36l441 -1219h-38zM257 348h592l-296 824z" />
    <glyph glyph-name="Aogonek" unicode="&#x104;" horiz-adv-x="1107" 
d="M1132 -328l15 -26c-49 -46 -91 -69 -163 -69c-99 0 -151 64 -151 161c0 110 70 183 141 263l-113 314h-616l-113 -315h-37l440 1219h36l441 -1219c-65 -67 -150 -151 -150 -262c0 -76 41 -128 122 -128c65 0 102 19 148 62zM257 348h592l-296 824z" />
    <glyph glyph-name="Aring" unicode="&#xc5;" horiz-adv-x="1107" 
d="M555 1310c-77 0 -138 61 -138 136c0 77 61 138 138 138c74 0 136 -61 136 -138c0 -75 -62 -136 -136 -136zM555 1554c-60 0 -108 -48 -108 -108c0 -58 48 -105 108 -105c58 0 105 47 105 105c0 60 -47 108 -105 108zM974 0l-113 315h-616l-113 -315h-37l440 1219h36
l441 -1219h-38zM257 348h592l-296 824z" />
    <glyph glyph-name="Atilde" unicode="&#xc3;" horiz-adv-x="1107" 
d="M432 1593c-65 0 -109 -54 -109 -134h-32c0 98 58 166 141 166c141 0 124 -148 244 -148c63 0 109 54 109 132h32c0 -96 -58 -164 -141 -164c-142 0 -125 148 -244 148zM974 0l-113 315h-616l-113 -315h-37l440 1219h36l441 -1219h-38zM257 348h592l-296 824z" />
    <glyph glyph-name="AE" unicode="&#xc6;" horiz-adv-x="1394" 
d="M1286 1187h-585v-561h516v-33h-516v-560h585v-33h-618v315h-413l-127 -315h-37l489 1219h706v-32zM268 348h400v839h-62z" />
    <glyph glyph-name="B" unicode="B" horiz-adv-x="1161" 
d="M756 616c134 -35 234 -159 234 -302c0 -173 -140 -314 -312 -314h-431v1219h392c172 0 314 -140 314 -312c0 -131 -82 -244 -197 -291zM920 907c0 154 -127 280 -281 280h-359v-561h359c156 0 281 125 281 281zM678 33c154 0 279 126 279 281c0 154 -125 279 -279 279
h-398v-560h398z" />
    <glyph glyph-name="C" unicode="C" horiz-adv-x="1440" 
d="M778 -16c-347 0 -626 279 -626 626c0 346 279 625 626 625c230 0 432 -123 539 -309l-27 -16c-103 176 -293 293 -512 293c-329 0 -594 -265 -594 -593c0 -329 265 -594 594 -594c219 0 409 117 512 293l27 -16c-107 -186 -309 -309 -539 -309z" />
    <glyph glyph-name="Cacute" unicode="&#x106;" horiz-adv-x="1440" 
d="M699 1331l162 294h54l-175 -294h-41zM778 -16c-347 0 -626 279 -626 626c0 346 279 625 626 625c230 0 432 -123 539 -309l-27 -16c-103 176 -293 293 -512 293c-329 0 -594 -265 -594 -593c0 -329 265 -594 594 -594c219 0 409 117 512 293l27 -16
c-107 -186 -309 -309 -539 -309z" />
    <glyph glyph-name="Ccaron" unicode="&#x10c;" horiz-adv-x="1440" 
d="M700 1331l-158 294h41l138 -257l137 257h40l-158 -294h-40zM778 -16c-347 0 -626 279 -626 626c0 346 279 625 626 625c230 0 432 -123 539 -309l-27 -16c-103 176 -293 293 -512 293c-329 0 -594 -265 -594 -593c0 -329 265 -594 594 -594c219 0 409 117 512 293l27 -16
c-107 -186 -309 -309 -539 -309z" />
    <glyph glyph-name="Ccedilla" unicode="&#xc7;" horiz-adv-x="1440" 
d="M778 16c219 0 409 117 512 293l27 -16c-107 -186 -309 -309 -539 -309c-21 0 -41 1 -61 3l-47 -111c122 26 218 -37 218 -144c0 -86 -67 -155 -153 -155c-63 0 -144 36 -183 82l24 21c34 -39 104 -70 159 -70c69 0 121 54 121 122c0 92 -87 140 -197 107l-29 26l56 126
c-303 44 -534 303 -534 619c0 346 279 625 626 625c230 0 432 -123 539 -309l-27 -16c-103 176 -293 293 -512 293c-329 0 -594 -265 -594 -593c0 -329 265 -594 594 -594z" />
    <glyph glyph-name="Cdotaccent" unicode="&#x10a;" horiz-adv-x="1440" 
d="M720 1544c-26 0 -49 21 -49 49c0 26 23 48 49 48s49 -22 49 -48c0 -28 -23 -49 -49 -49zM778 -16c-347 0 -626 279 -626 626c0 346 279 625 626 625c230 0 432 -123 539 -309l-27 -16c-103 176 -293 293 -512 293c-329 0 -594 -265 -594 -593c0 -329 265 -594 594 -594
c219 0 409 117 512 293l27 -16c-107 -186 -309 -309 -539 -309z" />
    <glyph glyph-name="D" unicode="D" horiz-adv-x="1303" 
d="M247 0v1219h252c467 0 642 -273 642 -609c0 -337 -175 -610 -642 -610h-252zM280 33h219c450 0 610 256 610 577c0 320 -160 577 -610 577h-219v-1154z" />
    <glyph glyph-name="Eth" unicode="&#xd0;" horiz-adv-x="1303" 
d="M499 1219c467 0 642 -273 642 -609c0 -337 -175 -610 -642 -610h-252v594h-92v32h92v593h252zM499 33c450 0 610 256 610 577c0 320 -160 577 -610 577h-219v-561h281v-32h-281v-561h219z" />
    <glyph glyph-name="Dcaron" unicode="&#x10e;" horiz-adv-x="1303" 
d="M627 1331l-158 294h41l138 -257l137 257h40l-158 -294h-40zM247 0v1219h252c467 0 642 -273 642 -609c0 -337 -175 -610 -642 -610h-252zM280 33h219c450 0 610 256 610 577c0 320 -160 577 -610 577h-219v-1154z" />
    <glyph glyph-name="Dcroat" unicode="&#x110;" horiz-adv-x="1303" 
d="M499 1219c467 0 642 -273 642 -609c0 -337 -175 -610 -642 -610h-252v594h-92v32h92v593h252zM499 33c450 0 610 256 610 577c0 320 -160 577 -610 577h-219v-561h281v-32h-281v-561h219z" />
    <glyph glyph-name="E" unicode="E" horiz-adv-x="973" 
d="M865 1187h-585v-561h517v-33h-517v-560h585v-33h-618v1219h618v-32z" />
    <glyph glyph-name="Eacute" unicode="&#xc9;" horiz-adv-x="973" 
d="M683 1625l-175 -294h-41l162 294h54zM865 1187h-585v-561h517v-33h-517v-560h585v-33h-618v1219h618v-32z" />
    <glyph glyph-name="Ecaron" unicode="&#x11a;" horiz-adv-x="973" 
d="M508 1331h-40l-158 294h41l138 -257l137 257h40zM865 1187h-585v-561h517v-33h-517v-560h585v-33h-618v1219h618v-32z" />
    <glyph glyph-name="Ecircumflex" unicode="&#xca;" horiz-adv-x="973" 
d="M488 1588l-128 -257h-50l157 294h41l157 -294h-50zM865 1187h-585v-561h517v-33h-517v-560h585v-33h-618v1219h618v-32z" />
    <glyph glyph-name="Edieresis" unicode="&#xcb;" horiz-adv-x="973" 
d="M363 1544c-26 0 -49 21 -49 49c0 26 23 48 49 48s49 -22 49 -48c0 -28 -23 -49 -49 -49zM612 1544c-26 0 -49 21 -49 49c0 26 23 48 49 48s49 -22 49 -48c0 -28 -23 -49 -49 -49zM865 1187h-585v-561h517v-33h-517v-560h585v-33h-618v1219h618v-32z" />
    <glyph glyph-name="Edotaccent" unicode="&#x116;" horiz-adv-x="973" 
d="M488 1544c-26 0 -49 21 -49 49c0 26 23 48 49 48s49 -22 49 -48c0 -28 -23 -49 -49 -49zM865 1187h-585v-561h517v-33h-517v-560h585v-33h-618v1219h618v-32z" />
    <glyph glyph-name="Egrave" unicode="&#xc8;" horiz-adv-x="973" 
d="M508 1331h-41l-175 294h54zM865 1187h-585v-561h517v-33h-517v-560h585v-33h-618v1219h618v-32z" />
    <glyph glyph-name="Emacron" unicode="&#x112;" horiz-adv-x="973" 
d="M691 1446v-32h-406v32h406zM865 1187h-585v-561h517v-33h-517v-560h585v-33h-618v1219h618v-32z" />
    <glyph glyph-name="Eogonek" unicode="&#x118;" horiz-adv-x="973" 
d="M985 -328l15 -26c-49 -46 -91 -69 -163 -69c-99 0 -151 64 -151 161c0 109 69 183 140 262h-579v1219h618v-32h-585v-561h517v-33h-517v-560h585v-33c-65 -67 -150 -151 -150 -262c0 -76 41 -128 122 -128c65 0 102 19 148 62z" />
    <glyph glyph-name="F" unicode="F" horiz-adv-x="953" 
d="M865 1187h-585v-561h517v-33h-517v-593h-33v1219h618v-32z" />
    <glyph glyph-name="G" unicode="G" horiz-adv-x="1534" 
d="M776 619h627v-9c0 -347 -279 -626 -625 -626c-347 0 -626 279 -626 626c0 346 279 625 626 625c230 0 432 -123 539 -309l-27 -16c-103 176 -293 293 -512 293c-329 0 -594 -265 -594 -593c0 -329 265 -594 594 -594c320 0 581 253 593 571h-595v32z" />
    <glyph glyph-name="Gbreve" unicode="&#x11e;" horiz-adv-x="1534" 
d="M766 1404c-138 0 -247 98 -247 221h33c0 -106 94 -188 214 -188c121 0 215 82 215 188h33c0 -123 -109 -221 -248 -221zM776 619h627v-9c0 -347 -279 -626 -625 -626c-347 0 -626 279 -626 626c0 346 279 625 626 625c230 0 432 -123 539 -309l-27 -16
c-103 176 -293 293 -512 293c-329 0 -594 -265 -594 -593c0 -329 265 -594 594 -594c320 0 581 253 593 571h-595v32z" />
    <glyph glyph-name="uni0122" unicode="&#x122;" horiz-adv-x="1534" 
d="M776 619h627v-9c0 -347 -279 -626 -625 -626c-347 0 -626 279 -626 626c0 346 279 625 626 625c230 0 432 -123 539 -309l-27 -16c-103 176 -293 293 -512 293c-329 0 -594 -265 -594 -593c0 -329 265 -594 594 -594c320 0 581 253 593 571h-595v32zM614 -397l135 307h36
l-135 -307h-36z" />
    <glyph glyph-name="Gdotaccent" unicode="&#x120;" horiz-adv-x="1534" 
d="M767 1544c-26 0 -49 21 -49 49c0 26 23 48 49 48s49 -22 49 -48c0 -28 -23 -49 -49 -49zM776 619h627v-9c0 -347 -279 -626 -625 -626c-347 0 -626 279 -626 626c0 346 279 625 626 625c230 0 432 -123 539 -309l-27 -16c-103 176 -293 293 -512 293
c-329 0 -594 -265 -594 -593c0 -329 265 -594 594 -594c320 0 581 253 593 571h-595v32z" />
    <glyph glyph-name="H" unicode="H" horiz-adv-x="1356" 
d="M1076 1219h33v-1219h-33v593h-796v-593h-33v1219h33v-593h796v593z" />
    <glyph glyph-name="Hbar" unicode="&#x126;" horiz-adv-x="1356" 
d="M1237 989v-33h-128v-956h-33v593h-796v-593h-33v956h-128v33h128v230h33v-230h796v230h33v-230h128zM1076 626v330h-796v-330h796z" />
    <glyph glyph-name="I" unicode="I" horiz-adv-x="527" 
d="M247 0v1219h33v-1219h-33z" />
    <glyph glyph-name="Iacute" unicode="&#xcd;" horiz-adv-x="527" 
d="M243 1331l162 294h54l-175 -294h-41zM247 0v1219h33v-1219h-33z" />
    <glyph glyph-name="Icircumflex" unicode="&#xce;" horiz-adv-x="527" 
d="M86 1331l157 294h41l157 -294h-50l-127 257l-128 -257h-50zM247 0v1219h33v-1219h-33z" />
    <glyph glyph-name="Idieresis" unicode="&#xcf;" horiz-adv-x="527" 
d="M139 1544c-26 0 -49 21 -49 49c0 26 23 48 49 48s49 -22 49 -48c0 -28 -23 -49 -49 -49zM388 1544c-26 0 -49 21 -49 49c0 26 23 48 49 48s49 -22 49 -48c0 -28 -23 -49 -49 -49zM247 0v1219h33v-1219h-33z" />
    <glyph glyph-name="Idotaccent" unicode="&#x130;" horiz-adv-x="527" 
d="M264 1544c-26 0 -49 21 -49 49c0 26 23 48 49 48s49 -22 49 -48c0 -28 -23 -49 -49 -49zM247 0v1219h33v-1219h-33z" />
    <glyph glyph-name="Igrave" unicode="&#xcc;" horiz-adv-x="527" 
d="M243 1331l-175 294h54l162 -294h-41zM247 0v1219h33v-1219h-33z" />
    <glyph glyph-name="Imacron" unicode="&#x12a;" horiz-adv-x="527" 
d="M61 1414v32h406v-32h-406zM247 0v1219h33v-1219h-33z" />
    <glyph glyph-name="Iogonek" unicode="&#x12e;" horiz-adv-x="527" 
d="M400 -328l15 -26c-49 -46 -91 -69 -163 -69c-99 0 -151 64 -151 161c0 112 73 187 146 269v1212h33v-1219c-65 -67 -150 -151 -150 -262c0 -76 41 -128 122 -128c65 0 102 19 148 62z" />
    <glyph glyph-name="J" unicode="J" horiz-adv-x="910" 
d="M676 1219v-920c0 -174 -129 -315 -286 -315c-143 0 -260 115 -281 268l32 6c16 -136 122 -242 249 -242c140 0 253 127 253 283v888h-495v32h528z" />
    <glyph glyph-name="K" unicode="K" horiz-adv-x="1056" 
d="M928 0l-579 642h-69v-642h-33v1219h33v-544h72l560 544h45l-577 -561l594 -658h-46z" />
    <glyph glyph-name="uni0136" unicode="&#x136;" horiz-adv-x="1056" 
d="M380 658l594 -658h-46l-579 642h-69v-642h-33v1219h33v-544h72l560 544h45zM376 -397l135 307h36l-135 -307h-36z" />
    <glyph glyph-name="L" unicode="L" horiz-adv-x="839" 
d="M280 33h487v-33h-520v1219h33v-1186z" />
    <glyph glyph-name="Lacute" unicode="&#x139;" horiz-adv-x="839" 
d="M459 1625l-175 -294h-41l162 294h54zM280 33h487v-33h-520v1219h33v-1186z" />
    <glyph glyph-name="Lcaron" unicode="&#x13d;" horiz-adv-x="839" 
d="M442 1625l-158 -294h-40l-158 294h41l138 -257l137 257h40zM280 33h487v-33h-520v1219h33v-1186z" />
    <glyph glyph-name="uni013B" unicode="&#x13b;" horiz-adv-x="839" 
d="M280 33h487v-33h-520v1219h33v-1186zM354 -397l135 307h36l-135 -307h-36z" />
    <glyph glyph-name="Lslash" unicode="&#x141;" horiz-adv-x="839" 
d="M280 33h487v-33h-520v505l-57 -63v45l57 63v669h33v-632l171 190v-48l-171 -188v-508z" />
    <glyph glyph-name="M" unicode="M" horiz-adv-x="1608" 
d="M1331 1219h30v-1219h-33v1144l-512 -1144h-26l-510 1142v-1142h-33v1219h29l527 -1180z" />
    <glyph glyph-name="N" unicode="N" horiz-adv-x="1400" 
d="M1120 1219h33v-1219h-12l-861 1137v-1137h-33v1219h12l861 -1139v1139z" />
    <glyph glyph-name="Nacute" unicode="&#x143;" horiz-adv-x="1400" 
d="M895 1625l-175 -294h-41l162 294h54zM1120 1219h33v-1219h-12l-861 1137v-1137h-33v1219h12l861 -1139v1139z" />
    <glyph glyph-name="Ncaron" unicode="&#x147;" horiz-adv-x="1400" 
d="M720 1331h-40l-158 294h41l138 -257l137 257h40zM1120 1219h33v-1219h-12l-861 1137v-1137h-33v1219h12l861 -1139v1139z" />
    <glyph glyph-name="uni0145" unicode="&#x145;" horiz-adv-x="1400" 
d="M1120 1219h33v-1219h-12l-861 1137v-1137h-33v1219h12l861 -1139v1139zM547 -397l135 307h36l-135 -307h-36z" />
    <glyph glyph-name="Eng" unicode="&#x14a;" horiz-adv-x="1400" 
d="M1120 1219h33v-1417c0 -103 -61 -163 -155 -155v33c75 -12 122 36 122 122v226l-840 1109v-1137h-33v1219h12l861 -1139v1139z" />
    <glyph glyph-name="Ntilde" unicode="&#xd1;" horiz-adv-x="1400" 
d="M578 1593c-65 0 -109 -54 -109 -134h-32c0 98 58 166 141 166c141 0 124 -148 244 -148c63 0 109 54 109 132h32c0 -96 -58 -164 -141 -164c-142 0 -125 148 -244 148zM1120 1219h33v-1219h-12l-861 1137v-1137h-33v1219h12l861 -1139v1139z" />
    <glyph glyph-name="O" unicode="O" horiz-adv-x="1555" 
d="M778 -16c-347 0 -626 279 -626 626c0 346 279 625 626 625c346 0 625 -279 625 -625c0 -347 -279 -626 -625 -626zM778 16c328 0 593 265 593 594c0 328 -265 593 -593 593c-329 0 -594 -265 -594 -593c0 -329 265 -594 594 -594z" />
    <glyph glyph-name="Oacute" unicode="&#xd3;" horiz-adv-x="1555" 
d="M757 1331l162 294h54l-175 -294h-41zM778 -16c-347 0 -626 279 -626 626c0 346 279 625 626 625c346 0 625 -279 625 -625c0 -347 -279 -626 -625 -626zM778 16c328 0 593 265 593 594c0 328 -265 593 -593 593c-329 0 -594 -265 -594 -593c0 -329 265 -594 594 -594z
" />
    <glyph glyph-name="Ocircumflex" unicode="&#xd4;" horiz-adv-x="1555" 
d="M600 1331l157 294h41l157 -294h-50l-127 257l-128 -257h-50zM778 -16c-347 0 -626 279 -626 626c0 346 279 625 626 625c346 0 625 -279 625 -625c0 -347 -279 -626 -625 -626zM778 16c328 0 593 265 593 594c0 328 -265 593 -593 593c-329 0 -594 -265 -594 -593
c0 -329 265 -594 594 -594z" />
    <glyph glyph-name="Odieresis" unicode="&#xd6;" horiz-adv-x="1555" 
d="M653 1544c-26 0 -49 21 -49 49c0 26 23 48 49 48s49 -22 49 -48c0 -28 -23 -49 -49 -49zM902 1544c-26 0 -49 21 -49 49c0 26 23 48 49 48s49 -22 49 -48c0 -28 -23 -49 -49 -49zM778 -16c-347 0 -626 279 -626 626c0 346 279 625 626 625c346 0 625 -279 625 -625
c0 -347 -279 -626 -625 -626zM778 16c328 0 593 265 593 594c0 328 -265 593 -593 593c-329 0 -594 -265 -594 -593c0 -329 265 -594 594 -594z" />
    <glyph glyph-name="Ograve" unicode="&#xd2;" horiz-adv-x="1555" 
d="M757 1331l-175 294h54l162 -294h-41zM778 -16c-347 0 -626 279 -626 626c0 346 279 625 626 625c346 0 625 -279 625 -625c0 -347 -279 -626 -625 -626zM778 16c328 0 593 265 593 594c0 328 -265 593 -593 593c-329 0 -594 -265 -594 -593c0 -329 265 -594 594 -594z
" />
    <glyph glyph-name="Ohungarumlaut" unicode="&#x150;" horiz-adv-x="1555" 
d="M625 1331l161 294h54l-174 -294h-41zM890 1331l161 294h54l-174 -294h-41zM778 -16c-347 0 -626 279 -626 626c0 346 279 625 626 625c346 0 625 -279 625 -625c0 -347 -279 -626 -625 -626zM778 16c328 0 593 265 593 594c0 328 -265 593 -593 593
c-329 0 -594 -265 -594 -593c0 -329 265 -594 594 -594z" />
    <glyph glyph-name="Omacron" unicode="&#x14c;" horiz-adv-x="1555" 
d="M575 1414v32h406v-32h-406zM778 -16c-347 0 -626 279 -626 626c0 346 279 625 626 625c346 0 625 -279 625 -625c0 -347 -279 -626 -625 -626zM778 16c328 0 593 265 593 594c0 328 -265 593 -593 593c-329 0 -594 -265 -594 -593c0 -329 265 -594 594 -594z" />
    <glyph glyph-name="Oslash" unicode="&#xd8;" horiz-adv-x="1555" 
d="M1149 1114c154 -114 254 -297 254 -504c0 -347 -279 -626 -625 -626c-128 0 -247 38 -345 103l-64 -91l-27 16l65 93c-155 114 -255 297 -255 505c0 346 279 625 626 625c128 0 247 -38 346 -104l64 92l26 -16zM184 610c0 -197 95 -371 241 -479l680 974
c-93 62 -206 98 -327 98c-329 0 -594 -265 -594 -593zM778 16c328 0 593 265 593 594c0 196 -95 369 -241 477l-679 -973c94 -62 206 -98 327 -98z" />
    <glyph glyph-name="Otilde" unicode="&#xd5;" horiz-adv-x="1555" 
d="M900 1445c-142 0 -125 148 -244 148c-65 0 -109 -54 -109 -134h-32c0 98 58 166 141 166c141 0 124 -148 244 -148c63 0 109 54 109 132h32c0 -96 -58 -164 -141 -164zM778 -16c-347 0 -626 279 -626 626c0 346 279 625 626 625c346 0 625 -279 625 -625
c0 -347 -279 -626 -625 -626zM778 16c328 0 593 265 593 594c0 328 -265 593 -593 593c-329 0 -594 -265 -594 -593c0 -329 265 -594 594 -594z" />
    <glyph glyph-name="OE" unicode="&#x152;" horiz-adv-x="1684" 
d="M1576 1187h-585v-561h516v-33h-516v-560h585v-33h-618v10c-57 -17 -118 -26 -180 -26c-347 0 -626 279 -626 626c0 346 279 625 626 625c62 0 123 -9 180 -26v10h618v-32zM778 16c62 0 123 10 180 28v1131c-57 18 -118 28 -180 28c-329 0 -594 -265 -594 -593
c0 -329 265 -594 594 -594z" />
    <glyph glyph-name="P" unicode="P" horiz-adv-x="1068" 
d="M624 1219c177 0 322 -143 322 -320s-145 -322 -322 -322h-344v-577h-33v1219h377zM624 610c161 0 290 128 290 289c0 159 -130 288 -290 288h-344v-577h344z" />
    <glyph glyph-name="Thorn" unicode="&#xde;" horiz-adv-x="1068" 
d="M624 1057c177 0 322 -144 322 -321s-145 -322 -322 -322h-344v-414h-33v1219h33v-162h344zM624 447c161 0 290 128 290 289c0 160 -130 288 -290 288h-344v-577h344z" />
    <glyph glyph-name="Q" unicode="Q" horiz-adv-x="1568" 
d="M993 22l81 11h289v-33h-443c-46 -10 -93 -16 -142 -16c-347 0 -626 279 -626 626c0 346 279 625 626 625c346 0 625 -279 625 -625c0 -271 -171 -501 -410 -588zM184 610c0 -329 265 -594 594 -594c328 0 593 265 593 594c0 328 -265 593 -593 593
c-329 0 -594 -265 -594 -593z" />
    <glyph glyph-name="R" unicode="R" horiz-adv-x="1127" 
d="M642 577l371 -577h-39l-364 577h-330v-577h-33v1219h377c177 0 322 -143 322 -320c0 -171 -135 -312 -304 -322zM280 610h344c161 0 290 128 290 289c0 159 -130 288 -290 288h-344v-577z" />
    <glyph glyph-name="Racute" unicode="&#x154;" horiz-adv-x="1127" 
d="M759 1625l-175 -294h-41l162 294h54zM642 577l371 -577h-39l-364 577h-330v-577h-33v1219h377c177 0 322 -143 322 -320c0 -171 -135 -312 -304 -322zM280 610h344c161 0 290 128 290 289c0 159 -130 288 -290 288h-344v-577z" />
    <glyph glyph-name="Rcaron" unicode="&#x158;" horiz-adv-x="1127" 
d="M584 1331h-40l-158 294h41l138 -257l137 257h40zM642 577l371 -577h-39l-364 577h-330v-577h-33v1219h377c177 0 322 -143 322 -320c0 -171 -135 -312 -304 -322zM280 610h344c161 0 290 128 290 289c0 159 -130 288 -290 288h-344v-577z" />
    <glyph glyph-name="uni0156" unicode="&#x156;" horiz-adv-x="1127" 
d="M642 577l371 -577h-39l-364 577h-330v-577h-33v1219h377c177 0 322 -143 322 -320c0 -171 -135 -312 -304 -322zM280 610h344c161 0 290 128 290 289c0 159 -130 288 -290 288h-344v-577zM411 -397l135 307h36l-135 -307h-36z" />
    <glyph glyph-name="S" unicode="S" horiz-adv-x="991" 
d="M496 -16c-180 0 -321 102 -370 229l31 11c42 -112 169 -208 341 -208s328 96 328 273c0 358 -638 267 -638 659c0 200 167 287 317 287c130 0 235 -65 289 -138l-26 -19c-47 65 -143 125 -262 125c-138 0 -286 -81 -286 -255c0 -361 639 -272 639 -659
c0 -211 -189 -305 -363 -305z" />
    <glyph glyph-name="Sacute" unicode="&#x15a;" horiz-adv-x="991" 
d="M475 1331l162 294h54l-175 -294h-41zM496 -16c-180 0 -321 102 -370 229l31 11c42 -112 169 -208 341 -208s328 96 328 273c0 358 -638 267 -638 659c0 200 167 287 317 287c130 0 235 -65 289 -138l-26 -19c-47 65 -143 125 -262 125c-138 0 -286 -81 -286 -255
c0 -361 639 -272 639 -659c0 -211 -189 -305 -363 -305z" />
    <glyph glyph-name="Scaron" unicode="&#x160;" horiz-adv-x="991" 
d="M476 1331l-158 294h41l138 -257l137 257h40l-158 -294h-40zM496 -16c-180 0 -321 102 -370 229l31 11c42 -112 169 -208 341 -208s328 96 328 273c0 358 -638 267 -638 659c0 200 167 287 317 287c130 0 235 -65 289 -138l-26 -19c-47 65 -143 125 -262 125
c-138 0 -286 -81 -286 -255c0 -361 639 -272 639 -659c0 -211 -189 -305 -363 -305z" />
    <glyph glyph-name="Scedilla" unicode="&#x15e;" horiz-adv-x="991" 
d="M496 -16h-5l-45 -108c122 26 218 -37 218 -144c0 -86 -67 -155 -153 -155c-63 0 -144 36 -183 82l24 21c34 -39 104 -70 159 -70c69 0 121 54 121 122c0 92 -87 140 -197 107l-29 26l54 120c-163 13 -288 110 -334 228l31 11c42 -112 169 -208 341 -208s328 96 328 273
c0 358 -638 267 -638 659c0 200 167 287 317 287c130 0 235 -65 289 -138l-26 -19c-47 65 -143 125 -262 125c-138 0 -286 -81 -286 -255c0 -361 639 -272 639 -659c0 -211 -189 -305 -363 -305z" />
    <glyph glyph-name="uni0218" unicode="&#x218;" horiz-adv-x="991" 
d="M496 -16c-180 0 -321 102 -370 229l31 11c42 -112 169 -208 341 -208s328 96 328 273c0 358 -638 267 -638 659c0 200 167 287 317 287c130 0 235 -65 289 -138l-26 -19c-47 65 -143 125 -262 125c-138 0 -286 -81 -286 -255c0 -361 639 -272 639 -659
c0 -211 -189 -305 -363 -305zM343 -397l135 307h36l-135 -307h-36z" />
    <glyph glyph-name="uni1E9E" unicode="&#x1e9e;" horiz-adv-x="1118" 
d="M231 0v900c0 186 144 319 338 319h354l-325 -512c247 0 375 -136 375 -361c0 -226 -143 -346 -336 -346h-224v33h222c177 0 306 107 306 313c0 205 -125 329 -343 329h-39v32l305 480h-294c-175 0 -307 -121 -307 -287v-900h-32z" />
    <glyph glyph-name="T" unicode="T" horiz-adv-x="890" 
d="M819 1221v-33h-358v-1186h-32v1186h-358v33h748z" />
    <glyph glyph-name="Tbar" unicode="&#x166;" horiz-adv-x="890" 
d="M819 1188h-358v-562h187v-32h-187v-592h-32v592h-187v32h187v562h-358v33h748v-33z" />
    <glyph glyph-name="Tcaron" unicode="&#x164;" horiz-adv-x="890" 
d="M465 1331h-40l-158 294h41l138 -257l137 257h40zM819 1221v-33h-358v-1186h-32v1186h-358v33h748z" />
    <glyph glyph-name="uni0162" unicode="&#x162;" horiz-adv-x="890" 
d="M71 1221h748v-33h-358v-1186h-32v1186h-358v33zM395 -124c122 26 218 -37 218 -144c0 -86 -67 -155 -153 -155c-63 0 -144 36 -183 82l24 21c34 -39 104 -70 159 -70c69 0 121 54 121 122c0 92 -87 140 -197 107l-29 26l60 135h32z" />
    <glyph glyph-name="uni021A" unicode="&#x21a;" horiz-adv-x="890" 
d="M71 1221h748v-33h-358v-1186h-32v1186h-358v33zM292 -397l135 307h36l-135 -307h-36z" />
    <glyph glyph-name="U" unicode="U" horiz-adv-x="1289" 
d="M644 -16c-234 0 -422 188 -422 422v813h32v-813c0 -216 174 -390 390 -390c217 0 390 174 390 390v813h33v-813c0 -234 -189 -422 -423 -422z" />
    <glyph glyph-name="Uacute" unicode="&#xda;" horiz-adv-x="1289" 
d="M624 1331l162 294h54l-175 -294h-41zM644 -16c-234 0 -422 188 -422 422v813h32v-813c0 -216 174 -390 390 -390c217 0 390 174 390 390v813h33v-813c0 -234 -189 -422 -423 -422z" />
    <glyph glyph-name="Ucircumflex" unicode="&#xdb;" horiz-adv-x="1289" 
d="M467 1331l157 294h41l157 -294h-50l-127 257l-128 -257h-50zM644 -16c-234 0 -422 188 -422 422v813h32v-813c0 -216 174 -390 390 -390c217 0 390 174 390 390v813h33v-813c0 -234 -189 -422 -423 -422z" />
    <glyph glyph-name="Udieresis" unicode="&#xdc;" horiz-adv-x="1289" 
d="M520 1544c-26 0 -49 21 -49 49c0 26 23 48 49 48s49 -22 49 -48c0 -28 -23 -49 -49 -49zM769 1544c-26 0 -49 21 -49 49c0 26 23 48 49 48s49 -22 49 -48c0 -28 -23 -49 -49 -49zM644 -16c-234 0 -422 188 -422 422v813h32v-813c0 -216 174 -390 390 -390
c217 0 390 174 390 390v813h33v-813c0 -234 -189 -422 -423 -422z" />
    <glyph glyph-name="Ugrave" unicode="&#xd9;" horiz-adv-x="1289" 
d="M624 1331l-175 294h54l162 -294h-41zM644 -16c-234 0 -422 188 -422 422v813h32v-813c0 -216 174 -390 390 -390c217 0 390 174 390 390v813h33v-813c0 -234 -189 -422 -423 -422z" />
    <glyph glyph-name="Uhungarumlaut" unicode="&#x170;" horiz-adv-x="1289" 
d="M492 1331l161 294h54l-174 -294h-41zM757 1331l161 294h54l-174 -294h-41zM644 -16c-234 0 -422 188 -422 422v813h32v-813c0 -216 174 -390 390 -390c217 0 390 174 390 390v813h33v-813c0 -234 -189 -422 -423 -422z" />
    <glyph glyph-name="Umacron" unicode="&#x16a;" horiz-adv-x="1289" 
d="M442 1414v32h406v-32h-406zM644 -16c-234 0 -422 188 -422 422v813h32v-813c0 -216 174 -390 390 -390c217 0 390 174 390 390v813h33v-813c0 -234 -189 -422 -423 -422z" />
    <glyph glyph-name="Uogonek" unicode="&#x172;" horiz-adv-x="1289" 
d="M1034 1219h33v-813c0 -198 -135 -363 -318 -409c-64 -66 -147 -150 -147 -259c0 -76 41 -128 122 -128c65 0 102 19 148 62l15 -26c-49 -46 -91 -69 -163 -69c-99 0 -151 64 -151 161c0 104 62 175 129 250c-19 -3 -38 -4 -58 -4c-234 0 -422 188 -422 422v813h32v-813
c0 -216 174 -390 390 -390c217 0 390 174 390 390v813z" />
    <glyph glyph-name="Uring" unicode="&#x16e;" horiz-adv-x="1289" 
d="M646 1310c-77 0 -138 61 -138 136c0 77 61 138 138 138c74 0 136 -61 136 -138c0 -75 -62 -136 -136 -136zM646 1341c58 0 105 47 105 105c0 60 -47 108 -105 108c-60 0 -108 -48 -108 -108c0 -58 48 -105 108 -105zM644 -16c-234 0 -422 188 -422 422v813h32v-813
c0 -216 174 -390 390 -390c217 0 390 174 390 390v813h33v-813c0 -234 -189 -422 -423 -422z" />
    <glyph glyph-name="V" unicode="V" horiz-adv-x="1107" 
d="M974 1219h38l-441 -1219h-36l-440 1219h37l421 -1172z" />
    <glyph glyph-name="W" unicode="W" horiz-adv-x="1859" 
d="M506 0l-407 1219h38l387 -1170l388 1170h37l387 -1172l389 1172h35l-406 -1219h-36l-388 1165l-389 -1165h-35z" />
    <glyph glyph-name="Wacute" unicode="&#x1e82;" horiz-adv-x="1859" 
d="M909 1331l162 294h54l-175 -294h-41zM506 0l-407 1219h38l387 -1170l388 1170h37l387 -1172l389 1172h35l-406 -1219h-36l-388 1165l-389 -1165h-35z" />
    <glyph glyph-name="Wcircumflex" unicode="&#x174;" horiz-adv-x="1859" 
d="M752 1331l157 294h41l157 -294h-50l-127 257l-128 -257h-50zM506 0l-407 1219h38l387 -1170l388 1170h37l387 -1172l389 1172h35l-406 -1219h-36l-388 1165l-389 -1165h-35z" />
    <glyph glyph-name="Wdieresis" unicode="&#x1e84;" horiz-adv-x="1859" 
d="M805 1544c-26 0 -49 21 -49 49c0 26 23 48 49 48s49 -22 49 -48c0 -28 -23 -49 -49 -49zM1054 1544c-26 0 -49 21 -49 49c0 26 23 48 49 48s49 -22 49 -48c0 -28 -23 -49 -49 -49zM506 0l-407 1219h38l387 -1170l388 1170h37l387 -1172l389 1172h35l-406 -1219h-36
l-388 1165l-389 -1165h-35z" />
    <glyph glyph-name="Wgrave" unicode="&#x1e80;" horiz-adv-x="1859" 
d="M909 1331l-175 294h54l162 -294h-41zM506 0l-407 1219h38l387 -1170l388 1170h37l387 -1172l389 1172h35l-406 -1219h-36l-388 1165l-389 -1165h-35z" />
    <glyph glyph-name="X" unicode="X" horiz-adv-x="1055" 
d="M98 0l410 609l-410 610h39l391 -580l389 580h39l-409 -609l411 -610h-41l-390 581l-388 -581h-41z" />
    <glyph glyph-name="Y" unicode="Y" horiz-adv-x="1032" 
d="M500 0v584l-424 635h39l401 -602l401 602h39l-424 -635v-584h-32z" />
    <glyph glyph-name="Yacute" unicode="&#xdd;" horiz-adv-x="1032" 
d="M495 1331l162 294h54l-175 -294h-41zM500 0v584l-424 635h39l401 -602l401 602h39l-424 -635v-584h-32z" />
    <glyph glyph-name="Ycircumflex" unicode="&#x176;" horiz-adv-x="1032" 
d="M338 1331l157 294h41l157 -294h-50l-127 257l-128 -257h-50zM500 0v584l-424 635h39l401 -602l401 602h39l-424 -635v-584h-32z" />
    <glyph glyph-name="Ydieresis" unicode="&#x178;" horiz-adv-x="1032" 
d="M391 1544c-26 0 -49 21 -49 49c0 26 23 48 49 48s49 -22 49 -48c0 -28 -23 -49 -49 -49zM640 1544c-26 0 -49 21 -49 49c0 26 23 48 49 48s49 -22 49 -48c0 -28 -23 -49 -49 -49zM500 0v584l-424 635h39l401 -602l401 602h39l-424 -635v-584h-32z" />
    <glyph glyph-name="Ygrave" unicode="&#x1ef2;" horiz-adv-x="1032" 
d="M495 1331l-175 294h54l162 -294h-41zM500 0v584l-424 635h39l401 -602l401 602h39l-424 -635v-584h-32z" />
    <glyph glyph-name="Z" unicode="Z" horiz-adv-x="1092" 
d="M155 33h851v-33h-915l811 1187h-792v32h854z" />
    <glyph glyph-name="Zacute" unicode="&#x179;" horiz-adv-x="1092" 
d="M741 1625l-175 -294h-41l162 294h54zM155 33h851v-33h-915l811 1187h-792v32h854z" />
    <glyph glyph-name="Zcaron" unicode="&#x17d;" horiz-adv-x="1092" 
d="M566 1331h-40l-158 294h41l138 -257l137 257h40zM155 33h851v-33h-915l811 1187h-792v32h854z" />
    <glyph glyph-name="Zdotaccent" unicode="&#x17b;" horiz-adv-x="1092" 
d="M546 1544c-26 0 -49 21 -49 49c0 26 23 48 49 48s49 -22 49 -48c0 -28 -23 -49 -49 -49zM155 33h851v-33h-915l811 1187h-792v32h854z" />
    <glyph glyph-name="a" unicode="a" horiz-adv-x="1186" 
d="M1069 16h60v-16c-18 -10 -39 -16 -60 -16c-85 0 -132 57 -132 161v96c-63 -157 -214 -257 -390 -257c-232 0 -423 190 -423 422c0 233 191 423 423 423c176 0 327 -109 390 -264v248h33v-668c0 -83 35 -129 99 -129zM547 16c216 0 390 174 390 390
c0 217 -174 390 -390 390s-390 -173 -390 -390c0 -216 174 -390 390 -390z" />
    <glyph glyph-name="aacute" unicode="&#xe1;" horiz-adv-x="1186" 
d="M742 1219l-175 -294h-41l162 294h54zM1069 16h60v-16c-18 -10 -39 -16 -60 -16c-85 0 -132 57 -132 161v96c-63 -157 -214 -257 -390 -257c-232 0 -423 190 -423 422c0 233 191 423 423 423c176 0 327 -109 390 -264v248h33v-668c0 -83 35 -129 99 -129zM547 16
c216 0 390 174 390 390c0 217 -174 390 -390 390s-390 -173 -390 -390c0 -216 174 -390 390 -390z" />
    <glyph glyph-name="abreve" unicode="&#x103;" horiz-adv-x="1186" 
d="M546 998c-138 0 -247 98 -247 221h33c0 -106 94 -188 214 -188c121 0 215 82 215 188h33c0 -123 -109 -221 -248 -221zM1069 16h60v-16c-18 -10 -39 -16 -60 -16c-85 0 -132 57 -132 161v96c-63 -157 -214 -257 -390 -257c-232 0 -423 190 -423 422
c0 233 191 423 423 423c176 0 327 -109 390 -264v248h33v-668c0 -83 35 -129 99 -129zM547 16c216 0 390 174 390 390c0 217 -174 390 -390 390s-390 -173 -390 -390c0 -216 174 -390 390 -390z" />
    <glyph glyph-name="acircumflex" unicode="&#xe2;" horiz-adv-x="1186" 
d="M547 1182l-128 -257h-50l157 294h41l157 -294h-50zM1069 16h60v-16c-18 -10 -39 -16 -60 -16c-85 0 -132 57 -132 161v96c-63 -157 -214 -257 -390 -257c-232 0 -423 190 -423 422c0 233 191 423 423 423c176 0 327 -109 390 -264v248h33v-668c0 -83 35 -129 99 -129z
M547 16c216 0 390 174 390 390c0 217 -174 390 -390 390s-390 -173 -390 -390c0 -216 174 -390 390 -390z" />
    <glyph glyph-name="adieresis" unicode="&#xe4;" horiz-adv-x="1186" 
d="M422 1138c-26 0 -49 21 -49 49c0 26 23 48 49 48s49 -22 49 -48c0 -28 -23 -49 -49 -49zM671 1138c-26 0 -49 21 -49 49c0 26 23 48 49 48s49 -22 49 -48c0 -28 -23 -49 -49 -49zM1069 16h60v-16c-18 -10 -39 -16 -60 -16c-85 0 -132 57 -132 161v96
c-63 -157 -214 -257 -390 -257c-232 0 -423 190 -423 422c0 233 191 423 423 423c176 0 327 -109 390 -264v248h33v-668c0 -83 35 -129 99 -129zM547 16c216 0 390 174 390 390c0 217 -174 390 -390 390s-390 -173 -390 -390c0 -216 174 -390 390 -390z" />
    <glyph glyph-name="agrave" unicode="&#xe0;" horiz-adv-x="1186" 
d="M567 925h-41l-175 294h54zM1069 16h60v-16c-18 -10 -39 -16 -60 -16c-85 0 -132 57 -132 161v96c-63 -157 -214 -257 -390 -257c-232 0 -423 190 -423 422c0 233 191 423 423 423c176 0 327 -109 390 -264v248h33v-668c0 -83 35 -129 99 -129zM547 16
c216 0 390 174 390 390c0 217 -174 390 -390 390s-390 -173 -390 -390c0 -216 174 -390 390 -390z" />
    <glyph glyph-name="amacron" unicode="&#x101;" horiz-adv-x="1186" 
d="M750 1040v-32h-406v32h406zM1069 16h60v-16c-18 -10 -39 -16 -60 -16c-85 0 -132 57 -132 161v96c-63 -157 -214 -257 -390 -257c-232 0 -423 190 -423 422c0 233 191 423 423 423c176 0 327 -109 390 -264v248h33v-668c0 -83 35 -129 99 -129zM547 16
c216 0 390 174 390 390c0 217 -174 390 -390 390s-390 -173 -390 -390c0 -216 174 -390 390 -390z" />
    <glyph glyph-name="aogonek" unicode="&#x105;" horiz-adv-x="1186" 
d="M1249 -328l15 -26c-49 -46 -91 -69 -163 -69c-99 0 -151 64 -151 161c0 102 60 173 126 246h-7c-85 0 -132 57 -132 161v96c-63 -157 -214 -257 -390 -257c-232 0 -423 190 -423 422c0 233 191 423 423 423c176 0 327 -109 390 -264v248h33v-668c0 -83 35 -129 99 -129
h60v-16c-65 -67 -150 -151 -150 -262c0 -76 41 -128 122 -128c65 0 102 19 148 62zM547 16c216 0 390 174 390 390c0 217 -174 390 -390 390s-390 -173 -390 -390c0 -216 174 -390 390 -390z" />
    <glyph glyph-name="aring" unicode="&#xe5;" horiz-adv-x="1186" 
d="M548 904c-77 0 -138 61 -138 136c0 77 61 138 138 138c74 0 136 -61 136 -138c0 -75 -62 -136 -136 -136zM548 1148c-60 0 -108 -48 -108 -108c0 -58 48 -105 108 -105c58 0 105 47 105 105c0 60 -47 108 -105 108zM1069 16h60v-16c-18 -10 -39 -16 -60 -16
c-85 0 -132 57 -132 161v96c-63 -157 -214 -257 -390 -257c-232 0 -423 190 -423 422c0 233 191 423 423 423c176 0 327 -109 390 -264v248h33v-668c0 -83 35 -129 99 -129zM547 16c216 0 390 174 390 390c0 217 -174 390 -390 390s-390 -173 -390 -390
c0 -216 174 -390 390 -390z" />
    <glyph glyph-name="atilde" unicode="&#xe3;" horiz-adv-x="1186" 
d="M425 1187c-65 0 -109 -54 -109 -134h-32c0 98 58 166 141 166c141 0 124 -148 244 -148c63 0 109 54 109 132h32c0 -96 -58 -164 -141 -164c-142 0 -125 148 -244 148zM1069 16h60v-16c-18 -10 -39 -16 -60 -16c-85 0 -132 57 -132 161v96c-63 -157 -214 -257 -390 -257
c-232 0 -423 190 -423 422c0 233 191 423 423 423c176 0 327 -109 390 -264v248h33v-668c0 -83 35 -129 99 -129zM547 16c216 0 390 174 390 390c0 217 -174 390 -390 390s-390 -173 -390 -390c0 -216 174 -390 390 -390z" />
    <glyph glyph-name="ae" unicode="&#xe6;" horiz-adv-x="1704" 
d="M774 414v-16c1 -54 13 -106 34 -152l3 -2c0 -1 -1 -1 -1 -2c62 -134 197 -226 354 -226c171 0 317 109 369 262h34c-55 -171 -216 -294 -403 -294c-163 0 -305 93 -376 229c-103 -135 -250 -229 -359 -229c-172 0 -296 104 -296 247c0 144 111 248 264 248h350
c1 6 3 12 4 19v37c0 151 -115 261 -273 261c-125 0 -249 -71 -294 -169l-29 10c35 111 172 192 323 192c160 0 280 -101 302 -245c68 144 214 245 384 245c226 0 406 -172 421 -403v-12h-811zM1164 796c-204 0 -365 -148 -387 -349h774c-21 197 -185 349 -387 349zM429 16
c105 0 248 95 345 228c-21 50 -33 105 -33 162c0 14 1 28 2 41h-346c-134 0 -231 -91 -231 -216s110 -215 263 -215z" />
    <glyph glyph-name="b" unicode="b" horiz-adv-x="1166" 
d="M619 829c233 0 423 -190 423 -423c0 -232 -190 -422 -423 -422c-175 0 -326 108 -390 261v-245h-32v1495h32v-928c64 154 215 262 390 262zM619 16c216 0 390 174 390 390c0 217 -174 390 -390 390s-390 -173 -390 -390c0 -216 174 -390 390 -390z" />
    <glyph glyph-name="c" unicode="c" horiz-adv-x="1055" 
d="M547 -16c-232 0 -423 190 -423 422c0 233 191 423 423 423c177 0 332 -112 393 -268h-32c-60 140 -202 235 -361 235c-213 0 -393 -169 -390 -390c-3 -221 177 -390 390 -390c159 0 301 96 361 236h32c-61 -156 -216 -268 -393 -268z" />
    <glyph glyph-name="cacute" unicode="&#x107;" horiz-adv-x="1055" 
d="M505 925l162 294h54l-175 -294h-41zM547 -16c-232 0 -423 190 -423 422c0 233 191 423 423 423c177 0 332 -112 393 -268h-32c-60 140 -202 235 -361 235c-213 0 -393 -169 -390 -390c-3 -221 177 -390 390 -390c159 0 301 96 361 236h32c-61 -156 -216 -268 -393 -268z
" />
    <glyph glyph-name="ccaron" unicode="&#x10d;" horiz-adv-x="1055" 
d="M506 925l-158 294h41l138 -257l137 257h40l-158 -294h-40zM547 -16c-232 0 -423 190 -423 422c0 233 191 423 423 423c177 0 332 -112 393 -268h-32c-60 140 -202 235 -361 235c-213 0 -393 -169 -390 -390c-3 -221 177 -390 390 -390c159 0 301 96 361 236h32
c-61 -156 -216 -268 -393 -268z" />
    <glyph glyph-name="ccedilla" unicode="&#xe7;" horiz-adv-x="1055" 
d="M547 16c159 0 301 96 361 236h32c-61 -156 -216 -268 -393 -268c-9 0 -17 0 -25 1l-46 -109c122 26 218 -37 218 -144c0 -86 -67 -155 -153 -155c-63 0 -144 36 -183 82l24 21c34 -39 104 -70 159 -70c69 0 121 54 121 122c0 92 -87 140 -197 107l-29 26l55 123
c-206 28 -367 205 -367 418c0 233 191 423 423 423c177 0 332 -112 393 -268h-32c-60 140 -202 235 -361 235c-213 0 -393 -169 -390 -390c-3 -221 177 -390 390 -390z" />
    <glyph glyph-name="cdotaccent" unicode="&#x10b;" horiz-adv-x="1055" 
d="M526 1138c-26 0 -49 21 -49 49c0 26 23 48 49 48s49 -22 49 -48c0 -28 -23 -49 -49 -49zM547 -16c-232 0 -423 190 -423 422c0 233 191 423 423 423c177 0 332 -112 393 -268h-32c-60 140 -202 235 -361 235c-213 0 -393 -169 -390 -390c-3 -221 177 -390 390 -390
c159 0 301 96 361 236h32c-61 -156 -216 -268 -393 -268z" />
    <glyph glyph-name="d" unicode="d" horiz-adv-x="1167" 
d="M937 1495h33v-1495h-33v243c-64 -152 -216 -259 -390 -259c-232 0 -423 190 -423 422c0 233 191 423 423 423c174 0 326 -107 390 -260v926zM547 16c216 0 390 174 390 390c0 217 -174 390 -390 390s-390 -173 -390 -390c0 -216 174 -390 390 -390z" />
    <glyph glyph-name="eth" unicode="&#xf0;" horiz-adv-x="1118" 
d="M693 1097c168 -148 277 -400 277 -691c0 -232 -191 -422 -423 -422s-423 190 -423 422c0 233 191 423 423 423c159 0 300 -88 371 -220c-37 194 -125 357 -244 464l-103 -130l-24 21l101 128c-90 73 -197 114 -312 114v33c122 0 235 -44 333 -121l81 104l25 -21zM547 16
c216 0 390 174 390 390c0 217 -174 390 -390 390s-390 -173 -390 -390c0 -216 174 -390 390 -390z" />
    <glyph glyph-name="dcaron" unicode="&#x10f;" horiz-adv-x="1211" 
d="M937 569v926h33v-1495h-33v243c-64 -152 -216 -259 -390 -259c-232 0 -423 190 -423 422c0 233 191 423 423 423c174 0 326 -107 390 -260zM1318 1219h36l-223 -507h-36zM547 16c216 0 390 174 390 390c0 217 -174 390 -390 390s-390 -173 -390 -390
c0 -216 174 -390 390 -390z" />
    <glyph glyph-name="dcroat" unicode="&#x111;" horiz-adv-x="1167" 
d="M1091 1235v-32h-121v-1203h-33v243c-64 -152 -216 -259 -390 -259c-232 0 -423 190 -423 422c0 233 191 423 423 423c174 0 326 -107 390 -260v634h-252v32h252v260h33v-260h121zM547 16c216 0 390 174 390 390c0 217 -174 390 -390 390s-390 -173 -390 -390
c0 -216 174 -390 390 -390z" />
    <glyph glyph-name="e" unicode="e" horiz-adv-x="1087" 
d="M968 414h-811v-16c5 -213 177 -382 390 -382c171 0 317 109 369 262h34c-55 -171 -216 -294 -403 -294c-232 0 -423 190 -423 422c0 233 191 423 423 423c226 0 406 -172 421 -403v-12zM547 796c-203 0 -364 -148 -387 -349h774c-21 197 -185 349 -387 349z" />
    <glyph glyph-name="eacute" unicode="&#xe9;" horiz-adv-x="1087" 
d="M738 1219l-175 -294h-41l162 294h54zM968 414h-811v-16c5 -213 177 -382 390 -382c171 0 317 109 369 262h34c-55 -171 -216 -294 -403 -294c-232 0 -423 190 -423 422c0 233 191 423 423 423c226 0 406 -172 421 -403v-12zM547 796c-203 0 -364 -148 -387 -349h774
c-21 197 -185 349 -387 349z" />
    <glyph glyph-name="ecaron" unicode="&#x11b;" horiz-adv-x="1087" 
d="M563 925h-40l-158 294h41l138 -257l137 257h40zM968 414h-811v-16c5 -213 177 -382 390 -382c171 0 317 109 369 262h34c-55 -171 -216 -294 -403 -294c-232 0 -423 190 -423 422c0 233 191 423 423 423c226 0 406 -172 421 -403v-12zM547 796
c-203 0 -364 -148 -387 -349h774c-21 197 -185 349 -387 349z" />
    <glyph glyph-name="ecircumflex" unicode="&#xea;" horiz-adv-x="1087" 
d="M543 1182l-128 -257h-50l157 294h41l157 -294h-50zM968 414h-811v-16c5 -213 177 -382 390 -382c171 0 317 109 369 262h34c-55 -171 -216 -294 -403 -294c-232 0 -423 190 -423 422c0 233 191 423 423 423c226 0 406 -172 421 -403v-12zM547 796
c-203 0 -364 -148 -387 -349h774c-21 197 -185 349 -387 349z" />
    <glyph glyph-name="edieresis" unicode="&#xeb;" horiz-adv-x="1087" 
d="M418 1138c-26 0 -49 21 -49 49c0 26 23 48 49 48s49 -22 49 -48c0 -28 -23 -49 -49 -49zM667 1138c-26 0 -49 21 -49 49c0 26 23 48 49 48s49 -22 49 -48c0 -28 -23 -49 -49 -49zM968 414h-811v-16c5 -213 177 -382 390 -382c171 0 317 109 369 262h34
c-55 -171 -216 -294 -403 -294c-232 0 -423 190 -423 422c0 233 191 423 423 423c226 0 406 -172 421 -403v-12zM547 796c-203 0 -364 -148 -387 -349h774c-21 197 -185 349 -387 349z" />
    <glyph glyph-name="edotaccent" unicode="&#x117;" horiz-adv-x="1087" 
d="M543 1138c-26 0 -49 21 -49 49c0 26 23 48 49 48s49 -22 49 -48c0 -28 -23 -49 -49 -49zM968 414h-811v-16c5 -213 177 -382 390 -382c171 0 317 109 369 262h34c-55 -171 -216 -294 -403 -294c-232 0 -423 190 -423 422c0 233 191 423 423 423c226 0 406 -172 421 -403
v-12zM547 796c-203 0 -364 -148 -387 -349h774c-21 197 -185 349 -387 349z" />
    <glyph glyph-name="egrave" unicode="&#xe8;" horiz-adv-x="1087" 
d="M563 925h-41l-175 294h54zM968 414h-811v-16c5 -213 177 -382 390 -382c171 0 317 109 369 262h34c-55 -171 -216 -294 -403 -294c-232 0 -423 190 -423 422c0 233 191 423 423 423c226 0 406 -172 421 -403v-12zM547 796c-203 0 -364 -148 -387 -349h774
c-21 197 -185 349 -387 349z" />
    <glyph glyph-name="emacron" unicode="&#x113;" horiz-adv-x="1087" 
d="M746 1040v-32h-406v32h406zM968 414h-811v-16c5 -213 177 -382 390 -382c171 0 317 109 369 262h34c-55 -171 -216 -294 -403 -294c-232 0 -423 190 -423 422c0 233 191 423 423 423c226 0 406 -172 421 -403v-12zM547 796c-203 0 -364 -148 -387 -349h774
c-21 197 -185 349 -387 349z" />
    <glyph glyph-name="eogonek" unicode="&#x119;" horiz-adv-x="1087" 
d="M968 414h-811v-16c5 -213 177 -382 390 -382c171 0 317 109 369 262h34c-45 -140 -162 -248 -305 -283c-65 -66 -146 -149 -146 -257c0 -76 41 -128 122 -128c65 0 102 19 148 62l15 -26c-49 -46 -91 -69 -163 -69c-99 0 -151 64 -151 161c0 103 62 175 129 249
c-17 -2 -35 -3 -52 -3c-232 0 -423 190 -423 422c0 233 191 423 423 423c226 0 406 -172 421 -403v-12zM547 796c-203 0 -364 -148 -387 -349h774c-21 197 -185 349 -387 349z" />
    <glyph glyph-name="f" unicode="f" horiz-adv-x="515" 
d="M392 1463c-82 0 -145 -64 -145 -145v-505h234v-33h-234v-780h-33v780h-136v33h136v505c0 98 80 177 178 177c27 0 68 -11 89 -26v-21z" />
    <glyph glyph-name="g" unicode="g" horiz-adv-x="1166" 
d="M936 813h33v-862c0 -297 -191 -455 -423 -455c-154 0 -296 86 -372 223l29 14c70 -126 200 -204 343 -204c216 0 390 143 390 422v292c-64 -152 -216 -259 -390 -259c-232 0 -423 190 -423 422c0 234 191 423 423 423c174 0 326 -107 390 -259v243zM546 16
c216 0 390 176 390 390c0 217 -174 390 -390 390s-390 -173 -390 -390c0 -214 174 -390 390 -390z" />
    <glyph glyph-name="gbreve" unicode="&#x11f;" horiz-adv-x="1166" 
d="M575 998c-138 0 -247 98 -247 221h33c0 -106 94 -188 214 -188c121 0 215 82 215 188h33c0 -123 -109 -221 -248 -221zM936 813h33v-862c0 -297 -191 -455 -423 -455c-154 0 -296 86 -372 223l29 14c70 -126 200 -204 343 -204c216 0 390 143 390 422v292
c-64 -152 -216 -259 -390 -259c-232 0 -423 190 -423 422c0 234 191 423 423 423c174 0 326 -107 390 -259v243zM546 16c216 0 390 176 390 390c0 217 -174 390 -390 390s-390 -173 -390 -390c0 -214 174 -390 390 -390z" />
    <glyph glyph-name="uni0123" unicode="&#x123;" horiz-adv-x="1166" 
d="M729 1219l-135 -277h-36l135 277h36zM936 813h33v-862c0 -297 -191 -455 -423 -455c-154 0 -296 86 -372 223l29 14c70 -126 200 -204 343 -204c216 0 390 143 390 422v292c-64 -152 -216 -259 -390 -259c-232 0 -423 190 -423 422c0 234 191 423 423 423
c174 0 326 -107 390 -259v243zM546 16c216 0 390 176 390 390c0 217 -174 390 -390 390s-390 -173 -390 -390c0 -214 174 -390 390 -390z" />
    <glyph glyph-name="gdotaccent" unicode="&#x121;" horiz-adv-x="1166" 
d="M576 1138c-26 0 -49 21 -49 49c0 26 23 48 49 48s49 -22 49 -48c0 -28 -23 -49 -49 -49zM936 813h33v-862c0 -297 -191 -455 -423 -455c-154 0 -296 86 -372 223l29 14c70 -126 200 -204 343 -204c216 0 390 143 390 422v292c-64 -152 -216 -259 -390 -259
c-232 0 -423 190 -423 422c0 234 191 423 423 423c174 0 326 -107 390 -259v243zM546 16c216 0 390 176 390 390c0 217 -174 390 -390 390s-390 -173 -390 -390c0 -214 174 -390 390 -390z" />
    <glyph glyph-name="h" unicode="h" horiz-adv-x="947" 
d="M483 829c157 0 284 -135 284 -299v-530h-32v530c0 148 -114 268 -254 268c-138 0 -252 -120 -252 -268v-530h-32v1495h32v-830c47 97 143 164 254 164z" />
    <glyph glyph-name="hbar" unicode="&#x127;" horiz-adv-x="947" 
d="M483 829c157 0 284 -135 284 -299v-530h-32v530c0 148 -114 268 -254 268c-138 0 -252 -120 -252 -268v-530h-32v1203h-99v32h99v260h32v-260h275v-32h-275v-538c47 97 143 164 254 164z" />
    <glyph glyph-name="i" unicode="i" horiz-adv-x="426" 
d="M213 1138c-26 0 -49 21 -49 49c0 26 23 48 49 48s49 -22 49 -48c0 -28 -23 -49 -49 -49zM197 0v813h32v-813h-32z" />
    <glyph glyph-name="dotlessi" unicode="&#x131;" horiz-adv-x="426" 
d="M197 0v813h32v-813h-32z" />
    <glyph glyph-name="iacute" unicode="&#xed;" horiz-adv-x="426" 
d="M192 925l162 294h54l-175 -294h-41zM197 0v813h32v-813h-32z" />
    <glyph glyph-name="icircumflex" unicode="&#xee;" horiz-adv-x="426" 
d="M35 925l157 294h41l157 -294h-50l-127 257l-128 -257h-50zM197 0v813h32v-813h-32z" />
    <glyph glyph-name="idieresis" unicode="&#xef;" horiz-adv-x="426" 
d="M88 1138c-26 0 -49 21 -49 49c0 26 23 48 49 48s49 -22 49 -48c0 -28 -23 -49 -49 -49zM337 1138c-26 0 -49 21 -49 49c0 26 23 48 49 48s49 -22 49 -48c0 -28 -23 -49 -49 -49zM197 0v813h32v-813h-32z" />
    <glyph glyph-name="i.loclTRK" horiz-adv-x="426" 
d="M213 1138c-26 0 -49 21 -49 49c0 26 23 48 49 48s49 -22 49 -48c0 -28 -23 -49 -49 -49zM197 0v813h32v-813h-32z" />
    <glyph glyph-name="igrave" unicode="&#xec;" horiz-adv-x="426" 
d="M192 925l-175 294h54l162 -294h-41zM197 0v813h32v-813h-32z" />
    <glyph glyph-name="imacron" unicode="&#x12b;" horiz-adv-x="426" 
d="M10 1008v32h406v-32h-406zM197 0v813h32v-813h-32z" />
    <glyph glyph-name="iogonek" unicode="&#x12f;" horiz-adv-x="426" 
d="M213 1138c-26 0 -49 21 -49 49c0 26 23 48 49 48s49 -22 49 -48c0 -28 -23 -49 -49 -49zM349 -328l15 -26c-49 -46 -91 -69 -163 -69c-99 0 -151 64 -151 161c0 113 74 188 147 270v805h32v-813c-65 -67 -150 -151 -150 -262c0 -76 41 -128 122 -128c65 0 102 19 148 62z
" />
    <glyph glyph-name="j" unicode="j" horiz-adv-x="426" 
d="M213 1138c-26 0 -49 21 -49 49c0 26 23 48 49 48s49 -22 49 -48c0 -28 -23 -49 -49 -49zM44 -553c-26 0 -54 5 -82 12v21h56c130 0 179 63 179 145v1188h32v-1188c0 -113 -76 -178 -185 -178z" />
    <glyph glyph-name="uni0237" unicode="&#x237;" horiz-adv-x="426" 
d="M44 -553c-26 0 -54 5 -82 12v21h56c130 0 179 63 179 145v1188h32v-1188c0 -113 -76 -178 -185 -178z" />
    <glyph glyph-name="k" unicode="k" horiz-adv-x="762" 
d="M720 0h-47l-444 449v-447h-32v1493h32v-1035l408 353h50l-416 -358z" />
    <glyph glyph-name="uni0137" unicode="&#x137;" horiz-adv-x="762" 
d="M271 455l449 -455h-47l-444 449v-447h-32v1493h32v-1035l408 353h50zM228 -397l135 307h36l-135 -307h-36z" />
    <glyph glyph-name="l" unicode="l" horiz-adv-x="426" 
d="M197 0v1495h32v-1495h-32z" />
    <glyph glyph-name="lacute" unicode="&#x13a;" horiz-adv-x="426" 
d="M192 1607l162 294h54l-175 -294h-41zM197 0v1495h32v-1495h-32z" />
    <glyph glyph-name="lcaron" unicode="&#x13e;" horiz-adv-x="460" 
d="M197 0v1495h32v-1495h-32zM337 712l223 507h36l-223 -507h-36z" />
    <glyph glyph-name="uni013C" unicode="&#x13c;" horiz-adv-x="426" 
d="M197 0v1495h32v-1495h-32zM60 -397l135 307h36l-135 -307h-36z" />
    <glyph glyph-name="lslash" unicode="&#x142;" horiz-adv-x="426" 
d="M343 915v-48l-114 -125v-742h-32v706l-115 -126v45l115 128v742h32v-707z" />
    <glyph glyph-name="m" unicode="m" horiz-adv-x="1428" 
d="M197 0v813h32v-132c45 90 136 148 239 148c117 0 217 -74 254 -185c37 111 137 185 255 185c148 0 268 -119 268 -283v-546h-31v546c0 148 -107 250 -239 250s-237 -102 -237 -250v-546h-33v546c0 148 -105 250 -239 250c-131 0 -237 -102 -237 -250v-546h-32z" />
    <glyph glyph-name="n" unicode="n" horiz-adv-x="976" 
d="M497 829c166 0 299 -135 299 -299v-530h-32v530c0 148 -119 268 -267 268s-268 -120 -268 -268v-530h-32v813h32v-150c49 98 150 166 268 166z" />
    <glyph glyph-name="nacute" unicode="&#x144;" horiz-adv-x="976" 
d="M683 1219l-175 -294h-41l162 294h54zM497 829c166 0 299 -135 299 -299v-530h-32v530c0 148 -119 268 -267 268s-268 -120 -268 -268v-530h-32v813h32v-150c49 98 150 166 268 166z" />
    <glyph glyph-name="ncaron" unicode="&#x148;" horiz-adv-x="976" 
d="M508 925h-40l-158 294h41l138 -257l137 257h40zM497 829c166 0 299 -135 299 -299v-530h-32v530c0 148 -119 268 -267 268s-268 -120 -268 -268v-530h-32v813h32v-150c49 98 150 166 268 166z" />
    <glyph glyph-name="uni0146" unicode="&#x146;" horiz-adv-x="976" 
d="M497 829c166 0 299 -135 299 -299v-530h-32v530c0 148 -119 268 -267 268s-268 -120 -268 -268v-530h-32v813h32v-150c49 98 150 166 268 166zM335 -397l135 307h36l-135 -307h-36z" />
    <glyph glyph-name="eng" unicode="&#x14b;" horiz-adv-x="976" 
d="M497 829c166 0 299 -135 299 -299v-761c0 -97 -65 -162 -154 -154v32c70 -13 122 39 122 122v761c0 148 -119 268 -267 268s-268 -120 -268 -268v-530h-32v813h32v-150c49 98 150 166 268 166z" />
    <glyph glyph-name="ntilde" unicode="&#xf1;" horiz-adv-x="976" 
d="M366 1187c-65 0 -109 -54 -109 -134h-32c0 98 58 166 141 166c141 0 124 -148 244 -148c63 0 109 54 109 132h32c0 -96 -58 -164 -141 -164c-142 0 -125 148 -244 148zM497 829c166 0 299 -135 299 -299v-530h-32v530c0 148 -119 268 -267 268s-268 -120 -268 -268v-530
h-32v813h32v-150c49 98 150 166 268 166z" />
    <glyph glyph-name="o" unicode="o" horiz-adv-x="1094" 
d="M547 -16c-232 0 -423 190 -423 422c0 233 191 423 423 423s423 -190 423 -423c0 -232 -191 -422 -423 -422zM547 16c216 0 390 174 390 390c0 217 -174 390 -390 390s-390 -173 -390 -390c0 -216 174 -390 390 -390z" />
    <glyph glyph-name="oacute" unicode="&#xf3;" horiz-adv-x="1094" 
d="M526 925l162 294h54l-175 -294h-41zM547 -16c-232 0 -423 190 -423 422c0 233 191 423 423 423s423 -190 423 -423c0 -232 -191 -422 -423 -422zM547 16c216 0 390 174 390 390c0 217 -174 390 -390 390s-390 -173 -390 -390c0 -216 174 -390 390 -390z" />
    <glyph glyph-name="ocircumflex" unicode="&#xf4;" horiz-adv-x="1094" 
d="M369 925l157 294h41l157 -294h-50l-127 257l-128 -257h-50zM547 -16c-232 0 -423 190 -423 422c0 233 191 423 423 423s423 -190 423 -423c0 -232 -191 -422 -423 -422zM547 16c216 0 390 174 390 390c0 217 -174 390 -390 390s-390 -173 -390 -390
c0 -216 174 -390 390 -390z" />
    <glyph glyph-name="odieresis" unicode="&#xf6;" horiz-adv-x="1094" 
d="M422 1138c-26 0 -49 21 -49 49c0 26 23 48 49 48s49 -22 49 -48c0 -28 -23 -49 -49 -49zM671 1138c-26 0 -49 21 -49 49c0 26 23 48 49 48s49 -22 49 -48c0 -28 -23 -49 -49 -49zM547 -16c-232 0 -423 190 -423 422c0 233 191 423 423 423s423 -190 423 -423
c0 -232 -191 -422 -423 -422zM547 16c216 0 390 174 390 390c0 217 -174 390 -390 390s-390 -173 -390 -390c0 -216 174 -390 390 -390z" />
    <glyph glyph-name="ograve" unicode="&#xf2;" horiz-adv-x="1094" 
d="M526 925l-175 294h54l162 -294h-41zM547 -16c-232 0 -423 190 -423 422c0 233 191 423 423 423s423 -190 423 -423c0 -232 -191 -422 -423 -422zM547 16c216 0 390 174 390 390c0 217 -174 390 -390 390s-390 -173 -390 -390c0 -216 174 -390 390 -390z" />
    <glyph glyph-name="ohungarumlaut" unicode="&#x151;" horiz-adv-x="1094" 
d="M394 925l161 294h54l-174 -294h-41zM659 925l161 294h54l-174 -294h-41zM547 -16c-232 0 -423 190 -423 422c0 233 191 423 423 423s423 -190 423 -423c0 -232 -191 -422 -423 -422zM547 16c216 0 390 174 390 390c0 217 -174 390 -390 390s-390 -173 -390 -390
c0 -216 174 -390 390 -390z" />
    <glyph glyph-name="omacron" unicode="&#x14d;" horiz-adv-x="1094" 
d="M344 1008v32h406v-32h-406zM547 -16c-232 0 -423 190 -423 422c0 233 191 423 423 423s423 -190 423 -423c0 -232 -191 -422 -423 -422zM547 16c216 0 390 174 390 390c0 217 -174 390 -390 390s-390 -173 -390 -390c0 -216 174 -390 390 -390z" />
    <glyph glyph-name="oslash" unicode="&#xf8;" horiz-adv-x="1094" 
d="M801 744c102 -77 169 -200 169 -338c0 -232 -191 -422 -423 -422c-84 0 -163 25 -229 68l-80 -114l-26 16l81 116c-103 77 -169 199 -169 336c0 233 191 423 423 423c84 0 162 -25 228 -67l80 114l26 -17zM157 406c0 -127 60 -239 154 -311l446 640
c-61 39 -133 61 -210 61c-216 0 -390 -173 -390 -390zM547 16c216 0 390 174 390 390c0 128 -61 241 -155 312l-446 -640c60 -39 133 -62 211 -62z" />
    <glyph glyph-name="otilde" unicode="&#xf5;" horiz-adv-x="1094" 
d="M669 1039c-142 0 -125 148 -244 148c-65 0 -109 -54 -109 -134h-32c0 98 58 166 141 166c141 0 124 -148 244 -148c63 0 109 54 109 132h32c0 -96 -58 -164 -141 -164zM547 -16c-232 0 -423 190 -423 422c0 233 191 423 423 423s423 -190 423 -423
c0 -232 -191 -422 -423 -422zM547 16c216 0 390 174 390 390c0 217 -174 390 -390 390s-390 -173 -390 -390c0 -216 174 -390 390 -390z" />
    <glyph glyph-name="oe" unicode="&#x153;" horiz-adv-x="1905" 
d="M1786 414h-811v-16c5 -213 177 -382 390 -382c171 0 317 109 369 262h34c-55 -171 -216 -294 -403 -294c-195 0 -361 134 -409 315c-48 -181 -214 -315 -409 -315c-232 0 -423 190 -423 422c0 233 191 423 423 423c195 0 361 -134 409 -315c48 181 214 315 409 315
c226 0 406 -172 421 -403v-12zM547 16c216 0 390 174 390 390c0 217 -174 390 -390 390s-390 -173 -390 -390c0 -216 174 -390 390 -390zM1365 796c-203 0 -364 -148 -387 -349h774c-21 197 -185 349 -387 349z" />
    <glyph glyph-name="p" unicode="p" horiz-adv-x="1166" 
d="M619 829c233 0 423 -190 423 -423c0 -232 -190 -422 -423 -422c-175 0 -326 108 -390 261v-733h-32v1301h32v-246c64 154 215 262 390 262zM619 16c216 0 390 174 390 390c0 217 -174 390 -390 390s-390 -173 -390 -390c0 -216 174 -390 390 -390z" />
    <glyph glyph-name="thorn" unicode="&#xfe;" horiz-adv-x="1166" 
d="M619 829c233 0 423 -190 423 -423c0 -232 -190 -422 -423 -422c-175 0 -326 108 -390 261v-733h-32v1983h32v-928c64 154 215 262 390 262zM619 16c216 0 390 174 390 390c0 217 -174 390 -390 390s-390 -173 -390 -390c0 -216 174 -390 390 -390z" />
    <glyph glyph-name="q" unicode="q" horiz-adv-x="1166" 
d="M1113 -455h72v-16c-21 -10 -51 -17 -72 -17c-97 0 -177 80 -177 178v553c-64 -152 -216 -259 -390 -259c-232 0 -423 190 -423 422c0 233 191 423 423 423c174 0 326 -107 390 -260v244h33v-1123c0 -82 63 -145 144 -145zM546 16c216 0 390 174 390 390
c0 217 -174 390 -390 390s-390 -173 -390 -390c0 -216 174 -390 390 -390z" />
    <glyph glyph-name="r" unicode="r" horiz-adv-x="622" 
d="M197 0v813h32v-161c52 105 161 177 284 177c28 0 53 -3 77 -8v-36c-23 8 -49 11 -77 11c-156 0 -284 -126 -284 -299v-497h-32z" />
    <glyph glyph-name="racute" unicode="&#x155;" horiz-adv-x="622" 
d="M319 925l162 294h54l-175 -294h-41zM197 0v813h32v-161c52 105 161 177 284 177c28 0 53 -3 77 -8v-36c-23 8 -49 11 -77 11c-156 0 -284 -126 -284 -299v-497h-32z" />
    <glyph glyph-name="rcaron" unicode="&#x159;" horiz-adv-x="622" 
d="M320 925l-158 294h41l138 -257l137 257h40l-158 -294h-40zM197 0v813h32v-161c52 105 161 177 284 177c28 0 53 -3 77 -8v-36c-23 8 -49 11 -77 11c-156 0 -284 -126 -284 -299v-497h-32z" />
    <glyph glyph-name="uni0157" unicode="&#x157;" horiz-adv-x="622" 
d="M197 0v813h32v-161c52 105 161 177 284 177c28 0 53 -3 77 -8v-36c-23 8 -49 11 -77 11c-156 0 -284 -126 -284 -299v-497h-32zM60 -397l135 307h36l-135 -307h-36z" />
    <glyph glyph-name="s" unicode="s" horiz-adv-x="714" 
d="M370 -16c-116 0 -229 68 -262 156l31 11c26 -75 128 -135 231 -135c107 0 205 65 205 179s-100 156 -202 197c-110 44 -224 89 -224 231c0 149 128 206 221 206c81 0 157 -44 193 -94l-26 -20c-39 55 -102 80 -164 80c-89 0 -192 -49 -192 -169c0 -119 99 -160 202 -202
c110 -45 224 -92 224 -237c0 -114 -106 -203 -237 -203z" />
    <glyph glyph-name="sacute" unicode="&#x15b;" horiz-adv-x="714" 
d="M339 925l162 294h54l-175 -294h-41zM370 -16c-116 0 -229 68 -262 156l31 11c26 -75 128 -135 231 -135c107 0 205 65 205 179s-100 156 -202 197c-110 44 -224 89 -224 231c0 149 128 206 221 206c81 0 157 -44 193 -94l-26 -20c-39 55 -102 80 -164 80
c-89 0 -192 -49 -192 -169c0 -119 99 -160 202 -202c110 -45 224 -92 224 -237c0 -114 -106 -203 -237 -203z" />
    <glyph glyph-name="scaron" unicode="&#x161;" horiz-adv-x="714" 
d="M340 925l-158 294h41l138 -257l137 257h40l-158 -294h-40zM370 -16c-116 0 -229 68 -262 156l31 11c26 -75 128 -135 231 -135c107 0 205 65 205 179s-100 156 -202 197c-110 44 -224 89 -224 231c0 149 128 206 221 206c81 0 157 -44 193 -94l-26 -20
c-39 55 -102 80 -164 80c-89 0 -192 -49 -192 -169c0 -119 99 -160 202 -202c110 -45 224 -92 224 -237c0 -114 -106 -203 -237 -203z" />
    <glyph glyph-name="scedilla" unicode="&#x15f;" horiz-adv-x="714" 
d="M370 -16h-15l-45 -108c122 26 218 -37 218 -144c0 -86 -67 -155 -153 -155c-63 0 -144 36 -183 82l24 21c34 -39 104 -70 159 -70c69 0 121 54 121 122c0 92 -87 140 -197 107l-29 26l54 122c-98 15 -187 77 -216 153l31 11c26 -75 128 -135 231 -135
c107 0 205 65 205 179s-100 156 -202 197c-110 44 -224 89 -224 231c0 149 128 206 221 206c81 0 157 -44 193 -94l-26 -20c-39 55 -102 80 -164 80c-89 0 -192 -49 -192 -169c0 -119 99 -160 202 -202c110 -45 224 -92 224 -237c0 -114 -106 -203 -237 -203z" />
    <glyph glyph-name="uni0219" unicode="&#x219;" horiz-adv-x="714" 
d="M370 -16c-116 0 -229 68 -262 156l31 11c26 -75 128 -135 231 -135c107 0 205 65 205 179s-100 156 -202 197c-110 44 -224 89 -224 231c0 149 128 206 221 206c81 0 157 -44 193 -94l-26 -20c-39 55 -102 80 -164 80c-89 0 -192 -49 -192 -169c0 -119 99 -160 202 -202
c110 -45 224 -92 224 -237c0 -114 -106 -203 -237 -203zM207 -397l135 307h36l-135 -307h-36z" />
    <glyph glyph-name="germandbls" unicode="&#xdf;" horiz-adv-x="1059" 
d="M684 604c147 -27 255 -153 255 -307c0 -177 -143 -297 -304 -297h-256v33h255c144 0 273 107 273 264c0 156 -125 280 -283 280h-122v33h54c156 0 281 126 281 290c0 165 -125 287 -301 287c-175 0 -307 -121 -307 -287v-900h-32v900c0 186 144 319 338 319
c195 0 334 -135 334 -317c0 -136 -75 -248 -185 -298z" />
    <glyph glyph-name="t" unicode="t" horiz-adv-x="537" 
d="M478 780h-237v-619c0 -81 63 -145 145 -145h89v-6c-21 -15 -62 -26 -89 -26c-98 0 -177 79 -177 177v619h-137v33h137v352h32v-352h237v-33z" />
    <glyph glyph-name="tbar" unicode="&#x167;" horiz-adv-x="537" 
d="M484 391h-243v-230c0 -81 63 -145 145 -145h89v-6c-21 -15 -62 -26 -89 -26c-98 0 -177 79 -177 177v230h-131v32h131v357h-137v33h137v352h32v-352h237v-33h-237v-357h243v-32z" />
    <glyph glyph-name="tcaron" unicode="&#x165;" horiz-adv-x="537" 
d="M687 1517l-223 -507h-36l223 507h36zM241 1165v-352h237v-33h-237v-619c0 -81 63 -145 145 -145h89v-6c-21 -15 -62 -26 -89 -26c-98 0 -177 79 -177 177v619h-137v33h137v352h32z" />
    <glyph glyph-name="uni0163" unicode="&#x163;" horiz-adv-x="537" 
d="M293 -124c122 26 218 -37 218 -144c0 -86 -67 -155 -153 -155c-63 0 -144 36 -183 82l24 21c34 -39 104 -70 159 -70c69 0 121 54 121 122c0 92 -87 140 -197 107l-29 26l60 135c-61 27 -104 89 -104 161v619h-137v33h137v352h32v-352h237v-33h-237v-619
c0 -81 63 -145 145 -145h89v-6c-21 -15 -62 -26 -89 -26c-16 0 -31 2 -45 6z" />
    <glyph glyph-name="uni021B" unicode="&#x21b;" horiz-adv-x="537" 
d="M478 780h-237v-619c0 -81 63 -145 145 -145h89v-6c-21 -15 -62 -26 -89 -26c-98 0 -177 79 -177 177v619h-137v33h137v352h32v-352h237v-33zM190 -397l135 307h36l-135 -307h-36z" />
    <glyph glyph-name="u" unicode="u" horiz-adv-x="935" 
d="M466 -16c-158 0 -284 111 -284 285v544h32v-544c0 -156 114 -253 252 -253c140 0 254 97 254 253v544h32v-544c0 -174 -128 -285 -286 -285z" />
    <glyph glyph-name="uacute" unicode="&#xfa;" horiz-adv-x="935" 
d="M446 925l162 294h54l-175 -294h-41zM466 -16c-158 0 -284 111 -284 285v544h32v-544c0 -156 114 -253 252 -253c140 0 254 97 254 253v544h32v-544c0 -174 -128 -285 -286 -285z" />
    <glyph glyph-name="ucircumflex" unicode="&#xfb;" horiz-adv-x="935" 
d="M289 925l157 294h41l157 -294h-50l-127 257l-128 -257h-50zM466 -16c-158 0 -284 111 -284 285v544h32v-544c0 -156 114 -253 252 -253c140 0 254 97 254 253v544h32v-544c0 -174 -128 -285 -286 -285z" />
    <glyph glyph-name="udieresis" unicode="&#xfc;" horiz-adv-x="935" 
d="M342 1138c-26 0 -49 21 -49 49c0 26 23 48 49 48s49 -22 49 -48c0 -28 -23 -49 -49 -49zM591 1138c-26 0 -49 21 -49 49c0 26 23 48 49 48s49 -22 49 -48c0 -28 -23 -49 -49 -49zM466 -16c-158 0 -284 111 -284 285v544h32v-544c0 -156 114 -253 252 -253
c140 0 254 97 254 253v544h32v-544c0 -174 -128 -285 -286 -285z" />
    <glyph glyph-name="ugrave" unicode="&#xf9;" horiz-adv-x="935" 
d="M446 925l-175 294h54l162 -294h-41zM466 -16c-158 0 -284 111 -284 285v544h32v-544c0 -156 114 -253 252 -253c140 0 254 97 254 253v544h32v-544c0 -174 -128 -285 -286 -285z" />
    <glyph glyph-name="uhungarumlaut" unicode="&#x171;" horiz-adv-x="935" 
d="M314 925l161 294h54l-174 -294h-41zM579 925l161 294h54l-174 -294h-41zM466 -16c-158 0 -284 111 -284 285v544h32v-544c0 -156 114 -253 252 -253c140 0 254 97 254 253v544h32v-544c0 -174 -128 -285 -286 -285z" />
    <glyph glyph-name="umacron" unicode="&#x16b;" horiz-adv-x="935" 
d="M264 1008v32h406v-32h-406zM466 -16c-158 0 -284 111 -284 285v544h32v-544c0 -156 114 -253 252 -253c140 0 254 97 254 253v544h32v-544c0 -174 -128 -285 -286 -285z" />
    <glyph glyph-name="uogonek" unicode="&#x173;" horiz-adv-x="935" 
d="M752 269c0 -137 -79 -235 -190 -270c-65 -67 -149 -151 -149 -261c0 -76 41 -128 122 -128c65 0 102 19 148 62l15 -26c-49 -46 -91 -69 -163 -69c-99 0 -151 64 -151 161c0 104 62 175 129 249c-16 -2 -31 -3 -47 -3c-158 0 -284 111 -284 285v544h32v-544
c0 -156 114 -253 252 -253c140 0 254 97 254 253v544h32v-544z" />
    <glyph glyph-name="uring" unicode="&#x16f;" horiz-adv-x="935" 
d="M468 904c-77 0 -138 61 -138 136c0 77 61 138 138 138c74 0 136 -61 136 -138c0 -75 -62 -136 -136 -136zM468 935c58 0 105 47 105 105c0 60 -47 108 -105 108c-60 0 -108 -48 -108 -108c0 -58 48 -105 108 -105zM466 -16c-158 0 -284 111 -284 285v544h32v-544
c0 -156 114 -253 252 -253c140 0 254 97 254 253v544h32v-544c0 -174 -128 -285 -286 -285z" />
    <glyph glyph-name="v" unicode="v" horiz-adv-x="808" 
d="M713 813h34l-325 -813h-36l-325 813h36l308 -770z" />
    <glyph glyph-name="w" unicode="w" horiz-adv-x="1310" 
d="M1209 813h30l-278 -813h-42l-263 767l-263 -767h-43l-279 813h34l267 -773l266 773h36l267 -776z" />
    <glyph glyph-name="wacute" unicode="&#x1e83;" horiz-adv-x="1310" 
d="M851 1219l-175 -294h-41l162 294h54zM1209 813h30l-278 -813h-42l-263 767l-263 -767h-43l-279 813h34l267 -773l266 773h36l267 -776z" />
    <glyph glyph-name="wcircumflex" unicode="&#x175;" horiz-adv-x="1310" 
d="M656 1182l-128 -257h-50l157 294h41l157 -294h-50zM1209 813h30l-278 -813h-42l-263 767l-263 -767h-43l-279 813h34l267 -773l266 773h36l267 -776z" />
    <glyph glyph-name="wdieresis" unicode="&#x1e85;" horiz-adv-x="1310" 
d="M531 1138c-26 0 -49 21 -49 49c0 26 23 48 49 48s49 -22 49 -48c0 -28 -23 -49 -49 -49zM780 1138c-26 0 -49 21 -49 49c0 26 23 48 49 48s49 -22 49 -48c0 -28 -23 -49 -49 -49zM1209 813h30l-278 -813h-42l-263 767l-263 -767h-43l-279 813h34l267 -773l266 773h36
l267 -776z" />
    <glyph glyph-name="wgrave" unicode="&#x1e81;" horiz-adv-x="1310" 
d="M676 925h-41l-175 294h54zM1209 813h30l-278 -813h-42l-263 767l-263 -767h-43l-279 813h34l267 -773l266 773h36l267 -776z" />
    <glyph glyph-name="x" unicode="x" horiz-adv-x="830" 
d="M771 813l-334 -406l334 -407h-42l-314 381l-313 -381h-43l335 407l-335 406h43l313 -381l314 381h42z" />
    <glyph glyph-name="y" unicode="y" horiz-adv-x="810" 
d="M713 813h36l-329 -820l-192 -481h-35l195 488l-327 813h36l307 -769h3z" />
    <glyph glyph-name="yacute" unicode="&#xfd;" horiz-adv-x="810" 
d="M600 1219l-175 -294h-41l162 294h54zM713 813h36l-329 -820l-192 -481h-35l195 488l-327 813h36l307 -769h3z" />
    <glyph glyph-name="ycircumflex" unicode="&#x177;" horiz-adv-x="810" 
d="M405 1182l-128 -257h-50l157 294h41l157 -294h-50zM713 813h36l-329 -820l-192 -481h-35l195 488l-327 813h36l307 -769h3z" />
    <glyph glyph-name="ydieresis" unicode="&#xff;" horiz-adv-x="810" 
d="M280 1138c-26 0 -49 21 -49 49c0 26 23 48 49 48s49 -22 49 -48c0 -28 -23 -49 -49 -49zM529 1138c-26 0 -49 21 -49 49c0 26 23 48 49 48s49 -22 49 -48c0 -28 -23 -49 -49 -49zM713 813h36l-329 -820l-192 -481h-35l195 488l-327 813h36l307 -769h3z" />
    <glyph glyph-name="ygrave" unicode="&#x1ef3;" horiz-adv-x="810" 
d="M425 925h-41l-175 294h54zM713 813h36l-329 -820l-192 -481h-35l195 488l-327 813h36l307 -769h3z" />
    <glyph glyph-name="z" unicode="z" horiz-adv-x="809" 
d="M123 33h629v-33h-694l603 780h-583v33h652z" />
    <glyph glyph-name="zacute" unicode="&#x17a;" horiz-adv-x="809" 
d="M600 1219l-175 -294h-41l162 294h54zM123 33h629v-33h-694l603 780h-583v33h652z" />
    <glyph glyph-name="zcaron" unicode="&#x17e;" horiz-adv-x="809" 
d="M425 925h-40l-158 294h41l138 -257l137 257h40zM123 33h629v-33h-694l603 780h-583v33h652z" />
    <glyph glyph-name="zdotaccent" unicode="&#x17c;" horiz-adv-x="809" 
d="M405 1138c-26 0 -49 21 -49 49c0 26 23 48 49 48s49 -22 49 -48c0 -28 -23 -49 -49 -49zM123 33h629v-33h-694l603 780h-583v33h652z" />
    <glyph glyph-name="ordfeminine" unicode="&#xaa;" horiz-adv-x="953" 
d="M677 1219h30v-489h-30v139c-39 -88 -125 -149 -228 -149c-138 0 -252 114 -252 254c0 139 114 253 252 253c103 0 189 -61 228 -149v141zM452 751c124 0 225 99 225 223c0 123 -101 222 -225 222c-123 0 -222 -99 -222 -222c0 -124 99 -223 222 -223z" />
    <glyph glyph-name="ordmasculine" unicode="&#xba;" horiz-adv-x="806" 
d="M402 720c-139 0 -255 114 -255 254c0 139 116 253 255 253c142 0 256 -114 256 -253c0 -140 -114 -254 -256 -254zM402 751c124 0 225 99 225 223c0 123 -101 222 -225 222c-123 0 -222 -99 -222 -222c0 -124 99 -223 222 -223z" />
    <glyph glyph-name="uni0394" unicode="&#x394;" horiz-adv-x="1196" 
d="M616 1219l489 -1219h-1014l489 1219h36zM142 33h913l-457 1143z" />
    <glyph glyph-name="uni03A9" unicode="&#x3a9;" horiz-adv-x="1559" 
d="M153 0v29h331v17c-162 110 -302 310 -302 575c0 338 261 596 603 596c349 0 593 -281 593 -591c0 -278 -158 -491 -304 -580v-17h333v-29h-432v20c177 86 364 302 364 606c-2 247 -193 562 -553 562c-344 0 -565 -270 -565 -567c0 -289 187 -512 362 -601v-20h-430z" />
    <glyph glyph-name="uni03BC" unicode="&#x3bc;" horiz-adv-x="1024" 
d="M795 813h32v-813h-32v160c-51 -104 -159 -176 -283 -176s-232 72 -283 176v-566h-32v1219h32v-514c0 -156 127 -283 283 -283s283 127 283 283v514z" />
    <glyph glyph-name="pi" unicode="&#x3c0;" horiz-adv-x="1007" 
d="M95 0c78 169 150 546 164 842c-156 0 -219 -11 -265 -28l-6 18c50 21 114 36 240 36h772l-3 -26h-190v-587c0 -140 8 -201 31 -255h-37c-18 34 -26 112 -26 239v603l-480 2c-13 -243 -86 -688 -164 -844h-36z" />
    <glyph glyph-name="zero" unicode="0" horiz-adv-x="1056" 
d="M529 -16c-268 0 -424 279 -424 626c0 346 156 625 424 625c266 0 422 -279 422 -625c0 -347 -156 -626 -422 -626zM529 16c247 0 390 265 390 594c0 328 -143 593 -390 593c-249 0 -392 -265 -392 -593c0 -329 143 -594 392 -594z" />
    <glyph glyph-name="one" unicode="1" horiz-adv-x="1056" 
d="M539 0v1187h-202v32h235v-1219h-33z" />
    <glyph glyph-name="two" unicode="2" horiz-adv-x="1056" 
d="M173 33h767v-33h-847l536 527c159 157 223 241 223 365c0 189 -131 308 -312 311c-180 3 -317 -116 -330 -304l-32 1c13 205 160 339 362 335c182 -3 330 -115 343 -323c8 -133 -41 -220 -229 -405z" />
    <glyph glyph-name="three" unicode="3" horiz-adv-x="1056" 
d="M521 692c195 0 354 -159 354 -354s-159 -354 -354 -354s-355 159 -355 354h33c0 -177 144 -322 322 -322c177 0 321 145 321 322s-144 322 -321 322h-208l435 525l4 2h-537v32h605l-440 -527h141z" />
    <glyph glyph-name="four" unicode="4" horiz-adv-x="1056" 
d="M916 289v-32h-150v-257h-32v257h-598l596 962h34v-930h150zM196 289h538v873z" />
    <glyph glyph-name="five" unicode="5" horiz-adv-x="1056" 
d="M504 793c222 0 403 -182 403 -406c0 -221 -176 -403 -416 -403c-134 0 -270 55 -350 167v38h7c94 -127 222 -173 343 -173c222 0 383 166 383 371c0 208 -166 374 -370 374c-100 0 -194 -39 -264 -108l-39 22l80 541h561v-33h-532l-73 -488c72 61 165 98 267 98z" />
    <glyph glyph-name="six" unicode="6" horiz-adv-x="1056" 
d="M931 426c18 -223 -149 -419 -370 -437c-225 -19 -418 152 -436 370c-10 117 31 229 112 314l460 546h49l-390 -454c38 16 82 25 138 30c223 19 418 -146 437 -369zM558 21c213 18 357 206 341 401c-17 205 -194 357 -403 340c-201 -17 -355 -193 -338 -402
c17 -206 200 -356 400 -339z" />
    <glyph glyph-name="seven" unicode="7" horiz-adv-x="1056" 
d="M138 1219h788v-5l-706 -1214h-45l697 1187h-734v32z" />
    <glyph glyph-name="eight" unicode="8" horiz-adv-x="1056" 
d="M528 -16c-195 0 -354 159 -354 354c0 160 108 296 254 340c-109 40 -187 145 -187 270c0 159 128 287 287 287c160 0 288 -128 288 -287c0 -125 -78 -230 -188 -270c147 -44 255 -180 255 -340c0 -195 -160 -354 -355 -354zM528 692c142 0 255 114 255 256
c0 141 -113 255 -255 255c-141 0 -255 -114 -255 -255c0 -142 114 -256 255 -256zM528 16c177 0 322 145 322 322s-145 322 -322 322s-322 -145 -322 -322s145 -322 322 -322z" />
    <glyph glyph-name="nine" unicode="9" horiz-adv-x="1056" 
d="M932 860c10 -117 -33 -229 -112 -314l-460 -546h-51l392 454c-38 -16 -83 -25 -138 -30c-223 -19 -418 146 -437 368c-19 227 148 420 369 438c227 18 417 -152 437 -370zM561 457c205 17 355 198 338 401c-17 205 -198 357 -400 340c-203 -17 -359 -194 -341 -402
c18 -207 195 -356 403 -339z" />
    <glyph glyph-name="uni00B9" unicode="&#xb9;" horiz-adv-x="369" 
d="M174 522v660h-116v37h153v-697h-37z" />
    <glyph glyph-name="uni00B2" unicode="&#xb2;" horiz-adv-x="603" 
d="M125 559h402v-37h-489l301 307c92 94 122 140 122 200c0 100 -72 162 -166 162c-93 0 -174 -71 -165 -184l-40 2c-5 136 85 218 206 218c115 0 203 -68 203 -199c0 -77 -39 -127 -133 -222z" />
    <glyph glyph-name="uni00B3" unicode="&#xb3;" horiz-adv-x="582" 
d="M293 923c113 0 208 -91 208 -205c0 -112 -93 -206 -208 -206c-114 0 -207 93 -207 203h39c0 -91 75 -166 168 -166c92 0 170 77 170 171c0 93 -76 166 -170 166h-135l240 296h-312v37h389l-242 -296h60z" />
    <glyph glyph-name="fraction" unicode="&#x2044;" horiz-adv-x="376" 
d="M-250 0l850 1219h26l-850 -1219h-26z" />
    <glyph glyph-name="onehalf" unicode="&#xbd;" horiz-adv-x="1636" 
d="M113 1198v21h157v-813h-22v792h-135zM1134 1219h26l-850 -1219h-26zM999 22h512v-22h-565l358 350c118 120 148 172 148 245c0 126 -87 205 -208 207c-120 2 -211 -77 -220 -202h-21c8 137 107 226 241 224c122 -2 220 -77 229 -216c5 -88 -28 -144 -151 -271z" />
    <glyph glyph-name="onequarter" unicode="&#xbc;" horiz-adv-x="1589" 
d="M112 1198v21h157v-813h-22v792h-135zM1195 1216h26l-850 -1219h-26zM1451 193v-22h-100v-171h-22v171h-399l398 642h23v-620h100zM971 193h358v581z" />
    <glyph glyph-name="threequarters" unicode="&#xbe;" horiz-adv-x="1753" 
d="M599 636c0 -130 -106 -236 -236 -236c-131 0 -237 106 -237 236h22c0 -118 96 -214 215 -214c118 0 214 96 214 214c0 119 -96 215 -214 215h-139l290 350l4 2h-360v21h404l-294 -351h95c130 0 236 -106 236 -237zM1334 1216h26l-850 -1219h-26zM1615 193v-22h-100v-171
h-22v171h-399l398 642h23v-620h100zM1135 193h358v581z" />
    <glyph glyph-name="period" unicode="." horiz-adv-x="632" 
d="M316 -16c-26 0 -49 21 -49 49c0 26 23 48 49 48s49 -22 49 -48c0 -28 -23 -49 -49 -49z" />
    <glyph glyph-name="comma" unicode="," horiz-adv-x="592" 
d="M167 -297l222 507h36l-223 -507h-35z" />
    <glyph glyph-name="colon" unicode=":" horiz-adv-x="604" 
d="M302 731c-26 0 -49 22 -49 49c0 26 23 49 49 49s49 -23 49 -49c0 -27 -23 -49 -49 -49zM302 -16c-26 0 -49 21 -49 49c0 26 23 48 49 48s49 -22 49 -48c0 -28 -23 -49 -49 -49z" />
    <glyph glyph-name="semicolon" unicode=";" horiz-adv-x="600" 
d="M334 731c-26 0 -49 22 -49 49c0 26 23 49 49 49s48 -23 48 -49c0 -27 -22 -49 -48 -49zM121 -297l222 507h36l-222 -507h-36z" />
    <glyph glyph-name="ellipsis" unicode="&#x2026;" horiz-adv-x="1439" 
d="M316 -16c-26 0 -49 21 -49 49c0 26 23 48 49 48s49 -22 49 -48c0 -28 -23 -49 -49 -49zM723 -16c-26 0 -49 21 -49 49c0 26 23 48 49 48s49 -22 49 -48c0 -28 -23 -49 -49 -49zM1123 -16c-26 0 -49 21 -49 49c0 26 23 48 49 48s49 -22 49 -48c0 -28 -23 -49 -49 -49z" />
    <glyph glyph-name="exclam" unicode="!" horiz-adv-x="588" 
d="M278 293v926h32v-926h-32zM294 -16c-26 0 -49 23 -49 49c0 27 23 48 49 48s49 -21 49 -48c0 -26 -23 -49 -49 -49z" />
    <glyph glyph-name="exclamdown" unicode="&#xa1;" horiz-adv-x="588" 
d="M294 732c-26 0 -49 21 -49 48c0 26 23 49 49 49s49 -23 49 -49c0 -27 -23 -48 -49 -48zM278 -406v926h32v-926h-32z" />
    <glyph glyph-name="question" unicode="?" horiz-adv-x="901" 
d="M428 320v146c0 269 293 187 293 470c0 160 -112 268 -276 268c-160 0 -280 -117 -280 -279v-20l-29 -3c-2 10 -2 21 -2 31c0 177 133 302 311 302c183 0 308 -122 308 -299c0 -294 -292 -237 -292 -455v-161h-33zM451 -16c-26 0 -49 21 -49 49c0 26 23 48 49 48
s49 -22 49 -48c0 -28 -23 -49 -49 -49z" />
    <glyph glyph-name="questiondown" unicode="&#xbf;" horiz-adv-x="901" 
d="M450 732c-26 0 -49 22 -49 48c0 28 23 49 49 49s49 -21 49 -49c0 -26 -23 -48 -49 -48zM456 -422c-183 0 -308 122 -308 299c0 294 292 237 292 455v161h33v-146c0 -269 -293 -187 -293 -470c0 -160 112 -268 276 -268c160 0 280 117 280 279v20l29 3c2 -10 2 -21 2 -31
c0 -177 -133 -302 -311 -302z" />
    <glyph glyph-name="periodcentered" unicode="&#xb7;" horiz-adv-x="632" 
d="M316 536c-26 0 -49 22 -49 49c0 26 23 49 49 49s49 -23 49 -49c0 -27 -23 -49 -49 -49z" />
    <glyph glyph-name="bullet" unicode="&#x2022;" horiz-adv-x="886" 
d="M444 322c-113 0 -208 89 -208 206c0 112 95 207 208 207c110 0 206 -95 206 -207c0 -117 -96 -206 -206 -206z" />
    <glyph glyph-name="asterisk" unicode="*" horiz-adv-x="781" 
d="M325 936l-32 20l78 117l-143 -5v37l143 -6l-78 118l32 18l65 -122l65 122l33 -18l-78 -118l143 6v-37l-143 5l78 -117l-33 -20l-65 122z" />
    <glyph glyph-name="numbersign" unicode="#" horiz-adv-x="1283" 
d="M336 0l47 330h-252l4 34h253l72 491h-252l3 32h249l48 332h33l-47 -332h377l44 332h32l-45 -332h250l-2 -32h-253l-68 -491h248l-3 -34h-249l-50 -330h-33l48 330h-376l-45 -330h-33zM419 364h377l70 491h-377z" />
    <glyph glyph-name="slash" unicode="/" horiz-adv-x="1116" 
d="M21 -488l1037 1983h37l-1037 -1983h-37z" />
    <glyph glyph-name="backslash" unicode="\" horiz-adv-x="1112" 
d="M1053 -478l-1032 1973h37l1033 -1973h-38z" />
    <glyph glyph-name="parenleft" unicode="(" horiz-adv-x="610" 
d="M543 -358c-209 31 -374 322 -374 924c0 603 165 897 374 929v-26c-192 -39 -341 -320 -341 -903c0 -579 149 -859 341 -898v-26z" />
    <glyph glyph-name="parenright" unicode=")" horiz-adv-x="610" 
d="M67 -358v26c192 39 341 319 341 898c0 583 -149 864 -341 903v26c210 -32 374 -326 374 -929c0 -602 -164 -893 -374 -924z" />
    <glyph glyph-name="braceleft" unicode="{" horiz-adv-x="520" 
d="M373 -460c-75 0 -130 78 -130 180v483c0 137 -8 233 -122 293v45c119 64 122 169 122 293v481c0 102 55 180 130 180h38v-34c-98 0 -134 -58 -134 -162v-490c0 -108 -8 -216 -133 -290c125 -75 133 -183 133 -291v-491c0 -104 43 -163 134 -163v-34h-38z" />
    <glyph glyph-name="braceright" unicode="}" horiz-adv-x="520" 
d="M109 -460v34c91 0 134 59 134 163v491c0 108 8 216 133 291c-125 74 -133 182 -133 290v490c0 104 -36 162 -134 162v34h38c74 0 130 -78 130 -180v-481c0 -124 3 -229 122 -293v-45c-114 -60 -122 -156 -122 -293v-483c0 -102 -56 -180 -130 -180h-38z" />
    <glyph glyph-name="bracketleft" unicode="[" horiz-adv-x="545" 
d="M237 -406v1901h240v-34h-210v-1833h210v-34h-240z" />
    <glyph glyph-name="bracketright" unicode="]" horiz-adv-x="545" 
d="M68 -406v34h209v1833h-209v34h240v-1901h-240z" />
    <glyph glyph-name="hyphen" unicode="-" horiz-adv-x="962" 
d="M197 406v33h568v-33h-568z" />
    <glyph glyph-name="uni00AD" unicode="&#xad;" horiz-adv-x="962" 
d="M197 406v33h568v-33h-568z" />
    <glyph glyph-name="endash" unicode="&#x2013;" horiz-adv-x="1206" 
d="M197 406v33h812v-33h-812z" />
    <glyph glyph-name="emdash" unicode="&#x2014;" horiz-adv-x="2019" 
d="M197 406v33h1625v-33h-1625z" />
    <glyph glyph-name="underscore" unicode="_" horiz-adv-x="1369" 
d="M197 -33v33h975v-33h-975z" />
    <glyph glyph-name="quotesinglbase" unicode="&#x201a;" horiz-adv-x="514" 
d="M127 -297l223 507h36l-223 -507h-36z" />
    <glyph glyph-name="quotedblbase" unicode="&#x201e;" horiz-adv-x="769" 
d="M127 -297l223 507h36l-223 -507h-36zM382 -297l223 507h36l-223 -507h-36z" />
    <glyph glyph-name="quotedblleft" unicode="&#x201c;" horiz-adv-x="769" 
d="M127 712l223 507h36l-223 -507h-36zM382 712l223 507h36l-223 -507h-36z" />
    <glyph glyph-name="quotedblright" unicode="&#x201d;" horiz-adv-x="769" 
d="M127 712l223 507h36l-223 -507h-36zM382 712l223 507h36l-223 -507h-36z" />
    <glyph glyph-name="quoteleft" unicode="&#x2018;" horiz-adv-x="514" 
d="M127 712l223 507h36l-223 -507h-36z" />
    <glyph glyph-name="quoteright" unicode="&#x2019;" horiz-adv-x="514" 
d="M127 712l223 507h36l-223 -507h-36z" />
    <glyph glyph-name="guillemotleft" unicode="&#xab;" horiz-adv-x="755" 
d="M367 154l-247 299l247 300h42l-247 -300l247 -299h-42zM594 154l-247 299l247 300h43l-248 -300l248 -299h-43z" />
    <glyph glyph-name="guillemotright" unicode="&#xbb;" horiz-adv-x="756" 
d="M119 154l247 299l-247 300h42l247 -300l-247 -299h-42zM347 154l247 299l-247 300h42l247 -300l-247 -299h-42z" />
    <glyph glyph-name="guilsinglleft" unicode="&#x2039;" horiz-adv-x="528" 
d="M367 154l-247 299l247 300h42l-247 -300l247 -299h-42z" />
    <glyph glyph-name="guilsinglright" unicode="&#x203a;" horiz-adv-x="528" 
d="M119 154l247 299l-247 300h42l247 -300l-247 -299h-42z" />
    <glyph glyph-name="quotedbl" unicode="&#x22;" horiz-adv-x="713" 
d="M237 699v536h33v-536h-33zM443 699v536h33v-536h-33z" />
    <glyph glyph-name="quotesingle" unicode="'" horiz-adv-x="507" 
d="M237 764v471h33v-471h-33z" />
    <glyph glyph-name="cent" unicode="&#xa2;" horiz-adv-x="1093" 
d="M629 959c-217 0 -391 -174 -391 -390s174 -390 391 -390c102 0 195 37 263 101v-41c-68 -56 -154 -89 -247 -93v-146h-33v146c-225 9 -406 196 -406 423c0 226 181 413 406 422v150h33v-150c93 -4 178 -37 247 -92v-42c-70 63 -161 102 -263 102z" />
    <glyph glyph-name="currency" unicode="&#xa4;" horiz-adv-x="1212" 
d="M312 273l-22 24l78 78c-109 121 -109 308 1 428l-78 78l23 24l78 -79c122 110 307 112 429 1l78 78l23 -22l-78 -78c110 -122 110 -308 0 -430l78 -78l-23 -24l-78 80c-122 -111 -309 -111 -431 0zM402 387c114 -114 294 -114 408 0c112 112 112 294 0 406
s-294 111 -407 -1c-112 -113 -112 -295 -1 -405z" />
    <glyph glyph-name="dollar" unicode="$" horiz-adv-x="1098" 
d="M913 289c0 -197 -164 -292 -327 -304v-136h-32v135h-4c-180 0 -321 102 -370 229l31 11c42 -112 169 -208 341 -208s328 96 328 273c0 358 -638 267 -638 659c0 198 163 285 312 287v142h32v-143c117 -8 212 -69 262 -137l-26 -19c-47 65 -143 125 -262 125
c-138 0 -286 -81 -286 -255c0 -361 639 -272 639 -659z" />
    <glyph glyph-name="Euro" unicode="&#x20ac;" horiz-adv-x="1541" 
d="M934 16c155 0 303 60 415 169v-44c-114 -100 -262 -157 -415 -157c-294 0 -539 201 -607 474h-142v33h135c-7 39 -11 78 -11 119c0 37 3 73 9 108h-133v33h140c64 278 312 484 609 484c150 0 295 -53 405 -149l-11 -33c-109 98 -247 150 -394 150
c-279 0 -513 -192 -576 -452h867l-11 -33h-863c-7 -35 -10 -71 -10 -108c0 -41 4 -81 12 -119h785l-12 -33h-766c67 -255 298 -442 574 -442z" />
    <glyph glyph-name="florin" unicode="&#x192;" horiz-adv-x="879" 
d="M640 1203c-82 0 -156 -65 -169 -146l-39 -244h237l-5 -33h-237l-189 -1186h-32l188 1186h-136l5 33h136l39 247c15 97 106 175 203 175c28 0 67 -11 87 -26l-5 -37c-20 18 -56 31 -83 31z" />
    <glyph glyph-name="sterling" unicode="&#xa3;" horiz-adv-x="1139" 
d="M356 33h617v-33h-650v588h-130v33h130v279c0 197 132 334 324 334c125 0 245 -80 294 -194l-29 -13c-46 104 -153 174 -265 174c-174 0 -291 -122 -291 -301v-279h302v-33h-302v-555z" />
    <glyph glyph-name="yen" unicode="&#xa5;" horiz-adv-x="1250" 
d="M640 584v-56h377v-32h-377v-195h377v-33h-377v-268h-32v268h-371v33h371v195h-371v32h371v56h-4l-421 635h39l402 -606l401 606h39l-421 -635h-3z" />
    <glyph glyph-name="plus" unicode="+" horiz-adv-x="1296" 
d="M632 0v488h-488v32h488v488h32v-488h488v-32h-488v-488h-32z" />
    <glyph glyph-name="minus" unicode="&#x2212;" horiz-adv-x="1567" 
d="M296 431v32h975v-32h-975z" />
    <glyph glyph-name="multiply" unicode="&#xd7;" horiz-adv-x="1062" 
d="M898 848l-344 -344l344 -345l-22 -22l-345 344l-344 -344l-23 22l345 345l-345 344l23 23l344 -345l345 345z" />
    <glyph glyph-name="divide" unicode="&#xf7;" horiz-adv-x="1321" 
d="M659 675c-26 0 -49 21 -49 48c0 26 23 49 49 49s49 -23 49 -49c0 -27 -23 -48 -49 -48zM171 431v32h976v-32h-976zM659 122c-26 0 -49 21 -49 49c0 26 23 48 49 48s49 -22 49 -48c0 -28 -23 -49 -49 -49z" />
    <glyph glyph-name="equal" unicode="=" horiz-adv-x="1567" 
d="M296 561v32h975v-32h-975zM296 268v33h975v-33h-975z" />
    <glyph glyph-name="notequal" unicode="&#x2260;" horiz-adv-x="1388" 
d="M1182 561h-334l-223 -260h557v-33h-585l-229 -268h-44l229 268h-346v33h374l223 260h-597v32h624l188 220h44l-188 -220h307v-32z" />
    <glyph glyph-name="greater" unicode="&#x3e;" horiz-adv-x="1201" 
d="M156 982l897 -450v-36l-897 -454v36l862 435l-862 433v36z" />
    <glyph glyph-name="less" unicode="&#x3c;" horiz-adv-x="1201" 
d="M1045 982v-36l-862 -433l862 -435v-36l-897 454v36z" />
    <glyph glyph-name="greaterequal" unicode="&#x2265;" horiz-adv-x="1234" 
d="M170 1047l897 -450v-36l-897 -454v36l862 435l-862 433v36zM170 0v33h897v-33h-897z" />
    <glyph glyph-name="lessequal" unicode="&#x2264;" horiz-adv-x="1234" 
d="M1064 1047v-36l-862 -433l862 -435v-36l-897 454v36zM167 0v33h897v-33h-897z" />
    <glyph glyph-name="plusminus" unicode="&#xb1;" horiz-adv-x="1474" 
d="M721 325v293h-537v32h537v293h32v-293h537v-32h-537v-293h-32zM184 0v33h1106v-33h-1106z" />
    <glyph glyph-name="approxequal" unicode="&#x2248;" horiz-adv-x="1290" 
d="M825 525c-89 0 -141 57 -193 119c-47 55 -93 104 -166 104c-97 0 -171 -85 -174 -200h-32c3 140 94 232 206 232c88 0 140 -57 194 -122c47 -57 91 -100 164 -100c99 0 172 82 175 198h33c-4 -133 -91 -231 -207 -231zM825 232c-89 0 -141 57 -193 119
c-47 55 -93 104 -166 104c-97 0 -171 -84 -174 -200h-32c3 140 94 233 206 233c88 0 140 -57 194 -122c47 -57 91 -101 164 -101c99 0 172 83 175 198h33c-4 -133 -91 -231 -207 -231z" />
    <glyph glyph-name="asciitilde" unicode="~" horiz-adv-x="1288" 
d="M824 314c-91 0 -145 60 -194 118c-47 56 -92 104 -166 104c-97 0 -170 -84 -173 -200h-33c3 140 94 233 206 233c90 0 144 -60 194 -122c47 -57 91 -101 164 -101c99 0 172 83 176 199h32c-3 -134 -91 -231 -206 -231z" />
    <glyph glyph-name="logicalnot" unicode="&#xac;" horiz-adv-x="1367" 
d="M1039 221v416h-883v33h915v-449h-32z" />
    <glyph glyph-name="asciicircum" unicode="^" horiz-adv-x="1225" 
d="M1082 322h-36l-434 862l-434 -862h-35l452 897h35z" />
    <glyph glyph-name="emptyset" unicode="&#x2205;" horiz-adv-x="1418" 
d="M1064 804c81 -87 131 -203 131 -331c0 -268 -218 -486 -486 -486c-128 0 -245 50 -332 131l-69 -69l-23 23l69 69c-81 87 -131 204 -131 332c0 268 218 486 486 486c128 0 245 -50 332 -132l70 70l23 -23zM256 473c0 -120 46 -229 121 -309l642 641
c-81 75 -190 121 -310 121c-252 0 -453 -201 -453 -453zM709 20c252 0 454 201 454 453c0 120 -46 228 -121 309l-642 -641c80 -75 189 -121 309 -121z" />
    <glyph glyph-name="infinity" unicode="&#x221e;" horiz-adv-x="1496" 
d="M450 267c-104 0 -190 91 -195 206c5 115 91 206 195 206c91 0 197 -65 297 -180c98 115 205 180 298 180c104 0 190 -91 195 -206c-5 -115 -91 -206 -195 -206c-93 0 -200 65 -298 180c-100 -115 -206 -180 -297 -180zM450 299c81 0 180 62 276 174
c-96 112 -195 174 -276 174c-86 0 -158 -78 -163 -174c5 -96 77 -174 163 -174zM1045 299c86 0 157 78 162 174c-5 96 -76 174 -162 174c-83 0 -182 -62 -277 -174c95 -112 194 -174 277 -174z" />
    <glyph glyph-name="integral" unicode="&#x222b;" horiz-adv-x="861" 
d="M219 -307c-55 0 -102 37 -91 112h33c-8 -52 26 -80 65 -80c37 0 78 28 86 80l205 1287c11 75 71 112 127 112c53 0 100 -37 89 -112h-32c8 52 -25 80 -64 80c-37 0 -80 -28 -88 -80l-204 -1287c-12 -75 -72 -112 -126 -112z" />
    <glyph glyph-name="product" unicode="&#x220f;" horiz-adv-x="1391" 
d="M302 -195v1305h-97v33h982v-33h-98v-1305h-33v1305h-721v-1305h-33z" />
    <glyph glyph-name="summation" unicode="&#x2211;" horiz-adv-x="1174" 
d="M132 -193v8l644 660l-644 660v8h904v-33h-835l620 -635l-620 -636h835v-32h-904z" />
    <glyph glyph-name="radical" unicode="&#x221a;" horiz-adv-x="1213" 
d="M431 -127l-197 605h-99v32h122l183 -559l612 1276l29 -13l-642 -1341h-8z" />
    <glyph glyph-name="uni00B5" unicode="&#xb5;" horiz-adv-x="1172" 
d="M894 813h32v-813h-32v160c-51 -104 -159 -176 -283 -176s-232 72 -283 176v-566h-32v1219h32v-514c0 -156 127 -283 283 -283s283 127 283 283v514z" />
    <glyph glyph-name="partialdiff" unicode="&#x2202;" horiz-adv-x="1020" 
d="M379 1138c238 6 420 -260 416 -605c-1 -288 -151 -512 -343 -512c-224 0 -325 205 -230 458c94 252 320 341 528 215c-43 246 -190 417 -371 411v33zM763 533c0 41 -2 81 -7 119c-195 136 -413 57 -505 -184c-86 -234 2 -414 201 -414c173 0 309 209 311 479z" />
    <glyph glyph-name="percent" unicode="%" horiz-adv-x="1241" 
d="M379 796c-103 0 -186 100 -186 220s83 219 186 219c102 0 185 -99 185 -219s-83 -220 -185 -220zM177 0l850 1219h38l-850 -1219h-38zM379 829c83 0 152 83 152 187s-69 187 -152 187c-85 0 -153 -83 -153 -187s68 -187 153 -187zM865 -16c-103 0 -186 99 -186 219
s83 220 186 220c102 0 183 -100 183 -220s-81 -219 -183 -219zM865 16c83 0 151 83 151 187s-68 187 -151 187c-85 0 -153 -83 -153 -187s68 -187 153 -187z" />
    <glyph glyph-name="perthousand" unicode="&#x2030;" horiz-adv-x="1658" 
d="M379 796c-103 0 -186 100 -186 220s83 219 186 219c102 0 185 -99 185 -219s-83 -220 -185 -220zM177 0l850 1219h38l-850 -1219h-38zM379 829c83 0 152 83 152 187s-69 187 -152 187c-85 0 -153 -83 -153 -187s68 -187 153 -187zM865 -16c-103 0 -186 99 -186 219
s83 220 186 220c102 0 183 -100 183 -220s-81 -219 -183 -219zM1315 -16c-102 0 -185 99 -185 219s83 220 185 220s184 -100 184 -220s-82 -219 -184 -219zM865 16c83 0 151 83 151 187s-68 187 -151 187c-85 0 -153 -83 -153 -187s68 -187 153 -187zM1315 16
c83 0 151 83 151 187s-68 187 -151 187c-85 0 -153 -83 -153 -187s68 -187 153 -187z" />
    <glyph glyph-name="lozenge" unicode="&#x25ca;" horiz-adv-x="1260" 
d="M631 85l-491 489l491 491l490 -490zM631 130l444 445l-444 444l-445 -445z" />
    <glyph glyph-name="uniF8FF" unicode="&#xf8ff;" horiz-adv-x="1633" 
d="M817 0c-340 0 -618 278 -618 618c0 341 278 617 618 617c341 0 617 -276 617 -617c0 -340 -276 -618 -617 -618zM817 59c308 0 559 251 559 559s-251 559 -559 559s-560 -251 -560 -559s252 -559 560 -559zM493 353c-16 0 -29 13 -29 29v471c0 17 13 30 29 30
s29 -13 29 -30v-471c0 -16 -13 -29 -29 -29zM817 353c-17 0 -30 13 -30 29v471c0 17 13 30 30 30c16 0 29 -13 29 -30v-471c0 -16 -13 -29 -29 -29zM1140 353c-6 0 -15 3 -19 9l-236 235c-12 13 -12 30 0 42l236 235c11 12 29 12 40 0c12 -11 12 -30 0 -42l-214 -214
l214 -215c12 -11 12 -29 0 -41c-5 -6 -13 -9 -21 -9zM581 588c-16 0 -29 13 -29 30c0 16 13 29 29 29h148c16 0 29 -13 29 -29c0 -17 -13 -30 -29 -30h-148z" />
    <glyph glyph-name="at" unicode="@" horiz-adv-x="1353" 
d="M1099 312h-29v117c-46 -75 -149 -140 -230 -140c-157 0 -279 117 -279 266c0 147 124 264 280 264c96 0 204 -76 229 -164v114c0 198 -153 354 -345 354c-274 0 -492 -239 -492 -545c0 -308 252 -549 570 -549h296v-29h-296c-334 0 -599 255 -599 578
c0 322 229 578 521 578c210 0 374 -169 374 -387v-457zM830 325c136 0 240 99 240 230c0 129 -106 230 -240 230s-239 -101 -239 -230c0 -131 105 -230 239 -230z" />
    <glyph glyph-name="ampersand" unicode="&#x26;" horiz-adv-x="1189" 
d="M1030 642v-32h-125v-291c0 -186 -128 -319 -321 -319c-196 0 -352 133 -352 322c0 144 92 265 221 306c-123 42 -209 157 -209 294c0 177 143 297 304 297h257v-32h-256c-144 0 -273 -108 -273 -265c0 -156 125 -280 283 -280h314v241h32v-241h125zM873 319v291h-327
c-156 0 -281 -129 -281 -288c0 -169 141 -289 317 -289c175 0 291 120 291 286z" />
    <glyph glyph-name="paragraph" unicode="&#xb6;" horiz-adv-x="1031" 
d="M519 -244v919h-73c-179 0 -289 95 -289 273c0 177 110 271 289 271h106v-1463h-33zM703 -244v1463h32v-1463h-32z" />
    <glyph glyph-name="section" unicode="&#xa7;" horiz-adv-x="1128" 
d="M852 375c42 -35 69 -80 69 -139c0 -155 -175 -234 -361 -234c-187 0 -325 81 -372 175l31 12c41 -85 166 -158 341 -158c168 0 329 68 329 203c0 271 -639 195 -639 499c0 59 24 105 68 140c-42 36 -68 81 -68 141c0 147 156 221 315 221c125 0 231 -45 291 -105l-26 -18
c-53 55 -149 94 -263 94c-142 0 -285 -62 -285 -192c0 -271 639 -196 639 -497c0 -56 -22 -102 -69 -142zM282 733c0 -209 369 -219 546 -339c38 32 61 73 61 125c0 205 -369 213 -546 335c-39 -30 -61 -71 -61 -121z" />
    <glyph glyph-name="copyright" unicode="&#xa9;" horiz-adv-x="1647" 
d="M824 -16c-345 0 -626 281 -626 626c0 344 281 625 626 625c344 0 625 -281 625 -625c0 -345 -281 -626 -625 -626zM824 16c328 0 593 265 593 594c0 328 -265 593 -593 593c-329 0 -594 -265 -594 -593c0 -329 265 -594 594 -594zM837 208c-220 0 -402 181 -402 402
s182 402 402 402c169 0 316 -106 375 -255h-31c-57 133 -192 224 -344 224c-202 0 -374 -161 -371 -371c-3 -211 169 -372 371 -372c152 0 287 92 344 225h31c-59 -149 -206 -255 -375 -255z" />
    <glyph glyph-name="registered" unicode="&#xae;" horiz-adv-x="1647" 
d="M824 1235c344 0 625 -281 625 -625c0 -345 -281 -626 -625 -626c-345 0 -626 281 -626 626c0 344 281 625 626 625zM824 16c328 0 593 265 593 594c0 328 -265 593 -593 593c-329 0 -594 -265 -594 -593c0 -329 265 -594 594 -594zM1040 757c0 -87 -66 -160 -152 -171
l165 -297h-36l-164 296h-156v-296h-33v641h202c96 0 174 -77 174 -173zM697 897v-279h169c78 0 141 63 141 139c0 78 -63 140 -141 140h-169z" />
    <glyph glyph-name="trademark" unicode="&#x2122;" horiz-adv-x="1467" 
d="M162 1188v31h365v-31h-167v-544h-31v544h-167zM1137 1219h34v-575h-31v520l-237 -351l-236 350v-519h-32v575h34l234 -350z" />
    <glyph glyph-name="degree" unicode="&#xb0;" horiz-adv-x="940" 
d="M469 800c-118 0 -217 99 -217 217c0 119 99 218 217 218c119 0 218 -99 218 -218c0 -118 -99 -217 -218 -217zM469 832c103 0 186 83 186 185c0 103 -83 186 -186 186c-102 0 -185 -83 -185 -186c0 -102 83 -185 185 -185z" />
    <glyph glyph-name="bar" unicode="|" horiz-adv-x="624" 
d="M296 -244v1463h32v-1463h-32z" />
    <glyph glyph-name="brokenbar" unicode="&#xa6;" horiz-adv-x="624" 
d="M296 634v585h32v-585h-32zM296 -244v585h32v-585h-32z" />
    <glyph glyph-name="uni2113" horiz-adv-x="1093" 
d="M613 -7c-216 0 -307 178 -307 340v23c-37 -28 -84 -67 -127 -99l-26 44c56 44 108 79 153 122v520c0 320 158 395 265 395c153 0 221 -130 221 -270c0 -229 -179 -450 -435 -676v-38c0 -227 136 -318 261 -318c145 0 252 112 298 203l39 -24
c-80 -140 -190 -222 -342 -222zM357 455c209 200 385 390 385 600c0 132 -46 236 -181 236c-86 0 -204 -83 -204 -340v-496z" />
    <glyph glyph-name="dagger" unicode="&#x2020;" horiz-adv-x="890" 
d="M757 731v-32h-300v-975h-33v975h-291v32h291v358h33v-358h300z" />
    <glyph glyph-name="daggerdbl" unicode="&#x2021;" horiz-adv-x="954" 
d="M789 699h-301v-585h301v-33h-301v-357h-32v357h-291v33h291v585h-291v32h291v358h32v-358h301v-32z" />
    <glyph glyph-name="estimated" horiz-adv-x="1746" 
d="M888 -15c-384 0 -694 280 -694 623c0 348 310 627 694 627c385 0 696 -279 696 -627v-16h-1125c-7 0 -10 -2 -10 -7v-341c0 -15 7 -28 15 -39c109 -112 260 -185 426 -185c180 0 339 81 448 208h99c-123 -147 -325 -243 -549 -243zM459 626h863c5 0 7 6 7 11v341
c0 15 -5 31 -17 41c-109 107 -257 179 -422 179c-164 0 -314 -73 -425 -184c-9 -11 -16 -26 -16 -42v-335c0 -5 3 -11 10 -11z" />
    <glyph glyph-name="uni0308" unicode="&#x308;" 
d="M-486 1138c-26 0 -49 21 -49 49c0 26 23 48 49 48s49 -22 49 -48c0 -28 -23 -49 -49 -49zM-237 1138c-26 0 -49 21 -49 49c0 26 23 48 49 48s49 -22 49 -48c0 -28 -23 -49 -49 -49z" />
    <glyph glyph-name="uni0307" unicode="&#x307;" 
d="M-237 1138c-26 0 -49 21 -49 49c0 26 23 48 49 48s49 -22 49 -48c0 -28 -23 -49 -49 -49z" />
    <glyph glyph-name="gravecomb" unicode="&#x300;" 
d="M-158 925l-175 294h54l162 -294h-41z" />
    <glyph glyph-name="acutecomb" unicode="&#x301;" 
d="M-328 925l162 294h54l-175 -294h-41z" />
    <glyph glyph-name="uni030B" unicode="&#x30b;" 
d="M-593 925l161 294h54l-174 -294h-41zM-328 925l161 294h54l-174 -294h-41z" />
    <glyph glyph-name="uni030C.alt" 
d="M-347 712l223 507h36l-223 -507h-36z" />
    <glyph glyph-name="uni0302" unicode="&#x302;" 
d="M-475 925l157 294h41l157 -294h-50l-127 257l-128 -257h-50z" />
    <glyph glyph-name="uni030C" unicode="&#x30c;" 
d="M-318 925l-158 294h41l138 -257l137 257h40l-158 -294h-40z" />
    <glyph glyph-name="uni0306" unicode="&#x306;" 
d="M-399 998c-138 0 -247 98 -247 221h33c0 -106 94 -188 214 -188c121 0 215 82 215 188h33c0 -123 -109 -221 -248 -221z" />
    <glyph glyph-name="uni030A" unicode="&#x30a;" 
d="M-307 904c-77 0 -138 61 -138 136c0 77 61 138 138 138c74 0 136 -61 136 -138c0 -75 -62 -136 -136 -136zM-307 935c58 0 105 47 105 105c0 60 -47 108 -105 108c-60 0 -108 -48 -108 -108c0 -58 48 -105 108 -105z" />
    <glyph glyph-name="tildecomb" unicode="&#x303;" 
d="M-313 1039c-142 0 -125 148 -244 148c-65 0 -109 -54 -109 -134h-32c0 98 58 166 141 166c141 0 124 -148 244 -148c63 0 109 54 109 132h32c0 -96 -58 -164 -141 -164z" />
    <glyph glyph-name="uni0304" unicode="&#x304;" 
d="M-603 1008v32h406v-32h-406z" />
    <glyph glyph-name="uni0312" unicode="&#x312;" 
d="M-302 942l135 277h36l-135 -277h-36z" />
    <glyph glyph-name="dotbelowcomb" unicode="&#x323;" 
d="M-237 -406c-26 0 -49 21 -49 48c0 26 23 49 49 49s49 -23 49 -49c0 -27 -23 -48 -49 -48z" />
    <glyph glyph-name="uni0326" unicode="&#x326;" 
d="M-302 -397l135 307h36l-135 -307h-36z" />
    <glyph glyph-name="uni0327" unicode="&#x327;" 
d="M-291 -423c-63 0 -144 36 -183 82l24 21c34 -39 104 -70 159 -70c69 0 121 54 121 122c0 92 -87 140 -197 107l-29 26l60 135h32l-52 -124c122 26 218 -37 218 -144c0 -86 -67 -155 -153 -155z" />
    <glyph glyph-name="uni0328" unicode="&#x328;" 
d="M-246 -423c-99 0 -151 64 -151 161c0 114 75 189 149 272l30 -10c-65 -67 -150 -151 -150 -262c0 -76 41 -128 122 -128c65 0 102 19 148 62l15 -26c-49 -46 -91 -69 -163 -69z" />
    <glyph glyph-name="uni0335" unicode="&#x335;" 
d="M-603 423v32h406v-32h-406z" />
    <glyph glyph-name="uni0336" unicode="&#x336;" 
d="M-1315 406v33h1118v-33h-1118z" />
    <glyph glyph-name="uni0337" unicode="&#x337;" 
d="M-354 245v45l261 290v-48z" />
    <glyph glyph-name="uni0338" unicode="&#x338;" 
d="M-678 -3l-26 16l643 922l26 -17z" />
    <glyph glyph-name="acute" unicode="&#xb4;" horiz-adv-x="445" 
d="M117 925l162 294h54l-175 -294h-41z" />
    <glyph glyph-name="breve" unicode="&#x2d8;" horiz-adv-x="796" 
d="M397 998c-138 0 -247 98 -247 221h33c0 -106 94 -188 214 -188c121 0 215 82 215 188h33c0 -123 -109 -221 -248 -221z" />
    <glyph glyph-name="caron" unicode="&#x2c7;" horiz-adv-x="596" 
d="M278 925l-158 294h51l128 -257l127 257h50l-158 -294h-40z" />
    <glyph glyph-name="cedilla" unicode="&#xb8;" horiz-adv-x="589" 
d="M298 -423c-63 0 -144 36 -183 82l24 21c34 -39 104 -70 159 -70c69 0 121 54 121 122c0 92 -87 140 -197 107l-29 26l60 135h32l-52 -124c122 26 218 -37 218 -144c0 -86 -67 -155 -153 -155z" />
    <glyph glyph-name="circumflex" unicode="&#x2c6;" horiz-adv-x="595" 
d="M120 925l157 294h41l157 -294h-50l-127 257l-128 -257h-50z" />
    <glyph glyph-name="dieresis" unicode="&#xa8;" horiz-adv-x="723" 
d="M237 1138c-26 0 -49 21 -49 49c0 26 23 48 49 48s49 -22 49 -48c0 -28 -23 -49 -49 -49zM486 1138c-26 0 -49 21 -49 49c0 26 23 48 49 48s49 -22 49 -48c0 -28 -23 -49 -49 -49z" />
    <glyph glyph-name="dotaccent" unicode="&#x2d9;" horiz-adv-x="474" 
d="M237 1138c-26 0 -49 21 -49 49c0 26 23 48 49 48s49 -22 49 -48c0 -28 -23 -49 -49 -49z" />
    <glyph glyph-name="grave" unicode="`" horiz-adv-x="445" 
d="M287 925l-175 294h54l162 -294h-41z" />
    <glyph glyph-name="hungarumlaut" unicode="&#x2dd;" horiz-adv-x="445" 
d="M117 925l162 294h54l-175 -294h-41z" />
    <glyph glyph-name="macron" unicode="&#xaf;" horiz-adv-x="800" 
d="M197 1008v32h406v-32h-406z" />
    <glyph glyph-name="ogonek" unicode="&#x2db;" horiz-adv-x="553" 
d="M307 -423c-99 0 -151 64 -151 161c0 114 75 189 149 272l30 -10c-65 -67 -150 -151 -150 -262c0 -76 41 -128 122 -128c65 0 102 19 148 62l15 -26c-49 -46 -91 -69 -163 -69z" />
    <glyph glyph-name="ring" unicode="&#x2da;" horiz-adv-x="616" 
d="M309 904c-77 0 -138 61 -138 136c0 77 61 138 138 138c74 0 136 -61 136 -138c0 -75 -62 -136 -136 -136zM309 935c58 0 105 47 105 105c0 60 -47 108 -105 108c-60 0 -108 -48 -108 -108c0 -58 48 -105 108 -105z" />
    <glyph glyph-name="tilde" unicode="&#x2dc;" horiz-adv-x="870" 
d="M557 1039c-59 0 -102 26 -137 81c-27 47 -61 67 -107 67c-65 0 -109 -54 -109 -134h-32c0 98 58 166 141 166c57 0 101 -26 135 -81c29 -47 62 -67 109 -67c63 0 109 54 109 132h32c0 -96 -58 -164 -141 -164z" />
    <glyph glyph-name="uni0338.case" 
d="M-872 -3l-27 16l846 1211l26 -16z" />
    </font>
</defs>
</svg>
