<?xml version="1.0" standalone="no"?>
<!DOCTYPE svg PUBLIC "-//W3C//DTD SVG 1.1//EN" "http://www.w3.org/Graphics/SVG/1.1/DTD/svg11.dtd" >
<svg xmlns="http://www.w3.org/2000/svg" xmlns:xlink="http://www.w3.org/1999/xlink" version="1.1">
<metadata>
Created by FontForge 20190801 at Thu Apr 18 20:41:59 2019
 By Jimmy Wärting
Copyright \(c\) 2015 Now by Alfredo Marco Pradil. All rights reserved.
</metadata>
<defs>
<font id="Now-Light" horiz-adv-x="0" >
  <font-face 
    font-family="Now Light"
    font-weight="300"
    font-stretch="normal"
    units-per-em="2048"
    panose-1="0 0 4 0 0 0 0 0 0 0"
    ascent="1638"
    descent="-410"
    x-height="813"
    cap-height="1219"
    bbox="-1312 -553 1789 1901"
    underline-thickness="50"
    underline-position="-100"
    stemh="92"
    stemv="100"
    unicode-range="U+0020-FB02"
  />
<missing-glyph horiz-adv-x="1049" 
d="M204 0v1219h642v-1219h-642zM284 80h482v1059h-482v-1059z" />
    <glyph glyph-name="fi" unicode="fi" horiz-adv-x="958" 
d="M292 1279v-466h222v-98h-222v-715h-100v715h-136v98h136v478c0 120 99 215 217 215c38 0 82 -11 103 -26v-76l-91 5c-70 0 -129 -53 -129 -130zM744 1235c42 0 77 -33 77 -77c0 -41 -35 -75 -77 -75c-41 0 -77 34 -77 75c0 44 36 77 77 77zM694 0v813h100v-813h-100z" />
    <glyph glyph-name="fl" unicode="fl" horiz-adv-x="958" 
d="M292 1279v-466h222v-98h-222v-715h-100v715h-136v98h136v478c0 120 99 215 217 215c38 0 82 -11 103 -26v-76l-91 5c-70 0 -129 -53 -129 -130zM694 1495h100v-1495h-100v1495z" />
    <glyph glyph-name=".notdef" horiz-adv-x="1049" 
d="M204 0v1219h642v-1219h-642zM284 80h482v1059h-482v-1059z" />
    <glyph glyph-name="space" unicode=" " horiz-adv-x="499" 
 />
    <glyph glyph-name="A" unicode="A" horiz-adv-x="1102" 
d="M937 0l-103 292h-565l-103 -292h-112l440 1219h114l441 -1219h-112zM304 392h495l-247 704z" />
    <glyph glyph-name="Aacute" unicode="&#xc1;" horiz-adv-x="1102" 
d="M810 1625l-222 -299h-73l173 299h122zM937 0l-103 292h-565l-103 -292h-112l440 1219h114l441 -1219h-112zM304 392h495l-247 704z" />
    <glyph glyph-name="Abreve" unicode="&#x102;" horiz-adv-x="1102" 
d="M551 1385c-149 0 -261 96 -261 240h66c0 -96 83 -173 195 -173c113 0 197 77 197 173h66c0 -144 -112 -240 -263 -240zM937 0l-103 292h-565l-103 -292h-112l440 1219h114l441 -1219h-112zM304 392h495l-247 704z" />
    <glyph glyph-name="Acircumflex" unicode="&#xc2;" horiz-adv-x="1102" 
d="M553 1554l-127 -228h-86l159 299h105l159 -299h-84zM937 0l-103 292h-565l-103 -292h-112l440 1219h114l441 -1219h-112zM304 392h495l-247 704z" />
    <glyph glyph-name="Adieresis" unicode="&#xc4;" horiz-adv-x="1102" 
d="M409 1489c-41 0 -77 34 -77 75c0 44 36 77 77 77c42 0 77 -33 77 -77c0 -41 -35 -75 -77 -75zM694 1489c-41 0 -77 34 -77 75c0 44 36 77 77 77c42 0 77 -33 77 -77c0 -41 -35 -75 -77 -75zM937 0l-103 292h-565l-103 -292h-112l440 1219h114l441 -1219h-112zM304 392
h495l-247 704z" />
    <glyph glyph-name="Agrave" unicode="&#xc0;" horiz-adv-x="1102" 
d="M588 1326h-73l-222 299h122zM937 0l-103 292h-565l-103 -292h-112l440 1219h114l441 -1219h-112zM304 392h495l-247 704z" />
    <glyph glyph-name="Amacron" unicode="&#x100;" horiz-adv-x="1102" 
d="M765 1466v-72h-428v72h428zM937 0l-103 292h-565l-103 -292h-112l440 1219h114l441 -1219h-112zM304 392h495l-247 704z" />
    <glyph glyph-name="Aogonek" unicode="&#x104;" horiz-adv-x="1102" 
d="M1124 -291l35 -52c-57 -56 -121 -81 -201 -79c-105 4 -171 65 -171 167c0 108 78 182 178 255h-28l-103 292h-565l-103 -292h-112l440 1219h114l441 -1219c-96 -64 -190 -136 -190 -248c0 -66 39 -114 113 -114c62 0 112 25 152 71zM304 392h495l-247 704z" />
    <glyph glyph-name="Aring" unicode="&#xc5;" horiz-adv-x="1102" 
d="M553 1300c-89 0 -161 72 -161 159c0 89 72 160 161 160c86 0 158 -71 158 -160c0 -87 -72 -159 -158 -159zM553 1563c-57 0 -102 -48 -102 -104c0 -57 45 -101 102 -101c54 0 99 44 99 101c0 56 -45 104 -99 104zM937 0l-103 292h-565l-103 -292h-112l440 1219h114
l441 -1219h-112zM304 392h495l-247 704z" />
    <glyph glyph-name="Atilde" unicode="&#xc3;" horiz-adv-x="1102" 
d="M440 1554c-56 0 -88 -56 -88 -130h-77c0 118 63 206 163 206c124 0 142 -139 226 -139c54 0 88 47 88 129h75c0 -116 -59 -204 -163 -204c-128 0 -142 138 -224 138zM937 0l-103 292h-565l-103 -292h-112l440 1219h114l441 -1219h-112zM304 392h495l-247 704z" />
    <glyph glyph-name="AE" unicode="&#xc6;" horiz-adv-x="1430" 
d="M1333 1116h-550v-455h482v-103h-482v-455h550v-103h-651v298h-398l-118 -298h-116l489 1219h794v-103zM323 397h359v732h-69z" />
    <glyph glyph-name="B" unicode="B" horiz-adv-x="1134" 
d="M782 617c128 -42 221 -152 221 -298c0 -184 -147 -319 -328 -319h-469v1219h428c182 0 330 -135 330 -321c0 -130 -74 -232 -182 -281zM861 891c0 129 -106 225 -237 225h-317v-457h317c132 0 237 101 237 232zM663 103c131 0 236 97 236 227c0 129 -105 230 -236 230
h-356v-457h356z" />
    <glyph glyph-name="C" unicode="C" horiz-adv-x="1362" 
d="M737 -16c-346 0 -626 279 -626 626c0 346 280 625 626 625c233 0 436 -126 543 -315l-88 -50c-90 157 -259 262 -455 262c-289 0 -523 -232 -523 -522c0 -291 234 -523 523 -523c196 0 365 105 455 262l88 -50c-107 -189 -310 -315 -543 -315z" />
    <glyph glyph-name="Cacute" unicode="&#x106;" horiz-adv-x="1362" 
d="M644 1326l173 299h122l-222 -299h-73zM737 -16c-346 0 -626 279 -626 626c0 346 280 625 626 625c233 0 436 -126 543 -315l-88 -50c-90 157 -259 262 -455 262c-289 0 -523 -232 -523 -522c0 -291 234 -523 523 -523c196 0 365 105 455 262l88 -50
c-107 -189 -310 -315 -543 -315z" />
    <glyph glyph-name="Ccaron" unicode="&#x10c;" horiz-adv-x="1362" 
d="M628 1326l-159 299h82l130 -228l129 228h82l-160 -299h-104zM737 -16c-346 0 -626 279 -626 626c0 346 280 625 626 625c233 0 436 -126 543 -315l-88 -50c-90 157 -259 262 -455 262c-289 0 -523 -232 -523 -522c0 -291 234 -523 523 -523c196 0 365 105 455 262l88 -50
c-107 -189 -310 -315 -543 -315z" />
    <glyph glyph-name="Ccedilla" unicode="&#xc7;" horiz-adv-x="1362" 
d="M737 87c196 0 365 105 455 262l88 -50c-107 -189 -310 -315 -543 -315c-14 0 -28 0 -42 1l-45 -98c115 24 206 -41 206 -146c0 -91 -71 -164 -162 -164c-71 0 -153 44 -187 99l57 27c26 -35 84 -62 130 -62c55 0 98 44 98 100c0 80 -75 116 -170 83l-52 36l65 132
c-297 49 -524 306 -524 618c0 346 280 625 626 625c233 0 436 -126 543 -315l-88 -50c-90 157 -259 262 -455 262c-289 0 -523 -232 -523 -522c0 -291 234 -523 523 -523z" />
    <glyph glyph-name="Cdotaccent" unicode="&#x10a;" horiz-adv-x="1362" 
d="M681 1489c-41 0 -77 34 -77 75c0 44 36 77 77 77c42 0 77 -33 77 -77c0 -41 -35 -75 -77 -75zM737 -16c-346 0 -626 279 -626 626c0 346 280 625 626 625c233 0 436 -126 543 -315l-88 -50c-90 157 -259 262 -455 262c-289 0 -523 -232 -523 -522
c0 -291 234 -523 523 -523c196 0 365 105 455 262l88 -50c-107 -189 -310 -315 -543 -315z" />
    <glyph glyph-name="D" unicode="D" horiz-adv-x="1252" 
d="M206 0v1219h297c434 0 631 -273 631 -609c0 -337 -197 -610 -631 -610h-297zM307 103h195c380 0 529 219 529 507c0 287 -149 506 -529 506h-195v-1013z" />
    <glyph glyph-name="Eth" unicode="&#xd0;" horiz-adv-x="1252" 
d="M503 1219c434 0 631 -273 631 -609c0 -337 -197 -610 -631 -610h-297v562h-86v96h86v561h297zM502 103c380 0 529 219 529 507c0 287 -149 506 -529 506h-195v-458h267v-96h-267v-459h195z" />
    <glyph glyph-name="Dcaron" unicode="&#x10e;" horiz-adv-x="1252" 
d="M570 1326l-159 299h82l130 -228l129 228h82l-160 -299h-104zM206 0v1219h297c434 0 631 -273 631 -609c0 -337 -197 -610 -631 -610h-297zM307 103h195c380 0 529 219 529 507c0 287 -149 506 -529 506h-195v-1013z" />
    <glyph glyph-name="Dcroat" unicode="&#x110;" horiz-adv-x="1252" 
d="M503 1219c434 0 631 -273 631 -609c0 -337 -197 -610 -631 -610h-297v562h-86v96h86v561h297zM502 103c380 0 529 219 529 507c0 287 -149 506 -529 506h-195v-458h267v-96h-267v-459h195z" />
    <glyph glyph-name="E" unicode="E" horiz-adv-x="953" 
d="M858 1120h-549v-461h481v-99h-481v-460h549v-100h-652v1219h652v-99z" />
    <glyph glyph-name="Eacute" unicode="&#xc9;" horiz-adv-x="953" 
d="M735 1625l-222 -299h-73l173 299h122zM858 1120h-549v-461h481v-99h-481v-460h549v-100h-652v1219h652v-99z" />
    <glyph glyph-name="Ecaron" unicode="&#x11a;" horiz-adv-x="953" 
d="M528 1326h-104l-159 299h82l130 -228l129 228h82zM858 1120h-549v-461h481v-99h-481v-460h549v-100h-652v1219h652v-99z" />
    <glyph glyph-name="Ecircumflex" unicode="&#xca;" horiz-adv-x="953" 
d="M478 1554l-127 -228h-86l159 299h105l159 -299h-84zM858 1120h-549v-461h481v-99h-481v-460h549v-100h-652v1219h652v-99z" />
    <glyph glyph-name="Edieresis" unicode="&#xcb;" horiz-adv-x="953" 
d="M334 1489c-41 0 -77 34 -77 75c0 44 36 77 77 77c42 0 77 -33 77 -77c0 -41 -35 -75 -77 -75zM619 1489c-41 0 -77 34 -77 75c0 44 36 77 77 77c42 0 77 -33 77 -77c0 -41 -35 -75 -77 -75zM858 1120h-549v-461h481v-99h-481v-460h549v-100h-652v1219h652v-99z" />
    <glyph glyph-name="Edotaccent" unicode="&#x116;" horiz-adv-x="953" 
d="M477 1489c-41 0 -77 34 -77 75c0 44 36 77 77 77c42 0 77 -33 77 -77c0 -41 -35 -75 -77 -75zM858 1120h-549v-461h481v-99h-481v-460h549v-100h-652v1219h652v-99z" />
    <glyph glyph-name="Egrave" unicode="&#xc8;" horiz-adv-x="953" 
d="M514 1326h-73l-222 299h122zM858 1120h-549v-461h481v-99h-481v-460h549v-100h-652v1219h652v-99z" />
    <glyph glyph-name="Emacron" unicode="&#x112;" horiz-adv-x="953" 
d="M691 1466v-72h-428v72h428zM858 1120h-549v-461h481v-99h-481v-460h549v-100h-652v1219h652v-99z" />
    <glyph glyph-name="Eogonek" unicode="&#x118;" horiz-adv-x="953" 
d="M933 -291l35 -52c-57 -56 -121 -81 -201 -79c-105 4 -171 65 -171 167c0 108 78 182 178 255h-568v1219h652v-99h-549v-461h481v-99h-481v-460h549v-100c-96 -64 -190 -136 -190 -248c0 -66 39 -114 113 -114c62 0 112 25 152 71z" />
    <glyph glyph-name="F" unicode="F" horiz-adv-x="922" 
d="M858 1120h-549v-461h481v-99h-481v-560h-103v1219h652v-99z" />
    <glyph glyph-name="G" unicode="G" horiz-adv-x="1457" 
d="M735 639h628v-29c0 -347 -280 -626 -626 -626s-626 279 -626 626c0 346 280 625 626 625c233 0 436 -126 543 -315l-88 -50c-90 157 -259 262 -455 262c-289 0 -523 -232 -523 -522c0 -291 234 -523 523 -523c267 0 486 197 519 455h-521v97z" />
    <glyph glyph-name="Gbreve" unicode="&#x11e;" horiz-adv-x="1457" 
d="M727 1385c-149 0 -261 96 -261 240h66c0 -96 83 -173 195 -173c113 0 197 77 197 173h66c0 -144 -112 -240 -263 -240zM735 639h628v-29c0 -347 -280 -626 -626 -626s-626 279 -626 626c0 346 280 625 626 625c233 0 436 -126 543 -315l-88 -50
c-90 157 -259 262 -455 262c-289 0 -523 -232 -523 -522c0 -291 234 -523 523 -523c267 0 486 197 519 455h-521v97z" />
    <glyph glyph-name="uni0122" unicode="&#x122;" horiz-adv-x="1457" 
d="M735 639h628v-29c0 -347 -280 -626 -626 -626s-626 279 -626 626c0 346 280 625 626 625c233 0 436 -126 543 -315l-88 -50c-90 157 -259 262 -455 262c-289 0 -523 -232 -523 -522c0 -291 234 -523 523 -523c267 0 486 197 519 455h-521v97zM540 -390l127 293h123
l-175 -293h-75z" />
    <glyph glyph-name="Gdotaccent" unicode="&#x120;" horiz-adv-x="1457" 
d="M728 1489c-41 0 -77 34 -77 75c0 44 36 77 77 77c42 0 77 -33 77 -77c0 -41 -35 -75 -77 -75zM735 639h628v-29c0 -347 -280 -626 -626 -626s-626 279 -626 626c0 346 280 625 626 625c233 0 436 -126 543 -315l-88 -50c-90 157 -259 262 -455 262
c-289 0 -523 -232 -523 -522c0 -291 234 -523 523 -523c267 0 486 197 519 455h-521v97z" />
    <glyph glyph-name="H" unicode="H" horiz-adv-x="1323" 
d="M1015 1219h103v-1219h-103v558h-706v-558h-103v1219h103v-558h706v558z" />
    <glyph glyph-name="Hbar" unicode="&#x126;" horiz-adv-x="1323" 
d="M1236 1010v-75h-118v-935h-103v558h-706v-558h-103v935h-118v75h118v209h103v-209h706v209h103v-209h118zM1015 661v274h-706v-274h706z" />
    <glyph glyph-name="I" unicode="I" horiz-adv-x="514" 
d="M206 0v1219h103v-1219h-103z" />
    <glyph glyph-name="Iacute" unicode="&#xcd;" horiz-adv-x="514" 
d="M220 1326l173 299h122l-222 -299h-73zM206 0v1219h103v-1219h-103z" />
    <glyph glyph-name="Icircumflex" unicode="&#xce;" horiz-adv-x="514" 
d="M45 1326l159 299h105l159 -299h-84l-126 228l-127 -228h-86zM206 0v1219h103v-1219h-103z" />
    <glyph glyph-name="Idieresis" unicode="&#xcf;" horiz-adv-x="514" 
d="M114 1489c-41 0 -77 34 -77 75c0 44 36 77 77 77c42 0 77 -33 77 -77c0 -41 -35 -75 -77 -75zM399 1489c-41 0 -77 34 -77 75c0 44 36 77 77 77c42 0 77 -33 77 -77c0 -41 -35 -75 -77 -75zM206 0v1219h103v-1219h-103z" />
    <glyph glyph-name="Idotaccent" unicode="&#x130;" horiz-adv-x="514" 
d="M257 1489c-41 0 -77 34 -77 75c0 44 36 77 77 77c42 0 77 -33 77 -77c0 -41 -35 -75 -77 -75zM206 0v1219h103v-1219h-103z" />
    <glyph glyph-name="Igrave" unicode="&#xcc;" horiz-adv-x="514" 
d="M221 1326l-222 299h122l173 -299h-73zM206 0v1219h103v-1219h-103z" />
    <glyph glyph-name="Imacron" unicode="&#x12a;" horiz-adv-x="514" 
d="M43 1394v72h428v-72h-428zM206 0v1219h103v-1219h-103z" />
    <glyph glyph-name="Iogonek" unicode="&#x12e;" horiz-adv-x="514" 
d="M384 -291l35 -52c-57 -56 -121 -81 -201 -79c-105 4 -171 65 -171 167c0 108 78 182 178 255h-19v1219h103v-1219c-96 -64 -190 -136 -190 -248c0 -66 39 -114 113 -114c62 0 112 25 152 71z" />
    <glyph glyph-name="J" unicode="J" horiz-adv-x="871" 
d="M677 1219v-923c0 -186 -125 -312 -302 -312c-164 0 -281 106 -300 268l104 23c11 -112 93 -188 196 -188c113 0 199 89 199 219v810h-447v103h550z" />
    <glyph glyph-name="K" unicode="K" horiz-adv-x="1104" 
d="M919 0l-527 609h-83v-609h-103v1219h103v-512h80l510 512h143l-563 -562l584 -657h-144z" />
    <glyph glyph-name="uni0136" unicode="&#x136;" horiz-adv-x="1104" 
d="M479 657l584 -657h-144l-527 609h-83v-609h-103v1219h103v-512h80l510 512h143zM364 -390l127 293h123l-175 -293h-75z" />
    <glyph glyph-name="L" unicode="L" horiz-adv-x="813" 
d="M309 103h462v-103h-565v1219h103v-1116z" />
    <glyph glyph-name="Lacute" unicode="&#x139;" horiz-adv-x="813" 
d="M515 1625l-222 -299h-73l173 299h122zM309 103h462v-103h-565v1219h103v-1116z" />
    <glyph glyph-name="Lcaron" unicode="&#x13d;" horiz-adv-x="813" 
d="M468 1625l-160 -299h-104l-159 299h82l130 -228l129 228h82zM309 103h462v-103h-565v1219h103v-1116z" />
    <glyph glyph-name="uni013B" unicode="&#x13b;" horiz-adv-x="813" 
d="M309 103h462v-103h-565v1219h103v-1116zM300 -390l127 293h123l-175 -293h-75z" />
    <glyph glyph-name="Lslash" unicode="&#x141;" horiz-adv-x="813" 
d="M309 103h462v-103h-565v447l-67 -72v109l67 72v663h103v-552l165 177v-110l-165 -177v-454z" />
    <glyph glyph-name="M" unicode="M" horiz-adv-x="1595" 
d="M1283 1219h107v-1219h-103v1012l-449 -1012h-84l-445 1009v-1009h-103v1219h107l484 -1097z" />
    <glyph glyph-name="N" unicode="N" horiz-adv-x="1387" 
d="M1079 1219h103v-1219h-91l-782 1039v-1039h-103v1219h90l783 -1038v1038z" />
    <glyph glyph-name="Nacute" unicode="&#x143;" horiz-adv-x="1387" 
d="M951 1625l-222 -299h-73l173 299h122zM1079 1219h103v-1219h-91l-782 1039v-1039h-103v1219h90l783 -1038v1038z" />
    <glyph glyph-name="Ncaron" unicode="&#x147;" horiz-adv-x="1387" 
d="M744 1326h-104l-159 299h82l130 -228l129 228h82zM1079 1219h103v-1219h-91l-782 1039v-1039h-103v1219h90l783 -1038v1038z" />
    <glyph glyph-name="uni0145" unicode="&#x145;" horiz-adv-x="1387" 
d="M1079 1219h103v-1219h-91l-782 1039v-1039h-103v1219h90l783 -1038v1038zM505 -390l127 293h123l-175 -293h-75z" />
    <glyph glyph-name="Eng" unicode="&#x14a;" horiz-adv-x="1387" 
d="M1079 1219h103v-1403c0 -152 -69 -210 -209 -206v93c63 -6 111 22 111 120v186l-775 1030v-1039h-103v1219h90l783 -1038v1038z" />
    <glyph glyph-name="Ntilde" unicode="&#xd1;" horiz-adv-x="1387" 
d="M582 1554c-56 0 -88 -56 -88 -130h-77c0 118 63 206 163 206c124 0 142 -139 226 -139c54 0 88 47 88 129h75c0 -116 -59 -204 -163 -204c-128 0 -142 138 -224 138zM1079 1219h103v-1219h-91l-782 1039v-1039h-103v1219h90l783 -1038v1038z" />
    <glyph glyph-name="O" unicode="O" horiz-adv-x="1474" 
d="M737 -16c-346 0 -626 279 -626 626c0 346 280 625 626 625s626 -279 626 -625c0 -347 -280 -626 -626 -626zM737 87c290 0 523 232 523 523c0 290 -233 522 -523 522c-289 0 -523 -232 -523 -522c0 -291 234 -523 523 -523z" />
    <glyph glyph-name="Oacute" unicode="&#xd3;" horiz-adv-x="1474" 
d="M700 1326l173 299h122l-222 -299h-73zM737 -16c-346 0 -626 279 -626 626c0 346 280 625 626 625s626 -279 626 -625c0 -347 -280 -626 -626 -626zM737 87c290 0 523 232 523 523c0 290 -233 522 -523 522c-289 0 -523 -232 -523 -522c0 -291 234 -523 523 -523z" />
    <glyph glyph-name="Ocircumflex" unicode="&#xd4;" horiz-adv-x="1474" 
d="M525 1326l159 299h105l159 -299h-84l-126 228l-127 -228h-86zM737 -16c-346 0 -626 279 -626 626c0 346 280 625 626 625s626 -279 626 -625c0 -347 -280 -626 -626 -626zM737 87c290 0 523 232 523 523c0 290 -233 522 -523 522c-289 0 -523 -232 -523 -522
c0 -291 234 -523 523 -523z" />
    <glyph glyph-name="Odieresis" unicode="&#xd6;" horiz-adv-x="1474" 
d="M594 1489c-41 0 -77 34 -77 75c0 44 36 77 77 77c42 0 77 -33 77 -77c0 -41 -35 -75 -77 -75zM879 1489c-41 0 -77 34 -77 75c0 44 36 77 77 77c42 0 77 -33 77 -77c0 -41 -35 -75 -77 -75zM737 -16c-346 0 -626 279 -626 626c0 346 280 625 626 625s626 -279 626 -625
c0 -347 -280 -626 -626 -626zM737 87c290 0 523 232 523 523c0 290 -233 522 -523 522c-289 0 -523 -232 -523 -522c0 -291 234 -523 523 -523z" />
    <glyph glyph-name="Ograve" unicode="&#xd2;" horiz-adv-x="1474" 
d="M701 1326l-222 299h122l173 -299h-73zM737 -16c-346 0 -626 279 -626 626c0 346 280 625 626 625s626 -279 626 -625c0 -347 -280 -626 -626 -626zM737 87c290 0 523 232 523 523c0 290 -233 522 -523 522c-289 0 -523 -232 -523 -522c0 -291 234 -523 523 -523z" />
    <glyph glyph-name="Ohungarumlaut" unicode="&#x150;" horiz-adv-x="1474" 
d="M568 1326l171 299h122l-220 -299h-73zM833 1326l171 299h122l-220 -299h-73zM737 -16c-346 0 -626 279 -626 626c0 346 280 625 626 625s626 -279 626 -625c0 -347 -280 -626 -626 -626zM737 87c290 0 523 232 523 523c0 290 -233 522 -523 522
c-289 0 -523 -232 -523 -522c0 -291 234 -523 523 -523z" />
    <glyph glyph-name="Omacron" unicode="&#x14c;" horiz-adv-x="1474" 
d="M523 1394v72h428v-72h-428zM737 -16c-346 0 -626 279 -626 626c0 346 280 625 626 625s626 -279 626 -625c0 -347 -280 -626 -626 -626zM737 87c290 0 523 232 523 523c0 290 -233 522 -523 522c-289 0 -523 -232 -523 -522c0 -291 234 -523 523 -523z" />
    <glyph glyph-name="Oslash" unicode="&#xd8;" horiz-adv-x="1474" 
d="M1132 1096c141 -115 231 -290 231 -486c0 -347 -280 -626 -626 -626c-117 0 -226 32 -319 87l-87 -124l-78 46l90 130c-141 114 -232 290 -232 487c0 346 280 625 626 625c117 0 227 -32 321 -88l87 125l76 -48zM214 610c0 -163 73 -307 188 -403l597 856
c-77 44 -166 69 -262 69c-289 0 -523 -232 -523 -522zM737 87c290 0 523 232 523 523c0 162 -73 306 -187 401l-596 -855c76 -44 165 -69 260 -69z" />
    <glyph glyph-name="Otilde" unicode="&#xd5;" horiz-adv-x="1474" 
d="M850 1416c-128 0 -142 138 -224 138c-56 0 -88 -56 -88 -130h-77c0 118 63 206 163 206c124 0 142 -139 226 -139c54 0 88 47 88 129h75c0 -116 -59 -204 -163 -204zM737 -16c-346 0 -626 279 -626 626c0 346 280 625 626 625s626 -279 626 -625
c0 -347 -280 -626 -626 -626zM737 87c290 0 523 232 523 523c0 290 -233 522 -523 522c-289 0 -523 -232 -523 -522c0 -291 234 -523 523 -523z" />
    <glyph glyph-name="OE" unicode="&#x152;" horiz-adv-x="1670" 
d="M1575 1120h-552v-461h483v-99h-483v-460h552v-100h-639v16c-62 -21 -129 -32 -199 -32c-346 0 -626 279 -626 626c0 346 280 625 626 625c70 0 137 -11 199 -32v16h639v-99zM739 83c69 0 137 15 197 40v973c-60 26 -128 40 -197 40c-293 0 -528 -235 -528 -526
c0 -292 235 -527 528 -527z" />
    <glyph glyph-name="P" unicode="P" horiz-adv-x="1042" 
d="M625 1219c185 0 334 -150 334 -334c0 -186 -149 -333 -334 -333h-316v-552h-103v1219h419zM616 651c134 0 241 91 241 233c0 137 -108 236 -241 236h-307v-469h307z" />
    <glyph glyph-name="Thorn" unicode="&#xde;" horiz-adv-x="1039" 
d="M623 1052c184 0 334 -150 334 -335c0 -184 -150 -332 -334 -332h-318v-385h-99v1219h99v-167h318zM616 485c136 0 239 99 239 234c0 134 -103 234 -239 234h-311v-468h311z" />
    <glyph glyph-name="Q" unicode="Q" horiz-adv-x="1499" 
d="M1062 75l77 21h211v-96h-471c-46 -10 -93 -16 -142 -16c-346 0 -626 279 -626 626c0 346 280 625 626 625s626 -279 626 -625c0 -227 -120 -426 -301 -535zM214 610c0 -291 234 -523 523 -523c290 0 523 232 523 523c0 290 -233 522 -523 522c-289 0 -523 -232 -523 -522
z" />
    <glyph glyph-name="R" unicode="R" horiz-adv-x="1104" 
d="M672 562l362 -562h-117l-351 558h-257v-558h-103v1219h419c185 0 334 -148 334 -335c0 -167 -125 -302 -287 -322zM309 656h310c134 0 238 96 238 230c0 133 -105 230 -238 230h-310v-460z" />
    <glyph glyph-name="Racute" unicode="&#x154;" horiz-adv-x="1104" 
d="M810 1625l-222 -299h-73l173 299h122zM672 562l362 -562h-117l-351 558h-257v-558h-103v1219h419c185 0 334 -148 334 -335c0 -167 -125 -302 -287 -322zM309 656h310c134 0 238 96 238 230c0 133 -105 230 -238 230h-310v-460z" />
    <glyph glyph-name="Rcaron" unicode="&#x158;" horiz-adv-x="1104" 
d="M603 1326h-104l-159 299h82l130 -228l129 228h82zM672 562l362 -562h-117l-351 558h-257v-558h-103v1219h419c185 0 334 -148 334 -335c0 -167 -125 -302 -287 -322zM309 656h310c134 0 238 96 238 230c0 133 -105 230 -238 230h-310v-460z" />
    <glyph glyph-name="uni0156" unicode="&#x156;" horiz-adv-x="1104" 
d="M672 562l362 -562h-117l-351 558h-257v-558h-103v1219h419c185 0 334 -148 334 -335c0 -167 -125 -302 -287 -322zM309 656h310c134 0 238 96 238 230c0 133 -105 230 -238 230h-310v-460zM363 -390l127 293h123l-175 -293h-75z" />
    <glyph glyph-name="S" unicode="S" horiz-adv-x="950" 
d="M481 -16c-182 0 -331 99 -390 242l93 53c42 -112 151 -192 297 -192s268 79 268 222c0 319 -605 223 -605 615c0 199 155 311 333 311c143 0 262 -72 323 -161l-76 -65c-56 73 -138 123 -245 123c-120 0 -232 -65 -232 -201c0 -311 605 -212 605 -619
c0 -212 -173 -328 -371 -328z" />
    <glyph glyph-name="Sacute" unicode="&#x15a;" horiz-adv-x="950" 
d="M438 1326l173 299h122l-222 -299h-73zM481 -16c-182 0 -331 99 -390 242l93 53c42 -112 151 -192 297 -192s268 79 268 222c0 319 -605 223 -605 615c0 199 155 311 333 311c143 0 262 -72 323 -161l-76 -65c-56 73 -138 123 -245 123c-120 0 -232 -65 -232 -201
c0 -311 605 -212 605 -619c0 -212 -173 -328 -371 -328z" />
    <glyph glyph-name="Scaron" unicode="&#x160;" horiz-adv-x="950" 
d="M422 1326l-159 299h82l130 -228l129 228h82l-160 -299h-104zM481 -16c-182 0 -331 99 -390 242l93 53c42 -112 151 -192 297 -192s268 79 268 222c0 319 -605 223 -605 615c0 199 155 311 333 311c143 0 262 -72 323 -161l-76 -65c-56 73 -138 123 -245 123
c-120 0 -232 -65 -232 -201c0 -311 605 -212 605 -619c0 -212 -173 -328 -371 -328z" />
    <glyph glyph-name="Scedilla" unicode="&#x15e;" horiz-adv-x="950" 
d="M852 312c0 -209 -169 -325 -363 -328l-45 -97c115 24 206 -41 206 -146c0 -91 -71 -164 -162 -164c-71 0 -153 44 -187 99l57 27c26 -35 84 -62 130 -62c55 0 98 44 98 100c0 80 -75 116 -170 83l-52 36l63 127c-157 18 -283 111 -336 239l93 53
c42 -112 151 -192 297 -192s268 79 268 222c0 319 -605 223 -605 615c0 199 155 311 333 311c143 0 262 -72 323 -161l-76 -65c-56 73 -138 123 -245 123c-120 0 -232 -65 -232 -201c0 -311 605 -212 605 -619z" />
    <glyph glyph-name="uni0218" unicode="&#x218;" horiz-adv-x="950" 
d="M481 -16c-182 0 -331 99 -390 242l93 53c42 -112 151 -192 297 -192s268 79 268 222c0 319 -605 223 -605 615c0 199 155 311 333 311c143 0 262 -72 323 -161l-76 -65c-56 73 -138 123 -245 123c-120 0 -232 -65 -232 -201c0 -311 605 -212 605 -619
c0 -212 -173 -328 -371 -328zM287 -390l127 293h123l-175 -293h-75z" />
    <glyph glyph-name="uni1E9E" unicode="&#x1e9e;" horiz-adv-x="1119" 
d="M186 0v827c0 261 159 392 370 392h412l-301 -512c214 -9 348 -147 348 -356c0 -214 -143 -351 -325 -351h-263v103h247c132 0 240 88 240 248c0 164 -100 257 -268 257h-86v100l239 410h-242c-154 0 -271 -83 -271 -291v-827h-100z" />
    <glyph glyph-name="T" unicode="T" horiz-adv-x="871" 
d="M829 1220v-103h-343v-1116h-102v1116h-342v103h787z" />
    <glyph glyph-name="Tbar" unicode="&#x166;" horiz-adv-x="871" 
d="M829 1117h-343v-459h176v-96h-176v-561h-102v561h-176v96h176v459h-342v103h787v-103z" />
    <glyph glyph-name="Tcaron" unicode="&#x164;" horiz-adv-x="871" 
d="M487 1326h-104l-159 299h82l130 -228l129 228h82zM829 1220v-103h-343v-1116h-102v1116h-342v103h787z" />
    <glyph glyph-name="uni0162" unicode="&#x162;" horiz-adv-x="871" 
d="M42 1220h787v-103h-343v-1116h-102v1116h-342v103zM404 -113c115 24 206 -41 206 -146c0 -91 -71 -164 -162 -164c-71 0 -153 44 -187 99l57 27c26 -35 84 -62 130 -62c55 0 98 44 98 100c0 80 -75 116 -170 83l-52 36l69 140h63z" />
    <glyph glyph-name="uni021A" unicode="&#x21a;" horiz-adv-x="871" 
d="M42 1220h787v-103h-343v-1116h-102v1116h-342v103zM247 -390l127 293h123l-175 -293h-75z" />
    <glyph glyph-name="U" unicode="U" horiz-adv-x="1259" 
d="M629 -16c-256 0 -448 179 -448 418v817h103v-802c0 -188 148 -330 345 -330s346 142 346 330v802h103v-817c0 -239 -193 -418 -449 -418z" />
    <glyph glyph-name="Uacute" unicode="&#xda;" horiz-adv-x="1259" 
d="M593 1326l173 299h122l-222 -299h-73zM629 -16c-256 0 -448 179 -448 418v817h103v-802c0 -188 148 -330 345 -330s346 142 346 330v802h103v-817c0 -239 -193 -418 -449 -418z" />
    <glyph glyph-name="Ucircumflex" unicode="&#xdb;" horiz-adv-x="1259" 
d="M418 1326l159 299h105l159 -299h-84l-126 228l-127 -228h-86zM629 -16c-256 0 -448 179 -448 418v817h103v-802c0 -188 148 -330 345 -330s346 142 346 330v802h103v-817c0 -239 -193 -418 -449 -418z" />
    <glyph glyph-name="Udieresis" unicode="&#xdc;" horiz-adv-x="1259" 
d="M487 1489c-41 0 -77 34 -77 75c0 44 36 77 77 77c42 0 77 -33 77 -77c0 -41 -35 -75 -77 -75zM772 1489c-41 0 -77 34 -77 75c0 44 36 77 77 77c42 0 77 -33 77 -77c0 -41 -35 -75 -77 -75zM629 -16c-256 0 -448 179 -448 418v817h103v-802c0 -188 148 -330 345 -330
s346 142 346 330v802h103v-817c0 -239 -193 -418 -449 -418z" />
    <glyph glyph-name="Ugrave" unicode="&#xd9;" horiz-adv-x="1259" 
d="M594 1326l-222 299h122l173 -299h-73zM629 -16c-256 0 -448 179 -448 418v817h103v-802c0 -188 148 -330 345 -330s346 142 346 330v802h103v-817c0 -239 -193 -418 -449 -418z" />
    <glyph glyph-name="Uhungarumlaut" unicode="&#x170;" horiz-adv-x="1259" 
d="M461 1326l171 299h122l-220 -299h-73zM726 1326l171 299h122l-220 -299h-73zM629 -16c-256 0 -448 179 -448 418v817h103v-802c0 -188 148 -330 345 -330s346 142 346 330v802h103v-817c0 -239 -193 -418 -449 -418z" />
    <glyph glyph-name="Umacron" unicode="&#x16a;" horiz-adv-x="1259" 
d="M416 1394v72h428v-72h-428zM629 -16c-256 0 -448 179 -448 418v817h103v-802c0 -188 148 -330 345 -330s346 142 346 330v802h103v-817c0 -239 -193 -418 -449 -418z" />
    <glyph glyph-name="Uogonek" unicode="&#x172;" horiz-adv-x="1259" 
d="M975 1219h103v-817c0 -201 -137 -360 -332 -405c-95 -63 -186 -135 -186 -245c0 -66 39 -114 113 -114c62 0 112 25 152 71l35 -52c-57 -56 -121 -81 -201 -79c-105 4 -171 65 -171 167c0 100 67 171 157 239h-16c-256 0 -448 179 -448 418v817h103v-802
c0 -188 148 -330 345 -330s346 142 346 330v802z" />
    <glyph glyph-name="Uring" unicode="&#x16e;" horiz-adv-x="1259" 
d="M632 1300c-89 0 -161 72 -161 159c0 89 72 160 161 160c86 0 158 -71 158 -160c0 -87 -72 -159 -158 -159zM632 1358c54 0 99 44 99 101c0 56 -45 104 -99 104c-57 0 -102 -48 -102 -104c0 -57 45 -101 102 -101zM629 -16c-256 0 -448 179 -448 418v817h103v-802
c0 -188 148 -330 345 -330s346 142 346 330v802h103v-817c0 -239 -193 -418 -449 -418z" />
    <glyph glyph-name="V" unicode="V" horiz-adv-x="1104" 
d="M936 1219h113l-440 -1219h-114l-441 1219h115l384 -1086z" />
    <glyph glyph-name="W" unicode="W" horiz-adv-x="1787" 
d="M449 0l-389 1219h110l334 -1045l318 1045h142l322 -1047l334 1047h107l-387 -1219h-109l-338 1102l-334 -1102h-110z" />
    <glyph glyph-name="Wacute" unicode="&#x1e82;" horiz-adv-x="1787" 
d="M857 1326l173 299h122l-222 -299h-73zM449 0l-389 1219h110l334 -1045l318 1045h142l322 -1047l334 1047h107l-387 -1219h-109l-338 1102l-334 -1102h-110z" />
    <glyph glyph-name="Wcircumflex" unicode="&#x174;" horiz-adv-x="1787" 
d="M682 1326l159 299h105l159 -299h-84l-126 228l-127 -228h-86zM449 0l-389 1219h110l334 -1045l318 1045h142l322 -1047l334 1047h107l-387 -1219h-109l-338 1102l-334 -1102h-110z" />
    <glyph glyph-name="Wdieresis" unicode="&#x1e84;" horiz-adv-x="1787" 
d="M751 1489c-41 0 -77 34 -77 75c0 44 36 77 77 77c42 0 77 -33 77 -77c0 -41 -35 -75 -77 -75zM1036 1489c-41 0 -77 34 -77 75c0 44 36 77 77 77c42 0 77 -33 77 -77c0 -41 -35 -75 -77 -75zM449 0l-389 1219h110l334 -1045l318 1045h142l322 -1047l334 1047h107
l-387 -1219h-109l-338 1102l-334 -1102h-110z" />
    <glyph glyph-name="Wgrave" unicode="&#x1e80;" horiz-adv-x="1787" 
d="M858 1326l-222 299h122l173 -299h-73zM449 0l-389 1219h110l334 -1045l318 1045h142l322 -1047l334 1047h107l-387 -1219h-109l-338 1102l-334 -1102h-110z" />
    <glyph glyph-name="X" unicode="X" horiz-adv-x="1052" 
d="M55 0l414 615l-406 604h124l339 -517l339 517h124l-407 -602l415 -617h-125l-347 530l-344 -530h-126z" />
    <glyph glyph-name="Y" unicode="Y" horiz-adv-x="1021" 
d="M460 0v577l-425 642h127l349 -533l350 533h126l-424 -640v-579h-103z" />
    <glyph glyph-name="Yacute" unicode="&#xdd;" horiz-adv-x="1021" 
d="M473 1326l173 299h122l-222 -299h-73zM460 0v577l-425 642h127l349 -533l350 533h126l-424 -640v-579h-103z" />
    <glyph glyph-name="Ycircumflex" unicode="&#x176;" horiz-adv-x="1021" 
d="M298 1326l159 299h105l159 -299h-84l-126 228l-127 -228h-86zM460 0v577l-425 642h127l349 -533l350 533h126l-424 -640v-579h-103z" />
    <glyph glyph-name="Ydieresis" unicode="&#x178;" horiz-adv-x="1021" 
d="M367 1489c-41 0 -77 34 -77 75c0 44 36 77 77 77c42 0 77 -33 77 -77c0 -41 -35 -75 -77 -75zM652 1489c-41 0 -77 34 -77 75c0 44 36 77 77 77c42 0 77 -33 77 -77c0 -41 -35 -75 -77 -75zM460 0v577l-425 642h127l349 -533l350 533h126l-424 -640v-579h-103z" />
    <glyph glyph-name="Ygrave" unicode="&#x1ef2;" horiz-adv-x="1021" 
d="M474 1326l-222 299h122l173 -299h-73zM460 0v577l-425 642h127l349 -533l350 533h126l-424 -640v-579h-103z" />
    <glyph glyph-name="Z" unicode="Z" horiz-adv-x="1037" 
d="M243 103h734v-103h-920l705 1116h-665v103h851z" />
    <glyph glyph-name="Zacute" unicode="&#x179;" horiz-adv-x="1037" 
d="M776 1625l-222 -299h-73l173 299h122zM243 103h734v-103h-920l705 1116h-665v103h851z" />
    <glyph glyph-name="Zcaron" unicode="&#x17d;" horiz-adv-x="1037" 
d="M570 1326h-104l-159 299h82l130 -228l129 228h82zM243 103h734v-103h-920l705 1116h-665v103h851z" />
    <glyph glyph-name="Zdotaccent" unicode="&#x17b;" horiz-adv-x="1037" 
d="M518 1489c-41 0 -77 34 -77 75c0 44 36 77 77 77c42 0 77 -33 77 -77c0 -41 -35 -75 -77 -75zM243 103h734v-103h-920l705 1116h-665v103h851z" />
    <glyph glyph-name="a" unicode="a" horiz-adv-x="1127" 
d="M1024 81h54v-81c-25 -11 -49 -16 -72 -16c-88 0 -149 65 -165 158c-77 -95 -194 -158 -327 -158c-234 0 -423 189 -423 422c0 234 189 423 423 423c130 0 246 -59 323 -151v135h100v-621c0 -77 37 -111 87 -111zM514 83c178 0 323 144 323 323c0 180 -145 323 -323 323
c-179 0 -323 -143 -323 -323c0 -179 144 -323 323 -323z" />
    <glyph glyph-name="aacute" unicode="&#xe1;" horiz-adv-x="1127" 
d="M771 1219l-222 -299h-73l173 299h122zM1024 81h54v-81c-25 -11 -49 -16 -72 -16c-88 0 -149 65 -165 158c-77 -95 -194 -158 -327 -158c-234 0 -423 189 -423 422c0 234 189 423 423 423c130 0 246 -59 323 -151v135h100v-621c0 -77 37 -111 87 -111zM514 83
c178 0 323 144 323 323c0 180 -145 323 -323 323c-179 0 -323 -143 -323 -323c0 -179 144 -323 323 -323z" />
    <glyph glyph-name="abreve" unicode="&#x103;" horiz-adv-x="1127" 
d="M512 979c-149 0 -261 96 -261 240h66c0 -96 83 -173 195 -173c113 0 197 77 197 173h66c0 -144 -112 -240 -263 -240zM1024 81h54v-81c-25 -11 -49 -16 -72 -16c-88 0 -149 65 -165 158c-77 -95 -194 -158 -327 -158c-234 0 -423 189 -423 422c0 234 189 423 423 423
c130 0 246 -59 323 -151v135h100v-621c0 -77 37 -111 87 -111zM514 83c178 0 323 144 323 323c0 180 -145 323 -323 323c-179 0 -323 -143 -323 -323c0 -179 144 -323 323 -323z" />
    <glyph glyph-name="acircumflex" unicode="&#xe2;" horiz-adv-x="1127" 
d="M514 1148l-127 -228h-86l159 299h105l159 -299h-84zM1024 81h54v-81c-25 -11 -49 -16 -72 -16c-88 0 -149 65 -165 158c-77 -95 -194 -158 -327 -158c-234 0 -423 189 -423 422c0 234 189 423 423 423c130 0 246 -59 323 -151v135h100v-621c0 -77 37 -111 87 -111z
M514 83c178 0 323 144 323 323c0 180 -145 323 -323 323c-179 0 -323 -143 -323 -323c0 -179 144 -323 323 -323z" />
    <glyph glyph-name="adieresis" unicode="&#xe4;" horiz-adv-x="1127" 
d="M370 1083c-41 0 -77 34 -77 75c0 44 36 77 77 77c42 0 77 -33 77 -77c0 -41 -35 -75 -77 -75zM655 1083c-41 0 -77 34 -77 75c0 44 36 77 77 77c42 0 77 -33 77 -77c0 -41 -35 -75 -77 -75zM1024 81h54v-81c-25 -11 -49 -16 -72 -16c-88 0 -149 65 -165 158
c-77 -95 -194 -158 -327 -158c-234 0 -423 189 -423 422c0 234 189 423 423 423c130 0 246 -59 323 -151v135h100v-621c0 -77 37 -111 87 -111zM514 83c178 0 323 144 323 323c0 180 -145 323 -323 323c-179 0 -323 -143 -323 -323c0 -179 144 -323 323 -323z" />
    <glyph glyph-name="agrave" unicode="&#xe0;" horiz-adv-x="1127" 
d="M550 920h-73l-222 299h122zM1024 81h54v-81c-25 -11 -49 -16 -72 -16c-88 0 -149 65 -165 158c-77 -95 -194 -158 -327 -158c-234 0 -423 189 -423 422c0 234 189 423 423 423c130 0 246 -59 323 -151v135h100v-621c0 -77 37 -111 87 -111zM514 83c178 0 323 144 323 323
c0 180 -145 323 -323 323c-179 0 -323 -143 -323 -323c0 -179 144 -323 323 -323z" />
    <glyph glyph-name="amacron" unicode="&#x101;" horiz-adv-x="1127" 
d="M727 1060v-72h-428v72h428zM1024 81h54v-81c-25 -11 -49 -16 -72 -16c-88 0 -149 65 -165 158c-77 -95 -194 -158 -327 -158c-234 0 -423 189 -423 422c0 234 189 423 423 423c130 0 246 -59 323 -151v135h100v-621c0 -77 37 -111 87 -111zM514 83c178 0 323 144 323 323
c0 180 -145 323 -323 323c-179 0 -323 -143 -323 -323c0 -179 144 -323 323 -323z" />
    <glyph glyph-name="aogonek" unicode="&#x105;" horiz-adv-x="1127" 
d="M1153 -291l35 -52c-57 -56 -121 -81 -201 -79c-105 4 -171 65 -171 167c0 101 69 173 160 242c-71 13 -121 73 -135 155c-77 -95 -194 -158 -327 -158c-234 0 -423 189 -423 422c0 234 189 423 423 423c130 0 246 -59 323 -151v135h100v-621c0 -77 37 -111 87 -111h54
v-81c-96 -64 -190 -136 -190 -248c0 -66 39 -114 113 -114c62 0 112 25 152 71zM514 83c178 0 323 144 323 323c0 180 -145 323 -323 323c-179 0 -323 -143 -323 -323c0 -179 144 -323 323 -323z" />
    <glyph glyph-name="aring" unicode="&#xe5;" horiz-adv-x="1127" 
d="M515 894c-89 0 -161 72 -161 159c0 89 72 160 161 160c86 0 158 -71 158 -160c0 -87 -72 -159 -158 -159zM515 1157c-57 0 -102 -48 -102 -104c0 -57 45 -101 102 -101c54 0 99 44 99 101c0 56 -45 104 -99 104zM1024 81h54v-81c-25 -11 -49 -16 -72 -16
c-88 0 -149 65 -165 158c-77 -95 -194 -158 -327 -158c-234 0 -423 189 -423 422c0 234 189 423 423 423c130 0 246 -59 323 -151v135h100v-621c0 -77 37 -111 87 -111zM514 83c178 0 323 144 323 323c0 180 -145 323 -323 323c-179 0 -323 -143 -323 -323
c0 -179 144 -323 323 -323z" />
    <glyph glyph-name="atilde" unicode="&#xe3;" horiz-adv-x="1127" 
d="M402 1148c-56 0 -88 -56 -88 -130h-77c0 118 63 206 163 206c124 0 142 -139 226 -139c54 0 88 47 88 129h75c0 -116 -59 -204 -163 -204c-128 0 -142 138 -224 138zM1024 81h54v-81c-25 -11 -49 -16 -72 -16c-88 0 -149 65 -165 158c-77 -95 -194 -158 -327 -158
c-234 0 -423 189 -423 422c0 234 189 423 423 423c130 0 246 -59 323 -151v135h100v-621c0 -77 37 -111 87 -111zM514 83c178 0 323 144 323 323c0 180 -145 323 -323 323c-179 0 -323 -143 -323 -323c0 -179 144 -323 323 -323z" />
    <glyph glyph-name="ae" unicode="&#xe6;" horiz-adv-x="1593" 
d="M1506 417l-1 -22h-744c4 -174 147 -312 323 -312c136 0 252 82 300 202h105c-53 -175 -214 -301 -405 -301c-142 0 -267 69 -344 176c-105 -107 -238 -176 -348 -176c-172 0 -294 105 -294 256c0 155 122 254 304 254h268c1 3 1 6 2 8v31c0 122 -93 212 -221 212
c-100 0 -195 -57 -224 -136l-98 33c40 109 171 187 323 187c137 0 246 -66 294 -168c77 102 200 168 338 168c230 0 413 -179 422 -412zM1084 729c-150 0 -273 -98 -311 -237v-5h620c-33 139 -159 242 -309 242zM392 76c93 0 210 68 301 169c-20 49 -31 102 -32 157h-259
c-126 0 -205 -62 -205 -164c0 -97 78 -162 195 -162z" />
    <glyph glyph-name="b" unicode="b" horiz-adv-x="1101" 
d="M587 829c234 0 422 -189 422 -423c0 -233 -188 -422 -422 -422c-129 0 -245 58 -323 150v-134h-100v1495h100v-816c78 92 194 150 323 150zM587 83c178 0 323 144 323 323c0 180 -145 323 -323 323c-179 0 -323 -143 -323 -323c0 -179 144 -323 323 -323z" />
    <glyph glyph-name="c" unicode="c" horiz-adv-x="998" 
d="M514 -16c-234 0 -423 189 -423 422c0 234 189 423 423 423c186 0 344 -120 400 -285h-106c-52 110 -165 185 -294 185c-177 0 -324 -141 -323 -323c-1 -182 146 -323 323 -323c129 0 242 76 294 186h106c-56 -166 -214 -285 -400 -285z" />
    <glyph glyph-name="cacute" unicode="&#x107;" horiz-adv-x="998" 
d="M460 920l173 299h122l-222 -299h-73zM514 -16c-234 0 -423 189 -423 422c0 234 189 423 423 423c186 0 344 -120 400 -285h-106c-52 110 -165 185 -294 185c-177 0 -324 -141 -323 -323c-1 -182 146 -323 323 -323c129 0 242 76 294 186h106
c-56 -166 -214 -285 -400 -285z" />
    <glyph glyph-name="ccaron" unicode="&#x10d;" horiz-adv-x="998" 
d="M444 920l-159 299h82l130 -228l129 228h82l-160 -299h-104zM514 -16c-234 0 -423 189 -423 422c0 234 189 423 423 423c186 0 344 -120 400 -285h-106c-52 110 -165 185 -294 185c-177 0 -324 -141 -323 -323c-1 -182 146 -323 323 -323c129 0 242 76 294 186h106
c-56 -166 -214 -285 -400 -285z" />
    <glyph glyph-name="ccedilla" unicode="&#xe7;" horiz-adv-x="998" 
d="M514 83c129 0 242 76 294 186h106c-56 -166 -214 -285 -400 -285h-3l-45 -97c115 24 206 -41 206 -146c0 -91 -71 -164 -162 -164c-71 0 -153 44 -187 99l57 27c26 -35 84 -62 130 -62c55 0 98 44 98 100c0 80 -75 116 -170 83l-52 36l64 129c-204 31 -359 206 -359 417
c0 234 189 423 423 423c186 0 344 -120 400 -285h-106c-52 110 -165 185 -294 185c-177 0 -324 -141 -323 -323c-1 -182 146 -323 323 -323z" />
    <glyph glyph-name="cdotaccent" unicode="&#x10b;" horiz-adv-x="998" 
d="M497 1083c-41 0 -77 34 -77 75c0 44 36 77 77 77c42 0 77 -33 77 -77c0 -41 -35 -75 -77 -75zM514 -16c-234 0 -423 189 -423 422c0 234 189 423 423 423c186 0 344 -120 400 -285h-106c-52 110 -165 185 -294 185c-177 0 -324 -141 -323 -323c-1 -182 146 -323 323 -323
c129 0 242 76 294 186h106c-56 -166 -214 -285 -400 -285z" />
    <glyph glyph-name="d" unicode="d" horiz-adv-x="1101" 
d="M837 1495h100v-1495h-100v133c-78 -91 -193 -149 -323 -149c-234 0 -423 189 -423 422c0 234 189 423 423 423c130 0 245 -58 323 -150v816zM514 83c178 0 323 144 323 323c0 180 -145 323 -323 323c-179 0 -323 -143 -323 -323c0 -179 144 -323 323 -323z" />
    <glyph glyph-name="eth" unicode="&#xf0;" horiz-adv-x="1071" 
d="M664 1106c188 -157 292 -408 292 -653c0 -254 -159 -469 -434 -469c-238 0 -432 189 -432 422c0 234 194 423 432 423c113 0 234 -40 309 -143c-37 162 -136 281 -221 351l-92 -117l-53 43l90 113c-79 52 -167 78 -260 79l16 84c108 0 209 -35 299 -94l77 98l52 -41z
M522 82c180 0 323 145 323 324c0 180 -143 324 -323 324s-324 -144 -324 -324c0 -179 144 -324 324 -324z" />
    <glyph glyph-name="dcaron" unicode="&#x10f;" horiz-adv-x="1149" 
d="M820 679v816h100v-1495h-100v133c-78 -91 -193 -149 -323 -149c-233 0 -422 189 -422 422c0 234 189 423 422 423c130 0 245 -58 323 -150zM1231 1219h114l-243 -471h-86zM497 83c179 0 323 144 323 323c0 180 -144 323 -323 323s-323 -143 -323 -323
c0 -179 144 -323 323 -323z" />
    <glyph glyph-name="dcroat" unicode="&#x111;" horiz-adv-x="1101" 
d="M1081 1267v-96h-144v-1171h-100v133c-78 -91 -193 -149 -323 -149c-234 0 -423 189 -423 422c0 234 189 423 423 423c130 0 245 -58 323 -150v492h-210v96h210v228h100v-228h144zM514 83c178 0 323 144 323 323c0 180 -145 323 -323 323c-179 0 -323 -143 -323 -323
c0 -179 144 -323 323 -323z" />
    <glyph glyph-name="e" unicode="e" horiz-adv-x="1024" 
d="M936 417l-1 -22h-744c5 -174 148 -312 323 -312c136 0 252 82 299 202h106c-53 -175 -214 -301 -405 -301c-234 0 -423 189 -423 422c0 234 189 423 423 423c230 0 414 -179 422 -412zM514 729c-151 0 -276 -101 -312 -242h622c-34 139 -159 242 -310 242z" />
    <glyph glyph-name="eacute" unicode="&#xe9;" horiz-adv-x="1024" 
d="M769 1219l-222 -299h-73l173 299h122zM936 417l-1 -22h-744c5 -174 148 -312 323 -312c136 0 252 82 299 202h106c-53 -175 -214 -301 -405 -301c-234 0 -423 189 -423 422c0 234 189 423 423 423c230 0 414 -179 422 -412zM514 729c-151 0 -276 -101 -312 -242h622
c-34 139 -159 242 -310 242z" />
    <glyph glyph-name="ecaron" unicode="&#x11b;" horiz-adv-x="1024" 
d="M563 920h-104l-159 299h82l130 -228l129 228h82zM936 417l-1 -22h-744c5 -174 148 -312 323 -312c136 0 252 82 299 202h106c-53 -175 -214 -301 -405 -301c-234 0 -423 189 -423 422c0 234 189 423 423 423c230 0 414 -179 422 -412zM514 729
c-151 0 -276 -101 -312 -242h622c-34 139 -159 242 -310 242z" />
    <glyph glyph-name="ecircumflex" unicode="&#xea;" horiz-adv-x="1024" 
d="M512 1148l-127 -228h-86l159 299h105l159 -299h-84zM936 417l-1 -22h-744c5 -174 148 -312 323 -312c136 0 252 82 299 202h106c-53 -175 -214 -301 -405 -301c-234 0 -423 189 -423 422c0 234 189 423 423 423c230 0 414 -179 422 -412zM514 729
c-151 0 -276 -101 -312 -242h622c-34 139 -159 242 -310 242z" />
    <glyph glyph-name="edieresis" unicode="&#xeb;" horiz-adv-x="1024" 
d="M368 1083c-41 0 -77 34 -77 75c0 44 36 77 77 77c42 0 77 -33 77 -77c0 -41 -35 -75 -77 -75zM653 1083c-41 0 -77 34 -77 75c0 44 36 77 77 77c42 0 77 -33 77 -77c0 -41 -35 -75 -77 -75zM936 417l-1 -22h-744c5 -174 148 -312 323 -312c136 0 252 82 299 202h106
c-53 -175 -214 -301 -405 -301c-234 0 -423 189 -423 422c0 234 189 423 423 423c230 0 414 -179 422 -412zM514 729c-151 0 -276 -101 -312 -242h622c-34 139 -159 242 -310 242z" />
    <glyph glyph-name="edotaccent" unicode="&#x117;" horiz-adv-x="1024" 
d="M511 1083c-41 0 -77 34 -77 75c0 44 36 77 77 77c42 0 77 -33 77 -77c0 -41 -35 -75 -77 -75zM936 417l-1 -22h-744c5 -174 148 -312 323 -312c136 0 252 82 299 202h106c-53 -175 -214 -301 -405 -301c-234 0 -423 189 -423 422c0 234 189 423 423 423
c230 0 414 -179 422 -412zM514 729c-151 0 -276 -101 -312 -242h622c-34 139 -159 242 -310 242z" />
    <glyph glyph-name="egrave" unicode="&#xe8;" horiz-adv-x="1024" 
d="M548 920h-73l-222 299h122zM936 417l-1 -22h-744c5 -174 148 -312 323 -312c136 0 252 82 299 202h106c-53 -175 -214 -301 -405 -301c-234 0 -423 189 -423 422c0 234 189 423 423 423c230 0 414 -179 422 -412zM514 729c-151 0 -276 -101 -312 -242h622
c-34 139 -159 242 -310 242z" />
    <glyph glyph-name="emacron" unicode="&#x113;" horiz-adv-x="1024" 
d="M725 1060v-72h-428v72h428zM936 417l-1 -22h-744c5 -174 148 -312 323 -312c136 0 252 82 299 202h106c-53 -175 -214 -301 -405 -301c-234 0 -423 189 -423 422c0 234 189 423 423 423c230 0 414 -179 422 -412zM514 729c-151 0 -276 -101 -312 -242h622
c-34 139 -159 242 -310 242z" />
    <glyph glyph-name="eogonek" unicode="&#x119;" horiz-adv-x="1024" 
d="M936 417l-1 -22h-744c5 -174 148 -312 323 -312c136 0 252 82 299 202h106c-42 -138 -151 -246 -290 -285c-92 -62 -179 -133 -179 -241c0 -66 39 -114 113 -114c62 0 112 25 152 71l35 -52c-57 -56 -121 -81 -201 -79c-105 4 -171 65 -171 167c0 96 62 166 148 232h-12
c-234 0 -423 189 -423 422c0 234 189 423 423 423c230 0 414 -179 422 -412zM514 729c-151 0 -276 -101 -312 -242h622c-34 139 -159 242 -310 242z" />
    <glyph glyph-name="f" unicode="f" horiz-adv-x="530" 
d="M514 813v-98h-222v-715h-100v715h-136v98h136v478c0 120 99 215 217 215c38 0 82 -11 103 -26v-76l-91 5c-70 0 -129 -53 -129 -130v-466h222z" />
    <glyph glyph-name="g" unicode="g" horiz-adv-x="1101" 
d="M835 813h101v-873c0 -298 -178 -444 -417 -444c-180 0 -332 108 -396 264l91 42c47 -122 164 -206 305 -206c184 0 318 102 318 344v195c-78 -92 -194 -151 -324 -151c-233 0 -422 189 -422 422c0 235 189 423 422 423c129 0 244 -57 322 -148v132zM513 83
c179 0 324 146 324 323c0 180 -145 323 -324 323c-178 0 -322 -143 -322 -323c0 -177 144 -323 322 -323z" />
    <glyph glyph-name="gbreve" unicode="&#x11f;" horiz-adv-x="1101" 
d="M543 979c-149 0 -261 96 -261 240h66c0 -96 83 -173 195 -173c113 0 197 77 197 173h66c0 -144 -112 -240 -263 -240zM835 813h101v-873c0 -298 -178 -444 -417 -444c-180 0 -332 108 -396 264l91 42c47 -122 164 -206 305 -206c184 0 318 102 318 344v195
c-78 -92 -194 -151 -324 -151c-233 0 -422 189 -422 422c0 235 189 423 422 423c129 0 244 -57 322 -148v132zM513 83c179 0 324 146 324 323c0 180 -145 323 -324 323c-178 0 -322 -143 -322 -323c0 -177 144 -323 322 -323z" />
    <glyph glyph-name="uni0123" unicode="&#x123;" horiz-adv-x="1101" 
d="M732 1219l-126 -283h-124l175 283h75zM835 813h101v-873c0 -298 -178 -444 -417 -444c-180 0 -332 108 -396 264l91 42c47 -122 164 -206 305 -206c184 0 318 102 318 344v195c-78 -92 -194 -151 -324 -151c-233 0 -422 189 -422 422c0 235 189 423 422 423
c129 0 244 -57 322 -148v132zM513 83c179 0 324 146 324 323c0 180 -145 323 -324 323c-178 0 -322 -143 -322 -323c0 -177 144 -323 322 -323z" />
    <glyph glyph-name="gdotaccent" unicode="&#x121;" horiz-adv-x="1101" 
d="M544 1083c-41 0 -77 34 -77 75c0 44 36 77 77 77c42 0 77 -33 77 -77c0 -41 -35 -75 -77 -75zM835 813h101v-873c0 -298 -178 -444 -417 -444c-180 0 -332 108 -396 264l91 42c47 -122 164 -206 305 -206c184 0 318 102 318 344v195c-78 -92 -194 -151 -324 -151
c-233 0 -422 189 -422 422c0 235 189 423 422 423c129 0 244 -57 322 -148v132zM513 83c179 0 324 146 324 323c0 180 -145 323 -324 323c-178 0 -322 -143 -322 -323c0 -177 144 -323 322 -323z" />
    <glyph glyph-name="h" unicode="h" horiz-adv-x="912" 
d="M466 829c166 0 300 -136 300 -306v-523h-100v523c0 116 -90 207 -202 207c-110 0 -200 -91 -200 -207v-523h-100v1495h100v-745c53 49 124 79 202 79z" />
    <glyph glyph-name="hbar" unicode="&#x127;" horiz-adv-x="912" 
d="M466 829c166 0 300 -136 300 -306v-523h-100v523c0 116 -90 207 -202 207c-110 0 -200 -91 -200 -207v-523h-100v1171h-102v96h102v228h100v-228h252v-96h-252v-421c53 49 124 79 202 79z" />
    <glyph glyph-name="i" unicode="i" horiz-adv-x="428" 
d="M214 1083c-41 0 -77 34 -77 75c0 44 36 77 77 77c42 0 77 -33 77 -77c0 -41 -35 -75 -77 -75zM164 0v813h100v-813h-100z" />
    <glyph glyph-name="dotlessi" unicode="&#x131;" horiz-adv-x="428" 
d="M164 0v813h100v-813h-100z" />
    <glyph glyph-name="iacute" unicode="&#xed;" horiz-adv-x="428" 
d="M177 920l173 299h122l-222 -299h-73zM164 0v813h100v-813h-100z" />
    <glyph glyph-name="icircumflex" unicode="&#xee;" horiz-adv-x="428" 
d="M2 920l159 299h105l159 -299h-84l-126 228l-127 -228h-86zM164 0v813h100v-813h-100z" />
    <glyph glyph-name="idieresis" unicode="&#xef;" horiz-adv-x="428" 
d="M71 1083c-41 0 -77 34 -77 75c0 44 36 77 77 77c42 0 77 -33 77 -77c0 -41 -35 -75 -77 -75zM356 1083c-41 0 -77 34 -77 75c0 44 36 77 77 77c42 0 77 -33 77 -77c0 -41 -35 -75 -77 -75zM164 0v813h100v-813h-100z" />
    <glyph glyph-name="i.loclTRK" horiz-adv-x="428" 
d="M214 1083c-41 0 -77 34 -77 75c0 44 36 77 77 77c42 0 77 -33 77 -77c0 -41 -35 -75 -77 -75zM164 0v813h100v-813h-100z" />
    <glyph glyph-name="igrave" unicode="&#xec;" horiz-adv-x="428" 
d="M178 920l-222 299h122l173 -299h-73zM164 0v813h100v-813h-100z" />
    <glyph glyph-name="imacron" unicode="&#x12b;" horiz-adv-x="428" 
d="M0 988v72h428v-72h-428zM164 0v813h100v-813h-100z" />
    <glyph glyph-name="iogonek" unicode="&#x12f;" horiz-adv-x="428" 
d="M214 1083c-41 0 -77 34 -77 75c0 44 36 77 77 77c42 0 77 -33 77 -77c0 -41 -35 -75 -77 -75zM339 -291l35 -52c-57 -56 -121 -81 -201 -79c-105 4 -171 65 -171 167c0 108 78 182 178 255h-16v813h100v-813c-96 -64 -190 -136 -190 -248c0 -66 39 -114 113 -114
c62 0 112 25 152 71z" />
    <glyph glyph-name="j" unicode="j" horiz-adv-x="428" 
d="M214 1083c-41 0 -77 34 -77 75c0 44 36 77 77 77c42 0 77 -33 77 -77c0 -41 -35 -75 -77 -75zM44 -553c-37 0 -77 10 -100 21v77h81c85 0 139 53 139 129v1139h100v-1151c0 -124 -98 -215 -220 -215z" />
    <glyph glyph-name="uni0237" unicode="&#x237;" horiz-adv-x="428" 
d="M44 -553c-37 0 -77 10 -100 21v77h81c85 0 139 53 139 129v1139h100v-1151c0 -124 -98 -215 -220 -215z" />
    <glyph glyph-name="k" unicode="k" horiz-adv-x="813" 
d="M803 0h-139l-400 439v-438h-100v1494h100v-1026l369 344h135l-388 -361z" />
    <glyph glyph-name="uni0137" unicode="&#x137;" horiz-adv-x="813" 
d="M380 452l423 -452h-139l-400 439v-438h-100v1494h100v-1026l369 344h135zM234 -390l127 293h123l-175 -293h-75z" />
    <glyph glyph-name="l" unicode="l" horiz-adv-x="428" 
d="M164 0v1495h100v-1495h-100z" />
    <glyph glyph-name="lacute" unicode="&#x13a;" horiz-adv-x="428" 
d="M177 1602l173 299h122l-222 -299h-73zM164 0v1495h100v-1495h-100z" />
    <glyph glyph-name="lcaron" unicode="&#x13e;" horiz-adv-x="467" 
d="M148 0v1495h99v-1495h-99zM330 748l215 471h114l-243 -471h-86z" />
    <glyph glyph-name="uni013C" unicode="&#x13c;" horiz-adv-x="428" 
d="M164 0v1495h100v-1495h-100zM26 -390l127 293h123l-175 -293h-75z" />
    <glyph glyph-name="lslash" unicode="&#x142;" horiz-adv-x="428" 
d="M381 982v-110l-117 -125v-747h-100v639l-118 -126v109l118 127v746h100v-639z" />
    <glyph glyph-name="m" unicode="m" horiz-adv-x="1383" 
d="M164 0v813h100v-93c47 66 121 109 203 109c95 0 183 -55 233 -141c50 86 140 141 244 141c162 0 292 -133 292 -302v-527h-100v527c0 115 -86 202 -193 202s-193 -87 -193 -202v-527h-100v527c0 115 -86 202 -193 202c-108 0 -193 -87 -193 -202v-527h-100z" />
    <glyph glyph-name="n" unicode="n" horiz-adv-x="927" 
d="M481 829c159 0 300 -137 300 -308v-521h-99v521c0 117 -93 209 -208 209c-117 0 -210 -92 -210 -209v-521h-100v813h100v-84c54 61 132 100 217 100z" />
    <glyph glyph-name="nacute" unicode="&#x144;" horiz-adv-x="927" 
d="M722 1219l-222 -299h-73l173 299h122zM481 829c159 0 300 -137 300 -308v-521h-99v521c0 117 -93 209 -208 209c-117 0 -210 -92 -210 -209v-521h-100v813h100v-84c54 61 132 100 217 100z" />
    <glyph glyph-name="ncaron" unicode="&#x148;" horiz-adv-x="927" 
d="M515 920h-104l-159 299h82l130 -228l129 228h82zM481 829c159 0 300 -137 300 -308v-521h-99v521c0 117 -93 209 -208 209c-117 0 -210 -92 -210 -209v-521h-100v813h100v-84c54 61 132 100 217 100z" />
    <glyph glyph-name="uni0146" unicode="&#x146;" horiz-adv-x="927" 
d="M481 829c159 0 300 -137 300 -308v-521h-99v521c0 117 -93 209 -208 209c-117 0 -210 -92 -210 -209v-521h-100v813h100v-84c54 61 132 100 217 100zM275 -390l127 293h123l-175 -293h-75z" />
    <glyph glyph-name="eng" unicode="&#x14b;" horiz-adv-x="927" 
d="M481 829c159 0 300 -137 300 -308v-738c0 -149 -71 -209 -209 -205v70c61 -5 110 23 110 121v752c0 117 -93 209 -208 209c-117 0 -210 -92 -210 -209v-521h-100v813h100v-84c54 61 132 100 217 100z" />
    <glyph glyph-name="ntilde" unicode="&#xf1;" horiz-adv-x="927" 
d="M352 1148c-56 0 -88 -56 -88 -130h-77c0 118 63 206 163 206c124 0 142 -139 226 -139c54 0 88 47 88 129h75c0 -116 -59 -204 -163 -204c-128 0 -142 138 -224 138zM481 829c159 0 300 -137 300 -308v-521h-99v521c0 117 -93 209 -208 209c-117 0 -210 -92 -210 -209
v-521h-100v813h100v-84c54 61 132 100 217 100z" />
    <glyph glyph-name="o" unicode="o" horiz-adv-x="1029" 
d="M514 -16c-234 0 -423 189 -423 422c0 234 189 423 423 423s423 -189 423 -423c0 -233 -189 -422 -423 -422zM514 83c178 0 323 144 323 323c0 180 -145 323 -323 323c-179 0 -323 -143 -323 -323c0 -179 144 -323 323 -323z" />
    <glyph glyph-name="oacute" unicode="&#xf3;" horiz-adv-x="1029" 
d="M476 920l173 299h122l-222 -299h-73zM514 -16c-234 0 -423 189 -423 422c0 234 189 423 423 423s423 -189 423 -423c0 -233 -189 -422 -423 -422zM514 83c178 0 323 144 323 323c0 180 -145 323 -323 323c-179 0 -323 -143 -323 -323c0 -179 144 -323 323 -323z" />
    <glyph glyph-name="ocircumflex" unicode="&#xf4;" horiz-adv-x="1029" 
d="M301 920l159 299h105l159 -299h-84l-126 228l-127 -228h-86zM514 -16c-234 0 -423 189 -423 422c0 234 189 423 423 423s423 -189 423 -423c0 -233 -189 -422 -423 -422zM514 83c178 0 323 144 323 323c0 180 -145 323 -323 323c-179 0 -323 -143 -323 -323
c0 -179 144 -323 323 -323z" />
    <glyph glyph-name="odieresis" unicode="&#xf6;" horiz-adv-x="1029" 
d="M370 1083c-41 0 -77 34 -77 75c0 44 36 77 77 77c42 0 77 -33 77 -77c0 -41 -35 -75 -77 -75zM655 1083c-41 0 -77 34 -77 75c0 44 36 77 77 77c42 0 77 -33 77 -77c0 -41 -35 -75 -77 -75zM514 -16c-234 0 -423 189 -423 422c0 234 189 423 423 423s423 -189 423 -423
c0 -233 -189 -422 -423 -422zM514 83c178 0 323 144 323 323c0 180 -145 323 -323 323c-179 0 -323 -143 -323 -323c0 -179 144 -323 323 -323z" />
    <glyph glyph-name="ograve" unicode="&#xf2;" horiz-adv-x="1029" 
d="M477 920l-222 299h122l173 -299h-73zM514 -16c-234 0 -423 189 -423 422c0 234 189 423 423 423s423 -189 423 -423c0 -233 -189 -422 -423 -422zM514 83c178 0 323 144 323 323c0 180 -145 323 -323 323c-179 0 -323 -143 -323 -323c0 -179 144 -323 323 -323z" />
    <glyph glyph-name="ohungarumlaut" unicode="&#x151;" horiz-adv-x="1029" 
d="M344 920l171 299h122l-220 -299h-73zM609 920l171 299h122l-220 -299h-73zM514 -16c-234 0 -423 189 -423 422c0 234 189 423 423 423s423 -189 423 -423c0 -233 -189 -422 -423 -422zM514 83c178 0 323 144 323 323c0 180 -145 323 -323 323c-179 0 -323 -143 -323 -323
c0 -179 144 -323 323 -323z" />
    <glyph glyph-name="omacron" unicode="&#x14d;" horiz-adv-x="1029" 
d="M299 988v72h428v-72h-428zM514 -16c-234 0 -423 189 -423 422c0 234 189 423 423 423s423 -189 423 -423c0 -233 -189 -422 -423 -422zM514 83c178 0 323 144 323 323c0 180 -145 323 -323 323c-179 0 -323 -143 -323 -323c0 -179 144 -323 323 -323z" />
    <glyph glyph-name="oslash" unicode="&#xf8;" horiz-adv-x="1029" 
d="M791 726c90 -78 146 -192 146 -320c0 -233 -189 -422 -423 -422c-74 0 -144 19 -204 52l-79 -113l-77 46l83 118c-90 78 -146 192 -146 319c0 234 189 423 423 423c74 0 144 -19 204 -52l79 113l75 -48zM191 406c0 -94 39 -178 103 -237l366 525c-44 23 -93 35 -146 35
c-179 0 -323 -143 -323 -323zM514 83c178 0 323 144 323 323c0 94 -40 179 -104 237l-366 -525c44 -22 94 -35 147 -35z" />
    <glyph glyph-name="otilde" unicode="&#xf5;" horiz-adv-x="1029" 
d="M626 1010c-128 0 -142 138 -224 138c-56 0 -88 -56 -88 -130h-77c0 118 63 206 163 206c124 0 142 -139 226 -139c54 0 88 47 88 129h75c0 -116 -59 -204 -163 -204zM514 -16c-234 0 -423 189 -423 422c0 234 189 423 423 423s423 -189 423 -423
c0 -233 -189 -422 -423 -422zM514 83c178 0 323 144 323 323c0 180 -145 323 -323 323c-179 0 -323 -143 -323 -323c0 -179 144 -323 323 -323z" />
    <glyph glyph-name="oe" unicode="&#x153;" horiz-adv-x="1773" 
d="M1685 417l-1 -22h-744c5 -174 148 -312 323 -312c136 0 252 82 300 202h106c-53 -175 -214 -301 -406 -301c-162 0 -303 92 -374 226c-71 -134 -212 -226 -375 -226c-234 0 -423 189 -423 422c0 234 189 423 423 423c163 0 304 -92 375 -227c71 135 212 227 374 227
c231 0 414 -179 422 -412zM514 83c178 0 323 144 323 323c0 180 -145 323 -323 323c-179 0 -323 -143 -323 -323c0 -179 144 -323 323 -323zM1263 729c-151 0 -276 -101 -312 -242h622c-34 139 -159 242 -310 242z" />
    <glyph glyph-name="p" unicode="p" horiz-adv-x="1101" 
d="M587 829c234 0 422 -189 422 -423c0 -233 -188 -422 -422 -422c-129 0 -245 58 -323 150v-622h-100v1301h100v-134c78 92 194 150 323 150zM587 83c178 0 323 144 323 323c0 180 -145 323 -323 323c-179 0 -323 -143 -323 -323c0 -179 144 -323 323 -323z" />
    <glyph glyph-name="thorn" unicode="&#xfe;" horiz-adv-x="1101" 
d="M587 829c234 0 422 -189 422 -423c0 -233 -188 -422 -422 -422c-129 0 -245 58 -323 150v-622h-100v1983h100v-816c78 92 194 150 323 150zM587 83c178 0 323 144 323 323c0 180 -145 323 -323 323c-179 0 -323 -143 -323 -323c0 -179 144 -323 323 -323z" />
    <glyph glyph-name="q" unicode="q" horiz-adv-x="1101" 
d="M1064 -390h74v-81c-23 -10 -55 -17 -84 -17c-118 0 -217 96 -217 215v408c-78 -92 -194 -151 -324 -151c-233 0 -422 189 -422 422c0 234 189 423 422 423c130 0 246 -59 324 -151v135h99v-1074c0 -76 59 -129 128 -129zM513 83c179 0 324 144 324 323
c0 180 -145 323 -324 323c-178 0 -322 -143 -322 -323c0 -179 144 -323 322 -323z" />
    <glyph glyph-name="r" unicode="r" horiz-adv-x="620" 
d="M164 0v813h100v-128c58 87 157 144 274 144c25 0 46 -2 67 -6v-103c-19 6 -42 9 -67 9c-151 0 -274 -116 -274 -274v-455h-100z" />
    <glyph glyph-name="racute" unicode="&#x155;" horiz-adv-x="620" 
d="M299 920l173 299h122l-222 -299h-73zM164 0v813h100v-128c58 87 157 144 274 144c25 0 46 -2 67 -6v-103c-19 6 -42 9 -67 9c-151 0 -274 -116 -274 -274v-455h-100z" />
    <glyph glyph-name="rcaron" unicode="&#x159;" horiz-adv-x="620" 
d="M283 920l-159 299h82l130 -228l129 228h82l-160 -299h-104zM164 0v813h100v-128c58 87 157 144 274 144c25 0 46 -2 67 -6v-103c-19 6 -42 9 -67 9c-151 0 -274 -116 -274 -274v-455h-100z" />
    <glyph glyph-name="uni0157" unicode="&#x157;" horiz-adv-x="620" 
d="M164 0v813h100v-128c58 87 157 144 274 144c25 0 46 -2 67 -6v-103c-19 6 -42 9 -67 9c-151 0 -274 -116 -274 -274v-455h-100zM26 -390l127 293h123l-175 -293h-75z" />
    <glyph glyph-name="s" unicode="s" horiz-adv-x="697" 
d="M359 -16c-126 0 -245 75 -276 171l95 39c17 -65 98 -112 181 -112s153 48 153 130s-66 110 -164 149c-131 54 -228 106 -228 241c0 151 119 227 232 227c98 0 193 -57 225 -123l-87 -47c-26 46 -77 70 -134 70c-71 0 -135 -37 -135 -120c0 -85 65 -114 165 -154
c107 -45 226 -98 226 -244c0 -133 -114 -227 -253 -227z" />
    <glyph glyph-name="sacute" unicode="&#x15b;" horiz-adv-x="697" 
d="M313 920l173 299h122l-222 -299h-73zM359 -16c-126 0 -245 75 -276 171l95 39c17 -65 98 -112 181 -112s153 48 153 130s-66 110 -164 149c-131 54 -228 106 -228 241c0 151 119 227 232 227c98 0 193 -57 225 -123l-87 -47c-26 46 -77 70 -134 70
c-71 0 -135 -37 -135 -120c0 -85 65 -114 165 -154c107 -45 226 -98 226 -244c0 -133 -114 -227 -253 -227z" />
    <glyph glyph-name="scaron" unicode="&#x161;" horiz-adv-x="697" 
d="M297 920l-159 299h82l130 -228l129 228h82l-160 -299h-104zM359 -16c-126 0 -245 75 -276 171l95 39c17 -65 98 -112 181 -112s153 48 153 130s-66 110 -164 149c-131 54 -228 106 -228 241c0 151 119 227 232 227c98 0 193 -57 225 -123l-87 -47c-26 46 -77 70 -134 70
c-71 0 -135 -37 -135 -120c0 -85 65 -114 165 -154c107 -45 226 -98 226 -244c0 -133 -114 -227 -253 -227z" />
    <glyph glyph-name="scedilla" unicode="&#x15f;" horiz-adv-x="697" 
d="M612 211c0 -132 -112 -225 -249 -227l-45 -97c115 24 206 -41 206 -146c0 -91 -71 -164 -162 -164c-71 0 -153 44 -187 99l57 27c26 -35 84 -62 130 -62c55 0 98 44 98 100c0 80 -75 116 -170 83l-52 36l64 129c-104 19 -193 85 -219 166l95 39c17 -65 98 -112 181 -112
s153 48 153 130s-66 110 -164 149c-131 54 -228 106 -228 241c0 151 119 227 232 227c98 0 193 -57 225 -123l-87 -47c-26 46 -77 70 -134 70c-71 0 -135 -37 -135 -120c0 -85 65 -114 165 -154c107 -45 226 -98 226 -244z" />
    <glyph glyph-name="uni0219" unicode="&#x219;" horiz-adv-x="697" 
d="M359 -16c-126 0 -245 75 -276 171l95 39c17 -65 98 -112 181 -112s153 48 153 130s-66 110 -164 149c-131 54 -228 106 -228 241c0 151 119 227 232 227c98 0 193 -57 225 -123l-87 -47c-26 46 -77 70 -134 70c-71 0 -135 -37 -135 -120c0 -85 65 -114 165 -154
c107 -45 226 -98 226 -244c0 -133 -114 -227 -253 -227zM161 -390l127 293h123l-175 -293h-75z" />
    <glyph glyph-name="germandbls" unicode="&#xdf;" horiz-adv-x="1052" 
d="M750 629c127 -48 210 -164 210 -306c0 -186 -143 -323 -314 -323h-241v103h226c120 0 229 88 229 227c0 140 -111 238 -249 238h-102v86h44c134 0 242 108 242 246c0 139 -108 240 -260 240c-155 0 -271 -105 -271 -249v-891h-100v891c0 197 159 339 370 339
c207 0 356 -139 356 -327c0 -115 -55 -214 -140 -274z" />
    <glyph glyph-name="t" unicode="t" horiz-adv-x="565" 
d="M507 715h-223v-504c0 -77 59 -130 129 -130h91v-71c-21 -15 -64 -26 -102 -26c-118 0 -217 96 -217 215v516h-136v98h136v352h99v-352h223v-98z" />
    <glyph glyph-name="tbar" unicode="&#x167;" horiz-adv-x="565" 
d="M521 359h-237v-148c0 -77 59 -130 129 -130h91v-71c-21 -15 -64 -26 -102 -26c-118 0 -217 96 -217 215v160h-129v96h129v260h-136v98h136v352h99v-352h223v-98h-223v-260h237v-96z" />
    <glyph glyph-name="tcaron" unicode="&#x165;" horiz-adv-x="565" 
d="M713 1468h114l-243 -471h-86zM284 1165v-352h223v-98h-223v-504c0 -77 59 -130 129 -130h91v-71c-21 -15 -64 -26 -102 -26c-118 0 -217 96 -217 215v516h-136v98h136v352h99z" />
    <glyph glyph-name="uni0163" unicode="&#x163;" horiz-adv-x="565" 
d="M333 -113c115 24 206 -41 206 -146c0 -91 -71 -164 -162 -164c-71 0 -153 44 -187 99l57 27c26 -35 84 -62 130 -62c55 0 98 44 98 100c0 80 -75 116 -170 83l-52 36l69 139c-80 32 -137 109 -137 200v516h-136v98h136v352h99v-352h223v-98h-223v-504
c0 -77 59 -130 129 -130h91v-71c-21 -15 -64 -26 -102 -26c-8 0 -16 0 -24 1z" />
    <glyph glyph-name="uni021B" unicode="&#x21b;" horiz-adv-x="565" 
d="M507 715h-223v-504c0 -77 59 -130 129 -130h91v-71c-21 -15 -64 -26 -102 -26c-118 0 -217 96 -217 215v516h-136v98h136v352h99v-352h223v-98zM176 -390l127 293h123l-175 -293h-75z" />
    <glyph glyph-name="u" unicode="u" horiz-adv-x="898" 
d="M449 -16c-176 0 -300 102 -300 294v535h100v-525c0 -138 86 -205 200 -205s200 67 200 205v525h99v-535c0 -192 -124 -294 -299 -294z" />
    <glyph glyph-name="uacute" unicode="&#xfa;" horiz-adv-x="898" 
d="M412 920l173 299h122l-222 -299h-73zM449 -16c-176 0 -300 102 -300 294v535h100v-525c0 -138 86 -205 200 -205s200 67 200 205v525h99v-535c0 -192 -124 -294 -299 -294z" />
    <glyph glyph-name="ucircumflex" unicode="&#xfb;" horiz-adv-x="898" 
d="M237 920l159 299h105l159 -299h-84l-126 228l-127 -228h-86zM449 -16c-176 0 -300 102 -300 294v535h100v-525c0 -138 86 -205 200 -205s200 67 200 205v525h99v-535c0 -192 -124 -294 -299 -294z" />
    <glyph glyph-name="udieresis" unicode="&#xfc;" horiz-adv-x="898" 
d="M306 1083c-41 0 -77 34 -77 75c0 44 36 77 77 77c42 0 77 -33 77 -77c0 -41 -35 -75 -77 -75zM591 1083c-41 0 -77 34 -77 75c0 44 36 77 77 77c42 0 77 -33 77 -77c0 -41 -35 -75 -77 -75zM449 -16c-176 0 -300 102 -300 294v535h100v-525c0 -138 86 -205 200 -205
s200 67 200 205v525h99v-535c0 -192 -124 -294 -299 -294z" />
    <glyph glyph-name="ugrave" unicode="&#xf9;" horiz-adv-x="898" 
d="M412 920l-222 299h122l173 -299h-73zM449 -16c-176 0 -300 102 -300 294v535h100v-525c0 -138 86 -205 200 -205s200 67 200 205v525h99v-535c0 -192 -124 -294 -299 -294z" />
    <glyph glyph-name="uhungarumlaut" unicode="&#x171;" horiz-adv-x="898" 
d="M280 920l171 299h122l-220 -299h-73zM545 920l171 299h122l-220 -299h-73zM449 -16c-176 0 -300 102 -300 294v535h100v-525c0 -138 86 -205 200 -205s200 67 200 205v525h99v-535c0 -192 -124 -294 -299 -294z" />
    <glyph glyph-name="umacron" unicode="&#x16b;" horiz-adv-x="898" 
d="M234 988v72h428v-72h-428zM449 -16c-176 0 -300 102 -300 294v535h100v-525c0 -138 86 -205 200 -205s200 67 200 205v525h99v-535c0 -192 -124 -294 -299 -294z" />
    <glyph glyph-name="uogonek" unicode="&#x173;" horiz-adv-x="898" 
d="M649 813h99v-535c0 -151 -76 -246 -194 -280c-95 -63 -187 -135 -187 -246c0 -66 39 -114 113 -114c62 0 112 25 152 71l35 -52c-57 -56 -121 -81 -201 -79c-105 4 -171 65 -171 167c0 100 67 171 157 239h-3c-176 0 -300 102 -300 294v535h100v-525
c0 -138 86 -205 200 -205s200 67 200 205v525z" />
    <glyph glyph-name="uring" unicode="&#x16f;" horiz-adv-x="898" 
d="M450 894c-89 0 -161 72 -161 159c0 89 72 160 161 160c86 0 158 -71 158 -160c0 -87 -72 -159 -158 -159zM450 952c54 0 99 44 99 101c0 56 -45 104 -99 104c-57 0 -102 -48 -102 -104c0 -57 45 -101 102 -101zM449 -16c-176 0 -300 102 -300 294v535h100v-525
c0 -138 86 -205 200 -205s200 67 200 205v525h99v-535c0 -192 -124 -294 -299 -294z" />
    <glyph glyph-name="v" unicode="v" horiz-adv-x="806" 
d="M671 813h107l-327 -813h-97l-326 813h108l268 -693z" />
    <glyph glyph-name="w" unicode="w" horiz-adv-x="1317" 
d="M1171 813h107l-278 -813h-111l-229 675l-230 -675h-112l-280 813h112l228 -693l233 693h96l235 -695z" />
    <glyph glyph-name="wacute" unicode="&#x1e83;" horiz-adv-x="1317" 
d="M917 1219l-222 -299h-73l173 299h122zM1171 813h107l-278 -813h-111l-229 675l-230 -675h-112l-280 813h112l228 -693l233 693h96l235 -695z" />
    <glyph glyph-name="wcircumflex" unicode="&#x175;" horiz-adv-x="1317" 
d="M660 1148l-127 -228h-86l159 299h105l159 -299h-84zM1171 813h107l-278 -813h-111l-229 675l-230 -675h-112l-280 813h112l228 -693l233 693h96l235 -695z" />
    <glyph glyph-name="wdieresis" unicode="&#x1e85;" horiz-adv-x="1317" 
d="M516 1083c-41 0 -77 34 -77 75c0 44 36 77 77 77c42 0 77 -33 77 -77c0 -41 -35 -75 -77 -75zM801 1083c-41 0 -77 34 -77 75c0 44 36 77 77 77c42 0 77 -33 77 -77c0 -41 -35 -75 -77 -75zM1171 813h107l-278 -813h-111l-229 675l-230 -675h-112l-280 813h112l228 -693
l233 693h96l235 -695z" />
    <glyph glyph-name="wgrave" unicode="&#x1e81;" horiz-adv-x="1317" 
d="M696 920h-73l-222 299h122zM1171 813h107l-278 -813h-111l-229 675l-230 -675h-112l-280 813h112l228 -693l233 693h96l235 -695z" />
    <glyph glyph-name="x" unicode="x" horiz-adv-x="848" 
d="M822 813l-337 -407l337 -406h-121l-277 333l-276 -333h-122l338 407l-338 406h121l277 -334l277 334h121z" />
    <glyph glyph-name="y" unicode="y" horiz-adv-x="821" 
d="M680 813h112l-343 -859l-178 -442h-107l195 483l-331 818h110l275 -698z" />
    <glyph glyph-name="yacute" unicode="&#xfd;" horiz-adv-x="821" 
d="M668 1219l-222 -299h-73l173 299h122zM680 813h112l-343 -859l-178 -442h-107l195 483l-331 818h110l275 -698z" />
    <glyph glyph-name="ycircumflex" unicode="&#x177;" horiz-adv-x="821" 
d="M411 1148l-127 -228h-86l159 299h105l159 -299h-84zM680 813h112l-343 -859l-178 -442h-107l195 483l-331 818h110l275 -698z" />
    <glyph glyph-name="ydieresis" unicode="&#xff;" horiz-adv-x="821" 
d="M267 1083c-41 0 -77 34 -77 75c0 44 36 77 77 77c42 0 77 -33 77 -77c0 -41 -35 -75 -77 -75zM552 1083c-41 0 -77 34 -77 75c0 44 36 77 77 77c42 0 77 -33 77 -77c0 -41 -35 -75 -77 -75zM680 813h112l-343 -859l-178 -442h-107l195 483l-331 818h110l275 -698z" />
    <glyph glyph-name="ygrave" unicode="&#x1ef3;" horiz-adv-x="821" 
d="M447 920h-73l-222 299h122zM680 813h112l-343 -859l-178 -442h-107l195 483l-331 818h110l275 -698z" />
    <glyph glyph-name="z" unicode="z" horiz-adv-x="789" 
d="M228 100h511v-100h-699l504 713h-475v100h665z" />
    <glyph glyph-name="zacute" unicode="&#x17a;" horiz-adv-x="789" 
d="M652 1219l-222 -299h-73l173 299h122zM228 100h511v-100h-699l504 713h-475v100h665z" />
    <glyph glyph-name="zcaron" unicode="&#x17e;" horiz-adv-x="789" 
d="M445 920h-104l-159 299h82l130 -228l129 228h82zM228 100h511v-100h-699l504 713h-475v100h665z" />
    <glyph glyph-name="zdotaccent" unicode="&#x17c;" horiz-adv-x="789" 
d="M394 1083c-41 0 -77 34 -77 75c0 44 36 77 77 77c42 0 77 -33 77 -77c0 -41 -35 -75 -77 -75zM228 100h511v-100h-699l504 713h-475v100h665z" />
    <glyph glyph-name="ordfeminine" unicode="&#xaa;" horiz-adv-x="880" 
d="M616 1219h59v-488h-59v116c-41 -76 -118 -126 -211 -126c-136 0 -249 113 -249 254c0 139 113 253 249 253c93 0 170 -51 211 -126v117zM415 774c112 0 201 89 201 201c0 109 -89 198 -201 198c-111 0 -199 -89 -199 -198c0 -112 88 -201 199 -201z" />
    <glyph glyph-name="ordmasculine" unicode="&#xba;" horiz-adv-x="748" 
d="M373 721c-142 0 -259 113 -259 254c0 139 117 253 259 253c144 0 260 -114 260 -253c0 -141 -116 -254 -260 -254zM373 774c111 0 201 89 201 201c0 109 -90 198 -201 198s-199 -89 -199 -198c0 -112 88 -201 199 -201z" />
    <glyph glyph-name="uni0394" unicode="&#x394;" horiz-adv-x="1192" 
d="M653 1219l489 -1219h-1092l489 1219h114zM199 92h794l-397 1008z" />
    <glyph glyph-name="uni03A9" unicode="&#x3a9;" horiz-adv-x="1486" 
d="M118 0v76h295v13c-140 104 -267 296 -267 543c0 332 255 588 602 588c357 0 592 -279 592 -585c0 -250 -137 -455 -269 -546v-13h297v-76h-459v55c165 83 331 284 331 568c-1 242 -173 520 -491 520c-304 0 -502 -241 -502 -524c0 -272 168 -482 329 -564v-55h-458z" />
    <glyph glyph-name="uni03BC" unicode="&#x3bc;" horiz-adv-x="1012" 
d="M748 813h100v-813h-100v132c-57 -89 -155 -148 -267 -148c-95 0 -180 41 -238 108v-498h-79v1219h100v-500c0 -132 107 -240 241 -240s243 108 243 240v500z" />
    <glyph glyph-name="pi" unicode="&#x3c0;" horiz-adv-x="1042" 
d="M102 0c73 176 138 537 150 803c-136 0 -199 -9 -244 -26l-12 58c49 26 124 44 262 44h784l-8 -76h-174v-543c0 -136 9 -205 29 -260h-97c-20 35 -28 119 -28 244v559l-415 2c-12 -230 -78 -648 -153 -805h-94z" />
    <glyph glyph-name="zero" unicode="0" horiz-adv-x="1056" 
d="M528 -16c-278 0 -434 272 -434 626c0 353 156 625 434 625s434 -272 434 -625c0 -354 -156 -626 -434 -626zM530 87c215 0 329 222 329 523c0 300 -114 522 -329 522c-218 0 -332 -222 -332 -522c0 -301 114 -523 332 -523z" />
    <glyph glyph-name="one" unicode="1" horiz-adv-x="1056" 
d="M509 0v1116h-203v103h306v-1219h-103z" />
    <glyph glyph-name="two" unicode="2" horiz-adv-x="1056" 
d="M309 103h634v-103h-869l516 550c151 160 199 232 199 333c0 163 -113 249 -249 251c-145 1 -256 -96 -259 -252l-110 1c1 213 165 356 374 353c191 -1 345 -123 354 -332c6 -139 -47 -221 -233 -421z" />
    <glyph glyph-name="three" unicode="3" horiz-adv-x="1056" 
d="M520 712c209 0 377 -156 377 -361c0 -203 -165 -367 -373 -367c-205 0 -371 158 -371 354l108 1c0 -141 119 -254 263 -254c149 0 267 121 267 270c0 148 -118 254 -266 254h-269l401 509h-466v101h670l-403 -507h62z" />
    <glyph glyph-name="four" unicode="4" horiz-adv-x="1056" 
d="M931 360v-103h-134v-257h-103v257h-592l568 962h127v-859h134zM264 360h430v737z" />
    <glyph glyph-name="five" unicode="5" horiz-adv-x="1056" 
d="M536 803c225 0 394 -177 394 -409c0 -233 -171 -410 -429 -410c-145 0 -296 58 -379 160l12 122h11c94 -134 234 -179 354 -179c203 0 328 135 328 305c0 179 -138 308 -310 308c-94 0 -180 -37 -242 -101l-93 55l72 562h607v-103h-515l-53 -390c65 51 152 80 243 80z
" />
    <glyph glyph-name="six" unicode="6" horiz-adv-x="1056" 
d="M947 421c12 -229 -168 -420 -397 -433c-233 -14 -429 162 -442 388c-6 117 37 217 107 299l438 544h134l-344 -426c24 8 52 13 86 14c196 6 405 -149 418 -386zM549 88c185 12 309 158 297 331c-12 182 -159 311 -340 299c-180 -12 -309 -160 -296 -341
c12 -177 156 -300 339 -289z" />
    <glyph glyph-name="seven" unicode="7" horiz-adv-x="1056" 
d="M131 1219h805v-62l-656 -1157h-122l637 1116h-664v103z" />
    <glyph glyph-name="eight" unicode="8" horiz-adv-x="1056" 
d="M527 -16c-211 0 -378 161 -378 364c0 150 92 276 225 330c-94 49 -156 144 -156 259c0 167 135 298 311 298c174 0 309 -131 309 -298c0 -115 -62 -210 -156 -259c134 -54 225 -180 225 -330c0 -203 -166 -364 -380 -364zM529 709c118 0 213 95 213 214s-95 214 -213 214
c-120 0 -215 -95 -215 -214s95 -214 215 -214zM527 76c154 0 276 126 276 278c0 154 -122 275 -276 275c-152 0 -274 -121 -274 -275c0 -152 122 -278 274 -278z" />
    <glyph glyph-name="nine" unicode="9" horiz-adv-x="1056" 
d="M947 843c7 -113 -37 -216 -106 -299l-439 -544h-134l346 426c-25 -8 -54 -13 -88 -14c-195 -6 -404 150 -417 385c-13 231 167 421 395 434c235 14 430 -162 443 -388zM550 501c181 12 307 160 295 341c-12 176 -159 301 -338 289c-182 -13 -310 -154 -298 -332
c12 -182 158 -310 341 -298z" />
    <glyph glyph-name="uni00B9" unicode="&#xb9;" horiz-adv-x="363" 
d="M153 522v622h-114v75h192v-697h-78z" />
    <glyph glyph-name="uni00B2" unicode="&#xb2;" horiz-adv-x="575" 
d="M174 597h336v-75h-499l289 322c85 94 108 130 108 180c0 85 -60 130 -130 130c-74 0 -136 -55 -131 -140h-79c-6 130 93 214 214 214c116 0 206 -75 206 -198c0 -84 -38 -131 -131 -233z" />
    <glyph glyph-name="uni00B3" unicode="&#xb3;" horiz-adv-x="565" 
d="M284 931c122 1 220 -85 220 -204c0 -118 -97 -215 -218 -215c-117 0 -215 92 -215 203h80c0 -70 62 -128 135 -128c78 0 140 65 140 142c0 76 -61 132 -142 132h-162l221 284h-272v74h417l-227 -288h23z" />
    <glyph glyph-name="fraction" unicode="&#x2044;" horiz-adv-x="431" 
d="M-250 0l851 1219h80l-850 -1219h-81z" />
    <glyph glyph-name="onehalf" unicode="&#xbd;" horiz-adv-x="1593" 
d="M279 406h-68v745h-136v68h204v-813zM1102 1219h80l-850 -1219h-81zM1077 69h422v-69h-580l344 367c110 118 133 160 133 222c0 107 -73 166 -166 167c-97 1 -171 -64 -173 -168l-73 1c0 142 109 237 249 236c128 -2 230 -84 236 -222c4 -91 -31 -146 -154 -281z" />
    <glyph glyph-name="onequarter" unicode="&#xbc;" horiz-adv-x="1554" 
d="M75 1151v68h204v-813h-69v745h-135zM1157 1216h80l-850 -1219h-81zM1449 240v-69h-89v-171h-69v171h-395l379 642h85v-573h89zM1003 240h288v492z" />
    <glyph glyph-name="threequarters" unicode="&#xbe;" horiz-adv-x="1713" 
d="M590 645c0 -135 -110 -245 -248 -245c-137 0 -247 105 -247 236l71 1c0 -94 80 -169 176 -169c100 0 178 81 178 180c0 98 -78 170 -178 170h-179l267 338h-311v68h448l-270 -338h42c139 0 251 -104 251 -241zM1295 1216h80l-850 -1219h-80zM1608 240v-69h-89v-171h-69
v171h-395l380 642h84v-573h89zM1163 240h287v491z" />
    <glyph glyph-name="period" unicode="." horiz-adv-x="612" 
d="M306 -16c-51 0 -94 42 -94 94c0 51 43 94 94 94s94 -43 94 -94c0 -52 -43 -94 -94 -94z" />
    <glyph glyph-name="comma" unicode="," horiz-adv-x="568" 
d="M124 -265l215 472h114l-242 -472h-87z" />
    <glyph glyph-name="colon" unicode=":" horiz-adv-x="549" 
d="M274 675c-41 0 -77 35 -77 77c0 41 36 77 77 77s77 -36 77 -77c0 -42 -36 -77 -77 -77zM274 -16c-41 0 -77 34 -77 77c0 41 36 77 77 77s77 -36 77 -77c0 -43 -36 -77 -77 -77z" />
    <glyph glyph-name="semicolon" unicode=";" horiz-adv-x="577" 
d="M337 675c-42 0 -77 35 -77 77c0 41 35 77 77 77s77 -36 77 -77c0 -42 -35 -77 -77 -77zM74 -265l214 472h114l-242 -472h-86z" />
    <glyph glyph-name="ellipsis" unicode="&#x2026;" horiz-adv-x="1481" 
d="M306 -16c-51 0 -94 42 -94 94c0 51 43 94 94 94s94 -43 94 -94c0 -52 -43 -94 -94 -94zM738 -16c-51 0 -95 42 -95 94c0 51 44 94 95 94c50 0 94 -43 94 -94c0 -52 -44 -94 -94 -94zM1174 -16c-50 0 -94 42 -94 94c0 51 44 94 94 94c51 0 95 -43 95 -94
c0 -52 -44 -94 -95 -94z" />
    <glyph glyph-name="exclam" unicode="!" horiz-adv-x="543" 
d="M226 332l-9 887h100l-10 -887h-81zM267 -16c-41 0 -77 36 -77 77c0 42 36 77 77 77s77 -35 77 -77c0 -41 -36 -77 -77 -77z" />
    <glyph glyph-name="exclamdown" unicode="&#xa1;" horiz-adv-x="551" 
d="M275 675c-40 0 -77 35 -77 77c0 41 37 77 77 77c42 0 77 -36 77 -77c0 -42 -35 -77 -77 -77zM226 -406l9 887h82l8 -887h-99z" />
    <glyph glyph-name="question" unicode="?" horiz-adv-x="870" 
d="M383 334v123c0 292 294 183 294 455c0 138 -103 235 -248 235c-143 0 -247 -104 -247 -245c0 -13 0 -25 2 -38l-90 -1c-2 15 -3 31 -3 45c0 188 144 327 338 327c197 0 337 -135 337 -323c0 -308 -291 -242 -291 -440v-138h-92zM435 -16c-41 0 -77 34 -77 77
c0 41 36 77 77 77c42 0 77 -36 77 -77c0 -43 -35 -77 -77 -77z" />
    <glyph glyph-name="questiondown" unicode="&#xbf;" horiz-adv-x="870" 
d="M435 675c-42 0 -77 36 -77 77c0 43 35 77 77 77s77 -34 77 -77c0 -41 -35 -77 -77 -77zM441 -422c-197 0 -337 135 -337 323c0 308 291 242 291 440v138h93v-123c0 -292 -295 -183 -295 -455c0 -138 103 -235 248 -235c143 0 248 104 248 245c0 13 0 25 -2 38l89 1
c2 -15 3 -31 3 -45c0 -188 -144 -327 -338 -327z" />
    <glyph glyph-name="periodcentered" unicode="&#xb7;" horiz-adv-x="602" 
d="M301 498c-47 0 -87 37 -87 87c0 47 40 87 87 87c46 0 88 -40 88 -87c0 -50 -42 -87 -88 -87z" />
    <glyph glyph-name="bullet" unicode="&#x2022;" horiz-adv-x="875" 
d="M438 277c-140 0 -259 113 -259 256c0 141 119 259 259 259c137 0 257 -118 257 -259c0 -143 -120 -256 -257 -256z" />
    <glyph glyph-name="asterisk" unicode="*" horiz-adv-x="732" 
d="M302 887l-56 33l84 120l-147 -10v63l147 -11l-84 121l56 32l63 -129l65 129l56 -32l-85 -121l148 11v-63l-148 10l85 -120l-56 -33l-65 130z" />
    <glyph glyph-name="numbersign" unicode="#" horiz-adv-x="1272" 
d="M297 0l45 311h-247l11 82h246l65 433h-248l13 80h243l46 313h79l-43 -313h343l44 313h80l-43 -313h246l-12 -80h-246l-61 -433h245l-10 -82h-245l-48 -311h-79l44 311h-344l-43 -311h-81zM434 393h343l62 433h-344z" />
    <glyph glyph-name="slash" unicode="/" horiz-adv-x="1117" 
d="M-12 -488l1043 1983h99l-1043 -1983h-99z" />
    <glyph glyph-name="backslash" unicode="\" horiz-adv-x="1116" 
d="M1030 -485l-1042 1980h99l1041 -1980h-98z" />
    <glyph glyph-name="parenleft" unicode="(" horiz-adv-x="577" 
d="M541 -440c-231 22 -413 298 -413 965s182 947 413 970v-73c-181 -29 -323 -282 -323 -897c0 -611 142 -863 323 -892v-73z" />
    <glyph glyph-name="parenright" unicode=")" horiz-adv-x="577" 
d="M36 -440v73c182 29 323 281 323 892c0 615 -141 868 -323 897v73c232 -23 413 -303 413 -970s-181 -943 -413 -965z" />
    <glyph glyph-name="braceleft" unicode="{" horiz-adv-x="497" 
d="M357 -423c-88 0 -153 89 -153 204v441c0 147 -12 221 -122 277v76c113 58 122 138 122 277v438c0 116 65 205 153 205h63v-78c-100 0 -134 -38 -134 -143v-446c0 -116 -12 -218 -119 -291c107 -72 119 -175 119 -291v-452c0 -93 34 -139 134 -139v-78h-63z" />
    <glyph glyph-name="braceright" unicode="}" horiz-adv-x="497" 
d="M77 -423v78c100 0 133 46 133 139v452c0 116 13 219 119 291c-106 73 -119 175 -119 291v446c0 105 -33 143 -133 143v78h63c87 0 152 -89 152 -205v-438c0 -139 10 -219 122 -277v-76c-109 -56 -122 -130 -122 -277v-441c0 -115 -65 -204 -152 -204h-63z" />
    <glyph glyph-name="bracketleft" unicode="[" horiz-adv-x="534" 
d="M198 -406v1901h298v-79h-210v-1743h210v-79h-298z" />
    <glyph glyph-name="bracketright" unicode="]" horiz-adv-x="533" 
d="M38 -406v79h209v1743h-209v79h297v-1901h-297z" />
    <glyph glyph-name="hyphen" unicode="-" horiz-adv-x="897" 
d="M164 374v98h569v-98h-569z" />
    <glyph glyph-name="uni00AD" unicode="&#xad;" horiz-adv-x="897" 
d="M164 374v98h569v-98h-569z" />
    <glyph glyph-name="endash" unicode="&#x2013;" horiz-adv-x="1141" 
d="M164 374v98h813v-98h-813z" />
    <glyph glyph-name="emdash" unicode="&#x2014;" horiz-adv-x="1954" 
d="M164 374v98h1625v-98h-1625z" />
    <glyph glyph-name="underscore" unicode="_" horiz-adv-x="1304" 
d="M164 -98v98h975v-98h-975z" />
    <glyph glyph-name="quotesinglbase" unicode="&#x201a;" horiz-adv-x="503" 
d="M92 -265l215 472h114l-243 -472h-86z" />
    <glyph glyph-name="quotedblbase" unicode="&#x201e;" horiz-adv-x="766" 
d="M92 -265l215 472h114l-243 -472h-86zM354 -265l216 472h113l-242 -472h-87z" />
    <glyph glyph-name="quotedblleft" unicode="&#x201c;" horiz-adv-x="766" 
d="M82 748l242 471h87l-215 -471h-114zM345 748l242 471h87l-216 -471h-113z" />
    <glyph glyph-name="quotedblright" unicode="&#x201d;" horiz-adv-x="764" 
d="M91 748l215 471h114l-242 -471h-87zM353 748l216 471h113l-242 -471h-87z" />
    <glyph glyph-name="quoteleft" unicode="&#x2018;" horiz-adv-x="503" 
d="M82 748l242 471h87l-215 -471h-114z" />
    <glyph glyph-name="quoteright" unicode="&#x2019;" horiz-adv-x="502" 
d="M91 748l215 471h114l-242 -471h-87z" />
    <glyph glyph-name="guillemotleft" unicode="&#xab;" horiz-adv-x="774" 
d="M328 154l-247 299l247 300h89l-247 -300l247 -299h-89zM603 154l-247 299l247 300h92l-247 -300l247 -299h-92z" />
    <glyph glyph-name="guillemotright" unicode="&#xbb;" horiz-adv-x="775" 
d="M80 154l247 299l-247 300h90l247 -300l-247 -299h-90zM355 154l247 299l-247 300h92l247 -300l-247 -299h-92z" />
    <glyph glyph-name="guilsinglleft" unicode="&#x2039;" horiz-adv-x="497" 
d="M328 154l-247 299l247 300h89l-247 -300l247 -299h-89z" />
    <glyph glyph-name="guilsinglright" unicode="&#x203a;" horiz-adv-x="497" 
d="M80 154l247 299l-247 300h90l247 -300l-247 -299h-90z" />
    <glyph glyph-name="quotedbl" unicode="&#x22;" horiz-adv-x="732" 
d="M202 694l-9 541h95l-9 -541h-77zM452 694l-10 541h97l-10 -541h-77z" />
    <glyph glyph-name="quotesingle" unicode="'" horiz-adv-x="481" 
d="M202 759l-9 476h95l-9 -476h-77z" />
    <glyph glyph-name="cent" unicode="&#xa2;" horiz-adv-x="991" 
d="M586 902c-185 0 -333 -148 -333 -333s148 -333 333 -333c89 0 175 31 235 87v-103c-62 -44 -137 -70 -218 -74v-147h-68v150c-215 25 -382 203 -382 420c0 216 167 394 382 419v152h68v-149c81 -3 155 -29 218 -73v-104c-62 56 -146 88 -235 88z" />
    <glyph glyph-name="currency" unicode="&#xa4;" horiz-adv-x="1164" 
d="M287 238l-56 60l82 80c-99 122 -99 302 0 423l-80 79l56 60l82 -83c122 101 300 102 423 1l80 81l58 -56l-81 -81c100 -122 100 -302 0 -424l81 -80l-57 -60l-81 84c-123 -101 -303 -101 -425 0zM393 404c106 -104 272 -105 376 0c102 102 102 270 -2 372
c-103 102 -268 102 -373 -1c-100 -102 -102 -270 -1 -371z" />
    <glyph glyph-name="dollar" unicode="$" horiz-adv-x="1032" 
d="M893 312c0 -190 -138 -302 -309 -324v-132h-99v129c-164 13 -297 108 -353 241l94 53c42 -112 151 -192 297 -192s267 79 267 222c0 319 -605 223 -605 615c0 187 136 297 300 310v133h99v-137c114 -18 206 -81 257 -156l-76 -65c-55 73 -137 123 -244 123
c-121 0 -233 -65 -233 -201c0 -311 605 -212 605 -619z" />
    <glyph glyph-name="Euro" unicode="&#x20ac;" horiz-adv-x="1407" 
d="M886 87c135 0 268 54 364 148v-131c-106 -75 -237 -120 -364 -120c-282 0 -519 184 -598 439h-140v93h119c-5 31 -7 62 -7 94c0 28 2 56 5 83h-117v94h137c76 260 316 448 601 448c123 0 251 -41 353 -114l-32 -101c-91 72 -205 112 -321 112c-229 0 -421 -143 -493 -345
h737l-29 -94h-732c-4 -27 -6 -55 -6 -83c0 -32 3 -64 8 -94h673l-30 -93h-617c74 -198 264 -336 489 -336z" />
    <glyph glyph-name="florin" unicode="&#x192;" horiz-adv-x="838" 
d="M639 1158c-82 0 -150 -63 -165 -147l-31 -198h231l-12 -80h-232l-181 -1139h-90l179 1139h-136l12 80h137l33 210c19 119 130 212 248 212c37 0 79 -12 99 -27l-10 -79c-20 18 -55 29 -82 29z" />
    <glyph glyph-name="sterling" unicode="&#xa3;" horiz-adv-x="1095" 
d="M353 76h618v-76h-698v563h-130v73h130v241c0 209 143 358 349 358c141 0 277 -97 323 -232l-77 -33c-31 107 -136 184 -246 184c-162 0 -269 -112 -269 -277v-241h302v-73h-302v-487z" />
    <glyph glyph-name="yen" unicode="&#xa5;" horiz-adv-x="1187" 
d="M637 584v-27h348v-66h-348v-176h348v-68h-348v-247h-89v247h-343v68h343v176h-344v66h344v27l-422 635h99l367 -560l367 560h98z" />
    <glyph glyph-name="plus" unicode="+" horiz-adv-x="1221" 
d="M565 0v457h-458v94h458v457h92v-457h458v-94h-458v-457h-92z" />
    <glyph glyph-name="minus" unicode="&#x2212;" horiz-adv-x="1349" 
d="M247 417v97h855v-97h-855z" />
    <glyph glyph-name="multiply" unicode="&#xd7;" horiz-adv-x="1031" 
d="M904 827l-323 -323l323 -323l-64 -66l-324 324l-325 -324l-64 66l323 323l-323 323l64 66l325 -324l324 324z" />
    <glyph glyph-name="divide" unicode="&#xf7;" horiz-adv-x="1222" 
d="M610 652c-38 0 -71 31 -71 71c0 39 33 72 71 72c40 0 73 -33 73 -72c0 -40 -33 -71 -73 -71zM123 417v60h975v-60h-975zM610 99c-38 0 -71 31 -71 72c0 39 33 71 71 71c40 0 73 -32 73 -71c0 -41 -33 -72 -73 -72z" />
    <glyph glyph-name="equal" unicode="=" horiz-adv-x="1468" 
d="M247 547v71h975v-71h-975zM247 243v72h975v-72h-975z" />
    <glyph glyph-name="notequal" unicode="&#x2260;" horiz-adv-x="1323" 
d="M1150 547h-335l-199 -232h534v-72h-595l-204 -238h-73l204 238h-307v72h369l199 232h-568v71h628l171 199h72l-170 -199h274v-71z" />
    <glyph glyph-name="greater" unicode="&#x3e;" horiz-adv-x="1128" 
d="M123 1039l897 -450v-93l-897 -454v89l814 411l-814 409v88z" />
    <glyph glyph-name="less" unicode="&#x3c;" horiz-adv-x="1128" 
d="M1004 1039v-88l-814 -409l814 -411v-89l-897 454v93z" />
    <glyph glyph-name="greaterequal" unicode="&#x2265;" horiz-adv-x="1169" 
d="M141 1094l897 -430v-94l-897 -434v90l812 391l-812 389v88zM141 0v66h897v-66h-897z" />
    <glyph glyph-name="lessequal" unicode="&#x2264;" horiz-adv-x="1169" 
d="M1028 1094v-88l-811 -389l811 -391v-90l-897 434v94zM131 0v66h897v-66h-897z" />
    <glyph glyph-name="plusminus" unicode="&#xb1;" horiz-adv-x="1411" 
d="M662 311v293h-517v87h517v293h87v-293h516v-87h-516v-293h-87zM145 0v80h1120v-80h-1120z" />
    <glyph glyph-name="approxequal" unicode="&#x2248;" horiz-adv-x="1207" 
d="M779 521c-102 0 -160 66 -208 120c-41 48 -79 84 -137 84c-89 0 -149 -80 -148 -185h-75c-3 155 92 259 224 259c89 0 141 -49 199 -119c38 -46 76 -87 139 -87c86 0 150 76 147 184h75c3 -147 -87 -256 -216 -256zM779 207c-102 0 -159 66 -208 120
c-42 48 -79 85 -137 85c-89 0 -149 -82 -148 -185h-75c-3 155 92 260 224 260c89 0 142 -50 199 -120c38 -47 76 -87 139 -87c86 0 150 75 147 184h75c3 -148 -87 -257 -216 -257z" />
    <glyph glyph-name="asciitilde" unicode="~" horiz-adv-x="1205" 
d="M779 293c-103 0 -163 68 -208 121c-43 50 -80 84 -138 84c-89 0 -149 -81 -147 -185h-75c-6 154 90 260 222 260c88 0 144 -50 200 -119c39 -49 77 -87 139 -87c86 0 151 74 148 184h75c6 -147 -89 -258 -216 -258z" />
    <glyph glyph-name="logicalnot" unicode="&#xac;" horiz-adv-x="1325" 
d="M1002 198v416h-883v79h959v-495h-76z" />
    <glyph glyph-name="asciicircum" unicode="^" horiz-adv-x="1184" 
d="M1091 322h-90l-409 813l-410 -813h-88l452 897h93z" />
    <glyph glyph-name="emptyset" unicode="&#x2205;" horiz-adv-x="1322" 
d="M1022 798c78 -86 125 -200 125 -325c0 -268 -218 -486 -486 -486c-125 0 -239 47 -325 125l-70 -70l-36 36l70 70c-78 86 -125 200 -125 325c0 268 218 486 486 486c125 0 239 -47 325 -125l70 70l36 -36zM259 473c0 -103 37 -196 100 -266l569 569
c-71 62 -164 99 -267 99c-224 0 -402 -178 -402 -402zM661 71c224 0 403 178 403 402c0 103 -38 196 -100 267l-569 -569c70 -63 163 -100 266 -100z" />
    <glyph glyph-name="infinity" unicode="&#x221e;" horiz-adv-x="1433" 
d="M418 247c-118 0 -209 98 -214 226c5 128 96 226 214 226c92 0 198 -62 298 -172c97 110 205 172 297 172c121 0 210 -94 215 -226c-5 -132 -94 -226 -215 -226c-92 0 -200 62 -297 172c-100 -110 -206 -172 -298 -172zM418 318c73 0 162 56 251 155
c-89 99 -178 155 -251 155c-76 0 -140 -69 -143 -155c3 -86 67 -155 143 -155zM1013 318c78 0 139 68 143 155c-4 87 -65 155 -143 155c-74 0 -163 -56 -250 -155c87 -99 176 -155 250 -155z" />
    <glyph glyph-name="integral" unicode="&#x222b;" horiz-adv-x="804" 
d="M191 -307c-78 0 -129 61 -102 154h71c-8 -56 9 -79 44 -79c28 0 56 21 61 58l199 1245c12 82 81 133 151 133c75 0 128 -61 100 -154h-71c8 56 -9 80 -43 80c-28 0 -57 -21 -63 -59l-198 -1245c-13 -82 -80 -133 -149 -133z" />
    <glyph glyph-name="product" unicode="&#x220f;" horiz-adv-x="1306" 
d="M259 -195v1262h-116v76h1021v-76h-116v-1262h-76v1262h-637v-1262h-76z" />
    <glyph glyph-name="summation" unicode="&#x2211;" horiz-adv-x="1119" 
d="M95 -193v53l615 615l-615 614v54h922v-80h-781l582 -588l-582 -588h781v-80h-922z" />
    <glyph glyph-name="radical" unicode="&#x221a;" horiz-adv-x="1158" 
d="M385 -127l-190 586h-105v71h156l173 -527l590 1232l65 -28l-638 -1334h-51z" />
    <glyph glyph-name="uni00B5" unicode="&#xb5;" horiz-adv-x="1127" 
d="M831 813h99v-813h-99v132c-58 -89 -156 -148 -268 -148c-95 0 -180 42 -238 109v-499h-78v1219h99v-500c0 -132 108 -240 241 -240c134 0 244 108 244 240v500z" />
    <glyph glyph-name="partialdiff" unicode="&#x2202;" horiz-adv-x="975" 
d="M328 1143c270 30 478 -242 475 -610c-1 -292 -163 -519 -372 -519c-245 0 -357 207 -258 472c94 251 316 346 519 243c-51 225 -193 368 -364 338v76zM712 533c0 37 -1 73 -5 107c-180 120 -366 47 -451 -179c-77 -208 1 -375 175 -375c154 0 279 198 281 447z" />
    <glyph glyph-name="percent" unicode="%" horiz-adv-x="1241" 
d="M347 749c-117 0 -211 109 -211 242c0 134 94 244 211 244c115 0 208 -110 208 -244c0 -133 -93 -242 -208 -242zM147 0l841 1219h106l-841 -1219h-106zM347 829c68 0 129 72 129 162c0 92 -61 164 -129 164c-71 0 -129 -72 -129 -164c0 -90 58 -162 129 -162zM896 -16
c-117 0 -210 110 -210 244c0 133 93 242 210 242c116 0 208 -109 208 -242c0 -134 -92 -244 -208 -244zM896 64c69 0 127 72 127 164c0 90 -58 162 -127 162c-71 0 -129 -72 -129 -162c0 -92 58 -164 129 -164z" />
    <glyph glyph-name="perthousand" unicode="&#x2030;" horiz-adv-x="1716" 
d="M347 749c-117 0 -211 109 -211 242c0 134 94 244 211 244c115 0 208 -110 208 -244c0 -133 -93 -242 -208 -242zM147 0l841 1219h106l-841 -1219h-106zM347 829c68 0 129 72 129 162c0 92 -61 164 -129 164c-71 0 -129 -72 -129 -164c0 -90 58 -162 129 -162zM896 -16
c-117 0 -210 110 -210 244c0 133 93 242 210 242c116 0 208 -109 208 -242c0 -134 -92 -244 -208 -244zM1396 -16c-117 0 -211 110 -211 244c0 133 94 242 211 242c115 0 207 -109 207 -242c0 -134 -92 -244 -207 -244zM896 64c69 0 127 72 127 164c0 90 -58 162 -127 162
c-71 0 -129 -72 -129 -162c0 -92 58 -164 129 -164zM1394 64c71 0 128 72 128 164c0 90 -57 162 -128 162c-70 0 -129 -72 -129 -162c0 -92 59 -164 129 -164z" />
    <glyph glyph-name="lozenge" unicode="&#x25ca;" horiz-adv-x="1161" 
d="M582 85l-491 489l491 491l489 -490zM582 201l373 374l-373 373l-375 -374z" />
    <glyph glyph-name="uniF8FF" unicode="&#xf8ff;" horiz-adv-x="1534" 
d="M768 0c-340 0 -618 278 -618 618c0 341 278 617 618 617c341 0 617 -276 617 -617c0 -340 -276 -618 -617 -618zM768 59c308 0 559 251 559 559s-251 559 -559 559s-560 -251 -560 -559s252 -559 560 -559zM444 353c-16 0 -29 13 -29 29v471c0 17 13 30 29 30
s29 -13 29 -30v-471c0 -16 -13 -29 -29 -29zM768 353c-17 0 -30 13 -30 29v471c0 17 13 30 30 30c16 0 29 -13 29 -30v-471c0 -16 -13 -29 -29 -29zM1091 353c-6 0 -15 3 -19 9l-236 235c-12 13 -12 30 0 42l236 235c11 12 29 12 40 0c12 -11 12 -30 0 -42l-214 -214
l214 -215c12 -11 10 -28 0 -41c-5 -6 -13 -9 -21 -9zM532 588c-16 0 -29 13 -29 30c0 16 13 29 29 29h148c16 0 29 -13 29 -29c0 -17 -13 -30 -29 -30h-148z" />
    <glyph glyph-name="at" unicode="@" horiz-adv-x="1290" 
d="M1080 310h-83v87c-47 -63 -138 -110 -212 -110c-151 0 -271 115 -271 261c0 147 121 262 270 262c82 0 173 -51 213 -120v70c0 166 -138 298 -311 298c-250 0 -450 -215 -450 -485c0 -276 228 -492 511 -492h333v-81h-333c-331 0 -592 252 -592 573
c0 316 233 570 531 570c220 0 394 -167 394 -383v-450zM805 362c95 0 172 58 192 142v87c-20 84 -97 143 -192 143c-112 0 -195 -80 -195 -186c0 -107 83 -186 195 -186z" />
    <glyph glyph-name="ampersand" unicode="&#x26;" horiz-adv-x="1147" 
d="M1028 669v-100h-117v-231c0 -196 -142 -338 -352 -338c-208 0 -374 138 -374 331c0 123 68 234 170 293c-96 61 -158 166 -158 286c0 181 142 309 314 309h278v-103h-263c-120 0 -229 -78 -229 -211c0 -136 111 -236 249 -236h266v215h99v-215h117zM557 90
c155 0 255 105 255 248v231h-289c-134 0 -242 -103 -242 -236c0 -143 124 -243 276 -243z" />
    <glyph glyph-name="paragraph" unicode="&#xb6;" horiz-adv-x="976" 
d="M456 -244v919h-59c-179 0 -289 95 -289 273c0 177 110 271 289 271h120v-1463h-61zM669 -244v1463h61v-1463h-61z" />
    <glyph glyph-name="section" unicode="&#xa7;" horiz-adv-x="1075" 
d="M849 392c41 -36 66 -81 66 -142c0 -156 -182 -247 -381 -247c-188 0 -337 81 -392 182l69 37c41 -80 159 -146 326 -146c156 0 299 59 299 173c0 239 -635 156 -635 467c0 58 22 105 66 143c-41 36 -66 81 -66 141c0 155 166 235 333 235c130 0 247 -46 313 -112l-56 -45
c-53 52 -145 88 -251 88c-132 0 -260 -54 -260 -163c0 -239 636 -156 636 -467c0 -57 -23 -104 -67 -144zM280 718c0 -173 321 -183 506 -283c32 28 50 62 50 103c0 168 -321 178 -506 278c-33 -25 -50 -58 -50 -98z" />
    <glyph glyph-name="copyright" unicode="&#xa9;" horiz-adv-x="1549" 
d="M775 -16c-345 0 -626 281 -626 626c0 344 281 625 626 625c344 0 625 -281 625 -625c0 -345 -281 -626 -625 -626zM774 47c313 0 563 251 563 563c0 311 -250 562 -563 562c-312 0 -562 -251 -562 -562c0 -312 250 -563 562 -563zM784 244c-202 0 -366 164 -366 365
c0 203 164 366 366 366c161 0 297 -103 347 -246h-89c-45 97 -145 163 -258 163c-155 0 -284 -123 -283 -283c-1 -159 128 -282 283 -282c113 0 213 66 258 163h89c-50 -143 -186 -246 -347 -246z" />
    <glyph glyph-name="registered" unicode="&#xae;" horiz-adv-x="1549" 
d="M775 1235c344 0 625 -281 625 -625c0 -345 -281 -626 -625 -626c-345 0 -626 281 -626 626c0 344 281 625 626 625zM775 47c313 0 563 251 563 563c0 311 -250 562 -563 562s-562 -251 -562 -562c0 -312 249 -563 562 -563zM996 750c0 -84 -57 -153 -135 -172l157 -286
h-68l-156 280h-124v-280h-59v635h205c100 0 180 -78 180 -177zM670 868v-236h146c66 0 120 52 120 118s-54 118 -120 118h-146z" />
    <glyph glyph-name="trademark" unicode="&#x2122;" horiz-adv-x="1434" 
d="M127 1159v60h383v-60h-159v-512h-66v512h-158zM1116 1219h72v-572h-66v466l-220 -326l-218 322v-462h-68v572h72l214 -320z" />
    <glyph glyph-name="degree" unicode="&#xb0;" horiz-adv-x="853" 
d="M426 800c-123 0 -224 101 -224 224s101 224 224 224s224 -101 224 -224s-101 -224 -224 -224zM426 861c91 0 163 72 163 163s-72 162 -163 162s-162 -71 -162 -162s71 -163 162 -163z" />
    <glyph glyph-name="bar" unicode="|" horiz-adv-x="563" 
d="M247 -244v1463h70v-1463h-70z" />
    <glyph glyph-name="brokenbar" unicode="&#xa6;" horiz-adv-x="563" 
d="M247 634v585h70v-585h-70zM247 -244v585h70v-585h-70z" />
    <glyph glyph-name="uni2113" horiz-adv-x="1030" 
d="M576 -8c-215 0 -309 162 -318 322v19c-36 -24 -78 -59 -118 -89l-37 68c55 44 107 79 154 120v490c0 322 156 413 289 413c165 0 237 -134 237 -281c0 -224 -169 -435 -420 -656v-43c0 -193 119 -276 234 -276c133 0 236 102 284 191l57 -46
c-87 -154 -210 -232 -362 -232zM362 505c185 181 336 357 336 540c0 119 -40 209 -157 209c-77 0 -179 -75 -179 -317v-432z" />
    <glyph glyph-name="dagger" unicode="&#x2020;" horiz-adv-x="823" 
d="M733 756v-71h-289v-961h-72v961h-282v71h282v333h72v-333h289z" />
    <glyph glyph-name="daggerdbl" unicode="&#x2021;" horiz-adv-x="897" 
d="M770 685h-289v-553h289v-70h-289v-338h-72v338h-282v70h282v553h-282v71h282v333h72v-333h289v-71z" />
    <glyph glyph-name="estimated" horiz-adv-x="1647" 
d="M839 -15c-384 0 -694 280 -694 623c0 348 310 627 694 627c385 0 696 -279 696 -627v-16h-1125c-7 0 -10 -2 -10 -7v-341c0 -15 7 -28 15 -39c109 -112 260 -185 426 -185c180 0 339 81 448 208h99c-123 -147 -325 -243 -549 -243zM410 626h863c5 0 7 6 7 11v341
c0 15 -5 31 -17 41c-109 107 -257 179 -422 179c-164 0 -314 -73 -425 -184c-9 -11 -16 -26 -16 -42v-335c0 -5 3 -11 10 -11z" />
    <glyph glyph-name="uni0308" unicode="&#x308;" 
d="M-512 1083c-41 0 -77 34 -77 75c0 44 36 77 77 77c42 0 77 -33 77 -77c0 -41 -35 -75 -77 -75zM-227 1083c-41 0 -77 34 -77 75c0 44 36 77 77 77c42 0 77 -33 77 -77c0 -41 -35 -75 -77 -75z" />
    <glyph glyph-name="uni0307" unicode="&#x307;" 
d="M-227 1083c-41 0 -77 34 -77 75c0 44 36 77 77 77c42 0 77 -33 77 -77c0 -41 -35 -75 -77 -75z" />
    <glyph glyph-name="gravecomb" unicode="&#x300;" 
d="M-151 920l-222 299h122l173 -299h-73z" />
    <glyph glyph-name="acutecomb" unicode="&#x301;" 
d="M-353 920l173 299h122l-222 -299h-73z" />
    <glyph glyph-name="uni030B" unicode="&#x30b;" 
d="M-617 920l171 299h122l-220 -299h-73zM-352 920l171 299h122l-220 -299h-73z" />
    <glyph glyph-name="uni030C.alt" 
d="M-378 748l215 471h114l-243 -471h-86z" />
    <glyph glyph-name="uni0302" unicode="&#x302;" 
d="M-509 920l159 299h105l159 -299h-84l-126 228l-127 -228h-86z" />
    <glyph glyph-name="uni030C" unicode="&#x30c;" 
d="M-350 920l-159 299h82l130 -228l129 228h82l-160 -299h-104z" />
    <glyph glyph-name="uni0306" unicode="&#x306;" 
d="M-381 979c-149 0 -261 96 -261 240h66c0 -96 83 -173 195 -173c113 0 197 77 197 173h66c0 -144 -112 -240 -263 -240z" />
    <glyph glyph-name="uni030A" unicode="&#x30a;" 
d="M-291 894c-89 0 -161 72 -161 159c0 89 72 160 161 160c86 0 158 -71 158 -160c0 -87 -72 -159 -158 -159zM-291 952c54 0 99 44 99 101c0 56 -45 104 -99 104c-57 0 -102 -48 -102 -104c0 -57 45 -101 102 -101z" />
    <glyph glyph-name="tildecomb" unicode="&#x303;" 
d="M-299 1010c-128 0 -142 138 -224 138c-56 0 -88 -56 -88 -130h-77c0 118 63 206 163 206c124 0 142 -139 226 -139c54 0 88 47 88 129h75c0 -116 -59 -204 -163 -204z" />
    <glyph glyph-name="uni0304" unicode="&#x304;" 
d="M-593 988v72h428v-72h-428z" />
    <glyph glyph-name="uni0312" unicode="&#x312;" 
d="M-352 936l175 283h75l-126 -283h-124z" />
    <glyph glyph-name="dotbelowcomb" unicode="&#x323;" 
d="M-227 -406c-41 0 -77 34 -77 77c0 40 36 77 77 77c42 0 77 -37 77 -77c0 -43 -35 -77 -77 -77z" />
    <glyph glyph-name="uni0326" unicode="&#x326;" 
d="M-328 -390l127 293h123l-175 -293h-75z" />
    <glyph glyph-name="uni0327" unicode="&#x327;" 
d="M-271 -423c-71 0 -153 44 -187 99l57 27c26 -35 84 -62 130 -62c55 0 98 44 98 100c0 80 -75 116 -170 83l-52 36l69 140h63l-52 -113c115 24 206 -41 206 -146c0 -91 -71 -164 -162 -164z" />
    <glyph glyph-name="uni0328" unicode="&#x328;" 
d="M-261 -422c-105 4 -171 65 -171 167c0 117 92 195 205 274l57 -19c-96 -64 -190 -136 -190 -248c0 -66 39 -114 113 -114c62 0 112 25 152 71l35 -52c-57 -56 -121 -81 -201 -79z" />
    <glyph glyph-name="uni0335" unicode="&#x335;" 
d="M-619 382v96h454v-96h-454z" />
    <glyph glyph-name="uni0336" unicode="&#x336;" 
d="M-1312 385v75h1148v-75h-1148z" />
    <glyph glyph-name="uni0337" unicode="&#x337;" 
d="M-394 178v109l335 360v-110z" />
    <glyph glyph-name="uni0338" unicode="&#x338;" 
d="M-647 -52l-77 46l643 921l75 -48z" />
    <glyph glyph-name="acute" unicode="&#xb4;" horiz-adv-x="431" 
d="M78 920l173 299h122l-222 -299h-73z" />
    <glyph glyph-name="breve" unicode="&#x2d8;" horiz-adv-x="759" 
d="M378 979c-149 0 -261 96 -261 240h66c0 -96 83 -173 195 -173c113 0 197 77 197 173h66c0 -144 -112 -240 -263 -240z" />
    <glyph glyph-name="caron" unicode="&#x2c7;" horiz-adv-x="595" 
d="M245 920l-159 299h85l127 -228l126 228h85l-160 -299h-104z" />
    <glyph glyph-name="cedilla" unicode="&#xb8;" horiz-adv-x="549" 
d="M278 -423c-71 0 -153 44 -187 99l57 27c26 -35 84 -62 130 -62c55 0 98 44 98 100c0 80 -75 116 -170 83l-52 36l69 140h63l-52 -113c115 24 206 -41 206 -146c0 -91 -71 -164 -162 -164z" />
    <glyph glyph-name="circumflex" unicode="&#x2c6;" horiz-adv-x="594" 
d="M85 920l159 299h105l159 -299h-84l-126 228l-127 -228h-86z" />
    <glyph glyph-name="dieresis" unicode="&#xa8;" horiz-adv-x="738" 
d="M210 1083c-42 0 -77 34 -77 75c0 44 35 77 77 77c41 0 77 -33 77 -77c0 -41 -36 -75 -77 -75zM495 1083c-42 0 -77 34 -77 75c0 44 35 77 77 77c41 0 77 -33 77 -77c0 -41 -36 -75 -77 -75z" />
    <glyph glyph-name="dotaccent" unicode="&#x2d9;" horiz-adv-x="453" 
d="M226 1083c-41 0 -77 34 -77 75c0 44 36 77 77 77c42 0 77 -33 77 -77c0 -41 -35 -75 -77 -75z" />
    <glyph glyph-name="grave" unicode="`" horiz-adv-x="431" 
d="M280 920l-222 299h122l173 -299h-73z" />
    <glyph glyph-name="hungarumlaut" unicode="&#x2dd;" horiz-adv-x="431" 
d="M78 920l173 299h122l-222 -299h-73z" />
    <glyph glyph-name="macron" unicode="&#xaf;" horiz-adv-x="757" 
d="M164 988v72h428v-72h-428z" />
    <glyph glyph-name="ogonek" unicode="&#x2db;" horiz-adv-x="547" 
d="M286 -422c-105 4 -171 65 -171 167c0 117 92 195 205 274l57 -19c-96 -64 -190 -136 -190 -248c0 -66 39 -114 113 -114c62 0 112 25 152 71l35 -52c-57 -56 -121 -81 -201 -79z" />
    <glyph glyph-name="ring" unicode="&#x2da;" horiz-adv-x="585" 
d="M294 894c-89 0 -161 72 -161 159c0 89 72 160 161 160c86 0 158 -71 158 -160c0 -87 -72 -159 -158 -159zM294 952c54 0 99 44 99 101c0 56 -45 104 -99 104c-57 0 -102 -48 -102 -104c0 -57 45 -101 102 -101z" />
    <glyph glyph-name="tilde" unicode="&#x2dc;" horiz-adv-x="823" 
d="M524 1010c-70 0 -114 38 -145 86c-23 38 -47 52 -79 52c-56 0 -88 -56 -88 -130h-77c0 118 63 206 163 206c67 0 111 -38 145 -87c19 -30 42 -52 81 -52c54 0 88 47 88 129h75c0 -116 -59 -204 -163 -204z" />
    <glyph glyph-name="uni0338.case" 
d="M-886 -52l-78 46l892 1279l76 -48z" />
    </font>
</defs>
</svg>
