<?xml version="1.0" standalone="no"?>
<!DOCTYPE svg PUBLIC "-//W3C//DTD SVG 1.1//EN" "http://www.w3.org/Graphics/SVG/1.1/DTD/svg11.dtd" >
<svg xmlns="http://www.w3.org/2000/svg" xmlns:xlink="http://www.w3.org/1999/xlink" version="1.1">
<metadata>
Created by FontForge 20190801 at Thu Apr 18 20:42:00 2019
 By Jimmy Wärting
Copyright \(c\) 2015 Now by Alfredo Marco Pradil. All rights reserved.
</metadata>
<defs>
<font id="Now-Bold" horiz-adv-x="0" >
  <font-face 
    font-family="Now"
    font-weight="700"
    font-stretch="normal"
    units-per-em="2048"
    panose-1="0 0 8 0 0 0 0 0 0 0"
    ascent="1638"
    descent="-410"
    x-height="859"
    cap-height="1219"
    bbox="-1341 -553 1863 1855"
    underline-thickness="50"
    underline-position="-100"
    stemh="208"
    stemv="229"
    unicode-range="U+0020-FB02"
  />
<missing-glyph horiz-adv-x="1103" 
d="M184 0v1219h735v-1219h-735zM357 172h389v875h-389v-875z" />
    <glyph glyph-name="fi" unicode="fi" horiz-adv-x="1176" 
d="M431 1176v-317h210v-196h-210v-663h-245v663h-145v196h145v346c0 172 146 308 318 308c55 0 110 -13 133 -28v-191h-102c-60 0 -104 -46 -104 -118zM912 1032c-77 0 -141 65 -141 141c0 80 64 142 141 142c78 0 144 -62 144 -142c0 -76 -66 -141 -144 -141zM790 0v859
h246v-859h-246z" />
    <glyph glyph-name="fl" unicode="fl" horiz-adv-x="1176" 
d="M431 1176v-317h210v-196h-210v-663h-245v663h-145v196h145v346c0 172 146 308 318 308c55 0 110 -13 133 -28v-191h-102c-60 0 -104 -46 -104 -118zM790 1495h246v-1495h-246v1495z" />
    <glyph glyph-name=".notdef" horiz-adv-x="1103" 
d="M184 0v1219h735v-1219h-735zM357 172h389v875h-389v-875z" />
    <glyph glyph-name="space" unicode=" " horiz-adv-x="488" 
 />
    <glyph glyph-name="A" unicode="A" horiz-adv-x="1183" 
d="M910 0l-80 242h-476l-80 -242h-255l441 1219h264l440 -1219h-254zM420 443h344l-172 524z" />
    <glyph glyph-name="Aacute" unicode="&#xc1;" horiz-adv-x="1183" 
d="M919 1579l-251 -267h-152l179 267h224zM910 0l-80 242h-476l-80 -242h-255l441 1219h264l440 -1219h-254zM420 443h344l-172 524z" />
    <glyph glyph-name="Abreve" unicode="&#x102;" horiz-adv-x="1183" 
d="M592 1331c-170 0 -289 65 -289 248h131c0 -75 62 -128 158 -128c97 0 160 53 160 128h130c0 -183 -119 -248 -290 -248zM910 0l-80 242h-476l-80 -242h-255l441 1219h264l440 -1219h-254zM420 443h344l-172 524z" />
    <glyph glyph-name="Acircumflex" unicode="&#xc2;" horiz-adv-x="1183" 
d="M592 1484l-119 -172h-172l190 267h199l192 -267h-172zM910 0l-80 242h-476l-80 -242h-255l441 1219h264l440 -1219h-254zM420 443h344l-172 524z" />
    <glyph glyph-name="Adieresis" unicode="&#xc4;" horiz-adv-x="1183" 
d="M397 1392c-77 0 -141 65 -141 141c0 80 64 142 141 142c78 0 144 -62 144 -142c0 -76 -66 -141 -144 -141zM786 1392c-77 0 -142 65 -142 141c0 80 65 142 142 142c78 0 144 -62 144 -142c0 -76 -66 -141 -144 -141zM910 0l-80 242h-476l-80 -242h-255l441 1219h264
l440 -1219h-254zM420 443h344l-172 524z" />
    <glyph glyph-name="Agrave" unicode="&#xc0;" horiz-adv-x="1183" 
d="M668 1312h-152l-251 267h224zM910 0l-80 242h-476l-80 -242h-255l441 1219h264l440 -1219h-254zM420 443h344l-172 524z" />
    <glyph glyph-name="Amacron" unicode="&#x100;" horiz-adv-x="1183" 
d="M831 1489v-146h-478v146h478zM910 0l-80 242h-476l-80 -242h-255l441 1219h264l440 -1219h-254zM420 443h344l-172 524z" />
    <glyph glyph-name="Aogonek" unicode="&#x104;" horiz-adv-x="1183" 
d="M1187 -223l73 -101c-65 -67 -158 -102 -248 -96c-127 9 -200 89 -200 196c0 103 74 172 174 224h-76l-80 242h-476l-80 -242h-255l441 1219h264l440 -1219h1c-121 -59 -209 -107 -209 -204c0 -66 34 -104 93 -104c55 0 107 33 138 85zM420 443h344l-172 524z" />
    <glyph glyph-name="Aring" unicode="&#xc5;" horiz-adv-x="1183" 
d="M594 1240c-106 0 -193 87 -193 193c0 103 87 189 193 189c104 0 189 -86 189 -189c0 -106 -85 -193 -189 -193zM594 1528c-53 0 -92 -46 -92 -95c0 -56 39 -95 92 -95c51 0 92 39 92 95c0 49 -41 95 -92 95zM910 0l-80 242h-476l-80 -242h-255l441 1219h264l440 -1219
h-254zM420 443h344l-172 524z" />
    <glyph glyph-name="Atilde" unicode="&#xc3;" horiz-adv-x="1183" 
d="M492 1453c-39 0 -55 -50 -55 -114h-140c0 145 71 251 190 251s144 -125 206 -125c39 0 55 43 55 114h139c0 -141 -64 -250 -191 -250c-115 0 -143 124 -204 124zM910 0l-80 242h-476l-80 -242h-255l441 1219h264l440 -1219h-254zM420 443h344l-172 524z" />
    <glyph glyph-name="AE" unicode="&#xc6;" horiz-adv-x="1577" 
d="M1467 1011h-486v-306h418v-190h-418v-307h486v-208h-715v263h-372l-100 -263h-265l489 1219h963v-208zM452 452h300v566h-85z" />
    <glyph glyph-name="B" unicode="B" horiz-adv-x="1174" 
d="M879 618c117 -45 196 -139 196 -288c0 -208 -157 -330 -355 -330h-545v1219h500c200 0 359 -126 359 -336c0 -129 -60 -216 -155 -265zM797 860c0 82 -67 146 -151 146h-235v-297h235c84 0 151 68 151 151zM685 213c86 0 153 64 153 147c0 82 -67 150 -153 150h-274v-297
h274z" />
    <glyph glyph-name="C" unicode="C" horiz-adv-x="1303" 
d="M701 -16c-346 0 -625 279 -625 626c0 346 279 625 625 625c239 0 448 -134 553 -331l-205 -107c-65 124 -194 205 -348 205c-220 0 -393 -171 -393 -392c0 -222 173 -393 393 -393c154 0 283 81 348 205l205 -107c-105 -197 -314 -331 -553 -331z" />
    <glyph glyph-name="Cacute" unicode="&#x106;" horiz-adv-x="1303" 
d="M576 1312l179 267h224l-251 -267h-152zM701 -16c-346 0 -625 279 -625 626c0 346 279 625 625 625c239 0 448 -134 553 -331l-205 -107c-65 124 -194 205 -348 205c-220 0 -393 -171 -393 -392c0 -222 173 -393 393 -393c154 0 283 81 348 205l205 -107
c-105 -197 -314 -331 -553 -331z" />
    <glyph glyph-name="Ccaron" unicode="&#x10c;" horiz-adv-x="1303" 
d="M550 1312l-189 267h172l118 -172l118 172h173l-192 -267h-200zM701 -16c-346 0 -625 279 -625 626c0 346 279 625 625 625c239 0 448 -134 553 -331l-205 -107c-65 124 -194 205 -348 205c-220 0 -393 -171 -393 -392c0 -222 173 -393 393 -393c154 0 283 81 348 205
l205 -107c-105 -197 -314 -331 -553 -331z" />
    <glyph glyph-name="Ccedilla" unicode="&#xc7;" horiz-adv-x="1303" 
d="M701 217c154 0 283 81 348 205l205 -107c-105 -197 -314 -331 -553 -331h-10l-46 -80c106 18 191 -48 191 -149c0 -99 -79 -178 -177 -178c-82 0 -166 55 -191 122l103 35c16 -27 56 -49 88 -49c37 0 67 31 67 70c0 61 -58 82 -133 47l-85 49l79 143
c-291 54 -511 308 -511 616c0 346 279 625 625 625c239 0 448 -134 553 -331l-205 -107c-65 124 -194 205 -348 205c-220 0 -393 -171 -393 -392c0 -222 173 -393 393 -393z" />
    <glyph glyph-name="Cdotaccent" unicode="&#x10a;" horiz-adv-x="1303" 
d="M651 1392c-77 0 -141 65 -141 141c0 80 64 142 141 142c78 0 144 -62 144 -142c0 -76 -66 -141 -144 -141zM701 -16c-346 0 -625 279 -625 626c0 346 279 625 625 625c239 0 448 -134 553 -331l-205 -107c-65 124 -194 205 -348 205c-220 0 -393 -171 -393 -392
c0 -222 173 -393 393 -393c154 0 283 81 348 205l205 -107c-105 -197 -314 -331 -553 -331z" />
    <glyph glyph-name="D" unicode="D" horiz-adv-x="1249" 
d="M175 0v1219h350c426 0 645 -273 645 -609c0 -337 -219 -610 -645 -610h-350zM411 213h113c301 0 410 171 410 397c0 225 -109 396 -410 396h-113v-793z" />
    <glyph glyph-name="Eth" unicode="&#xd0;" horiz-adv-x="1249" 
d="M525 1219c426 0 645 -273 645 -609c0 -337 -219 -610 -645 -610h-350v543h-92v134h92v542h350zM524 213c301 0 410 171 410 397c0 225 -109 396 -410 396h-113v-329h218v-134h-218v-330h113z" />
    <glyph glyph-name="Dcaron" unicode="&#x10e;" horiz-adv-x="1249" 
d="M530 1312l-189 267h172l118 -172l118 172h173l-192 -267h-200zM175 0v1219h350c426 0 645 -273 645 -609c0 -337 -219 -610 -645 -610h-350zM411 213h113c301 0 410 171 410 397c0 225 -109 396 -410 396h-113v-793z" />
    <glyph glyph-name="Dcroat" unicode="&#x110;" horiz-adv-x="1249" 
d="M525 1219c426 0 645 -273 645 -609c0 -337 -219 -610 -645 -610h-350v543h-92v134h92v542h350zM524 213c301 0 410 171 410 397c0 225 -109 396 -410 396h-113v-329h218v-134h-218v-330h113z" />
    <glyph glyph-name="E" unicode="E" horiz-adv-x="1004" 
d="M893 1008h-481v-293h413v-211h-413v-293h481v-211h-718v1219h718v-211z" />
    <glyph glyph-name="Eacute" unicode="&#xc9;" horiz-adv-x="1004" 
d="M829 1579l-251 -267h-152l179 267h224zM893 1008h-481v-293h413v-211h-413v-293h481v-211h-718v1219h718v-211z" />
    <glyph glyph-name="Ecaron" unicode="&#x11a;" horiz-adv-x="1004" 
d="M600 1312h-200l-189 267h172l118 -172l118 172h173zM893 1008h-481v-293h413v-211h-413v-293h481v-211h-718v1219h718v-211z" />
    <glyph glyph-name="Ecircumflex" unicode="&#xca;" horiz-adv-x="1004" 
d="M502 1484l-119 -172h-172l190 267h199l192 -267h-172zM893 1008h-481v-293h413v-211h-413v-293h481v-211h-718v1219h718v-211z" />
    <glyph glyph-name="Edieresis" unicode="&#xcb;" horiz-adv-x="1004" 
d="M306 1392c-77 0 -141 65 -141 141c0 80 64 142 141 142c78 0 144 -62 144 -142c0 -76 -66 -141 -144 -141zM695 1392c-77 0 -142 65 -142 141c0 80 65 142 142 142c78 0 144 -62 144 -142c0 -76 -66 -141 -144 -141zM893 1008h-481v-293h413v-211h-413v-293h481v-211
h-718v1219h718v-211z" />
    <glyph glyph-name="Edotaccent" unicode="&#x116;" horiz-adv-x="1004" 
d="M501 1392c-77 0 -141 65 -141 141c0 80 64 142 141 142c78 0 144 -62 144 -142c0 -76 -66 -141 -144 -141zM893 1008h-481v-293h413v-211h-413v-293h481v-211h-718v1219h718v-211z" />
    <glyph glyph-name="Egrave" unicode="&#xc8;" horiz-adv-x="1004" 
d="M578 1312h-152l-251 267h224zM893 1008h-481v-293h413v-211h-413v-293h481v-211h-718v1219h718v-211z" />
    <glyph glyph-name="Emacron" unicode="&#x112;" horiz-adv-x="1004" 
d="M741 1489v-146h-478v146h478zM893 1008h-481v-293h413v-211h-413v-293h481v-211h-718v1219h718v-211z" />
    <glyph glyph-name="Eogonek" unicode="&#x118;" horiz-adv-x="1004" 
d="M915 -223l73 -101c-65 -67 -158 -102 -248 -96c-127 9 -200 89 -200 196c0 103 74 172 174 224h-539v1219h718v-211h-481v-293h413v-211h-413v-293h481v-211c-121 -59 -209 -107 -209 -204c0 -66 34 -104 93 -104c55 0 107 33 138 85z" />
    <glyph glyph-name="F" unicode="F" horiz-adv-x="953" 
d="M893 1008h-481v-293h413v-211h-413v-504h-237v1219h718v-211z" />
    <glyph glyph-name="G" unicode="G" horiz-adv-x="1391" 
d="M700 665h627v-55c0 -347 -280 -626 -626 -626s-625 279 -625 626c0 346 279 625 625 625c239 0 448 -134 553 -331l-205 -107c-65 124 -194 205 -348 205c-220 0 -393 -171 -393 -392c0 -222 173 -393 393 -393c174 0 317 105 371 257h-372v191z" />
    <glyph glyph-name="Gbreve" unicode="&#x11e;" horiz-adv-x="1391" 
d="M695 1331c-170 0 -289 65 -289 248h131c0 -75 62 -128 158 -128c97 0 160 53 160 128h130c0 -183 -119 -248 -290 -248zM700 665h627v-55c0 -347 -280 -626 -626 -626s-625 279 -625 626c0 346 279 625 625 625c239 0 448 -134 553 -331l-205 -107
c-65 124 -194 205 -348 205c-220 0 -393 -171 -393 -392c0 -222 173 -393 393 -393c174 0 317 105 371 257h-372v191z" />
    <glyph glyph-name="uni0122" unicode="&#x122;" horiz-adv-x="1391" 
d="M700 665h627v-55c0 -347 -280 -626 -626 -626s-625 279 -625 626c0 346 279 625 625 625c239 0 448 -134 553 -331l-205 -107c-65 124 -194 205 -348 205c-220 0 -393 -171 -393 -392c0 -222 173 -393 393 -393c174 0 317 105 371 257h-372v191zM475 -403l115 303h210
l-209 -303h-116z" />
    <glyph glyph-name="Gdotaccent" unicode="&#x120;" horiz-adv-x="1391" 
d="M695 1392c-77 0 -141 65 -141 141c0 80 64 142 141 142c78 0 144 -62 144 -142c0 -76 -66 -141 -144 -141zM700 665h627v-55c0 -347 -280 -626 -626 -626s-625 279 -625 626c0 346 279 625 625 625c239 0 448 -134 553 -331l-205 -107c-65 124 -194 205 -348 205
c-220 0 -393 -171 -393 -392c0 -222 173 -393 393 -393c174 0 317 105 371 257h-372v191z" />
    <glyph glyph-name="H" unicode="H" horiz-adv-x="1358" 
d="M946 1219h237v-1219h-237v503h-534v-503h-237v1219h237v-502h534v502z" />
    <glyph glyph-name="Hbar" unicode="&#x126;" horiz-adv-x="1358" 
d="M1280 1024v-103h-97v-921h-237v503h-534v-503h-237v921h-98v103h98v195h237v-195h534v195h237v-195h97zM946 717v204h-534v-204h534z" />
    <glyph glyph-name="I" unicode="I" horiz-adv-x="587" 
d="M175 0v1219h237v-1219h-237z" />
    <glyph glyph-name="Iacute" unicode="&#xcd;" horiz-adv-x="587" 
d="M217 1312l179 267h224l-251 -267h-152zM175 0v1219h237v-1219h-237z" />
    <glyph glyph-name="Icircumflex" unicode="&#xce;" horiz-adv-x="587" 
d="M3 1312l190 267h199l192 -267h-172l-118 172l-119 -172h-172zM175 0v1219h237v-1219h-237z" />
    <glyph glyph-name="Idieresis" unicode="&#xcf;" horiz-adv-x="587" 
d="M98 1392c-77 0 -141 65 -141 141c0 80 64 142 141 142c78 0 144 -62 144 -142c0 -76 -66 -141 -144 -141zM487 1392c-77 0 -142 65 -142 141c0 80 65 142 142 142c78 0 144 -62 144 -142c0 -76 -66 -141 -144 -141zM175 0v1219h237v-1219h-237z" />
    <glyph glyph-name="Idotaccent" unicode="&#x130;" horiz-adv-x="587" 
d="M292 1392c-77 0 -141 65 -141 141c0 80 64 142 141 142c78 0 144 -62 144 -142c0 -76 -66 -141 -144 -141zM175 0v1219h237v-1219h-237z" />
    <glyph glyph-name="Igrave" unicode="&#xcc;" horiz-adv-x="587" 
d="M217 1312l-251 267h224l179 -267h-152zM175 0v1219h237v-1219h-237z" />
    <glyph glyph-name="Imacron" unicode="&#x12a;" horiz-adv-x="587" 
d="M54 1343v146h478v-146h-478zM175 0v1219h237v-1219h-237z" />
    <glyph glyph-name="Iogonek" unicode="&#x12e;" horiz-adv-x="587" 
d="M434 -223l73 -101c-65 -67 -158 -102 -248 -96c-127 9 -200 89 -200 196c0 103 74 172 174 224h-58v1219h237v-1219c-121 -59 -209 -107 -209 -204c0 -66 34 -104 93 -104c55 0 107 33 138 85z" />
    <glyph glyph-name="J" unicode="J" horiz-adv-x="935" 
d="M775 1219v-910c0 -200 -135 -325 -370 -325c-211 0 -340 102 -364 267l235 66c8 -72 61 -121 129 -121c76 0 133 59 133 142v668h-406v213h643z" />
    <glyph glyph-name="K" unicode="K" horiz-adv-x="1250" 
d="M928 0l-466 565h-50v-565h-237v1219h237v-446h57l417 446h308l-532 -546l585 -673h-319z" />
    <glyph glyph-name="uni0136" unicode="&#x136;" horiz-adv-x="1250" 
d="M662 673l585 -673h-319l-466 565h-50v-565h-237v1219h237v-446h57l417 446h308zM421 -403l115 303h210l-209 -303h-116z" />
    <glyph glyph-name="L" unicode="L" horiz-adv-x="851" 
d="M412 213h415v-213h-652v1219h237v-1006z" />
    <glyph glyph-name="Lacute" unicode="&#x139;" horiz-adv-x="851" 
d="M620 1579l-251 -267h-152l179 267h224zM412 213h415v-213h-652v1219h237v-1006z" />
    <glyph glyph-name="Lcaron" unicode="&#x13d;" horiz-adv-x="851" 
d="M392 1312h-200l-189 267h172l118 -172l118 172h173zM412 213h415v-213h-652v1219h237v-1006z" />
    <glyph glyph-name="uni013B" unicode="&#x13b;" horiz-adv-x="851" 
d="M412 213h415v-213h-652v1219h237v-1006zM281 -403l115 303h210l-209 -303h-116z" />
    <glyph glyph-name="Lslash" unicode="&#x141;" horiz-adv-x="851" 
d="M412 213h415v-213h-652v344l-59 -62v216l59 62v659h237v-409l121 127v-217l-121 -127v-380z" />
    <glyph glyph-name="M" unicode="M" horiz-adv-x="1669" 
d="M1240 1219h253v-1219h-236v776l-352 -776h-144l-349 776v-776h-237v1219h256l403 -893z" />
    <glyph glyph-name="N" unicode="N" horiz-adv-x="1461" 
d="M1049 1219h236v-1219h-242l-631 852v-852h-237v1219h241l633 -849v849z" />
    <glyph glyph-name="Nacute" unicode="&#x143;" horiz-adv-x="1461" 
d="M1057 1579l-251 -267h-152l179 267h224zM1049 1219h236v-1219h-242l-631 852v-852h-237v1219h241l633 -849v849z" />
    <glyph glyph-name="Ncaron" unicode="&#x147;" horiz-adv-x="1461" 
d="M829 1312h-200l-189 267h172l118 -172l118 172h173zM1049 1219h236v-1219h-242l-631 852v-852h-237v1219h241l633 -849v849z" />
    <glyph glyph-name="uni0145" unicode="&#x145;" horiz-adv-x="1461" 
d="M1049 1219h236v-1219h-242l-631 852v-852h-237v1219h241l633 -849v849zM510 -403l115 303h210l-209 -303h-116z" />
    <glyph glyph-name="Eng" unicode="&#x14a;" horiz-adv-x="1461" 
d="M1049 1219h236v-1362c0 -223 -149 -293 -359 -293v163c66 0 117 10 117 141v132l-631 852v-852h-237v1219h241l633 -849v849z" />
    <glyph glyph-name="Ntilde" unicode="&#xd1;" horiz-adv-x="1461" 
d="M630 1453c-39 0 -55 -50 -55 -114h-140c0 145 71 251 190 251s144 -125 206 -125c39 0 55 43 55 114h139c0 -141 -64 -250 -191 -250c-115 0 -143 124 -204 124zM1049 1219h236v-1219h-242l-631 852v-852h-237v1219h241l633 -849v849z" />
    <glyph glyph-name="O" unicode="O" horiz-adv-x="1403" 
d="M701 -16c-346 0 -625 279 -625 626c0 346 279 625 625 625s626 -279 626 -625c0 -347 -280 -626 -626 -626zM701 217c222 0 394 171 394 393c0 221 -172 392 -394 392c-220 0 -393 -171 -393 -392c0 -222 173 -393 393 -393z" />
    <glyph glyph-name="Oacute" unicode="&#xd3;" horiz-adv-x="1403" 
d="M626 1312l179 267h224l-251 -267h-152zM701 -16c-346 0 -625 279 -625 626c0 346 279 625 625 625s626 -279 626 -625c0 -347 -280 -626 -626 -626zM701 217c222 0 394 171 394 393c0 221 -172 392 -394 392c-220 0 -393 -171 -393 -392c0 -222 173 -393 393 -393z" />
    <glyph glyph-name="Ocircumflex" unicode="&#xd4;" horiz-adv-x="1403" 
d="M411 1312l190 267h199l192 -267h-172l-118 172l-119 -172h-172zM701 -16c-346 0 -625 279 -625 626c0 346 279 625 625 625s626 -279 626 -625c0 -347 -280 -626 -626 -626zM701 217c222 0 394 171 394 393c0 221 -172 392 -394 392c-220 0 -393 -171 -393 -392
c0 -222 173 -393 393 -393z" />
    <glyph glyph-name="Odieresis" unicode="&#xd6;" horiz-adv-x="1403" 
d="M506 1392c-77 0 -141 65 -141 141c0 80 64 142 141 142c78 0 144 -62 144 -142c0 -76 -66 -141 -144 -141zM895 1392c-77 0 -142 65 -142 141c0 80 65 142 142 142c78 0 144 -62 144 -142c0 -76 -66 -141 -144 -141zM701 -16c-346 0 -625 279 -625 626
c0 346 279 625 625 625s626 -279 626 -625c0 -347 -280 -626 -626 -626zM701 217c222 0 394 171 394 393c0 221 -172 392 -394 392c-220 0 -393 -171 -393 -392c0 -222 173 -393 393 -393z" />
    <glyph glyph-name="Ograve" unicode="&#xd2;" horiz-adv-x="1403" 
d="M626 1312l-251 267h224l179 -267h-152zM701 -16c-346 0 -625 279 -625 626c0 346 279 625 625 625s626 -279 626 -625c0 -347 -280 -626 -626 -626zM701 217c222 0 394 171 394 393c0 221 -172 392 -394 392c-220 0 -393 -171 -393 -392c0 -222 173 -393 393 -393z" />
    <glyph glyph-name="Ohungarumlaut" unicode="&#x150;" horiz-adv-x="1403" 
d="M470 1312l177 267h222l-249 -267h-150zM782 1312l177 267h223l-249 -267h-151zM701 -16c-346 0 -625 279 -625 626c0 346 279 625 625 625s626 -279 626 -625c0 -347 -280 -626 -626 -626zM701 217c222 0 394 171 394 393c0 221 -172 392 -394 392
c-220 0 -393 -171 -393 -392c0 -222 173 -393 393 -393z" />
    <glyph glyph-name="Omacron" unicode="&#x14c;" horiz-adv-x="1403" 
d="M463 1343v146h478v-146h-478zM701 -16c-346 0 -625 279 -625 626c0 346 279 625 625 625s626 -279 626 -625c0 -347 -280 -626 -626 -626zM701 217c222 0 394 171 394 393c0 221 -172 392 -394 392c-220 0 -393 -171 -393 -392c0 -222 173 -393 393 -393z" />
    <glyph glyph-name="Oslash" unicode="&#xd8;" horiz-adv-x="1403" 
d="M1126 1070c124 -115 201 -278 201 -460c0 -347 -280 -626 -626 -626c-102 0 -199 24 -284 68l-101 -145l-147 87l108 155c-124 114 -201 278 -201 461c0 346 279 625 625 625c103 0 200 -25 285 -68l102 146l146 -88zM308 610c0 -105 39 -199 103 -268l441 632
c-47 18 -97 28 -151 28c-220 0 -393 -171 -393 -392zM701 217c222 0 394 171 394 393c0 105 -39 198 -103 268l-440 -633c45 -18 96 -28 149 -28z" />
    <glyph glyph-name="Otilde" unicode="&#xd5;" horiz-adv-x="1403" 
d="M806 1329c-115 0 -143 124 -204 124c-39 0 -55 -50 -55 -114h-140c0 145 71 251 190 251s144 -125 206 -125c39 0 55 43 55 114h139c0 -141 -64 -250 -191 -250zM701 -16c-346 0 -625 279 -625 626c0 346 279 625 625 625s626 -279 626 -625c0 -347 -280 -626 -626 -626z
M701 217c222 0 394 171 394 393c0 221 -172 392 -394 392c-220 0 -393 -171 -393 -392c0 -222 173 -393 393 -393z" />
    <glyph glyph-name="OE" unicode="&#x152;" horiz-adv-x="1695" 
d="M1585 1013h-467v-300h399v-207h-399v-300h467v-206h-679v18c-64 -22 -133 -34 -205 -34c-346 0 -625 279 -625 626c0 346 279 625 625 625c72 0 141 -12 205 -34v18h679v-206zM702 212c76 0 146 22 204 58v679c-58 36 -128 58 -204 58c-222 0 -397 -176 -397 -397
c0 -222 175 -398 397 -398z" />
    <glyph glyph-name="P" unicode="P" horiz-adv-x="1084" 
d="M674 1219c221 0 359 -161 359 -361c0 -201 -138 -353 -359 -353h-262v-505h-237v1219h499zM638 705c104 0 166 58 166 151c0 91 -62 152 -166 152h-226v-303h226z" />
    <glyph glyph-name="Thorn" unicode="&#xde;" horiz-adv-x="1076" 
d="M670 1043c199 0 358 -160 358 -363c0 -196 -159 -350 -358 -350h-266v-330h-229v1219h229v-176h266zM660 537c87 0 154 64 154 150c0 87 -67 149 -154 149h-256v-299h256z" />
    <glyph glyph-name="Q" unicode="Q" horiz-adv-x="1449" 
d="M1349 177v-177h-506c-46 -10 -93 -16 -142 -16c-346 0 -625 279 -625 626c0 346 279 625 625 625s626 -279 626 -625c0 -192 -86 -363 -221 -478l109 45h134zM308 610c0 -222 173 -393 393 -393c222 0 394 171 394 393c0 221 -172 392 -394 392
c-220 0 -393 -171 -393 -392z" />
    <glyph glyph-name="R" unicode="R" horiz-adv-x="1156" 
d="M774 520l349 -520h-276l-322 508h-113v-508h-237v1219h499c221 0 359 -161 359 -362c0 -167 -99 -301 -259 -337zM640 708c104 0 164 61 164 149s-60 149 -164 149h-228v-298h228z" />
    <glyph glyph-name="Racute" unicode="&#x154;" horiz-adv-x="1156" 
d="M914 1579l-251 -267h-152l179 267h224zM774 520l349 -520h-276l-322 508h-113v-508h-237v1219h499c221 0 359 -161 359 -362c0 -167 -99 -301 -259 -337zM640 708c104 0 164 61 164 149s-60 149 -164 149h-228v-298h228z" />
    <glyph glyph-name="Rcaron" unicode="&#x158;" horiz-adv-x="1156" 
d="M686 1312h-200l-189 267h172l118 -172l118 172h173zM774 520l349 -520h-276l-322 508h-113v-508h-237v1219h499c221 0 359 -161 359 -362c0 -167 -99 -301 -259 -337zM640 708c104 0 164 61 164 149s-60 149 -164 149h-228v-298h228z" />
    <glyph glyph-name="uni0156" unicode="&#x156;" horiz-adv-x="1156" 
d="M774 520l349 -520h-276l-322 508h-113v-508h-237v1219h499c221 0 359 -161 359 -362c0 -167 -99 -301 -259 -337zM640 708c104 0 164 61 164 149s-60 149 -164 149h-228v-298h228zM367 -403l115 303h210l-209 -303h-116z" />
    <glyph glyph-name="S" unicode="S" horiz-adv-x="985" 
d="M506 -16c-205 0 -373 114 -447 266l198 124c43 -101 133 -165 251 -165c103 0 171 49 171 130c0 229 -569 151 -569 550c0 228 186 346 378 346c156 0 297 -77 379 -188l-155 -153c-68 81 -143 127 -226 127c-77 0 -138 -40 -138 -117c0 -224 567 -139 567 -553
c0 -235 -185 -367 -409 -367z" />
    <glyph glyph-name="Sacute" unicode="&#x15a;" horiz-adv-x="985" 
d="M416 1312l179 267h224l-251 -267h-152zM506 -16c-205 0 -373 114 -447 266l198 124c43 -101 133 -165 251 -165c103 0 171 49 171 130c0 229 -569 151 -569 550c0 228 186 346 378 346c156 0 297 -77 379 -188l-155 -153c-68 81 -143 127 -226 127
c-77 0 -138 -40 -138 -117c0 -224 567 -139 567 -553c0 -235 -185 -367 -409 -367z" />
    <glyph glyph-name="Scaron" unicode="&#x160;" horiz-adv-x="985" 
d="M390 1312l-189 267h172l118 -172l118 172h173l-192 -267h-200zM506 -16c-205 0 -373 114 -447 266l198 124c43 -101 133 -165 251 -165c103 0 171 49 171 130c0 229 -569 151 -569 550c0 228 186 346 378 346c156 0 297 -77 379 -188l-155 -153c-68 81 -143 127 -226 127
c-77 0 -138 -40 -138 -117c0 -224 567 -139 567 -553c0 -235 -185 -367 -409 -367z" />
    <glyph glyph-name="Scedilla" unicode="&#x15e;" horiz-adv-x="985" 
d="M915 351c0 -226 -171 -357 -384 -366l-46 -81c106 18 191 -48 191 -149c0 -99 -79 -178 -177 -178c-82 0 -166 55 -191 122l103 35c16 -27 56 -49 88 -49c37 0 67 31 67 70c0 61 -58 82 -133 47l-85 49l77 139c-168 26 -302 129 -366 260l198 124
c43 -101 133 -165 251 -165c103 0 171 49 171 130c0 229 -569 151 -569 550c0 228 186 346 378 346c156 0 297 -77 379 -188l-155 -153c-68 81 -143 127 -226 127c-77 0 -138 -40 -138 -117c0 -224 567 -139 567 -553z" />
    <glyph glyph-name="uni0218" unicode="&#x218;" horiz-adv-x="985" 
d="M506 -16c-205 0 -373 114 -447 266l198 124c43 -101 133 -165 251 -165c103 0 171 49 171 130c0 229 -569 151 -569 550c0 228 186 346 378 346c156 0 297 -77 379 -188l-155 -153c-68 81 -143 127 -226 127c-77 0 -138 -40 -138 -117c0 -224 567 -139 567 -553
c0 -235 -185 -367 -409 -367zM271 -403l115 303h210l-209 -303h-116z" />
    <glyph glyph-name="uni1E9E" unicode="&#x1e9e;" horiz-adv-x="1228" 
d="M146 0v758c0 309 198 461 452 461h523l-264 -472c181 -36 290 -178 290 -370c0 -212 -143 -377 -371 -377h-244v223h196c107 0 172 65 172 163s-61 163 -182 163h-103v210l129 238h-141c-121 0 -211 -54 -211 -249v-748h-246z" />
    <glyph glyph-name="T" unicode="T" horiz-adv-x="910" 
d="M886 1219v-213h-313v-1006h-236v1006h-314v213h863z" />
    <glyph glyph-name="Tbar" unicode="&#x166;" horiz-adv-x="910" 
d="M886 1006h-313v-329h155v-134h-155v-543h-236v543h-155v134h155v329h-314v213h863v-213z" />
    <glyph glyph-name="Tcaron" unicode="&#x164;" horiz-adv-x="910" 
d="M553 1312h-200l-189 267h172l118 -172l118 172h173zM886 1219v-213h-313v-1006h-236v1006h-314v213h863z" />
    <glyph glyph-name="uni0162" unicode="&#x162;" horiz-adv-x="910" 
d="M573 0h-70l-55 -96c106 18 191 -48 191 -149c0 -99 -79 -178 -177 -178c-82 0 -166 55 -191 122l103 35c16 -27 56 -49 88 -49c37 0 67 31 67 70c0 61 -58 82 -133 47l-85 49l82 149h-56v1006h-314v213h863v-213h-313v-1006z" />
    <glyph glyph-name="uni021A" unicode="&#x21a;" horiz-adv-x="910" 
d="M886 1219v-213h-313v-1006h-236v1006h-314v213h863zM234 -403l115 303h210l-209 -303h-116z" />
    <glyph glyph-name="U" unicode="U" horiz-adv-x="1287" 
d="M642 -16c-281 0 -495 176 -495 409v826h237v-783c0 -135 111 -239 258 -239c148 0 260 104 260 239v783h237v-826c0 -233 -214 -409 -497 -409z" />
    <glyph glyph-name="Uacute" unicode="&#xda;" horiz-adv-x="1287" 
d="M567 1312l179 267h224l-251 -267h-152zM642 -16c-281 0 -495 176 -495 409v826h237v-783c0 -135 111 -239 258 -239c148 0 260 104 260 239v783h237v-826c0 -233 -214 -409 -497 -409z" />
    <glyph glyph-name="Ucircumflex" unicode="&#xdb;" horiz-adv-x="1287" 
d="M352 1312l190 267h199l192 -267h-172l-118 172l-119 -172h-172zM642 -16c-281 0 -495 176 -495 409v826h237v-783c0 -135 111 -239 258 -239c148 0 260 104 260 239v783h237v-826c0 -233 -214 -409 -497 -409z" />
    <glyph glyph-name="Udieresis" unicode="&#xdc;" horiz-adv-x="1287" 
d="M448 1392c-77 0 -141 65 -141 141c0 80 64 142 141 142c78 0 144 -62 144 -142c0 -76 -66 -141 -144 -141zM837 1392c-77 0 -142 65 -142 141c0 80 65 142 142 142c78 0 144 -62 144 -142c0 -76 -66 -141 -144 -141zM642 -16c-281 0 -495 176 -495 409v826h237v-783
c0 -135 111 -239 258 -239c148 0 260 104 260 239v783h237v-826c0 -233 -214 -409 -497 -409z" />
    <glyph glyph-name="Ugrave" unicode="&#xd9;" horiz-adv-x="1287" 
d="M567 1312l-251 267h224l179 -267h-152zM642 -16c-281 0 -495 176 -495 409v826h237v-783c0 -135 111 -239 258 -239c148 0 260 104 260 239v783h237v-826c0 -233 -214 -409 -497 -409z" />
    <glyph glyph-name="Uhungarumlaut" unicode="&#x170;" horiz-adv-x="1287" 
d="M412 1312l177 267h222l-249 -267h-150zM724 1312l177 267h223l-249 -267h-151zM642 -16c-281 0 -495 176 -495 409v826h237v-783c0 -135 111 -239 258 -239c148 0 260 104 260 239v783h237v-826c0 -233 -214 -409 -497 -409z" />
    <glyph glyph-name="Umacron" unicode="&#x16a;" horiz-adv-x="1287" 
d="M404 1343v146h478v-146h-478zM642 -16c-281 0 -495 176 -495 409v826h237v-783c0 -135 111 -239 258 -239c148 0 260 104 260 239v783h237v-826c0 -233 -214 -409 -497 -409z" />
    <glyph glyph-name="Uogonek" unicode="&#x172;" horiz-adv-x="1287" 
d="M902 1219h237v-826c0 -194 -149 -349 -362 -395c-119 -58 -205 -106 -205 -202c0 -66 34 -104 93 -104c55 0 107 33 138 85l73 -101c-65 -67 -158 -102 -248 -96c-127 9 -200 89 -200 196c0 95 63 161 150 211c-249 24 -431 191 -431 406v826h237v-783
c0 -135 111 -239 258 -239c148 0 260 104 260 239v783z" />
    <glyph glyph-name="Uring" unicode="&#x16e;" horiz-adv-x="1287" 
d="M645 1240c-106 0 -193 87 -193 193c0 103 87 189 193 189c104 0 189 -86 189 -189c0 -106 -85 -193 -189 -193zM645 1338c51 0 92 39 92 95c0 49 -41 95 -92 95c-53 0 -92 -46 -92 -95c0 -56 39 -95 92 -95zM642 -16c-281 0 -495 176 -495 409v826h237v-783
c0 -135 111 -239 258 -239c148 0 260 104 260 239v783h237v-826c0 -233 -214 -409 -497 -409z" />
    <glyph glyph-name="V" unicode="V" horiz-adv-x="1184" 
d="M901 1219h264l-440 -1219h-264l-441 1219h265l308 -914z" />
    <glyph glyph-name="W" unicode="W" horiz-adv-x="1782" 
d="M379 0l-345 1219h250l240 -880l244 880h245l246 -880l240 880h249l-344 -1219h-270l-243 903l-241 -903h-271z" />
    <glyph glyph-name="Wacute" unicode="&#x1e82;" horiz-adv-x="1782" 
d="M815 1312l179 267h224l-251 -267h-152zM379 0l-345 1219h250l240 -880l244 880h245l246 -880l240 880h249l-344 -1219h-270l-243 903l-241 -903h-271z" />
    <glyph glyph-name="Wcircumflex" unicode="&#x174;" horiz-adv-x="1782" 
d="M600 1312l190 267h199l192 -267h-172l-118 172l-119 -172h-172zM379 0l-345 1219h250l240 -880l244 880h245l246 -880l240 880h249l-344 -1219h-270l-243 903l-241 -903h-271z" />
    <glyph glyph-name="Wdieresis" unicode="&#x1e84;" horiz-adv-x="1782" 
d="M696 1392c-77 0 -141 65 -141 141c0 80 64 142 141 142c78 0 144 -62 144 -142c0 -76 -66 -141 -144 -141zM1085 1392c-77 0 -142 65 -142 141c0 80 65 142 142 142c78 0 144 -62 144 -142c0 -76 -66 -141 -144 -141zM379 0l-345 1219h250l240 -880l244 880h245l246 -880
l240 880h249l-344 -1219h-270l-243 903l-241 -903h-271z" />
    <glyph glyph-name="Wgrave" unicode="&#x1e80;" horiz-adv-x="1782" 
d="M815 1312l-251 267h224l179 -267h-152zM379 0l-345 1219h250l240 -880l244 880h245l246 -880l240 880h249l-344 -1219h-270l-243 903l-241 -903h-271z" />
    <glyph glyph-name="X" unicode="X" horiz-adv-x="1135" 
d="M20 0l419 626l-398 593h273l253 -396l256 396h272l-400 -592l421 -627h-274l-275 431l-273 -431h-274z" />
    <glyph glyph-name="Y" unicode="Y" horiz-adv-x="1087" 
d="M427 0v572l-429 647h271l275 -432l277 432h267l-425 -642v-577h-236z" />
    <glyph glyph-name="Yacute" unicode="&#xdd;" horiz-adv-x="1087" 
d="M467 1312l179 267h224l-251 -267h-152zM427 0v572l-429 647h271l275 -432l277 432h267l-425 -642v-577h-236z" />
    <glyph glyph-name="Ycircumflex" unicode="&#x176;" horiz-adv-x="1087" 
d="M252 1312l190 267h199l192 -267h-172l-118 172l-119 -172h-172zM427 0v572l-429 647h271l275 -432l277 432h267l-425 -642v-577h-236z" />
    <glyph glyph-name="Ydieresis" unicode="&#x178;" horiz-adv-x="1087" 
d="M348 1392c-77 0 -141 65 -141 141c0 80 64 142 141 142c78 0 144 -62 144 -142c0 -76 -66 -141 -144 -141zM737 1392c-77 0 -142 65 -142 141c0 80 65 142 142 142c78 0 144 -62 144 -142c0 -76 -66 -141 -144 -141zM427 0v572l-429 647h271l275 -432l277 432h267
l-425 -642v-577h-236z" />
    <glyph glyph-name="Ygrave" unicode="&#x1ef2;" horiz-adv-x="1087" 
d="M467 1312l-251 267h224l179 -267h-152zM427 0v572l-429 647h271l275 -432l277 432h267l-425 -642v-577h-236z" />
    <glyph glyph-name="Z" unicode="Z" horiz-adv-x="1032" 
d="M420 213h553v-213h-931l549 1006h-500v213h876z" />
    <glyph glyph-name="Zacute" unicode="&#x179;" horiz-adv-x="1032" 
d="M842 1579l-251 -267h-152l179 267h224zM420 213h553v-213h-931l549 1006h-500v213h876z" />
    <glyph glyph-name="Zcaron" unicode="&#x17d;" horiz-adv-x="1032" 
d="M614 1312h-200l-189 267h172l118 -172l118 172h173zM420 213h553v-213h-931l549 1006h-500v213h876z" />
    <glyph glyph-name="Zdotaccent" unicode="&#x17b;" horiz-adv-x="1032" 
d="M514 1392c-77 0 -141 65 -141 141c0 80 64 142 141 142c78 0 144 -62 144 -142c0 -76 -66 -141 -144 -141zM420 213h553v-213h-931l549 1006h-500v213h876z" />
    <glyph glyph-name="a" unicode="a" horiz-adv-x="1170" 
d="M1072 202h41v-202c-37 -12 -72 -17 -104 -17c-101 0 -181 51 -224 139c-70 -85 -172 -139 -295 -139c-239 0 -428 197 -428 446c0 250 189 447 428 447c103 0 192 -37 259 -99v82h245v-569c0 -73 39 -88 78 -88zM533 204c125 0 226 99 226 225c0 127 -101 227 -226 227
c-126 0 -226 -100 -226 -227c0 -126 100 -225 226 -225z" />
    <glyph glyph-name="aacute" unicode="&#xe1;" horiz-adv-x="1170" 
d="M860 1219l-251 -267h-152l179 267h224zM1072 202h41v-202c-37 -12 -72 -17 -104 -17c-101 0 -181 51 -224 139c-70 -85 -172 -139 -295 -139c-239 0 -428 197 -428 446c0 250 189 447 428 447c103 0 192 -37 259 -99v82h245v-569c0 -73 39 -88 78 -88zM533 204
c125 0 226 99 226 225c0 127 -101 227 -226 227c-126 0 -226 -100 -226 -227c0 -126 100 -225 226 -225z" />
    <glyph glyph-name="abreve" unicode="&#x103;" horiz-adv-x="1170" 
d="M532 971c-170 0 -289 65 -289 248h131c0 -75 62 -128 158 -128c97 0 160 53 160 128h130c0 -183 -119 -248 -290 -248zM1072 202h41v-202c-37 -12 -72 -17 -104 -17c-101 0 -181 51 -224 139c-70 -85 -172 -139 -295 -139c-239 0 -428 197 -428 446
c0 250 189 447 428 447c103 0 192 -37 259 -99v82h245v-569c0 -73 39 -88 78 -88zM533 204c125 0 226 99 226 225c0 127 -101 227 -226 227c-126 0 -226 -100 -226 -227c0 -126 100 -225 226 -225z" />
    <glyph glyph-name="acircumflex" unicode="&#xe2;" horiz-adv-x="1170" 
d="M533 1124l-119 -172h-172l190 267h199l192 -267h-172zM1072 202h41v-202c-37 -12 -72 -17 -104 -17c-101 0 -181 51 -224 139c-70 -85 -172 -139 -295 -139c-239 0 -428 197 -428 446c0 250 189 447 428 447c103 0 192 -37 259 -99v82h245v-569c0 -73 39 -88 78 -88z
M533 204c125 0 226 99 226 225c0 127 -101 227 -226 227c-126 0 -226 -100 -226 -227c0 -126 100 -225 226 -225z" />
    <glyph glyph-name="adieresis" unicode="&#xe4;" horiz-adv-x="1170" 
d="M337 1032c-77 0 -141 65 -141 141c0 80 64 142 141 142c78 0 144 -62 144 -142c0 -76 -66 -141 -144 -141zM726 1032c-77 0 -142 65 -142 141c0 80 65 142 142 142c78 0 144 -62 144 -142c0 -76 -66 -141 -144 -141zM1072 202h41v-202c-37 -12 -72 -17 -104 -17
c-101 0 -181 51 -224 139c-70 -85 -172 -139 -295 -139c-239 0 -428 197 -428 446c0 250 189 447 428 447c103 0 192 -37 259 -99v82h245v-569c0 -73 39 -88 78 -88zM533 204c125 0 226 99 226 225c0 127 -101 227 -226 227c-126 0 -226 -100 -226 -227
c0 -126 100 -225 226 -225z" />
    <glyph glyph-name="agrave" unicode="&#xe0;" horiz-adv-x="1170" 
d="M609 952h-152l-251 267h224zM1072 202h41v-202c-37 -12 -72 -17 -104 -17c-101 0 -181 51 -224 139c-70 -85 -172 -139 -295 -139c-239 0 -428 197 -428 446c0 250 189 447 428 447c103 0 192 -37 259 -99v82h245v-569c0 -73 39 -88 78 -88zM533 204
c125 0 226 99 226 225c0 127 -101 227 -226 227c-126 0 -226 -100 -226 -227c0 -126 100 -225 226 -225z" />
    <glyph glyph-name="amacron" unicode="&#x101;" horiz-adv-x="1170" 
d="M772 1129v-146h-478v146h478zM1072 202h41v-202c-37 -12 -72 -17 -104 -17c-101 0 -181 51 -224 139c-70 -85 -172 -139 -295 -139c-239 0 -428 197 -428 446c0 250 189 447 428 447c103 0 192 -37 259 -99v82h245v-569c0 -73 39 -88 78 -88zM533 204
c125 0 226 99 226 225c0 127 -101 227 -226 227c-126 0 -226 -100 -226 -227c0 -126 100 -225 226 -225z" />
    <glyph glyph-name="aogonek" unicode="&#x105;" horiz-adv-x="1170" 
d="M1135 -223l73 -101c-65 -67 -158 -102 -248 -96c-127 9 -200 89 -200 196c0 100 70 168 166 220c-62 20 -111 64 -141 126c-70 -85 -172 -139 -295 -139c-239 0 -428 197 -428 446c0 250 189 447 428 447c103 0 192 -37 259 -99v82h245v-569c0 -73 39 -88 78 -88h41v-202
c-121 -59 -209 -107 -209 -204c0 -66 34 -104 93 -104c55 0 107 33 138 85zM533 204c125 0 226 99 226 225c0 127 -101 227 -226 227c-126 0 -226 -100 -226 -227c0 -126 100 -225 226 -225z" />
    <glyph glyph-name="aring" unicode="&#xe5;" horiz-adv-x="1170" 
d="M535 880c-106 0 -193 87 -193 193c0 103 87 189 193 189c104 0 189 -86 189 -189c0 -106 -85 -193 -189 -193zM535 1168c-53 0 -92 -46 -92 -95c0 -56 39 -95 92 -95c51 0 92 39 92 95c0 49 -41 95 -92 95zM1072 202h41v-202c-37 -12 -72 -17 -104 -17
c-101 0 -181 51 -224 139c-70 -85 -172 -139 -295 -139c-239 0 -428 197 -428 446c0 250 189 447 428 447c103 0 192 -37 259 -99v82h245v-569c0 -73 39 -88 78 -88zM533 204c125 0 226 99 226 225c0 127 -101 227 -226 227c-126 0 -226 -100 -226 -227
c0 -126 100 -225 226 -225z" />
    <glyph glyph-name="atilde" unicode="&#xe3;" horiz-adv-x="1170" 
d="M433 1093c-39 0 -55 -50 -55 -114h-140c0 145 71 251 190 251s144 -125 206 -125c39 0 55 43 55 114h139c0 -141 -64 -250 -191 -250c-115 0 -143 124 -204 124zM1072 202h41v-202c-37 -12 -72 -17 -104 -17c-101 0 -181 51 -224 139c-70 -85 -172 -139 -295 -139
c-239 0 -428 197 -428 446c0 250 189 447 428 447c103 0 192 -37 259 -99v82h245v-569c0 -73 39 -88 78 -88zM533 204c125 0 226 99 226 225c0 127 -101 227 -226 227c-126 0 -226 -100 -226 -227c0 -126 100 -225 226 -225z" />
    <glyph glyph-name="ae" unicode="&#xe6;" horiz-adv-x="1621" 
d="M1558 433l-1 -43h-678c12 -132 91 -217 224 -217c99 0 172 48 201 125h240c-45 -186 -207 -315 -439 -315c-152 0 -280 55 -364 148c-100 -96 -225 -148 -359 -148c-200 0 -316 104 -316 264c0 169 127 268 328 268h231v39c0 86 -61 138 -151 140
c-80 3 -143 -35 -153 -93l-217 62c43 133 185 213 373 213c130 0 236 -39 305 -108c81 70 192 110 318 110c268 0 456 -181 458 -445zM1103 682c-104 0 -174 -52 -206 -135h399c-30 84 -94 135 -193 135zM436 164c79 0 166 48 215 129c-6 21 -11 44 -14 67h-189
c-78 0 -131 -39 -131 -103c0 -61 49 -93 119 -93z" />
    <glyph glyph-name="b" unicode="b" horiz-adv-x="1134" 
d="M644 876c238 0 428 -197 428 -447c0 -249 -190 -446 -428 -446c-103 0 -191 36 -259 98v-81h-245v1495h245v-717c68 62 156 98 259 98zM601 204c125 0 225 99 225 225c0 127 -100 227 -225 227c-126 0 -226 -100 -226 -227c0 -126 100 -225 226 -225z" />
    <glyph glyph-name="c" unicode="c" horiz-adv-x="1049" 
d="M531 -17c-279 0 -471 191 -471 446s192 447 471 447c246 0 421 -146 461 -354h-254c-34 80 -111 132 -207 134c-128 -2 -226 -99 -226 -227c0 -127 98 -224 226 -225c96 1 173 53 207 132h254c-40 -206 -215 -353 -461 -353z" />
    <glyph glyph-name="cacute" unicode="&#x107;" horiz-adv-x="1049" 
d="M447 952l179 267h224l-251 -267h-152zM531 -17c-279 0 -471 191 -471 446s192 447 471 447c246 0 421 -146 461 -354h-254c-34 80 -111 132 -207 134c-128 -2 -226 -99 -226 -227c0 -127 98 -224 226 -225c96 1 173 53 207 132h254c-40 -206 -215 -353 -461 -353z" />
    <glyph glyph-name="ccaron" unicode="&#x10d;" horiz-adv-x="1049" 
d="M422 952l-189 267h172l118 -172l118 172h173l-192 -267h-200zM531 -17c-279 0 -471 191 -471 446s192 447 471 447c246 0 421 -146 461 -354h-254c-34 80 -111 132 -207 134c-128 -2 -226 -99 -226 -227c0 -127 98 -224 226 -225c96 1 173 53 207 132h254
c-40 -206 -215 -353 -461 -353z" />
    <glyph glyph-name="ccedilla" unicode="&#xe7;" horiz-adv-x="1049" 
d="M531 204c96 1 173 53 207 132h254c-38 -197 -200 -341 -430 -352l-46 -80c106 18 191 -48 191 -149c0 -99 -79 -178 -177 -178c-82 0 -166 55 -191 122l103 35c16 -27 56 -49 88 -49c37 0 67 31 67 70c0 61 -58 82 -133 47l-85 49l75 137c-237 32 -394 210 -394 441
c0 255 192 447 471 447c246 0 421 -146 461 -354h-254c-34 80 -111 132 -207 134c-128 -2 -226 -99 -226 -227c0 -127 98 -224 226 -225z" />
    <glyph glyph-name="cdotaccent" unicode="&#x10b;" horiz-adv-x="1049" 
d="M522 1032c-77 0 -141 65 -141 141c0 80 64 142 141 142c78 0 144 -62 144 -142c0 -76 -66 -141 -144 -141zM531 -17c-279 0 -471 191 -471 446s192 447 471 447c246 0 421 -146 461 -354h-254c-34 80 -111 132 -207 134c-128 -2 -226 -99 -226 -227
c0 -127 98 -224 226 -225c96 1 173 53 207 132h254c-40 -206 -215 -353 -461 -353z" />
    <glyph glyph-name="d" unicode="d" horiz-adv-x="1133" 
d="M747 1495h246v-1495l-246 -1v81c-67 -61 -155 -97 -258 -97c-237 0 -428 197 -428 446c0 250 191 447 428 447c103 0 191 -36 258 -97v716zM532 204c126 0 226 99 226 225c0 127 -100 227 -226 227c-125 0 -226 -100 -226 -227c0 -126 101 -225 226 -225z" />
    <glyph glyph-name="eth" unicode="&#xf0;" horiz-adv-x="1092" 
d="M626 1199c269 -188 384 -473 384 -698c0 -282 -158 -518 -478 -518c-266 0 -476 197 -476 446c0 250 210 447 476 447c55 0 113 -9 164 -37c-45 94 -119 162 -189 208l-98 -125l-113 85l81 103c-55 24 -112 38 -170 46l49 194c91 -13 174 -41 248 -79l80 99l109 -83z
M532 203c126 0 226 100 226 226c0 127 -100 227 -226 227s-225 -100 -225 -227c0 -126 99 -226 225 -226z" />
    <glyph glyph-name="dcaron" unicode="&#x10f;" horiz-adv-x="1279" 
d="M737 779v716h246v-1495l-246 -1v81c-67 -61 -155 -97 -258 -97c-237 0 -428 197 -428 446c0 250 191 447 428 447c103 0 191 -36 258 -97zM1248 1219h247l-276 -490h-168zM522 204c126 0 226 99 226 225c0 127 -100 227 -226 227c-125 0 -226 -100 -226 -227
c0 -126 101 -225 226 -225z" />
    <glyph glyph-name="dcroat" unicode="&#x111;" horiz-adv-x="1133" 
d="M1110 1286v-134h-117v-1152l-246 -1v81c-67 -61 -155 -97 -258 -97c-237 0 -428 197 -428 446c0 250 191 447 428 447c103 0 191 -36 258 -97v373h-183v134h183v209h246v-209h117zM532 204c126 0 226 99 226 225c0 127 -100 227 -226 227c-125 0 -226 -100 -226 -227
c0 -126 101 -225 226 -225z" />
    <glyph glyph-name="e" unicode="e" horiz-adv-x="1050" 
d="M987 433l-1 -43h-677c12 -132 89 -217 222 -217c100 0 173 48 202 125h239c-44 -186 -207 -315 -438 -315c-279 0 -472 184 -472 446c0 265 195 449 466 449c270 0 457 -181 459 -445zM531 682c-103 0 -172 -52 -204 -135h398c-31 84 -95 135 -194 135z" />
    <glyph glyph-name="eacute" unicode="&#xe9;" horiz-adv-x="1050" 
d="M851 1219l-251 -267h-152l179 267h224zM987 433l-1 -43h-677c12 -132 89 -217 222 -217c100 0 173 48 202 125h239c-44 -186 -207 -315 -438 -315c-279 0 -472 184 -472 446c0 265 195 449 466 449c270 0 457 -181 459 -445zM531 682c-103 0 -172 -52 -204 -135h398
c-31 84 -95 135 -194 135z" />
    <glyph glyph-name="ecaron" unicode="&#x11b;" horiz-adv-x="1050" 
d="M623 952h-200l-189 267h172l118 -172l118 172h173zM987 433l-1 -43h-677c12 -132 89 -217 222 -217c100 0 173 48 202 125h239c-44 -186 -207 -315 -438 -315c-279 0 -472 184 -472 446c0 265 195 449 466 449c270 0 457 -181 459 -445zM531 682
c-103 0 -172 -52 -204 -135h398c-31 84 -95 135 -194 135z" />
    <glyph glyph-name="ecircumflex" unicode="&#xea;" horiz-adv-x="1050" 
d="M524 1124l-119 -172h-172l190 267h199l192 -267h-172zM987 433l-1 -43h-677c12 -132 89 -217 222 -217c100 0 173 48 202 125h239c-44 -186 -207 -315 -438 -315c-279 0 -472 184 -472 446c0 265 195 449 466 449c270 0 457 -181 459 -445zM531 682
c-103 0 -172 -52 -204 -135h398c-31 84 -95 135 -194 135z" />
    <glyph glyph-name="edieresis" unicode="&#xeb;" horiz-adv-x="1050" 
d="M328 1032c-77 0 -141 65 -141 141c0 80 64 142 141 142c78 0 144 -62 144 -142c0 -76 -66 -141 -144 -141zM717 1032c-77 0 -142 65 -142 141c0 80 65 142 142 142c78 0 144 -62 144 -142c0 -76 -66 -141 -144 -141zM987 433l-1 -43h-677c12 -132 89 -217 222 -217
c100 0 173 48 202 125h239c-44 -186 -207 -315 -438 -315c-279 0 -472 184 -472 446c0 265 195 449 466 449c270 0 457 -181 459 -445zM531 682c-103 0 -172 -52 -204 -135h398c-31 84 -95 135 -194 135z" />
    <glyph glyph-name="edotaccent" unicode="&#x117;" horiz-adv-x="1050" 
d="M523 1032c-77 0 -141 65 -141 141c0 80 64 142 141 142c78 0 144 -62 144 -142c0 -76 -66 -141 -144 -141zM987 433l-1 -43h-677c12 -132 89 -217 222 -217c100 0 173 48 202 125h239c-44 -186 -207 -315 -438 -315c-279 0 -472 184 -472 446c0 265 195 449 466 449
c270 0 457 -181 459 -445zM531 682c-103 0 -172 -52 -204 -135h398c-31 84 -95 135 -194 135z" />
    <glyph glyph-name="egrave" unicode="&#xe8;" horiz-adv-x="1050" 
d="M600 952h-152l-251 267h224zM987 433l-1 -43h-677c12 -132 89 -217 222 -217c100 0 173 48 202 125h239c-44 -186 -207 -315 -438 -315c-279 0 -472 184 -472 446c0 265 195 449 466 449c270 0 457 -181 459 -445zM531 682c-103 0 -172 -52 -204 -135h398
c-31 84 -95 135 -194 135z" />
    <glyph glyph-name="emacron" unicode="&#x113;" horiz-adv-x="1050" 
d="M763 1129v-146h-478v146h478zM987 433l-1 -43h-677c12 -132 89 -217 222 -217c100 0 173 48 202 125h239c-44 -186 -207 -315 -438 -315c-279 0 -472 184 -472 446c0 265 195 449 466 449c270 0 457 -181 459 -445zM531 682c-103 0 -172 -52 -204 -135h398
c-31 84 -95 135 -194 135z" />
    <glyph glyph-name="eogonek" unicode="&#x119;" horiz-adv-x="1050" 
d="M987 433l-1 -43h-677c12 -132 89 -217 222 -217c100 0 173 48 202 125h239c-33 -140 -134 -248 -280 -293c-116 -57 -200 -105 -200 -199c0 -66 34 -104 93 -104c55 0 107 33 138 85l73 -101c-65 -67 -158 -102 -248 -96c-127 9 -200 89 -200 196c0 88 54 150 131 199
c-249 23 -417 200 -417 444c0 265 195 449 466 449c270 0 457 -181 459 -445zM531 682c-103 0 -172 -52 -204 -135h398c-31 84 -95 135 -194 135z" />
    <glyph glyph-name="f" unicode="f" horiz-adv-x="650" 
d="M641 859v-196h-210v-663h-245v663h-145v196h145v346c0 172 146 308 318 308c55 0 110 -13 133 -28v-191h-102c-60 0 -104 -46 -104 -118v-317h210z" />
    <glyph glyph-name="g" unicode="g" horiz-adv-x="1132" 
d="M746 859h246v-935c0 -317 -182 -457 -461 -457c-229 0 -394 111 -459 295l226 94c30 -106 115 -172 232 -172c126 0 219 54 219 229v169c-68 -62 -156 -99 -260 -99c-237 0 -428 197 -428 446c0 251 191 447 428 447c102 0 190 -36 257 -96v79zM532 204
c126 0 226 99 226 225c0 127 -100 227 -226 227c-125 0 -224 -100 -224 -227c0 -126 99 -225 224 -225z" />
    <glyph glyph-name="gbreve" unicode="&#x11f;" horiz-adv-x="1132" 
d="M557 971c-170 0 -289 65 -289 248h131c0 -75 62 -128 158 -128c97 0 160 53 160 128h130c0 -183 -119 -248 -290 -248zM746 859h246v-935c0 -317 -182 -457 -461 -457c-229 0 -394 111 -459 295l226 94c30 -106 115 -172 232 -172c126 0 219 54 219 229v169
c-68 -62 -156 -99 -260 -99c-237 0 -428 197 -428 446c0 251 191 447 428 447c102 0 190 -36 257 -96v79zM532 204c126 0 226 99 226 225c0 127 -100 227 -226 227c-125 0 -224 -100 -224 -227c0 -126 99 -225 224 -225z" />
    <glyph glyph-name="uni0123" unicode="&#x123;" horiz-adv-x="1132" 
d="M777 1219l-115 -244h-210l209 244h116zM746 859h246v-935c0 -317 -182 -457 -461 -457c-229 0 -394 111 -459 295l226 94c30 -106 115 -172 232 -172c126 0 219 54 219 229v169c-68 -62 -156 -99 -260 -99c-237 0 -428 197 -428 446c0 251 191 447 428 447
c102 0 190 -36 257 -96v79zM532 204c126 0 226 99 226 225c0 127 -100 227 -226 227c-125 0 -224 -100 -224 -227c0 -126 99 -225 224 -225z" />
    <glyph glyph-name="gdotaccent" unicode="&#x121;" horiz-adv-x="1132" 
d="M557 1032c-77 0 -141 65 -141 141c0 80 64 142 141 142c78 0 144 -62 144 -142c0 -76 -66 -141 -144 -141zM746 859h246v-935c0 -317 -182 -457 -461 -457c-229 0 -394 111 -459 295l226 94c30 -106 115 -172 232 -172c126 0 219 54 219 229v169
c-68 -62 -156 -99 -260 -99c-237 0 -428 197 -428 446c0 251 191 447 428 447c102 0 190 -36 257 -96v79zM532 204c126 0 226 99 226 225c0 127 -100 227 -226 227c-125 0 -224 -100 -224 -227c0 -126 99 -225 224 -225z" />
    <glyph glyph-name="h" unicode="h" horiz-adv-x="1047" 
d="M615 876c174 0 314 -143 314 -331v-545h-246v510c0 80 -61 146 -144 146c-88 0 -154 -75 -154 -158v-498h-245v1495h245v-719c60 63 140 100 230 100z" />
    <glyph glyph-name="hbar" unicode="&#x127;" horiz-adv-x="1047" 
d="M615 876c174 0 314 -143 314 -331v-545h-246v510c0 80 -61 146 -144 146c-88 0 -154 -75 -154 -158v-498h-245v1152h-99v134h99v209h245v-209h202v-134h-202v-376c60 63 140 100 230 100z" />
    <glyph glyph-name="i" unicode="i" horiz-adv-x="526" 
d="M262 1032c-77 0 -141 65 -141 141c0 80 64 142 141 142c78 0 144 -62 144 -142c0 -76 -66 -141 -144 -141zM140 0v859h246v-859h-246z" />
    <glyph glyph-name="dotlessi" unicode="&#x131;" horiz-adv-x="526" 
d="M140 0v859h246v-859h-246z" />
    <glyph glyph-name="iacute" unicode="&#xed;" horiz-adv-x="526" 
d="M187 952l179 267h224l-251 -267h-152zM140 0v859h246v-859h-246z" />
    <glyph glyph-name="icircumflex" unicode="&#xee;" horiz-adv-x="526" 
d="M-27 952l190 267h199l192 -267h-172l-118 172l-119 -172h-172zM140 0v859h246v-859h-246z" />
    <glyph glyph-name="idieresis" unicode="&#xef;" horiz-adv-x="526" 
d="M68 1032c-77 0 -141 65 -141 141c0 80 64 142 141 142c78 0 144 -62 144 -142c0 -76 -66 -141 -144 -141zM457 1032c-77 0 -142 65 -142 141c0 80 65 142 142 142c78 0 144 -62 144 -142c0 -76 -66 -141 -144 -141zM140 0v859h246v-859h-246z" />
    <glyph glyph-name="i.loclTRK" horiz-adv-x="526" 
d="M262 1032c-77 0 -141 65 -141 141c0 80 64 142 141 142c78 0 144 -62 144 -142c0 -76 -66 -141 -144 -141zM140 0v859h246v-859h-246z" />
    <glyph glyph-name="igrave" unicode="&#xec;" horiz-adv-x="526" 
d="M187 952l-251 267h224l179 -267h-152zM140 0v859h246v-859h-246z" />
    <glyph glyph-name="imacron" unicode="&#x12b;" horiz-adv-x="526" 
d="M24 983v146h478v-146h-478zM140 0v859h246v-859h-246z" />
    <glyph glyph-name="iogonek" unicode="&#x12f;" horiz-adv-x="526" 
d="M262 1032c-77 0 -141 65 -141 141c0 80 64 142 141 142c78 0 144 -62 144 -142c0 -76 -66 -141 -144 -141zM408 -223l73 -101c-65 -67 -158 -102 -248 -96c-127 9 -200 89 -200 196c0 103 74 172 174 224h-67v859h246v-859c-121 -59 -209 -107 -209 -204
c0 -66 34 -104 93 -104c55 0 107 33 138 85z" />
    <glyph glyph-name="j" unicode="j" horiz-adv-x="526" 
d="M262 1032c-77 0 -141 65 -141 141c0 80 64 142 141 142c78 0 144 -62 144 -142c0 -76 -66 -141 -144 -141zM68 -553c-56 0 -111 12 -133 27v191h83c79 0 122 46 122 118v1076h246v-1095c0 -192 -108 -317 -318 -317z" />
    <glyph glyph-name="uni0237" unicode="&#x237;" horiz-adv-x="526" 
d="M68 -553c-56 0 -111 12 -133 27v191h83c79 0 122 46 122 118v1076h246v-1095c0 -192 -108 -317 -318 -317z" />
    <glyph glyph-name="k" unicode="k" horiz-adv-x="1013" 
d="M1027 0h-321l-321 404v-404h-245v1495h245v-952l311 316h299l-381 -387z" />
    <glyph glyph-name="uni0137" unicode="&#x137;" horiz-adv-x="1013" 
d="M614 472l413 -472h-321l-321 404v-404h-245v1495h245v-952l311 316h299zM296 -403l115 303h210l-209 -303h-116z" />
    <glyph glyph-name="l" unicode="l" horiz-adv-x="526" 
d="M140 0v1495h246v-1495h-246z" />
    <glyph glyph-name="lacute" unicode="&#x13a;" horiz-adv-x="526" 
d="M187 1588l179 267h224l-251 -267h-152zM140 0v1495h246v-1495h-246z" />
    <glyph glyph-name="lcaron" unicode="&#x13e;" horiz-adv-x="680" 
d="M130 0v1495h246v-1495h-246zM450 729l197 490h247l-276 -490h-168z" />
    <glyph glyph-name="uni013C" unicode="&#x13c;" horiz-adv-x="526" 
d="M140 0v1495h246v-1495h-246zM43 -403l115 303h210l-209 -303h-116z" />
    <glyph glyph-name="lslash" unicode="&#x142;" horiz-adv-x="526" 
d="M471 1075v-217l-85 -89v-769h-246v510l-86 -90v216l86 91v768h246v-509z" />
    <glyph glyph-name="m" unicode="m" horiz-adv-x="1542" 
d="M140 0v859h245v-98c55 70 132 115 226 115c106 0 192 -58 242 -145c56 91 149 145 268 145c186 0 300 -136 300 -332v-544h-246v509c0 80 -56 147 -137 147c-87 0 -135 -76 -135 -147v-509h-245v509c0 80 -56 147 -138 147c-87 0 -135 -76 -135 -147v-509h-245z" />
    <glyph glyph-name="n" unicode="n" horiz-adv-x="1050" 
d="M621 876c169 0 311 -143 311 -332v-544h-245v508c0 84 -63 148 -148 148c-86 0 -154 -64 -154 -148v-508h-245v859h245v-96c60 70 143 113 236 113z" />
    <glyph glyph-name="nacute" unicode="&#x144;" horiz-adv-x="1050" 
d="M854 1219l-251 -267h-152l179 267h224zM621 876c169 0 311 -143 311 -332v-544h-245v508c0 84 -63 148 -148 148c-86 0 -154 -64 -154 -148v-508h-245v859h245v-96c60 70 143 113 236 113z" />
    <glyph glyph-name="ncaron" unicode="&#x148;" horiz-adv-x="1050" 
d="M625 952h-200l-189 267h172l118 -172l118 172h173zM621 876c169 0 311 -143 311 -332v-544h-245v508c0 84 -63 148 -148 148c-86 0 -154 -64 -154 -148v-508h-245v859h245v-96c60 70 143 113 236 113z" />
    <glyph glyph-name="uni0146" unicode="&#x146;" horiz-adv-x="1050" 
d="M621 876c169 0 311 -143 311 -332v-544h-245v508c0 84 -63 148 -148 148c-86 0 -154 -64 -154 -148v-508h-245v859h245v-96c60 70 143 113 236 113zM306 -403l115 303h210l-209 -303h-116z" />
    <glyph glyph-name="eng" unicode="&#x14b;" horiz-adv-x="1051" 
d="M622 876c169 0 310 -143 310 -332v-707c0 -238 -147 -312 -369 -312v150c69 0 124 11 124 150v684c0 84 -63 147 -148 147c-86 0 -153 -63 -153 -147v-509h-246v859h246v-97c59 71 143 114 236 114z" />
    <glyph glyph-name="ntilde" unicode="&#xf1;" horiz-adv-x="1050" 
d="M427 1093c-39 0 -55 -50 -55 -114h-140c0 145 71 251 190 251s144 -125 206 -125c39 0 55 43 55 114h139c0 -141 -64 -250 -191 -250c-115 0 -143 124 -204 124zM621 876c169 0 311 -143 311 -332v-544h-245v508c0 84 -63 148 -148 148c-86 0 -154 -64 -154 -148v-508
h-245v859h245v-96c60 70 143 113 236 113z" />
    <glyph glyph-name="o" unicode="o" horiz-adv-x="1064" 
d="M532 -17c-280 0 -471 191 -471 446s191 447 471 447c279 0 471 -192 471 -447s-192 -446 -471 -446zM532 204c128 1 226 98 226 225s-98 225 -226 227c-129 -2 -226 -100 -226 -227s97 -224 226 -225z" />
    <glyph glyph-name="oacute" unicode="&#xf3;" horiz-adv-x="1064" 
d="M456 952l179 267h224l-251 -267h-152zM532 -17c-280 0 -471 191 -471 446s191 447 471 447c279 0 471 -192 471 -447s-192 -446 -471 -446zM532 204c128 1 226 98 226 225s-98 225 -226 227c-129 -2 -226 -100 -226 -227s97 -224 226 -225z" />
    <glyph glyph-name="ocircumflex" unicode="&#xf4;" horiz-adv-x="1064" 
d="M241 952l190 267h199l192 -267h-172l-118 172l-119 -172h-172zM532 -17c-280 0 -471 191 -471 446s191 447 471 447c279 0 471 -192 471 -447s-192 -446 -471 -446zM532 204c128 1 226 98 226 225s-98 225 -226 227c-129 -2 -226 -100 -226 -227s97 -224 226 -225z" />
    <glyph glyph-name="odieresis" unicode="&#xf6;" horiz-adv-x="1064" 
d="M336 1032c-77 0 -141 65 -141 141c0 80 64 142 141 142c78 0 144 -62 144 -142c0 -76 -66 -141 -144 -141zM725 1032c-77 0 -142 65 -142 141c0 80 65 142 142 142c78 0 144 -62 144 -142c0 -76 -66 -141 -144 -141zM532 -17c-280 0 -471 191 -471 446s191 447 471 447
c279 0 471 -192 471 -447s-192 -446 -471 -446zM532 204c128 1 226 98 226 225s-98 225 -226 227c-129 -2 -226 -100 -226 -227s97 -224 226 -225z" />
    <glyph glyph-name="ograve" unicode="&#xf2;" horiz-adv-x="1064" 
d="M456 952l-251 267h224l179 -267h-152zM532 -17c-280 0 -471 191 -471 446s191 447 471 447c279 0 471 -192 471 -447s-192 -446 -471 -446zM532 204c128 1 226 98 226 225s-98 225 -226 227c-129 -2 -226 -100 -226 -227s97 -224 226 -225z" />
    <glyph glyph-name="ohungarumlaut" unicode="&#x151;" horiz-adv-x="1064" 
d="M300 952l177 267h222l-249 -267h-150zM612 952l177 267h223l-249 -267h-151zM532 -17c-280 0 -471 191 -471 446s191 447 471 447c279 0 471 -192 471 -447s-192 -446 -471 -446zM532 204c128 1 226 98 226 225s-98 225 -226 227c-129 -2 -226 -100 -226 -227
s97 -224 226 -225z" />
    <glyph glyph-name="omacron" unicode="&#x14d;" horiz-adv-x="1064" 
d="M293 983v146h478v-146h-478zM532 -17c-280 0 -471 191 -471 446s191 447 471 447c279 0 471 -192 471 -447s-192 -446 -471 -446zM532 204c128 1 226 98 226 225s-98 225 -226 227c-129 -2 -226 -100 -226 -227s97 -224 226 -225z" />
    <glyph glyph-name="oslash" unicode="&#xf8;" horiz-adv-x="1064" 
d="M851 767c96 -81 152 -200 152 -338c0 -255 -192 -446 -471 -446c-74 0 -141 13 -201 37l-74 -106l-119 70l75 107c-96 81 -152 200 -152 338c0 255 191 447 471 447c74 0 142 -13 201 -38l75 107l118 -71zM306 429c0 -53 17 -101 46 -138l247 355c-21 6 -43 10 -67 10
c-129 -2 -226 -100 -226 -227zM532 204c128 1 226 98 226 225c0 53 -17 100 -46 138l-246 -353c21 -7 43 -10 66 -10z" />
    <glyph glyph-name="otilde" unicode="&#xf5;" horiz-adv-x="1064" 
d="M636 969c-115 0 -143 124 -204 124c-39 0 -55 -50 -55 -114h-140c0 145 71 251 190 251s144 -125 206 -125c39 0 55 43 55 114h139c0 -141 -64 -250 -191 -250zM532 -17c-280 0 -471 191 -471 446s191 447 471 447c279 0 471 -192 471 -447s-192 -446 -471 -446zM532 204
c128 1 226 98 226 225s-98 225 -226 227c-129 -2 -226 -100 -226 -227s97 -224 226 -225z" />
    <glyph glyph-name="oe" unicode="&#x153;" horiz-adv-x="1754" 
d="M1691 433l-1 -43h-677c12 -132 89 -217 222 -217c100 0 173 48 202 125h240c-45 -186 -207 -315 -439 -315c-148 0 -271 51 -355 139c-83 -87 -205 -139 -351 -139c-280 0 -471 191 -471 446s191 447 471 447c145 0 267 -52 350 -138c84 88 206 140 350 140
c270 0 457 -181 459 -445zM1235 682c-103 0 -172 -52 -204 -135h399c-32 84 -96 135 -195 135zM532 204c128 1 226 98 226 225s-98 225 -226 227c-129 -2 -226 -100 -226 -227s97 -224 226 -225z" />
    <glyph glyph-name="p" unicode="p" horiz-adv-x="1133" 
d="M644 876c238 0 428 -197 428 -447c0 -249 -190 -446 -428 -446c-103 0 -191 36 -259 98v-598h-245v1376l245 -2v-79c68 62 156 98 259 98zM601 204c125 0 225 99 225 225c0 127 -100 227 -225 227c-126 0 -226 -100 -226 -227c0 -126 100 -225 226 -225z" />
    <glyph glyph-name="thorn" unicode="&#xfe;" horiz-adv-x="1132" 
d="M641 876c242 0 428 -197 428 -447c0 -249 -186 -446 -428 -446c-102 0 -189 36 -256 96v-594h-245v2010h245v-715c67 60 154 96 256 96zM611 204c125 0 225 99 225 225c0 127 -100 227 -225 227c-126 0 -226 -100 -226 -227c0 -126 100 -225 226 -225z" />
    <glyph glyph-name="q" unicode="q" horiz-adv-x="1133" 
d="M1096 -297h81v-202c-28 -8 -70 -16 -111 -16c-172 0 -319 134 -319 307v288c-67 -61 -155 -97 -258 -97c-237 0 -428 197 -428 446c0 250 191 447 428 447c103 0 191 -36 258 -97v80h246v-1038c0 -72 44 -118 103 -118zM532 204c126 0 226 99 226 225
c0 127 -100 227 -226 227c-125 0 -226 -100 -226 -227c0 -126 101 -225 226 -225z" />
    <glyph glyph-name="r" unicode="r" horiz-adv-x="716" 
d="M140 0v859h245v-106c63 81 151 123 252 123c25 0 50 -3 70 -8v-215c-24 1 -51 3 -77 3c-140 0 -245 -85 -245 -261v-395h-245z" />
    <glyph glyph-name="racute" unicode="&#x155;" horiz-adv-x="716" 
d="M303 952l179 267h224l-251 -267h-152zM140 0v859h245v-106c63 81 151 123 252 123c25 0 50 -3 70 -8v-215c-24 1 -51 3 -77 3c-140 0 -245 -85 -245 -261v-395h-245z" />
    <glyph glyph-name="rcaron" unicode="&#x159;" horiz-adv-x="716" 
d="M278 952l-189 267h172l118 -172l118 172h173l-192 -267h-200zM140 0v859h245v-106c63 81 151 123 252 123c25 0 50 -3 70 -8v-215c-24 1 -51 3 -77 3c-140 0 -245 -85 -245 -261v-395h-245z" />
    <glyph glyph-name="uni0157" unicode="&#x157;" horiz-adv-x="716" 
d="M140 0v859h245v-106c63 81 151 123 252 123c25 0 50 -3 70 -8v-215c-24 1 -51 3 -77 3c-140 0 -245 -85 -245 -261v-395h-245zM42 -403l115 303h210l-209 -303h-116z" />
    <glyph glyph-name="s" unicode="s" horiz-adv-x="830" 
d="M425 -17c-166 0 -319 77 -381 214l192 93c32 -83 114 -118 186 -118c57 0 106 24 106 71c0 44 -43 67 -141 98c-133 44 -291 108 -291 270c0 156 139 265 330 265c134 0 261 -61 315 -130l-150 -135c-25 37 -86 84 -161 84c-60 0 -91 -27 -91 -65c0 -46 53 -64 134 -92
c175 -56 296 -124 296 -281c0 -169 -146 -274 -344 -274z" />
    <glyph glyph-name="sacute" unicode="&#x15b;" horiz-adv-x="830" 
d="M338 952l179 267h224l-251 -267h-152zM425 -17c-166 0 -319 77 -381 214l192 93c32 -83 114 -118 186 -118c57 0 106 24 106 71c0 44 -43 67 -141 98c-133 44 -291 108 -291 270c0 156 139 265 330 265c134 0 261 -61 315 -130l-150 -135c-25 37 -86 84 -161 84
c-60 0 -91 -27 -91 -65c0 -46 53 -64 134 -92c175 -56 296 -124 296 -281c0 -169 -146 -274 -344 -274z" />
    <glyph glyph-name="scaron" unicode="&#x161;" horiz-adv-x="830" 
d="M312 952l-189 267h172l118 -172l118 172h173l-192 -267h-200zM425 -17c-166 0 -319 77 -381 214l192 93c32 -83 114 -118 186 -118c57 0 106 24 106 71c0 44 -43 67 -141 98c-133 44 -291 108 -291 270c0 156 139 265 330 265c134 0 261 -61 315 -130l-150 -135
c-25 37 -86 84 -161 84c-60 0 -91 -27 -91 -65c0 -46 53 -64 134 -92c175 -56 296 -124 296 -281c0 -169 -146 -274 -344 -274z" />
    <glyph glyph-name="scedilla" unicode="&#x15f;" horiz-adv-x="830" 
d="M769 257c0 -161 -133 -264 -316 -273l-46 -80c106 18 191 -48 191 -149c0 -99 -79 -178 -177 -178c-82 0 -166 55 -191 122l103 35c16 -27 56 -49 88 -49c37 0 67 31 67 70c0 61 -58 82 -133 47l-85 49l76 138c-134 20 -250 93 -302 208l192 93c32 -83 114 -118 186 -118
c57 0 106 24 106 71c0 44 -43 67 -141 98c-133 44 -291 108 -291 270c0 156 139 265 330 265c134 0 261 -61 315 -130l-150 -135c-25 37 -86 84 -161 84c-60 0 -91 -27 -91 -65c0 -46 53 -64 134 -92c175 -56 296 -124 296 -281z" />
    <glyph glyph-name="uni0219" unicode="&#x219;" horiz-adv-x="830" 
d="M425 -17c-166 0 -319 77 -381 214l192 93c32 -83 114 -118 186 -118c57 0 106 24 106 71c0 44 -43 67 -141 98c-133 44 -291 108 -291 270c0 156 139 265 330 265c134 0 261 -61 315 -130l-150 -135c-25 37 -86 84 -161 84c-60 0 -91 -27 -91 -65c0 -46 53 -64 134 -92
c175 -56 296 -124 296 -281c0 -169 -146 -274 -344 -274zM193 -403l115 303h210l-209 -303h-116z" />
    <glyph glyph-name="germandbls" unicode="&#xdf;" horiz-adv-x="1160" 
d="M920 683c106 -68 172 -178 172 -313c0 -205 -143 -376 -371 -376h-195v229h128c127 0 191 69 191 164c0 103 -85 168 -191 168h-70v201h28c115 0 175 75 175 160c0 97 -79 164 -190 164c-121 0 -212 -68 -212 -264v-816h-245v826c0 310 198 468 451 468
c250 0 428 -155 428 -364c0 -96 -37 -182 -99 -247z" />
    <glyph glyph-name="t" unicode="t" horiz-adv-x="705" 
d="M628 663h-210v-344c0 -72 45 -117 104 -117h103v-191c-23 -16 -78 -28 -134 -28c-172 0 -318 134 -318 307v373h-144v196h144v340h245v-340h210v-196z" />
    <glyph glyph-name="tbar" unicode="&#x167;" horiz-adv-x="705" 
d="M649 363h-231v-44c0 -72 45 -117 104 -117h103v-191c-23 -16 -78 -28 -134 -28c-172 0 -318 134 -318 307v73h-127v134h127v166h-144v196h144v340h245v-340h210v-196h-210v-166h231v-134z" />
    <glyph glyph-name="tcaron" unicode="&#x165;" horiz-adv-x="705" 
d="M751 1479h247l-276 -490h-168zM418 1199v-340h210v-196h-210v-344c0 -72 45 -117 104 -117h103v-191c-23 -16 -78 -28 -134 -28c-172 0 -318 134 -318 307v373h-144v196h144v340h245z" />
    <glyph glyph-name="uni0163" unicode="&#x163;" horiz-adv-x="705" 
d="M443 -96c106 18 191 -48 191 -149c0 -99 -79 -178 -177 -178c-82 0 -166 55 -191 122l103 35c16 -27 56 -49 88 -49c37 0 67 31 67 70c0 61 -58 82 -133 47l-85 49l82 149c-124 41 -215 153 -215 290v373h-144v196h144v340h245v-340h210v-196h-210v-344
c0 -72 45 -117 104 -117h103v-191c-23 -16 -78 -28 -134 -28h-3z" />
    <glyph glyph-name="uni021B" unicode="&#x21b;" horiz-adv-x="705" 
d="M628 663h-210v-344c0 -72 45 -117 104 -117h103v-191c-23 -16 -78 -28 -134 -28c-172 0 -318 134 -318 307v373h-144v196h144v340h245v-340h210v-196zM229 -403l115 303h210l-209 -303h-116z" />
    <glyph glyph-name="u" unicode="u" horiz-adv-x="1010" 
d="M505 -17c-247 0 -388 125 -388 339v537h247v-513c0 -100 59 -142 141 -142c81 0 141 42 141 142v513h246v-537c0 -214 -141 -339 -387 -339z" />
    <glyph glyph-name="uacute" unicode="&#xfa;" horiz-adv-x="1010" 
d="M429 952l179 267h224l-251 -267h-152zM505 -17c-247 0 -388 125 -388 339v537h247v-513c0 -100 59 -142 141 -142c81 0 141 42 141 142v513h246v-537c0 -214 -141 -339 -387 -339z" />
    <glyph glyph-name="ucircumflex" unicode="&#xfb;" horiz-adv-x="1010" 
d="M214 952l190 267h199l192 -267h-172l-118 172l-119 -172h-172zM505 -17c-247 0 -388 125 -388 339v537h247v-513c0 -100 59 -142 141 -142c81 0 141 42 141 142v513h246v-537c0 -214 -141 -339 -387 -339z" />
    <glyph glyph-name="udieresis" unicode="&#xfc;" horiz-adv-x="1010" 
d="M310 1032c-77 0 -141 65 -141 141c0 80 64 142 141 142c78 0 144 -62 144 -142c0 -76 -66 -141 -144 -141zM699 1032c-77 0 -142 65 -142 141c0 80 65 142 142 142c78 0 144 -62 144 -142c0 -76 -66 -141 -144 -141zM505 -17c-247 0 -388 125 -388 339v537h247v-513
c0 -100 59 -142 141 -142c81 0 141 42 141 142v513h246v-537c0 -214 -141 -339 -387 -339z" />
    <glyph glyph-name="ugrave" unicode="&#xf9;" horiz-adv-x="1010" 
d="M429 952l-251 267h224l179 -267h-152zM505 -17c-247 0 -388 125 -388 339v537h247v-513c0 -100 59 -142 141 -142c81 0 141 42 141 142v513h246v-537c0 -214 -141 -339 -387 -339z" />
    <glyph glyph-name="uhungarumlaut" unicode="&#x171;" horiz-adv-x="1010" 
d="M274 952l177 267h222l-249 -267h-150zM586 952l177 267h223l-249 -267h-151zM505 -17c-247 0 -388 125 -388 339v537h247v-513c0 -100 59 -142 141 -142c81 0 141 42 141 142v513h246v-537c0 -214 -141 -339 -387 -339z" />
    <glyph glyph-name="umacron" unicode="&#x16b;" horiz-adv-x="1010" 
d="M266 983v146h478v-146h-478zM505 -17c-247 0 -388 125 -388 339v537h247v-513c0 -100 59 -142 141 -142c81 0 141 42 141 142v513h246v-537c0 -214 -141 -339 -387 -339z" />
    <glyph glyph-name="uogonek" unicode="&#x173;" horiz-adv-x="1010" 
d="M646 859h246v-537c0 -169 -88 -283 -247 -323c-120 -59 -207 -107 -207 -203c0 -66 34 -104 93 -104c55 0 107 33 138 85l73 -101c-65 -67 -158 -102 -248 -96c-127 9 -200 89 -200 196c0 94 62 159 148 210c-208 20 -325 141 -325 336v537h247v-513
c0 -100 59 -142 141 -142c81 0 141 42 141 142v513z" />
    <glyph glyph-name="uring" unicode="&#x16f;" horiz-adv-x="1010" 
d="M507 880c-106 0 -193 87 -193 193c0 103 87 189 193 189c104 0 189 -86 189 -189c0 -106 -85 -193 -189 -193zM507 978c51 0 92 39 92 95c0 49 -41 95 -92 95c-53 0 -92 -46 -92 -95c0 -56 39 -95 92 -95zM505 -17c-247 0 -388 125 -388 339v537h247v-513
c0 -100 59 -142 141 -142c81 0 141 42 141 142v513h246v-537c0 -214 -141 -339 -387 -339z" />
    <glyph glyph-name="v" unicode="v" horiz-adv-x="918" 
d="M657 859h263l-346 -859h-232l-344 859h262l199 -597z" />
    <glyph glyph-name="w" unicode="w" horiz-adv-x="1475" 
d="M1192 859h275l-294 -859h-261l-174 522l-174 -522h-261l-295 859h278l161 -597l193 597h197l194 -597z" />
    <glyph glyph-name="wacute" unicode="&#x1e83;" horiz-adv-x="1475" 
d="M1065 1219l-251 -267h-152l179 267h224zM1192 859h275l-294 -859h-261l-174 522l-174 -522h-261l-295 859h278l161 -597l193 597h197l194 -597z" />
    <glyph glyph-name="wcircumflex" unicode="&#x175;" horiz-adv-x="1475" 
d="M738 1124l-119 -172h-172l190 267h199l192 -267h-172zM1192 859h275l-294 -859h-261l-174 522l-174 -522h-261l-295 859h278l161 -597l193 597h197l194 -597z" />
    <glyph glyph-name="wdieresis" unicode="&#x1e85;" horiz-adv-x="1475" 
d="M542 1032c-77 0 -141 65 -141 141c0 80 64 142 141 142c78 0 144 -62 144 -142c0 -76 -66 -141 -144 -141zM931 1032c-77 0 -142 65 -142 141c0 80 65 142 142 142c78 0 144 -62 144 -142c0 -76 -66 -141 -144 -141zM1192 859h275l-294 -859h-261l-174 522l-174 -522
h-261l-295 859h278l161 -597l193 597h197l194 -597z" />
    <glyph glyph-name="wgrave" unicode="&#x1e81;" horiz-adv-x="1475" 
d="M814 952h-152l-251 267h224zM1192 859h275l-294 -859h-261l-174 522l-174 -522h-261l-295 859h278l161 -597l193 597h197l194 -597z" />
    <glyph glyph-name="x" unicode="x" horiz-adv-x="1012" 
d="M1015 859l-362 -430l362 -429h-294l-214 254l-214 -254h-295l362 430l-362 429h292l216 -256l215 256h294z" />
    <glyph glyph-name="y" unicode="y" horiz-adv-x="957" 
d="M702 859h257l-550 -1374h-258l204 499l-358 875h257l228 -595z" />
    <glyph glyph-name="yacute" unicode="&#xfd;" horiz-adv-x="957" 
d="M805 1219l-251 -267h-152l179 267h224zM702 859h257l-550 -1374h-258l204 499l-358 875h257l228 -595z" />
    <glyph glyph-name="ycircumflex" unicode="&#x177;" horiz-adv-x="957" 
d="M478 1124l-119 -172h-172l190 267h199l192 -267h-172zM702 859h257l-550 -1374h-258l204 499l-358 875h257l228 -595z" />
    <glyph glyph-name="ydieresis" unicode="&#xff;" horiz-adv-x="957" 
d="M283 1032c-77 0 -141 65 -141 141c0 80 64 142 141 142c78 0 144 -62 144 -142c0 -76 -66 -141 -144 -141zM672 1032c-77 0 -142 65 -142 141c0 80 65 142 142 142c78 0 144 -62 144 -142c0 -76 -66 -141 -144 -141zM702 859h257l-550 -1374h-258l204 499l-358 875h257
l228 -595z" />
    <glyph glyph-name="ygrave" unicode="&#x1ef3;" horiz-adv-x="957" 
d="M554 952h-152l-251 267h224zM702 859h257l-550 -1374h-258l204 499l-358 875h257l228 -595z" />
    <glyph glyph-name="z" unicode="z" horiz-adv-x="844" 
d="M795 859l-387 -650h375v-209h-750l387 650h-343v209h718z" />
    <glyph glyph-name="zacute" unicode="&#x17a;" horiz-adv-x="844" 
d="M748 1219l-251 -267h-152l179 267h224zM795 859l-387 -650h375v-209h-750l387 650h-343v209h718z" />
    <glyph glyph-name="zcaron" unicode="&#x17e;" horiz-adv-x="844" 
d="M519 952h-200l-189 267h172l118 -172l118 172h173zM795 859l-387 -650h375v-209h-750l387 650h-343v209h718z" />
    <glyph glyph-name="zdotaccent" unicode="&#x17c;" horiz-adv-x="844" 
d="M420 1032c-77 0 -141 65 -141 141c0 80 64 142 141 142c78 0 144 -62 144 -142c0 -76 -66 -141 -144 -141zM795 859l-387 -650h375v-209h-750l387 650h-343v209h718z" />
    <glyph glyph-name="ordfeminine" unicode="&#xaa;" horiz-adv-x="789" 
d="M524 1219h112v-488h-112v81c-40 -55 -103 -90 -179 -90c-134 0 -243 112 -243 253s109 254 243 254c76 0 139 -35 179 -91v81zM367 818c88 0 157 70 157 157c0 86 -69 156 -157 156c-86 0 -155 -70 -155 -156c0 -87 69 -157 155 -157z" />
    <glyph glyph-name="ordmasculine" unicode="&#xba;" horiz-adv-x="702" 
d="M350 722c-149 0 -266 112 -266 253s117 254 266 254s267 -113 267 -254s-118 -253 -267 -253zM350 818c86 0 156 70 156 157c0 86 -70 156 -156 156c-87 0 -156 -70 -156 -156c0 -87 69 -157 156 -157z" />
    <glyph glyph-name="uni0394" unicode="&#x394;" horiz-adv-x="1273" 
d="M769 1219l490 -1219h-1244l489 1219h265zM350 205h574l-286 749z" />
    <glyph glyph-name="uni03A9" unicode="&#x3a9;" horiz-adv-x="1438" 
d="M100 0v188h207v6c-86 85 -181 261 -181 463c0 320 238 568 598 568c375 0 588 -272 588 -566c0 -188 -85 -368 -185 -465v-6h211v-188h-523v140c136 76 249 240 249 476c0 231 -123 417 -338 417c-209 0 -352 -170 -352 -419c0 -232 120 -408 250 -474v-140h-524z" />
    <glyph glyph-name="uni03BC" unicode="&#x3bc;" horiz-adv-x="1059" 
d="M694 813h228v-813h-228v94c-60 -68 -144 -110 -238 -110c-55 0 -106 14 -151 38v-428h-168v1219h229v-473c0 -87 69 -156 157 -156c95 0 171 69 171 156v473z" />
    <glyph glyph-name="pi" unicode="&#x3c0;" horiz-adv-x="1139" 
d="M116 0c64 187 118 519 124 728c-99 0 -158 -5 -203 -19l-23 133c46 34 141 56 303 56h805l-17 -170h-143v-458c0 -130 10 -214 25 -270h-209c-23 36 -31 132 -31 255v473l-295 1c-9 -203 -60 -569 -128 -729h-208z" />
    <glyph glyph-name="zero" unicode="0" horiz-adv-x="1056" 
d="M529 -16c-301 0 -454 256 -454 626c0 369 153 625 454 625c299 0 453 -257 453 -625c0 -369 -154 -626 -453 -626zM529 201c155 0 211 163 211 409c0 245 -56 408 -211 408c-156 0 -211 -164 -211 -408c0 -245 55 -409 211 -409z" />
    <glyph glyph-name="one" unicode="1" horiz-adv-x="1056" 
d="M436 0v1002h-188v217h431v-1219h-243z" />
    <glyph glyph-name="two" unicode="2" horiz-adv-x="1056" 
d="M499 217h442v-217h-892l481 605c127 158 149 200 149 263c0 115 -80 150 -147 150c-87 0 -155 -61 -144 -164h-238c-18 227 174 384 394 383c207 0 372 -140 373 -346c0 -143 -51 -222 -214 -424z" />
    <glyph glyph-name="three" unicode="3" horiz-adv-x="1056" 
d="M549 729c216 2 385 -128 385 -348c0 -223 -177 -397 -409 -397c-220 0 -398 157 -398 354l241 3c0 -73 73 -130 157 -130c101 0 169 76 169 174c0 87 -59 163 -194 163h-326l346 454h-362v217h780z" />
    <glyph glyph-name="four" unicode="4" horiz-adv-x="1056" 
d="M961 474v-217h-104v-257h-242v257h-578l514 962h306v-745h104zM348 474h267v517z" />
    <glyph glyph-name="five" unicode="5" horiz-adv-x="1056" 
d="M592 824c225 0 381 -176 381 -409c0 -249 -187 -431 -455 -431c-156 0 -329 65 -418 158l20 233h40c106 -137 234 -167 345 -167c137 0 225 85 225 198c0 115 -86 199 -197 199c-71 0 -151 -34 -198 -86l-191 117l54 580h695v-217h-503l-23 -256c58 50 131 81 225 81z
" />
    <glyph glyph-name="six" unicode="6" horiz-adv-x="1056" 
d="M594 834c206 -25 383 -201 384 -421c0 -241 -204 -426 -448 -428c-244 -3 -454 179 -454 422c-1 104 42 192 97 273l395 539h280l-292 -385c12 1 25 1 38 0zM530 195c127 1 214 95 212 218c-2 126 -91 219 -218 217c-129 -2 -211 -99 -210 -222c1 -124 85 -215 216 -213z
" />
    <glyph glyph-name="seven" unicode="7" horiz-adv-x="1056" 
d="M117 1219h837v-177l-559 -1042h-265l551 1002h-564v217z" />
    <glyph glyph-name="eight" unicode="8" horiz-adv-x="1056" 
d="M527 -16c-244 0 -425 166 -425 383c0 135 70 248 181 312c-68 56 -108 137 -108 234c0 182 149 322 353 322s353 -140 353 -322c0 -96 -41 -178 -108 -234c112 -64 183 -177 183 -312c0 -217 -181 -383 -429 -383zM529 742c83 0 147 65 147 148c0 85 -65 149 -147 149
c-84 0 -148 -64 -148 -149c0 -83 64 -148 148 -148zM527 195c106 0 184 86 184 191s-78 182 -184 182c-103 0 -182 -76 -182 -182c0 -105 79 -191 182 -191z" />
    <glyph glyph-name="nine" unicode="9" horiz-adv-x="1056" 
d="M979 812c1 -101 -42 -193 -96 -273l-396 -539h-279l292 385c-13 -1 -26 -1 -39 0c-205 25 -383 198 -384 421c0 242 201 425 452 428c244 2 449 -182 450 -422zM531 589c128 2 212 97 210 223c-2 119 -86 215 -216 212c-128 -2 -214 -97 -213 -218
c2 -124 91 -219 219 -217z" />
    <glyph glyph-name="uni00B9" unicode="&#xb9;" horiz-adv-x="412" 
d="M141 522v557h-104v140h262v-697h-158z" />
    <glyph glyph-name="uni00B2" unicode="&#xb2;" horiz-adv-x="580" 
d="M285 662h228v-140h-512l270 354c60 78 78 107 78 142c0 56 -41 71 -67 71c-44 0 -82 -29 -81 -90l-152 4c-3 141 118 226 239 226s214 -80 214 -202c0 -86 -40 -141 -118 -239z" />
    <glyph glyph-name="uni00B3" unicode="&#xb3;" horiz-adv-x="588" 
d="M322 938c128 1 214 -74 214 -194c0 -129 -103 -232 -238 -232c-126 0 -231 91 -231 213l156 1c0 -49 37 -76 75 -76c51 0 83 43 83 91c0 49 -26 86 -101 86h-193l190 252h-210v140h477z" />
    <glyph glyph-name="fraction" unicode="&#x2044;" horiz-adv-x="528" 
d="M-250 0l850 1219h178l-850 -1219h-178z" />
    <glyph glyph-name="onehalf" unicode="&#xbd;" horiz-adv-x="1592" 
d="M336 406h-155v674h-126v139h281v-813zM1070 1217h178l-850 -1219h-179zM1211 137h305v-139h-595l323 401c91 109 102 137 102 179c0 78 -53 105 -103 106c-62 0 -109 -43 -102 -115l-153 1c-10 150 116 254 262 253c140 0 247 -95 248 -230c1 -94 -33 -147 -144 -283z
" />
    <glyph glyph-name="onequarter" unicode="&#xbc;" horiz-adv-x="1572" 
d="M334 406h-155v674h-126v139h281v-813zM1118 1216h177l-850 -1219h-178zM1486 310v-139h-70v-171h-154v171h-387l346 642h195v-503h70zM1075 310h187v357z" />
    <glyph glyph-name="threequarters" unicode="&#xbe;" horiz-adv-x="1715" 
d="M608 664c0 -148 -118 -264 -270 -264c-147 0 -265 105 -265 236l153 2c0 -52 52 -93 112 -93c69 0 117 53 117 121c0 62 -42 114 -133 114h-215l234 306h-247v138h515l-261 -328c145 3 260 -85 260 -232zM1258 1216h178l-850 -1219h-178zM1630 310v-139h-71v-171h-153
v171h-387l346 642h194v-503h71zM1218 310h188v359z" />
    <glyph glyph-name="period" unicode="." horiz-adv-x="607" 
d="M303 -16c-76 0 -141 64 -141 140c0 77 65 141 141 141c77 0 141 -64 141 -141c0 -76 -64 -140 -141 -140z" />
    <glyph glyph-name="comma" unicode="," horiz-adv-x="591" 
d="M98 -279l197 491h227l-276 -491h-148z" />
    <glyph glyph-name="colon" unicode=":" horiz-adv-x="564" 
d="M281 568c-70 0 -130 59 -130 131c0 70 60 130 130 130c71 0 131 -60 131 -130c0 -72 -60 -131 -131 -131zM281 -16c-70 0 -130 59 -130 130s60 131 130 131c71 0 131 -60 131 -131s-60 -130 -131 -130z" />
    <glyph glyph-name="semicolon" unicode=";" horiz-adv-x="591" 
d="M335 568c-70 0 -130 59 -130 131c0 70 60 130 130 130c72 0 132 -60 132 -130c0 -72 -60 -131 -132 -131zM51 -279l197 491h227l-276 -491h-148z" />
    <glyph glyph-name="ellipsis" unicode="&#x2026;" horiz-adv-x="1654" 
d="M303 -16c-76 0 -141 64 -141 140c0 77 65 141 141 141c77 0 141 -64 141 -141c0 -76 -64 -140 -141 -140zM825 -16c-76 0 -141 64 -141 140c0 77 65 141 141 141c77 0 141 -64 141 -141c0 -76 -64 -140 -141 -140zM1350 -16c-76 0 -140 64 -140 140c0 77 64 141 140 141
c77 0 141 -64 141 -141c0 -76 -64 -140 -141 -140z" />
    <glyph glyph-name="exclam" unicode="!" horiz-adv-x="578" 
d="M197 404l-27 815h228l-28 -815h-173zM284 -16c-71 0 -130 59 -130 130c0 73 59 131 130 131c72 0 131 -58 131 -131c0 -71 -59 -130 -131 -130z" />
    <glyph glyph-name="exclamdown" unicode="&#xa1;" horiz-adv-x="586" 
d="M293 614c-72 0 -131 58 -131 131c0 71 59 130 131 130c71 0 130 -59 130 -130c0 -73 -59 -131 -130 -131zM179 -360l28 814h173l27 -814h-228z" />
    <glyph glyph-name="question" unicode="?" horiz-adv-x="910" 
d="M347 361v79c0 335 295 177 295 426c0 97 -84 170 -193 170c-115 0 -194 -80 -194 -186c0 -16 2 -31 5 -47h-203c-1 17 -3 36 -3 54c0 215 167 378 395 378c222 0 393 -161 393 -369c0 -334 -289 -252 -289 -412v-93h-206zM456 -16c-73 0 -131 58 -131 130s58 131 131 131
c71 0 130 -59 130 -131s-59 -130 -130 -130z" />
    <glyph glyph-name="questiondown" unicode="&#xbf;" horiz-adv-x="910" 
d="M453 614c-71 0 -130 58 -130 131c0 72 59 130 130 130c73 0 131 -58 131 -130c0 -73 -58 -131 -131 -131zM460 -376c-222 0 -393 160 -393 368c0 335 289 252 289 412v93h206v-78c0 -335 -295 -177 -295 -427c0 -96 84 -170 193 -170c115 0 194 80 194 187
c0 15 -2 30 -5 47h203c1 -18 3 -37 3 -54c0 -215 -167 -378 -395 -378z" />
    <glyph glyph-name="periodcentered" unicode="&#xb7;" horiz-adv-x="607" 
d="M304 445c-76 0 -141 60 -141 140c0 76 65 141 141 141c73 0 141 -65 141 -141c0 -80 -68 -140 -141 -140z" />
    <glyph glyph-name="bullet" unicode="&#x2022;" horiz-adv-x="896" 
d="M449 222c-174 0 -322 140 -322 319c0 174 148 322 322 322c171 0 319 -148 319 -322c0 -179 -148 -319 -319 -319z" />
    <glyph glyph-name="asterisk" unicode="*" horiz-adv-x="732" 
d="M303 799l-98 57l94 126l-156 -20v114l156 -19l-94 125l98 59l62 -146l63 146l100 -59l-96 -125l156 19v-114l-156 20l96 -126l-100 -57l-63 144z" />
    <glyph glyph-name="numbersign" unicode="#" horiz-adv-x="1334" 
d="M272 0l39 278h-237l24 165h235l51 330h-239l27 164h233l40 282h165l-39 -282h284l41 282h164l-39 -282h240l-27 -164h-236l-46 -330h235l-22 -165h-235l-43 -278h-163l39 278h-287l-38 -278h-166zM501 443h284l48 330h-287z" />
    <glyph glyph-name="slash" unicode="/" horiz-adv-x="1114" 
d="M-42 -488l983 1905h215l-983 -1905h-215z" />
    <glyph glyph-name="backslash" unicode="\" horiz-adv-x="1114" 
d="M941 -488l-983 1905h215l983 -1905h-215z" />
    <glyph glyph-name="parenleft" unicode="(" horiz-adv-x="601" 
d="M579 -481c-273 4 -486 253 -486 963c0 714 213 966 486 970v-163c-159 -6 -286 -210 -286 -807c0 -592 127 -793 286 -799v-164z" />
    <glyph glyph-name="parenright" unicode=")" horiz-adv-x="601" 
d="M22 -481v164c159 6 285 207 285 799c0 597 -126 801 -285 807v163c272 -4 486 -256 486 -970c0 -710 -214 -959 -486 -963z" />
    <glyph glyph-name="braceleft" unicode="{" horiz-adv-x="541" 
d="M375 -502c-114 0 -200 91 -200 230v418c0 170 -19 203 -122 248v136c103 45 122 78 122 246v418c0 141 86 232 200 232h108v-138c-104 0 -134 1 -134 -105v-431c0 -130 -21 -222 -92 -291c71 -68 92 -161 92 -291v-441c0 -72 19 -92 134 -92v-139h-108z" />
    <glyph glyph-name="braceright" unicode="}" horiz-adv-x="541" 
d="M58 -502v139c115 0 134 20 134 92v441c0 130 21 223 92 291c-71 69 -92 161 -92 291v431c0 106 -30 105 -134 105v138h108c114 0 199 -91 199 -232v-418c0 -168 20 -201 122 -246v-136c-102 -45 -122 -78 -122 -248v-418c0 -139 -85 -230 -199 -230h-108z" />
    <glyph glyph-name="bracketleft" unicode="[" horiz-adv-x="595" 
d="M168 -406v1855h409v-132h-210v-1591h210v-132h-409z" />
    <glyph glyph-name="bracketright" unicode="]" horiz-adv-x="595" 
d="M19 -406v132h209v1591h-209v132h408v-1855h-408z" />
    <glyph glyph-name="hyphen" unicode="-" horiz-adv-x="847" 
d="M139 339v168h569v-168h-569z" />
    <glyph glyph-name="uni00AD" unicode="&#xad;" horiz-adv-x="847" 
d="M139 339v168h569v-168h-569z" />
    <glyph glyph-name="endash" unicode="&#x2013;" horiz-adv-x="1091" 
d="M139 339v168h813v-168h-813z" />
    <glyph glyph-name="emdash" unicode="&#x2014;" horiz-adv-x="1903" 
d="M139 339v168h1625v-168h-1625z" />
    <glyph glyph-name="underscore" unicode="_" horiz-adv-x="1253" 
d="M139 -166v166h975v-166h-975z" />
    <glyph glyph-name="quotesinglbase" unicode="&#x201a;" horiz-adv-x="536" 
d="M70 -279l198 491h227l-277 -491h-148z" />
    <glyph glyph-name="quotedblbase" unicode="&#x201e;" horiz-adv-x="915" 
d="M70 -279l198 491h246l-276 -491h-168zM429 -279l198 491h246l-276 -491h-168z" />
    <glyph glyph-name="quotedblleft" unicode="&#x201c;" horiz-adv-x="915" 
d="M41 729l277 490h167l-197 -490h-247zM400 729l277 490h168l-198 -490h-247z" />
    <glyph glyph-name="quotedblright" unicode="&#x201d;" horiz-adv-x="914" 
d="M70 729l197 490h247l-276 -490h-168zM429 729l198 490h246l-276 -490h-168z" />
    <glyph glyph-name="quoteleft" unicode="&#x2018;" horiz-adv-x="555" 
d="M41 729l277 490h167l-197 -490h-247z" />
    <glyph glyph-name="quoteright" unicode="&#x2019;" horiz-adv-x="555" 
d="M70 729l197 490h247l-276 -490h-168z" />
    <glyph glyph-name="guillemotleft" unicode="&#xab;" horiz-adv-x="898" 
d="M292 154l-247 299l247 300h182l-247 -300l247 -299h-182zM660 154l-247 299l247 300h184l-247 -300l247 -299h-184z" />
    <glyph glyph-name="guillemotright" unicode="&#xbb;" horiz-adv-x="898" 
d="M54 154l247 299l-247 300h182l247 -300l-247 -299h-182zM421 154l247 299l-247 300h185l247 -300l-247 -299h-185z" />
    <glyph glyph-name="guilsinglleft" unicode="&#x2039;" horiz-adv-x="528" 
d="M292 154l-247 299l247 300h182l-247 -300l247 -299h-182z" />
    <glyph glyph-name="guilsinglright" unicode="&#x203a;" horiz-adv-x="528" 
d="M54 154l247 299l-247 300h182l247 -300l-247 -299h-182z" />
    <glyph glyph-name="quotedbl" unicode="&#x22;" horiz-adv-x="856" 
d="M182 685l-28 550h215l-28 -550h-159zM515 685l-29 550h215l-26 -550h-160z" />
    <glyph glyph-name="quotesingle" unicode="'" horiz-adv-x="523" 
d="M182 750l-28 485h215l-28 -485h-159z" />
    <glyph glyph-name="cent" unicode="&#xa2;" horiz-adv-x="906" 
d="M558 791c-124 0 -221 -98 -221 -222s97 -222 221 -222c66 0 136 16 183 57v-220c-51 -23 -106 -35 -164 -38v-148h-134v162c-195 46 -335 210 -335 409s140 362 335 409v161h134v-148c58 -2 113 -14 164 -37v-219c-48 40 -117 56 -183 56z" />
    <glyph glyph-name="currency" unicode="&#xa4;" horiz-adv-x="1175" 
d="M292 172l-120 127l86 85c-80 124 -80 288 0 412l-84 83l120 127l88 -88c124 80 287 81 412 0l86 87l122 -122l-85 -86c80 -125 80 -289 0 -414l85 -84l-120 -127l-88 89c-125 -80 -290 -80 -414 0zM432 436c87 -85 224 -87 310 0c84 85 85 224 -1 308s-222 84 -308 -1
c-83 -85 -85 -224 -1 -307z" />
    <glyph glyph-name="dollar" unicode="$" horiz-adv-x="1049" 
d="M948 351c0 -200 -134 -325 -312 -358v-125h-207v127c-154 33 -277 131 -337 255l198 124c43 -101 134 -165 251 -165c103 0 171 49 171 130c0 229 -569 151 -569 550c0 191 131 305 286 337v126h207v-131c109 -27 203 -91 264 -174l-155 -153c-68 81 -143 127 -225 127
c-78 0 -139 -40 -139 -117c0 -224 567 -139 567 -553z" />
    <glyph glyph-name="Euro" unicode="&#x20ac;" horiz-adv-x="1273" 
d="M465 415c69 -134 208 -223 370 -223c100 0 215 47 288 117v-247c-90 -49 -196 -78 -288 -78c-282 0 -515 179 -596 431h-129v127h103c-3 22 -4 45 -4 68c0 22 1 43 3 64h-102v128h128c80 253 314 433 597 433c96 0 203 -30 296 -81l-62 -202c-68 47 -155 75 -234 75
c-163 0 -303 -91 -371 -225h558l-39 -128h-560c-3 -21 -5 -42 -5 -64c0 -23 2 -46 5 -68h521l-39 -127h-440z" />
    <glyph glyph-name="florin" unicode="&#x192;" horiz-adv-x="873" 
d="M697 1073c-83 0 -141 -58 -156 -149l-18 -111h220l-27 -172h-220l-167 -1047h-204l166 1047h-136l27 172h136l22 141c26 161 175 281 333 281c55 0 105 -15 124 -29l-19 -160c-21 18 -54 27 -81 27z" />
    <glyph glyph-name="sterling" unicode="&#xa3;" horiz-adv-x="1130" 
d="M410 160h617v-160h-790v518h-130v148h130v165c0 236 164 404 394 404c175 0 343 -128 380 -303l-167 -72c-2 114 -105 202 -213 202c-135 0 -221 -90 -221 -231v-165h302v-148h-302v-358z" />
    <glyph glyph-name="yen" unicode="&#xa5;" horiz-adv-x="1180" 
d="M1102 1219l-401 -606h279v-143h-290v-128h290v-134h-290v-208h-200v208h-290v134h290v128h-290v143h277l-401 606h213l300 -470l301 470h212z" />
    <glyph glyph-name="plus" unicode="+" horiz-adv-x="1170" 
d="M495 0v414h-414v180h414v414h180v-414h414v-180h-414v-414h-180z" />
    <glyph glyph-name="minus" unicode="&#x2212;" horiz-adv-x="1321" 
d="M209 418v163h903v-163h-903z" />
    <glyph glyph-name="multiply" unicode="&#xd7;" horiz-adv-x="1034" 
d="M937 796l-293 -292l293 -293l-126 -127l-294 293l-293 -293l-127 127l293 293l-293 292l127 128l293 -293l294 293z" />
    <glyph glyph-name="divide" unicode="&#xf7;" horiz-adv-x="1131" 
d="M566 646c-62 0 -117 50 -117 116c0 62 55 116 117 116s116 -54 116 -116c0 -66 -54 -116 -116 -116zM78 389v116h975v-116h-975zM566 15c-62 0 -117 51 -117 117c0 62 55 116 117 116s116 -54 116 -116c0 -66 -54 -117 -116 -117z" />
    <glyph glyph-name="equal" unicode="=" horiz-adv-x="1395" 
d="M210 519v145h975v-145h-975zM210 198v144h975v-144h-975z" />
    <glyph glyph-name="notequal" unicode="&#x2260;" horiz-adv-x="1299" 
d="M1138 519h-340l-151 -177h491v-144h-615l-157 -184h-128l158 184h-233v144h356l152 177h-508v145h632l139 162h127l-139 -162h216v-145z" />
    <glyph glyph-name="greater" unicode="&#x3e;" horiz-adv-x="1090" 
d="M115 1150l897 -450v-204l-897 -454v191l722 365l-722 364v188z" />
    <glyph glyph-name="less" unicode="&#x3c;" horiz-adv-x="1090" 
d="M975 1150v-188l-722 -364l722 -365v-191l-897 454v204z" />
    <glyph glyph-name="greaterequal" unicode="&#x2265;" horiz-adv-x="1151" 
d="M140 1186l897 -393v-204l-897 -397v190l708 309l-708 308v187zM140 0v131h897v-131h-897z" />
    <glyph glyph-name="lessequal" unicode="&#x2264;" horiz-adv-x="1151" 
d="M1012 1186v-187l-709 -308l709 -309v-190l-897 397v204zM115 0v131h897v-131h-897z" />
    <glyph glyph-name="plusminus" unicode="&#xb1;" horiz-adv-x="1384" 
d="M615 294v293h-491v155h491v293h154v-293h491v-155h-491v-293h-154zM124 0v139h1136v-139h-1136z" />
    <glyph glyph-name="approxequal" unicode="&#x2248;" horiz-adv-x="1166" 
d="M750 511c-126 0 -197 85 -234 124c-33 35 -57 45 -83 45c-69 -3 -105 -67 -106 -157h-159c1 189 99 315 268 315c87 0 147 -35 211 -117c21 -25 45 -56 90 -56c59 0 101 57 103 154h156c-2 -175 -90 -308 -246 -308zM750 156c-126 0 -197 86 -234 125
c-27 28 -47 45 -83 44c-71 -3 -105 -67 -106 -156h-159c1 190 102 316 268 316c84 0 145 -35 211 -118c19 -23 45 -57 90 -57c59 0 101 56 103 155h156c-2 -175 -90 -309 -246 -309z" />
    <glyph glyph-name="asciitilde" unicode="~" horiz-adv-x="1162" 
d="M748 254c-127 0 -196 86 -235 125c-32 32 -55 44 -82 44c-73 0 -108 -77 -107 -156h-158c-10 185 94 314 270 314c95 0 151 -40 209 -116c22 -29 46 -58 88 -58c60 0 111 59 104 155h157c17 -175 -91 -308 -246 -308z" />
    <glyph glyph-name="logicalnot" unicode="&#xac;" horiz-adv-x="1335" 
d="M977 162v416h-882v150h1030v-566h-148z" />
    <glyph glyph-name="asciicircum" unicode="^" horiz-adv-x="1214" 
d="M1161 322h-191l-363 721l-364 -721h-190l452 897h204z" />
    <glyph glyph-name="emptyset" unicode="&#x2205;" horiz-adv-x="1245" 
d="M996 785c70 -85 113 -194 113 -312c0 -268 -218 -486 -486 -486c-118 0 -227 42 -311 113l-71 -71l-62 62l71 71c-71 84 -113 193 -113 311c0 268 218 486 486 486c118 0 226 -42 311 -112l70 70l62 -62zM318 473c0 -69 22 -132 60 -183l427 428c-50 38 -114 60 -182 60
c-170 0 -305 -135 -305 -305zM623 168c169 0 305 135 305 305c0 69 -22 132 -61 183l-427 -428c51 -38 114 -60 183 -60z" />
    <glyph glyph-name="infinity" unicode="&#x221e;" horiz-adv-x="1415" 
d="M408 210c-144 0 -246 109 -251 263c5 154 107 263 251 263c95 0 200 -56 298 -156c98 101 203 156 297 156c151 0 246 -100 251 -263c-5 -163 -100 -263 -251 -263c-94 0 -199 55 -297 156c-98 -100 -203 -156 -298 -156zM408 356c56 0 128 41 201 117
c-73 76 -145 117 -201 117c-57 0 -106 -49 -107 -117c1 -68 50 -117 107 -117zM1003 356c60 0 105 45 106 117c-1 72 -46 117 -106 117c-57 0 -128 -42 -201 -117c73 -75 144 -117 201 -117z" />
    <glyph glyph-name="integral" unicode="&#x222b;" horiz-adv-x="770" 
d="M174 -307c-104 0 -160 90 -116 204h118c-9 -61 -11 -79 19 -79c17 0 29 12 32 32l190 1197c14 90 92 157 181 157c101 0 159 -89 113 -204h-118c9 61 12 80 -17 80c-17 0 -31 -12 -35 -33l-189 -1197c-14 -90 -91 -157 -178 -157z" />
    <glyph glyph-name="product" unicode="&#x220f;" horiz-adv-x="1333" 
d="M228 -195v1179h-108v159h1093v-159h-108v-1179h-158v1179h-560v-1179h-159z" />
    <glyph glyph-name="summation" unicode="&#x2211;" horiz-adv-x="1129" 
d="M81 -192v137l558 530l-558 529v139h954v-172h-665l509 -496l-509 -496h665v-171h-954z" />
    <glyph glyph-name="radical" unicode="&#x221a;" horiz-adv-x="1156" 
d="M350 -127l-178 548h-115v146h219l153 -465l548 1147l134 -57l-632 -1319h-129z" />
    <glyph glyph-name="uni00B5" unicode="&#xb5;" horiz-adv-x="1130" 
d="M772 813h201v-813h-201v100c-60 -71 -147 -116 -244 -116c-62 0 -120 18 -169 49v-439h-149v1219h201v-478c0 -97 77 -174 175 -174c104 0 186 77 186 174v478z" />
    <glyph glyph-name="partialdiff" unicode="&#x2202;" horiz-adv-x="997" 
d="M286 1155c327 71 587 -210 585 -622c-2 -300 -187 -530 -428 -530c-283 0 -416 211 -310 496c93 246 299 352 499 292c-63 182 -195 274 -346 205v159zM670 533c0 31 -1 62 -4 91c-144 85 -272 21 -346 -176c-60 -157 -1 -300 123 -300c119 0 225 175 227 385z" />
    <glyph glyph-name="percent" unicode="%" horiz-adv-x="1363" 
d="M347 657c-142 0 -256 129 -256 288c0 161 114 290 256 290c141 0 254 -129 254 -290c0 -159 -113 -288 -254 -288zM151 0l822 1219h236l-822 -1219h-236zM347 829c41 0 82 41 82 116c0 77 -41 118 -82 118c-45 0 -83 -41 -83 -118c0 -75 38 -116 83 -116zM1017 -16
c-142 0 -256 130 -256 290c0 159 114 288 256 288c141 0 255 -129 255 -288c0 -160 -114 -290 -255 -290zM1017 156c42 0 82 41 82 118c0 75 -40 116 -82 116c-45 0 -83 -41 -83 -116c0 -77 38 -118 83 -118z" />
    <glyph glyph-name="perthousand" unicode="&#x2030;" horiz-adv-x="1939" 
d="M347 657c-142 0 -256 129 -256 288c0 161 114 290 256 290c141 0 254 -129 254 -290c0 -159 -113 -288 -254 -288zM151 0l822 1219h236l-822 -1219h-236zM347 829c41 0 82 41 82 116c0 77 -41 118 -82 118c-45 0 -83 -41 -83 -118c0 -75 38 -116 83 -116zM1017 -16
c-142 0 -256 130 -256 290c0 159 114 288 256 288c141 0 255 -129 255 -288c0 -160 -114 -290 -255 -290zM1609 -16c-142 0 -256 130 -256 290c0 159 114 288 256 288s254 -129 254 -288c0 -160 -112 -290 -254 -290zM1017 156c42 0 82 41 82 118c0 75 -40 116 -82 116
c-45 0 -83 -41 -83 -116c0 -77 38 -118 83 -118zM1608 156c43 0 82 41 82 118c0 75 -39 116 -82 116c-44 0 -83 -41 -83 -116c0 -77 39 -118 83 -118z" />
    <glyph glyph-name="lozenge" unicode="&#x25ca;" horiz-adv-x="1074" 
d="M538 85l-491 489l491 491l489 -490zM538 335l239 240l-239 239l-240 -240z" />
    <glyph glyph-name="uniF8FF" unicode="&#xf8ff;" horiz-adv-x="1451" 
d="M726 0c-340 0 -618 278 -618 618c0 341 278 617 618 617c341 0 617 -276 617 -617c0 -340 -276 -618 -617 -618zM726 59c309 0 559 251 559 559s-250 559 -559 559c-307 0 -559 -251 -559 -559s252 -559 559 -559zM402 353c-16 0 -29 13 -29 29v471c0 17 13 30 29 30
c17 0 30 -13 30 -30v-471c0 -16 -13 -29 -30 -29zM726 353c-16 0 -29 13 -29 29v471c0 17 13 30 29 30s29 -13 29 -30v-471c0 -16 -13 -29 -29 -29zM1049 353c-6 0 -14 3 -19 9l-236 235c-11 13 -11 30 0 42l236 235c11 12 29 12 40 0c12 -11 12 -30 0 -42l-214 -214
l214 -215c12 -11 10 -28 0 -41c-4 -6 -13 -9 -21 -9zM490 588c-16 0 -29 13 -29 30c0 16 13 29 29 29h148c16 0 29 -13 29 -29c0 -17 -13 -30 -29 -30h-148z" />
    <glyph glyph-name="at" unicode="@" horiz-adv-x="1275" 
d="M1098 310h-170v47c-49 -44 -124 -70 -186 -70c-142 0 -257 114 -257 261c0 145 115 260 255 260c67 0 141 -30 188 -77v28c0 116 -114 209 -261 209c-213 0 -383 -176 -383 -395c0 -228 187 -404 421 -404h393v-169h-393c-333 0 -592 252 -592 573c0 316 246 567 554 567
c242 0 431 -166 431 -381v-449zM812 428c51 0 95 26 116 66v107c-21 39 -65 65 -116 65c-74 0 -128 -51 -128 -118c0 -69 54 -120 128 -120z" />
    <glyph glyph-name="ampersand" unicode="&#x26;" horiz-adv-x="1189" 
d="M1107 702v-196h-128v-130c0 -218 -169 -377 -411 -377c-233 0 -417 146 -417 349c0 105 49 199 126 263c-77 69 -124 165 -124 275c0 191 143 333 332 333h265v-208h-221c-75 -2 -147 -53 -147 -141c0 -95 82 -168 185 -168h183v181h229v-181h128zM564 200
c116 0 186 74 186 176v130h-215c-92 0 -168 -71 -168 -154c0 -92 92 -152 197 -152z" />
    <glyph glyph-name="paragraph" unicode="&#xb6;" horiz-adv-x="980" 
d="M385 -244v919h-32c-179 0 -289 95 -289 273c0 177 110 271 289 271h148v-1463h-116zM653 -244v1463h117v-1463h-117z" />
    <glyph glyph-name="section" unicode="&#xa7;" horiz-adv-x="1081" 
d="M896 425c39 -37 63 -85 63 -149c0 -158 -196 -273 -419 -273c-192 0 -362 84 -431 196l141 87c42 -72 149 -126 298 -126c131 0 243 43 243 119c0 176 -629 81 -629 403c0 57 20 107 62 149c-38 36 -62 82 -62 143c0 170 184 261 369 261c139 0 277 -50 353 -125
l-114 -95c-52 47 -136 75 -228 75c-113 0 -211 -40 -211 -108c0 -178 629 -80 629 -410c0 -55 -23 -105 -64 -147zM331 688c0 -112 241 -118 424 -183c24 20 36 44 36 69c0 108 -241 115 -424 179c-24 -17 -36 -39 -36 -65z" />
    <glyph glyph-name="copyright" unicode="&#xa9;" horiz-adv-x="1466" 
d="M733 -16c-344 0 -625 281 -625 626c0 344 281 625 625 625c345 0 626 -281 626 -625c0 -345 -281 -626 -626 -626zM733 106c282 0 504 222 504 504c0 281 -222 503 -504 503c-281 0 -503 -222 -503 -503c0 -282 222 -504 503 -504zM737 289c-192 0 -327 138 -327 321
c0 182 135 320 327 320c169 0 291 -104 320 -251h-170c-25 59 -81 97 -150 98c-92 -1 -163 -73 -163 -167c0 -95 71 -167 163 -168c69 1 125 40 150 98h170c-29 -146 -151 -251 -320 -251z" />
    <glyph glyph-name="registered" unicode="&#xae;" horiz-adv-x="1466" 
d="M733 1235c345 0 626 -281 626 -625c0 -345 -281 -626 -626 -626c-344 0 -625 281 -625 626c0 344 281 625 625 625zM733 106c283 0 504 222 504 504c0 281 -221 503 -504 503c-281 0 -503 -222 -503 -503c0 -282 222 -504 503 -504zM966 735c0 -75 -45 -140 -109 -170
l147 -270h-127l-140 252h-64v-252h-111v629h212c106 0 192 -84 192 -189zM673 811v-153h101c43 0 78 34 78 77s-35 76 -78 76h-101z" />
    <glyph glyph-name="trademark" unicode="&#x2122;" horiz-adv-x="1460" 
d="M111 1119v100h406v-100h-147v-468h-115v468h-144zM1128 1219h122v-568h-114v389l-195 -289l-195 289v-389h-115v568h124l186 -278z" />
    <glyph glyph-name="degree" unicode="&#xb0;" horiz-adv-x="793" 
d="M396 800c-133 0 -238 105 -238 237s105 238 238 238c132 0 237 -106 237 -238s-105 -237 -237 -237zM396 921c66 0 116 50 116 116s-50 116 -116 116s-116 -50 -116 -116s50 -116 116 -116z" />
    <glyph glyph-name="bar" unicode="|" horiz-adv-x="563" 
d="M211 -244v1463h141v-1463h-141z" />
    <glyph glyph-name="brokenbar" unicode="&#xa6;" horiz-adv-x="563" 
d="M211 634v585h141v-585h-141zM211 -244v585h141v-585h-141z" />
    <glyph glyph-name="uni2113" horiz-adv-x="1018" 
d="M561 -10c-214 0 -313 129 -338 286c0 5 0 11 -1 15c-33 -20 -65 -47 -100 -71l-59 114c54 41 107 77 155 117v432c0 323 153 449 333 449c188 0 270 -143 270 -305c0 -214 -152 -408 -392 -617l1 -53c3 -129 86 -195 182 -195c110 0 204 85 256 169l94 -92
c-101 -180 -249 -249 -401 -249zM428 600c141 144 244 293 244 426c0 94 -31 159 -113 159c-60 0 -131 -63 -131 -275v-310z" />
    <glyph glyph-name="dagger" unicode="&#x2020;" horiz-adv-x="794" 
d="M737 802v-144h-270v-934h-146v934h-264v144h264v287h146v-287h270z" />
    <glyph glyph-name="daggerdbl" unicode="&#x2021;" horiz-adv-x="895" 
d="M788 658h-270v-491h270v-143h-270v-300h-146v300h-265v143h265v491h-265v144h265v287h146v-287h270v-144z" />
    <glyph glyph-name="estimated" horiz-adv-x="1564" 
d="M797 -15c-383 0 -694 280 -694 623c0 348 311 627 694 627c386 0 696 -279 696 -627v-16h-1125c-6 0 -10 -2 -10 -7v-341c0 -15 7 -28 15 -39c109 -112 260 -185 426 -185c180 0 340 81 449 208h99c-124 -147 -325 -243 -550 -243zM368 626h863c5 0 7 6 7 11v341
c0 15 -5 31 -16 41c-109 107 -257 179 -423 179c-164 0 -314 -73 -424 -184c-10 -11 -17 -26 -17 -42v-335c0 -5 4 -11 10 -11z" />
    <glyph glyph-name="uni0308" unicode="&#x308;" 
d="M-639 1032c-77 0 -141 65 -141 141c0 80 64 142 141 142c78 0 144 -62 144 -142c0 -76 -66 -141 -144 -141zM-250 1032c-77 0 -142 65 -142 141c0 80 65 142 142 142c78 0 144 -62 144 -142c0 -76 -66 -141 -144 -141z" />
    <glyph glyph-name="uni0307" unicode="&#x307;" 
d="M-250 1032c-77 0 -141 65 -141 141c0 80 64 142 141 142c78 0 144 -62 144 -142c0 -76 -66 -141 -144 -141z" />
    <glyph glyph-name="gravecomb" unicode="&#x300;" 
d="M-202 952l-251 267h224l179 -267h-152z" />
    <glyph glyph-name="acutecomb" unicode="&#x301;" 
d="M-427 952l179 267h224l-251 -267h-152z" />
    <glyph glyph-name="uni030B" unicode="&#x30b;" 
d="M-737 952l177 267h222l-249 -267h-150zM-425 952l177 267h223l-249 -267h-151z" />
    <glyph glyph-name="uni030C.alt" 
d="M-457 729l197 490h247l-276 -490h-168z" />
    <glyph glyph-name="uni0302" unicode="&#x302;" 
d="M-625 952l190 267h199l192 -267h-172l-118 172l-119 -172h-172z" />
    <glyph glyph-name="uni030C" unicode="&#x30c;" 
d="M-438 952l-189 267h172l118 -172l118 172h173l-192 -267h-200z" />
    <glyph glyph-name="uni0306" unicode="&#x306;" 
d="M-386 971c-170 0 -289 65 -289 248h131c0 -75 62 -128 158 -128c97 0 160 53 160 128h130c0 -183 -119 -248 -290 -248z" />
    <glyph glyph-name="uni030A" unicode="&#x30a;" 
d="M-287 880c-106 0 -193 87 -193 193c0 103 87 189 193 189c104 0 189 -86 189 -189c0 -106 -85 -193 -189 -193zM-287 978c51 0 92 39 92 95c0 49 -41 95 -92 95c-53 0 -92 -46 -92 -95c0 -56 39 -95 92 -95z" />
    <glyph glyph-name="tildecomb" unicode="&#x303;" 
d="M-294 969c-115 0 -143 124 -204 124c-39 0 -55 -50 -55 -114h-140c0 145 71 251 190 251s144 -125 206 -125c39 0 55 43 55 114h139c0 -141 -64 -250 -191 -250z" />
    <glyph glyph-name="uni0304" unicode="&#x304;" 
d="M-617 983v146h478v-146h-478z" />
    <glyph glyph-name="uni0312" unicode="&#x312;" 
d="M-408 975l209 244h116l-115 -244h-210z" />
    <glyph glyph-name="dotbelowcomb" unicode="&#x323;" 
d="M-241 -406c-70 0 -130 59 -130 130s60 131 130 131c72 0 132 -60 132 -131s-60 -130 -132 -130z" />
    <glyph glyph-name="uni0326" unicode="&#x326;" 
d="M-362 -403l115 303h210l-209 -303h-116z" />
    <glyph glyph-name="uni0327" unicode="&#x327;" 
d="M-261 -423c-82 0 -166 55 -191 122l103 35c16 -27 56 -49 88 -49c37 0 67 31 67 70c0 61 -58 82 -133 47l-85 49l82 149h110l-55 -96c106 18 191 -48 191 -149c0 -99 -79 -178 -177 -178z" />
    <glyph glyph-name="uni0328" unicode="&#x328;" 
d="M-293 -420c-127 9 -200 89 -200 196c0 127 113 202 247 258l106 -34c-121 -59 -209 -107 -209 -204c0 -66 34 -104 93 -104c55 0 107 33 138 85l73 -101c-65 -67 -158 -102 -248 -96z" />
    <glyph glyph-name="uni0335" unicode="&#x335;" 
d="M-684 344v134h546v-134h-546z" />
    <glyph glyph-name="uni0336" unicode="&#x336;" 
d="M-1341 371v103h1203v-103h-1203z" />
    <glyph glyph-name="uni0337" unicode="&#x337;" 
d="M-453 105v216l417 439v-217z" />
    <glyph glyph-name="uni0338" unicode="&#x338;" 
d="M-646 16l-119 70l670 961l118 -71z" />
    <glyph glyph-name="acute" unicode="&#xb4;" horiz-adv-x="475" 
d="M50 916l179 303h224l-251 -303h-152z" />
    <glyph glyph-name="breve" unicode="&#x2d8;" horiz-adv-x="769" 
d="M383 971c-170 0 -289 65 -289 248h131c0 -75 62 -128 158 -128c97 0 160 53 160 128h130c0 -183 -119 -248 -290 -248z" />
    <glyph glyph-name="caron" unicode="&#x2c7;" horiz-adv-x="626" 
d="M236 916l-189 303h148l118 -172l118 172h149l-192 -303h-152z" />
    <glyph glyph-name="cedilla" unicode="&#xb8;" horiz-adv-x="527" 
d="M266 -423c-82 0 -166 55 -191 122l103 35c16 -27 56 -49 88 -49c37 0 67 31 67 70c0 61 -58 82 -133 47l-85 49l82 149h110l-55 -96c106 18 191 -48 191 -149c0 -99 -79 -178 -177 -178z" />
    <glyph glyph-name="circumflex" unicode="&#x2c6;" horiz-adv-x="622" 
d="M45 916l190 303h151l192 -303h-148l-118 172l-119 -172h-148z" />
    <glyph glyph-name="dieresis" unicode="&#xa8;" horiz-adv-x="887" 
d="M205 1032c-77 0 -141 65 -141 141c0 80 64 142 141 142c78 0 144 -62 144 -142c0 -76 -66 -141 -144 -141zM594 1032c-77 0 -142 65 -142 141c0 80 65 142 142 142c78 0 144 -62 144 -142c0 -76 -66 -141 -144 -141z" />
    <glyph glyph-name="dotaccent" unicode="&#x2d9;" horiz-adv-x="498" 
d="M248 1032c-77 0 -141 65 -141 141c0 80 64 142 141 142c78 0 144 -62 144 -142c0 -76 -66 -141 -144 -141z" />
    <glyph glyph-name="grave" unicode="`" horiz-adv-x="475" 
d="M273 916l-251 303h224l179 -303h-152z" />
    <glyph glyph-name="hungarumlaut" unicode="&#x2dd;" horiz-adv-x="475" 
d="M50 916l179 303h224l-251 -303h-152z" />
    <glyph glyph-name="macron" unicode="&#xaf;" horiz-adv-x="756" 
d="M139 951v146h478v-146h-478z" />
    <glyph glyph-name="ogonek" unicode="&#x2db;" horiz-adv-x="575" 
d="M282 -420c-127 9 -200 89 -200 196c0 127 113 202 247 258l106 -34c-121 -59 -209 -107 -209 -204c0 -66 34 -104 93 -104c55 0 107 33 138 85l73 -101c-65 -67 -158 -102 -248 -96z" />
    <glyph glyph-name="ring" unicode="&#x2da;" horiz-adv-x="576" 
d="M289 880c-106 0 -193 87 -193 193c0 103 87 189 193 189c104 0 189 -86 189 -189c0 -106 -85 -193 -189 -193zM289 978c51 0 92 39 92 95c0 49 -41 95 -92 95c-53 0 -92 -46 -92 -95c0 -56 39 -95 92 -95z" />
    <glyph glyph-name="tilde" unicode="&#x2dc;" horiz-adv-x="796" 
d="M502 969c-70 0 -120 34 -162 93c-14 23 -26 31 -42 31c-39 0 -55 -50 -55 -114h-140c0 145 71 251 190 251c75 0 127 -44 163 -95c10 -16 21 -30 43 -30c39 0 55 43 55 114h139c0 -141 -64 -250 -191 -250z" />
    <glyph glyph-name="uni0338.case" 
d="M-885 -93l-147 87l919 1319l146 -88z" />
    </font>
</defs>
</svg>
